<?xml version="1.0" encoding="UTF-8" standalone="no"?>
<!-- Created with Inkscape (http://www.inkscape.org/) -->

<svg
   xmlns:dc="http://purl.org/dc/elements/1.1/"
   xmlns:cc="http://creativecommons.org/ns#"
   xmlns:rdf="http://www.w3.org/1999/02/22-rdf-syntax-ns#"
   xmlns:svg="http://www.w3.org/2000/svg"
   xmlns="http://www.w3.org/2000/svg"
   xmlns:sodipodi="http://sodipodi.sourceforge.net/DTD/sodipodi-0.dtd"
   xmlns:inkscape="http://www.inkscape.org/namespaces/inkscape"
   width="37.080013mm"
   height="103.801mm"
   viewBox="0 0 37.080013 103.801"
   version="1.1"
   id="svg7532"
   inkscape:version="0.92.1 r15371"
   sodipodi:docname="homem_normal.svg">
  <defs
     id="defs7526" />
  <sodipodi:namedview
     id="base"
     pagecolor="#ffffff"
     bordercolor="#666666"
     borderopacity="1.0"
     inkscape:pageopacity="0.0"
     inkscape:pageshadow="2"
     inkscape:zoom="0.35"
     inkscape:cx="1550.0725"
     inkscape:cy="1393.3022"
     inkscape:document-units="mm"
     inkscape:current-layer="layer1"
     showgrid="false"
     fit-margin-top="0"
     fit-margin-left="0"
     fit-margin-right="0"
     fit-margin-bottom="0"
     inkscape:window-width="1920"
     inkscape:window-height="1018"
     inkscape:window-x="-8"
     inkscape:window-y="-8"
     inkscape:window-maximized="1" />
  <metadata
     id="metadata7529">
    <rdf:RDF>
      <cc:Work
         rdf:about="">
        <dc:format>image/svg+xml</dc:format>
        <dc:type
           rdf:resource="http://purl.org/dc/dcmitype/StillImage" />
        <dc:title></dc:title>
      </cc:Work>
    </rdf:RDF>
  </metadata>
  <g
     inkscape:label="Layer 1"
     inkscape:groupmode="layer"
     id="layer1"
     transform="translate(497.05786,-413.67688)">
    <path
       style="opacity:1;fill:#6dcdf5;fill-opacity:1;stroke-width:0.99999994"
       d="m -488.69815,516.41389 c 0,-0.65709 0.4125,-1.17218 1.0786,-1.3463 0.9792,-0.25637 1.0485,-0.52116 0.7522,-2.87541 -0.1796,-1.42634 -0.4509,-6.93973 -0.6032,-12.25197 -0.2192,-7.65295 -0.5043,-10.50301 -1.3724,-13.72536 -0.8796,-3.26461 -1.0988,-5.52065 -1.1109,-11.4378 -0.012,-6.77845 0.1015,-7.71833 1.4348,-11.69197 l 1.4499,-4.3209 -0.8614,-6.60854 c -1.1941,-9.16147 -1.5347,-10.06623 -1.9735,-5.24326 -0.4083,4.48987 -1.4268,9.99509 -2.6623,14.39351 -0.5308,1.88955 -0.8765,5.08103 -0.9089,8.38773 l -0.054,5.33764 -1.5872,0.15431 c -1.0351,0.10086 -1.6866,-0.10449 -1.8727,-0.58961 -0.1568,-0.40888 -0.036,-7.91322 0.2683,-16.67572 0.3044,-8.7625 0.5224,-17.30435 0.4846,-18.9819 -0.1388,-6.10851 0.7682,-7.05728 9.1886,-9.61244 4.8021,-1.4572 5.0393,-1.74906 3.6325,-4.46963 -0.5926,-1.14625 -0.7609,-2.54466 -0.6154,-5.11952 0.1759,-3.11264 0.3711,-3.68922 1.6064,-4.75206 2.1518,-1.85089 6.003,-1.71778 7.9972,0.27619 1.3571,1.35716 1.4843,1.78676 1.4679,4.95638 -0.013,2.04482 -0.3164,3.99255 -0.7445,4.74132 -1.4319,2.50485 -1.0809,2.92081 3.6855,4.3672 8.6292,2.6185 9.2427,3.30549 9.2651,10.3749 0.01,2.37648 0.1849,7.5235 0.3945,11.43781 0.2095,3.91425 0.3806,10.89131 0.3806,15.50456 v 8.38773 l -1.6556,0.15971 c -2.0871,0.20114 -2.4965,-0.7068 -1.7567,-3.89612 0.4797,-2.06919 0.3326,-3.31612 -1.1831,-10.01058 -0.9523,-4.20581 -2.0307,-10.15347 -2.3965,-13.217 l -0.6652,-5.57006 -1.1331,8.21589 -1.1332,8.21583 1.6137,4.74702 c 1.4463,4.25474 1.6131,5.35313 1.6078,10.59297 0,4.6874 -0.2846,6.95419 -1.4131,11.4378 -1.0334,4.10609 -1.3392,6.3435 -1.1509,8.42123 0.1411,1.55619 -0.042,6.81759 -0.4112,11.69196 l -0.6679,8.86251 1.2329,0.93203 c 1.9301,1.45905 1.4869,1.86391 -2.0403,1.86391 h -3.2731 l -0.2852,-2.16046 c -0.7463,-5.651 -1.4418,-15.54798 -1.545,-21.98604 -0.1129,-7.05462 -1.7002,-23.12976 -2.2836,-23.12976 -0.5499,0 -2.2355,16.42812 -2.1643,21.09641 0.064,4.22526 -1.0749,20.70932 -1.6953,24.5277 -0.2677,1.64896 -0.2744,1.65215 -3.2955,1.65215 -2.7332,0 -3.027,-0.10327 -3.027,-1.06429 z"
       id="path14389-7"
       inkscape:connector-curvature="0"
       sodipodi:nodetypes="cccccccccccccccscsccccccccsscccccccccccccccscccsccscc" />
  </g>
</svg>
