<?xml version="1.0" encoding="UTF-8" standalone="no"?>
<!-- Created with Inkscape (http://www.inkscape.org/) -->

<svg
   xmlns:dc="http://purl.org/dc/elements/1.1/"
   xmlns:cc="http://creativecommons.org/ns#"
   xmlns:rdf="http://www.w3.org/1999/02/22-rdf-syntax-ns#"
   xmlns:svg="http://www.w3.org/2000/svg"
   xmlns="http://www.w3.org/2000/svg"
   xmlns:sodipodi="http://sodipodi.sourceforge.net/DTD/sodipodi-0.dtd"
   xmlns:inkscape="http://www.inkscape.org/namespaces/inkscape"
   width="32.416592mm"
   height="103.80058mm"
   viewBox="0 0 32.416591 103.80057"
   version="1.1"
   id="svg7532"
   inkscape:version="0.92.1 r15371"
   sodipodi:docname="homem_baixopeso.svg">
  <defs
     id="defs7526" />
  <sodipodi:namedview
     id="base"
     pagecolor="#ffffff"
     bordercolor="#666666"
     borderopacity="1.0"
     inkscape:pageopacity="0.0"
     inkscape:pageshadow="2"
     inkscape:zoom="0.35"
     inkscape:cx="-1042.9535"
     inkscape:cy="932.31792"
     inkscape:document-units="mm"
     inkscape:current-layer="layer1"
     showgrid="false"
     fit-margin-top="0"
     fit-margin-left="0"
     fit-margin-right="0"
     fit-margin-bottom="0"
     inkscape:window-width="1920"
     inkscape:window-height="1018"
     inkscape:window-x="-8"
     inkscape:window-y="-8"
     inkscape:window-maximized="1" />
  <metadata
     id="metadata7529">
    <rdf:RDF>
      <cc:Work
         rdf:about="">
        <dc:format>image/svg+xml</dc:format>
        <dc:type
           rdf:resource="http://purl.org/dc/dcmitype/StillImage" />
        <dc:title></dc:title>
      </cc:Work>
    </rdf:RDF>
  </metadata>
  <g
     inkscape:label="Layer 1"
     inkscape:groupmode="layer"
     id="layer1"
     transform="translate(3.7542509,-291.70855)">
    <path
       style="opacity:1;fill:#8d216c;fill-opacity:1;stroke-width:0.99999994"
       d="m 3.2905047,394.77406 c 0,-0.40393 0.4677,-1.06181 1.0385,-1.4619 1.0068,-0.70512 1.2688,-0.95072 0.7603,-8.04428 -0.2886,-4.02431 -0.5326,-9.72154 -0.5416,-12.66053 -0.013,-2.939 -0.2374,-6.25966 -0.5061,-7.37923 -0.695,-9.38719 -1.5313,-19.50566 0.4815,-25.35371 l 0.7728,-2.96135 -1.0231,-7.72589 c -0.5626,-4.24924 -1.092,-7.95491 -1.1761,-8.23477 -0.084,-0.28011 -0.9242,1.43767 -1.2652,3.81687 -0.3409,2.37914 -1.28259999,8.33347 -2.09279999,13.23181 -1.22630001,7.4141 -0.89150001,9.31473 -0.4494,11.34554 0.6815,3.13014 0.3348,4.03597 -1.46630001,3.82878 l -1.4024,-0.16109 -0.1515,-10.94168 c -0.097,-7.01019 0.1106,-13.41033 0.577,-17.81205 0.4004,-3.77871 1.9337,-8.90905 2.74810001,-10.73109 2.10859999,-5.32835 8.36449999,-6.47925 9.20699999,-8.30357 0,0 -0.309,-1.81995 -0.8906,-3.0214 -1.7466,-3.60793 -1.0318,-8.65763 1.4106,-9.96474 1.3235003,-0.70831 4.9365003,-0.70831 6.2600003,0 2.4137,1.29173 3.1773,6.49548 1.4502,9.88294 -1.534,3.00883 -1.3501,3.6134 1.3995,4.6005 2.2584,1.19595 6.017,3.33371 6.7506,4.51117 0.4442,0.71258 2.245,2.64868 2.3026,5.13794 0.054,2.23927 0.3691,6.59051 0.7046,9.66943 0.3456,3.17312 0.54159,10.2276 0.452,16.2853 l -0.1581,10.68725 -1.3345,0.15508 c -1.7382,0.20136 -2.09791,-0.7968 -1.4222,-3.94749 0.4286,-1.9995 0.90839,-3.61178 0.088,-8.25214 -0.5608,-3.17197 -1.5019,-8.9643 -2.0911,-12.87188 -0.5891,-3.90763 -1.7077,-7.1664 -1.783,-7.24171 -0.075,-0.0751 -0.612,3.52739 -1.1926,8.00605 l -1.0555,8.14298 0.9575,3.93342 c 1.1498,3.5167 0.9552,4.74206 0.9343,11.56711 -0.012,4.19856 0.3708,8.89331 0.05,10.43281 -0.321,1.53943 -1.4412,7.49373 -1.6863,13.23178 -0.2452,5.738 -0.5933,11.84726 -0.7729,13.57604 -0.2958,2.83934 0.4314,3.19788 1.384,3.7076 2.0746,1.11026 1.2725,2.05516 -1.7447,2.05516 -1.5394,0 -2.8072,-0.17191 -2.8172,-0.38169 -0.012,-0.20977 0.8312,-2.67181 0.5649,-5.47086 -0.2662,-2.799 -0.7214,-10.81445 -1.0117,-17.81206 -0.5362,-12.9304 -2.6728,-24.03197 -3.2483,-22.64671 -0.5939,1.42913 -2.8704003,16.95461 -2.8704003,22.66414 0,5.30167 -0.6867,16.51924 -1.3153,21.48431 l 0.7112,2.16287 h -2.7678 c -2.0727,0 -2.7679,-0.18454 -2.7679,-0.73453 z"
       id="path14389-0"
       inkscape:connector-curvature="0"
       sodipodi:nodetypes="cccccccccccccccccccccccccccccccccccccscccscsccsccscc" />
  </g>
</svg>
