<?xml version="1.0" encoding="UTF-8" standalone="no"?>
<!-- Created with Inkscape (http://www.inkscape.org/) -->

<svg
   xmlns:dc="http://purl.org/dc/elements/1.1/"
   xmlns:cc="http://creativecommons.org/ns#"
   xmlns:rdf="http://www.w3.org/1999/02/22-rdf-syntax-ns#"
   xmlns:svg="http://www.w3.org/2000/svg"
   xmlns="http://www.w3.org/2000/svg"
   xmlns:sodipodi="http://sodipodi.sourceforge.net/DTD/sodipodi-0.dtd"
   xmlns:inkscape="http://www.inkscape.org/namespaces/inkscape"
   width="26.813427mm"
   height="102.87105mm"
   viewBox="0 0 26.813426 102.87103"
   version="1.1"
   id="svg7532"
   inkscape:version="0.92.1 r15371"
   sodipodi:docname="mulher_baixopeso.svg">
  <defs
     id="defs7526" />
  <sodipodi:namedview
     id="base"
     pagecolor="#ffffff"
     bordercolor="#666666"
     borderopacity="1.0"
     inkscape:pageopacity="0.0"
     inkscape:pageshadow="2"
     inkscape:zoom="0.35"
     inkscape:cx="-1144.8461"
     inkscape:cy="930.46642"
     inkscape:document-units="mm"
     inkscape:current-layer="layer1"
     showgrid="false"
     fit-margin-top="0"
     fit-margin-left="0"
     fit-margin-right="0"
     fit-margin-bottom="0"
     inkscape:window-width="1920"
     inkscape:window-height="1018"
     inkscape:window-x="-8"
     inkscape:window-y="-8"
     inkscape:window-maximized="1" />
  <metadata
     id="metadata7529">
    <rdf:RDF>
      <cc:Work
         rdf:about="">
        <dc:format>image/svg+xml</dc:format>
        <dc:type
           rdf:resource="http://purl.org/dc/dcmitype/StillImage" />
        <dc:title></dc:title>
      </cc:Work>
    </rdf:RDF>
  </metadata>
  <g
     inkscape:label="Layer 1"
     inkscape:groupmode="layer"
     id="layer1"
     transform="translate(-23.204813,-292.14821)">
    <path
       style="opacity:1;fill:#8d216c;fill-opacity:1;stroke-width:0.99999994"
       d="m 32.726213,390.75426 c 0.5181,-2.81202 0.4663,-4.46687 -0.3176,-10.14822 -0.5152,-3.73357 -0.346,-10.65717 -0.4373,-15.38582 -0.1342,-6.94232 -0.6219,-9.79274 -1.7368,-14.80571 -1.7128,-7.70109 -0.7522,-12.92876 1.1597,-17.30175 1.0513,-2.40444 1.6582,-4.06859 1.3865,-7.59205 -0.1723,-2.23333 -1.6507,-4.7512 -1.9919,-5.59527 -0.5711,-1.66331 -1.6715,-2.15241 -2.2426,-1.53468 l -0.7594,2.09159 c -0.2609,1.15037 -0.7963,4.44461 -1.1898,7.32053 -0.3935,2.87594 -1.0179,6.93226 -1.3876,9.01405 -0.5948,3.35008 -0.7121,4.92663 -0.1599,7.0351 0.7525,1.62927 1.0271,4.00452 -0.3722,4.12249 -2.2688,0.37248 -1.2361,-2.01756 -1.2492,-9.57113 -0.01,-4.59334 0.7568,-9.16895 1.1726,-10.36119 0.3644,-1.04505 0.4728,-4.30567 0.7056,-8.34941 0.4333,-7.52731 0.2144,-7.79237 2.3937,-8.78562 0.4583,-0.17041 3.0208,-0.79584 3.3084,-0.86775 0.779,-0.23491 -0.3703,-1.16535 -0.6595,-1.69274 -0.3629,-0.64843 -0.2666,-1.06385 0.3514,-1.51572 0.7078,-0.51755 0.8263,-1.51403 0.7033,-5.91262 -0.1462,-5.22958 -0.036,-5.3076 1.4692,-6.81217 3.0702,-3.07025 7.3622,-2.43774 9.1135,1.25285 0.7561,1.5933 0.8547,2.69555 0.5588,6.24752 -0.3064,3.67822 -0.2282,4.44391 0.5312,5.20336 0.7142,0.71418 0.764,1.04291 0.2516,1.66027 -0.3513,0.42338 -1.0803,1.32225 -0.9732,1.35078 1.2073,0.84582 3.3798,0.46863 4.4286,1.0465 1.0656,1.45728 1.9213,5.36528 1.9281,10.29413 0,2.50228 0.068,4.94086 0.3979,7.42551 1.1022,4.10624 1.2668,10.59383 0.1345,16.22531 0.2064,2.47432 1.4884,2.88902 -0.6307,3.57178 -2.2661,0.32799 -1.1072,-3.4322 -0.6755,-5.15365 0.4971,-1.6801 0.5924,-5.98477 0.309,-8.11399 -0.4728,-2.40134 -0.9317,-6.307 -1.3682,-9.6667 -0.4836,-3.7225 -1.1679,-6.46392 -1.9438,-7.25403 -1.1891,-1.2109 -2.5293,1.39223 -3.1913,6.05581 -0.5948,4.18994 -0.3691,5.17063 0.939,8.69966 0.7488,2.02025 1.8378,4.23162 2.0133,5.72734 0.3361,2.8648 -0.3989,9.04621 -1.6757,14.09298 -0.4185,1.65398 -0.9941,7.88951 -1.2792,13.85674 -0.2851,5.96726 -0.732,12.14372 -0.9932,13.72546 -0.6748,4.0871 -0.2736,10.0073 0.4227,12.00473 0.7081,2.03128 1.0365,2.58238 -1.4258,2.36855 -1.7329,-0.15054 -1.4475,-0.95385 -0.8529,-5.53479 0.3326,-2.21693 -0.037,-5.43596 -0.3512,-9.00858 -0.2686,-3.05748 0.2728,-11.3604 0.2659,-18.4509 -0.01,-7.09051 0.5424,-14.27357 -0.6013,-15.53991 -2.8185,-2.27798 -2.8499,0.2197 -3.114,16.64386 -0.415,25.80222 -0.4137,26.48909 0.056,29.41292 l 0.4412,2.7452 -1.487,-0.008 c -2.4315,0.3392 -1.7822,-2.04945 -1.3752,-4.23262 z"
       id="path14534-2-4-6"
       inkscape:connector-curvature="0"
       sodipodi:nodetypes="cccccccccsccccccccccccccsscccccccccsccccscccccccscccc" />
  </g>
</svg>
