<?xml version="1.0" encoding="UTF-8" standalone="no"?>
<!-- Created with Inkscape (http://www.inkscape.org/) -->

<svg
   xmlns:dc="http://purl.org/dc/elements/1.1/"
   xmlns:cc="http://creativecommons.org/ns#"
   xmlns:rdf="http://www.w3.org/1999/02/22-rdf-syntax-ns#"
   xmlns:svg="http://www.w3.org/2000/svg"
   xmlns="http://www.w3.org/2000/svg"
   xmlns:sodipodi="http://sodipodi.sourceforge.net/DTD/sodipodi-0.dtd"
   xmlns:inkscape="http://www.inkscape.org/namespaces/inkscape"
   width="44.56641mm"
   height="103.801mm"
   viewBox="0 0 44.566409 103.80098"
   version="1.1"
   id="svg7532"
   inkscape:version="0.92.1 r15371"
   sodipodi:docname="homem_obeso.svg">
  <defs
     id="defs7526" />
  <sodipodi:namedview
     id="base"
     pagecolor="#ffffff"
     bordercolor="#666666"
     borderopacity="1.0"
     inkscape:pageopacity="0.0"
     inkscape:pageshadow="2"
     inkscape:zoom="0.35"
     inkscape:cx="-1486.9457"
     inkscape:cy="650.35016"
     inkscape:document-units="mm"
     inkscape:current-layer="layer1"
     showgrid="false"
     fit-margin-top="0"
     fit-margin-left="0"
     fit-margin-right="0"
     fit-margin-bottom="0"
     inkscape:window-width="1920"
     inkscape:window-height="1018"
     inkscape:window-x="-8"
     inkscape:window-y="-8"
     inkscape:window-maximized="1" />
  <metadata
     id="metadata7529">
    <rdf:RDF>
      <cc:Work
         rdf:about="">
        <dc:format>image/svg+xml</dc:format>
        <dc:type
           rdf:resource="http://purl.org/dc/dcmitype/StillImage" />
        <dc:title></dc:title>
      </cc:Work>
    </rdf:RDF>
  </metadata>
  <g
     inkscape:label="Layer 1"
     inkscape:groupmode="layer"
     id="layer1"
     transform="translate(-113.71867,-217.10416)">
    <path
       style="opacity:1;fill:#ff5e38;fill-opacity:1;stroke-width:1"
       d="m 123.89517,320.61729 c 0.039,-1.36166 2.5133,-1.43573 2.5678,-2.87895 0.098,-2.60687 -0.011,-2.97132 -0.6467,-7.04212 -0.4579,-3.2005 -1.0736,-8.35065 -1.3684,-11.44466 -0.2945,-3.09402 -1.0294,-6.95212 -1.6326,-8.57344 -2.521,-6.77608 -3.5772,-17.91696 -2.1755,-22.94552 0.312,-1.11944 0.8108,-3.52366 1.1081,-5.3427 0.2975,-1.8191 0.6729,-4.10882 0.8344,-5.0883 0.3173,-1.92385 -0.5637,-4.92489 -1.0448,-3.56181 -1.1328,3.20585 -3.9217,16.98983 -3.8091,18.82666 0.078,1.25935 0.1971,3.09113 0.2662,4.0706 0.1244,1.75792 0.097,1.78094 -2.075,1.78094 h -2.2009 l 0.03,-12.97512 c 0.03,-13.82959 1.0248,-22.90958 2.8881,-26.44892 1.3367,-2.53896 4.8761,-4.78914 10.0298,-6.37632 4.064,-1.2516 4.4445,-1.48039 4.1039,-2.46774 -0.7554,-2.1908 -1.0996,-5.72936 -0.793,-8.15557 0.4273,-3.38243 2.2846,-4.89016 6.024,-4.89016 2.0494,0 3.0573,0.29208 4.23351,1.22726 1.4751,1.17257 1.54389,1.42756 1.54389,5.72431 0,2.47339 -0.2043,5.09528 -0.45369,5.82637 -0.44121,1.29402 -0.333,1.36806 4.0832,2.78974 5.6775,1.82769 8.55,3.71687 9.844,6.47433 1.7745,3.78124 2.7722,12.89303 2.9071,26.5511 l 0.1256,12.72072 -2.0678,0.15806 c -2.5697,0.19652 -3.0545,-0.67935 -2.1351,-3.85804 0.5883,-2.03461 0.4525,-3.15147 -1.3058,-10.73413 -1.0793,-4.65482 -2.0839,-8.98781 -2.2321,-9.62893 -0.1485,-0.64113 -0.5102,-1.02834 -0.8038,-0.86042 -0.6786,0.38763 -0.6875,3.65701 -0.018,6.47103 3.0692,12.88996 2.9928,19.5173 -0.3432,29.73189 -0.8072,2.47176 -1.5521,5.63898 -1.6553,7.03823 -0.1033,1.39932 -0.7188,6.71936 -1.3681,11.82238 l -1.1807,9.27826 c 0.042,1.06205 3.4368,1.28315 2.9302,2.78999 0,0.15324 -1.9317,0.27885 -4.2926,0.27885 h -4.29262 l -0.9493,-9.28607 c -0.5216,-5.10736 -0.9409,-11.34689 -0.9305,-13.86559 0.018,-4.83114 -0.9299,-16.92529 -1.4984,-19.08106 -0.4807,-1.8239 -1.7022,10.248 -1.7502,17.30018 -0.03,5.1582 -1.1976,18.66259 -2.0039,23.27889 l -0.2885,1.65365 h -4.1017 c -2.256,0 -4.1018,-0.12921 -4.1018,-0.28787 z"
       id="path14389"
       inkscape:connector-curvature="0"
       sodipodi:nodetypes="csccsccccccscccsccscscccccsccccccccccscccccccscc" />
  </g>
</svg>
