<?xml version="1.0" encoding="UTF-8" standalone="no"?>
<!-- Created with Inkscape (http://www.inkscape.org/) -->

<svg
   xmlns:dc="http://purl.org/dc/elements/1.1/"
   xmlns:cc="http://creativecommons.org/ns#"
   xmlns:rdf="http://www.w3.org/1999/02/22-rdf-syntax-ns#"
   xmlns:svg="http://www.w3.org/2000/svg"
   xmlns="http://www.w3.org/2000/svg"
   xmlns:sodipodi="http://sodipodi.sourceforge.net/DTD/sodipodi-0.dtd"
   xmlns:inkscape="http://www.inkscape.org/namespaces/inkscape"
   width="39.499657mm"
   height="103.80057mm"
   viewBox="0 0 39.499656 103.80055"
   version="1.1"
   id="svg7532"
   inkscape:version="0.92.1 r15371"
   sodipodi:docname="homem_sobrepeso.svg">
  <defs
     id="defs7526" />
  <sodipodi:namedview
     id="base"
     pagecolor="#ffffff"
     bordercolor="#666666"
     borderopacity="1.0"
     inkscape:pageopacity="0.0"
     inkscape:pageshadow="2"
     inkscape:zoom="0.35"
     inkscape:cx="-1322.5942"
     inkscape:cy="814.19078"
     inkscape:document-units="mm"
     inkscape:current-layer="layer1"
     showgrid="false"
     fit-margin-top="0"
     fit-margin-left="0"
     fit-margin-right="0"
     fit-margin-bottom="0"
     inkscape:window-width="1920"
     inkscape:window-height="1018"
     inkscape:window-x="-8"
     inkscape:window-y="-8"
     inkscape:window-maximized="1" />
  <metadata
     id="metadata7529">
    <rdf:RDF>
      <cc:Work
         rdf:about="">
        <dc:format>image/svg+xml</dc:format>
        <dc:type
           rdf:resource="http://purl.org/dc/dcmitype/StillImage" />
        <dc:title></dc:title>
      </cc:Work>
    </rdf:RDF>
  </metadata>
  <g
     inkscape:label="Layer 1"
     inkscape:groupmode="layer"
     id="layer1"
     transform="translate(-70.234018,-260.45409)">
    <path
       id="path7129"
       d="m 79.374567,363.49241 c 0,-0.40216 0.5292,-1.10065 1.1642,-1.50282 l 1.1641,-0.76199 -1.1641,-8.04328 c -0.3599,-4.40263 -0.6139,-9.96943 -0.5715,-12.34008 0.085,-3.4078 -0.1905,-5.41862 -1.3123,-9.41909 -1.9474,-6.92145 -1.8415,-16.76388 -0.4657,-23.15616 0.762,-3.47131 0.889,-5.6938 0.6773,-11.42992 -0.254,-7.00611 0.508,-7.23895 -0.2328,-1.01599 -0.4022,3.21731 -1.4182,8.25494 -3.0268,14.79539 -1.143,4.69896 -1.1853,5.33396 -0.5504,7.45061 0.5504,1.79915 0.3822,3.16722 -0.084,3.73871 -0.8889,1.12183 -3.0279,0.72742 -4.0016,0.008 -0.8043,-0.59265 -0.8467,-1.79914 -0.6138,-14.07572 0.254,-13.88523 0.3386,-23.96049 2.0955,-27.36829 1.9473,-3.38665 5.0588,-2.94215 9.8636,-4.6778 1.7568,-0.635 3.3231,-1.33349 3.4501,-1.56632 0.1482,-0.23284 -0.063,-1.05833 -0.4657,-1.82032 -0.762,-1.48166 -1.0371,-3.59831 -0.9101,-6.92145 0.127,-2.94215 2.3071,-4.9318 5.4186,-4.9318 2.8786,0 4.0851,0.59266 5.08,2.53998 0.9736,1.86265 0.9736,6.96378 0.021,8.6571 -1.3547,2.34949 -1.016,2.87865 2.666901,4.08514 4.423802,1.46049 6.138302,1.07949 9.186302,3.66181 1.2488,1.33349 1.2277,5.96895 2.0743,13.10207 0.5927,5.01646 1.1853,27.62229 0.7408,28.76528 -0.4021,1.05833 -4.0428,0.99483 -4.4661,-0.0635 -0.1693,-0.44449 -0.5715,-1.75682 -0.254,-2.89981 0.635,-2.41298 0.4445,-3.93697 -1.5663,-12.31891 -0.8043,-3.34431 -1.7568,-8.38194 -2.1167,-11.17591 l 0.3599,-5.10113 -0.4022,7.64111 c -0.3387,6.60395 -0.2752,8.00094 0.508,10.43508 0.7197,2.22249 1.397,4.42381 1.3547,10.66793 -0.063,6.98495 -0.2329,8.4666 -1.4817,12.72107 -1.143,4.00047 -1.4182,6.03245 -1.545103,11.70508 -0.085,3.78881 -0.381,9.4826 -0.677399,12.65758 l -1.058302,5.79962 1.27,0.97366 c 0.677304,0.55033 1.248804,1.20649 1.248804,1.46049 0,0.27516 -1.587502,0.48683 -3.534804,0.48683 h -3.534799 l -0.7832,-1.65099 c -0.7196,-4.40264 -1.9049,-20.74318 -1.6721,-22.77517 0.254,-2.13781 -0.762,-19.62135 -1.2277,-20.08702 -0.4233,-0.42333 -1.5663,18.54187 -1.2488,20.21402 0.1693,0.91016 -0.1482,6.45579 -0.7197,12.34008 -0.5503,5.86312 -1.5239,10.96425 -1.5239,11.32408 0,0.4445 -1.0584,0.635 -3.556,0.635 -2.8152,0 -3.5772,-0.16933 -3.5772,-0.762 z"
       style="opacity:1;fill:#f8b656;fill-opacity:1;fill-rule:nonzero;stroke:none;stroke-width:0.26458332"
       inkscape:connector-curvature="0"
       sodipodi:nodetypes="cccccccccccccccccccscccccccccccccccccccssccccccsscc" />
  </g>
</svg>
