<?xml version="1.0" encoding="UTF-8" standalone="no"?>
<!-- Created with Inkscape (http://www.inkscape.org/) -->

<svg
   xmlns:dc="http://purl.org/dc/elements/1.1/"
   xmlns:cc="http://creativecommons.org/ns#"
   xmlns:rdf="http://www.w3.org/1999/02/22-rdf-syntax-ns#"
   xmlns:svg="http://www.w3.org/2000/svg"
   xmlns="http://www.w3.org/2000/svg"
   xmlns:sodipodi="http://sodipodi.sourceforge.net/DTD/sodipodi-0.dtd"
   xmlns:inkscape="http://www.inkscape.org/namespaces/inkscape"
   width="28.772738mm"
   height="102.89418mm"
   viewBox="0 0 28.772736 102.89416"
   version="1.1"
   id="svg7532"
   inkscape:version="0.92.1 r15371"
   sodipodi:docname="mulher_normal.svg">
  <defs
     id="defs7526" />
  <sodipodi:namedview
     id="base"
     pagecolor="#ffffff"
     bordercolor="#666666"
     borderopacity="1.0"
     inkscape:pageopacity="0.0"
     inkscape:pageshadow="2"
     inkscape:zoom="0.35"
     inkscape:cx="-1061.901"
     inkscape:cy="562.05498"
     inkscape:document-units="mm"
     inkscape:current-layer="layer1"
     showgrid="false"
     fit-margin-top="0"
     fit-margin-left="0"
     fit-margin-right="0"
     fit-margin-bottom="0"
     inkscape:window-width="1920"
     inkscape:window-height="1018"
     inkscape:window-x="-8"
     inkscape:window-y="-8"
     inkscape:window-maximized="1" />
  <metadata
     id="metadata7529">
    <rdf:RDF>
      <cc:Work
         rdf:about="">
        <dc:format>image/svg+xml</dc:format>
        <dc:type
           rdf:resource="http://purl.org/dc/dcmitype/StillImage" />
        <dc:title></dc:title>
      </cc:Work>
    </rdf:RDF>
  </metadata>
  <g
     inkscape:label="Layer 1"
     inkscape:groupmode="layer"
     id="layer1"
     transform="translate(-194.02677,-194.64955)">
    <path
       style="opacity:1;fill:#6dcdf5;fill-opacity:1;stroke-width:0.99999994"
       d="m 209.12773,194.65905 c -2.0613,-0.10767 -4.1412,0.69869 -5.1902,2.47462 -0.7604,1.28719 -0.9084,2.53093 -0.7871,6.60205 0.1236,4.15408 0.01,5.12421 -0.7044,5.6414 -0.6094,0.44555 -0.7148,0.8742 -0.3676,1.4946 0.4035,0.72088 0.1193,0.96804 -1.6579,1.44657 -3.0286,0.81555 -3.7058,2.6691 -4.1989,11.49617 -0.2169,3.88251 -0.6675,8.70616 -1.0015,10.7193 -0.396,3.18943 -3.1698,16.85218 1.4099,15.97723 2.5819,-0.9453 1.8556,-2.35345 1.3521,-3.55979 -0.8328,-3.28719 -0.2262,-5.15576 0.3324,-8.16443 0.5607,-2.91419 1.3125,-7.82776 1.6702,-10.91939 0.3577,-3.09162 0.8057,-5.62099 0.9954,-5.62099 0.8198,0 1.5578,2.92667 1.5558,6.16818 0,2.38948 -0.4144,4.67023 -1.2965,7.16559 -2.6655,7.61879 -0.9976,13.733 0.4859,21.38548 l 0.3675,2.03768 0.5431,2.85235 c 0.053,1.07849 0.03,4.31413 -0.052,7.19009 -0.097,3.42118 0.2458,7.85033 0.9913,12.81106 0.7968,5.30746 1.0388,8.64038 0.8045,11.11028 -0.1851,1.94062 -0.1905,3.76369 -0.012,4.05188 v 0 c 0.1782,0.28822 1.1509,0.52475 2.1612,0.52475 2.2824,-0.0265 1.7073,-0.90421 1.4068,-3.0065 -0.2364,-1.65365 -0.387,-4.5367 -0.3349,-6.40606 0.052,-1.86938 0.2067,-8.10459 0.343,-13.85644 0.1363,-5.75186 0.2701,-11.34057 0.2971,-12.41906 0.037,-1.45649 0.055,-12.18087 0.6983,-12.18087 0.78,0 1.051,10.95795 0.7667,17.67118 -0.1974,4.65968 -0.061,9.99858 0.3624,14.24952 0.4589,4.60465 0.5244,7.8932 0.2031,10.19554 -0.2608,1.86934 -0.5188,3.86241 -0.5737,4.4286 -0.1112,1.14712 1.1026,1.5942 3.0208,1.11276 1.1684,-0.29325 1.1998,-0.44598 0.9464,-4.62152 -0.1745,-2.87642 0.098,-6.85018 0.8167,-11.90044 0.8007,-5.6303 1.0054,-9.06249 0.7963,-13.33378 -0.1549,-3.16354 0.4505,-9.07626 0.7345,-10.22666 1.5761,-7.17535 2.3484,-14.78441 0.6917,-21.66984 -0.9303,-2.90326 -1.2008,-3.46883 -1.17,-6.92363 0.023,-2.61986 -0.01,-5.33585 0.4422,-6.19014 0.7066,-1.34866 1.0941,-0.74184 1.6945,3.73901 0.3441,2.56769 1.017,6.90395 1.4956,9.63611 0.987,5.63421 0.3919,10.2714 -0.4379,13.27245 0.2438,1.83704 0.3958,3.20281 2.4287,2.36846 2.349,-0.85274 1.6458,-1.98975 1.1097,-4.43063 -0.01,-6.04736 0.4163,-13.45843 0.1428,-14.60879 -0.2735,-1.1504 -0.6375,-5.03363 -0.8085,-8.62854 -0.3286,-6.90366 -1.2836,-10.77177 -2.7564,-11.16846 -0.4847,-0.13059 -1.5545,-0.38859 -2.3777,-0.57271 -1.448,-0.32385 -1.4667,-0.36785 -0.5727,-1.35574 0.7894,-0.87236 0.8069,-1.02088 0.1154,-1.02088 -1.2425,0 -1.5124,-1.37621 -1.17,-5.97626 0.2589,-3.47779 0.1474,-4.54249 -0.6339,-6.05077 -0.9749,-1.88169 -3.0177,-2.90289 -5.0789,-3.01059 z"
       id="path14534-2-4"
       inkscape:connector-curvature="0"
       sodipodi:nodetypes="cccccccccccsscccccccccccccccsccccccccccccccccccccccscccc" />
  </g>
</svg>
