<?xml version="1.0" encoding="UTF-8" standalone="no"?>
<!-- Created with Inkscape (http://www.inkscape.org/) -->

<svg
   xmlns:dc="http://purl.org/dc/elements/1.1/"
   xmlns:cc="http://creativecommons.org/ns#"
   xmlns:rdf="http://www.w3.org/1999/02/22-rdf-syntax-ns#"
   xmlns:svg="http://www.w3.org/2000/svg"
   xmlns="http://www.w3.org/2000/svg"
   xmlns:sodipodi="http://sodipodi.sourceforge.net/DTD/sodipodi-0.dtd"
   xmlns:inkscape="http://www.inkscape.org/namespaces/inkscape"
   width="34.432545mm"
   height="102.93219mm"
   viewBox="0 0 34.432543 102.93217"
   version="1.1"
   id="svg7532"
   inkscape:version="0.92.1 r15371"
   sodipodi:docname="mulher_sobrepeso.svg">
  <defs
     id="defs7526" />
  <sodipodi:namedview
     id="base"
     pagecolor="#ffffff"
     bordercolor="#666666"
     borderopacity="1.0"
     inkscape:pageopacity="0.0"
     inkscape:pageshadow="2"
     inkscape:zoom="0.35"
     inkscape:cx="-1276.8316"
     inkscape:cy="636.57252"
     inkscape:document-units="mm"
     inkscape:current-layer="layer1"
     showgrid="false"
     fit-margin-top="0"
     fit-margin-left="0"
     fit-margin-right="0"
     fit-margin-bottom="0"
     inkscape:window-width="1920"
     inkscape:window-height="1018"
     inkscape:window-x="-8"
     inkscape:window-y="-8"
     inkscape:window-maximized="1" />
  <metadata
     id="metadata7529">
    <rdf:RDF>
      <cc:Work
         rdf:about="">
        <dc:format>image/svg+xml</dc:format>
        <dc:type
           rdf:resource="http://purl.org/dc/dcmitype/StillImage" />
        <dc:title></dc:title>
      </cc:Work>
    </rdf:RDF>
  </metadata>
  <g
     inkscape:label="Layer 1"
     inkscape:groupmode="layer"
     id="layer1"
     transform="translate(-58.125975,-214.32764)">
    <path
       style="opacity:1;fill:#f8b656;fill-opacity:1;stroke-width:0.99999994"
       d="m 75.211551,214.3277 c -4.0656,-0.0178 -6.5469,3.81644 -5.6363,9.47074 0.5028,3.12227 0.045,5.61487 -1.0321,5.61487 -0.3817,0 -0.3893,0.3075 -0.024,0.98922 0.4641,0.86726 0.2921,1.03429 -1.3833,1.3486 -4.1147,0.77191 -6.9533,5.8743 -6.9533,12.49563 0,1.72688 -0.5016,4.91986 -1.1137,7.09515 -0.9554,3.3945 -1.0744,4.86398 -0.8392,10.37113 0.171,4.00496 1.0665,4.78783 0.9386,6.1663 -0.1643,1.44991 -0.2242,4.65219 2.0597,4.3297 2.369,-0.36709 0.7833,-3.27015 0.8072,-4.37114 0.081,-3.73325 -0.1106,-6.00058 0.7852,-9.66527 0.5003,-1.86934 1.3382,-5.34016 1.8621,-7.71278 0.524,-2.37265 1.1318,-4.31426 1.3506,-4.31426 0.5089,0 0.063,2.44849 -1.274,6.99203 -0.5815,1.97609 -1.2161,5.97586 -1.4109,8.88884 -0.5044,5.40752 0.3576,8.12788 1.8989,12.68143 1.2435,3.6475 1.4446,5.22628 1.762,13.79212 0.3208,8.65822 0.5523,10.43571 2.201,16.93241 1.6893,6.65665 1.7815,7.40289 1.1159,8.99603 -0.6526,1.56159 -0.633,1.79083 0.1869,2.2684 0.5015,0.29216 1.6987,0.53928 2.6603,0.54718 l 1.7478,0.0158 -0.441,-2.74516 c -0.2427,-1.50989 -0.3939,-4.74452 -0.3358,-7.18906 0.058,-2.44454 0.2005,-9.151 0.3164,-14.90287 0.3667,-18.19638 0.315,-19.99539 1.027,-18.81889 0.5904,0.97536 0.7974,9.5142 1.0954,33.9831 0.039,3.16352 -0.1248,6.51651 -0.3634,7.45144 -0.5204,2.03911 0.2358,2.52275 3.1045,1.98459 1.652,-0.30992 1.8301,-0.49033 1.4813,-1.49559 -0.7528,-2.16991 -0.4095,-5.3508 1.3363,-12.38535 1.5845,-6.38415 1.7605,-7.85917 1.8407,-15.42556 0.08,-7.59526 0.2223,-8.77594 1.5405,-12.807 2.4955,-7.63136 2.5858,-14.89874 0.2807,-22.5697 -0.5751,-1.91398 -1.0232,-4.14949 -0.9963,-4.96762 0.061,-1.83767 1.3438,2.34511 3.0994,10.10267 1.0781,4.76417 1.2938,7.38808 0.75,10.6812 -0.4195,1.83077 -0.068,3.14882 1.5915,3.07592 1.4396,-0.0178 2.0433,-0.9014 2.1311,-3.53923 0,-1.57545 0.08,-5.13548 0.1368,-7.49519 0.1299,-4.68012 -0.029,-6.90775 -0.6044,-8.49784 -0.4292,-1.18523 -0.9113,-4.25568 -1.0719,-6.82359 -0.5006,-8.00289 -2.4931,-11.78927 -6.8134,-12.94481 -1.9175,-0.51283 -2.2501,-0.76716 -1.7641,-1.35268 0.4577,-0.55141 0.4217,-0.83097 -0.1521,-1.18625 -0.5731,-0.35487 -0.7525,-1.73771 -0.7545,-5.84354 -0.01,-6.18481 -0.6881,-7.79704 -3.7333,-8.80205 -0.8501,-0.28056 -1.6575,-0.4152 -2.4104,-0.41858 z"
       id="path14534-2"
       inkscape:connector-curvature="0"
       sodipodi:nodetypes="ccsccscccccccscccccccccccccccccccccccccccccccccccc" />
  </g>
</svg>
