<?xml version="1.0" encoding="UTF-8" standalone="no"?>
<!-- Created with Inkscape (http://www.inkscape.org/) -->

<svg
   xmlns:dc="http://purl.org/dc/elements/1.1/"
   xmlns:cc="http://creativecommons.org/ns#"
   xmlns:rdf="http://www.w3.org/1999/02/22-rdf-syntax-ns#"
   xmlns:svg="http://www.w3.org/2000/svg"
   xmlns="http://www.w3.org/2000/svg"
   xmlns:sodipodi="http://sodipodi.sourceforge.net/DTD/sodipodi-0.dtd"
   xmlns:inkscape="http://www.inkscape.org/namespaces/inkscape"
   width="45.754349mm"
   height="102.58161mm"
   viewBox="0 0 45.754346 102.58159"
   version="1.1"
   id="svg7532"
   inkscape:version="0.92.1 r15371"
   sodipodi:docname="mulher_obesa.svg">
  <defs
     id="defs7526" />
  <sodipodi:namedview
     id="base"
     pagecolor="#ffffff"
     bordercolor="#666666"
     borderopacity="1.0"
     inkscape:pageopacity="0.0"
     inkscape:pageshadow="2"
     inkscape:zoom="0.35"
     inkscape:cx="-836.08096"
     inkscape:cy="550.42754"
     inkscape:document-units="mm"
     inkscape:current-layer="layer1"
     showgrid="false"
     fit-margin-top="0"
     fit-margin-left="0"
     fit-margin-right="0"
     fit-margin-bottom="0"
     inkscape:window-width="1920"
     inkscape:window-height="1018"
     inkscape:window-x="-8"
     inkscape:window-y="-8"
     inkscape:window-maximized="1" />
  <metadata
     id="metadata7529">
    <rdf:RDF>
      <cc:Work
         rdf:about="">
        <dc:format>image/svg+xml</dc:format>
        <dc:type
           rdf:resource="http://purl.org/dc/dcmitype/StillImage" />
        <dc:title></dc:title>
      </cc:Work>
    </rdf:RDF>
  </metadata>
  <g
     inkscape:label="Layer 1"
     inkscape:groupmode="layer"
     id="layer1"
     transform="translate(-214.40951,-182.05831)">
    <path
       style="opacity:1;fill:#ff5e38;fill-opacity:1;stroke-width:0.99999994"
       d="m 231.49728,284.47479 c -1.2188,-0.44395 -1.49,-1.04734 -1.166,-1.96563 0.8082,-2.29058 0.376,-5.4652 -1.5354,-11.27893 -1.9933,-6.06249 -2.3055,-8.51876 -1.9428,-15.28567 0.1721,-3.21137 0,-3.90986 -2.2213,-8.88922 -1.3246,-2.97221 -2.7277,-6.65819 -3.1182,-8.1911 -0.3905,-1.53288 -0.9522,-2.94472 -1.2483,-3.13738 -1.6723,-1.65614 1.0527,-0.92704 1.2395,0.31844 0.6716,1.86908 -1.189,2.36251 -2.0199,1.97762 -1.9038,-1.01889 -3.6467,-2.73368 -4.14,-7.45565 -0.2645,-2.53154 -0.6305,-5.94812 -0.8133,-7.59235 -0.3365,-3.026 -0.1652,-3.81076 2.9859,-13.67443 1.9785,-6.19318 4.6067,-9.1588 8.8504,-9.98638 3.0451,-0.59379 3.6893,-0.85472 3.3731,-1.36624 -0.1663,-0.26909 0.096,-0.88716 0.5818,-1.37348 0.7442,-0.74415 0.8305,-1.52862 0.5449,-4.95308 -0.5678,-6.80893 1.2756,-9.53224 6.473,-9.56239 2.5351,-0.0138 3.2909,0.20018 4.4152,1.25546 1.8722,1.75723 2.5221,4.51599 1.9394,8.23197 -0.4867,3.10348 -0.054,5.39737 1.017,5.39737 0.3255,0 0.4573,0.35056 0.2928,0.77901 -0.2063,0.53765 0.1409,0.87624 1.1206,1.09277 7.0117,1.54972 9.1194,3.93138 11.9947,13.55366 2.5971,8.6914 2.5249,6.94611 0.869,21.02154 -0.1721,1.4621 -0.769,2.74385 -1.7844,3.8308 -1.7507,1.8741 -4.1344,1.48424 -3.3625,-0.54624 3.4862,-4.6351 0.1069,-0.75877 -0.6608,2.18906 -0.3917,1.5329 -1.8911,5.44594 -3.332,8.69567 -1.462,3.29721 -2.4915,6.31319 -2.3293,6.82412 0.1598,0.50357 0.3101,3.02138 0.3339,5.59514 0.038,4.07966 -0.2306,5.55922 -2.0937,11.54101 -2.2309,7.16261 -2.5639,9.49671 -1.5059,10.55474 1.1119,1.11193 -0.7889,2.38173 -3.6227,2.42006 -2.7714,0.23572 -2.4179,-0.85437 -2.2432,-2.5807 0.1407,-1.43795 0.2204,-4.49691 0.1772,-6.79764 -0.043,-2.30076 -0.1904,-10.09778 -0.3271,-17.32675 -0.1517,-8.02298 -0.4693,-13.52327 -0.815,-14.11818 -0.6429,-1.10647 -0.6316,-1.28812 -1.0023,16.0195 -0.1263,5.89566 -0.223,13.95477 -0.2149,17.90918 -0.3068,3.62413 1.2075,6.54233 -1.2605,6.99477 -0.9123,-0.0227 -2.6339,0.17681 -3.4498,-0.12031 z m -9.6518,-61.05796 c 0.4741,-1.11359 0.8621,-3.07033 0.8621,-4.34827 0,-1.27796 0.2477,-2.83749 0.5505,-3.46567 0.386,-0.80069 0.1482,-0.67317 -0.7955,0.42654 -0.7403,0.86279 -1.4392,2.03929 -1.5531,2.61447 -2.0168,10.18654 -2.0215,10.22891 -1.2813,11.61896 0.7064,1.32676 0.735,1.27925 1.0408,-1.72852 0.1728,-1.70104 0.7024,-4.00391 1.1765,-5.11751 z m 33.0422,1.06366 c -0.4874,-2.63495 -1.4888,-6.03294 -2.2255,-7.55111 -1.3784,-2.84069 -2.1652,-3.45095 -1.21,-0.93844 0.2957,0.7776 0.5376,2.33099 0.5376,3.45201 0,1.12098 0.4706,3.23211 1.0458,4.69136 0.5751,1.45928 1.0457,3.75571 1.0457,5.10323 0,2.4065 0.016,2.42857 0.8463,1.24186 0.7806,-1.11454 0.7775,-1.57919 -0.04,-5.99891 z"
       id="path14534"
       inkscape:connector-curvature="0"
       sodipodi:nodetypes="ccsccscccccccccccsssccsccccscccccccscccccccscccccccccscsccc" />
  </g>
</svg>
