<?xml version="1.0" encoding="UTF-8" standalone="no"?>
<!-- Created with Inkscape (http://www.inkscape.org/) -->

<svg
   xmlns:dc="http://purl.org/dc/elements/1.1/"
   xmlns:cc="http://creativecommons.org/ns#"
   xmlns:rdf="http://www.w3.org/1999/02/22-rdf-syntax-ns#"
   xmlns:svg="http://www.w3.org/2000/svg"
   xmlns="http://www.w3.org/2000/svg"
   xmlns:sodipodi="http://sodipodi.sourceforge.net/DTD/sodipodi-0.dtd"
   xmlns:inkscape="http://www.inkscape.org/namespaces/inkscape"
   width="291.25586mm"
   height="26.458334mm"
   viewBox="0 0 291.25586 26.458334"
   version="1.1"
   id="svg7906"
   inkscape:version="0.92.1 r15371"
   sodipodi:docname="medioalto.svg">
  <defs
     id="defs7900" />
  <sodipodi:namedview
     id="base"
     pagecolor="#ffffff"
     bordercolor="#666666"
     borderopacity="1.0"
     inkscape:pageopacity="0.0"
     inkscape:pageshadow="2"
     inkscape:zoom="0.98994949"
     inkscape:cx="550.4048"
     inkscape:cy="49.99999"
     inkscape:document-units="mm"
     inkscape:current-layer="layer1"
     showgrid="false"
     fit-margin-top="0"
     fit-margin-left="0"
     fit-margin-right="0"
     fit-margin-bottom="0"
     inkscape:window-width="1920"
     inkscape:window-height="1018"
     inkscape:window-x="-8"
     inkscape:window-y="-8"
     inkscape:window-maximized="1" />
  <metadata
     id="metadata7903">
    <rdf:RDF>
      <cc:Work
         rdf:about="">
        <dc:format>image/svg+xml</dc:format>
        <dc:type
           rdf:resource="http://purl.org/dc/dcmitype/StillImage" />
        <dc:title></dc:title>
      </cc:Work>
    </rdf:RDF>
  </metadata>
  <g
     inkscape:label="Layer 1"
     inkscape:groupmode="layer"
     id="layer1"
     transform="translate(5.4492349,-469.50258)">
    <g
       id="g14184"
       transform="translate(-521.37548,238.0407)"
       inkscape:export-filename="F:\SESI\Layout\RST\Novas telas\questionario_resultado-outros.png"
       inkscape:export-xdpi="90"
       inkscape:export-ydpi="90">
      <rect
         ry="3.0240023"
         rx="3.0240026"
         y="234.10771"
         x="516.32312"
         height="21.166666"
         width="72.443954"
         id="rect10226-3-9-7"
         style="opacity:1;vector-effect:none;fill:#e6e6e6;fill-opacity:1;stroke:#cccccc;stroke-width:0.79374999;stroke-linecap:round;stroke-linejoin:round;stroke-miterlimit:4;stroke-dasharray:none;stroke-dashoffset:0;stroke-opacity:1" />
      <path
         sodipodi:nodetypes="cccssssc"
         inkscape:connector-curvature="0"
         id="rect10226-3-9-0-1"
         d="m 803.7612,234.1077 h -69.65169 l 0.0258,21.16667 h 69.62593 c 1.67529,0 3.024,-1.34871 3.024,-3.024 v -15.11866 c 0,-1.6753 -1.34871,-3.02401 -3.024,-3.02401 z"
         style="opacity:1;vector-effect:none;fill:#e6e6e6;fill-opacity:1;stroke:#cccccc;stroke-width:0.79374999;stroke-linecap:round;stroke-linejoin:round;stroke-miterlimit:4;stroke-dasharray:none;stroke-dashoffset:0;stroke-opacity:1" />
      <g
         aria-label="Baixo risco"
         style="font-style:normal;font-variant:normal;font-weight:normal;font-stretch:normal;font-size:6.70277786px;line-height:1.25;font-family:Roboto;-inkscape-font-specification:Roboto;letter-spacing:0px;word-spacing:0px;fill:#b3b3b3;fill-opacity:1;stroke:none;stroke-width:0.26458332"
         id="text6679-3-6-4-5">
        <path
           d="m 536.45186,247.56177 q -0.15558,0 -0.34079,-0.007 -0.1778,-0.007 -0.363,-0.0222 -0.1778,-0.0148 -0.3556,-0.037 -0.1778,-0.0222 -0.32597,-0.0593 v -4.9784 q 0.14817,-0.037 0.32597,-0.0593 0.1778,-0.0222 0.3556,-0.037 0.1852,-0.0148 0.363,-0.0222 0.1778,-0.007 0.33338,-0.007 0.4445,0 0.82973,0.0667 0.39264,0.0667 0.67416,0.22966 0.28893,0.15557 0.45191,0.41487 0.16298,0.25929 0.16298,0.63711 0,0.42228 -0.20002,0.69639 -0.20003,0.2667 -0.5334,0.40005 0.45191,0.13335 0.71861,0.42227 0.2667,0.28893 0.2667,0.81492 0,0.77046 -0.57045,1.16311 -0.56303,0.38523 -1.79281,0.38523 z m -0.67416,-2.43734 v 1.80763 q 0.0815,0.007 0.19262,0.0148 0.0963,0.007 0.22225,0.0148 0.13335,0 0.30374,0 0.31856,0 0.60007,-0.037 0.28893,-0.0445 0.50377,-0.14816 0.21484,-0.10372 0.34078,-0.28893 0.13335,-0.18521 0.13335,-0.46672 0,-0.25189 -0.0963,-0.42228 -0.0963,-0.1778 -0.28151,-0.28152 -0.1778,-0.10371 -0.42969,-0.14816 -0.25188,-0.0445 -0.56303,-0.0445 z m 0,-0.57785 h 0.75565 q 0.2667,0 0.50377,-0.037 0.23706,-0.037 0.40745,-0.13335 0.1778,-0.0963 0.27411,-0.25189 0.10372,-0.15557 0.10372,-0.39264 0,-0.22225 -0.10372,-0.37042 -0.10371,-0.15557 -0.28892,-0.24447 -0.1778,-0.0963 -0.42228,-0.14076 -0.24447,-0.0445 -0.51858,-0.0445 -0.27411,0 -0.42968,0.007 -0.15558,0.007 -0.28152,0.0222 z"
           style="font-style:normal;font-variant:normal;font-weight:normal;font-stretch:normal;font-size:7.4083333px;font-family:Ubuntu;-inkscape-font-specification:Ubuntu;fill:#b3b3b3;stroke-width:0.26458332"
           id="path8871"
           inkscape:connector-curvature="0" />
        <path
           d="m 541.08635,247.02096 q 0.24447,0 0.42968,-0.007 0.19262,-0.0148 0.31856,-0.0445 v -1.14829 q -0.0741,-0.037 -0.24447,-0.0593 -0.16299,-0.0296 -0.40005,-0.0296 -0.15558,0 -0.33338,0.0222 -0.17039,0.0222 -0.31856,0.0963 -0.14076,0.0667 -0.23706,0.19262 -0.0963,0.11853 -0.0963,0.31856 0,0.37042 0.23706,0.51858 0.23707,0.14076 0.64453,0.14076 z m -0.0593,-3.45228 q 0.41487,0 0.69639,0.11112 0.28892,0.10372 0.45931,0.30374 0.1778,0.19262 0.25189,0.46673 0.0741,0.2667 0.0741,0.59267 v 2.4077 q -0.0889,0.0148 -0.25188,0.0445 -0.15558,0.0222 -0.3556,0.0444 -0.20003,0.0222 -0.4371,0.0371 -0.22965,0.0222 -0.45931,0.0222 -0.32597,0 -0.60008,-0.0667 -0.27411,-0.0667 -0.47413,-0.20744 -0.20003,-0.14816 -0.31115,-0.38523 -0.11113,-0.23707 -0.11113,-0.57044 0,-0.31856 0.12595,-0.54822 0.13335,-0.22966 0.3556,-0.37042 0.22225,-0.14075 0.51858,-0.20743 0.29633,-0.0667 0.6223,-0.0667 0.10372,0 0.21484,0.0148 0.11113,0.007 0.20743,0.0296 0.10372,0.0148 0.1778,0.0296 0.0741,0.0148 0.10372,0.0222 v -0.19261 q 0,-0.17039 -0.037,-0.33338 -0.037,-0.17039 -0.13335,-0.29633 -0.0963,-0.13335 -0.2667,-0.20743 -0.16298,-0.0815 -0.42968,-0.0815 -0.34079,0 -0.60008,0.0519 -0.25188,0.0445 -0.37782,0.0963 l -0.0815,-0.57044 q 0.13335,-0.0593 0.4445,-0.11113 0.31115,-0.0593 0.67416,-0.0593 z"
           style="font-style:normal;font-variant:normal;font-weight:normal;font-stretch:normal;font-size:7.4083333px;font-family:Ubuntu;-inkscape-font-specification:Ubuntu;fill:#b3b3b3;stroke-width:0.26458332"
           id="path8873"
           inkscape:connector-curvature="0" />
        <path
           d="m 544.33479,247.51732 h -0.68898 v -3.85233 h 0.68898 z m -0.34819,-4.54872 q -0.18521,0 -0.31856,-0.11853 -0.12594,-0.12594 -0.12594,-0.33338 0,-0.20743 0.12594,-0.32596 0.13335,-0.12594 0.31856,-0.12594 0.1852,0 0.31115,0.12594 0.13335,0.11853 0.13335,0.32596 0,0.20744 -0.13335,0.33338 -0.12595,0.11853 -0.31115,0.11853 z"
           style="font-style:normal;font-variant:normal;font-weight:normal;font-stretch:normal;font-size:7.4083333px;font-family:Ubuntu;-inkscape-font-specification:Ubuntu;fill:#b3b3b3;stroke-width:0.26458332"
           id="path8875"
           inkscape:connector-curvature="0" />
        <path
           d="m 547.83083,247.51732 q -0.0815,-0.16298 -0.20003,-0.36301 -0.11853,-0.20002 -0.25929,-0.40746 -0.14076,-0.21484 -0.28893,-0.42227 -0.14816,-0.20744 -0.28892,-0.39264 -0.14076,0.1852 -0.28893,0.40005 -0.14816,0.20743 -0.28892,0.42227 -0.13335,0.20743 -0.25188,0.40746 -0.11854,0.20002 -0.20003,0.3556 h -0.7112 q 0.25929,-0.50377 0.61489,-1.02235 0.36301,-0.52599 0.71861,-1.00013 l -1.27423,-1.82985 h 0.77787 l 0.91864,1.34831 0.92604,-1.34831 h 0.73342 l -1.2446,1.7854 q 0.3556,0.48155 0.72602,1.02235 0.37782,0.5334 0.63712,1.04458 z"
           style="font-style:normal;font-variant:normal;font-weight:normal;font-stretch:normal;font-size:7.4083333px;font-family:Ubuntu;-inkscape-font-specification:Ubuntu;fill:#b3b3b3;stroke-width:0.26458332"
           id="path8877"
           inkscape:connector-curvature="0" />
        <path
           d="m 552.55908,245.59115 q 0,0.45932 -0.13335,0.82974 -0.13335,0.37041 -0.37783,0.63711 -0.23706,0.2667 -0.57044,0.41487 -0.33337,0.14076 -0.72602,0.14076 -0.39264,0 -0.72601,-0.14076 -0.33338,-0.14817 -0.57785,-0.41487 -0.23707,-0.2667 -0.37042,-0.63711 -0.13335,-0.37042 -0.13335,-0.82974 0,-0.45191 0.13335,-0.82232 0.13335,-0.37783 0.37042,-0.64453 0.24447,-0.2667 0.57785,-0.40746 0.33337,-0.14816 0.72601,-0.14816 0.39265,0 0.72602,0.14816 0.33338,0.14076 0.57044,0.40746 0.24448,0.2667 0.37783,0.64453 0.13335,0.37041 0.13335,0.82232 z m -0.71861,0 q 0,-0.65193 -0.29633,-1.02976 -0.28893,-0.38523 -0.7927,-0.38523 -0.50376,0 -0.8001,0.38523 -0.28892,0.37783 -0.28892,1.02976 0,0.65194 0.28892,1.03717 0.29634,0.37782 0.8001,0.37782 0.50377,0 0.7927,-0.37782 0.29633,-0.38523 0.29633,-1.03717 z"
           style="font-style:normal;font-variant:normal;font-weight:normal;font-stretch:normal;font-size:7.4083333px;font-family:Ubuntu;-inkscape-font-specification:Ubuntu;fill:#b3b3b3;stroke-width:0.26458332"
           id="path8879"
           inkscape:connector-curvature="0" />
        <path
           d="m 556.6582,243.58349 q 0.0889,0 0.20003,0.0148 0.11853,0.007 0.22966,0.0296 0.11112,0.0148 0.20002,0.037 0.0963,0.0148 0.14076,0.0296 l -0.11853,0.60007 q -0.0815,-0.0296 -0.27411,-0.0667 -0.18521,-0.0444 -0.48154,-0.0444 -0.19262,0 -0.38524,0.0444 -0.18521,0.037 -0.24447,0.0519 v 3.23744 h -0.68898 v -3.68935 q 0.24448,-0.0889 0.60749,-0.16298 0.363,-0.0815 0.81491,-0.0815 z"
           style="font-style:normal;font-variant:normal;font-weight:normal;font-stretch:normal;font-size:7.4083333px;font-family:Ubuntu;-inkscape-font-specification:Ubuntu;fill:#b3b3b3;stroke-width:0.26458332"
           id="path8881"
           inkscape:connector-curvature="0" />
        <path
           d="m 558.78972,247.51732 h -0.68898 v -3.85233 h 0.68898 z m -0.34819,-4.54872 q -0.18521,0 -0.31856,-0.11853 -0.12594,-0.12594 -0.12594,-0.33338 0,-0.20743 0.12594,-0.32596 0.13335,-0.12594 0.31856,-0.12594 0.18521,0 0.31115,0.12594 0.13335,0.11853 0.13335,0.32596 0,0.20744 -0.13335,0.33338 -0.12594,0.11853 -0.31115,0.11853 z"
           style="font-style:normal;font-variant:normal;font-weight:normal;font-stretch:normal;font-size:7.4083333px;font-family:Ubuntu;-inkscape-font-specification:Ubuntu;fill:#b3b3b3;stroke-width:0.26458332"
           id="path8883"
           inkscape:connector-curvature="0" />
        <path
           d="m 560.87817,247.02096 q 0.42228,0 0.6223,-0.11112 0.20744,-0.11113 0.20744,-0.3556 0,-0.25189 -0.20003,-0.40005 -0.20002,-0.14817 -0.65934,-0.33338 -0.22225,-0.0889 -0.42968,-0.1778 -0.20003,-0.0963 -0.34819,-0.22225 -0.14817,-0.12594 -0.23707,-0.30374 -0.0889,-0.1778 -0.0889,-0.43709 0,-0.51118 0.37782,-0.80751 0.37783,-0.30374 1.02976,-0.30374 0.16299,0 0.32597,0.0222 0.16298,0.0148 0.30374,0.0444 0.14076,0.0222 0.24448,0.0519 0.11112,0.0296 0.17039,0.0519 l -0.12594,0.59267 q -0.11113,-0.0593 -0.3482,-0.11854 -0.23706,-0.0667 -0.57044,-0.0667 -0.28892,0 -0.50376,0.11853 -0.21485,0.11113 -0.21485,0.3556 0,0.12594 0.0444,0.22225 0.0519,0.0963 0.14817,0.1778 0.10372,0.0741 0.25188,0.14076 0.14817,0.0667 0.3556,0.14076 0.27411,0.10371 0.48895,0.20743 0.21485,0.0963 0.36301,0.22966 0.15558,0.13335 0.23707,0.32597 0.0815,0.1852 0.0815,0.45931 0,0.5334 -0.40005,0.80751 -0.39264,0.27411 -1.12607,0.27411 -0.51117,0 -0.8001,-0.0889 -0.28892,-0.0815 -0.39264,-0.12594 l 0.12594,-0.59267 q 0.11854,0.0445 0.37783,0.13335 0.25929,0.0889 0.68897,0.0889 z"
           style="font-style:normal;font-variant:normal;font-weight:normal;font-stretch:normal;font-size:7.4083333px;font-family:Ubuntu;-inkscape-font-specification:Ubuntu;fill:#b3b3b3;stroke-width:0.26458332"
           id="path8885"
           inkscape:connector-curvature="0" />
        <path
           d="m 564.95507,247.60622 q -0.46672,0 -0.82232,-0.14817 -0.34819,-0.14816 -0.59267,-0.41486 -0.23707,-0.2667 -0.3556,-0.62971 -0.11853,-0.37042 -0.11853,-0.81492 0,-0.4445 0.12594,-0.81492 0.13335,-0.37041 0.37042,-0.63711 0.23706,-0.27411 0.57785,-0.42228 0.34819,-0.15557 0.77046,-0.15557 0.25929,0 0.51859,0.0445 0.25929,0.0444 0.49635,0.14076 l -0.15557,0.58525 q -0.15558,-0.0741 -0.36301,-0.11853 -0.20002,-0.0444 -0.42968,-0.0444 -0.57785,0 -0.889,0.36301 -0.30374,0.36301 -0.30374,1.05939 0,0.31115 0.0667,0.57044 0.0741,0.25929 0.22225,0.4445 0.15558,0.18521 0.39264,0.28893 0.23707,0.0963 0.57785,0.0963 0.27411,0 0.49636,-0.0519 0.22225,-0.0519 0.34819,-0.11113 l 0.0963,0.57785 q -0.0593,0.037 -0.17039,0.0741 -0.11113,0.0296 -0.25188,0.0519 -0.14076,0.0296 -0.30375,0.0445 -0.15557,0.0222 -0.30374,0.0222 z"
           style="font-style:normal;font-variant:normal;font-weight:normal;font-stretch:normal;font-size:7.4083333px;font-family:Ubuntu;-inkscape-font-specification:Ubuntu;fill:#b3b3b3;stroke-width:0.26458332"
           id="path8887"
           inkscape:connector-curvature="0" />
        <path
           d="m 570.02365,245.59115 q 0,0.45932 -0.13335,0.82974 -0.13335,0.37041 -0.37783,0.63711 -0.23707,0.2667 -0.57044,0.41487 -0.33338,0.14076 -0.72602,0.14076 -0.39264,0 -0.72601,-0.14076 -0.33338,-0.14817 -0.57785,-0.41487 -0.23707,-0.2667 -0.37042,-0.63711 -0.13335,-0.37042 -0.13335,-0.82974 0,-0.45191 0.13335,-0.82232 0.13335,-0.37783 0.37042,-0.64453 0.24447,-0.2667 0.57785,-0.40746 0.33337,-0.14816 0.72601,-0.14816 0.39264,0 0.72602,0.14816 0.33337,0.14076 0.57044,0.40746 0.24448,0.2667 0.37783,0.64453 0.13335,0.37041 0.13335,0.82232 z m -0.71861,0 q 0,-0.65193 -0.29634,-1.02976 -0.28892,-0.38523 -0.79269,-0.38523 -0.50376,0 -0.8001,0.38523 -0.28892,0.37783 -0.28892,1.02976 0,0.65194 0.28892,1.03717 0.29634,0.37782 0.8001,0.37782 0.50377,0 0.79269,-0.37782 0.29634,-0.38523 0.29634,-1.03717 z"
           style="font-style:normal;font-variant:normal;font-weight:normal;font-stretch:normal;font-size:7.4083333px;font-family:Ubuntu;-inkscape-font-specification:Ubuntu;fill:#b3b3b3;stroke-width:0.26458332"
           id="path8889"
           inkscape:connector-curvature="0" />
      </g>
      <g
         aria-label="Alto risco"
         style="font-style:normal;font-variant:normal;font-weight:normal;font-stretch:normal;font-size:6.70277786px;line-height:1.25;font-family:Roboto;-inkscape-font-specification:Roboto;letter-spacing:0px;word-spacing:0px;fill:#b3b3b3;fill-opacity:1;stroke:none;stroke-width:0.26458332"
         id="text6679-3-6-4-3-8-5">
        <path
           d="m 758.85099,247.51732 q -0.12594,-0.33338 -0.23707,-0.65193 -0.11112,-0.32597 -0.22966,-0.65935 h -2.32621 l -0.46673,1.31128 h -0.74824 q 0.29633,-0.81492 0.55563,-1.50389 0.25929,-0.69639 0.50376,-1.31869 0.25189,-0.6223 0.49636,-1.18533 0.24448,-0.57044 0.51118,-1.12607 h 0.65934 q 0.2667,0.55563 0.51117,1.12607 0.24448,0.56303 0.48895,1.18533 0.25189,0.6223 0.51118,1.31869 0.25929,0.68897 0.55562,1.50389 z m -0.67416,-1.90394 q -0.23707,-0.64453 -0.47413,-1.2446 -0.22966,-0.60749 -0.48154,-1.16311 -0.2593,0.55562 -0.49636,1.16311 -0.22966,0.60007 -0.45932,1.2446 z"
           style="font-style:normal;font-variant:normal;font-weight:normal;font-stretch:normal;font-size:7.4083333px;font-family:Ubuntu;-inkscape-font-specification:Ubuntu;fill:#b3b3b3;stroke-width:0.26458332"
           id="path8812"
           inkscape:connector-curvature="0" />
        <path
           d="m 761.43731,247.5914 q -0.63712,-0.0148 -0.90382,-0.27411 -0.2667,-0.25929 -0.2667,-0.8075 v -4.6228 l 0.68898,-0.11854 v 4.63021 q 0,0.17039 0.0296,0.28152 0.0296,0.11112 0.0963,0.1778 0.0667,0.0667 0.1778,0.10371 0.11112,0.0296 0.27411,0.0519 z"
           style="font-style:normal;font-variant:normal;font-weight:normal;font-stretch:normal;font-size:7.4083333px;font-family:Ubuntu;-inkscape-font-specification:Ubuntu;fill:#b3b3b3;stroke-width:0.26458332"
           id="path8814"
           inkscape:connector-curvature="0" />
        <path
           d="m 762.95185,243.66499 h 1.45944 v 0.57785 h -1.45944 v 1.778 q 0,0.28892 0.0444,0.48154 0.0444,0.18521 0.13335,0.29633 0.0889,0.10372 0.22225,0.14817 0.13335,0.0445 0.31115,0.0445 0.31115,0 0.49636,-0.0667 0.19261,-0.0741 0.2667,-0.10371 l 0.13335,0.57044 q -0.10372,0.0519 -0.36301,0.12594 -0.25929,0.0815 -0.59267,0.0815 -0.39264,0 -0.65193,-0.0963 -0.25188,-0.10371 -0.40746,-0.30374 -0.15557,-0.20002 -0.22225,-0.48895 -0.0593,-0.29633 -0.0593,-0.68157 v -3.43746 l 0.68898,-0.11854 z"
           style="font-style:normal;font-variant:normal;font-weight:normal;font-stretch:normal;font-size:7.4083333px;font-family:Ubuntu;-inkscape-font-specification:Ubuntu;fill:#b3b3b3;stroke-width:0.26458332"
           id="path8816"
           inkscape:connector-curvature="0" />
        <path
           d="m 768.58716,245.59115 q 0,0.45932 -0.13335,0.82974 -0.13335,0.37041 -0.37783,0.63711 -0.23706,0.2667 -0.57044,0.41487 -0.33337,0.14076 -0.72601,0.14076 -0.39265,0 -0.72602,-0.14076 -0.33338,-0.14817 -0.57785,-0.41487 -0.23707,-0.2667 -0.37042,-0.63711 -0.13335,-0.37042 -0.13335,-0.82974 0,-0.45191 0.13335,-0.82232 0.13335,-0.37783 0.37042,-0.64453 0.24447,-0.2667 0.57785,-0.40746 0.33337,-0.14816 0.72602,-0.14816 0.39264,0 0.72601,0.14816 0.33338,0.14076 0.57044,0.40746 0.24448,0.2667 0.37783,0.64453 0.13335,0.37041 0.13335,0.82232 z m -0.71861,0 q 0,-0.65193 -0.29633,-1.02976 -0.28893,-0.38523 -0.79269,-0.38523 -0.50377,0 -0.8001,0.38523 -0.28893,0.37783 -0.28893,1.02976 0,0.65194 0.28893,1.03717 0.29633,0.37782 0.8001,0.37782 0.50376,0 0.79269,-0.37782 0.29633,-0.38523 0.29633,-1.03717 z"
           style="font-style:normal;font-variant:normal;font-weight:normal;font-stretch:normal;font-size:7.4083333px;font-family:Ubuntu;-inkscape-font-specification:Ubuntu;fill:#b3b3b3;stroke-width:0.26458332"
           id="path8818"
           inkscape:connector-curvature="0" />
        <path
           d="m 772.68628,243.58349 q 0.0889,0 0.20003,0.0148 0.11853,0.007 0.22966,0.0296 0.11112,0.0148 0.20002,0.037 0.0963,0.0148 0.14076,0.0296 l -0.11853,0.60007 q -0.0815,-0.0296 -0.27411,-0.0667 -0.18521,-0.0444 -0.48154,-0.0444 -0.19262,0 -0.38524,0.0444 -0.18521,0.037 -0.24447,0.0519 v 3.23744 h -0.68898 v -3.68935 q 0.24448,-0.0889 0.60749,-0.16298 0.363,-0.0815 0.81491,-0.0815 z"
           style="font-style:normal;font-variant:normal;font-weight:normal;font-stretch:normal;font-size:7.4083333px;font-family:Ubuntu;-inkscape-font-specification:Ubuntu;fill:#b3b3b3;stroke-width:0.26458332"
           id="path8820"
           inkscape:connector-curvature="0" />
        <path
           d="m 774.8178,247.51732 h -0.68898 v -3.85233 h 0.68898 z m -0.34819,-4.54872 q -0.18521,0 -0.31856,-0.11853 -0.12594,-0.12594 -0.12594,-0.33338 0,-0.20743 0.12594,-0.32596 0.13335,-0.12594 0.31856,-0.12594 0.18521,0 0.31115,0.12594 0.13335,0.11853 0.13335,0.32596 0,0.20744 -0.13335,0.33338 -0.12594,0.11853 -0.31115,0.11853 z"
           style="font-style:normal;font-variant:normal;font-weight:normal;font-stretch:normal;font-size:7.4083333px;font-family:Ubuntu;-inkscape-font-specification:Ubuntu;fill:#b3b3b3;stroke-width:0.26458332"
           id="path8822"
           inkscape:connector-curvature="0" />
        <path
           d="m 776.90625,247.02096 q 0.42228,0 0.6223,-0.11112 0.20744,-0.11113 0.20744,-0.3556 0,-0.25189 -0.20003,-0.40005 -0.20002,-0.14817 -0.65934,-0.33338 -0.22225,-0.0889 -0.42968,-0.1778 -0.20003,-0.0963 -0.34819,-0.22225 -0.14817,-0.12594 -0.23707,-0.30374 -0.0889,-0.1778 -0.0889,-0.43709 0,-0.51118 0.37782,-0.80751 0.37783,-0.30374 1.02976,-0.30374 0.16299,0 0.32597,0.0222 0.16298,0.0148 0.30374,0.0444 0.14076,0.0222 0.24448,0.0519 0.11112,0.0296 0.17039,0.0519 l -0.12594,0.59267 q -0.11113,-0.0593 -0.3482,-0.11854 -0.23706,-0.0667 -0.57044,-0.0667 -0.28892,0 -0.50376,0.11853 -0.21485,0.11113 -0.21485,0.3556 0,0.12594 0.0444,0.22225 0.0519,0.0963 0.14817,0.1778 0.10372,0.0741 0.25188,0.14076 0.14817,0.0667 0.3556,0.14076 0.27411,0.10371 0.48895,0.20743 0.21485,0.0963 0.36301,0.22966 0.15558,0.13335 0.23707,0.32597 0.0815,0.1852 0.0815,0.45931 0,0.5334 -0.40005,0.80751 -0.39264,0.27411 -1.12607,0.27411 -0.51117,0 -0.8001,-0.0889 -0.28892,-0.0815 -0.39264,-0.12594 l 0.12594,-0.59267 q 0.11854,0.0445 0.37783,0.13335 0.25929,0.0889 0.68897,0.0889 z"
           style="font-style:normal;font-variant:normal;font-weight:normal;font-stretch:normal;font-size:7.4083333px;font-family:Ubuntu;-inkscape-font-specification:Ubuntu;fill:#b3b3b3;stroke-width:0.26458332"
           id="path8824"
           inkscape:connector-curvature="0" />
        <path
           d="m 780.98315,247.60622 q -0.46672,0 -0.82232,-0.14817 -0.34819,-0.14816 -0.59267,-0.41486 -0.23707,-0.2667 -0.3556,-0.62971 -0.11853,-0.37042 -0.11853,-0.81492 0,-0.4445 0.12594,-0.81492 0.13335,-0.37041 0.37042,-0.63711 0.23706,-0.27411 0.57785,-0.42228 0.34819,-0.15557 0.77046,-0.15557 0.25929,0 0.51859,0.0445 0.25929,0.0444 0.49635,0.14076 l -0.15557,0.58525 q -0.15558,-0.0741 -0.36301,-0.11853 -0.20002,-0.0444 -0.42968,-0.0444 -0.57785,0 -0.889,0.36301 -0.30374,0.36301 -0.30374,1.05939 0,0.31115 0.0667,0.57044 0.0741,0.25929 0.22225,0.4445 0.15558,0.18521 0.39264,0.28893 0.23707,0.0963 0.57785,0.0963 0.27411,0 0.49636,-0.0519 0.22225,-0.0519 0.34819,-0.11113 l 0.0963,0.57785 q -0.0593,0.037 -0.17039,0.0741 -0.11113,0.0296 -0.25188,0.0519 -0.14076,0.0296 -0.30375,0.0445 -0.15557,0.0222 -0.30374,0.0222 z"
           style="font-style:normal;font-variant:normal;font-weight:normal;font-stretch:normal;font-size:7.4083333px;font-family:Ubuntu;-inkscape-font-specification:Ubuntu;fill:#b3b3b3;stroke-width:0.26458332"
           id="path8826"
           inkscape:connector-curvature="0" />
        <path
           d="m 786.05173,245.59115 q 0,0.45932 -0.13335,0.82974 -0.13335,0.37041 -0.37783,0.63711 -0.23707,0.2667 -0.57044,0.41487 -0.33338,0.14076 -0.72602,0.14076 -0.39264,0 -0.72601,-0.14076 -0.33338,-0.14817 -0.57785,-0.41487 -0.23707,-0.2667 -0.37042,-0.63711 -0.13335,-0.37042 -0.13335,-0.82974 0,-0.45191 0.13335,-0.82232 0.13335,-0.37783 0.37042,-0.64453 0.24447,-0.2667 0.57785,-0.40746 0.33337,-0.14816 0.72601,-0.14816 0.39264,0 0.72602,0.14816 0.33337,0.14076 0.57044,0.40746 0.24448,0.2667 0.37783,0.64453 0.13335,0.37041 0.13335,0.82232 z m -0.71861,0 q 0,-0.65193 -0.29634,-1.02976 -0.28892,-0.38523 -0.79269,-0.38523 -0.50376,0 -0.8001,0.38523 -0.28892,0.37783 -0.28892,1.02976 0,0.65194 0.28892,1.03717 0.29634,0.37782 0.8001,0.37782 0.50377,0 0.79269,-0.37782 0.29634,-0.38523 0.29634,-1.03717 z"
           style="font-style:normal;font-variant:normal;font-weight:normal;font-stretch:normal;font-size:7.4083333px;font-family:Ubuntu;-inkscape-font-specification:Ubuntu;fill:#b3b3b3;stroke-width:0.26458332"
           id="path8828"
           inkscape:connector-curvature="0" />
      </g>
      <rect
         transform="scale(-1,1)"
         ry="0"
         rx="0"
         y="234.10771"
         x="-658.82971"
         height="21.166666"
         width="72.443954"
         id="rect10226-3-9-2-5-8"
         style="opacity:1;vector-effect:none;fill:#e6e6e6;fill-opacity:1;stroke:#cccccc;stroke-width:0.79374999;stroke-linecap:round;stroke-linejoin:round;stroke-miterlimit:4;stroke-dasharray:none;stroke-dashoffset:0;stroke-opacity:1" />
      <g
         aria-label="Médio risco"
         style="font-style:normal;font-variant:normal;font-weight:normal;font-stretch:normal;font-size:6.70277786px;line-height:1.25;font-family:Roboto;-inkscape-font-specification:Roboto;letter-spacing:0px;word-spacing:0px;fill:#b3b3b3;fill-opacity:1;stroke:none;stroke-width:0.26458332"
         id="text6679-3-6-4-3-1">
        <path
           d="m 606.15064,246.80612 q -0.0741,-0.1778 -0.20002,-0.45191 -0.11854,-0.27411 -0.25929,-0.59267 -0.14076,-0.31855 -0.30375,-0.65193 -0.15557,-0.34078 -0.29633,-0.63712 -0.14076,-0.30374 -0.2667,-0.5408 -0.11853,-0.23707 -0.19262,-0.36301 -0.0815,0.87418 -0.13335,1.89653 -0.0518,1.01494 -0.0889,2.05211 h -0.70379 q 0.0296,-0.66675 0.0667,-1.34091 0.037,-0.68157 0.0815,-1.3335 0.0519,-0.65934 0.10372,-1.28164 0.0593,-0.6223 0.12594,-1.17793 h 0.62971 q 0.20002,0.32597 0.42968,0.77047 0.22966,0.4445 0.45932,0.93345 0.22965,0.48154 0.4445,0.97049 0.21484,0.48154 0.39264,0.88159 0.1778,-0.40005 0.39264,-0.88159 0.21484,-0.48895 0.4445,-0.97049 0.22966,-0.48895 0.45932,-0.93345 0.22965,-0.4445 0.42968,-0.77047 h 0.62971 q 0.25188,2.4818 0.37782,5.13398 h -0.70379 q -0.037,-1.03717 -0.0889,-2.05211 -0.0519,-1.02235 -0.13335,-1.89653 -0.0741,0.12594 -0.20002,0.36301 -0.11854,0.23706 -0.2593,0.5408 -0.14075,0.29634 -0.30374,0.63712 -0.15557,0.33338 -0.29633,0.65193 -0.14076,0.31856 -0.2667,0.59267 -0.11853,0.27411 -0.19262,0.45191 z"
           style="font-style:normal;font-variant:normal;font-weight:normal;font-stretch:normal;font-size:7.4083333px;font-family:Ubuntu;-inkscape-font-specification:Ubuntu;fill:#b3b3b3;stroke-width:0.26458332"
           id="path8850"
           inkscape:connector-curvature="0" />
        <path
           d="m 610.04071,245.59856 q 0,-0.51117 0.14817,-0.889 0.14816,-0.38523 0.39264,-0.63712 0.24447,-0.25188 0.56303,-0.37782 0.31856,-0.12594 0.65194,-0.12594 0.77787,0 1.19274,0.48895 0.41486,0.48154 0.41486,1.47426 0,0.0444 0,0.11853 0,0.0667 -0.007,0.12594 h -2.63737 q 0.0444,0.60008 0.34819,0.91123 0.30374,0.31115 0.94827,0.31115 0.36301,0 0.60748,-0.0593 0.25188,-0.0667 0.37783,-0.12594 l 0.0963,0.57785 q -0.12594,0.0667 -0.4445,0.14076 -0.31115,0.0741 -0.7112,0.0741 -0.50376,0 -0.87418,-0.14817 -0.36301,-0.15557 -0.60007,-0.42227 -0.23707,-0.2667 -0.3556,-0.62971 -0.11113,-0.37042 -0.11113,-0.80751 z m 2.64478,-0.37782 q 0.007,-0.46673 -0.23707,-0.76306 -0.23707,-0.30374 -0.65934,-0.30374 -0.23707,0 -0.42228,0.0963 -0.1778,0.0889 -0.30374,0.23707 -0.12594,0.14817 -0.20002,0.34078 -0.0667,0.19262 -0.0889,0.39265 z m -0.007,-3.0152 -1.04458,1.01495 -0.34819,-0.31115 0.94827,-1.14089 z"
           style="font-style:normal;font-variant:normal;font-weight:normal;font-stretch:normal;font-size:7.4083333px;font-family:Ubuntu;-inkscape-font-specification:Ubuntu;fill:#b3b3b3;stroke-width:0.26458332"
           id="path8852"
           inkscape:connector-curvature="0" />
        <path
           d="m 616.883,244.4799 q -0.12594,-0.10371 -0.36301,-0.20002 -0.23706,-0.0963 -0.51858,-0.0963 -0.29633,0 -0.51117,0.11112 -0.20744,0.10372 -0.34079,0.29634 -0.13335,0.18521 -0.19261,0.4445 -0.0593,0.25929 -0.0593,0.55562 0,0.67416 0.33337,1.04458 0.33338,0.36301 0.889,0.36301 0.28152,0 0.46673,-0.0222 0.19262,-0.0296 0.29633,-0.0593 z m 0,-2.59291 0.68898,-0.11854 v 5.63774 q -0.23707,0.0667 -0.60749,0.13335 -0.37041,0.0667 -0.85195,0.0667 -0.4445,0 -0.8001,-0.14076 -0.3556,-0.14076 -0.60749,-0.40005 -0.25188,-0.25929 -0.39264,-0.62971 -0.13335,-0.37782 -0.13335,-0.84455 0,-0.4445 0.11113,-0.81491 0.11853,-0.37042 0.34078,-0.63712 0.22225,-0.2667 0.54081,-0.41487 0.32596,-0.14816 0.74083,-0.14816 0.33338,0 0.58526,0.0889 0.25929,0.0889 0.38523,0.17039 z"
           style="font-style:normal;font-variant:normal;font-weight:normal;font-stretch:normal;font-size:7.4083333px;font-family:Ubuntu;-inkscape-font-specification:Ubuntu;fill:#b3b3b3;stroke-width:0.26458332"
           id="path8854"
           inkscape:connector-curvature="0" />
        <path
           d="m 619.45254,247.51732 h -0.68898 v -3.85233 h 0.68898 z m -0.3482,-4.54872 q -0.1852,0 -0.31855,-0.11853 -0.12595,-0.12594 -0.12595,-0.33338 0,-0.20743 0.12595,-0.32596 0.13335,-0.12594 0.31855,-0.12594 0.18521,0 0.31115,0.12594 0.13335,0.11853 0.13335,0.32596 0,0.20744 -0.13335,0.33338 -0.12594,0.11853 -0.31115,0.11853 z"
           style="font-style:normal;font-variant:normal;font-weight:normal;font-stretch:normal;font-size:7.4083333px;font-family:Ubuntu;-inkscape-font-specification:Ubuntu;fill:#b3b3b3;stroke-width:0.26458332"
           id="path8856"
           inkscape:connector-curvature="0" />
        <path
           d="m 624.04501,245.59115 q 0,0.45932 -0.13335,0.82974 -0.13335,0.37041 -0.37783,0.63711 -0.23706,0.2667 -0.57044,0.41487 -0.33337,0.14076 -0.72602,0.14076 -0.39264,0 -0.72601,-0.14076 -0.33338,-0.14817 -0.57785,-0.41487 -0.23707,-0.2667 -0.37042,-0.63711 -0.13335,-0.37042 -0.13335,-0.82974 0,-0.45191 0.13335,-0.82232 0.13335,-0.37783 0.37042,-0.64453 0.24447,-0.2667 0.57785,-0.40746 0.33337,-0.14816 0.72601,-0.14816 0.39265,0 0.72602,0.14816 0.33338,0.14076 0.57044,0.40746 0.24448,0.2667 0.37783,0.64453 0.13335,0.37041 0.13335,0.82232 z m -0.71861,0 q 0,-0.65193 -0.29633,-1.02976 -0.28893,-0.38523 -0.7927,-0.38523 -0.50376,0 -0.8001,0.38523 -0.28892,0.37783 -0.28892,1.02976 0,0.65194 0.28892,1.03717 0.29634,0.37782 0.8001,0.37782 0.50377,0 0.7927,-0.37782 0.29633,-0.38523 0.29633,-1.03717 z"
           style="font-style:normal;font-variant:normal;font-weight:normal;font-stretch:normal;font-size:7.4083333px;font-family:Ubuntu;-inkscape-font-specification:Ubuntu;fill:#b3b3b3;stroke-width:0.26458332"
           id="path8858"
           inkscape:connector-curvature="0" />
        <path
           d="m 628.14413,243.58349 q 0.0889,0 0.20003,0.0148 0.11853,0.007 0.22965,0.0296 0.11113,0.0148 0.20003,0.037 0.0963,0.0148 0.14076,0.0296 l -0.11854,0.60007 q -0.0815,-0.0296 -0.2741,-0.0667 -0.18521,-0.0444 -0.48155,-0.0444 -0.19261,0 -0.38523,0.0444 -0.18521,0.037 -0.24447,0.0519 v 3.23744 h -0.68898 v -3.68935 q 0.24448,-0.0889 0.60748,-0.16298 0.36301,-0.0815 0.81492,-0.0815 z"
           style="font-style:normal;font-variant:normal;font-weight:normal;font-stretch:normal;font-size:7.4083333px;font-family:Ubuntu;-inkscape-font-specification:Ubuntu;fill:#b3b3b3;stroke-width:0.26458332"
           id="path8860"
           inkscape:connector-curvature="0" />
        <path
           d="m 630.27565,247.51732 h -0.68898 v -3.85233 h 0.68898 z m -0.34819,-4.54872 q -0.18521,0 -0.31856,-0.11853 -0.12594,-0.12594 -0.12594,-0.33338 0,-0.20743 0.12594,-0.32596 0.13335,-0.12594 0.31856,-0.12594 0.1852,0 0.31115,0.12594 0.13335,0.11853 0.13335,0.32596 0,0.20744 -0.13335,0.33338 -0.12595,0.11853 -0.31115,0.11853 z"
           style="font-style:normal;font-variant:normal;font-weight:normal;font-stretch:normal;font-size:7.4083333px;font-family:Ubuntu;-inkscape-font-specification:Ubuntu;fill:#b3b3b3;stroke-width:0.26458332"
           id="path8862"
           inkscape:connector-curvature="0" />
        <path
           d="m 632.3641,247.02096 q 0.42228,0 0.6223,-0.11112 0.20744,-0.11113 0.20744,-0.3556 0,-0.25189 -0.20003,-0.40005 -0.20002,-0.14817 -0.65934,-0.33338 -0.22225,-0.0889 -0.42968,-0.1778 -0.20003,-0.0963 -0.34819,-0.22225 -0.14817,-0.12594 -0.23707,-0.30374 -0.0889,-0.1778 -0.0889,-0.43709 0,-0.51118 0.37782,-0.80751 0.37783,-0.30374 1.02976,-0.30374 0.16299,0 0.32597,0.0222 0.16298,0.0148 0.30374,0.0444 0.14076,0.0222 0.24448,0.0519 0.11112,0.0296 0.17039,0.0519 l -0.12594,0.59267 q -0.11113,-0.0593 -0.3482,-0.11854 -0.23706,-0.0667 -0.57044,-0.0667 -0.28892,0 -0.50376,0.11853 -0.21485,0.11113 -0.21485,0.3556 0,0.12594 0.0445,0.22225 0.0519,0.0963 0.14817,0.1778 0.10372,0.0741 0.25188,0.14076 0.14817,0.0667 0.3556,0.14076 0.27411,0.10371 0.48895,0.20743 0.21485,0.0963 0.36301,0.22966 0.15558,0.13335 0.23707,0.32597 0.0815,0.1852 0.0815,0.45931 0,0.5334 -0.40005,0.80751 -0.39264,0.27411 -1.12607,0.27411 -0.51117,0 -0.8001,-0.0889 -0.28892,-0.0815 -0.39264,-0.12594 l 0.12594,-0.59267 q 0.11854,0.0445 0.37783,0.13335 0.25929,0.0889 0.68897,0.0889 z"
           style="font-style:normal;font-variant:normal;font-weight:normal;font-stretch:normal;font-size:7.4083333px;font-family:Ubuntu;-inkscape-font-specification:Ubuntu;fill:#b3b3b3;stroke-width:0.26458332"
           id="path8864"
           inkscape:connector-curvature="0" />
        <path
           d="m 636.441,247.60622 q -0.46672,0 -0.82232,-0.14817 -0.3482,-0.14816 -0.59267,-0.41486 -0.23707,-0.2667 -0.3556,-0.62971 -0.11853,-0.37042 -0.11853,-0.81492 0,-0.4445 0.12594,-0.81492 0.13335,-0.37041 0.37041,-0.63711 0.23707,-0.27411 0.57785,-0.42228 0.3482,-0.15557 0.77047,-0.15557 0.25929,0 0.51858,0.0445 0.2593,0.0444 0.49636,0.14076 l -0.15557,0.58525 q -0.15558,-0.0741 -0.36301,-0.11853 -0.20003,-0.0444 -0.42968,-0.0444 -0.57785,0 -0.889,0.36301 -0.30375,0.36301 -0.30375,1.05939 0,0.31115 0.0667,0.57044 0.0741,0.25929 0.22225,0.4445 0.15557,0.18521 0.39264,0.28893 0.23707,0.0963 0.57785,0.0963 0.27411,0 0.49636,-0.0519 0.22225,-0.0519 0.34819,-0.11113 l 0.0963,0.57785 q -0.0593,0.037 -0.17039,0.0741 -0.11113,0.0296 -0.25189,0.0519 -0.14075,0.0296 -0.30374,0.0445 -0.15557,0.0222 -0.30374,0.0222 z"
           style="font-style:normal;font-variant:normal;font-weight:normal;font-stretch:normal;font-size:7.4083333px;font-family:Ubuntu;-inkscape-font-specification:Ubuntu;fill:#b3b3b3;stroke-width:0.26458332"
           id="path8866"
           inkscape:connector-curvature="0" />
        <path
           d="m 641.50957,245.59115 q 0,0.45932 -0.13335,0.82974 -0.13335,0.37041 -0.37782,0.63711 -0.23707,0.2667 -0.57044,0.41487 -0.33338,0.14076 -0.72602,0.14076 -0.39264,0 -0.72602,-0.14076 -0.33337,-0.14817 -0.57785,-0.41487 -0.23706,-0.2667 -0.37041,-0.63711 -0.13335,-0.37042 -0.13335,-0.82974 0,-0.45191 0.13335,-0.82232 0.13335,-0.37783 0.37041,-0.64453 0.24448,-0.2667 0.57785,-0.40746 0.33338,-0.14816 0.72602,-0.14816 0.39264,0 0.72602,0.14816 0.33337,0.14076 0.57044,0.40746 0.24447,0.2667 0.37782,0.64453 0.13335,0.37041 0.13335,0.82232 z m -0.7186,0 q 0,-0.65193 -0.29634,-1.02976 -0.28892,-0.38523 -0.79269,-0.38523 -0.50377,0 -0.8001,0.38523 -0.28892,0.37783 -0.28892,1.02976 0,0.65194 0.28892,1.03717 0.29633,0.37782 0.8001,0.37782 0.50377,0 0.79269,-0.37782 0.29634,-0.38523 0.29634,-1.03717 z"
           style="font-style:normal;font-variant:normal;font-weight:normal;font-stretch:normal;font-size:7.4083333px;font-family:Ubuntu;-inkscape-font-specification:Ubuntu;fill:#b3b3b3;stroke-width:0.26458332"
           id="path8868"
           inkscape:connector-curvature="0" />
      </g>
      <rect
         transform="scale(-1,1)"
         ry="3.0240021"
         rx="3.0240023"
         y="231.46188"
         x="-740.69641"
         height="26.458334"
         width="90.583748"
         id="rect10226-3-9-2-54"
         style="opacity:1;vector-effect:none;fill:#ff7f2a;fill-opacity:1;stroke:none;stroke-width:0.79374999;stroke-linecap:round;stroke-linejoin:round;stroke-miterlimit:4;stroke-dasharray:none;stroke-dashoffset:0;stroke-opacity:1" />
      <g
         aria-label="Médio alto"
         style="font-style:normal;font-variant:normal;font-weight:normal;font-stretch:normal;font-size:8.46666622px;line-height:1.25;font-family:Roboto;-inkscape-font-specification:Roboto;letter-spacing:0px;word-spacing:0px;fill:#ffffff;fill-opacity:1;stroke:none;stroke-width:0.26458332"
         id="text6679-3-6-43">
        <path
           d="m 678.09296,245.78116 q -0.0847,-0.2032 -0.2286,-0.51646 -0.13547,-0.31327 -0.29634,-0.67734 -0.16086,-0.36406 -0.34713,-0.74506 -0.1778,-0.38947 -0.33867,-0.72814 -0.16086,-0.34713 -0.3048,-0.61806 -0.13546,-0.27094 -0.22013,-0.41487 -0.0931,0.99907 -0.1524,2.16747 -0.0593,1.15993 -0.1016,2.34526 h -0.80433 q 0.0339,-0.762 0.0762,-1.53246 0.0423,-0.77894 0.0931,-1.524 0.0593,-0.75354 0.11853,-1.46474 0.0677,-0.7112 0.14394,-1.3462 h 0.71966 q 0.2286,0.37254 0.49107,0.88054 0.26247,0.508 0.52493,1.0668 0.26247,0.55033 0.508,1.10913 0.24554,0.55033 0.44874,1.00753 0.2032,-0.4572 0.44873,-1.00753 0.24553,-0.5588 0.508,-1.10913 0.26247,-0.5588 0.52493,-1.0668 0.26247,-0.508 0.49107,-0.88054 h 0.71967 q 0.28786,2.83634 0.4318,5.8674 h -0.80434 q -0.0423,-1.18533 -0.1016,-2.34526 -0.0593,-1.1684 -0.1524,-2.16747 -0.0847,0.14393 -0.2286,0.41487 -0.13546,0.27093 -0.29633,0.61806 -0.16087,0.33867 -0.34713,0.72814 -0.1778,0.381 -0.33867,0.74506 -0.16087,0.36407 -0.3048,0.67734 -0.13547,0.31326 -0.22013,0.51646 z"
           style="font-style:normal;font-variant:normal;font-weight:normal;font-stretch:normal;font-size:8.46666622px;font-family:Ubuntu;-inkscape-font-specification:Ubuntu;fill:#ffffff;stroke-width:0.26458332"
           id="path8831"
           inkscape:connector-curvature="0" />
        <path
           d="m 682.53875,244.4011 q 0,-0.5842 0.16933,-1.016 0.16934,-0.44027 0.44874,-0.72814 0.2794,-0.28786 0.64346,-0.4318 0.36407,-0.14393 0.74507,-0.14393 0.889,0 1.36313,0.5588 0.47414,0.55033 0.47414,1.68487 0,0.0508 0,0.13546 0,0.0762 -0.008,0.14394 h -3.01413 q 0.0508,0.6858 0.39793,1.0414 0.34713,0.3556 1.08373,0.3556 0.41487,0 0.69427,-0.0677 0.28787,-0.0762 0.4318,-0.14393 l 0.11007,0.6604 q -0.14394,0.0762 -0.508,0.16087 -0.3556,0.0847 -0.8128,0.0847 -0.57574,0 -0.99907,-0.16933 -0.41487,-0.1778 -0.6858,-0.4826 -0.27093,-0.3048 -0.4064,-0.71967 -0.127,-0.42333 -0.127,-0.92286 z m 3.0226,-0.4318 q 0.008,-0.5334 -0.27093,-0.87207 -0.27094,-0.34713 -0.75354,-0.34713 -0.27093,0 -0.4826,0.11006 -0.2032,0.1016 -0.34713,0.27094 -0.14393,0.16933 -0.2286,0.38946 -0.0762,0.22014 -0.1016,0.44874 z m -0.008,-3.44594 -1.1938,1.15994 -0.39793,-0.3556 1.08373,-1.30387 z"
           style="font-style:normal;font-variant:normal;font-weight:normal;font-stretch:normal;font-size:8.46666622px;font-family:Ubuntu;-inkscape-font-specification:Ubuntu;fill:#ffffff;stroke-width:0.26458332"
           id="path8833"
           inkscape:connector-curvature="0" />
        <path
           d="m 690.35851,243.12263 q -0.14393,-0.11853 -0.41487,-0.2286 -0.27093,-0.11007 -0.59266,-0.11007 -0.33867,0 -0.5842,0.127 -0.23707,0.11854 -0.38947,0.33867 -0.1524,0.21167 -0.22013,0.508 -0.0677,0.29633 -0.0677,0.635 0,0.77047 0.381,1.1938 0.381,0.41487 1.016,0.41487 0.32174,0 0.5334,-0.0254 0.22014,-0.0339 0.33867,-0.0677 z m 0,-2.96333 0.7874,-0.13547 v 6.44313 q -0.27093,0.0762 -0.69427,0.1524 -0.42333,0.0762 -0.97366,0.0762 -0.508,0 -0.9144,-0.16086 -0.4064,-0.16087 -0.69427,-0.4572 -0.28787,-0.29634 -0.44873,-0.71967 -0.1524,-0.4318 -0.1524,-0.9652 0,-0.508 0.127,-0.93133 0.13546,-0.42334 0.38946,-0.72814 0.254,-0.3048 0.61807,-0.47413 0.37253,-0.16933 0.84667,-0.16933 0.381,0 0.66886,0.1016 0.29634,0.1016 0.44027,0.19473 z"
           style="font-style:normal;font-variant:normal;font-weight:normal;font-stretch:normal;font-size:8.46666622px;font-family:Ubuntu;-inkscape-font-specification:Ubuntu;fill:#ffffff;stroke-width:0.26458332"
           id="path8835"
           inkscape:connector-curvature="0" />
        <path
           d="m 693.29512,246.59396 h -0.7874 v -4.40266 h 0.7874 z m -0.39793,-5.19853 q -0.21167,0 -0.36407,-0.13547 -0.14393,-0.14393 -0.14393,-0.381 0,-0.23706 0.14393,-0.37253 0.1524,-0.14393 0.36407,-0.14393 0.21166,0 0.3556,0.14393 0.1524,0.13547 0.1524,0.37253 0,0.23707 -0.1524,0.381 -0.14394,0.13547 -0.3556,0.13547 z"
           style="font-style:normal;font-variant:normal;font-weight:normal;font-stretch:normal;font-size:8.46666622px;font-family:Ubuntu;-inkscape-font-specification:Ubuntu;fill:#ffffff;stroke-width:0.26458332"
           id="path8837"
           inkscape:connector-curvature="0" />
        <path
           d="m 698.54366,244.39263 q 0,0.52493 -0.1524,0.94827 -0.1524,0.42333 -0.4318,0.72813 -0.27093,0.3048 -0.65193,0.47413 -0.381,0.16087 -0.82974,0.16087 -0.44873,0 -0.82973,-0.16087 -0.381,-0.16933 -0.6604,-0.47413 -0.27093,-0.3048 -0.42333,-0.72813 -0.1524,-0.42334 -0.1524,-0.94827 0,-0.51647 0.1524,-0.9398 0.1524,-0.4318 0.42333,-0.7366 0.2794,-0.3048 0.6604,-0.46567 0.381,-0.16933 0.82973,-0.16933 0.44874,0 0.82974,0.16933 0.381,0.16087 0.65193,0.46567 0.2794,0.3048 0.4318,0.7366 0.1524,0.42333 0.1524,0.9398 z m -0.82127,0 q 0,-0.74507 -0.33866,-1.17687 -0.3302,-0.44026 -0.90594,-0.44026 -0.57573,0 -0.9144,0.44026 -0.3302,0.4318 -0.3302,1.17687 0,0.74507 0.3302,1.18533 0.33867,0.4318 0.9144,0.4318 0.57574,0 0.90594,-0.4318 0.33866,-0.44026 0.33866,-1.18533 z"
           style="font-style:normal;font-variant:normal;font-weight:normal;font-stretch:normal;font-size:8.46666622px;font-family:Ubuntu;-inkscape-font-specification:Ubuntu;fill:#ffffff;stroke-width:0.26458332"
           id="path8839"
           inkscape:connector-curvature="0" />
        <path
           d="m 703.0929,246.0267 q 0.2794,0 0.49107,-0.008 0.22013,-0.0169 0.36407,-0.0508 v -1.31233 q -0.0847,-0.0423 -0.2794,-0.0677 -0.18627,-0.0339 -0.4572,-0.0339 -0.1778,0 -0.381,0.0254 -0.19474,0.0254 -0.36407,0.11006 -0.16087,0.0762 -0.27093,0.22014 -0.11007,0.13546 -0.11007,0.36406 0,0.42334 0.27093,0.59267 0.27094,0.16087 0.7366,0.16087 z m -0.0677,-3.94547 q 0.47413,0 0.79587,0.127 0.3302,0.11853 0.52493,0.34713 0.2032,0.22014 0.28787,0.5334 0.0847,0.3048 0.0847,0.67734 v 2.75166 q -0.1016,0.0169 -0.28786,0.0508 -0.1778,0.0254 -0.4064,0.0508 -0.2286,0.0254 -0.49954,0.0423 -0.26246,0.0254 -0.52493,0.0254 -0.37253,0 -0.6858,-0.0762 -0.31327,-0.0762 -0.54187,-0.23707 -0.2286,-0.16933 -0.3556,-0.44027 -0.127,-0.27093 -0.127,-0.65193 0,-0.36407 0.14394,-0.62653 0.1524,-0.26247 0.4064,-0.42334 0.254,-0.16086 0.59266,-0.23706 0.33867,-0.0762 0.7112,-0.0762 0.11854,0 0.24554,0.0169 0.127,0.008 0.23706,0.0339 0.11854,0.0169 0.2032,0.0339 0.0847,0.0169 0.11854,0.0254 v -0.22013 q 0,-0.19473 -0.0423,-0.381 -0.0423,-0.19473 -0.1524,-0.33867 -0.11006,-0.1524 -0.3048,-0.23706 -0.18626,-0.0931 -0.49106,-0.0931 -0.38947,0 -0.6858,0.0593 -0.28787,0.0508 -0.4318,0.11007 l -0.0931,-0.65194 q 0.1524,-0.0677 0.508,-0.127 0.3556,-0.0677 0.77047,-0.0677 z"
           style="font-style:normal;font-variant:normal;font-weight:normal;font-stretch:normal;font-size:8.46666622px;font-family:Ubuntu;-inkscape-font-specification:Ubuntu;fill:#ffffff;stroke-width:0.26458332"
           id="path8841"
           inkscape:connector-curvature="0" />
        <path
           d="m 707.3388,246.67863 q -0.72813,-0.0169 -1.03293,-0.31327 -0.3048,-0.29633 -0.3048,-0.92286 v -5.2832 l 0.7874,-0.13547 v 5.29167 q 0,0.19473 0.0339,0.32173 0.0339,0.127 0.11006,0.2032 0.0762,0.0762 0.2032,0.11853 0.127,0.0339 0.31327,0.0593 z"
           style="font-style:normal;font-variant:normal;font-weight:normal;font-stretch:normal;font-size:8.46666622px;font-family:Ubuntu;-inkscape-font-specification:Ubuntu;fill:#ffffff;stroke-width:0.26458332"
           id="path8843"
           inkscape:connector-curvature="0" />
        <path
           d="m 709.06971,242.1913 h 1.66793 v 0.6604 h -1.66793 v 2.032 q 0,0.3302 0.0508,0.55033 0.0508,0.21167 0.1524,0.33867 0.1016,0.11853 0.254,0.16933 0.1524,0.0508 0.3556,0.0508 0.3556,0 0.56727,-0.0762 0.22013,-0.0847 0.3048,-0.11853 l 0.1524,0.65193 q -0.11854,0.0593 -0.41487,0.14393 -0.29633,0.0931 -0.67733,0.0931 -0.44874,0 -0.74507,-0.11007 -0.28787,-0.11853 -0.46567,-0.34713 -0.1778,-0.2286 -0.254,-0.5588 -0.0677,-0.33867 -0.0677,-0.77894 v -3.92853 l 0.7874,-0.13547 z"
           style="font-style:normal;font-variant:normal;font-weight:normal;font-stretch:normal;font-size:8.46666622px;font-family:Ubuntu;-inkscape-font-specification:Ubuntu;fill:#ffffff;stroke-width:0.26458332"
           id="path8845"
           inkscape:connector-curvature="0" />
        <path
           d="m 715.51006,244.39263 q 0,0.52493 -0.1524,0.94827 -0.1524,0.42333 -0.4318,0.72813 -0.27093,0.3048 -0.65193,0.47413 -0.381,0.16087 -0.82973,0.16087 -0.44874,0 -0.82974,-0.16087 -0.381,-0.16933 -0.6604,-0.47413 -0.27093,-0.3048 -0.42333,-0.72813 -0.1524,-0.42334 -0.1524,-0.94827 0,-0.51647 0.1524,-0.9398 0.1524,-0.4318 0.42333,-0.7366 0.2794,-0.3048 0.6604,-0.46567 0.381,-0.16933 0.82974,-0.16933 0.44873,0 0.82973,0.16933 0.381,0.16087 0.65193,0.46567 0.2794,0.3048 0.4318,0.7366 0.1524,0.42333 0.1524,0.9398 z m -0.82126,0 q 0,-0.74507 -0.33867,-1.17687 -0.3302,-0.44026 -0.90593,-0.44026 -0.57574,0 -0.9144,0.44026 -0.3302,0.4318 -0.3302,1.17687 0,0.74507 0.3302,1.18533 0.33866,0.4318 0.9144,0.4318 0.57573,0 0.90593,-0.4318 0.33867,-0.44026 0.33867,-1.18533 z"
           style="font-style:normal;font-variant:normal;font-weight:normal;font-stretch:normal;font-size:8.46666622px;font-family:Ubuntu;-inkscape-font-specification:Ubuntu;fill:#ffffff;stroke-width:0.26458332"
           id="path8847"
           inkscape:connector-curvature="0" />
      </g>
    </g>
  </g>
</svg>
