<?xml version="1.0" encoding="UTF-8" standalone="no"?>
<!-- Created with Inkscape (http://www.inkscape.org/) -->

<svg
   xmlns:dc="http://purl.org/dc/elements/1.1/"
   xmlns:cc="http://creativecommons.org/ns#"
   xmlns:rdf="http://www.w3.org/1999/02/22-rdf-syntax-ns#"
   xmlns:svg="http://www.w3.org/2000/svg"
   xmlns="http://www.w3.org/2000/svg"
   xmlns:sodipodi="http://sodipodi.sourceforge.net/DTD/sodipodi-0.dtd"
   xmlns:inkscape="http://www.inkscape.org/namespaces/inkscape"
   width="297.54617mm"
   height="26.458334mm"
   viewBox="0 0 297.54617 26.458334"
   version="1.1"
   id="svg7906"
   inkscape:version="0.92.1 r15371"
   sodipodi:docname="altorisco.svg">
  <defs
     id="defs7900" />
  <sodipodi:namedview
     id="base"
     pagecolor="#ffffff"
     bordercolor="#666666"
     borderopacity="1.0"
     inkscape:pageopacity="0.0"
     inkscape:pageshadow="2"
     inkscape:zoom="0.98994949"
     inkscape:cx="562.29198"
     inkscape:cy="49.999987"
     inkscape:document-units="mm"
     inkscape:current-layer="layer1"
     showgrid="false"
     fit-margin-top="0"
     fit-margin-left="0"
     fit-margin-right="0"
     fit-margin-bottom="0"
     inkscape:window-width="1920"
     inkscape:window-height="1018"
     inkscape:window-x="-8"
     inkscape:window-y="-8"
     inkscape:window-maximized="1" />
  <metadata
     id="metadata7903">
    <rdf:RDF>
      <cc:Work
         rdf:about="">
        <dc:format>image/svg+xml</dc:format>
        <dc:type
           rdf:resource="http://purl.org/dc/dcmitype/StillImage" />
        <dc:title></dc:title>
      </cc:Work>
    </rdf:RDF>
  </metadata>
  <g
     inkscape:label="Layer 1"
     inkscape:groupmode="layer"
     id="layer1"
     transform="translate(8.5943849,-469.50258)">
    <g
       id="g14198"
       transform="translate(-524.52063,203.64473)"
       inkscape:export-filename="F:\SESI\Layout\RST\Novas telas\questionario_resultado-outros.png"
       inkscape:export-xdpi="90"
       inkscape:export-ydpi="90">
      <rect
         ry="3.0240023"
         rx="3.0240026"
         y="268.50366"
         x="516.32312"
         height="21.166666"
         width="72.443954"
         id="rect10226-3-9-7-6"
         style="opacity:1;vector-effect:none;fill:#e6e6e6;fill-opacity:1;stroke:#cccccc;stroke-width:0.79374999;stroke-linecap:round;stroke-linejoin:round;stroke-miterlimit:4;stroke-dasharray:none;stroke-dashoffset:0;stroke-opacity:1" />
      <g
         aria-label="Baixo risco"
         style="font-style:normal;font-variant:normal;font-weight:normal;font-stretch:normal;font-size:6.70277786px;line-height:1.25;font-family:Roboto;-inkscape-font-specification:Roboto;letter-spacing:0px;word-spacing:0px;fill:#b3b3b3;fill-opacity:1;stroke:none;stroke-width:0.26458332"
         id="text6679-3-6-4-5-9">
        <path
           d="m 536.45186,281.95772 q -0.15558,0 -0.34079,-0.007 -0.1778,-0.007 -0.363,-0.0222 -0.1778,-0.0148 -0.3556,-0.0371 -0.1778,-0.0222 -0.32597,-0.0593 v -4.9784 q 0.14817,-0.037 0.32597,-0.0593 0.1778,-0.0222 0.3556,-0.037 0.1852,-0.0148 0.363,-0.0222 0.1778,-0.007 0.33338,-0.007 0.4445,0 0.82973,0.0667 0.39264,0.0667 0.67416,0.22966 0.28893,0.15557 0.45191,0.41487 0.16298,0.25929 0.16298,0.63711 0,0.42228 -0.20002,0.69639 -0.20003,0.2667 -0.5334,0.40005 0.45191,0.13335 0.71861,0.42227 0.2667,0.28893 0.2667,0.81492 0,0.77046 -0.57045,1.16311 -0.56303,0.38523 -1.79281,0.38523 z m -0.67416,-2.43734 v 1.80763 q 0.0815,0.007 0.19262,0.0148 0.0963,0.007 0.22225,0.0148 0.13335,0 0.30374,0 0.31856,0 0.60007,-0.037 0.28893,-0.0445 0.50377,-0.14816 0.21484,-0.10372 0.34078,-0.28893 0.13335,-0.18521 0.13335,-0.46672 0,-0.25189 -0.0963,-0.42228 -0.0963,-0.1778 -0.28151,-0.28152 -0.1778,-0.10371 -0.42969,-0.14816 -0.25188,-0.0444 -0.56303,-0.0444 z m 0,-0.57785 h 0.75565 q 0.2667,0 0.50377,-0.037 0.23706,-0.037 0.40745,-0.13335 0.1778,-0.0963 0.27411,-0.25189 0.10372,-0.15557 0.10372,-0.39264 0,-0.22225 -0.10372,-0.37042 -0.10371,-0.15557 -0.28892,-0.24447 -0.1778,-0.0963 -0.42228,-0.14076 -0.24447,-0.0444 -0.51858,-0.0444 -0.27411,0 -0.42968,0.007 -0.15558,0.007 -0.28152,0.0222 z"
           style="font-style:normal;font-variant:normal;font-weight:normal;font-stretch:normal;font-size:7.4083333px;font-family:Ubuntu;-inkscape-font-specification:Ubuntu;fill:#b3b3b3;stroke-width:0.26458332"
           id="path9002"
           inkscape:connector-curvature="0" />
        <path
           d="m 541.08635,281.41691 q 0.24447,0 0.42968,-0.007 0.19262,-0.0148 0.31856,-0.0444 v -1.14829 q -0.0741,-0.037 -0.24447,-0.0593 -0.16299,-0.0296 -0.40005,-0.0296 -0.15558,0 -0.33338,0.0222 -0.17039,0.0222 -0.31856,0.0963 -0.14076,0.0667 -0.23706,0.19262 -0.0963,0.11853 -0.0963,0.31856 0,0.37042 0.23706,0.51858 0.23707,0.14076 0.64453,0.14076 z m -0.0593,-3.45228 q 0.41487,0 0.69639,0.11112 0.28892,0.10372 0.45931,0.30374 0.1778,0.19262 0.25189,0.46673 0.0741,0.2667 0.0741,0.59267 v 2.4077 q -0.0889,0.0148 -0.25188,0.0444 -0.15558,0.0222 -0.3556,0.0445 -0.20003,0.0222 -0.4371,0.037 -0.22965,0.0222 -0.45931,0.0222 -0.32597,0 -0.60008,-0.0667 -0.27411,-0.0667 -0.47413,-0.20744 -0.20003,-0.14816 -0.31115,-0.38523 -0.11113,-0.23707 -0.11113,-0.57044 0,-0.31856 0.12595,-0.54822 0.13335,-0.22966 0.3556,-0.37042 0.22225,-0.14075 0.51858,-0.20743 0.29633,-0.0667 0.6223,-0.0667 0.10372,0 0.21484,0.0148 0.11113,0.007 0.20743,0.0296 0.10372,0.0148 0.1778,0.0296 0.0741,0.0148 0.10372,0.0222 v -0.19261 q 0,-0.17039 -0.037,-0.33338 -0.037,-0.17039 -0.13335,-0.29633 -0.0963,-0.13335 -0.2667,-0.20743 -0.16298,-0.0815 -0.42968,-0.0815 -0.34079,0 -0.60008,0.0519 -0.25188,0.0444 -0.37782,0.0963 l -0.0815,-0.57044 q 0.13335,-0.0593 0.4445,-0.11113 0.31115,-0.0593 0.67416,-0.0593 z"
           style="font-style:normal;font-variant:normal;font-weight:normal;font-stretch:normal;font-size:7.4083333px;font-family:Ubuntu;-inkscape-font-specification:Ubuntu;fill:#b3b3b3;stroke-width:0.26458332"
           id="path9004"
           inkscape:connector-curvature="0" />
        <path
           d="m 544.33479,281.91327 h -0.68898 v -3.85233 h 0.68898 z m -0.34819,-4.54872 q -0.18521,0 -0.31856,-0.11853 -0.12594,-0.12594 -0.12594,-0.33338 0,-0.20743 0.12594,-0.32596 0.13335,-0.12594 0.31856,-0.12594 0.1852,0 0.31115,0.12594 0.13335,0.11853 0.13335,0.32596 0,0.20744 -0.13335,0.33338 -0.12595,0.11853 -0.31115,0.11853 z"
           style="font-style:normal;font-variant:normal;font-weight:normal;font-stretch:normal;font-size:7.4083333px;font-family:Ubuntu;-inkscape-font-specification:Ubuntu;fill:#b3b3b3;stroke-width:0.26458332"
           id="path9006"
           inkscape:connector-curvature="0" />
        <path
           d="m 547.83083,281.91327 q -0.0815,-0.16298 -0.20003,-0.36301 -0.11853,-0.20002 -0.25929,-0.40746 -0.14076,-0.21484 -0.28893,-0.42227 -0.14816,-0.20744 -0.28892,-0.39264 -0.14076,0.1852 -0.28893,0.40005 -0.14816,0.20743 -0.28892,0.42227 -0.13335,0.20743 -0.25188,0.40746 -0.11854,0.20002 -0.20003,0.3556 h -0.7112 q 0.25929,-0.50377 0.61489,-1.02235 0.36301,-0.52599 0.71861,-1.00013 l -1.27423,-1.82985 h 0.77787 l 0.91864,1.34831 0.92604,-1.34831 h 0.73342 l -1.2446,1.7854 q 0.3556,0.48155 0.72602,1.02235 0.37782,0.5334 0.63712,1.04458 z"
           style="font-style:normal;font-variant:normal;font-weight:normal;font-stretch:normal;font-size:7.4083333px;font-family:Ubuntu;-inkscape-font-specification:Ubuntu;fill:#b3b3b3;stroke-width:0.26458332"
           id="path9008"
           inkscape:connector-curvature="0" />
        <path
           d="m 552.55908,279.9871 q 0,0.45932 -0.13335,0.82974 -0.13335,0.37041 -0.37783,0.63711 -0.23706,0.2667 -0.57044,0.41487 -0.33337,0.14076 -0.72602,0.14076 -0.39264,0 -0.72601,-0.14076 -0.33338,-0.14817 -0.57785,-0.41487 -0.23707,-0.2667 -0.37042,-0.63711 -0.13335,-0.37042 -0.13335,-0.82974 0,-0.45191 0.13335,-0.82232 0.13335,-0.37783 0.37042,-0.64453 0.24447,-0.2667 0.57785,-0.40746 0.33337,-0.14816 0.72601,-0.14816 0.39265,0 0.72602,0.14816 0.33338,0.14076 0.57044,0.40746 0.24448,0.2667 0.37783,0.64453 0.13335,0.37041 0.13335,0.82232 z m -0.71861,0 q 0,-0.65193 -0.29633,-1.02976 -0.28893,-0.38523 -0.7927,-0.38523 -0.50376,0 -0.8001,0.38523 -0.28892,0.37783 -0.28892,1.02976 0,0.65194 0.28892,1.03717 0.29634,0.37782 0.8001,0.37782 0.50377,0 0.7927,-0.37782 0.29633,-0.38523 0.29633,-1.03717 z"
           style="font-style:normal;font-variant:normal;font-weight:normal;font-stretch:normal;font-size:7.4083333px;font-family:Ubuntu;-inkscape-font-specification:Ubuntu;fill:#b3b3b3;stroke-width:0.26458332"
           id="path9010"
           inkscape:connector-curvature="0" />
        <path
           d="m 556.6582,277.97944 q 0.0889,0 0.20003,0.0148 0.11853,0.007 0.22966,0.0296 0.11112,0.0148 0.20002,0.0371 0.0963,0.0148 0.14076,0.0296 l -0.11853,0.60007 q -0.0815,-0.0296 -0.27411,-0.0667 -0.18521,-0.0444 -0.48154,-0.0444 -0.19262,0 -0.38524,0.0444 -0.18521,0.037 -0.24447,0.0519 v 3.23744 h -0.68898 v -3.68935 q 0.24448,-0.0889 0.60749,-0.16298 0.363,-0.0815 0.81491,-0.0815 z"
           style="font-style:normal;font-variant:normal;font-weight:normal;font-stretch:normal;font-size:7.4083333px;font-family:Ubuntu;-inkscape-font-specification:Ubuntu;fill:#b3b3b3;stroke-width:0.26458332"
           id="path9012"
           inkscape:connector-curvature="0" />
        <path
           d="m 558.78972,281.91327 h -0.68898 v -3.85233 h 0.68898 z m -0.34819,-4.54872 q -0.18521,0 -0.31856,-0.11853 -0.12594,-0.12594 -0.12594,-0.33338 0,-0.20743 0.12594,-0.32596 0.13335,-0.12594 0.31856,-0.12594 0.18521,0 0.31115,0.12594 0.13335,0.11853 0.13335,0.32596 0,0.20744 -0.13335,0.33338 -0.12594,0.11853 -0.31115,0.11853 z"
           style="font-style:normal;font-variant:normal;font-weight:normal;font-stretch:normal;font-size:7.4083333px;font-family:Ubuntu;-inkscape-font-specification:Ubuntu;fill:#b3b3b3;stroke-width:0.26458332"
           id="path9014"
           inkscape:connector-curvature="0" />
        <path
           d="m 560.87817,281.41691 q 0.42228,0 0.6223,-0.11112 0.20744,-0.11113 0.20744,-0.3556 0,-0.25189 -0.20003,-0.40005 -0.20002,-0.14817 -0.65934,-0.33338 -0.22225,-0.0889 -0.42968,-0.1778 -0.20003,-0.0963 -0.34819,-0.22225 -0.14817,-0.12594 -0.23707,-0.30374 -0.0889,-0.1778 -0.0889,-0.43709 0,-0.51118 0.37782,-0.80751 0.37783,-0.30374 1.02976,-0.30374 0.16299,0 0.32597,0.0222 0.16298,0.0148 0.30374,0.0444 0.14076,0.0222 0.24448,0.0519 0.11112,0.0296 0.17039,0.0519 l -0.12594,0.59267 q -0.11113,-0.0593 -0.3482,-0.11854 -0.23706,-0.0667 -0.57044,-0.0667 -0.28892,0 -0.50376,0.11853 -0.21485,0.11113 -0.21485,0.3556 0,0.12594 0.0444,0.22225 0.0519,0.0963 0.14817,0.1778 0.10372,0.0741 0.25188,0.14076 0.14817,0.0667 0.3556,0.14076 0.27411,0.10371 0.48895,0.20743 0.21485,0.0963 0.36301,0.22966 0.15558,0.13335 0.23707,0.32597 0.0815,0.1852 0.0815,0.45931 0,0.5334 -0.40005,0.80751 -0.39264,0.27411 -1.12607,0.27411 -0.51117,0 -0.8001,-0.0889 -0.28892,-0.0815 -0.39264,-0.12594 l 0.12594,-0.59267 q 0.11854,0.0444 0.37783,0.13335 0.25929,0.0889 0.68897,0.0889 z"
           style="font-style:normal;font-variant:normal;font-weight:normal;font-stretch:normal;font-size:7.4083333px;font-family:Ubuntu;-inkscape-font-specification:Ubuntu;fill:#b3b3b3;stroke-width:0.26458332"
           id="path9016"
           inkscape:connector-curvature="0" />
        <path
           d="m 564.95507,282.00217 q -0.46672,0 -0.82232,-0.14817 -0.34819,-0.14816 -0.59267,-0.41486 -0.23707,-0.2667 -0.3556,-0.62971 -0.11853,-0.37042 -0.11853,-0.81492 0,-0.4445 0.12594,-0.81492 0.13335,-0.37041 0.37042,-0.63711 0.23706,-0.27411 0.57785,-0.42228 0.34819,-0.15557 0.77046,-0.15557 0.25929,0 0.51859,0.0444 0.25929,0.0445 0.49635,0.14076 l -0.15557,0.58525 q -0.15558,-0.0741 -0.36301,-0.11853 -0.20002,-0.0444 -0.42968,-0.0444 -0.57785,0 -0.889,0.36301 -0.30374,0.36301 -0.30374,1.05939 0,0.31115 0.0667,0.57044 0.0741,0.25929 0.22225,0.4445 0.15558,0.18521 0.39264,0.28893 0.23707,0.0963 0.57785,0.0963 0.27411,0 0.49636,-0.0519 0.22225,-0.0519 0.34819,-0.11113 l 0.0963,0.57785 q -0.0593,0.037 -0.17039,0.0741 -0.11113,0.0296 -0.25188,0.0519 -0.14076,0.0296 -0.30375,0.0444 -0.15557,0.0222 -0.30374,0.0222 z"
           style="font-style:normal;font-variant:normal;font-weight:normal;font-stretch:normal;font-size:7.4083333px;font-family:Ubuntu;-inkscape-font-specification:Ubuntu;fill:#b3b3b3;stroke-width:0.26458332"
           id="path9018"
           inkscape:connector-curvature="0" />
        <path
           d="m 570.02365,279.9871 q 0,0.45932 -0.13335,0.82974 -0.13335,0.37041 -0.37783,0.63711 -0.23707,0.2667 -0.57044,0.41487 -0.33338,0.14076 -0.72602,0.14076 -0.39264,0 -0.72601,-0.14076 -0.33338,-0.14817 -0.57785,-0.41487 -0.23707,-0.2667 -0.37042,-0.63711 -0.13335,-0.37042 -0.13335,-0.82974 0,-0.45191 0.13335,-0.82232 0.13335,-0.37783 0.37042,-0.64453 0.24447,-0.2667 0.57785,-0.40746 0.33337,-0.14816 0.72601,-0.14816 0.39264,0 0.72602,0.14816 0.33337,0.14076 0.57044,0.40746 0.24448,0.2667 0.37783,0.64453 0.13335,0.37041 0.13335,0.82232 z m -0.71861,0 q 0,-0.65193 -0.29634,-1.02976 -0.28892,-0.38523 -0.79269,-0.38523 -0.50376,0 -0.8001,0.38523 -0.28892,0.37783 -0.28892,1.02976 0,0.65194 0.28892,1.03717 0.29634,0.37782 0.8001,0.37782 0.50377,0 0.79269,-0.37782 0.29634,-0.38523 0.29634,-1.03717 z"
           style="font-style:normal;font-variant:normal;font-weight:normal;font-stretch:normal;font-size:7.4083333px;font-family:Ubuntu;-inkscape-font-specification:Ubuntu;fill:#b3b3b3;stroke-width:0.26458332"
           id="path9020"
           inkscape:connector-curvature="0" />
      </g>
      <rect
         transform="scale(-1,1)"
         ry="0"
         rx="0"
         y="268.50366"
         x="-658.82971"
         height="21.166666"
         width="72.443954"
         id="rect10226-3-9-2-5-8-0"
         style="opacity:1;vector-effect:none;fill:#e6e6e6;fill-opacity:1;stroke:#cccccc;stroke-width:0.79374999;stroke-linecap:round;stroke-linejoin:round;stroke-miterlimit:4;stroke-dasharray:none;stroke-dashoffset:0;stroke-opacity:1" />
      <g
         aria-label="Médio risco"
         style="font-style:normal;font-variant:normal;font-weight:normal;font-stretch:normal;font-size:6.70277786px;line-height:1.25;font-family:Roboto;-inkscape-font-specification:Roboto;letter-spacing:0px;word-spacing:0px;fill:#b3b3b3;fill-opacity:1;stroke:none;stroke-width:0.26458332"
         id="text6679-3-6-4-3-1-1">
        <path
           d="m 606.15064,281.20207 q -0.0741,-0.1778 -0.20002,-0.45191 -0.11854,-0.27411 -0.25929,-0.59267 -0.14076,-0.31855 -0.30375,-0.65193 -0.15557,-0.34078 -0.29633,-0.63712 -0.14076,-0.30374 -0.2667,-0.5408 -0.11853,-0.23707 -0.19262,-0.36301 -0.0815,0.87418 -0.13335,1.89653 -0.0518,1.01494 -0.0889,2.05211 h -0.70379 q 0.0296,-0.66675 0.0667,-1.34091 0.037,-0.68157 0.0815,-1.3335 0.0519,-0.65934 0.10372,-1.28164 0.0593,-0.6223 0.12594,-1.17793 h 0.62971 q 0.20002,0.32597 0.42968,0.77047 0.22966,0.4445 0.45932,0.93345 0.22965,0.48154 0.4445,0.97049 0.21484,0.48154 0.39264,0.88159 0.1778,-0.40005 0.39264,-0.88159 0.21484,-0.48895 0.4445,-0.97049 0.22966,-0.48895 0.45932,-0.93345 0.22965,-0.4445 0.42968,-0.77047 h 0.62971 q 0.25188,2.4818 0.37782,5.13398 h -0.70379 q -0.037,-1.03717 -0.0889,-2.05211 -0.0519,-1.02235 -0.13335,-1.89653 -0.0741,0.12594 -0.20002,0.36301 -0.11854,0.23706 -0.2593,0.5408 -0.14075,0.29634 -0.30374,0.63712 -0.15557,0.33338 -0.29633,0.65193 -0.14076,0.31856 -0.2667,0.59267 -0.11853,0.27411 -0.19262,0.45191 z"
           style="font-style:normal;font-variant:normal;font-weight:normal;font-stretch:normal;font-size:7.4083333px;font-family:Ubuntu;-inkscape-font-specification:Ubuntu;fill:#b3b3b3;stroke-width:0.26458332"
           id="path8981"
           inkscape:connector-curvature="0" />
        <path
           d="m 610.04071,279.99451 q 0,-0.51117 0.14817,-0.889 0.14816,-0.38523 0.39264,-0.63712 0.24447,-0.25188 0.56303,-0.37782 0.31856,-0.12594 0.65194,-0.12594 0.77787,0 1.19274,0.48895 0.41486,0.48154 0.41486,1.47426 0,0.0444 0,0.11853 0,0.0667 -0.007,0.12594 h -2.63737 q 0.0444,0.60008 0.34819,0.91123 0.30374,0.31115 0.94827,0.31115 0.36301,0 0.60748,-0.0593 0.25188,-0.0667 0.37783,-0.12594 l 0.0963,0.57785 q -0.12594,0.0667 -0.4445,0.14076 -0.31115,0.0741 -0.7112,0.0741 -0.50376,0 -0.87418,-0.14817 -0.36301,-0.15557 -0.60007,-0.42227 -0.23707,-0.2667 -0.3556,-0.62971 -0.11113,-0.37042 -0.11113,-0.80751 z m 2.64478,-0.37782 q 0.007,-0.46673 -0.23707,-0.76306 -0.23707,-0.30374 -0.65934,-0.30374 -0.23707,0 -0.42228,0.0963 -0.1778,0.0889 -0.30374,0.23707 -0.12594,0.14817 -0.20002,0.34078 -0.0667,0.19262 -0.0889,0.39265 z m -0.007,-3.0152 -1.04458,1.01495 -0.34819,-0.31115 0.94827,-1.14089 z"
           style="font-style:normal;font-variant:normal;font-weight:normal;font-stretch:normal;font-size:7.4083333px;font-family:Ubuntu;-inkscape-font-specification:Ubuntu;fill:#b3b3b3;stroke-width:0.26458332"
           id="path8983"
           inkscape:connector-curvature="0" />
        <path
           d="m 616.883,278.87585 q -0.12594,-0.10371 -0.36301,-0.20002 -0.23706,-0.0963 -0.51858,-0.0963 -0.29633,0 -0.51117,0.11112 -0.20744,0.10372 -0.34079,0.29634 -0.13335,0.18521 -0.19261,0.4445 -0.0593,0.25929 -0.0593,0.55562 0,0.67416 0.33337,1.04458 0.33338,0.36301 0.889,0.36301 0.28152,0 0.46673,-0.0222 0.19262,-0.0296 0.29633,-0.0593 z m 0,-2.59291 0.68898,-0.11854 v 5.63774 q -0.23707,0.0667 -0.60749,0.13335 -0.37041,0.0667 -0.85195,0.0667 -0.4445,0 -0.8001,-0.14076 -0.3556,-0.14076 -0.60749,-0.40005 -0.25188,-0.25929 -0.39264,-0.62971 -0.13335,-0.37782 -0.13335,-0.84455 0,-0.4445 0.11113,-0.81491 0.11853,-0.37042 0.34078,-0.63712 0.22225,-0.2667 0.54081,-0.41487 0.32596,-0.14816 0.74083,-0.14816 0.33338,0 0.58526,0.0889 0.25929,0.0889 0.38523,0.17039 z"
           style="font-style:normal;font-variant:normal;font-weight:normal;font-stretch:normal;font-size:7.4083333px;font-family:Ubuntu;-inkscape-font-specification:Ubuntu;fill:#b3b3b3;stroke-width:0.26458332"
           id="path8985"
           inkscape:connector-curvature="0" />
        <path
           d="m 619.45254,281.91327 h -0.68898 v -3.85233 h 0.68898 z m -0.3482,-4.54872 q -0.1852,0 -0.31855,-0.11853 -0.12595,-0.12594 -0.12595,-0.33338 0,-0.20743 0.12595,-0.32596 0.13335,-0.12594 0.31855,-0.12594 0.18521,0 0.31115,0.12594 0.13335,0.11853 0.13335,0.32596 0,0.20744 -0.13335,0.33338 -0.12594,0.11853 -0.31115,0.11853 z"
           style="font-style:normal;font-variant:normal;font-weight:normal;font-stretch:normal;font-size:7.4083333px;font-family:Ubuntu;-inkscape-font-specification:Ubuntu;fill:#b3b3b3;stroke-width:0.26458332"
           id="path8987"
           inkscape:connector-curvature="0" />
        <path
           d="m 624.04501,279.9871 q 0,0.45932 -0.13335,0.82974 -0.13335,0.37041 -0.37783,0.63711 -0.23706,0.2667 -0.57044,0.41487 -0.33337,0.14076 -0.72602,0.14076 -0.39264,0 -0.72601,-0.14076 -0.33338,-0.14817 -0.57785,-0.41487 -0.23707,-0.2667 -0.37042,-0.63711 -0.13335,-0.37042 -0.13335,-0.82974 0,-0.45191 0.13335,-0.82232 0.13335,-0.37783 0.37042,-0.64453 0.24447,-0.2667 0.57785,-0.40746 0.33337,-0.14816 0.72601,-0.14816 0.39265,0 0.72602,0.14816 0.33338,0.14076 0.57044,0.40746 0.24448,0.2667 0.37783,0.64453 0.13335,0.37041 0.13335,0.82232 z m -0.71861,0 q 0,-0.65193 -0.29633,-1.02976 -0.28893,-0.38523 -0.7927,-0.38523 -0.50376,0 -0.8001,0.38523 -0.28892,0.37783 -0.28892,1.02976 0,0.65194 0.28892,1.03717 0.29634,0.37782 0.8001,0.37782 0.50377,0 0.7927,-0.37782 0.29633,-0.38523 0.29633,-1.03717 z"
           style="font-style:normal;font-variant:normal;font-weight:normal;font-stretch:normal;font-size:7.4083333px;font-family:Ubuntu;-inkscape-font-specification:Ubuntu;fill:#b3b3b3;stroke-width:0.26458332"
           id="path8989"
           inkscape:connector-curvature="0" />
        <path
           d="m 628.14413,277.97944 q 0.0889,0 0.20003,0.0148 0.11853,0.007 0.22965,0.0296 0.11113,0.0148 0.20003,0.0371 0.0963,0.0148 0.14076,0.0296 l -0.11854,0.60007 q -0.0815,-0.0296 -0.2741,-0.0667 -0.18521,-0.0444 -0.48155,-0.0444 -0.19261,0 -0.38523,0.0444 -0.18521,0.037 -0.24447,0.0519 v 3.23744 h -0.68898 v -3.68935 q 0.24448,-0.0889 0.60748,-0.16298 0.36301,-0.0815 0.81492,-0.0815 z"
           style="font-style:normal;font-variant:normal;font-weight:normal;font-stretch:normal;font-size:7.4083333px;font-family:Ubuntu;-inkscape-font-specification:Ubuntu;fill:#b3b3b3;stroke-width:0.26458332"
           id="path8991"
           inkscape:connector-curvature="0" />
        <path
           d="m 630.27565,281.91327 h -0.68898 v -3.85233 h 0.68898 z m -0.34819,-4.54872 q -0.18521,0 -0.31856,-0.11853 -0.12594,-0.12594 -0.12594,-0.33338 0,-0.20743 0.12594,-0.32596 0.13335,-0.12594 0.31856,-0.12594 0.1852,0 0.31115,0.12594 0.13335,0.11853 0.13335,0.32596 0,0.20744 -0.13335,0.33338 -0.12595,0.11853 -0.31115,0.11853 z"
           style="font-style:normal;font-variant:normal;font-weight:normal;font-stretch:normal;font-size:7.4083333px;font-family:Ubuntu;-inkscape-font-specification:Ubuntu;fill:#b3b3b3;stroke-width:0.26458332"
           id="path8993"
           inkscape:connector-curvature="0" />
        <path
           d="m 632.3641,281.41691 q 0.42228,0 0.6223,-0.11112 0.20744,-0.11113 0.20744,-0.3556 0,-0.25189 -0.20003,-0.40005 -0.20002,-0.14817 -0.65934,-0.33338 -0.22225,-0.0889 -0.42968,-0.1778 -0.20003,-0.0963 -0.34819,-0.22225 -0.14817,-0.12594 -0.23707,-0.30374 -0.0889,-0.1778 -0.0889,-0.43709 0,-0.51118 0.37782,-0.80751 0.37783,-0.30374 1.02976,-0.30374 0.16299,0 0.32597,0.0222 0.16298,0.0148 0.30374,0.0444 0.14076,0.0222 0.24448,0.0519 0.11112,0.0296 0.17039,0.0519 l -0.12594,0.59267 q -0.11113,-0.0593 -0.3482,-0.11854 -0.23706,-0.0667 -0.57044,-0.0667 -0.28892,0 -0.50376,0.11853 -0.21485,0.11113 -0.21485,0.3556 0,0.12594 0.0445,0.22225 0.0519,0.0963 0.14817,0.1778 0.10372,0.0741 0.25188,0.14076 0.14817,0.0667 0.3556,0.14076 0.27411,0.10371 0.48895,0.20743 0.21485,0.0963 0.36301,0.22966 0.15558,0.13335 0.23707,0.32597 0.0815,0.1852 0.0815,0.45931 0,0.5334 -0.40005,0.80751 -0.39264,0.27411 -1.12607,0.27411 -0.51117,0 -0.8001,-0.0889 -0.28892,-0.0815 -0.39264,-0.12594 l 0.12594,-0.59267 q 0.11854,0.0444 0.37783,0.13335 0.25929,0.0889 0.68897,0.0889 z"
           style="font-style:normal;font-variant:normal;font-weight:normal;font-stretch:normal;font-size:7.4083333px;font-family:Ubuntu;-inkscape-font-specification:Ubuntu;fill:#b3b3b3;stroke-width:0.26458332"
           id="path8995"
           inkscape:connector-curvature="0" />
        <path
           d="m 636.441,282.00217 q -0.46672,0 -0.82232,-0.14817 -0.3482,-0.14816 -0.59267,-0.41486 -0.23707,-0.2667 -0.3556,-0.62971 -0.11853,-0.37042 -0.11853,-0.81492 0,-0.4445 0.12594,-0.81492 0.13335,-0.37041 0.37041,-0.63711 0.23707,-0.27411 0.57785,-0.42228 0.3482,-0.15557 0.77047,-0.15557 0.25929,0 0.51858,0.0444 0.2593,0.0445 0.49636,0.14076 l -0.15557,0.58525 q -0.15558,-0.0741 -0.36301,-0.11853 -0.20003,-0.0444 -0.42968,-0.0444 -0.57785,0 -0.889,0.36301 -0.30375,0.36301 -0.30375,1.05939 0,0.31115 0.0667,0.57044 0.0741,0.25929 0.22225,0.4445 0.15557,0.18521 0.39264,0.28893 0.23707,0.0963 0.57785,0.0963 0.27411,0 0.49636,-0.0519 0.22225,-0.0519 0.34819,-0.11113 l 0.0963,0.57785 q -0.0593,0.037 -0.17039,0.0741 -0.11113,0.0296 -0.25189,0.0519 -0.14075,0.0296 -0.30374,0.0444 -0.15557,0.0222 -0.30374,0.0222 z"
           style="font-style:normal;font-variant:normal;font-weight:normal;font-stretch:normal;font-size:7.4083333px;font-family:Ubuntu;-inkscape-font-specification:Ubuntu;fill:#b3b3b3;stroke-width:0.26458332"
           id="path8997"
           inkscape:connector-curvature="0" />
        <path
           d="m 641.50957,279.9871 q 0,0.45932 -0.13335,0.82974 -0.13335,0.37041 -0.37782,0.63711 -0.23707,0.2667 -0.57044,0.41487 -0.33338,0.14076 -0.72602,0.14076 -0.39264,0 -0.72602,-0.14076 -0.33337,-0.14817 -0.57785,-0.41487 -0.23706,-0.2667 -0.37041,-0.63711 -0.13335,-0.37042 -0.13335,-0.82974 0,-0.45191 0.13335,-0.82232 0.13335,-0.37783 0.37041,-0.64453 0.24448,-0.2667 0.57785,-0.40746 0.33338,-0.14816 0.72602,-0.14816 0.39264,0 0.72602,0.14816 0.33337,0.14076 0.57044,0.40746 0.24447,0.2667 0.37782,0.64453 0.13335,0.37041 0.13335,0.82232 z m -0.7186,0 q 0,-0.65193 -0.29634,-1.02976 -0.28892,-0.38523 -0.79269,-0.38523 -0.50377,0 -0.8001,0.38523 -0.28892,0.37783 -0.28892,1.02976 0,0.65194 0.28892,1.03717 0.29633,0.37782 0.8001,0.37782 0.50377,0 0.79269,-0.37782 0.29634,-0.38523 0.29634,-1.03717 z"
           style="font-style:normal;font-variant:normal;font-weight:normal;font-stretch:normal;font-size:7.4083333px;font-family:Ubuntu;-inkscape-font-specification:Ubuntu;fill:#b3b3b3;stroke-width:0.26458332"
           id="path8999"
           inkscape:connector-curvature="0" />
      </g>
      <rect
         transform="scale(-1,1)"
         ry="0"
         rx="0"
         y="268.50366"
         x="-731.27368"
         height="21.166666"
         width="72.443954"
         id="rect10226-3-9-2-5-8-0-0"
         style="opacity:1;vector-effect:none;fill:#e6e6e6;fill-opacity:1;stroke:#cccccc;stroke-width:0.79374999;stroke-linecap:round;stroke-linejoin:round;stroke-miterlimit:4;stroke-dasharray:none;stroke-dashoffset:0;stroke-opacity:1" />
      <rect
         transform="scale(-1,1)"
         ry="3.0240021"
         rx="3.0240023"
         y="265.85785"
         x="-813.47241"
         height="26.458334"
         width="90.583748"
         id="rect10226-3-9-2-54-9"
         style="opacity:1;vector-effect:none;fill:#c83737;fill-opacity:1;stroke:none;stroke-width:0.79374999;stroke-linecap:round;stroke-linejoin:round;stroke-miterlimit:4;stroke-dasharray:none;stroke-dashoffset:0;stroke-opacity:1" />
      <g
         aria-label="Alto risco"
         style="font-style:normal;font-variant:normal;font-weight:normal;font-stretch:normal;font-size:8.46666622px;line-height:1.25;font-family:Roboto;-inkscape-font-specification:Roboto;letter-spacing:0px;word-spacing:0px;fill:#ffffff;fill-opacity:1;stroke:none;stroke-width:0.26458332"
         id="text6679-3-6-43-0">
        <path
           d="m 754.9275,280.98993 q -0.14394,-0.381 -0.27094,-0.74507 -0.127,-0.37253 -0.26246,-0.75353 h -2.65854 l -0.5334,1.4986 h -0.85513 q 0.33867,-0.93133 0.635,-1.71873 0.29633,-0.79587 0.57573,-1.50707 0.28787,-0.7112 0.56727,-1.35467 0.2794,-0.65193 0.5842,-1.28693 h 0.75353 q 0.3048,0.635 0.5842,1.28693 0.2794,0.64347 0.5588,1.35467 0.28787,0.7112 0.5842,1.50707 0.29634,0.7874 0.635,1.71873 z m -0.77047,-2.17593 q -0.27093,-0.7366 -0.54187,-1.4224 -0.26246,-0.69427 -0.55033,-1.32927 -0.29633,0.635 -0.56727,1.32927 -0.26246,0.6858 -0.52493,1.4224 z"
           style="font-style:normal;font-variant:normal;font-weight:normal;font-stretch:normal;font-size:8.46666622px;font-family:Ubuntu;-inkscape-font-specification:Ubuntu;fill:#ffffff;stroke-width:0.26458332"
           id="path8943"
           inkscape:connector-curvature="0" />
        <path
           d="m 757.88329,281.0746 q -0.72813,-0.0169 -1.03293,-0.31327 -0.3048,-0.29633 -0.3048,-0.92287 v -5.2832 l 0.7874,-0.13546 v 5.29166 q 0,0.19474 0.0339,0.32174 0.0339,0.127 0.11007,0.2032 0.0762,0.0762 0.2032,0.11853 0.127,0.0339 0.31327,0.0593 z"
           style="font-style:normal;font-variant:normal;font-weight:normal;font-stretch:normal;font-size:8.46666622px;font-family:Ubuntu;-inkscape-font-specification:Ubuntu;fill:#ffffff;stroke-width:0.26458332"
           id="path8945"
           inkscape:connector-curvature="0" />
        <path
           d="m 759.61419,276.58726 h 1.66794 v 0.6604 h -1.66794 v 2.032 q 0,0.3302 0.0508,0.55034 0.0508,0.21166 0.1524,0.33866 0.1016,0.11854 0.254,0.16934 0.1524,0.0508 0.3556,0.0508 0.3556,0 0.56727,-0.0762 0.22013,-0.0847 0.3048,-0.11854 l 0.1524,0.65194 q -0.11853,0.0593 -0.41487,0.14393 -0.29633,0.0931 -0.67733,0.0931 -0.44873,0 -0.74507,-0.11006 -0.28786,-0.11854 -0.46566,-0.34714 -0.1778,-0.2286 -0.254,-0.5588 -0.0677,-0.33866 -0.0677,-0.77893 v -3.92853 l 0.7874,-0.13547 z"
           style="font-style:normal;font-variant:normal;font-weight:normal;font-stretch:normal;font-size:8.46666622px;font-family:Ubuntu;-inkscape-font-specification:Ubuntu;fill:#ffffff;stroke-width:0.26458332"
           id="path8947"
           inkscape:connector-curvature="0" />
        <path
           d="m 766.05455,278.7886 q 0,0.52493 -0.1524,0.94826 -0.1524,0.42334 -0.4318,0.72814 -0.27093,0.3048 -0.65193,0.47413 -0.381,0.16087 -0.82974,0.16087 -0.44873,0 -0.82973,-0.16087 -0.381,-0.16933 -0.6604,-0.47413 -0.27093,-0.3048 -0.42333,-0.72814 -0.1524,-0.42333 -0.1524,-0.94826 0,-0.51647 0.1524,-0.9398 0.1524,-0.4318 0.42333,-0.7366 0.2794,-0.3048 0.6604,-0.46567 0.381,-0.16933 0.82973,-0.16933 0.44874,0 0.82974,0.16933 0.381,0.16087 0.65193,0.46567 0.2794,0.3048 0.4318,0.7366 0.1524,0.42333 0.1524,0.9398 z m -0.82127,0 q 0,-0.74507 -0.33866,-1.17687 -0.3302,-0.44027 -0.90594,-0.44027 -0.57573,0 -0.9144,0.44027 -0.3302,0.4318 -0.3302,1.17687 0,0.74506 0.3302,1.18533 0.33867,0.4318 0.9144,0.4318 0.57574,0 0.90594,-0.4318 0.33866,-0.44027 0.33866,-1.18533 z"
           style="font-style:normal;font-variant:normal;font-weight:normal;font-stretch:normal;font-size:8.46666622px;font-family:Ubuntu;-inkscape-font-specification:Ubuntu;fill:#ffffff;stroke-width:0.26458332"
           id="path8949"
           inkscape:connector-curvature="0" />
        <path
           d="m 770.73926,276.49413 q 0.1016,0 0.2286,0.0169 0.13547,0.008 0.26247,0.0339 0.127,0.0169 0.2286,0.0423 0.11006,0.0169 0.16086,0.0339 l -0.13546,0.6858 q -0.0931,-0.0339 -0.31327,-0.0762 -0.21167,-0.0508 -0.55033,-0.0508 -0.22014,0 -0.44027,0.0508 -0.21167,0.0423 -0.2794,0.0593 v 3.69993 h -0.7874 v -4.2164 q 0.2794,-0.1016 0.69427,-0.18627 0.41486,-0.0931 0.93133,-0.0931 z"
           style="font-style:normal;font-variant:normal;font-weight:normal;font-stretch:normal;font-size:8.46666622px;font-family:Ubuntu;-inkscape-font-specification:Ubuntu;fill:#ffffff;stroke-width:0.26458332"
           id="path8951"
           inkscape:connector-curvature="0" />
        <path
           d="m 773.17528,280.98993 h -0.7874 v -4.40267 h 0.7874 z m -0.39793,-5.19853 q -0.21167,0 -0.36407,-0.13547 -0.14393,-0.14393 -0.14393,-0.381 0,-0.23707 0.14393,-0.37253 0.1524,-0.14394 0.36407,-0.14394 0.21166,0 0.3556,0.14394 0.1524,0.13546 0.1524,0.37253 0,0.23707 -0.1524,0.381 -0.14394,0.13547 -0.3556,0.13547 z"
           style="font-style:normal;font-variant:normal;font-weight:normal;font-stretch:normal;font-size:8.46666622px;font-family:Ubuntu;-inkscape-font-specification:Ubuntu;fill:#ffffff;stroke-width:0.26458332"
           id="path8953"
           inkscape:connector-curvature="0" />
        <path
           d="m 775.56208,280.42266 q 0.4826,0 0.7112,-0.127 0.23707,-0.127 0.23707,-0.4064 0,-0.28786 -0.2286,-0.4572 -0.2286,-0.16933 -0.75353,-0.381 -0.254,-0.1016 -0.49107,-0.2032 -0.2286,-0.11006 -0.39793,-0.254 -0.16934,-0.14393 -0.27094,-0.34713 -0.1016,-0.2032 -0.1016,-0.49953 0,-0.5842 0.4318,-0.92287 0.4318,-0.34713 1.17687,-0.34713 0.18627,0 0.37253,0.0254 0.18627,0.0169 0.34714,0.0508 0.16086,0.0254 0.2794,0.0593 0.127,0.0339 0.19473,0.0593 l -0.14393,0.67733 q -0.127,-0.0677 -0.39794,-0.13546 -0.27093,-0.0762 -0.65193,-0.0762 -0.3302,0 -0.57573,0.13546 -0.24554,0.127 -0.24554,0.4064 0,0.14394 0.0508,0.254 0.0593,0.11007 0.16934,0.2032 0.11853,0.0847 0.28786,0.16087 0.16934,0.0762 0.4064,0.16087 0.31327,0.11853 0.5588,0.23706 0.24554,0.11007 0.41487,0.26247 0.1778,0.1524 0.27093,0.37253 0.0931,0.21167 0.0931,0.52494 0,0.6096 -0.4572,0.92286 -0.44874,0.31327 -1.28694,0.31327 -0.5842,0 -0.9144,-0.1016 -0.3302,-0.0931 -0.44873,-0.14393 l 0.14393,-0.67734 q 0.13547,0.0508 0.4318,0.1524 0.29634,0.1016 0.7874,0.1016 z"
           style="font-style:normal;font-variant:normal;font-weight:normal;font-stretch:normal;font-size:8.46666622px;font-family:Ubuntu;-inkscape-font-specification:Ubuntu;fill:#ffffff;stroke-width:0.26458332"
           id="path8955"
           inkscape:connector-curvature="0" />
        <path
           d="m 780.2214,281.09153 q -0.5334,0 -0.9398,-0.16933 -0.39794,-0.16934 -0.67734,-0.47414 -0.27093,-0.3048 -0.4064,-0.71966 -0.13546,-0.42334 -0.13546,-0.93134 0,-0.508 0.14393,-0.93133 0.1524,-0.42333 0.42333,-0.72813 0.27094,-0.31327 0.6604,-0.4826 0.39794,-0.1778 0.88054,-0.1778 0.29633,0 0.59266,0.0508 0.29634,0.0508 0.56727,0.16086 l -0.1778,0.66887 q -0.1778,-0.0847 -0.41487,-0.13547 -0.2286,-0.0508 -0.49106,-0.0508 -0.6604,0 -1.016,0.41487 -0.34714,0.41487 -0.34714,1.21073 0,0.3556 0.0762,0.65194 0.0847,0.29633 0.254,0.508 0.1778,0.21166 0.44874,0.3302 0.27093,0.11006 0.6604,0.11006 0.31326,0 0.56726,-0.0593 0.254,-0.0593 0.39794,-0.127 l 0.11006,0.6604 q -0.0677,0.0423 -0.19473,0.0847 -0.127,0.0339 -0.28787,0.0593 -0.16086,0.0339 -0.34713,0.0508 -0.1778,0.0254 -0.34713,0.0254 z"
           style="font-style:normal;font-variant:normal;font-weight:normal;font-stretch:normal;font-size:8.46666622px;font-family:Ubuntu;-inkscape-font-specification:Ubuntu;fill:#ffffff;stroke-width:0.26458332"
           id="path8957"
           inkscape:connector-curvature="0" />
        <path
           d="m 786.01405,278.7886 q 0,0.52493 -0.1524,0.94826 -0.1524,0.42334 -0.4318,0.72814 -0.27093,0.3048 -0.65193,0.47413 -0.381,0.16087 -0.82973,0.16087 -0.44874,0 -0.82974,-0.16087 -0.381,-0.16933 -0.6604,-0.47413 -0.27093,-0.3048 -0.42333,-0.72814 -0.1524,-0.42333 -0.1524,-0.94826 0,-0.51647 0.1524,-0.9398 0.1524,-0.4318 0.42333,-0.7366 0.2794,-0.3048 0.6604,-0.46567 0.381,-0.16933 0.82974,-0.16933 0.44873,0 0.82973,0.16933 0.381,0.16087 0.65193,0.46567 0.2794,0.3048 0.4318,0.7366 0.1524,0.42333 0.1524,0.9398 z m -0.82126,0 q 0,-0.74507 -0.33867,-1.17687 -0.3302,-0.44027 -0.90593,-0.44027 -0.57574,0 -0.9144,0.44027 -0.3302,0.4318 -0.3302,1.17687 0,0.74506 0.3302,1.18533 0.33866,0.4318 0.9144,0.4318 0.57573,0 0.90593,-0.4318 0.33867,-0.44027 0.33867,-1.18533 z"
           style="font-style:normal;font-variant:normal;font-weight:normal;font-stretch:normal;font-size:8.46666622px;font-family:Ubuntu;-inkscape-font-specification:Ubuntu;fill:#ffffff;stroke-width:0.26458332"
           id="path8959"
           inkscape:connector-curvature="0" />
      </g>
      <g
         aria-label="Médio alto"
         style="font-style:normal;font-variant:normal;font-weight:normal;font-stretch:normal;font-size:6.70277786px;line-height:1.25;font-family:Roboto;-inkscape-font-specification:Roboto;letter-spacing:0px;word-spacing:0px;fill:#b3b3b3;fill-opacity:1;stroke:none;stroke-width:0.26458332"
         id="text6679-3-6-4-3-1-1-9">
        <path
           d="m 678.59461,281.20207 q -0.0741,-0.1778 -0.20002,-0.45191 -0.11854,-0.27411 -0.25929,-0.59267 -0.14076,-0.31855 -0.30375,-0.65193 -0.15557,-0.34078 -0.29633,-0.63712 -0.14076,-0.30374 -0.2667,-0.5408 -0.11853,-0.23707 -0.19262,-0.36301 -0.0815,0.87418 -0.13335,1.89653 -0.0518,1.01494 -0.0889,2.05211 h -0.70379 q 0.0296,-0.66675 0.0667,-1.34091 0.037,-0.68157 0.0815,-1.3335 0.0519,-0.65934 0.10372,-1.28164 0.0593,-0.6223 0.12594,-1.17793 h 0.62971 q 0.20002,0.32597 0.42968,0.77047 0.22966,0.4445 0.45932,0.93345 0.22965,0.48154 0.4445,0.97049 0.21484,0.48154 0.39264,0.88159 0.1778,-0.40005 0.39264,-0.88159 0.21484,-0.48895 0.4445,-0.97049 0.22966,-0.48895 0.45932,-0.93345 0.22965,-0.4445 0.42968,-0.77047 h 0.62971 q 0.25188,2.4818 0.37782,5.13398 h -0.70379 q -0.037,-1.03717 -0.0889,-2.05211 -0.0519,-1.02235 -0.13335,-1.89653 -0.0741,0.12594 -0.20002,0.36301 -0.11854,0.23706 -0.2593,0.5408 -0.14075,0.29634 -0.30374,0.63712 -0.15557,0.33338 -0.29633,0.65193 -0.14076,0.31856 -0.2667,0.59267 -0.11853,0.27411 -0.19262,0.45191 z"
           style="font-style:normal;font-variant:normal;font-weight:normal;font-stretch:normal;font-size:7.4083333px;font-family:Ubuntu;-inkscape-font-specification:Ubuntu;fill:#b3b3b3;stroke-width:0.26458332"
           id="path8962"
           inkscape:connector-curvature="0" />
        <path
           d="m 682.48468,279.99451 q 0,-0.51117 0.14817,-0.889 0.14816,-0.38523 0.39264,-0.63712 0.24447,-0.25188 0.56303,-0.37782 0.31856,-0.12594 0.65194,-0.12594 0.77787,0 1.19274,0.48895 0.41486,0.48154 0.41486,1.47426 0,0.0444 0,0.11853 0,0.0667 -0.007,0.12594 h -2.63737 q 0.0444,0.60008 0.34819,0.91123 0.30374,0.31115 0.94827,0.31115 0.36301,0 0.60748,-0.0593 0.25188,-0.0667 0.37783,-0.12594 l 0.0963,0.57785 q -0.12594,0.0667 -0.4445,0.14076 -0.31115,0.0741 -0.7112,0.0741 -0.50376,0 -0.87418,-0.14817 -0.36301,-0.15557 -0.60007,-0.42227 -0.23707,-0.2667 -0.3556,-0.62971 -0.11113,-0.37042 -0.11113,-0.80751 z m 2.64478,-0.37782 q 0.007,-0.46673 -0.23707,-0.76306 -0.23707,-0.30374 -0.65934,-0.30374 -0.23707,0 -0.42228,0.0963 -0.1778,0.0889 -0.30374,0.23707 -0.12594,0.14817 -0.20002,0.34078 -0.0667,0.19262 -0.0889,0.39265 z m -0.007,-3.0152 -1.04458,1.01495 -0.34819,-0.31115 0.94827,-1.14089 z"
           style="font-style:normal;font-variant:normal;font-weight:normal;font-stretch:normal;font-size:7.4083333px;font-family:Ubuntu;-inkscape-font-specification:Ubuntu;fill:#b3b3b3;stroke-width:0.26458332"
           id="path8964"
           inkscape:connector-curvature="0" />
        <path
           d="m 689.32697,278.87585 q -0.12594,-0.10371 -0.36301,-0.20002 -0.23706,-0.0963 -0.51858,-0.0963 -0.29633,0 -0.51118,0.11112 -0.20743,0.10372 -0.34078,0.29634 -0.13335,0.18521 -0.19262,0.4445 -0.0593,0.25929 -0.0593,0.55562 0,0.67416 0.33337,1.04458 0.33338,0.36301 0.889,0.36301 0.28152,0 0.46673,-0.0222 0.19261,-0.0296 0.29633,-0.0593 z m 0,-2.59291 0.68898,-0.11854 v 5.63774 q -0.23707,0.0667 -0.60749,0.13335 -0.37041,0.0667 -0.85196,0.0667 -0.4445,0 -0.8001,-0.14076 -0.3556,-0.14076 -0.60748,-0.40005 -0.25188,-0.25929 -0.39264,-0.62971 -0.13335,-0.37782 -0.13335,-0.84455 0,-0.4445 0.11112,-0.81491 0.11854,-0.37042 0.34079,-0.63712 0.22225,-0.2667 0.54081,-0.41487 0.32596,-0.14816 0.74083,-0.14816 0.33337,0 0.58526,0.0889 0.25929,0.0889 0.38523,0.17039 z"
           style="font-style:normal;font-variant:normal;font-weight:normal;font-stretch:normal;font-size:7.4083333px;font-family:Ubuntu;-inkscape-font-specification:Ubuntu;fill:#b3b3b3;stroke-width:0.26458332"
           id="path8966"
           inkscape:connector-curvature="0" />
        <path
           d="m 691.89651,281.91327 h -0.68898 v -3.85233 h 0.68898 z m -0.3482,-4.54872 q -0.1852,0 -0.31855,-0.11853 -0.12595,-0.12594 -0.12595,-0.33338 0,-0.20743 0.12595,-0.32596 0.13335,-0.12594 0.31855,-0.12594 0.18521,0 0.31115,0.12594 0.13335,0.11853 0.13335,0.32596 0,0.20744 -0.13335,0.33338 -0.12594,0.11853 -0.31115,0.11853 z"
           style="font-style:normal;font-variant:normal;font-weight:normal;font-stretch:normal;font-size:7.4083333px;font-family:Ubuntu;-inkscape-font-specification:Ubuntu;fill:#b3b3b3;stroke-width:0.26458332"
           id="path8968"
           inkscape:connector-curvature="0" />
        <path
           d="m 696.48898,279.9871 q 0,0.45932 -0.13335,0.82974 -0.13335,0.37041 -0.37783,0.63711 -0.23706,0.2667 -0.57044,0.41487 -0.33337,0.14076 -0.72602,0.14076 -0.39264,0 -0.72601,-0.14076 -0.33338,-0.14817 -0.57785,-0.41487 -0.23707,-0.2667 -0.37042,-0.63711 -0.13335,-0.37042 -0.13335,-0.82974 0,-0.45191 0.13335,-0.82232 0.13335,-0.37783 0.37042,-0.64453 0.24447,-0.2667 0.57785,-0.40746 0.33337,-0.14816 0.72601,-0.14816 0.39265,0 0.72602,0.14816 0.33338,0.14076 0.57044,0.40746 0.24448,0.2667 0.37783,0.64453 0.13335,0.37041 0.13335,0.82232 z m -0.71861,0 q 0,-0.65193 -0.29633,-1.02976 -0.28893,-0.38523 -0.7927,-0.38523 -0.50376,0 -0.8001,0.38523 -0.28892,0.37783 -0.28892,1.02976 0,0.65194 0.28892,1.03717 0.29634,0.37782 0.8001,0.37782 0.50377,0 0.7927,-0.37782 0.29633,-0.38523 0.29633,-1.03717 z"
           style="font-style:normal;font-variant:normal;font-weight:normal;font-stretch:normal;font-size:7.4083333px;font-family:Ubuntu;-inkscape-font-specification:Ubuntu;fill:#b3b3b3;stroke-width:0.26458332"
           id="path8970"
           inkscape:connector-curvature="0" />
        <path
           d="m 700.46957,281.41691 q 0.24447,0 0.42968,-0.007 0.19262,-0.0148 0.31856,-0.0444 v -1.14829 q -0.0741,-0.037 -0.24448,-0.0593 -0.16298,-0.0296 -0.40005,-0.0296 -0.15557,0 -0.33337,0.0222 -0.17039,0.0222 -0.31856,0.0963 -0.14076,0.0667 -0.23707,0.19262 -0.0963,0.11853 -0.0963,0.31856 0,0.37042 0.23706,0.51858 0.23707,0.14076 0.64453,0.14076 z m -0.0593,-3.45228 q 0.41487,0 0.69638,0.11112 0.28893,0.10372 0.45932,0.30374 0.1778,0.19262 0.25188,0.46673 0.0741,0.2667 0.0741,0.59267 v 2.4077 q -0.0889,0.0148 -0.25189,0.0444 -0.15557,0.0222 -0.3556,0.0445 -0.20002,0.0222 -0.43709,0.037 -0.22966,0.0222 -0.45931,0.0222 -0.32597,0 -0.60008,-0.0667 -0.27411,-0.0667 -0.47413,-0.20744 -0.20003,-0.14816 -0.31115,-0.38523 -0.11113,-0.23707 -0.11113,-0.57044 0,-0.31856 0.12594,-0.54822 0.13335,-0.22966 0.3556,-0.37042 0.22225,-0.14075 0.51859,-0.20743 0.29633,-0.0667 0.6223,-0.0667 0.10371,0 0.21484,0.0148 0.11112,0.007 0.20743,0.0296 0.10372,0.0148 0.1778,0.0296 0.0741,0.0148 0.10372,0.0222 v -0.19261 q 0,-0.17039 -0.037,-0.33338 -0.037,-0.17039 -0.13335,-0.29633 -0.0963,-0.13335 -0.2667,-0.20743 -0.16299,-0.0815 -0.42969,-0.0815 -0.34078,0 -0.60007,0.0519 -0.25188,0.0444 -0.37783,0.0963 l -0.0815,-0.57044 q 0.13335,-0.0593 0.4445,-0.11113 0.31115,-0.0593 0.67416,-0.0593 z"
           style="font-style:normal;font-variant:normal;font-weight:normal;font-stretch:normal;font-size:7.4083333px;font-family:Ubuntu;-inkscape-font-specification:Ubuntu;fill:#b3b3b3;stroke-width:0.26458332"
           id="path8972"
           inkscape:connector-curvature="0" />
        <path
           d="m 704.18473,281.98735 q -0.63711,-0.0148 -0.90381,-0.27411 -0.2667,-0.25929 -0.2667,-0.8075 v -4.6228 l 0.68897,-0.11854 v 4.63021 q 0,0.17039 0.0296,0.28152 0.0296,0.11112 0.0963,0.1778 0.0667,0.0667 0.1778,0.10371 0.11113,0.0296 0.27411,0.0519 z"
           style="font-style:normal;font-variant:normal;font-weight:normal;font-stretch:normal;font-size:7.4083333px;font-family:Ubuntu;-inkscape-font-specification:Ubuntu;fill:#b3b3b3;stroke-width:0.26458332"
           id="path8974"
           inkscape:connector-curvature="0" />
        <path
           d="m 705.69927,278.06094 h 1.45944 v 0.57785 h -1.45944 v 1.778 q 0,0.28892 0.0445,0.48154 0.0444,0.18521 0.13335,0.29633 0.0889,0.10372 0.22225,0.14817 0.13335,0.0444 0.31115,0.0444 0.31115,0 0.49636,-0.0667 0.19262,-0.0741 0.2667,-0.10371 l 0.13335,0.57044 q -0.10372,0.0519 -0.36301,0.12594 -0.25929,0.0815 -0.59267,0.0815 -0.39264,0 -0.65193,-0.0963 -0.25188,-0.10371 -0.40746,-0.30374 -0.15557,-0.20002 -0.22225,-0.48895 -0.0593,-0.29633 -0.0593,-0.68157 v -3.43746 l 0.68897,-0.11854 z"
           style="font-style:normal;font-variant:normal;font-weight:normal;font-stretch:normal;font-size:7.4083333px;font-family:Ubuntu;-inkscape-font-specification:Ubuntu;fill:#b3b3b3;stroke-width:0.26458332"
           id="path8976"
           inkscape:connector-curvature="0" />
        <path
           d="m 711.33458,279.9871 q 0,0.45932 -0.13335,0.82974 -0.13335,0.37041 -0.37782,0.63711 -0.23707,0.2667 -0.57044,0.41487 -0.33338,0.14076 -0.72602,0.14076 -0.39264,0 -0.72602,-0.14076 -0.33337,-0.14817 -0.57785,-0.41487 -0.23706,-0.2667 -0.37041,-0.63711 -0.13335,-0.37042 -0.13335,-0.82974 0,-0.45191 0.13335,-0.82232 0.13335,-0.37783 0.37041,-0.64453 0.24448,-0.2667 0.57785,-0.40746 0.33338,-0.14816 0.72602,-0.14816 0.39264,0 0.72602,0.14816 0.33337,0.14076 0.57044,0.40746 0.24447,0.2667 0.37782,0.64453 0.13335,0.37041 0.13335,0.82232 z m -0.7186,0 q 0,-0.65193 -0.29634,-1.02976 -0.28892,-0.38523 -0.79269,-0.38523 -0.50377,0 -0.8001,0.38523 -0.28892,0.37783 -0.28892,1.02976 0,0.65194 0.28892,1.03717 0.29633,0.37782 0.8001,0.37782 0.50377,0 0.79269,-0.37782 0.29634,-0.38523 0.29634,-1.03717 z"
           style="font-style:normal;font-variant:normal;font-weight:normal;font-stretch:normal;font-size:7.4083333px;font-family:Ubuntu;-inkscape-font-specification:Ubuntu;fill:#b3b3b3;stroke-width:0.26458332"
           id="path8978"
           inkscape:connector-curvature="0" />
      </g>
    </g>
  </g>
</svg>
