<?xml version="1.0" encoding="UTF-8" standalone="no"?>
<!-- Created with Inkscape (http://www.inkscape.org/) -->

<svg
   xmlns:dc="http://purl.org/dc/elements/1.1/"
   xmlns:cc="http://creativecommons.org/ns#"
   xmlns:rdf="http://www.w3.org/1999/02/22-rdf-syntax-ns#"
   xmlns:svg="http://www.w3.org/2000/svg"
   xmlns="http://www.w3.org/2000/svg"
   xmlns:sodipodi="http://sodipodi.sourceforge.net/DTD/sodipodi-0.dtd"
   xmlns:inkscape="http://www.inkscape.org/namespaces/inkscape"
   width="296.48117mm"
   height="26.458334mm"
   viewBox="0 0 296.48117 26.458334"
   version="1.1"
   id="svg7906"
   inkscape:version="0.92.1 r15371"
   sodipodi:docname="baixorisco.svg">
  <defs
     id="defs7900" />
  <sodipodi:namedview
     id="base"
     pagecolor="#ffffff"
     bordercolor="#666666"
     borderopacity="1.0"
     inkscape:pageopacity="0.0"
     inkscape:pageshadow="2"
     inkscape:zoom="0.98994949"
     inkscape:cx="560.27938"
     inkscape:cy="50.000014"
     inkscape:document-units="mm"
     inkscape:current-layer="layer1"
     showgrid="false"
     fit-margin-top="0"
     fit-margin-left="0"
     fit-margin-right="0"
     fit-margin-bottom="0"
     inkscape:window-width="1920"
     inkscape:window-height="1018"
     inkscape:window-x="-8"
     inkscape:window-y="-8"
     inkscape:window-maximized="1" />
  <metadata
     id="metadata7903">
    <rdf:RDF>
      <cc:Work
         rdf:about="">
        <dc:format>image/svg+xml</dc:format>
        <dc:type
           rdf:resource="http://purl.org/dc/dcmitype/StillImage" />
        <dc:title></dc:title>
      </cc:Work>
    </rdf:RDF>
  </metadata>
  <g
     inkscape:label="Layer 1"
     inkscape:groupmode="layer"
     id="layer1"
     transform="translate(8.0618843,-469.50259)">
    <g
       id="g14170"
       transform="translate(-517.07976,274.62319)"
       inkscape:export-filename="F:\SESI\Layout\RST\Novas telas\questionario_resultado-outros.png"
       inkscape:export-xdpi="90"
       inkscape:export-ydpi="90">
      <g
         transform="translate(0,-112.36212)"
         id="g12577">
        <rect
           ry="3.0240023"
           rx="3.0240026"
           y="-331.05399"
           x="-805.10217"
           height="21.166666"
           width="72.443954"
           id="rect10226-3-9-7-6-7"
           style="opacity:1;vector-effect:none;fill:#e6e6e6;fill-opacity:1;stroke:#cccccc;stroke-width:0.79374999;stroke-linecap:round;stroke-linejoin:round;stroke-miterlimit:4;stroke-dasharray:none;stroke-dashoffset:0;stroke-opacity:1"
           transform="scale(-1)" />
        <rect
           transform="scale(1,-1)"
           ry="0"
           rx="0"
           y="-331.05399"
           x="662.59558"
           height="21.166666"
           width="72.443954"
           id="rect10226-3-9-2-5-8-0-5"
           style="opacity:1;vector-effect:none;fill:#e6e6e6;fill-opacity:1;stroke:#cccccc;stroke-width:0.79374999;stroke-linecap:round;stroke-linejoin:round;stroke-miterlimit:4;stroke-dasharray:none;stroke-dashoffset:0;stroke-opacity:1" />
        <rect
           transform="scale(1,-1)"
           ry="0"
           rx="0"
           y="-331.05399"
           x="590.15161"
           height="21.166666"
           width="72.443954"
           id="rect10226-3-9-2-5-8-0-0-4"
           style="opacity:1;vector-effect:none;fill:#e6e6e6;fill-opacity:1;stroke:#cccccc;stroke-width:0.79374999;stroke-linecap:round;stroke-linejoin:round;stroke-miterlimit:4;stroke-dasharray:none;stroke-dashoffset:0;stroke-opacity:1" />
      </g>
      <g
         aria-label="Médio risco"
         style="font-style:normal;font-variant:normal;font-weight:normal;font-stretch:normal;font-size:6.70277786px;line-height:1.25;font-family:Roboto;-inkscape-font-specification:Roboto;letter-spacing:0px;word-spacing:0px;fill:#b3b3b3;fill-opacity:1;stroke:none;stroke-width:0.26458332"
         id="text6679-3-6-4-5-9-6">
        <path
           d="m 611.19898,210.22361 q -0.0741,-0.1778 -0.20002,-0.4519 -0.11854,-0.27411 -0.25929,-0.59267 -0.14076,-0.31856 -0.30375,-0.65193 -0.15557,-0.34079 -0.29633,-0.63712 -0.14076,-0.30374 -0.2667,-0.54081 -0.11853,-0.23707 -0.19262,-0.36301 -0.0815,0.87419 -0.13335,1.89654 -0.0518,1.01494 -0.0889,2.0521 h -0.70379 q 0.0296,-0.66675 0.0667,-1.3409 0.037,-0.68157 0.0815,-1.3335 0.0519,-0.65935 0.10372,-1.28165 0.0593,-0.6223 0.12594,-1.17792 h 0.62971 q 0.20002,0.32597 0.42968,0.77047 0.22966,0.4445 0.45932,0.93345 0.22965,0.48154 0.4445,0.97049 0.21484,0.48154 0.39264,0.88159 0.1778,-0.40005 0.39264,-0.88159 0.21484,-0.48895 0.4445,-0.97049 0.22966,-0.48895 0.45932,-0.93345 0.22965,-0.4445 0.42968,-0.77047 h 0.62971 q 0.25188,2.48179 0.37782,5.13397 h -0.70379 q -0.037,-1.03716 -0.0889,-2.0521 -0.0519,-1.02235 -0.13335,-1.89654 -0.0741,0.12594 -0.20002,0.36301 -0.11854,0.23707 -0.2593,0.54081 -0.14075,0.29633 -0.30374,0.63712 -0.15557,0.33337 -0.29633,0.65193 -0.14076,0.31856 -0.2667,0.59267 -0.11853,0.2741 -0.19262,0.4519 z"
           style="font-style:normal;font-variant:normal;font-weight:normal;font-stretch:normal;font-size:7.4083333px;font-family:Ubuntu;-inkscape-font-specification:Ubuntu;fill:#b3b3b3;stroke-width:0.26458332"
           id="path8656"
           inkscape:connector-curvature="0" />
        <path
           d="m 615.08905,209.01606 q 0,-0.51118 0.14817,-0.889 0.14816,-0.38524 0.39264,-0.63712 0.24447,-0.25188 0.56303,-0.37783 0.31856,-0.12594 0.65194,-0.12594 0.77787,0 1.19274,0.48895 0.41486,0.48154 0.41486,1.47426 0,0.0445 0,0.11853 0,0.0667 -0.007,0.12595 h -2.63737 q 0.0444,0.60007 0.34819,0.91122 0.30374,0.31115 0.94827,0.31115 0.36301,0 0.60748,-0.0593 0.25188,-0.0667 0.37783,-0.12594 l 0.0963,0.57785 q -0.12594,0.0667 -0.4445,0.14076 -0.31115,0.0741 -0.7112,0.0741 -0.50376,0 -0.87418,-0.14816 -0.36301,-0.15558 -0.60007,-0.42228 -0.23707,-0.2667 -0.3556,-0.62971 -0.11113,-0.37041 -0.11113,-0.8075 z m 2.64478,-0.37783 q 0.007,-0.46672 -0.23707,-0.76306 -0.23707,-0.30374 -0.65934,-0.30374 -0.23707,0 -0.42228,0.0963 -0.1778,0.0889 -0.30374,0.23707 -0.12594,0.14816 -0.20002,0.34078 -0.0667,0.19262 -0.0889,0.39264 z m -0.007,-3.01519 -1.04458,1.01494 -0.34819,-0.31115 0.94827,-1.14088 z"
           style="font-style:normal;font-variant:normal;font-weight:normal;font-stretch:normal;font-size:7.4083333px;font-family:Ubuntu;-inkscape-font-specification:Ubuntu;fill:#b3b3b3;stroke-width:0.26458332"
           id="path8658"
           inkscape:connector-curvature="0" />
        <path
           d="m 621.93134,207.8974 q -0.12594,-0.10372 -0.36301,-0.20003 -0.23706,-0.0963 -0.51858,-0.0963 -0.29633,0 -0.51118,0.11113 -0.20743,0.10372 -0.34078,0.29633 -0.13335,0.18521 -0.19262,0.4445 -0.0593,0.25929 -0.0593,0.55563 0,0.67416 0.33337,1.04457 0.33338,0.36301 0.889,0.36301 0.28152,0 0.46673,-0.0222 0.19261,-0.0296 0.29633,-0.0593 z m 0,-2.59292 0.68898,-0.11853 v 5.63774 q -0.23707,0.0667 -0.60749,0.13335 -0.37041,0.0667 -0.85196,0.0667 -0.4445,0 -0.8001,-0.14075 -0.3556,-0.14076 -0.60748,-0.40005 -0.25188,-0.2593 -0.39264,-0.62971 -0.13335,-0.37783 -0.13335,-0.84455 0,-0.4445 0.11112,-0.81492 0.11854,-0.37042 0.34079,-0.63712 0.22225,-0.2667 0.54081,-0.41486 0.32596,-0.14817 0.74083,-0.14817 0.33337,0 0.58526,0.0889 0.25929,0.0889 0.38523,0.17039 z"
           style="font-style:normal;font-variant:normal;font-weight:normal;font-stretch:normal;font-size:7.4083333px;font-family:Ubuntu;-inkscape-font-specification:Ubuntu;fill:#b3b3b3;stroke-width:0.26458332"
           id="path8660"
           inkscape:connector-curvature="0" />
        <path
           d="m 624.50088,210.93481 h -0.68898 v -3.85233 h 0.68898 z m -0.3482,-4.54871 q -0.1852,0 -0.31855,-0.11854 -0.12595,-0.12594 -0.12595,-0.33337 0,-0.20743 0.12595,-0.32597 0.13335,-0.12594 0.31855,-0.12594 0.18521,0 0.31115,0.12594 0.13335,0.11854 0.13335,0.32597 0,0.20743 -0.13335,0.33337 -0.12594,0.11854 -0.31115,0.11854 z"
           style="font-style:normal;font-variant:normal;font-weight:normal;font-stretch:normal;font-size:7.4083333px;font-family:Ubuntu;-inkscape-font-specification:Ubuntu;fill:#b3b3b3;stroke-width:0.26458332"
           id="path8662"
           inkscape:connector-curvature="0" />
        <path
           d="m 629.09335,209.00865 q 0,0.45931 -0.13335,0.82973 -0.13335,0.37042 -0.37783,0.63712 -0.23706,0.2667 -0.57044,0.41486 -0.33337,0.14076 -0.72602,0.14076 -0.39264,0 -0.72601,-0.14076 -0.33338,-0.14816 -0.57785,-0.41486 -0.23707,-0.2667 -0.37042,-0.63712 -0.13335,-0.37042 -0.13335,-0.82973 0,-0.45191 0.13335,-0.82233 0.13335,-0.37782 0.37042,-0.64452 0.24447,-0.2667 0.57785,-0.40746 0.33337,-0.14817 0.72601,-0.14817 0.39265,0 0.72602,0.14817 0.33338,0.14076 0.57044,0.40746 0.24448,0.2667 0.37783,0.64452 0.13335,0.37042 0.13335,0.82233 z m -0.71861,0 q 0,-0.65194 -0.29633,-1.02976 -0.28893,-0.38523 -0.7927,-0.38523 -0.50376,0 -0.8001,0.38523 -0.28892,0.37782 -0.28892,1.02976 0,0.65193 0.28892,1.03716 0.29634,0.37783 0.8001,0.37783 0.50377,0 0.7927,-0.37783 0.29633,-0.38523 0.29633,-1.03716 z"
           style="font-style:normal;font-variant:normal;font-weight:normal;font-stretch:normal;font-size:7.4083333px;font-family:Ubuntu;-inkscape-font-specification:Ubuntu;fill:#b3b3b3;stroke-width:0.26458332"
           id="path8664"
           inkscape:connector-curvature="0" />
        <path
           d="m 633.19247,207.00099 q 0.0889,0 0.20003,0.0148 0.11853,0.007 0.22965,0.0296 0.11113,0.0148 0.20003,0.037 0.0963,0.0148 0.14076,0.0296 l -0.11854,0.60008 q -0.0815,-0.0296 -0.2741,-0.0667 -0.18521,-0.0445 -0.48155,-0.0445 -0.19261,0 -0.38523,0.0445 -0.18521,0.037 -0.24447,0.0519 v 3.23744 h -0.68898 v -3.68935 q 0.24448,-0.0889 0.60748,-0.16298 0.36301,-0.0815 0.81492,-0.0815 z"
           style="font-style:normal;font-variant:normal;font-weight:normal;font-stretch:normal;font-size:7.4083333px;font-family:Ubuntu;-inkscape-font-specification:Ubuntu;fill:#b3b3b3;stroke-width:0.26458332"
           id="path8666"
           inkscape:connector-curvature="0" />
        <path
           d="m 635.32399,210.93481 h -0.68898 v -3.85233 h 0.68898 z m -0.34819,-4.54871 q -0.18521,0 -0.31856,-0.11854 -0.12594,-0.12594 -0.12594,-0.33337 0,-0.20743 0.12594,-0.32597 0.13335,-0.12594 0.31856,-0.12594 0.1852,0 0.31115,0.12594 0.13335,0.11854 0.13335,0.32597 0,0.20743 -0.13335,0.33337 -0.12595,0.11854 -0.31115,0.11854 z"
           style="font-style:normal;font-variant:normal;font-weight:normal;font-stretch:normal;font-size:7.4083333px;font-family:Ubuntu;-inkscape-font-specification:Ubuntu;fill:#b3b3b3;stroke-width:0.26458332"
           id="path8668"
           inkscape:connector-curvature="0" />
        <path
           d="m 637.41244,210.43846 q 0.42228,0 0.6223,-0.11113 0.20744,-0.11112 0.20744,-0.3556 0,-0.25188 -0.20003,-0.40005 -0.20002,-0.14817 -0.65934,-0.33337 -0.22225,-0.0889 -0.42968,-0.1778 -0.20003,-0.0963 -0.34819,-0.22225 -0.14817,-0.12595 -0.23707,-0.30375 -0.0889,-0.1778 -0.0889,-0.43709 0,-0.51117 0.37782,-0.80751 0.37783,-0.30374 1.02976,-0.30374 0.16299,0 0.32597,0.0222 0.16298,0.0148 0.30374,0.0445 0.14076,0.0222 0.24448,0.0519 0.11112,0.0296 0.17039,0.0519 l -0.12594,0.59267 q -0.11113,-0.0593 -0.3482,-0.11853 -0.23706,-0.0667 -0.57044,-0.0667 -0.28892,0 -0.50376,0.11854 -0.21485,0.11112 -0.21485,0.3556 0,0.12594 0.0444,0.22225 0.0519,0.0963 0.14817,0.1778 0.10372,0.0741 0.25188,0.14075 0.14817,0.0667 0.3556,0.14076 0.27411,0.10372 0.48895,0.20744 0.21485,0.0963 0.36301,0.22965 0.15558,0.13335 0.23707,0.32597 0.0815,0.18521 0.0815,0.45932 0,0.5334 -0.40005,0.80751 -0.39264,0.2741 -1.12607,0.2741 -0.51117,0 -0.8001,-0.0889 -0.28892,-0.0815 -0.39264,-0.12594 l 0.12594,-0.59266 q 0.11854,0.0445 0.37783,0.13335 0.25929,0.0889 0.68897,0.0889 z"
           style="font-style:normal;font-variant:normal;font-weight:normal;font-stretch:normal;font-size:7.4083333px;font-family:Ubuntu;-inkscape-font-specification:Ubuntu;fill:#b3b3b3;stroke-width:0.26458332"
           id="path8670"
           inkscape:connector-curvature="0" />
        <path
           d="m 641.48934,211.02371 q -0.46672,0 -0.82232,-0.14816 -0.3482,-0.14817 -0.59267,-0.41487 -0.23707,-0.2667 -0.3556,-0.62971 -0.11853,-0.37041 -0.11853,-0.81491 0,-0.4445 0.12594,-0.81492 0.13335,-0.37042 0.37041,-0.63712 0.23707,-0.27411 0.57785,-0.42227 0.3482,-0.15558 0.77047,-0.15558 0.25929,0 0.51858,0.0445 0.2593,0.0445 0.49636,0.14076 l -0.15557,0.58526 q -0.15558,-0.0741 -0.36301,-0.11853 -0.20003,-0.0445 -0.42968,-0.0445 -0.57785,0 -0.889,0.363 -0.30375,0.36301 -0.30375,1.0594 0,0.31115 0.0667,0.57044 0.0741,0.25929 0.22225,0.4445 0.15557,0.18521 0.39264,0.28892 0.23707,0.0963 0.57785,0.0963 0.27411,0 0.49636,-0.0519 0.22225,-0.0519 0.34819,-0.11112 l 0.0963,0.57785 q -0.0593,0.037 -0.17039,0.0741 -0.11113,0.0296 -0.25189,0.0519 -0.14075,0.0296 -0.30374,0.0444 -0.15557,0.0222 -0.30374,0.0222 z"
           style="font-style:normal;font-variant:normal;font-weight:normal;font-stretch:normal;font-size:7.4083333px;font-family:Ubuntu;-inkscape-font-specification:Ubuntu;fill:#b3b3b3;stroke-width:0.26458332"
           id="path8672"
           inkscape:connector-curvature="0" />
        <path
           d="m 646.55791,209.00865 q 0,0.45931 -0.13335,0.82973 -0.13335,0.37042 -0.37782,0.63712 -0.23707,0.2667 -0.57044,0.41486 -0.33338,0.14076 -0.72602,0.14076 -0.39264,0 -0.72602,-0.14076 -0.33337,-0.14816 -0.57785,-0.41486 -0.23706,-0.2667 -0.37041,-0.63712 -0.13335,-0.37042 -0.13335,-0.82973 0,-0.45191 0.13335,-0.82233 0.13335,-0.37782 0.37041,-0.64452 0.24448,-0.2667 0.57785,-0.40746 0.33338,-0.14817 0.72602,-0.14817 0.39264,0 0.72602,0.14817 0.33337,0.14076 0.57044,0.40746 0.24447,0.2667 0.37782,0.64452 0.13335,0.37042 0.13335,0.82233 z m -0.7186,0 q 0,-0.65194 -0.29634,-1.02976 -0.28892,-0.38523 -0.79269,-0.38523 -0.50377,0 -0.8001,0.38523 -0.28892,0.37782 -0.28892,1.02976 0,0.65193 0.28892,1.03716 0.29633,0.37783 0.8001,0.37783 0.50377,0 0.79269,-0.37783 0.29634,-0.38523 0.29634,-1.03716 z"
           style="font-style:normal;font-variant:normal;font-weight:normal;font-stretch:normal;font-size:7.4083333px;font-family:Ubuntu;-inkscape-font-specification:Ubuntu;fill:#b3b3b3;stroke-width:0.26458332"
           id="path8674"
           inkscape:connector-curvature="0" />
      </g>
      <g
         aria-label="Médio alto"
         style="font-style:normal;font-variant:normal;font-weight:normal;font-stretch:normal;font-size:6.70277786px;line-height:1.25;font-family:Roboto;-inkscape-font-specification:Roboto;letter-spacing:0px;word-spacing:0px;fill:#b3b3b3;fill-opacity:1;stroke:none;stroke-width:0.26458332"
         id="text6679-3-6-4-3-1-1-5">
        <path
           d="m 683.66993,210.22361 q -0.0741,-0.1778 -0.20003,-0.4519 -0.11853,-0.27411 -0.25929,-0.59267 -0.14076,-0.31856 -0.30374,-0.65193 -0.15557,-0.34079 -0.29633,-0.63712 -0.14076,-0.30374 -0.2667,-0.54081 -0.11854,-0.23707 -0.19262,-0.36301 -0.0815,0.87419 -0.13335,1.89654 -0.0519,1.01494 -0.0889,2.0521 h -0.70379 q 0.0296,-0.66675 0.0667,-1.3409 0.0371,-0.68157 0.0815,-1.3335 0.0519,-0.65935 0.10371,-1.28165 0.0593,-0.6223 0.12594,-1.17792 h 0.62971 q 0.20003,0.32597 0.42969,0.77047 0.22965,0.4445 0.45931,0.93345 0.22966,0.48154 0.4445,0.97049 0.21484,0.48154 0.39264,0.88159 0.1778,-0.40005 0.39265,-0.88159 0.21484,-0.48895 0.4445,-0.97049 0.22965,-0.48895 0.45931,-0.93345 0.22966,-0.4445 0.42969,-0.77047 h 0.6297 q 0.25189,2.48179 0.37783,5.13397 h -0.70379 q -0.037,-1.03716 -0.0889,-2.0521 -0.0519,-1.02235 -0.13335,-1.89654 -0.0741,0.12594 -0.20003,0.36301 -0.11853,0.23707 -0.25929,0.54081 -0.14076,0.29633 -0.30374,0.63712 -0.15558,0.33337 -0.29633,0.65193 -0.14076,0.31856 -0.2667,0.59267 -0.11854,0.2741 -0.19262,0.4519 z"
           style="font-style:normal;font-variant:normal;font-weight:normal;font-stretch:normal;font-size:7.4083333px;font-family:Ubuntu;-inkscape-font-specification:Ubuntu;fill:#b3b3b3;stroke-width:0.26458332"
           id="path8637"
           inkscape:connector-curvature="0" />
        <path
           d="m 687.56,209.01606 q 0,-0.51118 0.14817,-0.889 0.14816,-0.38524 0.39264,-0.63712 0.24447,-0.25188 0.56303,-0.37783 0.31856,-0.12594 0.65193,-0.12594 0.77788,0 1.19275,0.48895 0.41486,0.48154 0.41486,1.47426 0,0.0445 0,0.11853 0,0.0667 -0.007,0.12595 h -2.63736 q 0.0445,0.60007 0.34819,0.91122 0.30374,0.31115 0.94827,0.31115 0.363,0 0.60748,-0.0593 0.25188,-0.0667 0.37782,-0.12594 l 0.0963,0.57785 q -0.12594,0.0667 -0.4445,0.14076 -0.31115,0.0741 -0.7112,0.0741 -0.50376,0 -0.87418,-0.14816 -0.36301,-0.15558 -0.60008,-0.42228 -0.23706,-0.2667 -0.3556,-0.62971 -0.11112,-0.37041 -0.11112,-0.8075 z m 2.64477,-0.37783 q 0.007,-0.46672 -0.23706,-0.76306 -0.23707,-0.30374 -0.65934,-0.30374 -0.23707,0 -0.42228,0.0963 -0.1778,0.0889 -0.30374,0.23707 -0.12594,0.14816 -0.20003,0.34078 -0.0667,0.19262 -0.0889,0.39264 z m -0.007,-3.01519 -1.04458,1.01494 -0.34819,-0.31115 0.94827,-1.14088 z"
           style="font-style:normal;font-variant:normal;font-weight:normal;font-stretch:normal;font-size:7.4083333px;font-family:Ubuntu;-inkscape-font-specification:Ubuntu;fill:#b3b3b3;stroke-width:0.26458332"
           id="path8639"
           inkscape:connector-curvature="0" />
        <path
           d="m 694.40229,207.8974 q -0.12594,-0.10372 -0.36301,-0.20003 -0.23707,-0.0963 -0.51858,-0.0963 -0.29634,0 -0.51118,0.11113 -0.20743,0.10372 -0.34078,0.29633 -0.13335,0.18521 -0.19262,0.4445 -0.0593,0.25929 -0.0593,0.55563 0,0.67416 0.33337,1.04457 0.33338,0.36301 0.889,0.36301 0.28152,0 0.46673,-0.0222 0.19261,-0.0296 0.29633,-0.0593 z m 0,-2.59292 0.68897,-0.11853 v 5.63774 q -0.23706,0.0667 -0.60748,0.13335 -0.37042,0.0667 -0.85196,0.0667 -0.4445,0 -0.8001,-0.14075 -0.3556,-0.14076 -0.60748,-0.40005 -0.25188,-0.2593 -0.39264,-0.62971 -0.13335,-0.37783 -0.13335,-0.84455 0,-0.4445 0.11112,-0.81492 0.11854,-0.37042 0.34079,-0.63712 0.22225,-0.2667 0.5408,-0.41486 0.32597,-0.14817 0.74084,-0.14817 0.33337,0 0.58526,0.0889 0.25929,0.0889 0.38523,0.17039 z"
           style="font-style:normal;font-variant:normal;font-weight:normal;font-stretch:normal;font-size:7.4083333px;font-family:Ubuntu;-inkscape-font-specification:Ubuntu;fill:#b3b3b3;stroke-width:0.26458332"
           id="path8641"
           inkscape:connector-curvature="0" />
        <path
           d="m 696.97182,210.93481 h -0.68897 v -3.85233 h 0.68897 z m -0.34819,-4.54871 q -0.18521,0 -0.31856,-0.11854 -0.12594,-0.12594 -0.12594,-0.33337 0,-0.20743 0.12594,-0.32597 0.13335,-0.12594 0.31856,-0.12594 0.18521,0 0.31115,0.12594 0.13335,0.11854 0.13335,0.32597 0,0.20743 -0.13335,0.33337 -0.12594,0.11854 -0.31115,0.11854 z"
           style="font-style:normal;font-variant:normal;font-weight:normal;font-stretch:normal;font-size:7.4083333px;font-family:Ubuntu;-inkscape-font-specification:Ubuntu;fill:#b3b3b3;stroke-width:0.26458332"
           id="path8643"
           inkscape:connector-curvature="0" />
        <path
           d="m 701.56429,209.00865 q 0,0.45931 -0.13335,0.82973 -0.13335,0.37042 -0.37782,0.63712 -0.23707,0.2667 -0.57044,0.41486 -0.33338,0.14076 -0.72602,0.14076 -0.39264,0 -0.72602,-0.14076 -0.33337,-0.14816 -0.57785,-0.41486 -0.23706,-0.2667 -0.37041,-0.63712 -0.13335,-0.37042 -0.13335,-0.82973 0,-0.45191 0.13335,-0.82233 0.13335,-0.37782 0.37041,-0.64452 0.24448,-0.2667 0.57785,-0.40746 0.33338,-0.14817 0.72602,-0.14817 0.39264,0 0.72602,0.14817 0.33337,0.14076 0.57044,0.40746 0.24447,0.2667 0.37782,0.64452 0.13335,0.37042 0.13335,0.82233 z m -0.7186,0 q 0,-0.65194 -0.29634,-1.02976 -0.28892,-0.38523 -0.79269,-0.38523 -0.50377,0 -0.8001,0.38523 -0.28892,0.37782 -0.28892,1.02976 0,0.65193 0.28892,1.03716 0.29633,0.37783 0.8001,0.37783 0.50377,0 0.79269,-0.37783 0.29634,-0.38523 0.29634,-1.03716 z"
           style="font-style:normal;font-variant:normal;font-weight:normal;font-stretch:normal;font-size:7.4083333px;font-family:Ubuntu;-inkscape-font-specification:Ubuntu;fill:#b3b3b3;stroke-width:0.26458332"
           id="path8645"
           inkscape:connector-curvature="0" />
        <path
           d="m 705.54488,210.43846 q 0.24448,0 0.42969,-0.007 0.19261,-0.0148 0.31856,-0.0445 v -1.14829 q -0.0741,-0.0371 -0.24448,-0.0593 -0.16298,-0.0296 -0.40005,-0.0296 -0.15557,0 -0.33337,0.0222 -0.1704,0.0222 -0.31856,0.0963 -0.14076,0.0667 -0.23707,0.19262 -0.0963,0.11853 -0.0963,0.31855 0,0.37042 0.23707,0.51859 0.23707,0.14076 0.64452,0.14076 z m -0.0593,-3.45229 q 0.41486,0 0.69638,0.11113 0.28893,0.10371 0.45932,0.30374 0.1778,0.19262 0.25188,0.46672 0.0741,0.2667 0.0741,0.59267 v 2.40771 q -0.0889,0.0148 -0.25188,0.0444 -0.15557,0.0222 -0.3556,0.0445 -0.20002,0.0222 -0.43709,0.037 -0.22966,0.0222 -0.45932,0.0222 -0.32596,0 -0.60007,-0.0667 -0.27411,-0.0667 -0.47414,-0.20743 -0.20002,-0.14817 -0.31114,-0.38524 -0.11113,-0.23706 -0.11113,-0.57044 0,-0.31856 0.12594,-0.54821 0.13335,-0.22966 0.3556,-0.37042 0.22225,-0.14076 0.51858,-0.20743 0.29634,-0.0667 0.6223,-0.0667 0.10372,0 0.21485,0.0148 0.11112,0.007 0.20743,0.0296 0.10372,0.0148 0.1778,0.0296 0.0741,0.0148 0.10372,0.0222 v -0.19262 q 0,-0.17039 -0.0371,-0.33337 -0.037,-0.17039 -0.13335,-0.29634 -0.0963,-0.13335 -0.2667,-0.20743 -0.16298,-0.0815 -0.42968,-0.0815 -0.34078,0 -0.60007,0.0519 -0.25189,0.0445 -0.37783,0.0963 l -0.0815,-0.57045 q 0.13335,-0.0593 0.4445,-0.11112 0.31115,-0.0593 0.67416,-0.0593 z"
           style="font-style:normal;font-variant:normal;font-weight:normal;font-stretch:normal;font-size:7.4083333px;font-family:Ubuntu;-inkscape-font-specification:Ubuntu;fill:#b3b3b3;stroke-width:0.26458332"
           id="path8647"
           inkscape:connector-curvature="0" />
        <path
           d="m 709.26005,211.0089 q -0.63712,-0.0148 -0.90382,-0.27411 -0.2667,-0.25929 -0.2667,-0.80751 v -4.6228 l 0.68898,-0.11853 v 4.63021 q 0,0.17039 0.0296,0.28151 0.0296,0.11113 0.0963,0.1778 0.0667,0.0667 0.1778,0.10372 0.11112,0.0296 0.27411,0.0519 z"
           style="font-style:normal;font-variant:normal;font-weight:normal;font-stretch:normal;font-size:7.4083333px;font-family:Ubuntu;-inkscape-font-specification:Ubuntu;fill:#b3b3b3;stroke-width:0.26458332"
           id="path8649"
           inkscape:connector-curvature="0" />
        <path
           d="m 710.77459,207.08248 h 1.45944 v 0.57785 h -1.45944 v 1.778 q 0,0.28893 0.0444,0.48154 0.0444,0.18521 0.13335,0.29634 0.0889,0.10371 0.22225,0.14816 0.13335,0.0444 0.31115,0.0444 0.31115,0 0.49636,-0.0667 0.19261,-0.0741 0.2667,-0.10372 l 0.13335,0.57044 q -0.10372,0.0519 -0.36301,0.12594 -0.25929,0.0815 -0.59267,0.0815 -0.39264,0 -0.65193,-0.0963 -0.25188,-0.10372 -0.40746,-0.30374 -0.15557,-0.20003 -0.22225,-0.48895 -0.0593,-0.29634 -0.0593,-0.68157 v -3.43747 l 0.68898,-0.11853 z"
           style="font-style:normal;font-variant:normal;font-weight:normal;font-stretch:normal;font-size:7.4083333px;font-family:Ubuntu;-inkscape-font-specification:Ubuntu;fill:#b3b3b3;stroke-width:0.26458332"
           id="path8651"
           inkscape:connector-curvature="0" />
        <path
           d="m 716.4099,209.00865 q 0,0.45931 -0.13335,0.82973 -0.13335,0.37042 -0.37782,0.63712 -0.23707,0.2667 -0.57045,0.41486 -0.33337,0.14076 -0.72601,0.14076 -0.39264,0 -0.72602,-0.14076 -0.33337,-0.14816 -0.57785,-0.41486 -0.23707,-0.2667 -0.37042,-0.63712 -0.13335,-0.37042 -0.13335,-0.82973 0,-0.45191 0.13335,-0.82233 0.13335,-0.37782 0.37042,-0.64452 0.24448,-0.2667 0.57785,-0.40746 0.33338,-0.14817 0.72602,-0.14817 0.39264,0 0.72601,0.14817 0.33338,0.14076 0.57045,0.40746 0.24447,0.2667 0.37782,0.64452 0.13335,0.37042 0.13335,0.82233 z m -0.71861,0 q 0,-0.65194 -0.29633,-1.02976 -0.28893,-0.38523 -0.79269,-0.38523 -0.50377,0 -0.8001,0.38523 -0.28893,0.37782 -0.28893,1.02976 0,0.65193 0.28893,1.03716 0.29633,0.37783 0.8001,0.37783 0.50376,0 0.79269,-0.37783 0.29633,-0.38523 0.29633,-1.03716 z"
           style="font-style:normal;font-variant:normal;font-weight:normal;font-stretch:normal;font-size:7.4083333px;font-family:Ubuntu;-inkscape-font-specification:Ubuntu;fill:#b3b3b3;stroke-width:0.26458332"
           id="path8653"
           inkscape:connector-curvature="0" />
      </g>
      <g
         transform="translate(0,-112.36212)"
         id="g12572">
        <rect
           style="opacity:1;vector-effect:none;fill:#c6d230;fill-opacity:1;stroke:none;stroke-width:0.79374999;stroke-linecap:round;stroke-linejoin:round;stroke-miterlimit:4;stroke-dasharray:none;stroke-dashoffset:0;stroke-opacity:1"
           id="rect10226-3-9-2-54-9-3"
           width="90.583748"
           height="26.458334"
           x="-599.60162"
           y="307.24152"
           rx="3.0240023"
           ry="3.0240021"
           transform="scale(-1,1)" />
        <g
           aria-label="Baixo risco"
           style="font-style:normal;font-variant:normal;font-weight:normal;font-stretch:normal;font-size:8.46666622px;line-height:1.25;font-family:Roboto;-inkscape-font-specification:Roboto;letter-spacing:0px;word-spacing:0px;fill:#ffffff;fill-opacity:1;stroke:none;stroke-width:0.26458332"
           id="text6679-3-6-43-0-4">
          <path
             d="m 535.91748,322.4244 q -0.1778,0 -0.38947,-0.008 -0.2032,-0.008 -0.41486,-0.0254 -0.2032,-0.0169 -0.4064,-0.0423 -0.2032,-0.0254 -0.37254,-0.0677 v -5.6896 q 0.16934,-0.0423 0.37254,-0.0677 0.2032,-0.0254 0.4064,-0.0423 0.21166,-0.0169 0.41486,-0.0254 0.2032,-0.008 0.381,-0.008 0.508,0 0.94827,0.0762 0.44873,0.0762 0.77047,0.26247 0.3302,0.1778 0.51646,0.47413 0.18627,0.29633 0.18627,0.72813 0,0.4826 -0.2286,0.79587 -0.2286,0.3048 -0.6096,0.4572 0.51647,0.1524 0.82127,0.4826 0.3048,0.3302 0.3048,0.93133 0,0.88054 -0.65194,1.32927 -0.64346,0.44027 -2.04893,0.44027 z m -0.77047,-2.78554 v 2.06587 q 0.0931,0.008 0.22014,0.0169 0.11006,0.008 0.254,0.0169 0.1524,0 0.34713,0 0.36407,0 0.6858,-0.0423 0.3302,-0.0508 0.57573,-0.16933 0.24554,-0.11853 0.38947,-0.3302 0.1524,-0.21167 0.1524,-0.5334 0,-0.28787 -0.11007,-0.4826 -0.11006,-0.2032 -0.32173,-0.32173 -0.2032,-0.11854 -0.49107,-0.16934 -0.28786,-0.0508 -0.64346,-0.0508 z m 0,-0.6604 h 0.8636 q 0.3048,0 0.57574,-0.0423 0.27093,-0.0423 0.46566,-0.1524 0.2032,-0.11007 0.31327,-0.28787 0.11853,-0.1778 0.11853,-0.44873 0,-0.254 -0.11853,-0.42333 -0.11853,-0.1778 -0.3302,-0.2794 -0.2032,-0.11007 -0.4826,-0.16087 -0.2794,-0.0508 -0.59267,-0.0508 -0.31326,0 -0.49106,0.008 -0.1778,0.008 -0.32174,0.0254 z"
             style="font-style:normal;font-variant:normal;font-weight:normal;font-stretch:normal;font-size:8.46666622px;font-family:Ubuntu;-inkscape-font-specification:Ubuntu;fill:#ffffff;stroke-width:0.26458332"
             id="path8677"
             inkscape:connector-curvature="0" />
          <path
             d="m 541.21404,321.80633 q 0.2794,0 0.49107,-0.008 0.22013,-0.0169 0.36406,-0.0508 v -1.31233 q -0.0847,-0.0423 -0.2794,-0.0677 -0.18626,-0.0339 -0.4572,-0.0339 -0.1778,0 -0.381,0.0254 -0.19473,0.0254 -0.36406,0.11007 -0.16087,0.0762 -0.27094,0.22013 -0.11006,0.13547 -0.11006,0.36407 0,0.42333 0.27093,0.59266 0.27093,0.16087 0.7366,0.16087 z m -0.0677,-3.94547 q 0.47413,0 0.79586,0.127 0.3302,0.11854 0.52494,0.34714 0.2032,0.22013 0.28786,0.5334 0.0847,0.3048 0.0847,0.67733 v 2.75167 q -0.1016,0.0169 -0.28787,0.0508 -0.1778,0.0254 -0.4064,0.0508 -0.2286,0.0254 -0.49953,0.0423 -0.26247,0.0254 -0.52493,0.0254 -0.37254,0 -0.6858,-0.0762 -0.31327,-0.0762 -0.54187,-0.23707 -0.2286,-0.16933 -0.3556,-0.44026 -0.127,-0.27094 -0.127,-0.65194 0,-0.36406 0.14393,-0.62653 0.1524,-0.26247 0.4064,-0.42333 0.254,-0.16087 0.59267,-0.23707 0.33867,-0.0762 0.7112,-0.0762 0.11853,0 0.24553,0.0169 0.127,0.008 0.23707,0.0339 0.11853,0.0169 0.2032,0.0339 0.0847,0.0169 0.11853,0.0254 v -0.22014 q 0,-0.19473 -0.0423,-0.381 -0.0423,-0.19473 -0.1524,-0.33866 -0.11007,-0.1524 -0.3048,-0.23707 -0.18627,-0.0931 -0.49107,-0.0931 -0.38946,0 -0.6858,0.0593 -0.28786,0.0508 -0.4318,0.11007 l -0.0931,-0.65193 q 0.1524,-0.0677 0.508,-0.127 0.3556,-0.0677 0.77047,-0.0677 z"
             style="font-style:normal;font-variant:normal;font-weight:normal;font-stretch:normal;font-size:8.46666622px;font-family:Ubuntu;-inkscape-font-specification:Ubuntu;fill:#ffffff;stroke-width:0.26458332"
             id="path8679"
             inkscape:connector-curvature="0" />
          <path
             d="m 544.92654,322.3736 h -0.7874 v -4.40267 h 0.7874 z m -0.39793,-5.19854 q -0.21167,0 -0.36407,-0.13546 -0.14393,-0.14394 -0.14393,-0.381 0,-0.23707 0.14393,-0.37254 0.1524,-0.14393 0.36407,-0.14393 0.21166,0 0.3556,0.14393 0.1524,0.13547 0.1524,0.37254 0,0.23706 -0.1524,0.381 -0.14394,0.13546 -0.3556,0.13546 z"
             style="font-style:normal;font-variant:normal;font-weight:normal;font-stretch:normal;font-size:8.46666622px;font-family:Ubuntu;-inkscape-font-specification:Ubuntu;fill:#ffffff;stroke-width:0.26458332"
             id="path8681"
             inkscape:connector-curvature="0" />
          <path
             d="m 548.92201,322.3736 q -0.0931,-0.18627 -0.2286,-0.41487 -0.13546,-0.2286 -0.29633,-0.46567 -0.16087,-0.24553 -0.3302,-0.4826 -0.16933,-0.23706 -0.3302,-0.44873 -0.16087,0.21167 -0.3302,0.4572 -0.16933,0.23707 -0.3302,0.4826 -0.1524,0.23707 -0.28787,0.46567 -0.13546,0.2286 -0.2286,0.4064 h -0.8128 q 0.29634,-0.57574 0.70274,-1.1684 0.41486,-0.60114 0.82126,-1.143 l -1.45626,-2.09127 h 0.889 l 1.04986,1.54093 1.05834,-1.54093 h 0.8382 l -1.4224,2.04047 q 0.4064,0.55033 0.82973,1.1684 0.4318,0.6096 0.72813,1.1938 z"
             style="font-style:normal;font-variant:normal;font-weight:normal;font-stretch:normal;font-size:8.46666622px;font-family:Ubuntu;-inkscape-font-specification:Ubuntu;fill:#ffffff;stroke-width:0.26458332"
             id="path8683"
             inkscape:connector-curvature="0" />
          <path
             d="m 554.32573,320.17226 q 0,0.52494 -0.1524,0.94827 -0.1524,0.42333 -0.4318,0.72813 -0.27093,0.3048 -0.65193,0.47414 -0.381,0.16086 -0.82974,0.16086 -0.44873,0 -0.82973,-0.16086 -0.381,-0.16934 -0.6604,-0.47414 -0.27093,-0.3048 -0.42333,-0.72813 -0.1524,-0.42333 -0.1524,-0.94827 0,-0.51646 0.1524,-0.9398 0.1524,-0.4318 0.42333,-0.7366 0.2794,-0.3048 0.6604,-0.46566 0.381,-0.16934 0.82973,-0.16934 0.44874,0 0.82974,0.16934 0.381,0.16086 0.65193,0.46566 0.2794,0.3048 0.4318,0.7366 0.1524,0.42334 0.1524,0.9398 z m -0.82127,0 q 0,-0.74506 -0.33866,-1.17686 -0.3302,-0.44027 -0.90594,-0.44027 -0.57573,0 -0.9144,0.44027 -0.3302,0.4318 -0.3302,1.17686 0,0.74507 0.3302,1.18534 0.33867,0.4318 0.9144,0.4318 0.57574,0 0.90594,-0.4318 0.33866,-0.44027 0.33866,-1.18534 z"
             style="font-style:normal;font-variant:normal;font-weight:normal;font-stretch:normal;font-size:8.46666622px;font-family:Ubuntu;-inkscape-font-specification:Ubuntu;fill:#ffffff;stroke-width:0.26458332"
             id="path8685"
             inkscape:connector-curvature="0" />
          <path
             d="m 559.01044,317.8778 q 0.1016,0 0.2286,0.0169 0.13547,0.008 0.26247,0.0339 0.127,0.0169 0.2286,0.0423 0.11007,0.0169 0.16087,0.0339 l -0.13547,0.6858 q -0.0931,-0.0339 -0.31327,-0.0762 -0.21166,-0.0508 -0.55033,-0.0508 -0.22013,0 -0.44027,0.0508 -0.21166,0.0423 -0.2794,0.0593 v 3.69994 h -0.7874 v -4.2164 q 0.2794,-0.1016 0.69427,-0.18627 0.41487,-0.0931 0.93133,-0.0931 z"
             style="font-style:normal;font-variant:normal;font-weight:normal;font-stretch:normal;font-size:8.46666622px;font-family:Ubuntu;-inkscape-font-specification:Ubuntu;fill:#ffffff;stroke-width:0.26458332"
             id="path8687"
             inkscape:connector-curvature="0" />
          <path
             d="m 561.44646,322.3736 h -0.7874 v -4.40267 h 0.7874 z m -0.39793,-5.19854 q -0.21167,0 -0.36407,-0.13546 -0.14393,-0.14394 -0.14393,-0.381 0,-0.23707 0.14393,-0.37254 0.1524,-0.14393 0.36407,-0.14393 0.21167,0 0.3556,0.14393 0.1524,0.13547 0.1524,0.37254 0,0.23706 -0.1524,0.381 -0.14393,0.13546 -0.3556,0.13546 z"
             style="font-style:normal;font-variant:normal;font-weight:normal;font-stretch:normal;font-size:8.46666622px;font-family:Ubuntu;-inkscape-font-specification:Ubuntu;fill:#ffffff;stroke-width:0.26458332"
             id="path8689"
             inkscape:connector-curvature="0" />
          <path
             d="m 563.83327,321.80633 q 0.4826,0 0.7112,-0.127 0.23706,-0.127 0.23706,-0.4064 0,-0.28787 -0.2286,-0.4572 -0.2286,-0.16933 -0.75353,-0.381 -0.254,-0.1016 -0.49107,-0.2032 -0.2286,-0.11007 -0.39793,-0.254 -0.16933,-0.14393 -0.27093,-0.34713 -0.1016,-0.2032 -0.1016,-0.49954 0,-0.5842 0.4318,-0.92286 0.4318,-0.34714 1.17686,-0.34714 0.18627,0 0.37254,0.0254 0.18626,0.0169 0.34713,0.0508 0.16087,0.0254 0.2794,0.0593 0.127,0.0339 0.19473,0.0593 l -0.14393,0.67733 q -0.127,-0.0677 -0.39793,-0.13547 -0.27094,-0.0762 -0.65194,-0.0762 -0.3302,0 -0.57573,0.13547 -0.24553,0.127 -0.24553,0.4064 0,0.14393 0.0508,0.254 0.0593,0.11007 0.16933,0.2032 0.11853,0.0847 0.28787,0.16087 0.16933,0.0762 0.4064,0.16086 0.31326,0.11854 0.5588,0.23707 0.24553,0.11007 0.41486,0.26247 0.1778,0.1524 0.27094,0.37253 0.0931,0.21167 0.0931,0.52493 0,0.6096 -0.4572,0.92287 -0.44873,0.31327 -1.28693,0.31327 -0.5842,0 -0.9144,-0.1016 -0.3302,-0.0931 -0.44874,-0.14394 l 0.14394,-0.67733 q 0.13546,0.0508 0.4318,0.1524 0.29633,0.1016 0.7874,0.1016 z"
             style="font-style:normal;font-variant:normal;font-weight:normal;font-stretch:normal;font-size:8.46666622px;font-family:Ubuntu;-inkscape-font-specification:Ubuntu;fill:#ffffff;stroke-width:0.26458332"
             id="path8691"
             inkscape:connector-curvature="0" />
          <path
             d="m 568.49258,322.4752 q -0.5334,0 -0.9398,-0.16934 -0.39793,-0.16933 -0.67733,-0.47413 -0.27094,-0.3048 -0.4064,-0.71967 -0.13547,-0.42333 -0.13547,-0.93133 0,-0.508 0.14393,-0.93133 0.1524,-0.42334 0.42334,-0.72814 0.27093,-0.31326 0.6604,-0.4826 0.39793,-0.1778 0.88053,-0.1778 0.29633,0 0.59267,0.0508 0.29633,0.0508 0.56726,0.16087 l -0.1778,0.66887 q -0.1778,-0.0847 -0.41486,-0.13547 -0.2286,-0.0508 -0.49107,-0.0508 -0.6604,0 -1.016,0.41487 -0.34713,0.41486 -0.34713,1.21073 0,0.3556 0.0762,0.65193 0.0847,0.29634 0.254,0.508 0.1778,0.21167 0.44873,0.3302 0.27093,0.11007 0.6604,0.11007 0.31327,0 0.56727,-0.0593 0.254,-0.0593 0.39793,-0.127 l 0.11007,0.6604 q -0.0677,0.0423 -0.19474,0.0847 -0.127,0.0339 -0.28786,0.0593 -0.16087,0.0339 -0.34714,0.0508 -0.1778,0.0254 -0.34713,0.0254 z"
             style="font-style:normal;font-variant:normal;font-weight:normal;font-stretch:normal;font-size:8.46666622px;font-family:Ubuntu;-inkscape-font-specification:Ubuntu;fill:#ffffff;stroke-width:0.26458332"
             id="path8693"
             inkscape:connector-curvature="0" />
          <path
             d="m 574.28524,320.17226 q 0,0.52494 -0.1524,0.94827 -0.1524,0.42333 -0.4318,0.72813 -0.27094,0.3048 -0.65194,0.47414 -0.381,0.16086 -0.82973,0.16086 -0.44873,0 -0.82973,-0.16086 -0.381,-0.16934 -0.6604,-0.47414 -0.27094,-0.3048 -0.42334,-0.72813 -0.1524,-0.42333 -0.1524,-0.94827 0,-0.51646 0.1524,-0.9398 0.1524,-0.4318 0.42334,-0.7366 0.2794,-0.3048 0.6604,-0.46566 0.381,-0.16934 0.82973,-0.16934 0.44873,0 0.82973,0.16934 0.381,0.16086 0.65194,0.46566 0.2794,0.3048 0.4318,0.7366 0.1524,0.42334 0.1524,0.9398 z m -0.82127,0 q 0,-0.74506 -0.33867,-1.17686 -0.3302,-0.44027 -0.90593,-0.44027 -0.57573,0 -0.9144,0.44027 -0.3302,0.4318 -0.3302,1.17686 0,0.74507 0.3302,1.18534 0.33867,0.4318 0.9144,0.4318 0.57573,0 0.90593,-0.4318 0.33867,-0.44027 0.33867,-1.18534 z"
             style="font-style:normal;font-variant:normal;font-weight:normal;font-stretch:normal;font-size:8.46666622px;font-family:Ubuntu;-inkscape-font-specification:Ubuntu;fill:#ffffff;stroke-width:0.26458332"
             id="path8695"
             inkscape:connector-curvature="0" />
        </g>
      </g>
      <g
         aria-label="Alto risco"
         style="font-style:normal;font-variant:normal;font-weight:normal;font-stretch:normal;font-size:6.70277786px;line-height:1.25;font-family:Roboto;-inkscape-font-specification:Roboto;letter-spacing:0px;word-spacing:0px;fill:#b3b3b3;fill-opacity:1;stroke:none;stroke-width:0.26458332"
         id="text6679-3-6-4-3-1-1-9-8">
        <path
           d="m 757.28379,210.93481 q -0.12594,-0.33337 -0.23707,-0.65193 -0.11112,-0.32597 -0.22966,-0.65934 h -2.32621 l -0.46673,1.31127 h -0.74824 q 0.29633,-0.81491 0.55563,-1.50389 0.25929,-0.69638 0.50376,-1.31868 0.25189,-0.6223 0.49636,-1.18533 0.24448,-0.57045 0.51118,-1.12607 h 0.65934 q 0.2667,0.55562 0.51117,1.12607 0.24448,0.56303 0.48895,1.18533 0.25189,0.6223 0.51118,1.31868 0.25929,0.68898 0.55562,1.50389 z m -0.67416,-1.90394 q -0.23707,-0.64452 -0.47413,-1.2446 -0.22966,-0.60748 -0.48154,-1.16311 -0.2593,0.55563 -0.49636,1.16311 -0.22966,0.60008 -0.45932,1.2446 z"
           style="font-style:normal;font-variant:normal;font-weight:normal;font-stretch:normal;font-size:7.4083333px;font-family:Ubuntu;-inkscape-font-specification:Ubuntu;fill:#b3b3b3;stroke-width:0.26458332"
           id="path8618"
           inkscape:connector-curvature="0" />
        <path
           d="m 759.87011,211.0089 q -0.63712,-0.0148 -0.90382,-0.27411 -0.2667,-0.25929 -0.2667,-0.80751 v -4.6228 l 0.68898,-0.11853 v 4.63021 q 0,0.17039 0.0296,0.28151 0.0296,0.11113 0.0963,0.1778 0.0667,0.0667 0.1778,0.10372 0.11112,0.0296 0.27411,0.0519 z"
           style="font-style:normal;font-variant:normal;font-weight:normal;font-stretch:normal;font-size:7.4083333px;font-family:Ubuntu;-inkscape-font-specification:Ubuntu;fill:#b3b3b3;stroke-width:0.26458332"
           id="path8620"
           inkscape:connector-curvature="0" />
        <path
           d="m 761.38465,207.08248 h 1.45944 v 0.57785 h -1.45944 v 1.778 q 0,0.28893 0.0444,0.48154 0.0445,0.18521 0.13335,0.29634 0.0889,0.10371 0.22225,0.14816 0.13335,0.0444 0.31115,0.0444 0.31115,0 0.49636,-0.0667 0.19261,-0.0741 0.2667,-0.10372 l 0.13335,0.57044 q -0.10372,0.0519 -0.36301,0.12594 -0.25929,0.0815 -0.59267,0.0815 -0.39264,0 -0.65193,-0.0963 -0.25188,-0.10372 -0.40746,-0.30374 -0.15557,-0.20003 -0.22225,-0.48895 -0.0593,-0.29634 -0.0593,-0.68157 v -3.43747 l 0.68898,-0.11853 z"
           style="font-style:normal;font-variant:normal;font-weight:normal;font-stretch:normal;font-size:7.4083333px;font-family:Ubuntu;-inkscape-font-specification:Ubuntu;fill:#b3b3b3;stroke-width:0.26458332"
           id="path8622"
           inkscape:connector-curvature="0" />
        <path
           d="m 767.01996,209.00865 q 0,0.45931 -0.13335,0.82973 -0.13335,0.37042 -0.37783,0.63712 -0.23706,0.2667 -0.57044,0.41486 -0.33337,0.14076 -0.72601,0.14076 -0.39265,0 -0.72602,-0.14076 -0.33338,-0.14816 -0.57785,-0.41486 -0.23707,-0.2667 -0.37042,-0.63712 -0.13335,-0.37042 -0.13335,-0.82973 0,-0.45191 0.13335,-0.82233 0.13335,-0.37782 0.37042,-0.64452 0.24447,-0.2667 0.57785,-0.40746 0.33337,-0.14817 0.72602,-0.14817 0.39264,0 0.72601,0.14817 0.33338,0.14076 0.57044,0.40746 0.24448,0.2667 0.37783,0.64452 0.13335,0.37042 0.13335,0.82233 z m -0.71861,0 q 0,-0.65194 -0.29633,-1.02976 -0.28893,-0.38523 -0.79269,-0.38523 -0.50377,0 -0.8001,0.38523 -0.28893,0.37782 -0.28893,1.02976 0,0.65193 0.28893,1.03716 0.29633,0.37783 0.8001,0.37783 0.50376,0 0.79269,-0.37783 0.29633,-0.38523 0.29633,-1.03716 z"
           style="font-style:normal;font-variant:normal;font-weight:normal;font-stretch:normal;font-size:7.4083333px;font-family:Ubuntu;-inkscape-font-specification:Ubuntu;fill:#b3b3b3;stroke-width:0.26458332"
           id="path8624"
           inkscape:connector-curvature="0" />
        <path
           d="m 771.11908,207.00099 q 0.0889,0 0.20003,0.0148 0.11853,0.007 0.22966,0.0296 0.11112,0.0148 0.20002,0.037 0.0963,0.0148 0.14076,0.0296 l -0.11853,0.60008 q -0.0815,-0.0296 -0.27411,-0.0667 -0.18521,-0.0445 -0.48154,-0.0445 -0.19262,0 -0.38524,0.0445 -0.18521,0.037 -0.24447,0.0519 v 3.23744 h -0.68898 v -3.68935 q 0.24448,-0.0889 0.60749,-0.16298 0.363,-0.0815 0.81491,-0.0815 z"
           style="font-style:normal;font-variant:normal;font-weight:normal;font-stretch:normal;font-size:7.4083333px;font-family:Ubuntu;-inkscape-font-specification:Ubuntu;fill:#b3b3b3;stroke-width:0.26458332"
           id="path8626"
           inkscape:connector-curvature="0" />
        <path
           d="m 773.2506,210.93481 h -0.68898 v -3.85233 h 0.68898 z m -0.34819,-4.54871 q -0.18521,0 -0.31856,-0.11854 -0.12594,-0.12594 -0.12594,-0.33337 0,-0.20743 0.12594,-0.32597 0.13335,-0.12594 0.31856,-0.12594 0.18521,0 0.31115,0.12594 0.13335,0.11854 0.13335,0.32597 0,0.20743 -0.13335,0.33337 -0.12594,0.11854 -0.31115,0.11854 z"
           style="font-style:normal;font-variant:normal;font-weight:normal;font-stretch:normal;font-size:7.4083333px;font-family:Ubuntu;-inkscape-font-specification:Ubuntu;fill:#b3b3b3;stroke-width:0.26458332"
           id="path8628"
           inkscape:connector-curvature="0" />
        <path
           d="m 775.33905,210.43846 q 0.42228,0 0.6223,-0.11113 0.20744,-0.11112 0.20744,-0.3556 0,-0.25188 -0.20003,-0.40005 -0.20002,-0.14817 -0.65934,-0.33337 -0.22225,-0.0889 -0.42968,-0.1778 -0.20003,-0.0963 -0.34819,-0.22225 -0.14817,-0.12595 -0.23707,-0.30375 -0.0889,-0.1778 -0.0889,-0.43709 0,-0.51117 0.37782,-0.80751 0.37783,-0.30374 1.02976,-0.30374 0.16299,0 0.32597,0.0222 0.16298,0.0148 0.30374,0.0445 0.14076,0.0222 0.24448,0.0519 0.11112,0.0296 0.17039,0.0519 l -0.12594,0.59267 q -0.11113,-0.0593 -0.3482,-0.11853 -0.23706,-0.0667 -0.57044,-0.0667 -0.28892,0 -0.50376,0.11854 -0.21485,0.11112 -0.21485,0.3556 0,0.12594 0.0444,0.22225 0.0519,0.0963 0.14817,0.1778 0.10372,0.0741 0.25188,0.14075 0.14817,0.0667 0.3556,0.14076 0.27411,0.10372 0.48895,0.20744 0.21485,0.0963 0.36301,0.22965 0.15558,0.13335 0.23707,0.32597 0.0815,0.18521 0.0815,0.45932 0,0.5334 -0.40005,0.80751 -0.39264,0.2741 -1.12607,0.2741 -0.51117,0 -0.8001,-0.0889 -0.28892,-0.0815 -0.39264,-0.12594 l 0.12594,-0.59266 q 0.11854,0.0445 0.37783,0.13335 0.25929,0.0889 0.68897,0.0889 z"
           style="font-style:normal;font-variant:normal;font-weight:normal;font-stretch:normal;font-size:7.4083333px;font-family:Ubuntu;-inkscape-font-specification:Ubuntu;fill:#b3b3b3;stroke-width:0.26458332"
           id="path8630"
           inkscape:connector-curvature="0" />
        <path
           d="m 779.41595,211.02371 q -0.46672,0 -0.82232,-0.14816 -0.34819,-0.14817 -0.59267,-0.41487 -0.23707,-0.2667 -0.3556,-0.62971 -0.11853,-0.37041 -0.11853,-0.81491 0,-0.4445 0.12594,-0.81492 0.13335,-0.37042 0.37042,-0.63712 0.23706,-0.27411 0.57785,-0.42227 0.34819,-0.15558 0.77046,-0.15558 0.25929,0 0.51859,0.0445 0.25929,0.0445 0.49635,0.14076 l -0.15557,0.58526 q -0.15558,-0.0741 -0.36301,-0.11853 -0.20002,-0.0445 -0.42968,-0.0445 -0.57785,0 -0.889,0.363 -0.30374,0.36301 -0.30374,1.0594 0,0.31115 0.0667,0.57044 0.0741,0.25929 0.22225,0.4445 0.15558,0.18521 0.39264,0.28892 0.23707,0.0963 0.57785,0.0963 0.27411,0 0.49636,-0.0519 0.22225,-0.0519 0.34819,-0.11112 l 0.0963,0.57785 q -0.0593,0.037 -0.17039,0.0741 -0.11113,0.0296 -0.25188,0.0519 -0.14076,0.0296 -0.30375,0.0444 -0.15557,0.0222 -0.30374,0.0222 z"
           style="font-style:normal;font-variant:normal;font-weight:normal;font-stretch:normal;font-size:7.4083333px;font-family:Ubuntu;-inkscape-font-specification:Ubuntu;fill:#b3b3b3;stroke-width:0.26458332"
           id="path8632"
           inkscape:connector-curvature="0" />
        <path
           d="m 784.48453,209.00865 q 0,0.45931 -0.13335,0.82973 -0.13335,0.37042 -0.37783,0.63712 -0.23707,0.2667 -0.57044,0.41486 -0.33338,0.14076 -0.72602,0.14076 -0.39264,0 -0.72601,-0.14076 -0.33338,-0.14816 -0.57785,-0.41486 -0.23707,-0.2667 -0.37042,-0.63712 -0.13335,-0.37042 -0.13335,-0.82973 0,-0.45191 0.13335,-0.82233 0.13335,-0.37782 0.37042,-0.64452 0.24447,-0.2667 0.57785,-0.40746 0.33337,-0.14817 0.72601,-0.14817 0.39264,0 0.72602,0.14817 0.33337,0.14076 0.57044,0.40746 0.24448,0.2667 0.37783,0.64452 0.13335,0.37042 0.13335,0.82233 z m -0.71861,0 q 0,-0.65194 -0.29634,-1.02976 -0.28892,-0.38523 -0.79269,-0.38523 -0.50376,0 -0.8001,0.38523 -0.28892,0.37782 -0.28892,1.02976 0,0.65193 0.28892,1.03716 0.29634,0.37783 0.8001,0.37783 0.50377,0 0.79269,-0.37783 0.29634,-0.38523 0.29634,-1.03716 z"
           style="font-style:normal;font-variant:normal;font-weight:normal;font-stretch:normal;font-size:7.4083333px;font-family:Ubuntu;-inkscape-font-specification:Ubuntu;fill:#b3b3b3;stroke-width:0.26458332"
           id="path8634"
           inkscape:connector-curvature="0" />
      </g>
    </g>
  </g>
</svg>
