<?xml version="1.0" encoding="UTF-8" standalone="no"?>
<!-- Created with Inkscape (http://www.inkscape.org/) -->

<svg
   xmlns:dc="http://purl.org/dc/elements/1.1/"
   xmlns:cc="http://creativecommons.org/ns#"
   xmlns:rdf="http://www.w3.org/1999/02/22-rdf-syntax-ns#"
   xmlns:svg="http://www.w3.org/2000/svg"
   xmlns="http://www.w3.org/2000/svg"
   xmlns:sodipodi="http://sodipodi.sourceforge.net/DTD/sodipodi-0.dtd"
   xmlns:inkscape="http://www.inkscape.org/namespaces/inkscape"
   width="508mm"
   height="285.75mm"
   viewBox="0 0 508 285.75"
   version="1.1"
   id="svg4899"
   inkscape:version="0.92.1 r15371"
   sodipodi:docname="bg.svg">
  <defs
     id="defs4893">
    <pattern
       y="0"
       x="0"
       height="6"
       width="6"
       patternUnits="userSpaceOnUse"
       id="EMFhbasepattern" />
  </defs>
  <sodipodi:namedview
     id="base"
     pagecolor="#ffffff"
     bordercolor="#666666"
     borderopacity="1.0"
     inkscape:pageopacity="0.0"
     inkscape:pageshadow="2"
     inkscape:zoom="0.35"
     inkscape:cx="911.42856"
     inkscape:cy="514.28573"
     inkscape:document-units="mm"
     inkscape:current-layer="layer1"
     showgrid="false"
     fit-margin-top="0"
     fit-margin-left="0"
     fit-margin-right="0"
     fit-margin-bottom="0"
     inkscape:window-width="1920"
     inkscape:window-height="1018"
     inkscape:window-x="-8"
     inkscape:window-y="-8"
     inkscape:window-maximized="1" />
  <metadata
     id="metadata4896">
    <rdf:RDF>
      <cc:Work
         rdf:about="">
        <dc:format>image/svg+xml</dc:format>
        <dc:type
           rdf:resource="http://purl.org/dc/dcmitype/StillImage" />
        <dc:title></dc:title>
      </cc:Work>
    </rdf:RDF>
  </metadata>
  <g
     inkscape:label="Layer 1"
     inkscape:groupmode="layer"
     id="layer1"
     transform="translate(247.19643,-120.8631)">
    <rect
       inkscape:export-ydpi="90"
       inkscape:export-xdpi="90"
       ry="0.00019974291"
       rx="7.1851578e-006"
       y="120.8631"
       x="-247.19643"
       height="285.75"
       width="508"
       id="rect7689-6-8-7-1"
       style="opacity:1;vector-effect:none;fill:#8d216c;fill-opacity:1;stroke:none;stroke-width:0.5;stroke-linecap:butt;stroke-linejoin:miter;stroke-miterlimit:4;stroke-dasharray:0.49999998, 1.00000003;stroke-dashoffset:0;stroke-opacity:1"
       inkscape:export-filename="F:\SESI\Layout\RST\Novas telas\login01.png" />
    <g
       id="g4570"
       transform="translate(-34.773806,0.52916043)">
      <path
         inkscape:connector-curvature="0"
         style="fill:#6ccff5;fill-opacity:1;fill-rule:nonzero;stroke:none;stroke-width:0.26458332"
         d="m -106.79994,187.96178 c 0.0212,0.46567 0.0847,0.91016 0.21167,1.35466 0.254,0.97366 0.71966,1.84149 1.41816,2.60348 l 0.14816,0.14817 c 0.0212,0.0212 0.0423,0.0423 0.0635,0.0635 l 0.0635,0.0635 c 0.0212,0.0212 0.0635,0.0635 0.0847,0.0847 0.0212,0.0212 0.0423,0.0423 0.0635,0.0635 l 0.0423,0.0212 c 0.254,0.23283 0.50799,0.44449 0.78316,0.61383 0.93132,0.57149 1.98965,0.95249 3.06914,1.07949 0.0847,0 0.14817,0.0212 0.23284,0.0212 h 0.0423 c 0.0635,0 0.127,0 0.1905,0.0212 0.0423,0 0.0635,0 0.0847,0 0.0635,0 0.10584,0 0.16933,0 0.0423,0 0.0635,0 0.10584,0 0.0423,0 0.0847,0 0.127,0 0.0635,0 0.10583,0 0.14816,0 0.0423,0 0.0635,0 0.0847,0 0.0635,-0.0212 0.127,-0.0212 0.1905,-0.0212 h 0.0635 c 0.0635,0 0.14817,-0.0212 0.23284,-0.0212 1.07949,-0.127 2.13782,-0.508 3.04797,-1.07949 0.27517,-0.1905 0.55033,-0.381 0.80433,-0.61383 l 0.0423,-0.0212 c 0.0212,-0.0212 0.0423,-0.0423 0.0635,-0.0635 0.0212,-0.0212 0.0423,-0.0635 0.0635,-0.0847 l 0.0847,-0.0635 c 0.0212,-0.0212 0.0423,-0.0423 0.0635,-0.0635 l 0.0635,-0.0635 c 0.0212,-0.0212 0.0423,-0.0423 0.0635,-0.0635 0.69849,-0.78316 1.18532,-1.65099 1.43932,-2.62465 0.127,-0.4445 0.1905,-0.88899 0.21167,-1.35466 v 0 -0.1905 c 0.0212,-0.52916 0,-1.07949 -0.0847,-1.62982 l -0.33866,-2.13782 c -0.21167,-1.84148 0.38099,-2.83631 0.97366,-3.64063 0.44449,-0.59267 1.05832,-1.07949 1.79915,-1.41816 0.0423,-0.0212 0.10583,-0.0423 0.14816,-0.0635 l 0.10584,-0.0423 c 0.0847,-0.0423 0.14816,-0.0635 0.23283,-0.10584 l 0.127,-0.0212 c 0.0635,-0.0423 0.14816,-0.0635 0.21166,-0.0847 0.0423,0 0.10584,-0.0212 0.14817,-0.0212 l 0.127,-0.0423 c 0.0847,-0.0212 0.14816,-0.0212 0.23283,-0.0423 0.0423,0 0.0847,0 0.10583,-0.0212 0.0847,0 0.16933,-0.0212 0.254,-0.0212 h 0.0847 c 0.0635,-0.0212 0.14816,-0.0212 0.21166,-0.0212 h 0.0635 c 0.10583,0 0.1905,0 0.27517,0.0212 h 0.0635 c 0.10583,0 0.19049,0.0212 0.27516,0.0212 l 0.0635,0.0212 c 0.0847,0.0212 0.16933,0.0423 0.254,0.0635 l 1.33349,0.33866 c 0.52916,0.14817 1.10065,0.23284 1.65099,0.23284 v 0 c 1.69332,0 3.32314,-0.67733 4.48729,-1.86266 0.254,-0.254 0.508,-0.57149 0.78317,-1.03716 0.65616,-1.01599 1.03715,-2.18015 1.12182,-3.36547 v -0.0423 c 0,0 0,-0.35983 0,-0.42333 0,-0.0423 0,-0.1905 0,-0.23284 0,-0.0423 0,-0.0847 0,-0.14816 v -0.29633 c -0.0847,-1.20649 -0.46566,-2.34949 -1.12182,-3.36548 -0.27517,-0.46566 -0.52917,-0.78316 -0.78317,-1.03716 -1.16415,-1.18532 -2.79397,-1.86265 -4.46613,-1.86265 -0.59266,0 -1.14299,0.0847 -1.67215,0.23283 l -1.33349,0.33867 c -0.0847,0.0212 -0.16933,0.0423 -0.254,0.0635 h -0.0635 c -0.0847,0.0212 -0.16933,0.0423 -0.27516,0.0423 h -0.0635 c -0.0847,0.0212 -0.16934,0.0212 -0.254,0.0212 h -0.0847 c -0.0635,0 -0.14817,-0.0212 -0.21166,-0.0212 h -0.0847 c -0.0847,0 -0.16933,-0.0212 -0.254,-0.0212 -0.0212,-0.0212 -0.0423,-0.0212 -0.0847,-0.0212 h -0.0212 c -0.0847,-0.0212 -0.14817,-0.0212 -0.23283,-0.0423 -0.0423,-0.0212 -0.0847,-0.0212 -0.127,-0.0423 -0.0423,0 -0.10583,-0.0212 -0.14817,-0.0212 -0.0635,-0.0212 -0.14816,-0.0423 -0.21166,-0.0847 -0.0423,0 -0.0847,-0.0212 -0.127,-0.0212 -0.0635,-0.0423 -0.127,-0.0635 -0.1905,-0.0847 -0.0423,-0.0212 -0.10583,-0.0423 -0.14817,-0.0635 -0.0423,-0.0212 -0.10583,-0.0423 -0.14816,-0.0635 -0.74083,-0.33867 -1.35466,-0.8255 -1.79915,-1.41816 -0.59267,-0.80433 -1.18533,-1.79915 -0.97366,-3.64064 l 0.33866,-2.13782 c 0.0847,-0.57149 0.10583,-1.12182 0.0847,-1.62982 v -0.1905 0 c -0.0212,-0.46566 -0.0847,-0.91016 -0.21167,-1.35466 -0.254,-0.97365 -0.74083,-1.86265 -1.43932,-2.60348 l -0.0212,-0.0212 c 0,-0.0212 -0.0212,-0.0423 -0.0423,-0.0635 l -0.0635,-0.0635 c -0.0212,-0.0212 -0.0423,-0.0635 -0.0847,-0.0847 l -0.0635,-0.0423 c -0.0212,-0.0423 -0.0423,-0.0635 -0.0635,-0.0847 l -0.10584,-0.0847 c -0.254,-0.23283 -0.52916,-0.4445 -0.78316,-0.61383 -0.93132,-0.5715 -1.98965,-0.95249 -3.06914,-1.07949 h -0.0212 c -0.0847,0 -0.14817,-0.0212 -0.23283,-0.0212 l -0.29633,-0.0212 c -0.0635,0 -0.10583,0 -0.16933,0 -0.0423,0 -0.0847,0 -0.127,0 -0.0423,0 -0.0635,0 -0.10584,0 -0.0635,0 -0.10583,0 -0.16933,0 l -0.31749,0.0212 c -0.0635,0 -0.127,0.0212 -0.21167,0.0212 h -0.0212 c -1.07949,0.127 -2.13782,0.50799 -3.06914,1.07949 -0.27517,0.16933 -0.52916,0.381 -0.78316,0.61383 l -0.10583,0.0847 c -0.0212,0.0212 -0.0635,0.0423 -0.0847,0.0635 l -0.0635,0.0847 c -0.0212,0.0212 -0.0423,0.0423 -0.0635,0.0635 l -0.14816,0.14816 c -0.6985,0.74083 -1.16416,1.62982 -1.41816,2.60348 -0.127,0.4445 -0.1905,0.889 -0.21167,1.35466 v 0 0.1905 c -0.0212,0.52916 0,1.05833 0.0847,1.62982 l 0.33866,2.11665 c 0.21167,1.86265 -0.40216,2.85748 -0.99482,3.66181 -0.8255,1.14299 -2.37065,1.90498 -3.83114,1.90498 -0.33867,0 -0.65616,-0.0423 -0.95249,-0.12699 l -1.31233,-0.33867 c -0.55033,-0.16933 -1.12182,-0.23283 -1.67215,-0.23283 -1.69332,0 -3.30198,0.67733 -4.46613,1.86265 -0.33867,0.33867 -0.59267,0.71966 -0.80433,1.03716 -0.635,1.01599 -1.01599,2.20132 -1.10066,3.40781 0,0 0,0.127 0,0.1905 l -0.0212,0.0635 c 0,0.0635 0,0.10583 0,0.14816 0,0.0423 0,0.0847 0,0.127 0,0.0423 0,0.0635 0,0.10584 0,0.0635 0,0.10583 0,0.14816 l 0.0212,0.0847 c 0,0.0635 0,0.1905 0,0.1905 0.0847,1.20649 0.46566,2.39181 1.10066,3.4078 0.21166,0.3175 0.46566,0.6985 0.80433,1.03716 1.16415,1.18533 2.77281,1.86266 4.46613,1.86266 0.55033,0 1.12182,-0.0847 1.67215,-0.23284 l 1.31233,-0.33866 c 0.29633,-0.0847 0.61382,-0.127 0.93132,-0.127 1.48166,0 3.02681,0.762 3.85231,1.90499 0.59266,0.80432 1.20649,1.79915 0.99482,3.64063 l -0.33866,2.13782 c -0.0847,0.55033 -0.10583,1.10066 -0.0847,1.62982 z"
         id="path4503" />
      <path
         inkscape:connector-curvature="0"
         style="fill:none;stroke:#6ccff5;stroke-width:0.69849485px;stroke-linecap:round;stroke-linejoin:round;stroke-miterlimit:4;stroke-dasharray:none;stroke-opacity:1"
         d="m -157.40906,174.39405 c 0.0212,0.4445 0.10583,0.91016 0.21166,1.33349 0.254,0.99483 0.74083,1.86265 1.43933,2.62465 l 0.127,0.14816 c 0.0212,0.0212 0.0423,0.0423 0.0635,0.0635 l 0.0847,0.0635 c 0.0212,0.0212 0.0423,0.0423 0.0635,0.0847 0.0423,0.0212 0.0635,0.0212 0.0847,0.0423 l 0.0212,0.0423 c 0.254,0.23284 0.52916,0.42334 0.80433,0.59267 0.91016,0.59266 1.96849,0.97366 3.06914,1.07949 0.0635,0.0212 0.14817,0.0212 0.23283,0.0423 h 0.0423 c 0.0635,0 0.127,0 0.1905,0 0.0212,0 0.0423,0 0.0847,0 0.0423,0 0.10584,0.0212 0.14817,0.0212 0.0423,0 0.0847,0 0.127,0 0.0423,0 0.0847,0 0.10583,0 0.0635,0 0.127,-0.0212 0.16933,-0.0212 0.0212,0 0.0635,0 0.0847,0 0.0635,0 0.127,0 0.1905,0 h 0.0423 c 0.0847,-0.0212 0.14817,-0.0212 0.23283,-0.0423 1.10066,-0.10583 2.15898,-0.48683 3.06915,-1.07949 0.27516,-0.16933 0.52916,-0.35983 0.80432,-0.59267 l 0.0212,-0.0423 c 0.0212,-0.0212 0.0423,-0.0212 0.0635,-0.0423 0.0423,-0.0423 0.0635,-0.0635 0.0847,-0.0847 l 0.0635,-0.0635 c 0.0212,-0.0212 0.0635,-0.0423 0.0847,-0.0635 l 0.0423,-0.0635 c 0.0423,-0.0423 0.0423,-0.0635 0.0635,-0.0847 0.71966,-0.762 1.20649,-1.62982 1.46049,-2.62465 0.10584,-0.42333 0.1905,-0.88899 0.21167,-1.33349 v 0 -0.21166 c 0.0212,-0.508 -0.0212,-1.05833 -0.0847,-1.62983 l -0.33866,-2.11665 c -0.23283,-1.84148 0.381,-2.85748 0.97366,-3.64064 0.42333,-0.59266 1.05832,-1.07949 1.79915,-1.41815 0.0423,-0.0423 0.0847,-0.0635 0.14817,-0.0847 l 0.0847,-0.0212 c 0.0847,-0.0423 0.16933,-0.0847 0.254,-0.10583 l 0.10583,-0.0423 c 0.0847,-0.0212 0.16933,-0.0423 0.23283,-0.0635 0.0423,-0.0212 0.0847,-0.0212 0.14817,-0.0423 l 0.127,-0.0212 c 0.0847,-0.0212 0.14817,-0.0423 0.23283,-0.0423 0.0423,-0.0212 0.0635,-0.0212 0.10583,-0.0212 0.0847,-0.0212 0.16934,-0.0212 0.254,-0.0212 l 0.0635,-0.0212 c 0.0847,0 0.16933,0 0.23283,0 h 0.0635 c 0.10583,0 0.1905,0 0.27517,0 l 0.0635,0.0212 c 0.0847,0 0.1905,0 0.27517,0.0212 l 0.0423,0.0212 c 0.10584,0 0.16934,0.0212 0.254,0.0423 l 1.33349,0.35983 c 0.55033,0.14816 1.10066,0.23283 1.67215,0.23283 v 0 c 1.69333,0 3.32315,-0.67733 4.48731,-1.86265 0.25399,-0.27517 0.50799,-0.59267 0.78316,-1.03716 0.63499,-1.016 1.01599,-2.18015 1.10066,-3.38664 l 0.0212,-0.0212 c 0,0 0,-0.381 0,-0.42333 0,-0.0423 0,-0.1905 0,-0.23283 0,-0.0423 0,-0.0847 0,-0.14817 v -0.29633 c -0.0847,-1.20649 -0.46566,-2.37065 -1.12182,-3.36547 -0.27517,-0.46567 -0.52917,-0.78317 -0.78316,-1.05833 -1.16416,-1.16416 -2.79398,-1.84149 -4.46614,-1.84149 -0.57149,0 -1.14299,0.0635 -1.67215,0.21167 l -1.33349,0.35983 c -0.0847,0.0212 -0.16933,0.0423 -0.254,0.0635 h -0.0635 c -0.0847,0.0212 -0.16933,0.0212 -0.27517,0.0423 h -0.0635 c -0.0847,0 -0.16934,0.0212 -0.254,0.0212 l -0.0847,-0.0212 c -0.0635,0 -0.14816,0 -0.21166,0 h -0.0847 c -0.0847,-0.0212 -0.16933,-0.0212 -0.254,-0.0423 -0.0212,0 -0.0423,0 -0.0847,0 h -0.0212 c -0.0847,-0.0212 -0.14816,-0.0423 -0.23283,-0.0635 -0.0423,0 -0.0847,-0.0212 -0.127,-0.0212 -0.0423,-0.0212 -0.10583,-0.0212 -0.14817,-0.0423 -0.0635,-0.0212 -0.14816,-0.0423 -0.21166,-0.0635 -0.0423,0 -0.0847,-0.0212 -0.127,-0.0423 -0.0635,-0.0212 -0.127,-0.0423 -0.1905,-0.0635 -0.0423,-0.0212 -0.10583,-0.0423 -0.14816,-0.0635 -0.0423,-0.0212 -0.10584,-0.0423 -0.14817,-0.0635 -0.74083,-0.35983 -1.35466,-0.84666 -1.79915,-1.41816 -0.5715,-0.80432 -1.18533,-1.79915 -0.97366,-3.64064 l 0.33866,-2.13781 c 0.0847,-0.5715 0.10584,-1.12183 0.0847,-1.62983 v -0.21166 0 c -0.0212,-0.4445 -0.10583,-0.88899 -0.21167,-1.33349 -0.254,-0.97366 -0.74083,-1.86265 -1.43932,-2.60348 l -0.0212,-0.0423 c -0.0212,0 -0.0212,-0.0212 -0.0423,-0.0423 l -0.0635,-0.0847 c -0.0212,-0.0212 -0.0635,-0.0423 -0.0847,-0.0635 l -0.0635,-0.0635 c -0.0212,-0.0212 -0.0423,-0.0423 -0.0635,-0.0635 l -0.10584,-0.0847 c -0.254,-0.23283 -0.52916,-0.44449 -0.80432,-0.61383 -0.91017,-0.59266 -1.96849,-0.95249 -3.06915,-1.07949 v 0 c -0.0847,-0.0212 -0.14816,-0.0212 -0.23283,-0.0212 l -0.3175,-0.0212 c -0.0423,0 -0.10583,0 -0.14816,0 -0.0423,0 -0.0847,0 -0.127,0 -0.0423,0 -0.0847,0 -0.10583,0 -0.0635,0 -0.127,0 -0.16934,0 l -0.3175,0.0212 c -0.0635,0 -0.14816,0 -0.21166,0.0212 h -0.0212 c -1.10065,0.127 -2.15898,0.48683 -3.06914,1.07949 -0.27517,0.16934 -0.52916,0.381 -0.80433,0.61383 l -0.0847,0.0847 c -0.0423,0.0212 -0.0635,0.0423 -0.0847,0.0635 l -0.0635,0.0847 c -0.0212,0.0212 -0.0635,0.0423 -0.0847,0.0635 l -0.127,0.14817 c -0.6985,0.74083 -1.18533,1.62982 -1.41816,2.60348 -0.127,0.4445 -0.21166,0.88899 -0.23283,1.33349 h 0.0212 v 0.21166 c -0.0212,0.508 0,1.05833 0.0847,1.62983 l 0.33867,2.11665 c 0.21166,1.86265 -0.40217,2.85748 -0.99483,3.6618 -0.82549,1.12183 -2.37065,1.90499 -3.85231,1.90499 -0.31749,0 -0.63499,-0.0423 -0.93132,-0.127 l -1.31233,-0.35983 c -0.55032,-0.14817 -1.12182,-0.21167 -1.67215,-0.21167 -1.69332,0 -3.30198,0.67733 -4.46613,1.84149 -0.33867,0.33866 -0.59267,0.74083 -0.80433,1.05833 -0.635,1.01599 -1.01599,2.20131 -1.10066,3.4078 0,0 0,0.127 -0.0212,0.1905 v 0.0635 0.14817 c 0,0.0423 0,0.0847 0,0.127 0,0.0212 0,0.0635 0,0.10583 0,0.0423 0,0.10583 0,0.14816 v 0.0847 c 0,0.0635 0.0212,0.1905 0.0212,0.1905 0.0847,1.20649 0.46566,2.37065 1.10066,3.40781 0.21166,0.29633 0.46566,0.69849 0.80433,1.03716 1.16415,1.18532 2.77281,1.86265 4.46613,1.86265 0.55033,0 1.12183,-0.0847 1.67215,-0.23283 l 1.31233,-0.33867 c 0.29633,-0.0847 0.61383,-0.127 0.93132,-0.127 1.48166,0 3.02682,0.762 3.85231,1.90499 0.59266,0.78316 1.20649,1.79915 0.99483,3.64064 l -0.33867,2.11665 c -0.0847,0.5715 -0.10583,1.12183 -0.0847,1.62982 v 0.21167 z"
         id="path4505" />
      <path
         inkscape:connector-curvature="0"
         style="fill:none;stroke:#6ccff5;stroke-width:0.69849485px;stroke-linecap:round;stroke-linejoin:round;stroke-miterlimit:4;stroke-dasharray:none;stroke-opacity:1"
         d="m -139.07887,208.38746 c 0.0212,0.4445 0.10584,0.889 0.21167,1.33349 0.254,0.97367 0.74083,1.86266 1.43932,2.60349 l 0.127,0.14816 c 0.0212,0.0212 0.0423,0.0423 0.0635,0.0635 l 0.0635,0.0635 c 0.0423,0.0423 0.0635,0.0635 0.0847,0.0847 0.0212,0.0212 0.0423,0.0423 0.0635,0.0635 l 0.0423,0.0212 c 0.254,0.23283 0.52916,0.4445 0.80433,0.61383 0.91016,0.5715 1.96848,0.95249 3.04798,1.07949 0.0847,0 0.16933,0.0212 0.25399,0.0212 h 0.0423 c 0.0635,0 0.127,0.0212 0.19049,0.0212 0.0212,0 0.0423,0 0.0847,0 0.0423,0 0.10583,0 0.14817,0 0.0423,0 0.0847,0 0.12699,0 0.0423,0 0.0635,0 0.10584,0 0.0635,0 0.10583,0 0.16933,0 0.0212,0 0.0423,0 0.0847,0 0.0635,0 0.127,-0.0212 0.1905,-0.0212 h 0.0423 c 0.0847,0 0.14816,-0.0212 0.23283,-0.0212 1.10066,-0.127 2.15898,-0.50799 3.06914,-1.07949 0.27517,-0.16933 0.52917,-0.381 0.80433,-0.61383 l 0.0212,-0.0212 c 0.0212,-0.0212 0.0423,-0.0423 0.0635,-0.0635 0.0423,-0.0212 0.0635,-0.0423 0.0847,-0.0635 l 0.0635,-0.0635 c 0.0212,-0.0423 0.0423,-0.0635 0.0635,-0.0847 l 0.0635,-0.0635 c 0.0212,-0.0212 0.0423,-0.0423 0.0635,-0.0635 0.71966,-0.76199 1.18533,-1.65098 1.43932,-2.62465 0.127,-0.44449 0.1905,-0.88899 0.21167,-1.33349 v 0 l 0.0212,-0.21166 c 0.0212,-0.52916 -0.0212,-1.07949 -0.0847,-1.62982 l -0.33866,-2.11665 c -0.23283,-1.86266 0.381,-2.85748 0.97366,-3.66181 0.42333,-0.57149 1.03716,-1.05832 1.77798,-1.41816 0.0635,-0.0212 0.10584,-0.0423 0.16934,-0.0635 l 0.0847,-0.0423 c 0.0847,-0.0423 0.16934,-0.0635 0.254,-0.0847 l 0.10583,-0.0423 c 0.0847,-0.0212 0.14817,-0.0423 0.23284,-0.0635 0.0423,-0.0212 0.0847,-0.0423 0.12699,-0.0423 l 0.14817,-0.0423 c 0.0635,0 0.14816,-0.0212 0.23283,-0.0423 0.0212,0 0.0635,0 0.10583,0 0.0847,-0.0212 0.16933,-0.0212 0.254,-0.0423 h 0.0635 c 0.0847,0 0.16933,-0.0212 0.23283,-0.0212 h 0.0635 c 0.0847,0 0.1905,0.0212 0.27517,0.0212 h 0.0635 c 0.0847,0 0.16933,0.0212 0.25399,0.0423 h 0.0635 c 0.0847,0.0212 0.16934,0.0423 0.254,0.0635 l 1.33349,0.35983 c 0.55033,0.14817 1.10066,0.21167 1.67216,0.21167 v 0 c 1.69332,0 3.32314,-0.67733 4.46613,-1.84149 0.27516,-0.27516 0.508,-0.59266 0.80433,-1.05832 0.63499,-0.99483 1.01599,-2.18015 1.10066,-3.36548 v -0.0423 c 0,0 0.0212,-0.35983 0.0212,-0.42333 0,-0.0212 0,-0.1905 0,-0.21167 0,-0.0635 0,-0.10583 0,-0.14816 v -0.3175 c -0.10583,-1.18532 -0.48683,-2.34948 -1.12182,-3.36547 -0.27517,-0.4445 -0.52917,-0.78316 -0.78316,-1.03716 -1.16416,-1.18533 -2.79398,-1.86266 -4.46614,-1.86266 -0.59266,0 -1.14299,0.0847 -1.67215,0.23284 l -1.33349,0.33866 c -0.10583,0.0423 -0.16933,0.0423 -0.254,0.0635 l -0.0635,0.0212 c -0.0847,0 -0.1905,0.0212 -0.27516,0.0212 l -0.0635,0.0212 c -0.0847,0 -0.16933,0 -0.27517,0 h -0.0635 c -0.0635,0 -0.14816,0 -0.21166,0 l -0.0847,-0.0212 c -0.0847,0 -0.16933,-0.0212 -0.254,-0.0212 -0.0212,0 -0.0635,0 -0.0847,-0.0212 h -0.0212 c -0.0847,-0.0212 -0.14816,-0.0212 -0.23283,-0.0423 -0.0423,0 -0.0847,-0.0212 -0.127,-0.0212 -0.0635,-0.0212 -0.10583,-0.0423 -0.14816,-0.0423 -0.0635,-0.0212 -0.14817,-0.0423 -0.21167,-0.0635 -0.0423,-0.0212 -0.0847,-0.0423 -0.127,-0.0423 -0.0635,-0.0212 -0.127,-0.0423 -0.1905,-0.0847 -0.0423,-0.0212 -0.10583,-0.0212 -0.14816,-0.0635 -0.0423,0 -0.10584,-0.0423 -0.14817,-0.0635 -0.74083,-0.33867 -1.37582,-0.82549 -1.79915,-1.41816 -0.59266,-0.78316 -1.20649,-1.79915 -0.97366,-3.64063 l 0.33866,-2.13782 c 0.0847,-0.55033 0.10583,-1.10066 0.0847,-1.60866 v -0.21166 0 c -0.0212,-0.4445 -0.10583,-0.91016 -0.21167,-1.33349 -0.25399,-0.99483 -0.74083,-1.86266 -1.43932,-2.62465 l -0.0212,-0.0212 c -0.0212,-0.0212 -0.0423,-0.0423 -0.0423,-0.0635 l -0.0847,-0.0635 c -0.0212,-0.0212 -0.0423,-0.0423 -0.0635,-0.0635 l -0.0635,-0.0635 c -0.0212,-0.0212 -0.0423,-0.0635 -0.0847,-0.0847 l -0.0847,-0.0847 c -0.25399,-0.23283 -0.52916,-0.42333 -0.80432,-0.59266 -0.91016,-0.59266 -1.96849,-0.97366 -3.06915,-1.10066 h -0.0212 c -0.0635,0 -0.127,0 -0.21167,-0.0212 l -0.3175,-0.0212 c -0.0423,0 -0.10583,0 -0.14816,0 -0.0423,0 -0.0847,0 -0.127,0 -0.0423,0 -0.0847,0 -0.127,0 -0.0423,0 -0.10583,0 -0.14817,0 l -0.31749,0.0212 c -0.0847,0.0212 -0.14817,0.0212 -0.21167,0.0212 h -0.0212 c -1.10066,0.127 -2.15899,0.508 -3.06915,1.10066 -0.27516,0.16933 -0.55033,0.35983 -0.80433,0.59266 l -0.10583,0.0847 c -0.0212,0.0212 -0.0423,0.0635 -0.0635,0.0847 l -0.0847,0.0635 c -0.0212,0.0212 -0.0423,0.0423 -0.0635,0.0635 l -0.127,0.14817 c -0.6985,0.76199 -1.18533,1.62982 -1.43933,2.60348 -0.10583,0.4445 -0.1905,0.91016 -0.21166,1.35466 v 0 0.1905 c -0.0212,0.52916 0,1.07949 0.0847,1.65098 l 0.33867,2.11666 c 0.21166,1.84148 -0.40217,2.85747 -0.97366,3.64063 -0.84666,1.14299 -2.39182,1.90499 -3.8523,1.90499 -0.33867,0 -0.65617,-0.0423 -0.93133,-0.127 l -1.33349,-0.33866 c -0.55033,-0.14817 -1.10066,-0.23284 -1.67216,-0.23284 -1.67215,0 -3.30197,0.67733 -4.46613,1.86266 -0.33866,0.33866 -0.59266,0.74083 -0.78316,1.03716 -0.65616,1.03716 -1.03716,2.20131 -1.12182,3.4078 0,0 0,0.127 0,0.1905 v 0.0847 0.14816 0.10584 0.10583 0.16933 0.0635 c 0,0.0635 0,0.1905 0,0.1905 0.0847,1.20649 0.46566,2.39182 1.12182,3.40781 0.1905,0.3175 0.4445,0.71966 0.78316,1.05832 1.16416,1.16416 2.79398,1.84149 4.46613,1.84149 0.5715,0 1.12183,-0.0635 1.67216,-0.21167 l 1.33349,-0.35983 c 0.27516,-0.0847 0.59266,-0.12699 0.93133,-0.12699 1.46048,0 3.00564,0.76199 3.8523,1.90498 0.57149,0.80433 1.18532,1.79915 0.97366,3.64064 l -0.33867,2.13782 c -0.0847,0.5715 -0.10583,1.10066 -0.0847,1.62982 z"
         id="path4507" />
      <path
         inkscape:connector-curvature="0"
         style="fill:none;stroke:#6ccff5;stroke-width:0.69849485px;stroke-linecap:round;stroke-linejoin:round;stroke-miterlimit:4;stroke-dasharray:none;stroke-opacity:1"
         d="m -119.60567,241.25905 c 0.0212,0.46567 0.10583,0.91016 0.21166,1.35466 0.254,0.97366 0.74083,1.86265 1.43932,2.60348 l 0.14817,0.14817 c 0,0.0212 0.0212,0.0423 0.0423,0.0635 l 0.0847,0.0635 c 0.0212,0.0212 0.0423,0.0635 0.0635,0.0847 0.0423,0.0212 0.0635,0.0423 0.0847,0.0635 l 0.0212,0.0212 c 0.254,0.23283 0.52916,0.44449 0.80433,0.61383 0.91016,0.57149 1.96848,0.95249 3.06914,1.07949 0.0635,0 0.14817,0.0212 0.23283,0.0212 h 0.0423 c 0.0635,0 0.127,0.0212 0.1905,0.0212 0.0212,0 0.0635,0 0.0847,0 0.0423,0 0.10583,0 0.14816,0 0.0423,0 0.0847,0 0.127,0 0.0423,0 0.0847,0 0.127,0 0.0423,0 0.10584,0 0.14817,0 0.0212,0 0.0635,0 0.0847,0 0.0635,0 0.127,-0.0212 0.19049,-0.0212 h 0.0423 c 0.0847,0 0.16933,-0.0212 0.23283,-0.0212 1.10066,-0.127 2.15898,-0.508 3.06914,-1.07949 0.27517,-0.16934 0.52917,-0.381 0.80433,-0.61383 l 0.0212,-0.0212 c 0.0212,-0.0212 0.0423,-0.0423 0.0635,-0.0635 0.0423,-0.0212 0.0635,-0.0423 0.0847,-0.0847 l 0.0635,-0.0635 c 0.0212,-0.0212 0.0635,-0.0423 0.0847,-0.0635 l 0.0423,-0.0635 c 0.0423,-0.0212 0.0423,-0.0423 0.0635,-0.0635 0.71966,-0.762 1.20649,-1.65099 1.46049,-2.62465 0.10583,-0.4445 0.1905,-0.88899 0.21166,-1.35466 v 0 -0.19049 c 0.0212,-0.52917 -0.0212,-1.07949 -0.0847,-1.62983 l -0.33867,-2.11665 c -0.23283,-1.86265 0.381,-2.85747 0.97366,-3.6618 0.42333,-0.5715 1.05833,-1.0795 1.79916,-1.41816 0.0423,-0.0212 0.0847,-0.0423 0.14816,-0.0635 l 0.0847,-0.0423 c 0.0847,-0.0423 0.16933,-0.0635 0.254,-0.10583 l 0.10583,-0.0212 c 0.0847,-0.0423 0.16933,-0.0635 0.23283,-0.0847 0.0423,0 0.0847,-0.0212 0.14817,-0.0212 l 0.12699,-0.0423 c 0.0847,0 0.14817,-0.0212 0.23284,-0.0423 0.0423,0 0.0635,0 0.10583,-0.0212 0.0847,0 0.16933,-0.0212 0.254,-0.0212 h 0.0635 c 0.0847,-0.0212 0.16933,-0.0212 0.23283,-0.0212 h 0.0635 c 0.10583,0 0.1905,0 0.27516,0.0212 h 0.0635 c 0.0847,0 0.1905,0.0212 0.27517,0.0423 h 0.0423 c 0.10583,0.0212 0.1905,0.0423 0.254,0.0635 l 1.33349,0.33866 c 0.55033,0.16933 1.10066,0.23283 1.67215,0.23283 v 0 c 1.69332,0 3.32314,-0.67732 4.4873,-1.86265 0.254,-0.254 0.508,-0.5715 0.78316,-1.03716 0.635,-1.01599 1.03716,-2.18015 1.12183,-3.36547 v -0.0423 c 0,0 0,-0.35983 0,-0.42332 0,-0.0423 0,-0.1905 0,-0.21167 0,-0.0635 0,-0.10583 0,-0.14817 v -0.3175 c -0.0847,-1.18532 -0.46566,-2.34948 -1.12183,-3.36547 -0.27516,-0.4445 -0.52916,-0.78316 -0.78316,-1.03716 -1.16416,-1.18532 -2.79398,-1.86265 -4.46613,-1.86265 -0.5715,0 -1.14299,0.0847 -1.67216,0.23283 l -1.33348,0.33866 c -0.0847,0.0212 -0.16934,0.0423 -0.254,0.0635 l -0.0635,0.0212 c -0.0847,0 -0.16934,0.0212 -0.254,0.0212 h -0.0847 c -0.0847,0.0212 -0.16933,0.0212 -0.25399,0.0212 h -0.0847 c -0.0635,0 -0.14817,0 -0.21167,-0.0212 h -0.0847 c -0.0847,0 -0.16933,-0.0212 -0.254,-0.0212 -0.0212,0 -0.0423,-0.0212 -0.0847,-0.0212 h -0.0212 c -0.0847,-0.0212 -0.14817,-0.0212 -0.23284,-0.0423 -0.0423,-0.0212 -0.0847,-0.0212 -0.12699,-0.0423 -0.0423,0 -0.10584,-0.0212 -0.14817,-0.0212 -0.0635,-0.0212 -0.14817,-0.0423 -0.21166,-0.0635 -0.0423,-0.0212 -0.0847,-0.0423 -0.127,-0.0423 -0.0635,-0.0212 -0.127,-0.0635 -0.1905,-0.0847 -0.0423,-0.0212 -0.0847,-0.0423 -0.14817,-0.0635 -0.0423,-0.0212 -0.10583,-0.0423 -0.14816,-0.0635 -0.74083,-0.33866 -1.35466,-0.82549 -1.79916,-1.41815 -0.57149,-0.80433 -1.18532,-1.79916 -0.97366,-3.64064 l 0.33867,-2.13782 c 0.0847,-0.55033 0.10583,-1.10066 0.0847,-1.62982 v -0.1905 0 c -0.0212,-0.46566 -0.10583,-0.91016 -0.21166,-1.35466 -0.254,-0.97366 -0.74083,-1.84148 -1.43932,-2.60348 l -0.0212,-0.0212 c -0.0212,-0.0212 -0.0212,-0.0423 -0.0423,-0.0635 l -0.0635,-0.0635 c -0.0212,-0.0212 -0.0635,-0.0423 -0.0847,-0.0847 l -0.0635,-0.0423 c -0.0212,-0.0212 -0.0423,-0.0635 -0.0635,-0.0847 l -0.10583,-0.0847 c -0.254,-0.23283 -0.52916,-0.4445 -0.80433,-0.61383 -0.91016,-0.5715 -1.96848,-0.9525 -3.04797,-1.07949 h -0.0212 c -0.0847,0 -0.14817,-0.0212 -0.23283,-0.0212 l -0.29633,-0.0212 c -0.0635,0 -0.127,0 -0.16934,0 -0.0423,0 -0.0847,0 -0.127,0 -0.0423,0 -0.0847,0 -0.10583,0 -0.0635,0 -0.10583,0 -0.16933,0 l -0.3175,0.0212 c -0.0635,0 -0.14816,0.0212 -0.21166,0.0212 h -0.0212 c -1.07949,0.12699 -2.15898,0.50799 -3.06914,1.07949 -0.27517,0.16933 -0.52917,0.381 -0.80433,0.61383 l -0.0847,0.0847 c -0.0212,0.0212 -0.0635,0.0423 -0.0847,0.0847 l -0.0635,0.0635 c -0.0212,0.0212 -0.0423,0.0423 -0.0635,0.0635 l -0.14817,0.14816 c -0.69849,0.762 -1.16415,1.62982 -1.41815,2.60348 -0.127,0.4445 -0.1905,0.889 -0.21167,1.35466 v 0 0.1905 c -0.0212,0.52916 0,1.07949 0.0847,1.62982 l 0.33866,2.13782 c 0.21167,1.84148 -0.40216,2.83631 -0.99482,3.64064 -0.8255,1.14299 -2.37065,1.90498 -3.83114,1.90498 -0.33867,0 -0.65616,-0.0423 -0.9525,-0.127 l -1.31232,-0.33866 c -0.55033,-0.14816 -1.10066,-0.23283 -1.67215,-0.23283 -1.67216,0 -3.30198,0.67733 -4.46614,1.86265 -0.33866,0.33867 -0.59266,0.71966 -0.80432,1.03716 -0.635,1.01599 -1.016,2.20132 -1.10066,3.40781 0,0 0,0.127 -0.0212,0.1905 v 0.0635 0.14816 c 0,0.0423 0,0.0847 0,0.127 0,0.0423 0,0.0635 0,0.10584 0.0212,0.0635 0,0.10583 0,0.14816 v 0.0847 c 0,0.0635 0.0212,0.19049 0.0212,0.19049 0.0847,1.2065 0.46566,2.39182 1.10066,3.40781 0.21166,0.3175 0.46566,0.6985 0.80432,1.03716 1.16416,1.18533 2.79398,1.86265 4.46614,1.86265 0.55033,0 1.12182,-0.0635 1.67215,-0.23283 l 1.31232,-0.33866 c 0.29634,-0.0847 0.61383,-0.127 0.9525,-0.127 1.46049,0 3.00564,0.76199 3.83114,1.90498 0.59266,0.80433 1.20649,1.79916 0.99482,3.64064 l -0.33866,2.13782 c -0.0847,0.55033 -0.10583,1.10066 -0.0847,1.62982 v 0.1905 z"
         id="path4509" />
      <path
         inkscape:connector-curvature="0"
         style="fill:none;stroke:#6ccff5;stroke-width:0.69849485px;stroke-linecap:round;stroke-linejoin:round;stroke-miterlimit:4;stroke-dasharray:none;stroke-opacity:1"
         d="m -101.27548,275.25247 c 0.0212,0.4445 0.10583,0.91016 0.21167,1.33349 0.25399,0.99482 0.74083,1.86265 1.43932,2.62465 l 0.127,0.14816 c 0.0212,0.0212 0.0423,0.0423 0.0635,0.0635 l 0.0847,0.0635 c 0.0212,0.0212 0.0423,0.0423 0.0635,0.0635 0.0212,0.0212 0.0423,0.0423 0.0847,0.0635 l 0.0212,0.0423 c 0.254,0.23284 0.52916,0.42333 0.80433,0.59267 0.91015,0.59266 1.96848,0.97366 3.06914,1.07949 0.0635,0.0212 0.14817,0.0212 0.23283,0.0212 l 0.0423,0.0212 c 0.0635,0 0.127,0 0.1905,0 0.0212,0 0.0423,0 0.0847,0 0.0423,0 0.10583,0.0212 0.14816,0.0212 0.0423,0 0.0847,0 0.127,0 0.0423,0 0.0847,0 0.10583,0 0.0635,0 0.10584,-0.0212 0.16934,-0.0212 0.0212,0 0.0423,0 0.0847,0 0.0635,0 0.127,0 0.1905,0 l 0.0423,-0.0212 c 0.0847,0 0.14817,0 0.23284,-0.0212 1.10065,-0.10583 2.15898,-0.48683 3.06914,-1.07949 0.27516,-0.16934 0.52916,-0.35983 0.80433,-0.59267 l 0.0212,-0.0423 c 0.0212,-0.0212 0.0423,-0.0423 0.0635,-0.0423 0.0423,-0.0423 0.0635,-0.0635 0.0847,-0.0847 l 0.0635,-0.0635 c 0.0212,-0.0212 0.0423,-0.0423 0.0635,-0.0635 l 0.0635,-0.0635 c 0.0212,-0.0423 0.0423,-0.0635 0.0635,-0.0847 0.71966,-0.762 1.18532,-1.62983 1.43932,-2.62465 0.127,-0.42333 0.1905,-0.88899 0.21167,-1.33349 v 0 l 0.0212,-0.21167 c 0.0212,-0.50799 -0.0212,-1.05832 -0.0847,-1.62982 l -0.33867,-2.11665 c -0.23283,-1.84148 0.381,-2.85748 0.97366,-3.6618 0.42333,-0.5715 1.03716,-1.05833 1.77799,-1.39699 0.0635,-0.0423 0.10583,-0.0635 0.16933,-0.0847 l 0.0847,-0.0423 c 0.0847,-0.0212 0.16933,-0.0635 0.254,-0.0847 l 0.10583,-0.0423 c 0.0847,-0.0212 0.14816,-0.0423 0.23283,-0.0635 0.0423,-0.0212 0.0847,-0.0212 0.127,-0.0423 l 0.14816,-0.0212 c 0.0635,-0.0212 0.14817,-0.0423 0.23283,-0.0423 0.0212,-0.0212 0.0635,-0.0212 0.10584,-0.0212 0.0847,-0.0212 0.16933,-0.0212 0.25399,-0.0212 l 0.0635,-0.0212 c 0.0847,0 0.16934,0 0.23284,0 h 0.0635 c 0.0847,0 0.1905,0 0.27516,0 l 0.0635,0.0212 c 0.0847,0 0.16933,0 0.254,0.0212 l 0.0635,0.0212 c 0.0847,0 0.16933,0.0212 0.254,0.0423 l 1.33349,0.35983 c 0.55032,0.14817 1.10065,0.23283 1.67215,0.23283 v 0 c 1.69332,0 3.32314,-0.67733 4.46613,-1.86265 0.27517,-0.27517 0.508,-0.59266 0.80433,-1.03716 0.635,-1.01599 1.01599,-2.18015 1.10066,-3.38664 v -0.0212 c 0,0 0.0212,-0.381 0.0212,-0.42333 0,-0.0423 0,-0.1905 0,-0.23283 0,-0.0423 0,-0.10583 0,-0.14817 l -0.0212,-0.29633 c -0.0847,-1.20649 -0.46566,-2.37065 -1.10066,-3.36547 -0.29633,-0.46567 -0.52916,-0.78316 -0.80433,-1.05833 -1.14299,-1.16416 -2.77281,-1.84148 -4.44496,-1.84148 -0.59267,0 -1.143,0.0635 -1.69332,0.21166 l -1.31233,0.35983 c -0.10583,0.0212 -0.1905,0.0423 -0.27516,0.0635 h -0.0423 c -0.10584,0.0212 -0.1905,0.0212 -0.27517,0.0423 h -0.0635 c -0.0847,0 -0.1905,0 -0.27516,0 h -0.0635 c -0.0635,0 -0.14817,0 -0.21167,0 h -0.0847 c -0.0847,-0.0212 -0.16933,-0.0212 -0.25399,-0.0423 -0.0212,0 -0.0635,0 -0.0847,0 h -0.0212 c -0.0847,-0.0212 -0.16933,-0.0423 -0.23283,-0.0635 -0.0423,0 -0.0847,-0.0212 -0.127,-0.0212 -0.0635,-0.0212 -0.10583,-0.0212 -0.14816,-0.0423 -0.0847,-0.0212 -0.14817,-0.0423 -0.21167,-0.0635 -0.0423,0 -0.0847,-0.0212 -0.12699,-0.0423 -0.0635,-0.0212 -0.127,-0.0423 -0.1905,-0.0635 -0.0423,-0.0212 -0.10584,-0.0423 -0.14817,-0.0635 -0.0635,-0.0212 -0.10583,-0.0423 -0.14817,-0.0635 -0.74082,-0.35983 -1.37582,-0.84666 -1.79915,-1.41816 -0.59266,-0.80432 -1.20649,-1.82032 -0.97366,-3.64064 l 0.33867,-2.13781 c 0.0635,-0.5715 0.10583,-1.12183 0.0847,-1.62982 l -0.0212,-0.21167 v 0 c -0.0212,-0.44449 -0.0847,-0.88899 -0.21167,-1.33349 -0.23283,-0.97366 -0.71966,-1.86265 -1.41816,-2.60348 l -0.0212,-0.0423 c -0.0212,0 -0.0423,-0.0212 -0.0635,-0.0423 l -0.0635,-0.0847 c -0.0212,-0.0212 -0.0423,-0.0423 -0.0635,-0.0635 l -0.0635,-0.0635 c -0.0212,-0.0212 -0.0423,-0.0423 -0.0847,-0.0635 l -0.0847,-0.0847 c -0.27517,-0.23283 -0.52917,-0.44449 -0.80433,-0.61383 -0.91016,-0.59266 -1.96849,-0.95249 -3.06914,-1.07949 h -0.0212 c -0.0635,-0.0212 -0.127,-0.0212 -0.21167,-0.0212 l -0.31749,-0.0212 c -0.0635,0 -0.10584,0 -0.14817,0 -0.0635,0 -0.0847,0 -0.127,0 -0.0423,0 -0.0847,0 -0.127,0 -0.0423,0 -0.10583,0 -0.14816,0 l -0.3175,0.0212 c -0.0847,0 -0.14816,0 -0.21166,0.0212 h -0.0212 c -1.10066,0.127 -2.15899,0.48683 -3.06914,1.07949 -0.27517,0.16934 -0.55033,0.381 -0.80433,0.61383 l -0.10584,0.0847 c -0.0212,0.0212 -0.0423,0.0423 -0.0635,0.0635 l -0.0847,0.0847 c -0.0212,0.0212 -0.0423,0.0423 -0.0635,0.0635 l -0.127,0.14816 c -0.69849,0.74083 -1.18533,1.62982 -1.43932,2.60348 -0.10584,0.4445 -0.1905,0.889 -0.21167,1.33349 v 0 0.21167 c -0.0212,0.50799 0.0212,1.05832 0.0847,1.62982 l 0.33866,2.11665 c 0.23284,1.84148 -0.38099,2.85748 -0.97366,3.6618 -0.84666,1.12183 -2.39181,1.88382 -3.8523,1.88382 -0.3175,0 -0.635,-0.0212 -0.93133,-0.10583 l -1.31232,-0.35983 c -0.55033,-0.14816 -1.12183,-0.21166 -1.69332,-0.21166 -1.67216,0 -3.30198,0.67732 -4.44497,1.84148 -0.33866,0.33867 -0.61383,0.74083 -0.80433,1.05833 -0.65616,1.01599 -1.03715,2.20132 -1.10065,3.40781 0,0 0,0.127 -0.0212,0.1905 v 0.0635 0.14817 c 0,0.0423 0,0.0847 0,0.10583 0,0.0423 0,0.0847 0,0.127 0,0.0423 0,0.10583 0,0.14817 v 0.0847 c 0,0.0635 0.0212,0.1905 0.0212,0.1905 0.0635,1.20649 0.44449,2.37065 1.10065,3.40781 0.1905,0.29633 0.46567,0.6985 0.80433,1.03716 1.14299,1.18532 2.77281,1.86265 4.44497,1.86265 0.57149,0 1.14299,-0.0847 1.69332,-0.23283 l 1.31232,-0.35983 c 0.29633,-0.0635 0.61383,-0.10583 0.93133,-0.10583 1.46049,0 3.00564,0.76199 3.8523,1.88382 0.59267,0.80432 1.2065,1.82032 0.99483,3.6618 l -0.35983,2.11665 c -0.0635,0.5715 -0.10583,1.12183 -0.0847,1.62982 l 0.0212,0.21167 z"
         id="path4511" />
      <path
         inkscape:connector-curvature="0"
         style="fill:none;stroke:#6ccff5;stroke-width:0.69849485px;stroke-linecap:round;stroke-linejoin:round;stroke-miterlimit:4;stroke-dasharray:none;stroke-opacity:1"
         d="m -171.33662,228.79198 c 0.0212,0.4445 0.0847,0.88899 0.21166,1.33349 0.254,0.97366 0.71966,1.86265 1.41816,2.60348 l 0.14816,0.16933 c 0.0212,0 0.0423,0.0423 0.0635,0.0635 l 0.0635,0.0635 c 0.0212,0.0212 0.0423,0.0423 0.0847,0.0635 0.0212,0.0212 0.0423,0.0423 0.0635,0.0635 l 0.0212,0.0212 c 0.27517,0.23283 0.52917,0.44449 0.80433,0.61383 0.91016,0.59266 1.98965,0.95249 3.06914,1.07949 0.0847,0.0212 0.14817,0.0212 0.23284,0.0212 h 0.0423 c 0.0635,0.0212 0.127,0.0212 0.1905,0.0212 0.0423,0 0.0635,0 0.0847,0 0.0635,0 0.10584,0 0.16934,0 0.0423,0 0.0635,0.0212 0.10583,0 0.0423,0 0.0847,0 0.127,0 0.0423,0 0.10583,0 0.14816,0 0.0423,0 0.0635,0 0.0847,0 0.0635,0 0.127,0 0.1905,-0.0212 h 0.0423 c 0.0847,0 0.16933,0 0.254,-0.0212 1.07949,-0.127 2.13782,-0.48683 3.04798,-1.07949 0.27516,-0.16934 0.55033,-0.35983 0.80432,-0.61383 l 0.0423,-0.0212 c 0.0212,-0.0212 0.0423,-0.0423 0.0635,-0.0635 0.0212,-0.0212 0.0423,-0.0423 0.0635,-0.0635 l 0.0847,-0.0635 c 0.0212,-0.0212 0.0423,-0.0423 0.0635,-0.0635 l 0.0635,-0.0847 c 0.0212,-0.0212 0.0423,-0.0423 0.0635,-0.0635 0.69849,-0.762 1.18532,-1.65099 1.43932,-2.62465 0.10584,-0.4445 0.1905,-0.88899 0.21167,-1.33349 v 0 -0.21166 c 0.0212,-0.508 0,-1.05833 -0.0847,-1.62983 l -0.33866,-2.11665 c -0.21167,-1.84148 0.40216,-2.85748 0.97366,-3.6618 0.44449,-0.5715 1.05832,-1.05833 1.79915,-1.41816 0.0423,-0.0212 0.10583,-0.0423 0.14817,-0.0635 l 0.10583,-0.0423 c 0.0847,-0.0212 0.16933,-0.0635 0.254,-0.0847 l 0.10583,-0.0423 c 0.0635,-0.0212 0.14816,-0.0423 0.21166,-0.0635 0.0635,-0.0212 0.10584,-0.0212 0.14817,-0.0423 l 0.127,-0.0212 c 0.0847,-0.0212 0.14817,-0.0423 0.23283,-0.0423 0.0423,-0.0212 0.0847,-0.0212 0.127,-0.0212 0.0635,-0.0212 0.14817,-0.0212 0.23283,-0.0423 h 0.0847 c 0.0635,0 0.14816,0 0.23283,0 h 0.0423 c 0.10583,0 0.1905,0 0.27517,0 h 0.0635 c 0.10583,0.0212 0.19049,0.0212 0.27516,0.0423 h 0.0635 c 0.0847,0.0212 0.16933,0.0423 0.254,0.0635 l 1.33349,0.35983 c 0.52916,0.14817 1.10066,0.21167 1.65099,0.23283 v 0 c 1.69332,0 3.32314,-0.67733 4.4873,-1.86265 0.25399,-0.27516 0.50799,-0.59266 0.78316,-1.05833 0.65616,-0.99482 1.03716,-2.15898 1.12182,-3.36547 v -0.0423 c 0,0 0,-0.35984 0,-0.40217 0.0212,-0.0423 0.0212,-0.1905 0,-0.23283 0,-0.0423 0,-0.10583 0,-0.14817 v -0.31749 c -0.0847,-1.18533 -0.46566,-2.34949 -1.10066,-3.36548 -0.29633,-0.44449 -0.55033,-0.76199 -0.80432,-1.03716 -1.16416,-1.18532 -2.77282,-1.86265 -4.44497,-1.86265 -0.59266,0 -1.16416,0.0847 -1.69332,0.23283 l -1.31232,0.35983 c -0.10584,0.0212 -0.1905,0.0423 -0.27517,0.0423 l -0.0635,0.0212 c -0.0847,0.0212 -0.16933,0.0212 -0.254,0.0423 h -0.0847 c -0.0847,0 -0.16934,0 -0.254,0 h -0.0635 c -0.0847,0 -0.14817,0 -0.23283,0 h -0.0847 c -0.0847,-0.0212 -0.16933,-0.0212 -0.23283,-0.0423 -0.0423,0 -0.0635,0 -0.10583,0 l -0.0212,-0.0212 c -0.0635,0 -0.14817,-0.0212 -0.23283,-0.0423 -0.0423,0 -0.0847,-0.0212 -0.127,-0.0212 -0.0423,-0.0212 -0.0847,-0.0212 -0.14817,-0.0423 -0.0635,-0.0212 -0.127,-0.0423 -0.21166,-0.0635 -0.0423,-0.0212 -0.0847,-0.0212 -0.10584,-0.0423 -0.0847,-0.0212 -0.14816,-0.0423 -0.21166,-0.0635 -0.0423,-0.0212 -0.0847,-0.0423 -0.14817,-0.0635 -0.0423,-0.0212 -0.0847,-0.0423 -0.14816,-0.0635 -0.74083,-0.35983 -1.35466,-0.84666 -1.77799,-1.41815 -0.59266,-0.80433 -1.20649,-1.82032 -0.99482,-3.66181 l 0.33866,-2.11665 c 0.0847,-0.5715 0.10583,-1.12183 0.0847,-1.62982 v -0.21167 0 c -0.0212,-0.44449 -0.0847,-0.88899 -0.21167,-1.33349 -0.254,-0.99482 -0.74083,-1.86265 -1.41816,-2.62464 l -0.0423,-0.0212 c 0,-0.0212 -0.0212,-0.0212 -0.0423,-0.0423 l -0.0635,-0.0847 c -0.0212,-0.0212 -0.0423,-0.0423 -0.0847,-0.0635 l -0.0423,-0.0635 c -0.0423,-0.0212 -0.0635,-0.0423 -0.0847,-0.0635 l -0.10583,-0.10583 c -0.254,-0.21167 -0.52916,-0.42333 -0.78316,-0.59266 -0.93133,-0.59267 -1.98965,-0.9525 -3.06914,-1.07949 h -0.0212 c -0.0847,-0.0212 -0.14817,-0.0212 -0.21167,-0.0212 l -0.31749,-0.0212 c -0.0635,0 -0.10584,0 -0.16934,-0.0212 -0.0423,0 -0.0847,0 -0.12699,0 -0.0423,0 -0.0635,0 -0.10584,0 -0.0635,0.0212 -0.10583,0.0212 -0.16933,0.0212 l -0.3175,0.0212 c -0.0635,0 -0.127,0 -0.21166,0.0212 h -0.0212 c -1.07949,0.10583 -2.13782,0.48682 -3.06914,1.07949 -0.27517,0.16933 -0.52917,0.35983 -0.78316,0.59266 l -0.10584,0.10583 c -0.0212,0.0212 -0.0423,0.0423 -0.0847,0.0635 l -0.0635,0.0635 c -0.0212,0.0212 -0.0423,0.0423 -0.0635,0.0635 l -0.14817,0.14817 c -0.69849,0.76199 -1.16415,1.62982 -1.41815,2.62464 -0.127,0.4445 -0.1905,0.889 -0.21167,1.33349 v 0 0.21167 c -0.0212,0.50799 0,1.05832 0.0847,1.62982 l 0.33866,2.11665 c 0.21167,1.84149 -0.40216,2.85748 -0.97366,3.66181 -0.84666,1.12182 -2.39181,1.88382 -3.8523,1.88382 -0.33867,0 -0.65616,-0.0423 -0.93133,-0.10584 l -1.33349,-0.35983 c -0.55033,-0.14816 -1.10066,-0.23283 -1.67215,-0.23283 -1.67216,0 -3.30198,0.67733 -4.46614,1.86265 -0.33866,0.33867 -0.59266,0.74083 -0.78316,1.03716 -0.65616,1.03716 -1.03716,2.22249 -1.12182,3.42898 0,0 0,0.10583 0,0.16933 v 0.0847 0.14817 0.10583 0.127 0.14817 0.0635 c 0,0.0635 0,0.21166 0,0.21166 0.0847,1.18533 0.46566,2.37065 1.12182,3.38664 0.1905,0.3175 0.4445,0.71967 0.78316,1.05833 1.16416,1.18532 2.79398,1.86265 4.46614,1.86265 0.57149,0 1.12182,-0.0847 1.67215,-0.23283 l 1.33349,-0.35983 c 0.27517,-0.0635 0.59266,-0.10583 0.93133,-0.10583 1.46049,0 3.00564,0.76199 3.8523,1.88382 0.5715,0.80432 1.18533,1.82032 0.97366,3.6618 l -0.33866,2.11665 c -0.0847,0.5715 -0.10583,1.12183 -0.0847,1.62983 z"
         id="path4513" />
      <path
         inkscape:connector-curvature="0"
         style="fill:none;stroke:#6ccff5;stroke-width:0.69849485px;stroke-linecap:round;stroke-linejoin:round;stroke-miterlimit:4;stroke-dasharray:none;stroke-opacity:1"
         d="m -151.86344,261.68474 c 0.0212,0.44449 0.0847,0.88899 0.21167,1.33349 0.254,0.97366 0.74083,1.86265 1.41816,2.60348 l 0.14816,0.16933 c 0.0212,0 0.0423,0.0212 0.0635,0.0423 l 0.0635,0.0635 c 0.0212,0.0423 0.0635,0.0635 0.0847,0.0847 0.0212,0.0212 0.0423,0.0423 0.0635,0.0635 l 0.0423,0.0212 c 0.254,0.23283 0.52916,0.44449 0.78316,0.61382 0.93133,0.59266 1.98965,0.9525 3.06914,1.0795 0.0847,0.0212 0.16934,0.0212 0.23284,0.0212 h 0.0423 c 0.0635,0.0212 0.14816,0.0212 0.21166,0.0212 0.0212,0 0.0423,0 0.0635,0 0.0635,0 0.10584,0 0.16934,0 0.0423,0 0.0635,0 0.10583,0 0.0423,0 0.0847,0 0.127,0 0.0635,0 0.10583,0 0.16933,0 0.0212,0 0.0423,0 0.0635,0 0.0847,0 0.14816,0 0.21166,-0.0212 h 0.0423 c 0.0635,0 0.14816,0 0.23283,-0.0212 1.07949,-0.127 2.13782,-0.48684 3.06914,-1.0795 0.254,-0.16933 0.52916,-0.35983 0.78316,-0.61382 l 0.0423,-0.0212 c 0.0212,-0.0212 0.0423,-0.0423 0.0635,-0.0635 0.0212,-0.0212 0.0423,-0.0423 0.0847,-0.0635 l 0.0635,-0.0635 c 0.0212,-0.0212 0.0423,-0.0423 0.0635,-0.0847 l 0.0635,-0.0635 c 0.0212,-0.0212 0.0423,-0.0423 0.0635,-0.0635 0.69849,-0.76199 1.18532,-1.65098 1.43932,-2.62464 0.127,-0.4445 0.1905,-0.889 0.21167,-1.33349 v 0 -0.21167 c 0.0212,-0.50799 0,-1.05832 -0.0847,-1.62982 l -0.33866,-2.11665 c -0.21167,-1.86265 0.40216,-2.85748 0.99482,-3.66181 0.42333,-0.57149 1.03716,-1.05832 1.77799,-1.41815 0.0423,-0.0212 0.10583,-0.0423 0.14816,-0.0635 l 0.10584,-0.0423 c 0.0847,-0.0212 0.16933,-0.0635 0.25399,-0.0847 l 0.10584,-0.0423 c 0.0847,-0.0212 0.14816,-0.0423 0.23283,-0.0635 0.0423,-0.0212 0.0847,-0.0212 0.127,-0.0423 l 0.127,-0.0212 c 0.0847,-0.0212 0.16933,-0.0423 0.23283,-0.0635 0.0423,0 0.0847,0 0.127,0 0.0635,-0.0212 0.14816,-0.0212 0.23283,-0.0423 h 0.0847 c 0.0847,0 0.14816,0 0.23283,0 h 0.0635 c 0.0847,0 0.16933,0 0.254,0 h 0.0847 c 0.0847,0.0212 0.16933,0.0212 0.254,0.0423 h 0.0635 c 0.0847,0.0212 0.16933,0.0423 0.254,0.0635 l 1.33349,0.35983 c 0.52916,0.14816 1.10066,0.21166 1.65099,0.21166 v 0 c 1.69332,0 3.32314,-0.67733 4.48729,-1.84148 0.254,-0.27517 0.508,-0.59267 0.80433,-1.05833 0.635,-0.99483 1.01599,-2.15898 1.10066,-3.36547 v -0.0423 c 0,0 0.0212,-0.35983 0.0212,-0.40216 0,-0.0423 0,-0.1905 0,-0.23283 0,-0.0635 0,-0.10584 0,-0.14817 l -0.0212,-0.3175 c -0.0847,-1.18532 -0.46566,-2.34948 -1.10066,-3.36547 -0.29633,-0.4445 -0.52916,-0.762 -0.80433,-1.03716 -1.14299,-1.18532 -2.77281,-1.86265 -4.44496,-1.86265 -0.59266,0 -1.14299,0.0847 -1.69332,0.23283 l -1.31233,0.35983 c -0.10583,0.0212 -0.19049,0.0423 -0.27516,0.0423 l -0.0635,0.0212 c -0.0847,0.0212 -0.16933,0.0212 -0.254,0.0212 l -0.0635,0.0212 c -0.10583,0 -0.1905,0 -0.27516,0 h -0.0635 c -0.0847,0 -0.14817,0 -0.23283,0 l -0.0635,-0.0212 c -0.0847,0 -0.16934,0 -0.254,-0.0212 -0.0212,0 -0.0635,0 -0.0847,-0.0212 h -0.0423 c -0.0635,0 -0.14817,-0.0212 -0.21166,-0.0423 -0.0635,0 -0.10584,-0.0212 -0.14817,-0.0212 -0.0423,-0.0212 -0.0847,-0.0212 -0.127,-0.0423 -0.0847,-0.0212 -0.14817,-0.0423 -0.23283,-0.0635 -0.0212,-0.0212 -0.0635,-0.0212 -0.10584,-0.0423 -0.0635,-0.0212 -0.12699,-0.0423 -0.19049,-0.0635 -0.0635,-0.0212 -0.10584,-0.0423 -0.14817,-0.0635 -0.0635,-0.0212 -0.10583,-0.0423 -0.14816,-0.0635 -0.762,-0.35983 -1.37583,-0.84666 -1.79916,-1.43932 -0.59266,-0.78317 -1.20649,-1.79916 -0.99482,-3.64064 l 0.35983,-2.11666 c 0.0635,-0.57149 0.10583,-1.12182 0.0847,-1.62982 l -0.0212,-0.21166 v 0 c -0.0212,-0.4445 -0.0847,-0.91016 -0.21167,-1.33349 -0.254,-0.99483 -0.71966,-1.86266 -1.41815,-2.62465 l -0.0212,-0.0212 c -0.0212,-0.0212 -0.0423,-0.0423 -0.0635,-0.0423 l -0.0635,-0.0847 c -0.0212,-0.0212 -0.0423,-0.0423 -0.0635,-0.0635 l -0.0635,-0.0635 c -0.0212,-0.0212 -0.0635,-0.0423 -0.0847,-0.0847 l -0.10584,-0.0847 c -0.254,-0.23284 -0.50799,-0.42334 -0.78316,-0.59267 -0.93132,-0.59266 -1.98965,-0.97366 -3.06914,-1.07949 l -0.0212,-0.0212 c -0.0635,0 -0.14817,0 -0.21166,-0.0212 h -0.3175 c -0.0635,0 -0.10583,-0.0212 -0.16933,-0.0212 -0.0423,0 -0.0847,0 -0.127,0 -0.0212,0 -0.0635,0 -0.10583,0 -0.0635,0 -0.10584,0.0212 -0.14817,0.0212 h -0.3175 c -0.0847,0.0212 -0.14816,0.0212 -0.23283,0.0212 l -0.0212,0.0212 c -1.07949,0.10583 -2.13781,0.48683 -3.06914,1.07949 -0.254,0.16933 -0.52916,0.35983 -0.78316,0.59267 l -0.10583,0.0847 c -0.0212,0.0423 -0.0423,0.0635 -0.0635,0.0847 l -0.0847,0.0635 c -0.0212,0.0212 -0.0423,0.0423 -0.0635,0.0635 l -0.14816,0.14816 c -0.67733,0.76199 -1.16416,1.62982 -1.41816,2.62465 -0.127,0.42333 -0.1905,0.88899 -0.21167,1.33349 v 0 0.21166 c -0.0212,0.508 0.0212,1.05833 0.0847,1.62982 l 0.33866,2.11666 c 0.23283,1.84148 -0.38099,2.85747 -0.97365,3.64064 -0.84667,1.14299 -2.39182,1.90498 -3.85231,1.90498 -0.33866,0 -0.65616,-0.0423 -0.93133,-0.127 l -1.31232,-0.33866 c -0.55033,-0.14817 -1.12183,-0.23283 -1.69332,-0.23283 -1.67216,0 -3.30198,0.67733 -4.46613,1.86265 -0.3175,0.33866 -0.59267,0.74083 -0.78317,1.03716 -0.65616,1.03716 -1.03715,2.20132 -1.12182,3.42897 0,0 0,0.10584 0,0.16934 v 0.0847 0.14817 0.10583 0.10583 0.16933 0.0635 c 0,0.0635 0,0.1905 0,0.1905 0.0847,1.20649 0.46566,2.39182 1.12182,3.40781 0.1905,0.3175 0.46567,0.71966 0.78317,1.05833 1.16415,1.16415 2.79397,1.84148 4.46613,1.84148 0.57149,0 1.14299,-0.0635 1.67215,-0.21166 l 1.33349,-0.35983 c 0.27517,-0.0847 0.59267,-0.127 0.93133,-0.127 1.46049,0 3.00564,0.78316 3.85231,1.90498 0.59266,0.80433 1.20648,1.79916 0.97365,3.64064 l -0.33866,2.13782 c -0.0635,0.5715 -0.10583,1.12183 -0.0847,1.62982 l 0.0212,0.21167 z"
         id="path4515" />
      <path
         inkscape:connector-curvature="0"
         style="fill:none;stroke:#6ccff5;stroke-width:0.69849485px;stroke-linecap:round;stroke-linejoin:round;stroke-miterlimit:4;stroke-dasharray:none;stroke-opacity:1"
         d="m 240.37317,310.76987 c -0.0212,-0.44449 -0.0847,-0.91016 -0.21167,-1.33349 -0.23283,-0.99482 -0.71966,-1.86265 -1.41816,-2.62465 l -0.127,-0.14816 c -0.0212,-0.0212 -0.0423,-0.0423 -0.0635,-0.0635 l -0.0635,-0.0635 c -0.0423,-0.0423 -0.0635,-0.0635 -0.0847,-0.0847 -0.0212,-0.0212 -0.0423,-0.0423 -0.0635,-0.0635 l -0.0423,-0.0212 c -0.254,-0.23283 -0.52917,-0.4445 -0.78317,-0.61383 -0.93131,-0.59266 -1.98964,-0.97366 -3.06914,-1.10066 -0.0847,0 -0.16933,-0.0212 -0.23283,-0.0212 h -0.0423 c -0.0635,0 -0.127,-0.0212 -0.1905,-0.0212 -0.0423,0 -0.0635,0 -0.0847,0 -0.0635,0 -0.10584,0 -0.16934,0 -0.0423,0 -0.0635,0 -0.10583,0 -0.0423,0 -0.0847,0 -0.127,0 -0.0635,0 -0.10583,0 -0.14817,0 -0.0423,0 -0.0635,0 -0.0846,0 -0.0635,0 -0.127,0 -0.21166,0.0212 h -0.0423 c -0.0635,0 -0.14816,0.0212 -0.23283,0.0212 -1.0795,0.127 -2.13783,0.48683 -3.06914,1.05833 -0.27517,0.16933 -0.52917,0.381 -0.80433,0.61383 l -0.0212,0.0212 c -0.0212,0.0212 -0.0423,0.0423 -0.0635,0.0635 -0.0423,0.0212 -0.0635,0.0423 -0.0847,0.0635 l -0.0635,0.0847 c -0.0212,0.0212 -0.0423,0.0423 -0.0635,0.0635 l -0.0635,0.0635 c -0.0212,0.0212 -0.0423,0.0423 -0.0635,0.0635 -0.71966,0.76199 -1.2065,1.65098 -1.4605,2.62464 -0.127,0.4445 -0.1905,0.889 -0.21166,1.33349 v 0 l -0.0212,0.21167 c -0.0212,0.508 0.0212,1.05832 0.0847,1.62982 l 0.33866,2.11665 c 0.21167,1.84149 -0.40216,2.85748 -0.99483,3.64064 -0.44447,0.59266 -1.05831,1.07949 -1.79914,1.41816 -0.0635,0.0212 -0.10583,0.0423 -0.16933,0.0635 l -0.0847,0.0423 c -0.0847,0.0423 -0.16933,0.0635 -0.254,0.10583 l -0.10583,0.0212 c -0.0847,0.0212 -0.14817,0.0423 -0.23284,0.0635 -0.0423,0.0212 -0.0847,0.0423 -0.127,0.0423 l -0.14816,0.0212 c -0.0635,0.0212 -0.14817,0.0423 -0.21167,0.0635 -0.0423,0 -0.0847,0 -0.127,0 -0.0847,0.0212 -0.16933,0.0212 -0.23283,0.0423 h -0.0847 c -0.0846,0 -0.14814,0 -0.23281,0 h -0.0635 c -0.0847,0 -0.16933,0 -0.27516,0 h -0.0635 c -0.0847,-0.0212 -0.16934,-0.0212 -0.254,-0.0423 l -0.0635,-0.0212 c -0.0847,0 -0.16934,-0.0212 -0.254,-0.0423 l -1.3335,-0.35983 c -0.55034,-0.14817 -1.10064,-0.23283 -1.65098,-0.23283 v 0 c -1.69333,-0.0212 -3.32314,0.65616 -4.4873,1.82032 -0.27517,0.27516 -0.52917,0.59266 -0.80434,1.05832 -0.65616,0.99483 -1.03716,2.15898 -1.12183,3.36548 v 0.0212 c 0,0 -0.0212,0.381 -0.0212,0.42333 v 0.23284 0.14816 0.29633 c 0.0847,1.20649 0.46567,2.37065 1.10067,3.38665 0.29633,0.44449 0.52917,0.76199 0.78317,1.03715 1.16416,1.18533 2.7728,1.86266 4.46614,1.88382 0.5715,0 1.14297,-0.0847 1.67214,-0.23283 l 1.3335,-0.33866 c 0.0847,-0.0212 0.16933,-0.0423 0.254,-0.0635 h 0.0635 c 0.0847,-0.0212 0.16933,-0.0212 0.254,-0.0423 h 0.0847 c 0.0847,0 0.16934,0 0.254,0 h 0.0847 c 0.0635,0 0.127,0 0.21167,0 h 0.0846 c 0.0847,0.0212 0.16933,0.0212 0.254,0.0423 0.0212,0 0.0423,0 0.0847,0.0212 h 0.0212 c 0.0847,0 0.14817,0.0212 0.23283,0.0423 0.0423,0 0.0847,0.0212 0.127,0.0212 0.0423,0.0212 0.0847,0.0423 0.14817,0.0423 0.0635,0.0212 0.127,0.0423 0.21167,0.0635 0.0423,0.0212 0.0847,0.0423 0.10583,0.0423 0.0847,0.0212 0.14817,0.0423 0.21167,0.0847 0.0423,0.0212 0.0847,0.0423 0.14816,0.0635 0.0423,0.0212 0.0847,0.0423 0.14817,0.0635 0.74083,0.33866 1.35467,0.84666 1.778,1.41815 0.59264,0.80433 1.18531,1.82032 0.97364,3.66181 l -0.35983,2.11665 c -0.0847,0.5715 -0.10584,1.12183 -0.0847,1.62982 v 0.21167 0 c 0.0212,0.44449 0.0847,0.88899 0.21167,1.33349 0.254,0.99482 0.71966,1.86265 1.41816,2.62464 l 0.0212,0.0212 c 0.0212,0.0212 0.0212,0.0423 0.0423,0.0635 l 0.0635,0.0635 c 0.0423,0.0212 0.0635,0.0423 0.0847,0.0635 l 0.0635,0.0635 c 0.0212,0.0212 0.0423,0.0635 0.0635,0.0847 l 0.10583,0.0847 c 0.254,0.23283 0.52917,0.4445 0.80434,0.61383 0.91014,0.57149 1.96847,0.95249 3.04797,1.07949 l 0.0212,0.0212 c 0.0847,0 0.14816,0 0.21166,0.0212 l 0.3175,0.0212 c 0.0635,0 0.10584,0 0.16931,0 0.0423,0 0.0847,0 0.127,0 0.0423,0 0.0635,0 0.10583,0 0.0635,0 0.10584,0 0.16934,0 l 0.3175,-0.0212 c 0.0635,0 0.127,-0.0212 0.21166,-0.0212 h 0.0212 c 1.0795,-0.127 2.13783,-0.48683 3.06914,-1.07949 0.27517,-0.16934 0.52917,-0.35983 0.80433,-0.59266 l 0.0847,-0.0847 c 0.0423,-0.0212 0.0635,-0.0423 0.0847,-0.0847 l 0.0635,-0.0635 c 0.0423,-0.0212 0.0635,-0.0423 0.0847,-0.0635 l 0.127,-0.14816 c 0.6985,-0.74083 1.18534,-1.62982 1.43934,-2.60348 0.127,-0.4445 0.1905,-0.889 0.21166,-1.33349 v 0 -0.21167 c 0.0212,-0.50799 0,-1.05832 -0.0635,-1.62982 l -0.33866,-2.11665 c -0.21167,-1.86265 0.40216,-2.85748 0.9948,-3.66181 0.84667,-1.12182 2.39184,-1.88382 3.85231,-1.88382 0.33867,0.0212 0.65617,0.0423 0.9525,0.127 l 1.31234,0.35983 c 0.55033,0.14817 1.10064,0.23283 1.67214,0.23283 1.67216,0.0212 3.30197,-0.65616 4.46614,-1.84148 0.33866,-0.3175 0.61383,-0.71966 0.80433,-1.03716 0.65617,-1.01599 1.03714,-2.20132 1.12181,-3.40781 0,0 0,-0.127 0.0212,-0.1905 v -0.0635 c 0,-0.0423 0,-0.10583 0,-0.14816 v -0.10584 c 0,-0.0423 0,-0.0847 0,-0.12699 v -0.14817 -0.0847 c 0,-0.0423 -0.0212,-0.19049 -0.0212,-0.19049 -0.0635,-1.2065 -0.44448,-2.37065 -1.07948,-3.40781 -0.21166,-0.29633 -0.46566,-0.6985 -0.80433,-1.03716 -1.143,-1.18532 -2.77281,-1.88382 -4.44497,-1.88382 -0.5715,0 -1.14298,0.0635 -1.67214,0.21166 l -1.3335,0.35984 c -0.29634,0.0635 -0.59267,0.10583 -0.93134,0.10583 -1.46047,0 -3.00564,-0.78316 -3.85231,-1.90499 -0.57147,-0.80433 -1.1853,-1.82032 -0.95247,-3.6618 l 0.33867,-2.13782 c 0.0847,-0.55033 0.127,-1.10066 0.10583,-1.60866 l -0.0212,-0.21166 z"
         id="path4517" />
      <path
         inkscape:connector-curvature="0"
         style="fill:none;stroke:#6ccff5;stroke-width:0.69849485px;stroke-linecap:round;stroke-linejoin:round;stroke-miterlimit:4;stroke-dasharray:none;stroke-opacity:1"
         d="m 222.19114,276.71296 c -0.0212,-0.46566 -0.0847,-0.91016 -0.1905,-1.35466 -0.254,-0.97366 -0.74084,-1.86265 -1.41817,-2.60348 l -0.14817,-0.16933 c -0.0212,-0.0212 -0.0423,-0.0423 -0.0635,-0.0635 l -0.0635,-0.0635 c -0.0212,-0.0212 -0.0635,-0.0423 -0.0847,-0.0635 -0.0212,-0.0212 -0.0423,-0.0423 -0.0635,-0.0635 l -0.0423,-0.0423 c -0.254,-0.23283 -0.508,-0.42333 -0.78316,-0.59266 -0.91014,-0.59267 -1.96848,-0.97366 -3.06914,-1.10066 -0.0635,-0.0212 -0.14817,-0.0212 -0.23284,-0.0212 h -0.0423 c -0.0635,-0.0212 -0.127,-0.0212 -0.1905,-0.0212 -0.0212,0 -0.0635,0 -0.0847,0 -0.0423,0 -0.10583,0 -0.14816,0 -0.0423,-0.0212 -0.0847,-0.0212 -0.127,-0.0212 -0.0423,0 -0.0846,0 -0.12698,0 -0.0423,0 -0.10583,0.0212 -0.14816,0.0212 -0.0212,0 -0.0635,0 -0.0847,0 -0.0635,0 -0.127,0 -0.1905,0 h -0.0423 c -0.0847,0.0212 -0.16934,0.0212 -0.23284,0.0423 -1.10066,0.10583 -2.159,0.48683 -3.06914,1.05832 -0.27516,0.16933 -0.55033,0.35983 -0.80433,0.59266 l -0.0423,0.0423 c -0.0212,0.0212 -0.0423,0.0423 -0.0635,0.0635 -0.0212,0.0212 -0.0423,0.0423 -0.0635,0.0635 l -0.0847,0.0635 c -0.0212,0.0212 -0.0423,0.0423 -0.0635,0.0635 l -0.0635,0.0635 c -0.0212,0.0423 -0.0423,0.0635 -0.0635,0.0847 -0.71967,0.762 -1.18533,1.62982 -1.4605,2.60348 -0.10583,0.4445 -0.1905,0.889 -0.21167,1.35466 v 0 0.1905 c -0.0212,0.52916 0,1.07949 0.0635,1.62982 l 0.33867,2.13782 c 0.21167,1.84148 -0.40217,2.83631 -0.99481,3.64064 -0.42333,0.57149 -1.05833,1.05832 -1.79916,1.41815 -0.0423,0.0212 -0.10584,0.0423 -0.14817,0.0635 l -0.10583,0.0423 c -0.0847,0.0212 -0.16934,0.0635 -0.254,0.0847 l -0.10584,0.0423 c -0.0635,0.0212 -0.14816,0.0423 -0.21166,0.0635 -0.0635,0.0212 -0.10584,0.0212 -0.14817,0.0423 l -0.127,0.0212 c -0.0847,0.0212 -0.14817,0.0423 -0.23283,0.0423 -0.0423,0 -0.0847,0.0212 -0.127,0.0212 -0.0635,0 -0.14814,0.0212 -0.23281,0.0212 h -0.0847 c -0.0635,0.0212 -0.14816,0.0212 -0.23283,0.0212 h -0.0423 c -0.10584,0 -0.1905,0 -0.27517,-0.0212 h -0.0635 c -0.10583,0 -0.1905,-0.0212 -0.27517,-0.0423 h -0.0635 c -0.0847,-0.0212 -0.16933,-0.0423 -0.254,-0.0635 l -1.3335,-0.35983 c -0.52916,-0.14817 -1.10064,-0.23283 -1.65097,-0.23283 v 0 c -1.69333,0 -3.32314,0.65616 -4.48731,1.84148 -0.27516,0.254 -0.508,0.59267 -0.80433,1.03716 -0.635,1.016 -1.03714,2.18015 -1.12181,3.36548 v 0.0423 c 0,0 -0.0212,0.35983 -0.0212,0.42333 v 0.21167 0.14816 l 0.0212,0.3175 c 0.0847,1.18532 0.44448,2.34948 1.07948,3.36547 0.29633,0.46567 0.52916,0.78316 0.80433,1.05833 1.143,1.18532 2.77281,1.86265 4.44497,1.86265 0.59267,0 1.14298,-0.0635 1.67214,-0.21166 l 1.3335,-0.33867 c 0.10584,-0.0423 0.1905,-0.0423 0.254,-0.0635 l 0.0635,-0.0212 c 0.10584,0 0.1905,-0.0212 0.27517,-0.0212 h 0.0635 c 0.0847,-0.0212 0.16933,-0.0212 0.27517,-0.0212 h 0.0635 c 0.0635,0 0.14816,0.0212 0.21166,0.0212 h 0.0847 c 0.0847,0 0.16933,0.0212 0.25397,0.0212 0.0212,0.0212 0.0635,0.0212 0.0847,0.0212 h 0.0212 c 0.0847,0.0212 0.16933,0.0423 0.23283,0.0423 0.0423,0.0212 0.0847,0.0212 0.127,0.0423 0.0635,0.0212 0.10583,0.0212 0.14817,0.0423 0.0635,0.0212 0.14816,0.0423 0.21166,0.0635 0.0423,0 0.0847,0.0212 0.127,0.0423 0.0635,0.0212 0.127,0.0423 0.1905,0.0635 0.0423,0.0212 0.10584,0.0423 0.14817,0.0635 0.0423,0.0212 0.10583,0.0423 0.14817,0.0635 0.74083,0.35984 1.35466,0.84666 1.778,1.43933 0.59264,0.80432 1.20647,1.79915 0.97364,3.64064 l -0.33867,2.13781 c -0.0847,0.55033 -0.127,1.10066 -0.10583,1.62983 l 0.0212,0.19049 v 0 c 0,0.46567 0.0847,0.91016 0.1905,1.35466 0.254,0.97366 0.74084,1.86265 1.41817,2.60348 l 0.0212,0.0212 c 0.0212,0.0212 0.0423,0.0423 0.0635,0.0635 l 0.0635,0.0847 c 0.0212,0.0212 0.0423,0.0423 0.0635,0.0635 l 0.0635,0.0635 c 0.0212,0.0212 0.0635,0.0423 0.0847,0.0635 l 0.10584,0.0847 c 0.254,0.23283 0.508,0.44449 0.78316,0.61383 0.91014,0.59266 1.96848,0.97366 3.06914,1.10065 v 0 c 0.0847,0 0.14817,0.0212 0.23284,0.0212 l 0.3175,0.0212 c 0.0423,0 0.10583,0 0.14816,0 0.0423,0 0.0847,0 0.127,0 0.0423,0 0.0847,0 0.127,0 0.0423,0 0.10581,0 0.14814,0 l 0.3175,-0.0212 c 0.0635,0 0.14817,0 0.21167,-0.0212 h 0.0212 c 1.10066,-0.10583 2.159,-0.48682 3.06914,-1.05832 0.27516,-0.16933 0.55033,-0.381 0.80433,-0.61383 l 0.10583,-0.0847 c 0.0212,-0.0212 0.0423,-0.0423 0.0635,-0.0635 l 0.0847,-0.0635 c 0.0212,-0.0212 0.0423,-0.0423 0.0635,-0.0635 l 0.14817,-0.16934 c 0.6985,-0.74082 1.16416,-1.60865 1.43933,-2.58231 0.10583,-0.4445 0.1905,-0.88899 0.21167,-1.35466 v 0 -0.19049 c 0.0212,-0.52917 0,-1.0795 -0.0635,-1.65099 l -0.33867,-2.11665 c -0.21167,-1.84149 0.40217,-2.85748 0.99481,-3.64065 0.84666,-1.14298 2.39183,-1.88381 3.8523,-1.88381 0.33867,0 0.65617,0.0423 0.9525,0.12699 l 1.31234,0.35984 c 0.55033,0.14816 1.10064,0.23283 1.67214,0.23283 1.67216,0 3.30197,-0.67733 4.46614,-1.84149 0.33866,-0.33866 0.61383,-0.74083 0.80433,-1.03716 0.65617,-1.01599 1.03717,-2.20131 1.12183,-3.40781 0,0 0,-0.12699 0.0212,-0.19049 v -0.0635 -0.14817 c 0,-0.0423 0,-0.0847 0,-0.127 0,-0.0423 0,-0.0635 0,-0.10583 v -0.14816 -0.0847 c 0,-0.0635 -0.0212,-0.1905 -0.0212,-0.1905 -0.0635,-1.20649 -0.4445,-2.39182 -1.0795,-3.40781 -0.21166,-0.3175 -0.46566,-0.71966 -0.80433,-1.05832 -1.143,-1.18533 -2.77281,-1.86266 -4.44497,-1.86266 -0.5715,-0.0212 -1.14298,0.0635 -1.69331,0.21167 l -1.31233,0.33866 c -0.29634,0.0847 -0.61384,0.127 -0.93134,0.127 -1.46047,-0.0212 -3.00564,-0.78316 -3.8523,-1.92615 -0.57148,-0.80433 -1.18531,-1.79915 -0.95248,-3.64064 l 0.33867,-2.13782 c 0.0847,-0.55033 0.127,-1.10066 0.10583,-1.62982 z"
         id="path4519" />
      <path
         inkscape:connector-curvature="0"
         style="fill:none;stroke:#6ccff5;stroke-width:0.69849485px;stroke-linecap:round;stroke-linejoin:round;stroke-miterlimit:4;stroke-dasharray:none;stroke-opacity:1"
         d="m 202.8661,243.73554 c -0.0212,-0.46567 -0.0847,-0.91016 -0.21166,-1.35466 -0.23284,-0.97366 -0.71967,-1.86265 -1.397,-2.60348 l -0.14814,-0.16933 c -0.0212,-0.0212 -0.0423,-0.0423 -0.0635,-0.0635 l -0.0635,-0.0635 c -0.0423,-0.0212 -0.0635,-0.0423 -0.0847,-0.0635 -0.0212,-0.0212 -0.0423,-0.0423 -0.0635,-0.0635 l -0.0423,-0.0423 c -0.254,-0.23283 -0.52917,-0.42332 -0.78317,-0.59266 -0.93133,-0.59266 -1.98967,-0.97366 -3.06914,-1.10066 -0.0847,-0.0212 -0.14817,-0.0212 -0.23283,-0.0212 h -0.0423 c -0.0635,-0.0212 -0.127,-0.0212 -0.1905,-0.0212 -0.0423,0 -0.0635,0 -0.0847,0 -0.0635,0 -0.10584,0 -0.16934,0 -0.0423,-0.0212 -0.0635,-0.0212 -0.10583,-0.0212 -0.0423,0 -0.0847,0 -0.127,0 -0.0423,0 -0.10583,0.0212 -0.14817,0.0212 -0.0423,0 -0.0635,0 -0.0847,0 -0.0635,0 -0.127,0 -0.1905,0 h -0.0423 c -0.0847,0.0212 -0.16933,0.0212 -0.254,0.0212 -1.0795,0.127 -2.1378,0.508 -3.06914,1.07949 -0.27516,0.16933 -0.52916,0.35983 -0.78316,0.59266 l -0.0423,0.0423 c -0.0212,0.0212 -0.0423,0.0423 -0.0635,0.0423 -0.0212,0.0423 -0.0635,0.0635 -0.0847,0.0847 l -0.0635,0.0635 c -0.0212,0.0212 -0.0423,0.0423 -0.0635,0.0635 l -0.0635,0.0635 c -0.0212,0.0423 -0.0423,0.0635 -0.0635,0.0847 -0.71964,0.76199 -1.20648,1.62982 -1.46048,2.60348 -0.10583,0.4445 -0.1905,0.88899 -0.21166,1.35466 v 0 l -0.0212,0.1905 c 0,0.52916 0.0212,1.07949 0.0847,1.62982 l 0.33866,2.13781 c 0.21167,1.84149 -0.40216,2.83632 -0.99483,3.64064 -0.4445,0.5715 -1.05833,1.05833 -1.79917,1.39699 -0.0423,0.0423 -0.10581,0.0635 -0.14814,0.0847 l -0.10583,0.0423 c -0.0847,0.0212 -0.16934,0.0635 -0.254,0.0847 l -0.10584,0.0423 c -0.0847,0.0212 -0.14816,0.0423 -0.23283,0.0635 -0.0423,0 -0.0847,0.0212 -0.127,0.0423 l -0.127,0.0212 c -0.0847,0.0212 -0.16933,0.0212 -0.23283,0.0423 -0.0423,0 -0.0847,0.0212 -0.127,0.0212 -0.0635,0 -0.14817,0.0212 -0.23284,0.0212 h -0.0847 c -0.0847,0.0212 -0.14817,0.0212 -0.23284,0.0212 h -0.0635 c -0.0847,0 -0.16933,0 -0.254,-0.0212 h -0.0847 c -0.0847,0 -0.16934,-0.0212 -0.254,-0.0423 h -0.0635 c -0.0847,-0.0212 -0.16934,-0.0423 -0.254,-0.0635 l -1.33348,-0.35983 c -0.52916,-0.14816 -1.10066,-0.23283 -1.651,-0.23283 v 0 c -1.6933,0 -3.32314,0.65616 -4.4873,1.84149 -0.27517,0.254 -0.50798,0.59266 -0.80431,1.03716 -0.65617,1.01599 -1.03717,2.18015 -1.12183,3.36547 v 0.0423 c 0,0 -0.0212,0.35983 -0.0212,0.42333 v 0.21166 0.14817 l 0.0212,0.31749 c 0.0635,1.18533 0.4445,2.34949 1.0795,3.36548 0.29633,0.46566 0.52916,0.78316 0.8043,1.05833 1.143,1.18532 2.77284,1.86265 4.44498,1.86265 0.5715,0 1.143,-0.0635 1.67216,-0.21167 l 1.33348,-0.33866 c 0.0847,-0.0423 0.16933,-0.0423 0.254,-0.0635 l 0.0635,-0.0212 c 0.0847,0 0.16933,-0.0212 0.27516,-0.0212 h 0.0635 c 0.0847,-0.0212 0.16934,-0.0212 0.254,-0.0212 h 0.0847 c 0.0635,0 0.14817,0.0212 0.21167,0.0212 h 0.0847 c 0.0847,0 0.16934,0.0212 0.254,0.0423 0.0212,0 0.0423,0 0.0847,0 h 0.0212 c 0.0847,0.0212 0.14816,0.0423 0.23283,0.0423 0.0423,0.0212 0.0847,0.0212 0.127,0.0423 0.0423,0.0212 0.10583,0.0212 0.14817,0.0423 0.0635,0.0212 0.14816,0.0423 0.21166,0.0635 0.0423,0 0.0847,0.0212 0.127,0.0423 0.0635,0.0212 0.127,0.0423 0.1905,0.0635 0.0423,0.0212 0.0847,0.0423 0.14817,0.0635 0.0423,0.0212 0.10583,0.0423 0.14817,0.0635 0.74081,0.35983 1.35464,0.84666 1.77797,1.43932 0.59267,0.80433 1.2065,1.79916 0.97367,3.64064 l -0.35983,2.13782 c -0.0635,0.57149 -0.10584,1.10066 -0.0847,1.62982 v 0.1905 0 c 0.0212,0.46566 0.0847,0.91016 0.21167,1.35466 0.254,0.97365 0.71966,1.86265 1.41814,2.60348 l 0.0212,0.0423 c 0.0212,0 0.0423,0.0212 0.0423,0.0423 l 0.0847,0.0847 c 0.0212,0.0212 0.0423,0.0423 0.0635,0.0635 l 0.0635,0.0635 c 0.0212,0.0212 0.0423,0.0423 0.0847,0.0635 l 0.0847,0.0847 c 0.254,0.23284 0.52916,0.4445 0.80433,0.61383 0.91017,0.59266 1.9685,0.97366 3.04797,1.10066 h 0.0212 c 0.0847,0.0212 0.14817,0.0212 0.23283,0.0212 l 0.29634,0.0212 c 0.0635,0 0.127,0 0.16933,0 0.0423,0 0.0847,0 0.127,0 0.0423,0 0.0635,0 0.10583,0 0.0635,0 0.10584,0 0.16934,0 l 0.3175,-0.0212 c 0.0635,0 0.14816,0 0.21166,-0.0212 h 0.0212 c 1.07947,-0.10583 2.15897,-0.48683 3.06914,-1.05832 0.27517,-0.16934 0.55033,-0.381 0.80433,-0.61384 l 0.10584,-0.0847 c 0.0212,-0.0212 0.0423,-0.0423 0.0635,-0.0635 l 0.0847,-0.0635 c 0.0212,-0.0212 0.0423,-0.0423 0.0635,-0.0847 l 0.127,-0.14816 c 0.69848,-0.74083 1.18531,-1.60866 1.43931,-2.58231 0.127,-0.4445 0.1905,-0.91017 0.23283,-1.35466 v 0 -0.1905 c 0.0212,-0.52916 -0.0212,-1.07949 -0.0847,-1.65099 l -0.33867,-2.11665 c -0.21167,-1.84148 0.40217,-2.85748 0.99483,-3.64064 0.84667,-1.14299 2.39181,-1.88382 3.87348,-1.88382 0.3175,0 0.635,0.0423 0.93133,0.127 l 1.31231,0.35983 c 0.55033,0.14817 1.12183,0.23283 1.67216,0.23283 1.67214,0 3.30198,-0.67733 4.46612,-1.84148 0.33866,-0.33867 0.61383,-0.74083 0.80433,-1.03716 0.65617,-1.01599 1.03717,-2.20132 1.12183,-3.40781 0,0 0,-0.127 0.0212,-0.1905 v -0.0635 -0.14816 -0.127 c 0,-0.0423 0,-0.0635 0,-0.10584 v -0.14816 -0.0847 c 0,-0.0635 -0.0212,-0.19049 -0.0212,-0.19049 -0.0635,-1.2065 -0.4445,-2.39182 -1.0795,-3.40781 -0.1905,-0.3175 -0.46566,-0.71967 -0.80433,-1.05833 -1.14297,-1.18533 -2.77281,-1.86265 -4.44495,-1.86265 -0.5715,-0.0212 -1.12183,0.0635 -1.67216,0.21166 l -1.33348,0.33867 c -0.27516,0.0847 -0.59266,0.12699 -0.93133,0.12699 -1.4605,-0.0212 -3.00564,-0.78315 -3.83114,-1.92615 -0.59267,-0.80432 -1.2065,-1.79915 -0.97367,-3.64064 l 0.35984,-2.13781 c 0.0635,-0.55033 0.10583,-1.10066 0.0847,-1.62982 l -0.0212,-0.1905 z"
         id="path4521" />
      <path
         inkscape:connector-curvature="0"
         style="fill:none;stroke:#6ccff5;stroke-width:0.69849485px;stroke-linecap:round;stroke-linejoin:round;stroke-miterlimit:4;stroke-dasharray:none;stroke-opacity:1"
         d="m 184.68407,209.65745 c 0,-0.44449 -0.0847,-0.88899 -0.1905,-1.33349 -0.254,-0.99482 -0.71967,-1.86265 -1.41814,-2.62464 l -0.14817,-0.14817 c -0.0212,-0.0212 -0.0423,-0.0423 -0.0635,-0.0635 l -0.0635,-0.0635 c -0.0212,-0.0212 -0.0423,-0.0635 -0.0847,-0.0847 -0.0212,-0.0212 -0.0423,-0.0423 -0.0635,-0.0635 l -0.0212,-0.0212 c -0.27517,-0.23283 -0.52917,-0.4445 -0.80434,-0.61383 -0.91016,-0.59266 -1.9685,-0.95249 -3.06914,-1.10065 -0.0635,0 -0.14816,0 -0.23283,-0.0212 h -0.0423 c -0.0635,0 -0.127,0 -0.1905,0 -0.0212,-0.0212 -0.0423,-0.0212 -0.0847,-0.0212 -0.0423,0 -0.10583,0 -0.14817,0 -0.0423,0 -0.0847,0 -0.127,0 -0.0423,0 -0.0847,0 -0.10583,0 -0.0635,0 -0.127,0 -0.16933,0 -0.0212,0 -0.0635,0 -0.0847,0 -0.0635,0 -0.127,0.0212 -0.1905,0.0212 h -0.0423 c -0.0847,0 -0.14817,0.0212 -0.23284,0.0212 -1.10064,0.12699 -2.15897,0.48682 -3.06914,1.07949 -0.27516,0.16933 -0.52916,0.35983 -0.80433,0.59266 l -0.0423,0.0212 c -0.0212,0.0212 -0.0423,0.0423 -0.0635,0.0635 -0.0212,0.0212 -0.0423,0.0423 -0.0635,0.0847 l -0.0635,0.0635 c -0.0423,0.0212 -0.0635,0.0423 -0.0847,0.0635 l -0.0635,0.0635 c -0.0212,0.0212 -0.0423,0.0423 -0.0635,0.0635 -0.69847,0.76199 -1.18531,1.65099 -1.43931,2.62464 -0.127,0.4445 -0.21166,0.889 -0.23283,1.3335 v 0 0.21166 c -0.0212,0.508 0,1.05833 0.0847,1.62982 l 0.3175,2.11665 c 0.21166,1.86266 -0.40217,2.85748 -0.99484,3.66181 -0.42333,0.5715 -1.05833,1.05832 -1.79914,1.39699 -0.0423,0.0212 -0.10583,0.0423 -0.14816,0.0635 l -0.0847,0.0423 c -0.0847,0.0423 -0.16933,0.0635 -0.254,0.10583 l -0.127,0.0212 c -0.0635,0.0423 -0.14817,0.0635 -0.21167,0.0635 -0.0423,0.0212 -0.0847,0.0423 -0.14816,0.0423 l -0.127,0.0423 c -0.0847,0 -0.14817,0.0212 -0.23284,0.0423 -0.0423,0 -0.0847,0 -0.10583,0 -0.0847,0.0212 -0.16933,0.0212 -0.254,0.0423 h -0.0847 c -0.0635,0 -0.14816,0 -0.21166,0 h -0.0635 c -0.10584,0 -0.1905,0 -0.27517,0 h -0.0635 c -0.10583,-0.0212 -0.1905,-0.0212 -0.27517,-0.0423 h -0.0635 c -0.0847,-0.0212 -0.16933,-0.0423 -0.23283,-0.0635 l -1.33347,-0.35983 c -0.55034,-0.14817 -1.10067,-0.23283 -1.67217,-0.23283 v 0 c -1.69331,-0.0212 -3.32314,0.65616 -4.48728,1.84148 -0.254,0.254 -0.508,0.5715 -0.80433,1.03716 -0.635,0.99483 -1.03717,2.15899 -1.12184,3.36548 v 0.0423 c 0,0 0,0.35983 -0.0212,0.40216 v 0.23284 0.14816 l 0.0212,0.3175 c 0.0847,1.18532 0.46567,2.34948 1.10067,3.36547 0.27517,0.4445 0.52917,0.78317 0.78317,1.03716 1.14297,1.18533 2.7728,1.88382 4.44494,1.88382 0.59267,0 1.143,-0.0847 1.69334,-0.21166 l 1.3123,-0.35983 c 0.10584,-0.0212 0.1905,-0.0423 0.27517,-0.0423 l 0.0423,-0.0212 c 0.10584,-0.0212 0.1905,-0.0212 0.27517,-0.0212 l 0.0635,-0.0212 c 0.10583,0 0.1905,0 0.27517,0 h 0.0635 c 0.0847,0 0.14816,0 0.21166,0 l 0.0847,0.0212 c 0.0847,0 0.16933,0 0.254,0.0212 0.0212,0 0.0635,0 0.0847,0.0212 h 0.0212 c 0.0847,0.0212 0.16934,0.0212 0.23284,0.0423 0.0423,0.0212 0.0847,0.0212 0.127,0.0423 0.0635,0 0.10583,0.0212 0.14816,0.0212 0.0847,0.0212 0.14817,0.0423 0.21167,0.0635 0.0423,0.0212 0.0847,0.0423 0.127,0.0423 0.0635,0.0212 0.127,0.0635 0.1905,0.0847 0.0423,0.0212 0.10583,0.0423 0.14817,0.0635 0.0635,0.0212 0.10583,0.0423 0.14816,0.0635 0.74081,0.33867 1.35464,0.84666 1.79914,1.41816 0.5715,0.80433 1.18534,1.82032 0.9525,3.66181 l -0.33866,2.11665 c -0.0847,0.57149 -0.127,1.12182 -0.10584,1.62982 l 0.0212,0.21166 v 0 c 0.0212,0.4445 0.0847,0.889 0.1905,1.33349 0.254,0.99483 0.74083,1.86266 1.41814,2.62465 l 0.0212,0.0212 c 0.0212,0.0212 0.0423,0.0423 0.0635,0.0635 l 0.0635,0.0635 c 0.0212,0.0212 0.0423,0.0423 0.0847,0.0847 l 0.0423,0.0423 c 0.0423,0.0212 0.0635,0.0635 0.0847,0.0847 l 0.10584,0.0847 c 0.254,0.23283 0.508,0.44449 0.78316,0.61383 0.91017,0.59266 1.9685,0.97366 3.06914,1.10066 h 0.0212 c 0.0635,0 0.127,0 0.21167,0.0212 l 0.3175,0.0212 c 0.0423,0 0.10583,0 0.14816,0 0.0423,0 0.0847,0 0.127,0 0.0423,0 0.0847,0 0.127,0 0.0423,0 0.10584,0 0.14817,0 l 0.3175,-0.0212 c 0.0847,0 0.14817,-0.0212 0.21167,-0.0212 h 0.0212 c 1.10067,-0.127 2.15898,-0.48683 3.06914,-1.05833 0.27517,-0.1905 0.55034,-0.381 0.80434,-0.61383 l 0.10583,-0.0847 c 0.0212,-0.0212 0.0423,-0.0423 0.0635,-0.0635 l 0.0847,-0.0847 c 0.0212,-0.0212 0.0423,-0.0423 0.0635,-0.0635 l 0.14816,-0.14817 c 0.69848,-0.74082 1.18531,-1.62982 1.43931,-2.60348 0.10583,-0.44449 0.1905,-0.88899 0.21167,-1.33349 v 0 -0.21166 c 0.0212,-0.508 -0.0212,-1.05833 -0.0847,-1.62982 l -0.3175,-2.11665 c -0.21167,-1.86266 0.40217,-2.85748 0.99483,-3.66181 0.84667,-1.12183 2.39181,-1.88382 3.85231,-1.86265 0.33867,0 0.635,0.0423 0.93134,0.10583 l 1.3123,0.35983 c 0.55034,0.14817 1.12184,0.23283 1.69334,0.23283 1.67214,0.0212 3.30197,-0.65616 4.46614,-1.84148 0.33864,-0.3175 0.59264,-0.71966 0.8043,-1.03716 0.635,-1.016 1.03717,-2.20132 1.12184,-3.40781 0,0 0,-0.10583 0,-0.16933 v -0.0847 c 0,-0.0423 0,-0.0847 0,-0.14817 v -0.10583 c 0,-0.0423 0,-0.0847 0,-0.127 v -0.14816 -0.0635 c 0,-0.0635 0,-0.21167 0,-0.21167 -0.0847,-1.18532 -0.4445,-2.37064 -1.10067,-3.4078 -0.1905,-0.29634 -0.46567,-0.6985 -0.78314,-1.03717 -1.16417,-1.18532 -2.77283,-1.88381 -4.46614,-1.88381 -0.55033,0 -1.12183,0.0635 -1.67217,0.23283 l -1.3123,0.33866 c -0.29634,0.0635 -0.61384,0.10584 -0.9525,0.10584 -1.4605,0 -3.00565,-0.762 -3.83115,-1.90499 -0.59266,-0.80433 -1.18533,-1.82032 -0.97366,-3.66181 l 0.35983,-2.11665 c 0.0847,-0.57149 0.10583,-1.12182 0.0847,-1.62982 z"
         id="path4523" />
      <path
         inkscape:connector-curvature="0"
         style="fill:none;stroke:#6ccff5;stroke-width:0.69849485px;stroke-linecap:round;stroke-linejoin:round;stroke-miterlimit:4;stroke-dasharray:none;stroke-opacity:1"
         d="m 254.55473,256.43544 c -0.0212,-0.44449 -0.0847,-0.88899 -0.21166,-1.33349 -0.23284,-0.99482 -0.71967,-1.86265 -1.397,-2.62464 l -0.14817,-0.14817 c -0.0212,-0.0212 -0.0423,-0.0423 -0.0635,-0.0635 l -0.0635,-0.0635 c -0.0212,-0.0212 -0.0635,-0.0635 -0.0847,-0.0847 -0.0212,-0.0212 -0.0423,-0.0423 -0.0635,-0.0635 l -0.0423,-0.0212 c -0.254,-0.23283 -0.52917,-0.4445 -0.78317,-0.61383 -0.91014,-0.59266 -1.98964,-0.95249 -3.06914,-1.10066 -0.0847,0 -0.14816,0 -0.23283,-0.0212 h -0.0423 c -0.0635,0 -0.127,0 -0.1905,0 -0.0423,0 -0.0635,-0.0212 -0.0847,-0.0212 -0.0635,0 -0.10583,0 -0.14817,0 -0.0423,0 -0.0847,0 -0.127,0 -0.0423,0 -0.0847,0 -0.127,0 -0.0423,0 -0.1058,0 -0.14814,0 -0.0423,0 -0.0635,0 -0.0847,0 -0.0635,0 -0.127,0.0212 -0.1905,0.0212 h -0.0423 c -0.0847,0 -0.16933,0.0212 -0.23283,0.0212 -1.10067,0.127 -2.159,0.48683 -3.09031,1.07949 -0.254,0.16933 -0.52917,0.35983 -0.78317,0.59267 l -0.0423,0.0212 c -0.0212,0.0212 -0.0423,0.0423 -0.0635,0.0635 -0.0212,0.0212 -0.0423,0.0423 -0.0847,0.0847 l -0.0635,0.0635 c -0.0212,0.0212 -0.0423,0.0423 -0.0635,0.0635 l -0.0635,0.0635 c -0.0212,0.0212 -0.0423,0.0423 -0.0635,0.0635 -0.71966,0.76199 -1.2065,1.65098 -1.4605,2.62464 -0.10583,0.4445 -0.1905,0.889 -0.21166,1.33349 v 0 0.21167 c -0.0212,0.508 0,1.05832 0.0635,1.62982 l 0.33866,2.11665 c 0.21167,1.86265 -0.40216,2.85748 -0.9948,3.66181 -0.4445,0.57149 -1.05834,1.05832 -1.79917,1.39698 -0.0423,0.0212 -0.10583,0.0423 -0.14817,0.0635 l -0.10583,0.0423 c -0.0847,0.0423 -0.16933,0.0635 -0.254,0.10583 l -0.10583,0.0212 c -0.0635,0.0423 -0.14817,0.0635 -0.23284,0.0635 -0.0423,0.0212 -0.0847,0.0423 -0.127,0.0423 l -0.127,0.0423 c -0.0847,0 -0.16933,0.0212 -0.23283,0.0423 -0.0423,0 -0.0847,0 -0.127,0 -0.0635,0.0212 -0.14817,0.0212 -0.23283,0.0423 h -0.0846 c -0.0847,0 -0.14817,0 -0.23284,0 h -0.0635 c -0.0847,0 -0.16933,0 -0.254,0 h -0.0847 c -0.0847,-0.0212 -0.16934,-0.0212 -0.254,-0.0423 h -0.0635 c -0.0847,-0.0212 -0.16934,-0.0423 -0.254,-0.0635 l -1.3335,-0.35984 c -0.52917,-0.14816 -1.10064,-0.23283 -1.65098,-0.23283 v 0 c -1.69333,-0.0212 -3.32314,0.65617 -4.4873,1.82032 -0.27517,0.27517 -0.508,0.59267 -0.80434,1.05833 -0.65616,0.99483 -1.03716,2.15898 -1.12183,3.36548 v 0.0212 c 0,0 -0.0212,0.381 -0.0212,0.42333 v 0.23283 0.14817 l 0.0212,0.3175 c 0.0635,1.18532 0.4445,2.34948 1.0795,3.36547 0.29633,0.4445 0.52917,0.78316 0.80433,1.03716 1.143,1.18533 2.77281,1.88382 4.44498,1.88382 0.5715,0 1.14297,-0.0847 1.67214,-0.21167 l 1.3335,-0.35983 c 0.10583,-0.0212 0.16933,-0.0423 0.254,-0.0423 l 0.0635,-0.0212 c 0.0847,-0.0212 0.1905,-0.0212 0.27516,-0.0423 h 0.0635 c 0.0847,0 0.16934,0 0.27517,0 h 0.0635 c 0.0635,0 0.14817,0 0.21167,0 l 0.0847,0.0212 c 0.0846,0 0.16931,0.0212 0.25398,0.0212 0.0212,0 0.0635,0.0212 0.0847,0.0212 h 0.0212 c 0.0847,0.0212 0.14817,0.0212 0.23283,0.0423 0.0423,0.0212 0.0847,0.0212 0.127,0.0423 0.0423,0 0.10584,0.0212 0.14817,0.0212 0.0635,0.0212 0.14817,0.0423 0.21167,0.0635 0.0423,0.0212 0.0847,0.0423 0.127,0.0423 0.0635,0.0212 0.127,0.0635 0.1905,0.0847 0.0423,0.0212 0.10583,0.0423 0.14816,0.0635 0.0423,0.0212 0.10584,0.0423 0.14817,0.0635 0.74083,0.35983 1.35467,0.84666 1.778,1.41816 0.59264,0.80432 1.20647,1.82032 0.97364,3.6618 l -0.35983,2.11665 c -0.0635,0.5715 -0.10584,1.12183 -0.0847,1.62983 v 0.21166 0 c 0.0212,0.4445 0.10583,0.91016 0.21167,1.33349 0.254,0.99483 0.71966,1.86265 1.41816,2.62465 l 0.0212,0.0212 c 0.0212,0.0212 0.0423,0.0423 0.0635,0.0635 l 0.0635,0.0635 c 0.0212,0.0212 0.0423,0.0423 0.0635,0.0847 l 0.0635,0.0423 c 0.0212,0.0423 0.0635,0.0635 0.0847,0.0847 l 0.0847,0.0847 c 0.27517,0.23283 0.52917,0.44449 0.80434,0.61382 0.91014,0.59267 1.96847,0.97366 3.04797,1.10066 h 0.0212 c 0.0847,0 0.14817,0 0.23283,0.0212 l 0.3175,0.0212 c 0.0423,0 0.10584,0 0.14817,0 0.0423,0 0.0847,0 0.12697,0 0.0423,0 0.0847,0 0.10584,0 0.0635,0 0.10583,0 0.16933,0 l 0.3175,-0.0212 c 0.0635,0 0.14817,-0.0212 0.21167,-0.0212 h 0.0212 c 1.10067,-0.127 2.159,-0.48683 3.06914,-1.05832 0.27517,-0.1905 0.55034,-0.381 0.80434,-0.61383 l 0.10583,-0.0847 c 0.0212,-0.0212 0.0423,-0.0423 0.0635,-0.0635 l 0.0847,-0.0847 c 0.0212,-0.0212 0.0423,-0.0423 0.0635,-0.0635 l 0.127,-0.14817 c 0.6985,-0.74083 1.18533,-1.62982 1.43933,-2.60348 0.127,-0.4445 0.21167,-0.88899 0.23283,-1.33349 v 0 -0.21167 c 0.0212,-0.50799 -0.0212,-1.05832 -0.0847,-1.62982 l -0.33867,-2.11665 c -0.21167,-1.86265 0.40217,-2.85748 0.99481,-3.6618 0.84666,-1.12183 2.413,-1.88382 3.87347,-1.86266 0.3175,0 0.635,0.0423 0.93133,0.10584 l 1.31234,0.35983 c 0.55033,0.16933 1.1218,0.23283 1.67214,0.23283 1.69333,0.0212 3.32314,-0.65616 4.4873,-1.82032 0.3175,-0.33866 0.59267,-0.74083 0.78317,-1.05833 0.65617,-1.01599 1.05831,-2.18015 1.14297,-3.4078 0,0 0,-0.10584 0,-0.16934 v -0.0847 c 0,-0.0423 0,-0.0847 0,-0.14817 0,-0.0423 0,-0.0635 0,-0.10583 0,-0.0423 0,-0.0847 0,-0.127 0,-0.0423 0,-0.0847 0,-0.14817 v -0.0635 c 0,-0.0635 0,-0.21166 0,-0.21166 -0.0847,-1.18533 -0.46564,-2.37065 -1.10064,-3.40781 -0.1905,-0.29633 -0.46566,-0.69849 -0.78316,-1.03716 -1.16417,-1.18532 -2.79398,-1.86265 -4.46614,-1.88382 -0.5715,0 -1.12181,0.0847 -1.67214,0.23283 l -1.3335,0.33867 c -0.27517,0.0635 -0.59267,0.10583 -0.93134,0.10583 -1.46047,0 -3.00564,-0.76199 -3.83114,-1.90498 -0.59264,-0.80433 -1.20647,-1.82032 -0.97364,-3.66181 l 0.35984,-2.11665 c 0.0635,-0.5715 0.10583,-1.12182 0.0847,-1.62982 z"
         id="path4525" />
      <path
         inkscape:connector-curvature="0"
         style="fill:none;stroke:#6ccff5;stroke-width:0.69849485px;stroke-linecap:round;stroke-linejoin:round;stroke-miterlimit:4;stroke-dasharray:none;stroke-opacity:1"
         d="m 235.2297,223.45802 c -0.0212,-0.4445 -0.0847,-0.88899 -0.21167,-1.33349 -0.23283,-0.99483 -0.71967,-1.86265 -1.41817,-2.62465 l -0.127,-0.14816 c -0.0212,-0.0212 -0.0423,-0.0423 -0.0635,-0.0635 l -0.0635,-0.0635 c -0.0423,-0.0212 -0.0635,-0.0635 -0.0846,-0.0847 -0.0212,-0.0212 -0.0423,-0.0423 -0.0635,-0.0635 l -0.0423,-0.0212 c -0.254,-0.23284 -0.52917,-0.4445 -0.78317,-0.61383 -0.93133,-0.59266 -1.98966,-0.95249 -3.06914,-1.10066 -0.0847,0 -0.16933,0 -0.23283,-0.0212 h -0.0423 c -0.0635,0 -0.127,0 -0.1905,0 -0.0423,-0.0212 -0.0635,-0.0212 -0.0847,-0.0212 -0.0635,0 -0.10583,0 -0.16933,0 -0.0423,0 -0.0635,0 -0.10584,0 -0.0423,0 -0.0847,0 -0.127,0 -0.0635,0 -0.10583,0 -0.14816,0 -0.0423,0 -0.0635,0 -0.0847,0 -0.0635,0.0212 -0.127,0.0212 -0.21167,0.0212 h -0.0423 c -0.0635,0 -0.14817,0.0212 -0.23283,0.0212 -1.0795,0.127 -2.13781,0.48683 -3.06914,1.07949 -0.27517,0.16933 -0.52917,0.35983 -0.80434,0.59266 l -0.0212,0.0212 c -0.0212,0.0212 -0.0423,0.0423 -0.0635,0.0635 -0.0212,0.0212 -0.0635,0.0423 -0.0847,0.0847 l -0.0635,0.0635 c -0.0212,0.0212 -0.0423,0.0423 -0.0635,0.0635 l -0.0635,0.0635 c -0.0212,0.0212 -0.0423,0.0423 -0.0635,0.0635 -0.71967,0.762 -1.20647,1.65099 -1.46047,2.62465 -0.127,0.4445 -0.1905,0.88899 -0.21167,1.33349 v 0 l -0.0212,0.21166 c -0.0212,0.508 0.0212,1.05833 0.0847,1.62983 l 0.33867,2.11665 c 0.21166,1.86265 -0.40217,2.85748 -0.99484,3.6618 -0.4445,0.5715 -1.05833,1.05833 -1.79916,1.39699 -0.0635,0.0212 -0.10584,0.0423 -0.16934,0.0635 l -0.0847,0.0423 c -0.0846,0.0423 -0.16931,0.0635 -0.25398,0.10584 l -0.10583,0.0212 c -0.0847,0.0423 -0.14817,0.0635 -0.23283,0.0847 -0.0423,0 -0.0847,0.0212 -0.127,0.0212 l -0.127,0.0423 c -0.0847,0 -0.16934,0.0212 -0.23284,0.0423 -0.0423,0 -0.0847,0 -0.127,0 -0.0847,0.0212 -0.14816,0.0212 -0.23283,0.0423 h -0.0847 c -0.0847,0 -0.14816,0 -0.23283,0 h -0.0635 c -0.0847,0 -0.16933,0 -0.27517,0 h -0.0635 c -0.0847,-0.0212 -0.16933,-0.0212 -0.254,-0.0423 h -0.0635 c -0.0847,-0.0212 -0.16933,-0.0423 -0.254,-0.0635 l -1.33347,-0.35983 c -0.55033,-0.14816 -1.10067,-0.23283 -1.651,-0.23283 v 0 c -1.69331,-0.0212 -3.32314,0.65616 -4.48731,1.84149 -0.27516,0.254 -0.52914,0.5715 -0.8043,1.03716 -0.65617,0.99482 -1.03717,2.15898 -1.12184,3.36547 v 0.0423 c 0,0 -0.0212,0.35983 -0.0212,0.40216 v 0.23283 0.14817 0.31749 c 0.0847,1.18533 0.46566,2.34949 1.10066,3.36548 0.29634,0.4445 0.52914,0.78316 0.78314,1.03716 1.16417,1.18532 2.794,1.88382 4.46614,1.88382 0.5715,0 1.143,-0.0635 1.67217,-0.21167 l 1.33347,-0.35983 c 0.0847,-0.0212 0.16934,-0.0423 0.254,-0.0423 l 0.0635,-0.0212 c 0.0847,-0.0212 0.16934,-0.0212 0.254,-0.0212 l 0.0847,-0.0212 c 0.0847,0 0.16933,0 0.254,0 h 0.0635 c 0.0847,0 0.14817,0 0.23283,0 l 0.0847,0.0212 c 0.0847,0 0.16933,0.0212 0.254,0.0212 0.0212,0 0.0423,0 0.0847,0.0212 h 0.0212 c 0.0847,0.0212 0.14817,0.0212 0.23284,0.0423 0.0423,0.0212 0.0847,0.0212 0.127,0.0423 0.0423,0 0.0847,0.0212 0.14816,0.0212 0.0635,0.0212 0.127,0.0423 0.21167,0.0635 0.0423,0.0212 0.0847,0.0423 0.10583,0.0423 0.0847,0.0212 0.14817,0.0635 0.21167,0.0847 0.0423,0.0212 0.0847,0.0423 0.14814,0.0635 0.0423,0.0212 0.0847,0.0423 0.14817,0.0635 0.74083,0.33866 1.35466,0.84666 1.778,1.41816 0.59266,0.80432 1.2065,1.82032 0.97366,3.6618 l -0.35983,2.11665 c -0.0847,0.5715 -0.10583,1.12183 -0.0847,1.62982 v 0.21167 0 c 0.0212,0.44449 0.0847,0.91016 0.21167,1.33349 0.254,0.99483 0.71967,1.86265 1.41814,2.62465 l 0.0212,0.0212 c 0.0212,0.0212 0.0212,0.0423 0.0423,0.0635 l 0.0847,0.0635 c 0.0212,0.0212 0.0423,0.0423 0.0635,0.0847 l 0.0635,0.0423 c 0.0212,0.0423 0.0423,0.0635 0.0635,0.0847 l 0.10583,0.0847 c 0.254,0.23283 0.52917,0.4445 0.80433,0.61383 0.91017,0.59266 1.96848,0.97366 3.04798,1.10066 h 0.0212 c 0.0847,0 0.14817,0 0.21167,0.0212 l 0.3175,0.0212 c 0.0635,0 0.10583,0 0.16933,0 0.0423,0 0.0847,0 0.127,0 0.0423,0 0.0635,0 0.10584,0 0.0635,0 0.10583,0 0.16933,0 l 0.3175,-0.0212 c 0.0635,0 0.127,-0.0212 0.21167,-0.0212 h 0.0212 c 1.07948,-0.127 2.13781,-0.48683 3.06914,-1.05833 0.27517,-0.19049 0.55034,-0.38099 0.80434,-0.61382 l 0.10583,-0.0847 c 0.0212,-0.0212 0.0423,-0.0423 0.0635,-0.0635 l 0.0847,-0.0847 c 0.0212,-0.0212 0.0423,-0.0423 0.0635,-0.0635 l 0.127,-0.14817 c 0.6985,-0.74083 1.18533,-1.62982 1.43933,-2.60348 0.127,-0.4445 0.1905,-0.889 0.23284,-1.33349 v 0 -0.21167 c 0,-0.50799 -0.0212,-1.05832 -0.0847,-1.62982 l -0.33867,-2.11665 c -0.21166,-1.86265 0.40217,-2.85748 0.99484,-3.6618 0.84666,-1.12183 2.3918,-1.88382 3.87347,-1.86266 0.3175,0 0.635,0.0423 0.93131,0.10583 l 1.31233,0.35983 c 0.55033,0.16934 1.10067,0.23284 1.67217,0.23284 1.67214,0.0212 3.30197,-0.65616 4.46611,-1.82032 0.33867,-0.33867 0.61384,-0.74083 0.80434,-1.05833 0.65616,-1.01599 1.03716,-2.18015 1.12183,-3.40781 0,0 0,-0.10583 0.0212,-0.16933 v -0.0847 -0.14816 c 0,-0.0423 0,-0.0635 0,-0.10583 0,-0.0423 0,-0.0847 0,-0.127 v -0.14817 -0.0635 c 0,-0.0635 -0.0212,-0.21166 -0.0212,-0.21166 -0.0635,-1.18533 -0.4445,-2.37065 -1.0795,-3.40781 -0.21167,-0.29633 -0.46567,-0.69849 -0.80433,-1.03716 -1.14298,-1.18532 -2.77281,-1.86265 -4.44495,-1.88382 -0.5715,0 -1.143,0.0635 -1.67217,0.23283 l -1.3335,0.33867 c -0.29631,0.0635 -0.59264,0.10583 -0.93131,0.10583 -1.4605,0 -3.00564,-0.762 -3.83114,-1.90499 -0.59266,-0.80432 -1.2065,-1.82032 -0.97366,-3.6618 l 0.33866,-2.11665 c 0.0847,-0.5715 0.127,-1.12183 0.10584,-1.62983 l -0.0212,-0.21166 z"
         id="path4527" />
      <path
         inkscape:connector-curvature="0"
         style="fill:none;stroke:#6ccff5;stroke-width:0.69849485px;stroke-linecap:round;stroke-linejoin:round;stroke-miterlimit:4;stroke-dasharray:none;stroke-opacity:1"
         d="m 189.19254,295.74165 c -0.0212,-0.44449 -0.0847,-0.91016 -0.21166,-1.33349 -0.254,-0.99482 -0.71967,-1.86265 -1.41817,-2.62464 l -0.127,-0.14817 c -0.0212,-0.0212 -0.0423,-0.0423 -0.0635,-0.0635 l -0.0847,-0.0635 c -0.0212,-0.0423 -0.0423,-0.0635 -0.0635,-0.0847 -0.0212,-0.0212 -0.0423,-0.0423 -0.0847,-0.0635 l -0.0212,-0.0212 c -0.254,-0.23284 -0.52914,-0.4445 -0.80431,-0.61383 -0.91016,-0.59266 -1.9685,-0.97366 -3.04797,-1.10066 -0.0847,0 -0.16934,-0.0212 -0.23284,-0.0212 h -0.0423 c -0.0635,0 -0.14817,-0.0212 -0.21167,-0.0212 -0.0212,0 -0.0423,0 -0.0635,0 -0.0635,0 -0.10583,0 -0.16933,0 -0.0423,0 -0.0635,0 -0.127,0 -0.0212,0 -0.0635,0 -0.10583,0 -0.0635,0 -0.10584,0 -0.16934,0 -0.0212,0 -0.0423,0 -0.0635,0 -0.0635,0 -0.14816,0 -0.21166,0.0212 h -0.0423 c -0.0635,0 -0.14816,0 -0.23283,0.0212 -1.0795,0.127 -2.13781,0.48683 -3.06914,1.05833 -0.27517,0.16933 -0.52917,0.38099 -0.80433,0.61382 l -0.0212,0.0212 c -0.0212,0.0212 -0.0423,0.0423 -0.0635,0.0635 -0.0423,0.0212 -0.0635,0.0423 -0.0847,0.0635 l -0.0635,0.0635 c -0.0212,0.0423 -0.0423,0.0635 -0.0635,0.0847 l -0.0635,0.0635 c -0.0212,0.0212 -0.0423,0.0423 -0.0635,0.0635 -0.71966,0.76199 -1.20647,1.62982 -1.46047,2.62464 -0.127,0.4445 -0.1905,0.889 -0.21167,1.33349 v 0 l -0.0212,0.21167 c -0.0212,0.50799 0.0212,1.05832 0.0847,1.62982 l 0.33867,2.11665 c 0.21164,1.84148 -0.40217,2.85748 -1.016,3.64064 -0.42333,0.59266 -1.03717,1.07949 -1.778,1.41815 -0.0635,0.0212 -0.10583,0.0423 -0.16933,0.0635 l -0.0847,0.0423 c -0.0847,0.0423 -0.16933,0.0635 -0.254,0.0847 l -0.10583,0.0423 c -0.0846,0.0212 -0.14814,0.0423 -0.23281,0.0635 -0.0423,0.0212 -0.0847,0.0212 -0.127,0.0423 l -0.14817,0.0212 c -0.0635,0.0212 -0.14816,0.0423 -0.21166,0.0423 -0.0423,0.0212 -0.0847,0.0212 -0.127,0.0212 -0.0847,0.0212 -0.16934,0.0212 -0.23284,0.0423 h -0.0847 c -0.0847,0 -0.14817,0 -0.23284,0 h -0.0635 c -0.0847,0 -0.1905,0 -0.27516,0 l -0.0635,-0.0212 c -0.0847,0 -0.16934,0 -0.254,-0.0212 l -0.0635,-0.0212 c -0.0847,0 -0.16934,-0.0212 -0.254,-0.0423 l -1.33348,-0.35983 c -0.55033,-0.16933 -1.10066,-0.23283 -1.651,-0.23283 v 0 c -1.7145,-0.0212 -3.3443,0.65616 -4.50847,1.82032 -0.254,0.27517 -0.508,0.59266 -0.78317,1.03716 -0.65614,1.01599 -1.03714,2.18015 -1.1218,3.38664 v 0.0212 c 0,0 -0.0212,0.381 -0.0212,0.42333 v 0.23283 0.14817 0.29633 c 0.0847,1.20649 0.46567,2.37065 1.10064,3.36547 0.27517,0.46567 0.52917,0.78317 0.78317,1.05833 1.16416,1.18532 2.7728,1.86265 4.44497,1.88382 0.59267,0 1.16417,-0.0847 1.69333,-0.23283 l 1.33348,-0.33867 c 0.0847,-0.0212 0.16933,-0.0423 0.254,-0.0635 h 0.0635 c 0.0847,-0.0212 0.16933,-0.0212 0.254,-0.0423 h 0.0847 c 0.0847,0 0.16934,0 0.254,0 h 0.0635 c 0.0847,0 0.14817,0 0.23284,0 h 0.0847 c 0.0847,0.0212 0.16934,0.0212 0.23284,0.0423 0.0423,0 0.0635,0 0.10583,0 l 0.0212,0.0212 c 0.0635,0 0.14816,0.0212 0.23283,0.0423 0.0423,0 0.0847,0.0212 0.127,0.0212 0.0423,0.0212 0.0847,0.0212 0.14817,0.0423 0.0635,0.0212 0.127,0.0423 0.21166,0.0635 0.0423,0.0212 0.0846,0.0212 0.10581,0.0423 0.0847,0.0212 0.14817,0.0423 0.21167,0.0847 0.0423,0.0212 0.0847,0.0212 0.14816,0.0635 0.0423,0.0212 0.0847,0.0423 0.14817,0.0635 0.74083,0.33866 1.35467,0.84666 1.778,1.41816 0.59267,0.80432 1.18533,1.82032 0.97367,3.64064 l -0.35984,2.13781 c -0.0847,0.5715 -0.10583,1.12183 -0.0847,1.62983 v 0.21166 0 c 0.0212,0.4445 0.0847,0.88899 0.21166,1.33349 0.254,0.97366 0.71964,1.86265 1.41814,2.62465 l 0.0212,0.0212 c 0.0212,0.0212 0.0212,0.0423 0.0423,0.0423 l 0.0635,0.0847 c 0.0212,0.0212 0.0635,0.0423 0.0847,0.0635 l 0.0635,0.0635 c 0.0212,0.0212 0.0423,0.0423 0.0635,0.0847 l 0.10583,0.0847 c 0.254,0.23284 0.52917,0.42334 0.80434,0.61383 0.91016,0.5715 1.96847,0.95249 3.04797,1.07949 l 0.0212,0.0212 c 0.0635,0 0.14816,0 0.21166,0.0212 h 0.3175 c 0.0635,0.0212 0.10584,0.0212 0.16934,0.0212 0.0423,0 0.0847,0 0.127,0 0.0423,0 0.0635,0 0.10583,0 0.0635,0 0.10583,0 0.16933,0 l 0.3175,-0.0212 c 0.0635,0 0.127,-0.0212 0.21167,-0.0212 h 0.0212 c 1.07947,-0.127 2.1378,-0.48683 3.06914,-1.07949 0.27516,-0.16933 0.52917,-0.35983 0.80431,-0.59266 l 0.0847,-0.0847 c 0.0423,-0.0212 0.0635,-0.0635 0.0847,-0.0847 l 0.0635,-0.0635 c 0.0212,-0.0212 0.0635,-0.0423 0.0847,-0.0635 l 0.127,-0.14816 c 0.6985,-0.74083 1.18533,-1.62982 1.43933,-2.60348 0.127,-0.4445 0.1905,-0.88899 0.21167,-1.33349 v 0 l 0.0212,-0.21167 c 0.0212,-0.50799 -0.0212,-1.05832 -0.0847,-1.62982 l -0.3175,-2.11665 c -0.21167,-1.86265 0.40216,-2.85748 0.99483,-3.6618 0.84664,-1.12183 2.39181,-1.88382 3.85231,-1.88382 0.33866,0 0.63497,0.0423 0.9313,0.127 l 1.31234,0.35983 c 0.55033,0.14816 1.12183,0.23283 1.69333,0.23283 1.67214,0 3.30197,-0.65616 4.46611,-1.84149 0.33867,-0.33866 0.59267,-0.71966 0.80434,-1.03716 0.635,-1.01599 1.03716,-2.20131 1.12183,-3.40781 0,0 0,-0.127 0,-0.19049 v -0.0635 c 0,-0.0423 0,-0.10584 0,-0.14817 0,-0.0423 0,-0.0847 0,-0.10583 0,-0.0423 0,-0.0847 0,-0.127 0,-0.0423 0,-0.10583 0,-0.14817 v -0.0847 c 0,-0.0635 0,-0.1905 0,-0.1905 -0.0847,-1.20649 -0.4445,-2.37065 -1.10067,-3.40781 -0.1905,-0.29633 -0.46566,-0.6985 -0.78316,-1.03716 -1.16414,-1.18532 -2.77281,-1.88382 -4.46612,-1.88382 -0.55033,0 -1.12183,0.0635 -1.67216,0.21167 l -1.31234,0.35983 c -0.29633,0.0635 -0.6138,0.10583 -0.95247,0.10583 -1.4605,0 -3.00567,-0.78316 -3.83114,-1.90499 -0.59267,-0.80432 -1.18533,-1.82032 -0.97367,-3.6618 l 0.35984,-2.13782 c 0.0847,-0.55033 0.10583,-1.10066 0.0847,-1.60865 z"
         id="path4529" />
      <path
         inkscape:connector-curvature="0"
         style="fill:none;stroke:#6ccff5;stroke-width:0.69849485px;stroke-linecap:round;stroke-linejoin:round;stroke-miterlimit:4;stroke-dasharray:none;stroke-opacity:1"
         d="m 169.74051,262.0869 c -0.0212,-0.4445 -0.0847,-0.91016 -0.1905,-1.35465 -0.254,-0.97367 -0.74081,-1.84149 -1.41814,-2.60349 l -0.14817,-0.14816 c -0.0212,-0.0212 -0.0423,-0.0423 -0.0635,-0.0635 l -0.0635,-0.0635 c -0.0212,-0.0423 -0.0635,-0.0635 -0.0847,-0.0847 -0.0212,-0.0212 -0.0423,-0.0423 -0.0635,-0.0635 l -0.0423,-0.0212 c -0.254,-0.23283 -0.508,-0.4445 -0.78317,-0.61383 -0.91016,-0.59267 -1.96847,-0.97366 -3.06914,-1.10066 -0.0635,0 -0.14816,-0.0212 -0.23283,-0.0212 h -0.0423 c -0.0635,0 -0.127,-0.0212 -0.1905,-0.0212 -0.0212,0 -0.0635,0 -0.0847,0 -0.0423,0 -0.10583,0 -0.14817,0 -0.0423,0 -0.0847,0 -0.127,0 -0.0423,0 -0.0847,0 -0.127,0 -0.0423,0 -0.10583,0 -0.14816,0 -0.0212,0 -0.0635,0 -0.0847,0 -0.0635,0 -0.127,0 -0.1905,0.0212 h -0.0423 c -0.0847,0 -0.16934,0 -0.23284,0.0212 -1.10064,0.10583 -2.15897,0.48683 -3.06914,1.05833 -0.27516,0.16933 -0.55033,0.38099 -0.80433,0.61382 l -0.0423,0.0212 c -0.0212,0.0212 -0.0423,0.0423 -0.0635,0.0635 -0.0212,0.0212 -0.0423,0.0423 -0.0635,0.0635 l -0.0847,0.0635 c -0.0212,0.0212 -0.0423,0.0423 -0.0635,0.0847 l -0.0635,0.0635 c -0.0212,0.0212 -0.0423,0.0423 -0.0635,0.0635 -0.6985,0.762 -1.18533,1.62982 -1.43933,2.60349 -0.127,0.44449 -0.21167,0.91015 -0.23284,1.35465 v 0 0.21167 c -0.0212,0.50799 0,1.05832 0.0847,1.62982 l 0.3175,2.11665 c 0.21167,1.84149 -0.40216,2.85748 -0.99483,3.64064 -0.42333,0.59266 -1.05831,1.07949 -1.79914,1.41816 -0.0423,0.0212 -0.10583,0.0423 -0.14817,0.0635 l -0.10583,0.0423 c -0.0847,0.0212 -0.16933,0.0635 -0.23283,0.0847 l -0.127,0.0423 c -0.0635,0.0212 -0.14817,0.0423 -0.21167,0.0635 -0.0423,0.0212 -0.10583,0.0212 -0.14817,0.0423 l -0.127,0.0212 c -0.0847,0.0212 -0.14816,0.0423 -0.23283,0.0423 -0.0423,0.0212 -0.0847,0.0212 -0.127,0.0212 -0.0635,0.0212 -0.14817,0.0212 -0.23283,0.0212 l -0.0847,0.0212 c -0.0635,0 -0.14817,0 -0.23284,0 h -0.0423 c -0.10583,0 -0.1905,0 -0.27516,0 l -0.0635,-0.0212 c -0.10584,0 -0.1905,-0.0212 -0.27514,-0.0212 l -0.0635,-0.0212 c -0.0847,-0.0212 -0.16934,-0.0212 -0.254,-0.0635 l -1.3335,-0.33866 c -0.52917,-0.16934 -1.10067,-0.23284 -1.651,-0.254 v 0 c -1.69331,0 -3.32314,0.67732 -4.48728,1.84148 -0.254,0.27517 -0.508,0.59267 -0.80434,1.03716 -0.635,1.01599 -1.03716,2.18015 -1.12183,3.36548 v 0.0423 c 0,0 -0.0212,0.35983 -0.0212,0.42333 v 0.23283 0.14817 l 0.0212,0.29633 c 0.0847,1.20649 0.4445,2.37065 1.0795,3.36547 0.29633,0.46567 0.52917,0.78316 0.80433,1.05833 1.14298,1.18532 2.77281,1.86265 4.44495,1.88382 0.59267,0 1.143,-0.0847 1.69333,-0.23283 l 1.31234,-0.33867 c 0.10583,-0.0212 0.1905,-0.0423 0.27516,-0.0635 h 0.0423 c 0.10581,-0.0212 0.19048,-0.0212 0.27514,-0.0423 h 0.0635 c 0.0847,0 0.1905,-0.0212 0.27517,0 h 0.0635 c 0.0635,0 0.14817,0 0.21167,0 h 0.0847 c 0.0847,0.0212 0.16933,0.0212 0.254,0.0423 0.0212,0 0.0635,0 0.0847,0 l 0.0212,0.0212 c 0.0847,0 0.16933,0.0212 0.23283,0.0423 0.0423,0 0.0847,0.0212 0.127,0.0212 0.0635,0.0212 0.10583,0.0212 0.14817,0.0423 0.0847,0.0212 0.14816,0.0423 0.21166,0.0635 0.0423,0.0212 0.0847,0.0212 0.127,0.0423 0.0635,0.0212 0.127,0.0423 0.1905,0.0847 0.0423,0 0.10584,0.0212 0.14817,0.0423 0.0423,0.0212 0.10583,0.0635 0.14817,0.0847 0.74083,0.33866 1.35464,0.84666 1.79914,1.41816 0.5715,0.80432 1.18533,1.82031 0.9525,3.64063 l -0.33867,2.13782 c -0.0847,0.5715 -0.127,1.12183 -0.10583,1.62982 l 0.0212,0.21167 v 0 c 0.0212,0.4445 0.0847,0.88899 0.1905,1.33349 0.254,0.97366 0.74083,1.86265 1.41816,2.62465 l 0.0212,0.0212 c 0.0212,0.0212 0.0423,0.0423 0.0635,0.0423 l 0.0635,0.0847 c 0.0212,0.0212 0.0423,0.0423 0.0635,0.0635 l 0.0635,0.0635 c 0.0212,0.0212 0.0635,0.0423 0.0847,0.0847 l 0.10584,0.0847 c 0.25397,0.23283 0.50797,0.42333 0.78314,0.61383 0.91016,0.5715 1.96849,0.9525 3.06913,1.07949 v 0 c 0.0847,0.0212 0.14817,0.0212 0.23284,0.0212 l 0.3175,0.0212 c 0.0423,0 0.10583,0.0212 0.14816,0.0212 0.0423,0 0.0847,0 0.127,0 0.0423,0 0.0847,0 0.127,0 0.0423,0 0.10584,0 0.14817,0 l 0.3175,-0.0212 c 0.0635,-0.0212 0.14817,-0.0212 0.21167,-0.0212 h 0.0212 c 1.10067,-0.127 2.15898,-0.48683 3.06914,-1.07949 0.27517,-0.16933 0.55034,-0.35983 0.80434,-0.59266 l 0.10583,-0.0847 c 0.0212,-0.0212 0.0423,-0.0635 0.0635,-0.0847 l 0.0847,-0.0635 c 0.0212,-0.0212 0.0423,-0.0423 0.0635,-0.0635 l 0.14816,-0.14817 c 0.6985,-0.762 1.16414,-1.62982 1.43931,-2.60348 0.10583,-0.4445 0.1905,-0.88899 0.21167,-1.33349 v 0 -0.21167 c 0.0212,-0.50799 -0.0212,-1.05832 -0.0847,-1.62982 l -0.33867,-2.11665 c -0.21164,-1.86265 0.42334,-2.85748 1.016,-3.66181 0.8255,-1.12182 2.39181,-1.88381 3.85231,-1.88381 0.3175,0 0.635,0.0423 0.93133,0.12699 l 1.31231,0.35983 c 0.55033,0.14817 1.12183,0.23284 1.69333,0.23284 1.67217,0 3.30198,-0.65617 4.46614,-1.84149 0.3175,-0.33866 0.59267,-0.71966 0.80434,-1.03716 0.63497,-1.01599 1.03714,-2.20131 1.1218,-3.40781 0,0 0,-0.12699 0,-0.19049 v -0.0635 c 0,-0.0423 0,-0.10584 0,-0.14817 0,-0.0423 0,-0.0847 0,-0.127 0,-0.0212 0,-0.0635 0,-0.10583 0,-0.0423 0,-0.10584 0,-0.14817 v -0.0847 c 0,-0.0635 0,-0.1905 0,-0.1905 -0.0847,-1.20649 -0.46566,-2.39182 -1.10066,-3.40781 -0.19048,-0.3175 -0.46564,-0.69849 -0.78314,-1.03716 -1.16417,-1.18532 -2.77284,-1.88382 -4.46614,-1.88382 -0.55034,0 -1.12184,0.0635 -1.67217,0.21167 l -1.31231,0.33866 c -0.29633,0.0847 -0.61383,0.127 -0.9525,0.127 -1.4605,0 -3.00564,-0.78316 -3.83114,-1.92615 -0.59266,-0.78316 -1.18533,-1.79916 -0.97366,-3.64064 l 0.35983,-2.13782 c 0.0847,-0.55033 0.10583,-1.10066 0.0847,-1.60865 z"
         id="path4531" />
    </g>
  </g>
</svg>
