<?xml version="1.0" encoding="UTF-8" standalone="no"?>
<!-- Created with Inkscape (http://www.inkscape.org/) -->

<svg
   xmlns:dc="http://purl.org/dc/elements/1.1/"
   xmlns:cc="http://creativecommons.org/ns#"
   xmlns:rdf="http://www.w3.org/1999/02/22-rdf-syntax-ns#"
   xmlns:svg="http://www.w3.org/2000/svg"
   xmlns="http://www.w3.org/2000/svg"
   xmlns:sodipodi="http://sodipodi.sourceforge.net/DTD/sodipodi-0.dtd"
   xmlns:inkscape="http://www.inkscape.org/namespaces/inkscape"
   width="134.9375mm"
   height="169.33333mm"
   viewBox="0 0 107.95 135.46666"
   version="1.1"
   id="svg5218"
   inkscape:version="0.92.3 (2405546, 2018-03-11)"
   sodipodi:docname="block.svg">
  <defs
     id="defs5212" />
  <sodipodi:namedview
     id="base"
     pagecolor="#ffffff"
     bordercolor="#666666"
     borderopacity="1.0"
     inkscape:pageopacity="0.0"
     inkscape:pageshadow="2"
     inkscape:zoom="0.35"
     inkscape:cx="-792.14286"
     inkscape:cy="442.77279"
     inkscape:document-units="mm"
     inkscape:current-layer="layer1"
     showgrid="false"
     scale-x="0.8"
     fit-margin-top="0"
     fit-margin-left="0"
     fit-margin-right="0"
     fit-margin-bottom="0"
     inkscape:window-width="1920"
     inkscape:window-height="1017"
     inkscape:window-x="1"
     inkscape:window-y="-8"
     inkscape:window-maximized="1" />
  <metadata
     id="metadata5215">
    <rdf:RDF>
      <cc:Work
         rdf:about="">
        <dc:format>image/svg+xml</dc:format>
        <dc:type
           rdf:resource="http://purl.org/dc/dcmitype/StillImage" />
        <dc:title />
      </cc:Work>
    </rdf:RDF>
  </metadata>
  <g
     inkscape:label="Camada 1"
     inkscape:groupmode="layer"
     id="layer1"
     transform="translate(-29.179762,-77.320239)">
    <g
       id="g3956"
       transform="matrix(0.26458333,0,0,0.26458333,15.421429,77.320239)"
       style="fill:#4d4d4d;fill-opacity:1">
      <g
         id="g3890"
         style="fill:#4d4d4d;fill-opacity:1">
        <g
           id="g3888"
           style="fill:#4d4d4d;fill-opacity:1">
          <path
             id="path3886"
             d="M 400,188 H 363.963 V 105.77 C 363.963,47.448 315.514,0 255.963,0 c -59.551,0 -108,47.448 -108,105.77 V 188 H 112 c -33.084,0 -60,26.916 -60,60 v 204 c 0,33.084 26.916,60 60,60 h 288 c 33.084,0 60,-26.916 60,-60 V 248 c 0,-33.084 -26.916,-60 -60,-60 z M 187.963,105.77 c 0,-36.266 30.505,-65.77 68,-65.77 37.495,0 68,29.504 68,65.77 V 188 h -136 V 105.77 Z M 420,452 c 0,11.028 -8.972,20 -20,20 H 112 c -11.028,0 -20,-8.972 -20,-20 V 248 c 0,-11.028 8.972,-20 20,-20 h 288 c 11.028,0 20,8.972 20,20 z"
             inkscape:connector-curvature="0"
             style="fill:#4d4d4d;fill-opacity:1" />
        </g>
      </g>
      <g
         id="g3896"
         style="fill:#4d4d4d;fill-opacity:1">
        <g
           id="g3894"
           style="fill:#4d4d4d;fill-opacity:1">
          <path
             id="path3892"
             d="m 256,286 c -20.435,0 -37,16.565 -37,37 0,13.048 6.76,24.51 16.963,31.098 V 398 c 0,11.045 8.954,20 20,20 11.045,0 20,-8.955 20,-20 V 354.145 C 286.207,347.565 293,336.08 293,323 c 0,-20.435 -16.565,-37 -37,-37 z"
             inkscape:connector-curvature="0"
             style="fill:#4d4d4d;fill-opacity:1" />
        </g>
      </g>
      <g
         id="g3898"
         style="fill:#4d4d4d;fill-opacity:1" />
      <g
         id="g3900"
         style="fill:#4d4d4d;fill-opacity:1" />
      <g
         id="g3902"
         style="fill:#4d4d4d;fill-opacity:1" />
      <g
         id="g3904"
         style="fill:#4d4d4d;fill-opacity:1" />
      <g
         id="g3906"
         style="fill:#4d4d4d;fill-opacity:1" />
      <g
         id="g3908"
         style="fill:#4d4d4d;fill-opacity:1" />
      <g
         id="g3910"
         style="fill:#4d4d4d;fill-opacity:1" />
      <g
         id="g3912"
         style="fill:#4d4d4d;fill-opacity:1" />
      <g
         id="g3914"
         style="fill:#4d4d4d;fill-opacity:1" />
      <g
         id="g3916"
         style="fill:#4d4d4d;fill-opacity:1" />
      <g
         id="g3918"
         style="fill:#4d4d4d;fill-opacity:1" />
      <g
         id="g3920"
         style="fill:#4d4d4d;fill-opacity:1" />
      <g
         id="g3922"
         style="fill:#4d4d4d;fill-opacity:1" />
      <g
         id="g3924"
         style="fill:#4d4d4d;fill-opacity:1" />
      <g
         id="g3926"
         style="fill:#4d4d4d;fill-opacity:1" />
    </g>
  </g>
</svg>
