<?xml version="1.0" encoding="UTF-8" standalone="no"?>
<!-- Created with Inkscape (http://www.inkscape.org/) -->

<svg
   xmlns:dc="http://purl.org/dc/elements/1.1/"
   xmlns:cc="http://creativecommons.org/ns#"
   xmlns:rdf="http://www.w3.org/1999/02/22-rdf-syntax-ns#"
   xmlns:svg="http://www.w3.org/2000/svg"
   xmlns="http://www.w3.org/2000/svg"
   xmlns:sodipodi="http://sodipodi.sourceforge.net/DTD/sodipodi-0.dtd"
   xmlns:inkscape="http://www.inkscape.org/namespaces/inkscape"
   width="180mm"
   height="180mm"
   viewBox="0 0 180 180"
   version="1.1"
   id="svg6720"
   inkscape:version="0.91 r13725"
   sodipodi:docname="contrato_verde.svg">
  <defs
     id="defs6714" />
  <sodipodi:namedview
     id="base"
     pagecolor="#ffffff"
     bordercolor="#666666"
     borderopacity="1.0"
     inkscape:pageopacity="0.0"
     inkscape:pageshadow="2"
     inkscape:zoom="0.98994949"
     inkscape:cx="24.997371"
     inkscape:cy="283.33926"
     inkscape:document-units="mm"
     inkscape:current-layer="g1186"
     showgrid="false"
     fit-margin-top="0"
     fit-margin-left="0"
     fit-margin-right="0"
     fit-margin-bottom="0"
     inkscape:window-width="1366"
     inkscape:window-height="704"
     inkscape:window-x="0"
     inkscape:window-y="27"
     inkscape:window-maximized="1" />
  <metadata
     id="metadata6717">
    <rdf:RDF>
      <cc:Work
         rdf:about="">
        <dc:format>image/svg+xml</dc:format>
        <dc:type
           rdf:resource="http://purl.org/dc/dcmitype/StillImage" />
        <dc:title />
      </cc:Work>
    </rdf:RDF>
  </metadata>
  <g
     inkscape:label="Layer 1"
     inkscape:groupmode="layer"
     id="layer1"
     transform="translate(-171.35118,-371.25003)">
    <rect
       style="opacity:1;vector-effect:none;fill:none;fill-opacity:1;stroke:none;stroke-width:5.1899991;stroke-linecap:butt;stroke-linejoin:miter;stroke-miterlimit:4;stroke-dasharray:none;stroke-dashoffset:0;stroke-opacity:1"
       id="rect8473-0-1"
       width="180"
       height="180"
       x="171.35118"
       y="371.25003"
       rx="7.1851555e-006"
       ry="0.00019974295" />
    <g
       id="g1186"
       transform="translate(-195.21749,2.2693253)">
      <g
         transform="matrix(1.2393156,0,0,1.2393156,365.34035,-134.192)"
         id="g1128"
         style="fill:#c6d02f;fill-opacity:1">
        <g
           id="g1070"
           style="fill:#c6d02f;fill-opacity:1">
          <g
             transform="matrix(0.26458333,0,0,0.26458333,0.98636518,406.00853)"
             id="g932"
             style="fill:#c6d02f;fill-opacity:1">
            <g
               id="g830"
               style="fill:#c6d02f;fill-opacity:1">
              <g
                 id="g828"
                 style="fill:#c6d02f;fill-opacity:1">
                <path
                   inkscape:connector-curvature="0"
                   d="m 498.791,161.127 c -17.545,-17.546 -46.094,-17.545 -63.645,0.004 -5.398,5.403 -39.863,39.896 -45.128,45.166 l 0,-118.871 c 0,-12.02 -4.681,-23.32 -13.181,-31.819 L 334.412,13.18 C 325.913,4.68 314.612,0 302.592,0 L 45.018,0 c -24.813,0 -45,20.187 -45,45 l 0,422 c 0,24.813 20.187,45 45,45 l 300,0 c 24.813,0 45,-20.187 45,-45 l 0,-133.369 108.772,-108.864 c 17.587,-17.586 17.591,-46.052 10e-4,-63.64 z M 300.019,30 c 2.834,0 8.295,-0.491 13.18,4.393 l 42.426,42.427 c 4.76,4.761 4.394,9.978 4.394,13.18 l -60,0 z m 59.999,437 c 0,8.271 -6.728,15 -15,15 l -300,0 c -8.271,0 -15,-6.729 -15,-15 l 0,-422 c 0,-8.271 6.729,-15 15,-15 l 225,0 0,75 c 0,8.284 6.716,15 15,15 l 75,0 0,116.323 c 0,0 -44.254,44.292 -44.256,44.293 l -21.203,21.204 c -1.646,1.646 -2.888,3.654 -3.624,5.863 l -21.214,63.64 c -1.797,5.39 -0.394,11.333 3.624,15.35 4.023,4.023 9.968,5.419 15.35,3.624 l 63.64,-21.213 c 2.209,-0.736 4.217,-1.977 5.863,-3.624 l 1.82,-1.82 z m -33.64,-154.573 21.213,21.213 -8.103,8.103 -31.819,10.606 10.606,-31.82 z m 42.422,-0.005 -21.213,-21.213 c 11.296,-11.305 61.465,-61.517 72.105,-72.166 l 21.213,21.213 z M 477.573,203.558 462.11,219.034 440.897,197.821 456.365,182.34 c 5.852,-5.849 15.366,-5.848 21.214,0 5.847,5.85 5.878,15.333 -0.006,21.218 z"
                   id="path826"
                   style="fill:#c6d02f;fill-opacity:1" />
              </g>
            </g>
            <g
               id="g836"
               style="fill:#c6d02f;fill-opacity:1">
              <g
                 id="g834"
                 style="fill:#c6d02f;fill-opacity:1">
                <path
                   inkscape:connector-curvature="0"
                   d="m 285.018,150 -210,0 c -8.284,0 -15,6.716 -15,15 0,8.284 6.716,15 15,15 l 210,0 c 8.284,0 15,-6.716 15,-15 0,-8.284 -6.716,-15 -15,-15 z"
                   id="path832"
                   style="fill:#c6d02f;fill-opacity:1" />
              </g>
            </g>
            <g
               id="g842"
               style="fill:#c6d02f;fill-opacity:1">
              <g
                 id="g840"
                 style="fill:#c6d02f;fill-opacity:1">
                <path
                   inkscape:connector-curvature="0"
                   d="m 225.018,210 -150,0 c -8.284,0 -15,6.716 -15,15 0,8.284 6.716,15 15,15 l 150,0 c 8.284,0 15,-6.716 15,-15 0,-8.284 -6.716,-15 -15,-15 z"
                   id="path838"
                   style="fill:#c6d02f;fill-opacity:1" />
              </g>
            </g>
            <g
               id="g848"
               style="fill:#c6d02f;fill-opacity:1">
              <g
                 id="g846"
                 style="fill:#c6d02f;fill-opacity:1">
                <path
                   inkscape:connector-curvature="0"
                   d="m 225.018,270 -150,0 c -8.284,0 -15,6.716 -15,15 0,8.284 6.716,15 15,15 l 150,0 c 8.284,0 15,-6.716 15,-15 0,-8.284 -6.716,-15 -15,-15 z"
                   id="path844"
                   style="fill:#c6d02f;fill-opacity:1" />
              </g>
            </g>
            <g
               id="g854"
               style="fill:#c6d02f;fill-opacity:1">
              <g
                 id="g852"
                 style="fill:#c6d02f;fill-opacity:1">
                <path
                   inkscape:connector-curvature="0"
                   d="m 225.018,330 -150,0 c -8.284,0 -15,6.716 -15,15 0,8.284 6.716,15 15,15 l 150,0 c 8.284,0 15,-6.716 15,-15 0,-8.284 -6.716,-15 -15,-15 z"
                   id="path850"
                   style="fill:#c6d02f;fill-opacity:1" />
              </g>
            </g>
            <g
               id="g860"
               style="fill:#c6d02f;fill-opacity:1">
              <g
                 id="g858"
                 style="fill:#c6d02f;fill-opacity:1" />
            </g>
            <g
               id="g862"
               style="fill:#c6d02f;fill-opacity:1" />
            <g
               id="g864"
               style="fill:#c6d02f;fill-opacity:1" />
            <g
               id="g866"
               style="fill:#c6d02f;fill-opacity:1" />
            <g
               id="g868"
               style="fill:#c6d02f;fill-opacity:1" />
            <g
               id="g870"
               style="fill:#c6d02f;fill-opacity:1" />
            <g
               id="g872"
               style="fill:#c6d02f;fill-opacity:1" />
            <g
               id="g874"
               style="fill:#c6d02f;fill-opacity:1" />
            <g
               id="g876"
               style="fill:#c6d02f;fill-opacity:1" />
            <g
               id="g878"
               style="fill:#c6d02f;fill-opacity:1" />
            <g
               id="g880"
               style="fill:#c6d02f;fill-opacity:1" />
            <g
               id="g882"
               style="fill:#c6d02f;fill-opacity:1" />
            <g
               id="g884"
               style="fill:#c6d02f;fill-opacity:1" />
            <g
               id="g886"
               style="fill:#c6d02f;fill-opacity:1" />
            <g
               id="g888"
               style="fill:#c6d02f;fill-opacity:1" />
            <g
               id="g890"
               style="fill:#c6d02f;fill-opacity:1" />
          </g>
          <g
             transform="matrix(2.6924462,0,0,2.6924462,25.31032,419.90014)"
             id="g1012"
             style="fill:#c6d02f;fill-opacity:1">
            <g
               id="g949"
               style="fill:#c6d02f;fill-opacity:1">
              <g
                 id="Layer_1_155_"
                 style="fill:#c6d02f;fill-opacity:1">
                <g
                   id="g946"
                   style="fill:#c6d02f;fill-opacity:1">
                  <path
                     inkscape:connector-curvature="0"
                     d="m 14.922,38.534 c 0.07,0.429 0.565,0.562 0.896,0.7 0.32,0.135 0.702,-0.121 0.968,-0.25 1.63,-0.793 3.838,0.139 5.584,0.139 1.033,0 1.033,-1.602 0,-1.602 -2.036,0 -3.73,-0.515 -5.748,-0.182 0,-0.117 -0.043,-0.275 -0.169,-0.49 -0.377,-0.645 -0.857,-0.828 -1.338,-0.75 -0.032,-0.076 -0.063,-0.152 -0.108,-0.229 -0.126,-0.206 -0.302,-0.309 -0.5,-0.352 0.563,-0.984 0.926,-2.025 0.557,-2.867 -0.113,-0.256 -0.434,-0.387 -0.692,-0.397 -1.07,-0.04 -1.988,1.083 -2.676,1.757 -1.721,1.687 -3.237,3.602 -4.704,5.508 -0.63,0.819 0.763,1.615 1.383,0.81 1.3,-1.688 2.677,-3.327 4.159,-4.86 -0.357,0.586 -0.736,1.161 -1.135,1.715 -0.57,0.881 0.791,1.631 1.383,0.809 0.141,-0.215 0.32,-0.37 0.516,-0.503 -0.039,0.099 -0.079,0.196 -0.119,0.296 0.002,0 0.004,10e-4 0.006,0.002 -0.031,0.064 -0.062,0.128 -0.087,0.189 -0.358,0.897 0.979,1.308 1.465,0.616 0.123,-0.174 0.237,-0.36 0.34,-0.555 -0.007,0.134 -0.01,0.314 0.019,0.496 z"
                     id="path944"
                     style="fill:#c6d02f;fill-opacity:1" />
                </g>
              </g>
            </g>
            <g
               id="g951"
               style="fill:#c6d02f;fill-opacity:1" />
            <g
               id="g953"
               style="fill:#c6d02f;fill-opacity:1" />
            <g
               id="g955"
               style="fill:#c6d02f;fill-opacity:1" />
            <g
               id="g957"
               style="fill:#c6d02f;fill-opacity:1" />
            <g
               id="g959"
               style="fill:#c6d02f;fill-opacity:1" />
            <g
               id="g961"
               style="fill:#c6d02f;fill-opacity:1" />
            <g
               id="g963"
               style="fill:#c6d02f;fill-opacity:1" />
            <g
               id="g965"
               style="fill:#c6d02f;fill-opacity:1" />
            <g
               id="g967"
               style="fill:#c6d02f;fill-opacity:1" />
            <g
               id="g969"
               style="fill:#c6d02f;fill-opacity:1" />
            <g
               id="g971"
               style="fill:#c6d02f;fill-opacity:1" />
            <g
               id="g973"
               style="fill:#c6d02f;fill-opacity:1" />
            <g
               id="g975"
               style="fill:#c6d02f;fill-opacity:1" />
            <g
               id="g977"
               style="fill:#c6d02f;fill-opacity:1" />
            <g
               id="g979"
               style="fill:#c6d02f;fill-opacity:1" />
          </g>
        </g>
        <path
           style="opacity:0.4;fill:#c6d02f;fill-opacity:1;stroke:none;stroke-width:0.23005991;stroke-linecap:round;stroke-linejoin:round;stroke-miterlimit:4;stroke-dasharray:none;stroke-dashoffset:0;stroke-opacity:1"
           d="m 25.600002,418.65209 69.813898,0 16.54244,18.25233 0,102.44325 c 0,6.59389 -5.25385,11.90232 -11.77994,11.90232 l -74.576398,0 c -6.526085,0 -11.779937,-5.30843 -11.779937,-11.90232 l 0,-108.79325 c 0,-6.59389 5.253852,-11.90233 11.779937,-11.90233 z"
           id="rect1014"
           inkscape:connector-curvature="0"
           sodipodi:nodetypes="sccssssss" />
      </g>
    </g>
  </g>
</svg>
