<?xml version="1.0" encoding="UTF-8" standalone="no"?>
<!-- Created with Inkscape (http://www.inkscape.org/) -->

<svg
   xmlns:dc="http://purl.org/dc/elements/1.1/"
   xmlns:cc="http://creativecommons.org/ns#"
   xmlns:rdf="http://www.w3.org/1999/02/22-rdf-syntax-ns#"
   xmlns:svg="http://www.w3.org/2000/svg"
   xmlns="http://www.w3.org/2000/svg"
   xmlns:sodipodi="http://sodipodi.sourceforge.net/DTD/sodipodi-0.dtd"
   xmlns:inkscape="http://www.inkscape.org/namespaces/inkscape"
   width="8.5990505mm"
   height="10.58319mm"
   viewBox="0 0 8.5990505 10.58319"
   version="1.1"
   id="svg7319"
   inkscape:version="0.92.1 r15371"
   sodipodi:docname="download.svg">
  <defs
     id="defs7313" />
  <sodipodi:namedview
     id="base"
     pagecolor="#ffffff"
     bordercolor="#666666"
     borderopacity="1.0"
     inkscape:pageopacity="0.0"
     inkscape:pageshadow="2"
     inkscape:zoom="0.35"
     inkscape:cx="-813.33012"
     inkscape:cy="359.85688"
     inkscape:document-units="mm"
     inkscape:current-layer="layer1"
     showgrid="false"
     fit-margin-top="0"
     fit-margin-left="0"
     fit-margin-right="0"
     fit-margin-bottom="0"
     inkscape:window-width="1920"
     inkscape:window-height="1018"
     inkscape:window-x="-8"
     inkscape:window-y="-8"
     inkscape:window-maximized="1" />
  <metadata
     id="metadata7316">
    <rdf:RDF>
      <cc:Work
         rdf:about="">
        <dc:format>image/svg+xml</dc:format>
        <dc:type
           rdf:resource="http://purl.org/dc/dcmitype/StillImage" />
        <dc:title></dc:title>
      </cc:Work>
    </rdf:RDF>
  </metadata>
  <g
     inkscape:label="Layer 1"
     inkscape:groupmode="layer"
     id="layer1"
     transform="translate(-137.70848,-233.46228)">
    <g
       id="g9714-7-2"
       transform="matrix(0.31025324,0,0,0.30993728,136.84337,233.5945)"
       style="fill:#6ccff5;fill-opacity:1;stroke:#6ccff5;stroke-width:0.8532325;stroke-opacity:1"
       inkscape:export-filename="F:\SESI\Layout\RST\Novas telas\meus_certificados.png"
       inkscape:export-xdpi="90"
       inkscape:export-ydpi="90">
      <g
         id="g9652-2-3"
         style="fill:#6ccff5;fill-opacity:1;stroke:#6ccff5;stroke-width:0.8532325;stroke-opacity:1">
        <g
           id="g9642-4-5"
           style="fill:#6ccff5;fill-opacity:1;stroke:#6ccff5;stroke-width:0.8532325;stroke-opacity:1">
          <path
             id="path9638-1-4"
             d="m 16.646,24.786 v 0 c -0.276,0 -0.5,-0.224 -0.5,-0.5 l 10e-4,-11.279 c 0,-0.276 0.224,-0.5 0.5,-0.5 v 0 c 0.276,0 0.5,0.224 0.5,0.5 l -10e-4,11.279 c 0,0.276 -0.224,0.5 -0.5,0.5 z"
             inkscape:connector-curvature="0"
             style="fill:#6ccff5;fill-opacity:1;stroke:#6ccff5;stroke-width:0.8532325;stroke-opacity:1" />
          <path
             id="path9640-5-2"
             d="m 16.646,24.786 c -0.128,0 -0.256,-0.049 -0.354,-0.146 l -4.313,-4.313 c -0.195,-0.195 -0.195,-0.512 0,-0.707 0.195,-0.195 0.512,-0.195 0.707,0 l 3.959,3.959 3.959,-3.959 c 0.195,-0.195 0.512,-0.195 0.707,0 0.195,0.195 0.195,0.512 0,0.707 l -4.313,4.313 c -0.096,0.097 -0.224,0.146 -0.352,0.146 z"
             inkscape:connector-curvature="0"
             style="fill:#6ccff5;fill-opacity:1;stroke:#6ccff5;stroke-width:0.8532325;stroke-opacity:1" />
        </g>
        <g
           id="g9650-5-1"
           style="fill:#6ccff5;fill-opacity:1;stroke:#6ccff5;stroke-width:0.8532325;stroke-opacity:1">
          <path
             id="path9644-7-5"
             d="M 27.578,33.293 H 5.715 c -1.378,0 -2.5,-1.121 -2.5,-2.5 V 2.5 C 3.215,1.121 4.337,0 5.715,0 h 15.877 c 0.276,0 0.5,0.224 0.5,0.5 0,0.276 -0.224,0.5 -0.5,0.5 H 5.715 c -0.827,0 -1.5,0.673 -1.5,1.5 v 28.293 c 0,0.827 0.673,1.5 1.5,1.5 h 21.863 c 0.827,0 1.5,-0.673 1.5,-1.5 V 8.704 c 0,-0.276 0.224,-0.5 0.5,-0.5 0.276,0 0.5,0.224 0.5,0.5 v 22.09 c 0,1.378 -1.121,2.499 -2.5,2.499 z"
             inkscape:connector-curvature="0"
             style="fill:#6ccff5;fill-opacity:1;stroke:#6ccff5;stroke-width:0.8532325;stroke-opacity:1" />
          <path
             id="path9646-7-3"
             d="m 29.578,9.204 h -7.986 c -0.276,0 -0.5,-0.224 -0.5,-0.5 V 0.717 c 0,-0.276 0.224,-0.5 0.5,-0.5 0.276,0 0.5,0.224 0.5,0.5 v 7.486 h 7.486 c 0.276,0 0.5,0.224 0.5,0.5 0,0.276 -0.223,0.501 -0.5,0.501 z"
             inkscape:connector-curvature="0"
             style="fill:#6ccff5;fill-opacity:1;stroke:#6ccff5;stroke-width:0.8532325;stroke-opacity:1" />
          <path
             id="path9648-8-0"
             d="m 29.578,9.204 c -0.13,0 -0.26,-0.051 -0.358,-0.151 L 21.234,0.85 c -0.192,-0.197 -0.188,-0.515 0.01,-0.707 0.197,-0.193 0.514,-0.188 0.707,0.01 l 7.986,8.203 c 0.192,0.197 0.188,0.515 -0.01,0.707 -0.097,0.094 -0.223,0.141 -0.349,0.141 z"
             inkscape:connector-curvature="0"
             style="fill:#6ccff5;fill-opacity:1;stroke:#6ccff5;stroke-width:0.8532325;stroke-opacity:1" />
        </g>
      </g>
      <g
         id="g9654-8-9"
         style="fill:#6ccff5;fill-opacity:1;stroke:#6ccff5;stroke-width:0.8532325;stroke-opacity:1" />
      <g
         id="g9656-2-6"
         style="fill:#6ccff5;fill-opacity:1;stroke:#6ccff5;stroke-width:0.8532325;stroke-opacity:1" />
      <g
         id="g9658-1-2"
         style="fill:#6ccff5;fill-opacity:1;stroke:#6ccff5;stroke-width:0.8532325;stroke-opacity:1" />
      <g
         id="g9660-0-2"
         style="fill:#6ccff5;fill-opacity:1;stroke:#6ccff5;stroke-width:0.8532325;stroke-opacity:1" />
      <g
         id="g9662-0-29"
         style="fill:#6ccff5;fill-opacity:1;stroke:#6ccff5;stroke-width:0.8532325;stroke-opacity:1" />
      <g
         id="g9664-0-9"
         style="fill:#6ccff5;fill-opacity:1;stroke:#6ccff5;stroke-width:0.8532325;stroke-opacity:1" />
      <g
         id="g9666-4-4"
         style="fill:#6ccff5;fill-opacity:1;stroke:#6ccff5;stroke-width:0.8532325;stroke-opacity:1" />
      <g
         id="g9668-9-5"
         style="fill:#6ccff5;fill-opacity:1;stroke:#6ccff5;stroke-width:0.8532325;stroke-opacity:1" />
      <g
         id="g9670-7-2"
         style="fill:#6ccff5;fill-opacity:1;stroke:#6ccff5;stroke-width:0.8532325;stroke-opacity:1" />
      <g
         id="g9672-1-5"
         style="fill:#6ccff5;fill-opacity:1;stroke:#6ccff5;stroke-width:0.8532325;stroke-opacity:1" />
      <g
         id="g9674-1-2"
         style="fill:#6ccff5;fill-opacity:1;stroke:#6ccff5;stroke-width:0.8532325;stroke-opacity:1" />
      <g
         id="g9676-8-6"
         style="fill:#6ccff5;fill-opacity:1;stroke:#6ccff5;stroke-width:0.8532325;stroke-opacity:1" />
      <g
         id="g9678-0-3"
         style="fill:#6ccff5;fill-opacity:1;stroke:#6ccff5;stroke-width:0.8532325;stroke-opacity:1" />
      <g
         id="g9680-4-3"
         style="fill:#6ccff5;fill-opacity:1;stroke:#6ccff5;stroke-width:0.8532325;stroke-opacity:1" />
      <g
         id="g9682-4-0"
         style="fill:#6ccff5;fill-opacity:1;stroke:#6ccff5;stroke-width:0.8532325;stroke-opacity:1" />
    </g>
  </g>
</svg>
