<?xml version="1.0" encoding="UTF-8" standalone="no"?>
<!-- Created with Inkscape (http://www.inkscape.org/) -->

<svg
   xmlns:dc="http://purl.org/dc/elements/1.1/"
   xmlns:cc="http://creativecommons.org/ns#"
   xmlns:rdf="http://www.w3.org/1999/02/22-rdf-syntax-ns#"
   xmlns:svg="http://www.w3.org/2000/svg"
   xmlns="http://www.w3.org/2000/svg"
   xmlns:sodipodi="http://sodipodi.sourceforge.net/DTD/sodipodi-0.dtd"
   xmlns:inkscape="http://www.inkscape.org/namespaces/inkscape"
   width="21.167637mm"
   height="21.166666mm"
   viewBox="0 0 21.167637 21.166666"
   version="1.1"
   id="svg7873"
   inkscape:version="0.92.1 r15371"
   sodipodi:docname="erro.svg">
  <defs
     id="defs7867" />
  <sodipodi:namedview
     id="base"
     pagecolor="#ffffff"
     bordercolor="#666666"
     borderopacity="1.0"
     inkscape:pageopacity="0.0"
     inkscape:pageshadow="2"
     inkscape:zoom="1.979899"
     inkscape:cx="-212.68842"
     inkscape:cy="83.245552"
     inkscape:document-units="mm"
     inkscape:current-layer="layer1"
     showgrid="false"
     fit-margin-top="0"
     fit-margin-left="0"
     fit-margin-right="0"
     fit-margin-bottom="0"
     inkscape:window-width="1920"
     inkscape:window-height="1018"
     inkscape:window-x="-8"
     inkscape:window-y="-8"
     inkscape:window-maximized="1" />
  <metadata
     id="metadata7870">
    <rdf:RDF>
      <cc:Work
         rdf:about="">
        <dc:format>image/svg+xml</dc:format>
        <dc:type
           rdf:resource="http://purl.org/dc/dcmitype/StillImage" />
        <dc:title></dc:title>
      </cc:Work>
    </rdf:RDF>
  </metadata>
  <g
     inkscape:label="Layer 1"
     inkscape:groupmode="layer"
     id="layer1"
     transform="translate(-223.63692,-122.3375)">
    <g
       id="g5047-0-1"
       transform="matrix(10.826716,0,0,10.826718,1820.5654,-1126.5726)"
       style="stroke-width:0.09236411">
      <path
         style="fill:#fd5e37;fill-opacity:1;stroke-width:0.024438"
         inkscape:connector-curvature="0"
         d="m -146.24013,116.36313 c -0.0178,-0.0178 -0.0178,-0.0447 0,-0.0624 l 0.66958,-0.66959 c 0.0178,-0.0178 0.0268,-0.0446 0.0268,-0.0624 0,-0.0178 -0.01,-0.0448 -0.0268,-0.0625 l -0.125,-0.12499 c -0.0178,-0.0178 -0.0446,-0.0268 -0.0624,-0.0268 -0.0268,0 -0.0448,0.01 -0.0625,0.0268 l -0.66957,0.66958 c -0.0178,0.0178 -0.0446,0.0178 -0.0625,0 l -0.66958,-0.66958 c -0.0178,-0.0178 -0.0448,-0.0268 -0.0625,-0.0268 -0.0178,0 -0.0448,0.01 -0.0625,0.0268 l -0.12498,0.12499 c -0.0178,0.0178 -0.0268,0.0448 -0.0268,0.0625 0,0.0178 0.01,0.0446 0.0268,0.0624 l 0.66956,0.66959 c 0.0178,0.0178 0.0178,0.0447 0,0.0624 l -0.66956,0.66958 c -0.0178,0.0178 -0.0268,0.0447 -0.0268,0.0625 0,0.0178 0.01,0.0447 0.0268,0.0625 l 0.12498,0.12498 c 0.0178,0.0178 0.0446,0.0268 0.0625,0.0268 0.0178,0 0.0446,-0.009 0.0625,-0.0268 l 0.66958,-0.66958 c 0.0178,-0.0178 0.0447,-0.0178 0.0625,0 l 0.66957,0.66958 c 0.0178,0.0178 0.0447,0.0268 0.0625,0.0268 0.0178,0 0.0446,-0.009 0.0624,-0.0268 l 0.125,-0.12498 c 0.0178,-0.0178 0.0268,-0.0448 0.0268,-0.0625 0,-0.0178 -0.01,-0.0447 -0.0268,-0.0625 z"
         id="path5034-5-3" />
    </g>
  </g>
</svg>
