<?xml version="1.0" encoding="UTF-8" standalone="no"?>
<!-- Created with Inkscape (http://www.inkscape.org/) -->

<svg
   xmlns:dc="http://purl.org/dc/elements/1.1/"
   xmlns:cc="http://creativecommons.org/ns#"
   xmlns:rdf="http://www.w3.org/1999/02/22-rdf-syntax-ns#"
   xmlns:svg="http://www.w3.org/2000/svg"
   xmlns="http://www.w3.org/2000/svg"
   xmlns:sodipodi="http://sodipodi.sourceforge.net/DTD/sodipodi-0.dtd"
   xmlns:inkscape="http://www.inkscape.org/namespaces/inkscape"
   width="270.93329mm"
   height="361.42084mm"
   viewBox="0 0 270.93329 361.42084"
   version="1.1"
   id="svg6365"
   inkscape:version="0.92.1 r15371"
   sodipodi:docname="login_tablet.svg">
  <defs
     id="defs6359">
    <clipPath
       clipPathUnits="userSpaceOnUse"
       id="clipPath5340-2">
      <rect
         inkscape:export-ydpi="90"
         inkscape:export-xdpi="90"
         ry="0.00019974291"
         rx="7.1851573e-006"
         y="1003.3115"
         x="402.23813"
         height="133.61458"
         width="203.2"
         id="rect5342-2"
         style="opacity:1;vector-effect:none;fill:none;fill-opacity:1;stroke:none;stroke-width:0.49999997;stroke-linecap:butt;stroke-linejoin:miter;stroke-miterlimit:4;stroke-dasharray:0.49999997, 1.00000003;stroke-dashoffset:0;stroke-opacity:1"
         inkscape:export-filename="F:\SESI\Layout\rst\Novas telas\tlogin02.png"
         transform="rotate(90)" />
    </clipPath>
    <clipPath
       clipPathUnits="userSpaceOnUse"
       id="clipPath5336-9">
      <rect
         inkscape:export-ydpi="90"
         inkscape:export-xdpi="90"
         ry="0.00019974291"
         rx="7.1851573e-006"
         y="1003.3115"
         x="402.23813"
         height="133.61458"
         width="203.2"
         id="rect5338-1"
         style="opacity:1;vector-effect:none;fill:none;fill-opacity:1;stroke:none;stroke-width:0.49999997;stroke-linecap:butt;stroke-linejoin:miter;stroke-miterlimit:4;stroke-dasharray:0.49999997, 1.00000003;stroke-dashoffset:0;stroke-opacity:1"
         inkscape:export-filename="F:\SESI\Layout\rst\Novas telas\tlogin02.png"
         transform="rotate(90)" />
    </clipPath>
    <clipPath
       clipPathUnits="userSpaceOnUse"
       id="clipPath5328-0">
      <rect
         inkscape:export-ydpi="90"
         inkscape:export-xdpi="90"
         ry="0.00019974291"
         rx="7.1851573e-006"
         y="1003.3115"
         x="402.23813"
         height="133.61458"
         width="203.2"
         id="rect5330-1"
         style="opacity:1;vector-effect:none;fill:none;fill-opacity:1;stroke:none;stroke-width:0.49999997;stroke-linecap:butt;stroke-linejoin:miter;stroke-miterlimit:4;stroke-dasharray:0.49999997, 1.00000003;stroke-dashoffset:0;stroke-opacity:1"
         inkscape:export-filename="F:\SESI\Layout\rst\Novas telas\tlogin02.png"
         transform="rotate(90)" />
    </clipPath>
  </defs>
  <sodipodi:namedview
     id="base"
     pagecolor="#ffffff"
     bordercolor="#666666"
     borderopacity="1.0"
     inkscape:pageopacity="0.0"
     inkscape:pageshadow="2"
     inkscape:zoom="0.35"
     inkscape:cx="321.99992"
     inkscape:cy="468.71427"
     inkscape:document-units="mm"
     inkscape:current-layer="layer1"
     showgrid="false"
     fit-margin-top="0"
     fit-margin-left="0"
     fit-margin-right="0"
     fit-margin-bottom="0"
     inkscape:window-width="1920"
     inkscape:window-height="1018"
     inkscape:window-x="-8"
     inkscape:window-y="-8"
     inkscape:window-maximized="1" />
  <metadata
     id="metadata6362">
    <rdf:RDF>
      <cc:Work
         rdf:about="">
        <dc:format>image/svg+xml</dc:format>
        <dc:type
           rdf:resource="http://purl.org/dc/dcmitype/StillImage" />
        <dc:title></dc:title>
      </cc:Work>
    </rdf:RDF>
  </metadata>
  <g
     inkscape:label="Layer 1"
     inkscape:groupmode="layer"
     id="layer1"
     transform="translate(270.02617,-151.81934)">
    <rect
       inkscape:export-ydpi="90"
       inkscape:export-xdpi="90"
       ry="0.00019974289"
       rx="7.1851578e-006"
       y="-0.90712047"
       x="151.81934"
       height="270.93329"
       width="361.42084"
       id="rect7689-6-8-7-1-7-9-9-6"
       style="opacity:1;vector-effect:none;fill:#8d216c;fill-opacity:1;stroke:none;stroke-width:0.49999997;stroke-linecap:butt;stroke-linejoin:miter;stroke-miterlimit:4;stroke-dasharray:0.49999998, 1.00000007;stroke-dashoffset:0;stroke-opacity:1"
       inkscape:export-filename="F:\SESI\Layout\rst\Novas telas\tlogin02.png"
       transform="rotate(90)" />
    <g
       id="g6315"
       transform="translate(535.73946,-213.3771)">
      <g
         style="fill:#6ccef5;fill-opacity:1;stroke-width:0.51577967"
         transform="matrix(0.68397751,0,0,-0.68396225,-775.76278,435.62918)"
         id="g206-5-6-6-2-1">
        <path
           inkscape:connector-curvature="0"
           id="path208-9-3-9-8-0"
           style="fill:#6ccef5;fill-opacity:1;fill-rule:nonzero;stroke:none;stroke-width:0.51577967"
           d="M 0,0 C 0.031,-0.649 0.134,-1.296 0.304,-1.93 0.667,-3.339 1.357,-4.601 2.355,-5.683 L 2.558,-5.904 C 2.584,-5.93 2.616,-5.961 2.649,-5.992 L 2.745,-6.085 C 2.784,-6.123 2.822,-6.161 2.862,-6.198 2.895,-6.229 2.926,-6.256 2.958,-6.283 L 3.005,-6.326 C 3.378,-6.659 3.763,-6.953 4.15,-7.198 5.468,-8.037 6.992,-8.575 8.555,-8.754 8.67,-8.767 8.782,-8.778 8.895,-8.787 l 0.059,-0.004 c 0.096,-0.009 0.19,-0.014 0.283,-0.018 0.039,-0.002 0.075,-0.005 0.111,-0.005 0.08,-0.003 0.155,-0.006 0.23,-0.006 0.06,-0.002 0.105,-0.006 0.174,-0.002 0.052,0.002 0.112,0 0.168,0.002 0.08,0 0.155,0.003 0.23,0.006 0.041,0 0.077,0.003 0.113,0.005 0.097,0.004 0.19,0.009 0.284,0.018 l 0.062,0.004 c 0.112,0.009 0.224,0.02 0.336,0.033 1.566,0.179 3.09,0.717 4.408,1.556 0.391,0.248 0.765,0.533 1.144,0.872 l 0.048,0.042 c 0.031,0.028 0.063,0.055 0.093,0.084 0.041,0.037 0.077,0.073 0.112,0.108 l 0.097,0.093 c 0.035,0.033 0.069,0.065 0.102,0.099 l 0.085,0.093 c 0.035,0.037 0.063,0.068 0.092,0.099 1.02,1.106 1.71,2.367 2.072,3.775 0.172,0.637 0.274,1.286 0.305,1.933 L 19.502,0 19.51,0.295 C 19.535,1.04 19.493,1.83 19.384,2.643 l -0.489,3.048 c -0.316,2.66 0.563,4.108 1.411,5.258 0.616,0.834 1.504,1.539 2.568,2.037 0.073,0.034 0.149,0.068 0.224,0.101 l 0.135,0.055 c 0.121,0.049 0.241,0.095 0.361,0.138 l 0.159,0.054 c 0.109,0.034 0.217,0.066 0.325,0.096 0.064,0.018 0.128,0.035 0.195,0.051 l 0.191,0.046 c 0.113,0.024 0.221,0.045 0.33,0.063 0.056,0.01 0.113,0.017 0.169,0.025 0.113,0.017 0.231,0.031 0.348,0.042 l 0.114,0.008 c 0.112,0.008 0.22,0.011 0.329,0.013 l 0.085,0.002 c 0.138,-10e-4 0.265,-0.006 0.39,-0.015 l 0.099,-0.007 c 0.131,-0.012 0.256,-0.027 0.379,-0.048 l 0.086,-0.015 c 0.125,-0.023 0.246,-0.05 0.364,-0.083 l 1.916,-0.506 c 0.78,-0.216 1.582,-0.326 2.387,-0.329 h 10e-4 c 2.437,0 4.772,0.974 6.44,2.673 0.375,0.383 0.728,0.847 1.143,1.503 0.92,1.453 1.47,3.13 1.592,4.853 l 10e-4,0.052 c 0,0 0.019,0.528 0.02,0.601 0.001,0.056 0.001,0.273 0,0.327 -10e-4,0.072 -0.003,0.142 -0.006,0.214 l -0.016,0.443 c -0.124,1.719 -0.673,3.391 -1.59,4.84 -0.416,0.657 -0.768,1.121 -1.143,1.503 -1.667,1.699 -4.002,2.674 -6.406,2.674 -0.843,-0.003 -1.646,-0.113 -2.42,-0.328 l -1.899,-0.503 c -0.143,-0.037 -0.26,-0.064 -0.38,-0.086 l -0.085,-0.016 c -0.129,-0.021 -0.254,-0.036 -0.379,-0.048 l -0.104,-0.008 c -0.126,-0.009 -0.253,-0.015 -0.381,-0.015 l -0.097,0.002 c -0.107,0.002 -0.212,0.007 -0.318,0.014 l -0.118,0.007 c -0.119,0.011 -0.238,0.026 -0.356,0.043 -0.039,0.005 -0.083,0.012 -0.126,0.018 l -0.039,0.007 c -0.11,0.019 -0.219,0.039 -0.329,0.063 -0.064,0.014 -0.127,0.03 -0.189,0.045 -0.069,0.017 -0.137,0.034 -0.203,0.053 -0.105,0.03 -0.209,0.06 -0.312,0.093 -0.058,0.019 -0.115,0.038 -0.172,0.058 -0.094,0.033 -0.187,0.068 -0.28,0.105 -0.069,0.027 -0.142,0.056 -0.214,0.088 -0.071,0.029 -0.142,0.062 -0.214,0.095 -1.069,0.5 -1.959,1.206 -2.575,2.042 -0.848,1.149 -1.727,2.597 -1.413,5.244 l 0.493,3.069 c 0.108,0.813 0.15,1.603 0.124,2.341 l -0.011,0.294 h 0.004 c -0.031,0.649 -0.133,1.297 -0.304,1.93 -0.363,1.411 -1.053,2.673 -2.051,3.754 l -0.034,0.037 c -0.024,0.027 -0.049,0.053 -0.074,0.079 l -0.095,0.104 c -0.031,0.033 -0.069,0.069 -0.108,0.105 l -0.085,0.082 c -0.037,0.037 -0.073,0.073 -0.111,0.108 l -0.143,0.127 c -0.371,0.332 -0.756,0.625 -1.144,0.872 -1.321,0.84 -2.844,1.379 -4.405,1.557 l -0.026,0.003 c -0.105,0.011 -0.209,0.022 -0.315,0.029 l -0.452,0.027 c -0.082,0.003 -0.156,0.006 -0.231,0.007 -0.064,0.001 -0.12,0.001 -0.18,0.001 -0.055,0 -0.108,0 -0.162,-0.001 -0.08,-10e-4 -0.155,-0.004 -0.23,-0.006 L 8.898,53.825 C 8.794,53.817 8.692,53.807 8.59,53.795 L 8.556,53.792 C 6.994,53.614 5.471,53.076 4.15,52.235 3.762,51.988 3.377,51.695 3.006,51.364 L 2.862,51.235 C 2.826,51.202 2.791,51.167 2.756,51.133 L 2.65,51.03 C 2.618,50.999 2.585,50.969 2.554,50.936 L 2.355,50.72 C 1.357,49.64 0.667,48.377 0.305,46.97 0.133,46.334 0.031,45.686 0,45.037 h 0.001 l -0.007,-0.294 c -0.026,-0.74 0.016,-1.53 0.125,-2.349 l 0.489,-3.049 c 0.316,-2.66 -0.563,-4.108 -1.411,-5.256 -1.204,-1.635 -3.427,-2.733 -5.531,-2.733 -0.475,0 -0.928,0.058 -1.345,0.173 l -1.893,0.503 c -0.789,0.218 -1.601,0.328 -2.417,0.328 -2.406,0 -4.742,-0.975 -6.408,-2.674 -0.478,-0.485 -0.863,-1.058 -1.145,-1.503 -0.93,-1.47 -1.481,-3.169 -1.594,-4.911 0,0 -0.004,-0.176 -0.01,-0.265 l -0.004,-0.104 c -0.003,-0.071 -0.005,-0.143 -0.006,-0.215 -0.001,-0.058 -0.001,-0.11 -0.001,-0.165 0,-0.052 0,-0.106 0.001,-0.16 10e-4,-0.077 0.003,-0.149 0.006,-0.22 l 0.004,-0.111 c 0.006,-0.089 0.01,-0.28 0.01,-0.28 0.112,-1.73 0.664,-3.429 1.594,-4.898 0.282,-0.445 0.667,-1.018 1.144,-1.503 1.666,-1.699 4.002,-2.673 6.408,-2.673 0.816,0 1.629,0.109 2.415,0.327 l 1.898,0.503 c 0.414,0.114 0.867,0.173 1.342,0.173 2.103,0 4.327,-1.098 5.532,-2.732 C 0.045,9.8 0.924,8.352 0.61,5.703 L 0.118,2.635 C 0.01,1.828 -0.032,1.038 -0.006,0.295 L 0.004,0 Z" />
      </g>
      <path
         transform="matrix(1.9221392,0,0,1.9221392,1379.5646,-418.67285)"
         clip-path="url(#clipPath5340-2)"
         d="m -1147.1904,437.50363 c 0.011,0.23094 0.048,0.46116 0.1082,0.68676 0.1291,0.50137 0.3747,0.95043 0.7298,1.33545 l 0.072,0.0786 c 0.01,0.009 0.021,0.0203 0.032,0.0313 l 0.034,0.0331 c 0.014,0.0135 0.028,0.027 0.041,0.0402 0.012,0.0111 0.023,0.0206 0.034,0.0303 l 0.017,0.0149 c 0.1327,0.11886 0.2697,0.22347 0.4074,0.31065 0.469,0.29855 1.0113,0.48998 1.5675,0.55368 0.041,0.005 0.081,0.009 0.121,0.0117 l 0.021,0.002 c 0.034,0.003 0.068,0.005 0.1006,0.006 0.014,5.1e-4 0.027,0.002 0.039,0.002 0.029,0.001 0.055,0.002 0.082,0.002 0.022,5.1e-4 0.037,0.002 0.062,5.1e-4 0.018,-5.1e-4 0.04,0 0.06,-5.1e-4 0.029,0 0.055,-10e-4 0.082,-0.002 0.015,0 0.028,-10e-4 0.04,-0.002 0.034,-0.002 0.068,-0.003 0.101,-0.006 l 0.022,-0.002 c 0.04,-0.003 0.08,-0.007 0.1196,-0.0117 0.5573,-0.0637 1.0996,-0.25513 1.5686,-0.55368 0.1391,-0.0882 0.2722,-0.18966 0.407,-0.31065 l 0.017,-0.0146 c 0.011,-0.01 0.023,-0.0196 0.033,-0.0299 0.015,-0.0132 0.027,-0.026 0.04,-0.0385 l 0.035,-0.0331 c 0.012,-0.0117 0.024,-0.0231 0.036,-0.0352 l 0.03,-0.0331 c 0.012,-0.0132 0.023,-0.0242 0.033,-0.0352 0.363,-0.39356 0.6085,-0.84226 0.7373,-1.34327 0.061,-0.22667 0.098,-0.45761 0.1085,-0.68783 h -4e-4 l 0.01,-0.10497 c 0.01,-0.26509 -0.01,-0.54621 -0.045,-0.8355 l -0.174,-1.08457 c -0.1124,-0.94652 0.2004,-1.46178 0.5021,-1.87098 0.2193,-0.29677 0.5352,-0.54763 0.9138,-0.72483 0.026,-0.0124 0.053,-0.0242 0.08,-0.036 l 0.048,-0.0195 c 0.043,-0.0175 0.086,-0.0338 0.1285,-0.0491 l 0.057,-0.0192 c 0.039,-0.0121 0.077,-0.0235 0.1157,-0.0342 0.023,-0.006 0.045,-0.0124 0.069,-0.0181 l 0.068,-0.0164 c 0.04,-0.009 0.079,-0.016 0.1174,-0.0224 0.02,-0.004 0.04,-0.006 0.06,-0.009 0.04,-0.006 0.082,-0.011 0.1238,-0.015 l 0.04,-0.003 c 0.04,-0.003 0.078,-0.004 0.1171,-0.005 l 0.03,-5.1e-4 c 0.049,4.1e-4 0.094,0.002 0.1388,0.005 l 0.035,0.003 c 0.046,0.004 0.091,0.01 0.1348,0.0171 l 0.031,0.005 c 0.045,0.008 0.088,0.0178 0.1295,0.0295 l 0.6818,0.18005 c 0.2776,0.0769 0.5629,0.116 0.8494,0.11707 h 4e-4 c 0.8672,0 1.6981,-0.34658 2.2913,-0.95115 0.1338,-0.13628 0.2594,-0.30139 0.4071,-0.53481 0.3273,-0.51703 0.523,-1.11377 0.5664,-1.72687 l 4e-4,-0.0185 c 0,0 0.01,-0.18789 0.01,-0.21386 3e-4,-0.0199 3e-4,-0.0971 0,-0.11636 -4e-4,-0.0256 0,-0.0505 0,-0.0761 l -0.01,-0.15799 c -0.044,-0.61132 -0.2395,-1.20628 -0.5658,-1.72188 -0.148,-0.23378 -0.2733,-0.39889 -0.4067,-0.53482 -0.5932,-0.60456 -1.4241,-0.9515 -2.2796,-0.9515 -0.2999,0.001 -0.5857,0.0402 -0.8611,0.11672 l -0.6757,0.17898 c -0.051,0.0135 -0.093,0.0228 -0.1353,0.0306 l -0.03,0.006 c -0.046,0.007 -0.09,0.0128 -0.1349,0.0171 l -0.037,0.003 c -0.045,0.003 -0.09,0.005 -0.1355,0.005 l -0.035,-5.1e-4 c -0.038,-5.1e-4 -0.076,-0.003 -0.1132,-0.005 l -0.042,-0.003 c -0.043,-0.004 -0.085,-0.009 -0.1267,-0.0153 -0.014,-0.002 -0.03,-0.004 -0.045,-0.006 l -0.013,-0.003 c -0.039,-0.007 -0.078,-0.0139 -0.1171,-0.0224 -0.023,-0.005 -0.045,-0.0106 -0.067,-0.016 -0.024,-0.006 -0.048,-0.0121 -0.072,-0.0188 -0.037,-0.0106 -0.074,-0.0213 -0.111,-0.0331 -0.02,-0.007 -0.041,-0.0135 -0.061,-0.0206 -0.034,-0.0117 -0.067,-0.0242 -0.1001,-0.0374 -0.024,-0.01 -0.051,-0.0199 -0.076,-0.0313 -0.025,-0.0103 -0.051,-0.0221 -0.076,-0.0338 -0.3804,-0.17792 -0.6971,-0.42914 -0.9164,-0.72662 -0.3017,-0.40885 -0.6145,-0.9241 -0.5028,-1.86599 l 0.1755,-1.09205 c 0.038,-0.28929 0.053,-0.57041 0.044,-0.83301 l -0.01,-0.10461 v 0 c -0.011,-0.23094 -0.047,-0.46152 -0.1081,-0.68676 -0.1292,-0.50209 -0.3747,-0.95115 -0.7299,-1.3358 l -0.012,-0.0132 c -0.01,-0.01 -0.017,-0.0188 -0.027,-0.0281 l -0.034,-0.037 c -0.011,-0.0117 -0.024,-0.0246 -0.038,-0.0374 l -0.03,-0.0292 c -0.013,-0.0132 -0.026,-0.026 -0.039,-0.0385 l -0.051,-0.0452 c -0.132,-0.11813 -0.269,-0.22239 -0.4071,-0.31028 -0.4701,-0.2989 -1.012,-0.4907 -1.5675,-0.55404 l -0.01,-10e-4 c -0.037,-0.004 -0.074,-0.008 -0.1121,-0.0103 l -0.1608,-0.01 c -0.029,-10e-4 -0.055,-0.002 -0.082,-0.003 -0.023,-4.1e-4 -0.043,-4.1e-4 -0.064,-4.1e-4 -0.019,0 -0.038,0 -0.058,4.1e-4 -0.029,4.1e-4 -0.055,0.002 -0.082,0.002 l -0.1618,0.01 c -0.037,0.003 -0.073,0.007 -0.1096,0.0106 l -0.012,10e-4 c -0.5559,0.0633 -1.0978,0.25478 -1.5678,0.55403 -0.1381,0.0879 -0.2751,0.19215 -0.4071,0.30994 l -0.051,0.0459 c -0.013,0.0117 -0.025,0.0242 -0.038,0.0363 l -0.038,0.0367 c -0.011,0.011 -0.023,0.0217 -0.034,0.0334 l -0.071,0.0769 c -0.3552,0.3843 -0.6004,0.83372 -0.7295,1.33438 -0.061,0.22631 -0.098,0.45689 -0.1085,0.68783 h 4e-4 v 0.10461 c -0.01,0.26332 0.01,0.54443 0.044,0.83585 l 0.174,1.08494 c 0.1121,0.94652 -0.2004,1.46141 -0.5018,1.87026 -0.4288,0.58179 -1.2198,0.9725 -1.9685,0.9725 -0.169,0 -0.3302,-0.0206 -0.4786,-0.0616 l -0.6736,-0.17898 c -0.2808,-0.0776 -0.5697,-0.11672 -0.8601,-0.11672 -0.8561,0 -1.6874,0.34694 -2.2802,0.9515 -0.1701,0.17258 -0.3071,0.37648 -0.4075,0.53482 -0.3309,0.52308 -0.527,1.12764 -0.5672,1.7475 0,0 0,0.0626 -0.01,0.0943 v 0.037 c 0,0.0252 0,0.0509 0,0.0765 -4e-4,0.0206 -4e-4,0.0391 -4e-4,0.0587 0,0.0185 0,0.0377 4e-4,0.0573 4e-4,0.027 0,0.0527 0,0.0779 v 0.0395 c 0,0.0317 0.01,0.0993 0.01,0.0993 0.04,0.61594 0.2363,1.22051 0.5672,1.74323 0.1004,0.15834 0.2374,0.36224 0.4071,0.53482 0.5928,0.60456 1.4241,0.95114 2.2803,0.95114 0.2903,0 0.5796,-0.0388 0.8593,-0.11636 l 0.6754,-0.17898 c 0.1473,-0.0405 0.3085,-0.0616 0.4775,-0.0616 0.7484,0 1.5398,0.3907 1.9689,0.97214 0.3014,0.40885 0.6139,0.92409 0.5025,1.8667 l -0.1751,1.0917 c -0.038,0.28715 -0.053,0.56827 -0.044,0.83266 l 0.01,0.10496 z"
         style="fill:none;stroke:#6ccef5;stroke-width:0.36706784;stroke-linecap:round;stroke-linejoin:round;stroke-miterlimit:10;stroke-dasharray:none;stroke-opacity:1"
         id="path212-7-4-3-6-5"
         inkscape:connector-curvature="0" />
      <path
         transform="matrix(1.9221392,0,0,1.9221392,1379.5646,-418.67285)"
         clip-path="url(#clipPath5336-9)"
         d="m -1137.8186,454.90395 c 0.011,0.23093 0.048,0.46116 0.1082,0.68676 0.1291,0.50136 0.3747,0.95043 0.7298,1.33544 l 0.072,0.0786 c 0.01,0.009 0.02,0.0203 0.032,0.0313 l 0.034,0.0331 c 0.014,0.0135 0.028,0.027 0.041,0.0402 0.012,0.011 0.023,0.021 0.034,0.0303 l 0.017,0.0153 c 0.1327,0.1185 0.2697,0.22311 0.4074,0.31029 0.469,0.29854 1.0113,0.48998 1.5675,0.55368 0.041,0.005 0.081,0.009 0.121,0.0117 l 0.021,0.002 c 0.034,0.003 0.068,0.005 0.1007,0.006 0.014,5.1e-4 0.027,0.002 0.039,0.002 0.029,0.001 0.055,0.002 0.082,0.002 0.021,5.1e-4 0.037,0.002 0.062,5.1e-4 0.018,-5.1e-4 0.04,0 0.06,-5.1e-4 0.029,0 0.055,-10e-4 0.082,-0.002 0.015,0 0.028,-10e-4 0.04,-0.002 0.034,-0.002 0.068,-0.003 0.101,-0.006 l 0.022,-0.002 c 0.04,-0.003 0.08,-0.007 0.1196,-0.0117 0.5573,-0.0637 1.0996,-0.25514 1.5686,-0.55368 0.1391,-0.0883 0.2722,-0.18966 0.407,-0.31029 l 0.017,-0.0149 c 0.011,-0.01 0.023,-0.0196 0.033,-0.0299 0.015,-0.0132 0.027,-0.026 0.04,-0.0385 l 0.035,-0.0331 c 0.012,-0.0117 0.024,-0.0231 0.036,-0.0352 l 0.03,-0.0331 c 0.012,-0.0132 0.023,-0.0242 0.033,-0.0352 0.363,-0.39355 0.6085,-0.84226 0.7373,-1.34327 0.061,-0.22667 0.097,-0.4576 0.1085,-0.68783 h -4e-4 l 0.01,-0.10497 c 0.01,-0.26509 -0.01,-0.54621 -0.045,-0.83514 l -0.174,-1.08494 c -0.1124,-0.94652 0.2004,-1.46176 0.5021,-1.87097 0.2192,-0.29677 0.5352,-0.54763 0.9138,-0.72483 0.026,-0.0121 0.053,-0.0242 0.08,-0.036 l 0.048,-0.0196 c 0.043,-0.0175 0.086,-0.0338 0.1285,-0.0491 l 0.057,-0.0192 c 0.039,-0.0121 0.077,-0.0235 0.1156,-0.0341 0.023,-0.006 0.046,-0.0124 0.069,-0.0181 l 0.068,-0.0164 c 0.04,-0.009 0.079,-0.016 0.1174,-0.0224 0.02,-0.004 0.04,-0.006 0.06,-0.009 0.04,-0.006 0.082,-0.011 0.1239,-0.0149 l 0.04,-0.003 c 0.04,-0.003 0.078,-0.004 0.117,-0.005 l 0.031,-5.1e-4 c 0.049,4e-4 0.094,0.002 0.1384,0.005 l 0.035,0.003 c 0.047,0.004 0.091,0.01 0.1349,0.0171 l 0.031,0.005 c 0.045,0.008 0.087,0.0178 0.1295,0.0295 l 0.6817,0.18006 c 0.2776,0.0769 0.563,0.116 0.8494,0.11706 h 5e-4 c 0.8671,0 1.698,-0.34658 2.2916,-0.95114 0.1334,-0.13628 0.259,-0.30139 0.4067,-0.53482 0.3274,-0.51667 0.5231,-1.11376 0.5665,-1.72686 l 4e-4,-0.0185 c 0,0 0.01,-0.18788 0.01,-0.21386 3e-4,-0.0199 3e-4,-0.0971 0,-0.11636 -5e-4,-0.0256 0,-0.0505 0,-0.0761 l -0.01,-0.15764 c -0.044,-0.61167 -0.2394,-1.20663 -0.5657,-1.72223 -0.1481,-0.23379 -0.2733,-0.39889 -0.4068,-0.53482 -0.5932,-0.60457 -1.4241,-0.9515 -2.2795,-0.9515 -0.3,10e-4 -0.5857,0.0402 -0.8611,0.11671 l -0.6758,0.17899 c -0.051,0.0135 -0.092,0.0228 -0.1352,0.0306 l -0.03,0.006 c -0.046,0.007 -0.09,0.0128 -0.1348,0.0171 l -0.037,0.003 c -0.045,0.003 -0.09,0.005 -0.1356,0.005 l -0.035,-5.2e-4 c -0.038,-5.1e-4 -0.075,-0.003 -0.1131,-0.005 l -0.042,-0.003 c -0.042,-0.004 -0.085,-0.009 -0.1267,-0.0153 -0.014,-0.002 -0.03,-0.004 -0.045,-0.006 l -0.014,-0.003 c -0.039,-0.007 -0.078,-0.0139 -0.117,-0.0224 -0.023,-0.005 -0.045,-0.0107 -0.067,-0.016 -0.025,-0.006 -0.049,-0.0121 -0.072,-0.0188 -0.037,-0.0106 -0.074,-0.0213 -0.1111,-0.0331 -0.02,-0.007 -0.041,-0.0135 -0.061,-0.0206 -0.034,-0.0117 -0.067,-0.0242 -0.1,-0.0374 -0.025,-0.01 -0.051,-0.0199 -0.076,-0.0313 -0.025,-0.0104 -0.051,-0.0221 -0.076,-0.0338 -0.3804,-0.17792 -0.6971,-0.42913 -0.9163,-0.72661 -0.3018,-0.40886 -0.6146,-0.9241 -0.5028,-1.866 l 0.1754,-1.09169 c 0.038,-0.28965 0.053,-0.57076 0.044,-0.83337 l -0.01,-0.10461 v 0 c -0.011,-0.23094 -0.047,-0.46152 -0.1082,-0.68676 -0.1292,-0.50208 -0.3747,-0.95114 -0.7298,-1.3358 l -0.012,-0.0132 c -0.01,-0.01 -0.017,-0.0188 -0.027,-0.0281 l -0.034,-0.037 c -0.011,-0.0117 -0.024,-0.0246 -0.038,-0.0374 l -0.03,-0.0292 c -0.013,-0.0132 -0.026,-0.026 -0.039,-0.0385 l -0.051,-0.0452 c -0.132,-0.11813 -0.269,-0.22239 -0.407,-0.31028 -0.4701,-0.2989 -1.0121,-0.4907 -1.5676,-0.55404 l -0.01,-10e-4 c -0.037,-0.004 -0.074,-0.008 -0.1121,-0.0103 l -0.1608,-0.01 c -0.029,-10e-4 -0.055,-0.002 -0.082,-0.003 -0.023,-4.1e-4 -0.043,-4.1e-4 -0.064,-4.1e-4 -0.02,0 -0.038,0 -0.058,4.1e-4 -0.029,4.1e-4 -0.055,0.002 -0.082,0.002 l -0.1619,0.01 c -0.037,0.003 -0.073,0.007 -0.1096,0.0107 l -0.012,0.001 c -0.5555,0.0633 -1.0978,0.25477 -1.5678,0.55403 -0.1381,0.0879 -0.2751,0.19215 -0.4071,0.30993 l -0.051,0.0459 c -0.013,0.0117 -0.025,0.0242 -0.038,0.0363 l -0.038,0.0367 c -0.011,0.011 -0.023,0.0217 -0.034,0.0334 l -0.071,0.0769 c -0.3551,0.3843 -0.6003,0.83371 -0.7295,1.33437 -0.061,0.22631 -0.098,0.45689 -0.1085,0.68782 v 0 l -0.01,0.10462 c -0.01,0.26332 0.01,0.54443 0.044,0.83586 l 0.174,1.08493 c 0.1124,0.94652 -0.2004,1.46177 -0.5018,1.87026 -0.4287,0.5818 -1.2198,0.9725 -1.9685,0.9725 -0.169,0 -0.3302,-0.0206 -0.4786,-0.0616 l -0.6736,-0.17899 c -0.2808,-0.0776 -0.5697,-0.11671 -0.8601,-0.11671 -0.8561,0 -1.6874,0.34694 -2.2802,0.9515 -0.1701,0.17258 -0.3071,0.37647 -0.4075,0.53482 -0.3309,0.52343 -0.527,1.12763 -0.5672,1.74786 0,0 0,0.0623 -0.01,0.0939 v 0.037 c 0,0.0253 0,0.0509 0,0.0765 0,0.0206 0,0.0391 0,0.0587 0,0.0185 0,0.0377 0,0.0573 0,0.027 0,0.0527 0,0.0779 v 0.0398 c 0,0.0313 0.01,0.0993 0.01,0.0993 0.04,0.61559 0.2363,1.22015 0.5672,1.74287 0.1004,0.15835 0.2374,0.36224 0.4071,0.53482 0.5929,0.60456 1.4241,0.95115 2.2803,0.95115 0.2903,0 0.5796,-0.0388 0.8593,-0.11636 l 0.6754,-0.17898 c 0.1474,-0.0406 0.3085,-0.0616 0.4775,-0.0616 0.7484,0 1.5398,0.3907 1.9689,0.97213 0.3014,0.40886 0.6142,0.92411 0.5025,1.86671 l -0.1751,1.0917 c -0.038,0.28716 -0.053,0.56826 -0.044,0.83265 l 0.01,0.10497 z"
         style="fill:none;stroke:#6ccef5;stroke-width:0.36706784;stroke-linecap:round;stroke-linejoin:round;stroke-miterlimit:10;stroke-dasharray:none;stroke-opacity:1"
         id="path216-5-2-2-2-1"
         inkscape:connector-curvature="0" />
      <path
         d="m -788.33552,488.0859 c 0.0211,0.4439 0.0903,0.88642 0.20778,1.32005 0.24834,0.96372 0.72023,1.82686 1.40297,2.56692 l 0.1384,0.15108 c 0.0192,0.0173 0.0384,0.039 0.0615,0.0602 l 0.0654,0.0636 c 0.0269,0.0259 0.0538,0.0519 0.0788,0.0773 0.0231,0.0211 0.0442,0.0396 0.0654,0.0582 l 0.0327,0.0286 c 0.25526,0.22845 0.5186,0.42954 0.78328,0.59709 0.90129,0.57386 1.94385,0.94183 3.01276,1.06425 0.0788,0.01 0.15569,0.0173 0.232,0.0225 l 0.0423,0.004 c 0.0653,0.006 0.1307,0.01 0.19336,0.0115 0.0269,10e-4 0.0519,0.004 0.075,0.004 0.0557,0.002 0.10571,0.004 0.15761,0.004 0.0404,10e-4 0.0711,0.004 0.11917,10e-4 0.0346,-10e-4 0.0769,0 0.11533,-10e-4 0.0557,0 0.10572,-0.002 0.15762,-0.004 0.0288,0 0.0538,-0.002 0.0769,-0.004 0.0673,-0.004 0.13071,-0.006 0.19414,-0.0115 l 0.0423,-0.004 c 0.0769,-0.006 0.15377,-0.0134 0.22988,-0.0225 1.07121,-0.12244 2.11359,-0.49039 3.01507,-1.06425 0.26737,-0.16953 0.52321,-0.36453 0.78231,-0.59709 l 0.0327,-0.0281 c 0.0211,-0.0192 0.0442,-0.0377 0.0634,-0.0575 0.0269,-0.0254 0.0519,-0.05 0.0769,-0.074 l 0.0653,-0.0636 c 0.0231,-0.0225 0.0461,-0.0444 0.0692,-0.0677 l 0.0577,-0.0636 c 0.0231,-0.0254 0.0442,-0.0465 0.0634,-0.0677 0.69774,-0.75646 1.16962,-1.61894 1.41719,-2.58195 0.11725,-0.4357 0.18837,-0.87959 0.20856,-1.32211 h -7.5e-4 l 0.0192,-0.20177 c 0.0192,-0.50956 -0.0192,-1.04987 -0.0865,-1.60594 l -0.33445,-2.08472 c -0.21605,-1.81934 0.3852,-2.80972 0.9651,-3.59628 0.42134,-0.57041 1.02873,-1.0526 1.75646,-1.39323 0.05,-0.0238 0.10187,-0.0465 0.15377,-0.069 l 0.0923,-0.0377 c 0.0826,-0.0336 0.1653,-0.065 0.24699,-0.0944 l 0.10957,-0.0369 c 0.075,-0.0238 0.148,-0.0452 0.2222,-0.0655 0.0442,-0.0115 0.0884,-0.024 0.13262,-0.0348 l 0.13071,-0.0315 c 0.0769,-0.0173 0.15185,-0.0308 0.22566,-0.0431 0.0384,-0.008 0.0769,-0.0115 0.11533,-0.0173 0.0769,-0.0115 0.15761,-0.0211 0.23815,-0.0286 l 0.0769,-0.006 c 0.0769,-0.006 0.14993,-0.008 0.22489,-0.01 l 0.0577,-0.001 c 0.0942,0.001 0.18068,0.004 0.26679,0.01 l 0.0673,0.006 c 0.0884,0.008 0.17491,0.0192 0.2591,0.0329 l 0.0596,0.01 c 0.0846,0.0154 0.16915,0.0342 0.24891,0.0567 l 1.31052,0.34609 c 0.53339,0.14781 1.08197,0.22298 1.63266,0.22504 h 7.5e-4 c 1.66688,0 3.26399,-0.6662 4.4042,-1.82824 0.25718,-0.26195 0.4986,-0.57932 0.78231,-1.028 0.62931,-0.99381 1.00547,-2.1408 1.08889,-3.31927 l 7.7e-4,-0.0356 c 0,0 0.0192,-0.36113 0.0192,-0.41176 5.6e-4,-0.0377 5.6e-4,-0.18606 0,-0.22297 -7.7e-4,-0.0492 0,-0.0978 0,-0.14627 l -0.0192,-0.30366 c -0.0846,-1.17504 -0.46035,-2.31862 -1.08754,-3.30971 -0.28448,-0.44934 -0.52532,-0.76672 -0.78251,-1.02798 -1.13944,-1.16205 -2.73655,-1.82892 -4.38094,-1.82892 -0.57645,0.002 -1.12579,0.0773 -1.65515,0.22364 l -1.29879,0.34472 c -0.098,0.0254 -0.17876,0.0438 -0.26007,0.0588 l -0.0577,0.0115 c -0.0884,0.0135 -0.17299,0.0246 -0.2593,0.0321 l -0.0711,0.006 c -0.0865,0.006 -0.17299,0.01 -0.26064,0.01 l -0.0654,-10e-4 c -0.073,-0.001 -0.14416,-0.006 -0.21759,-0.01 l -0.0807,-0.006 c -0.0826,-0.008 -0.16338,-0.0173 -0.24353,-0.0286 -0.0269,-0.004 -0.0577,-0.008 -0.0865,-0.0115 l -0.025,-0.006 c -0.075,-0.0135 -0.14992,-0.0267 -0.22508,-0.043 -0.0442,-0.01 -0.0865,-0.0206 -0.12878,-0.0308 -0.0461,-0.0115 -0.0923,-0.0238 -0.1384,-0.0361 -0.0711,-0.0206 -0.14223,-0.041 -0.21335,-0.0636 -0.0385,-0.0135 -0.0788,-0.026 -0.11725,-0.0396 -0.0634,-0.0225 -0.12879,-0.0465 -0.19222,-0.0719 -0.0461,-0.0192 -0.098,-0.0383 -0.14608,-0.0602 -0.048,-0.0198 -0.098,-0.0425 -0.14608,-0.065 -0.73118,-0.34268 -1.33993,-0.82487 -1.76145,-1.39667 -0.57991,-0.78586 -1.18116,-1.77623 -0.96645,-3.58669 l 0.33733,-2.09907 c 0.073,-0.55608 0.10188,-1.09641 0.0846,-1.60116 l -0.0192,-0.2011 v 0 c -0.0212,-0.44388 -0.0903,-0.8871 -0.20779,-1.32005 -0.24834,-0.96506 -0.72022,-1.82822 -1.40297,-2.56759 l -0.0231,-0.0254 c -0.0192,-0.0192 -0.0327,-0.0369 -0.05,-0.054 l -0.0654,-0.0711 c -0.0211,-0.0225 -0.0461,-0.0473 -0.073,-0.0719 l -0.0577,-0.0561 c -0.025,-0.0254 -0.05,-0.05 -0.075,-0.074 l -0.098,-0.0869 c -0.25372,-0.22708 -0.51705,-0.42746 -0.7825,-0.59642 -0.90341,-0.57451 -1.94521,-0.94317 -3.01295,-1.06492 l -0.0192,-0.002 c -0.0711,-0.008 -0.14223,-0.0154 -0.21547,-0.0198 l -0.30908,-0.0192 c -0.0557,-0.002 -0.10572,-0.004 -0.15761,-0.006 -0.0442,-10e-4 -0.0827,-10e-4 -0.12302,-10e-4 -0.0384,0 -0.073,0 -0.11148,10e-4 -0.0557,0.001 -0.10572,0.004 -0.15762,0.004 l -0.31119,0.0192 c -0.0711,0.006 -0.14032,0.0135 -0.21067,0.0206 l -0.0231,0.002 c -1.06832,0.12168 -2.11012,0.48973 -3.01353,1.06495 -0.26544,0.16895 -0.52878,0.36932 -0.7825,0.59572 l -0.098,0.0882 c -0.025,0.0225 -0.048,0.0465 -0.073,0.0698 l -0.073,0.0705 c -0.0211,0.0211 -0.0442,0.0417 -0.0654,0.0642 l -0.13648,0.14781 c -0.68274,0.73866 -1.15462,1.60183 -1.4022,2.56484 -0.11725,0.435 -0.18837,0.87821 -0.20855,1.32209 h 7.7e-4 v 0.20109 c -0.0192,0.50614 0.0192,1.04647 0.0865,1.60664 l 0.33445,2.08541 c 0.21547,1.81934 -0.3852,2.80903 -0.96511,3.5949 -0.82344,1.11828 -2.34405,1.86926 -3.78315,1.86926 -0.32484,0 -0.63469,-0.0396 -0.91994,-0.1184 l -1.29475,-0.34399 c -0.53974,-0.14916 -1.09504,-0.22501 -1.65304,-0.22501 -1.64573,0 -3.24361,0.66754 -4.38305,1.82959 -0.32696,0.33173 -0.59029,0.72363 -0.78328,1.028 -0.63603,1.00543 -1.01296,2.16748 -1.09023,3.35894 0,0 0,0.12033 -0.0192,0.18126 v 0.0705 c 0,0.0492 0,0.0984 0,0.14781 -7.7e-4,0.0396 -7.7e-4,0.0754 -7.7e-4,0.11225 0,0.0361 0,0.0732 7.7e-4,0.11072 7.6e-4,0.0519 0,0.1013 0,0.14973 v 0.0759 c 0,0.0607 0.0192,0.19087 0.0192,0.19087 0.0769,1.18394 0.4542,2.34603 1.09023,3.35073 0.19299,0.30437 0.45632,0.69627 0.78251,1.028 1.13963,1.16206 2.73732,1.82822 4.38305,1.82822 0.558,0 1.11407,-0.0746 1.6517,-0.22364 l 1.29821,-0.34404 c 0.28332,-0.0779 0.59298,-0.11841 0.91782,-0.11841 1.43853,0 2.95971,0.751 3.78392,1.86859 0.57991,0.78587 1.18058,1.77627 0.96646,3.58808 l -0.33657,2.0984 c -0.073,0.55194 -0.10187,1.09227 -0.0846,1.60047 l 0.0192,0.20176 z"
         style="fill:none;stroke:#6ccef5;stroke-width:0.7055555;stroke-linecap:round;stroke-linejoin:round;stroke-miterlimit:10;stroke-dasharray:none;stroke-opacity:1"
         id="path220-6-8-8-9-6"
         inkscape:connector-curvature="0" />
      <path
         d="m -770.32181,521.53172 c 0.0211,0.44388 0.0923,0.88642 0.20798,1.32005 0.24814,0.9637 0.72022,1.82686 1.40277,2.5669 l 0.1384,0.15108 c 0.0192,0.0173 0.0404,0.039 0.0615,0.0602 l 0.0654,0.0636 c 0.0269,0.0259 0.0538,0.0519 0.0788,0.0773 0.0231,0.0211 0.0442,0.0396 0.0653,0.0582 l 0.0327,0.0294 c 0.25506,0.22777 0.5184,0.42885 0.78307,0.59642 0.90149,0.57385 1.94329,0.94183 3.01296,1.06425 0.0788,0.01 0.15569,0.0173 0.23258,0.0225 l 0.0404,0.004 c 0.0653,0.006 0.13071,0.01 0.19356,0.0115 0.0269,10e-4 0.0519,0.004 0.075,0.004 0.0557,0.002 0.10572,0.004 0.15762,0.004 0.0404,10e-4 0.0711,0.004 0.11917,10e-4 0.0346,-10e-4 0.0769,0 0.11533,-10e-4 0.0557,0 0.10572,-0.002 0.15762,-0.004 0.0288,0 0.0538,-0.002 0.0769,-0.004 0.0653,-0.004 0.13071,-0.006 0.19414,-0.0115 l 0.0423,-0.004 c 0.0769,-0.006 0.15377,-0.0135 0.22988,-0.0225 1.07121,-0.12244 2.11359,-0.4904 3.01507,-1.06425 0.26737,-0.16953 0.52321,-0.36456 0.78231,-0.59642 l 0.0327,-0.0286 c 0.0211,-0.0192 0.0423,-0.0377 0.0634,-0.0575 0.0288,-0.0254 0.0519,-0.05 0.0769,-0.074 l 0.0654,-0.0636 c 0.0231,-0.0225 0.0461,-0.0444 0.0692,-0.0684 l 0.0577,-0.0629 c 0.0231,-0.0254 0.0442,-0.0465 0.0634,-0.0677 0.69754,-0.75646 1.16962,-1.61894 1.41738,-2.58195 0.11725,-0.43568 0.18645,-0.87957 0.20856,-1.32211 h -7.5e-4 l 0.0192,-0.20176 c 0.0192,-0.50954 -0.0192,-1.04988 -0.0865,-1.60595 l -0.33445,-2.08472 c -0.21624,-1.81934 0.385,-2.8097 0.96511,-3.59626 0.42133,-0.57043 1.02853,-1.05262 1.75643,-1.39322 0.05,-0.0233 0.10187,-0.0465 0.15377,-0.069 l 0.0923,-0.0377 c 0.0826,-0.0336 0.1653,-0.065 0.24721,-0.0944 l 0.10764,-0.0369 c 0.075,-0.0238 0.148,-0.0452 0.22239,-0.0657 0.0442,-0.0115 0.0865,-0.0238 0.13263,-0.0348 l 0.1307,-0.0315 c 0.0769,-0.0173 0.15185,-0.0308 0.22566,-0.043 0.0384,-0.008 0.0769,-0.0115 0.11533,-0.0173 0.0769,-0.0115 0.15761,-0.0211 0.23796,-0.0286 l 0.0769,-0.006 c 0.0769,-0.006 0.14992,-0.008 0.22508,-0.01 l 0.0577,-10e-4 c 0.0942,0 0.18068,0.004 0.26679,0.01 l 0.0673,0.006 c 0.0884,0.008 0.17491,0.0192 0.2593,0.0329 l 0.0596,0.01 c 0.0846,0.0154 0.16723,0.0342 0.24911,0.0561 l 1.31032,0.34677 c 0.53359,0.14781 1.08217,0.22297 1.63267,0.225 h 10e-4 c 1.66668,0 3.26379,-0.66617 4.40477,-1.82822 0.25642,-0.26195 0.49784,-0.57931 0.78174,-1.028 0.6293,-0.99378 1.00547,-2.1408 1.08889,-3.31926 l 0.001,-0.0356 c 0,0 0.0192,-0.36115 0.0192,-0.41107 10e-4,-0.0383 10e-4,-0.18664 0,-0.22366 -10e-4,-0.0492 0,-0.0971 0,-0.14628 l -0.0192,-0.30369 c -0.0846,-1.17505 -0.46036,-2.31862 -1.08755,-3.30968 -0.28448,-0.44938 -0.52532,-0.76674 -0.78173,-1.028 -1.14022,-1.16206 -2.73732,-1.82891 -4.38152,-1.82891 -0.57664,0.002 -1.1258,0.0773 -1.65535,0.22364 l -1.29879,0.34472 c -0.098,0.0254 -0.17683,0.0438 -0.25987,0.0588 l -0.0577,0.0115 c -0.0884,0.0134 -0.173,0.0246 -0.25911,0.0329 l -0.0711,0.006 c -0.0865,0.006 -0.17299,0.01 -0.26045,0.01 l -0.0653,-0.001 c -0.073,-10e-4 -0.14416,-0.006 -0.21739,-0.01 l -0.0807,-0.006 c -0.0807,-0.008 -0.16338,-0.0173 -0.24354,-0.0294 -0.0269,-0.004 -0.0577,-0.008 -0.0865,-0.0115 l -0.025,-0.006 c -0.075,-0.0135 -0.14993,-0.0267 -0.22489,-0.0431 -0.0442,-0.01 -0.0865,-0.0204 -0.12879,-0.0307 -0.0481,-0.0115 -0.0942,-0.0233 -0.13839,-0.0361 -0.0711,-0.0204 -0.14224,-0.0411 -0.21355,-0.0636 -0.0384,-0.0135 -0.0788,-0.026 -0.11725,-0.0396 -0.0634,-0.0225 -0.12878,-0.0465 -0.19221,-0.0719 -0.0481,-0.0192 -0.098,-0.0383 -0.14609,-0.0602 -0.048,-0.0198 -0.098,-0.0425 -0.14608,-0.065 -0.73118,-0.34197 -1.33992,-0.82484 -1.76126,-1.39664 -0.5801,-0.78589 -1.18134,-1.77623 -0.96645,-3.58671 l 0.33715,-2.09906 c 0.073,-0.55609 0.10187,-1.09639 0.0846,-1.60116 l -0.0192,-0.20107 v 0 c -0.0211,-0.4439 -0.0903,-0.88713 -0.20798,-1.32007 -0.24814,-0.96505 -0.72041,-1.82822 -1.40297,-2.56758 l -0.0231,-0.0254 c -0.0192,-0.0192 -0.0327,-0.0361 -0.0519,-0.054 l -0.0654,-0.0711 c -0.0211,-0.0225 -0.0481,-0.0471 -0.073,-0.0719 l -0.0577,-0.0561 c -0.025,-0.0254 -0.05,-0.05 -0.075,-0.0738 l -0.098,-0.0869 c -0.25372,-0.2271 -0.51725,-0.42751 -0.7825,-0.59642 -0.9036,-0.57453 -1.94521,-0.9432 -3.01296,-1.06495 l -0.0192,-0.002 c -0.0711,-0.008 -0.14224,-0.0154 -0.21547,-0.0198 l -0.30908,-0.0192 c -0.0557,-0.002 -0.10764,-0.004 -0.15761,-0.006 -0.0442,-0.001 -0.0827,-0.001 -0.12302,-0.001 -0.0365,0 -0.073,0 -0.11149,0.001 -0.0557,9.9e-4 -0.10571,0.004 -0.15761,0.004 l -0.3112,0.0192 c -0.0711,0.006 -0.14031,0.0115 -0.21047,0.0204 l -0.0231,0.002 c -1.06851,0.12167 -2.11012,0.48972 -3.01352,1.06492 -0.26545,0.16896 -0.52879,0.36934 -0.78251,0.59575 l -0.098,0.0882 c -0.025,0.0225 -0.048,0.0465 -0.073,0.0698 l -0.073,0.0705 c -0.0211,0.0211 -0.0442,0.0417 -0.0653,0.0642 l -0.13647,0.14781 c -0.68275,0.73868 -1.15406,1.60253 -1.4022,2.56487 -0.11726,0.435 -0.18837,0.8782 -0.20875,1.32208 h 9.8e-4 v 0.2011 c -0.0192,0.50613 0.0192,1.04647 0.0846,1.60664 l 0.33464,2.08538 c 0.21547,1.81935 -0.3852,2.80973 -0.96511,3.5949 -0.82363,1.11828 -2.34404,1.86928 -3.78315,1.86928 -0.32484,0 -0.63469,-0.0396 -0.91994,-0.1184 l -1.29475,-0.34406 c -0.53974,-0.14916 -1.09504,-0.22432 -1.65323,-0.22432 -1.64554,0 -3.24342,0.66687 -4.38286,1.82892 -0.32696,0.33172 -0.59029,0.72363 -0.78327,1.028 -0.63604,1.00541 -1.01297,2.16746 -1.09024,3.35893 0,0 0,0.12033 -0.0192,0.18126 v 0.0711 c 0,0.0486 0,0.0978 0,0.14705 -7.7e-4,0.0396 -7.7e-4,0.0752 -7.7e-4,0.11282 0,0.0356 0,0.0725 7.7e-4,0.11014 7.5e-4,0.0519 0,0.1013 0,0.14974 v 0.0759 c 0,0.0609 0.0192,0.19087 0.0192,0.19087 0.0769,1.18394 0.4542,2.34599 1.09024,3.35073 0.19298,0.30437 0.45631,0.69628 0.7825,1.028 1.13944,1.16205 2.73732,1.82822 4.38305,1.82822 0.558,0 1.11407,-0.0746 1.6517,-0.22364 l 1.29821,-0.34404 c 0.28313,-0.0779 0.59298,-0.1184 0.91782,-0.1184 1.43853,0 2.95971,0.75099 3.78392,1.86858 0.57991,0.78587 1.18058,1.77625 0.96646,3.58806 l -0.33657,2.0984 c -0.073,0.55196 -0.10187,1.09229 -0.0846,1.60047 l 0.0192,0.20179 z"
         style="fill:none;stroke:#6ccef5;stroke-width:0.7055555;stroke-linecap:round;stroke-linejoin:round;stroke-miterlimit:10;stroke-dasharray:none;stroke-opacity:1"
         id="path224-9-0-0-7-28"
         inkscape:connector-curvature="0" />
      <path
         transform="matrix(1.9221392,0,0,1.9221392,1379.5646,-418.67285)"
         clip-path="url(#clipPath5328-0)"
         d="m -1144.3596,482.1947 c 0.011,0.23093 0.048,0.46151 0.1082,0.68676 0.1291,0.50137 0.3747,0.95043 0.7298,1.33544 l 0.072,0.0786 c 0.01,0.009 0.021,0.0203 0.032,0.0313 l 0.034,0.0331 c 0.014,0.0135 0.028,0.027 0.041,0.0402 0.012,0.011 0.022,0.0206 0.034,0.0303 l 0.017,0.0153 c 0.1327,0.11849 0.2697,0.22311 0.4074,0.31029 0.469,0.29854 1.0113,0.48999 1.5675,0.55368 0.041,0.005 0.081,0.009 0.121,0.0117 l 0.021,0.002 c 0.034,0.003 0.068,0.005 0.1007,0.006 0.014,0.001 0.027,0.002 0.039,0.002 0.029,0.001 0.055,0.002 0.082,0.002 0.021,5.1e-4 0.037,0.002 0.062,5.1e-4 0.018,-5.1e-4 0.04,0 0.06,-5.1e-4 0.029,0 0.055,-10e-4 0.082,-0.002 0.015,0 0.028,-5.1e-4 0.04,-0.002 0.035,-0.002 0.068,-0.003 0.101,-0.006 l 0.022,-0.002 c 0.04,-0.003 0.08,-0.007 0.1196,-0.0117 0.5573,-0.0637 1.0996,-0.25514 1.5686,-0.55368 0.1391,-0.0883 0.2722,-0.18966 0.407,-0.31029 l 0.017,-0.0149 c 0.011,-0.01 0.023,-0.0196 0.033,-0.0299 0.014,-0.0132 0.027,-0.026 0.04,-0.0385 l 0.034,-0.0331 c 0.012,-0.0117 0.024,-0.0231 0.036,-0.0352 l 0.03,-0.0331 c 0.012,-0.0132 0.022,-0.0242 0.033,-0.0352 0.3629,-0.39355 0.6085,-0.84226 0.7373,-1.34327 0.061,-0.22667 0.098,-0.4576 0.1085,-0.68783 h -4e-4 l 0.01,-0.10497 c 0.01,-0.26509 -0.01,-0.54621 -0.045,-0.83514 l -0.174,-1.08494 c -0.1124,-0.94652 0.2004,-1.46176 0.5021,-1.87097 0.2192,-0.29677 0.5352,-0.54763 0.9138,-0.72484 0.026,-0.0121 0.053,-0.0242 0.08,-0.0359 l 0.048,-0.0196 c 0.043,-0.0174 0.086,-0.0338 0.1285,-0.0491 l 0.057,-0.0192 c 0.038,-0.0121 0.077,-0.0235 0.1153,-0.0341 0.023,-0.006 0.046,-0.0124 0.069,-0.0181 l 0.068,-0.0164 c 0.04,-0.009 0.079,-0.016 0.1174,-0.0224 0.02,-0.004 0.04,-0.006 0.06,-0.009 0.04,-0.006 0.082,-0.011 0.1239,-0.0149 l 0.04,-0.003 c 0.04,-0.003 0.078,-0.004 0.117,-0.005 l 0.031,-5.1e-4 c 0.049,4e-4 0.094,0.002 0.1384,0.005 l 0.035,0.003 c 0.047,0.004 0.091,0.01 0.1349,0.0171 l 0.031,0.005 c 0.044,0.008 0.088,0.0178 0.1296,0.0295 l 0.6817,0.18006 c 0.2776,0.0769 0.563,0.116 0.8494,0.11707 h 4e-4 c 0.8672,0 1.6981,-0.34659 2.2913,-0.95115 0.1338,-0.13629 0.2594,-0.30139 0.4071,-0.53481 0.3274,-0.51703 0.5231,-1.11376 0.5665,-1.72687 l 4e-4,-0.0185 c 0,0 0.01,-0.18788 0.01,-0.21386 3e-4,-0.0199 3e-4,-0.0971 0,-0.11636 -4e-4,-0.0256 0,-0.0505 0,-0.0761 l -0.01,-0.15799 c -0.044,-0.61133 -0.2395,-1.20628 -0.5658,-1.72189 -0.148,-0.23378 -0.2732,-0.39888 -0.4067,-0.53481 -0.5932,-0.60457 -1.4241,-0.9515 -2.2795,-0.9515 -0.3,10e-4 -0.5857,0.0402 -0.8612,0.11671 l -0.6757,0.17899 c -0.051,0.0135 -0.092,0.0228 -0.1352,0.0306 l -0.03,0.006 c -0.046,0.007 -0.09,0.0128 -0.1348,0.0171 l -0.037,0.003 c -0.045,0.003 -0.09,0.005 -0.1355,0.005 l -0.034,-5.2e-4 c -0.038,-5.1e-4 -0.076,-0.003 -0.1131,-0.005 l -0.042,-0.003 c -0.042,-0.004 -0.085,-0.009 -0.1267,-0.0153 -0.014,-0.002 -0.03,-0.004 -0.045,-0.006 l -0.014,-0.003 c -0.039,-0.007 -0.078,-0.0139 -0.117,-0.0224 -0.023,-0.005 -0.045,-0.0107 -0.067,-0.016 -0.025,-0.006 -0.049,-0.0121 -0.072,-0.0188 -0.037,-0.0107 -0.075,-0.0214 -0.1111,-0.0331 -0.02,-0.007 -0.041,-0.0135 -0.061,-0.0206 -0.034,-0.0117 -0.067,-0.0242 -0.1,-0.0374 -0.025,-0.01 -0.051,-0.0199 -0.076,-0.0313 -0.025,-0.0103 -0.051,-0.0221 -0.076,-0.0338 -0.3804,-0.17791 -0.6971,-0.42913 -0.9163,-0.72661 -0.3018,-0.40886 -0.6146,-0.9241 -0.5028,-1.86599 l 0.1754,-1.09206 c 0.038,-0.28929 0.053,-0.5704 0.044,-0.833 l -0.01,-0.10462 v 0 c -0.011,-0.23094 -0.048,-0.46151 -0.1082,-0.68676 -0.1292,-0.50208 -0.3747,-0.95114 -0.7299,-1.3358 l -0.012,-0.0132 c -0.01,-0.01 -0.017,-0.0188 -0.027,-0.0281 l -0.034,-0.037 c -0.011,-0.0117 -0.024,-0.0246 -0.038,-0.0374 l -0.03,-0.0292 c -0.013,-0.0132 -0.026,-0.026 -0.039,-0.0385 l -0.051,-0.0452 c -0.132,-0.11814 -0.269,-0.2224 -0.407,-0.31029 -0.4701,-0.2989 -1.0121,-0.49069 -1.5676,-0.55403 l -0.01,-10e-4 c -0.037,-0.004 -0.074,-0.008 -0.1121,-0.0103 l -0.1608,-0.01 c -0.029,-10e-4 -0.055,-0.002 -0.082,-0.003 -0.023,-4.1e-4 -0.043,-4.1e-4 -0.064,-4.1e-4 -0.019,0 -0.038,0 -0.058,4.1e-4 -0.029,4.1e-4 -0.055,0.002 -0.082,0.002 l -0.1619,0.01 c -0.037,0.003 -0.073,0.007 -0.1096,0.0107 l -0.012,0.001 c -0.5558,0.0633 -1.0978,0.25478 -1.5678,0.55404 -0.1381,0.0879 -0.2751,0.19215 -0.4071,0.30993 l -0.051,0.0459 c -0.013,0.0117 -0.025,0.0242 -0.038,0.0363 l -0.038,0.0367 c -0.011,0.011 -0.023,0.0217 -0.034,0.0334 l -0.071,0.0769 c -0.3551,0.38429 -0.6003,0.83371 -0.7295,1.33437 -0.061,0.22631 -0.097,0.45689 -0.1085,0.68783 h 4e-4 v 0.10461 c -0.01,0.26332 0.01,0.54443 0.044,0.83585 l 0.174,1.08494 c 0.1124,0.94652 -0.2004,1.46177 -0.5021,1.87026 -0.4284,0.58179 -1.2195,0.9725 -1.9682,0.9725 -0.169,0 -0.3302,-0.0206 -0.4786,-0.0616 l -0.6736,-0.17898 c -0.2808,-0.0776 -0.5697,-0.11672 -0.86,-0.11672 -0.8562,0 -1.6875,0.34694 -2.2803,0.9515 -0.1701,0.17258 -0.3071,0.37648 -0.4074,0.53482 -0.3309,0.52343 -0.527,1.12764 -0.5672,1.7475 0,0 0,0.0626 -0.01,0.0943 v 0.037 c 0,0.0253 0,0.0509 0,0.0765 0,0.0206 0,0.0391 0,0.0587 0,0.0185 0,0.0377 0,0.0573 0,0.027 0,0.0527 0,0.0779 v 0.0398 c 0,0.0313 0.01,0.0993 0.01,0.0993 0.04,0.61559 0.2363,1.22015 0.5672,1.74287 0.1003,0.15835 0.2373,0.36224 0.4071,0.53482 0.5928,0.60457 1.424,0.95114 2.2802,0.95114 0.2904,0 0.5796,-0.0388 0.8593,-0.11635 l 0.6755,-0.17899 c 0.1473,-0.0405 0.3085,-0.0616 0.4775,-0.0616 0.7483,0 1.5397,0.39071 1.9685,0.97214 0.3017,0.40885 0.6145,0.9241 0.5028,1.8667 l -0.1751,1.09171 c -0.038,0.28715 -0.053,0.56826 -0.044,0.83264 l 0.01,0.10498 z"
         style="fill:none;stroke:#6ccef5;stroke-width:0.36706784;stroke-linecap:round;stroke-linejoin:round;stroke-miterlimit:10;stroke-dasharray:none;stroke-opacity:1"
         id="path232-2-2-8-9-6"
         inkscape:connector-curvature="0" />
    </g>
    <g
       transform="translate(534.815,-213.3771)"
       id="g6325">
      <path
         d="m -582.34505,606.08526 c -0.0192,-0.44196 -0.0865,-0.88278 -0.20106,-1.31495 -0.24315,-0.96044 -0.70927,-1.82175 -1.38605,-2.5615 l -0.1384,-0.15108 c -0.0192,-0.0173 -0.0384,-0.039 -0.0615,-0.0602 l -0.0653,-0.0636 c -0.0269,-0.0259 -0.0538,-0.0519 -0.0788,-0.0773 -0.0231,-0.0213 -0.0423,-0.0398 -0.0653,-0.0582 l -0.0327,-0.0286 c -0.25333,-0.22856 -0.51474,-0.42991 -0.7775,-0.59792 -0.89553,-0.57524 -1.93213,-0.94621 -2.99642,-1.07286 -0.0788,-0.01 -0.1557,-0.0173 -0.23162,-0.0235 l -0.0404,-0.004 c -0.0653,-0.006 -0.12878,-0.01 -0.19259,-0.0135 -0.0269,-10e-4 -0.0519,-0.004 -0.075,-0.004 -0.0557,-0.002 -0.10572,-0.006 -0.15761,-0.006 -0.0404,-10e-4 -0.0711,-0.004 -0.11918,-10e-4 -0.0346,10e-4 -0.0769,-2.7e-4 -0.11532,5.2e-4 -0.0538,-2.7e-4 -0.10572,0.001 -0.15762,0.004 -0.0288,-1.3e-4 -0.0519,0.002 -0.0769,0.004 -0.0653,0.004 -0.12878,0.006 -0.19336,0.0115 l -0.0423,0.004 c -0.0769,0.006 -0.15185,0.0135 -0.22893,0.0215 -1.06755,0.11706 -2.10743,0.47869 -3.00795,1.0459 -0.26718,0.16761 -0.52302,0.36053 -0.78212,0.59086 l -0.0327,0.0279 c -0.0211,0.0192 -0.0423,0.0373 -0.0634,0.0569 -0.0288,0.025 -0.0519,0.0494 -0.0769,0.0732 l -0.0673,0.063 c -0.0231,0.0223 -0.0461,0.044 -0.0692,0.0671 l -0.0577,0.063 c -0.0231,0.0252 -0.0423,0.0461 -0.0634,0.0671 -0.69831,0.74988 -1.17231,1.60633 -1.42334,2.56382 -0.11918,0.4332 -0.1903,0.87475 -0.21375,1.31515 v 0 l -0.0192,0.20081 c -0.0192,0.50715 0.0192,1.04516 0.0788,1.59901 l 0.32388,2.07669 c 0.20721,1.81202 -0.39615,2.7952 -0.97741,3.57557 -0.42229,0.56593 -1.0293,1.0432 -1.75587,1.379 -0.05,0.0236 -0.10187,0.0459 -0.15377,0.068 l -0.0923,0.0371 c -0.0827,0.0331 -0.16531,0.0638 -0.24644,0.0928 l -0.10956,0.0363 c -0.075,0.0229 -0.14801,0.0442 -0.22163,0.0644 -0.0423,0.0115 -0.0865,0.0235 -0.13262,0.034 l -0.13071,0.0308 c -0.0769,0.0154 -0.14993,0.03 -0.2251,0.0419 -0.0384,0.008 -0.0769,0.0115 -0.11533,0.0173 -0.0769,0.0115 -0.15762,0.0204 -0.23719,0.0275 l -0.0769,0.006 c -0.0769,0.006 -0.14992,0.008 -0.22414,0.008 l -0.0577,10e-4 c -0.0942,-10e-4 -0.18068,-0.006 -0.26583,-0.0115 l -0.0673,-0.006 c -0.0884,-0.008 -0.17491,-0.0192 -0.25797,-0.0338 l -0.0596,-0.01 c -0.0865,-0.0154 -0.16722,-0.0348 -0.24776,-0.0577 l -1.30359,-0.35036 c -0.5309,-0.14935 -1.07698,-0.2268 -1.62556,-0.23131 v 0 c -1.66015,-0.008 -3.2542,0.64851 -4.39497,1.80016 -0.25756,0.2596 -0.49939,0.57445 -0.78423,1.01981 -0.63104,0.98644 -1.01087,2.12652 -1.09927,3.29925 v 0.0354 c 0,0 -0.0192,0.35944 -0.0192,0.40913 0,0.038 0,0.18587 0,0.22262 0,0.049 0,0.0967 0,0.1457 l 0.0192,0.30235 c 0.0788,1.17004 0.44824,2.3101 1.06851,3.29945 0.28141,0.4486 0.51975,0.76558 0.77424,1.02682 1.13041,1.16186 2.71829,1.83284 4.35634,1.84018 0.57431,5.2e-4 1.12174,-0.0719 1.64977,-0.21589 l 1.29512,-0.33663 c 0.098,-0.0254 0.17684,-0.0429 0.2593,-0.0575 l 0.0577,-0.0115 c 0.0884,-0.0135 0.17299,-0.0236 0.25853,-0.0315 l 0.0711,-0.006 c 0.0865,-0.006 0.17299,-0.01 0.25968,-0.01 l 0.0673,10e-4 c 0.073,10e-4 0.14416,0.006 0.21644,0.0115 l 0.0807,0.006 c 0.0807,0.008 0.16145,0.0192 0.24238,0.0304 0.0269,0.004 0.0577,0.008 0.0865,0.0135 l 0.025,0.006 c 0.075,0.0135 0.14993,0.0273 0.22393,0.0438 0.0442,0.01 0.0865,0.0208 0.12878,0.0313 0.0461,0.0115 0.0923,0.0235 0.1384,0.0367 0.0711,0.0208 0.14224,0.0415 0.21239,0.0642 0.0385,0.0135 0.0788,0.0261 0.11725,0.04 0.0654,0.0227 0.12879,0.0469 0.19222,0.0725 0.0461,0.0192 0.0961,0.0384 0.14608,0.0607 0.048,0.02 0.0961,0.0427 0.14608,0.0654 0.72676,0.3437 1.33089,0.8271 1.748,1.39817 0.57433,0.78488 1.16885,1.77344 0.94665,3.57468 l -0.34522,2.08798 c -0.0769,0.55319 -0.10764,1.09095 -0.0903,1.59349 l 0.0192,0.20021 v 0 c 0.0192,0.44196 0.0865,0.88345 0.20124,1.31495 0.24296,0.96178 0.70927,1.82311 1.38587,2.56218 l 0.0231,0.0252 c 0.0192,0.0192 0.0327,0.0363 0.05,0.054 l 0.0654,0.0711 c 0.0211,0.0225 0.0461,0.0473 0.073,0.0719 l 0.0577,0.0561 c 0.025,0.0252 0.05,0.0498 0.075,0.0738 l 0.098,0.0869 c 0.2518,0.22718 0.51321,0.42783 0.77673,0.59719 0.89745,0.57595 1.93348,0.9476 2.99643,1.07358 l 0.0192,0.002 c 0.0711,0.008 0.14224,0.0154 0.21451,0.0208 l 0.30793,0.0198 c 0.0557,0.002 0.10571,0.004 0.15761,0.006 0.0442,10e-4 0.0826,10e-4 0.12302,10e-4 0.0365,1.5e-4 0.073,2.5e-4 0.11148,-1.9e-4 0.0538,-5e-4 0.10572,-0.002 0.15762,-0.004 l 0.31004,-0.0173 c 0.0711,-0.006 0.14031,-0.0115 0.2099,-0.0194 l 0.0231,-0.002 c 1.06487,-0.11648 2.10417,-0.47804 3.00661,-1.04657 0.26506,-0.16703 0.52821,-0.36528 0.78212,-0.58952 l 0.098,-0.0875 c 0.025,-0.0223 0.048,-0.0461 0.073,-0.0692 l 0.073,-0.0698 c 0.0212,-0.0209 0.0442,-0.0413 0.0654,-0.0636 l 0.13648,-0.14647 c 0.68332,-0.73225 1.15674,-1.59005 1.40835,-2.54687 0.11917,-0.4325 0.19029,-0.87338 0.21355,-1.31515 v 0 -0.20017 c 0.0192,-0.50373 -0.0192,-1.04174 -0.0788,-1.59966 l -0.32388,-2.07726 c -0.20663,-1.81198 0.39615,-2.79448 0.97664,-3.57417 0.82594,-1.10948 2.34385,-1.85022 3.77739,-1.8438 0.32368,0.002 0.632,0.0423 0.9159,0.12187 l 1.28821,0.34827 c 0.53686,0.15089 1.08986,0.22823 1.64574,0.23071 1.6392,0.008 3.23381,-0.64928 4.37402,-1.80095 0.32715,-0.32874 0.59125,-0.71768 0.78462,-1.01979 0.63815,-0.99799 1.01873,-2.15306 1.10119,-3.33873 0,0 0,-0.11975 0.0192,-0.1803 v -0.0709 c 1.9e-4,-0.0482 0,-0.0975 0,-0.14646 0,-0.0394 0,-0.0748 0,-0.11226 1.9e-4,-0.0354 0,-0.0723 -1.7e-4,-0.10956 0,-0.0517 0,-0.10072 0,-0.14916 v -0.0755 c 0,-0.0605 -0.0192,-0.1899 -0.0192,-0.1899 -0.0711,-1.17889 -0.4419,-2.33734 -1.07102,-3.34034 -0.19029,-0.30383 -0.45134,-0.69516 -0.77481,-1.02682 -1.13003,-1.16186 -2.7185,-1.83215 -4.3579,-1.83953 -0.55586,-0.004 -1.11001,0.0692 -1.64629,0.21524 l -1.29456,0.33667 c -0.28256,0.0763 -0.59127,0.11513 -0.91496,0.1136 -1.43276,-0.008 -2.9447,-0.76083 -3.76124,-1.87703 -0.57357,-0.78489 -1.16749,-1.77344 -0.94606,-3.57605 l 0.34464,-2.0873 c 0.075,-0.5491 0.10764,-1.08686 0.0903,-1.59278 l -0.0192,-0.20089 z"
         style="fill:none;stroke:#6ccef5;stroke-width:0.7055555;stroke-linecap:round;stroke-linejoin:round;stroke-miterlimit:10;stroke-dasharray:none;stroke-opacity:1"
         id="path212-0-20-3-8-7-2"
         inkscape:connector-curvature="0" />
      <path
         d="m -600.13926,572.71127 c -0.0192,-0.44197 -0.0865,-0.88278 -0.20105,-1.31495 -0.24315,-0.96044 -0.70927,-1.82177 -1.38606,-2.5615 l -0.13839,-0.15108 c -0.0192,-0.0173 -0.0384,-0.039 -0.0615,-0.0602 l -0.0653,-0.0636 c -0.0269,-0.0259 -0.0519,-0.0521 -0.0788,-0.0773 -0.0231,-0.0211 -0.0423,-0.0404 -0.0653,-0.0582 l -0.0327,-0.0294 c -0.25334,-0.22785 -0.51456,-0.42919 -0.7775,-0.59721 -0.89534,-0.57523 -1.93214,-0.94621 -2.99643,-1.07286 -0.0788,-0.01 -0.15569,-0.0173 -0.23161,-0.0235 l -0.0404,-0.004 c -0.0653,-0.008 -0.12878,-0.01 -0.1926,-0.0135 -0.0269,-0.001 -0.05,-0.004 -0.075,-0.004 -0.0557,-0.002 -0.10572,-0.006 -0.15762,-0.006 -0.0404,-0.002 -0.0711,-0.006 -0.11917,-0.002 -0.0346,10e-4 -0.0769,-2.5e-4 -0.11533,10e-4 -0.0557,-2.5e-4 -0.10572,0.002 -0.15761,0.004 -0.0288,-1.3e-4 -0.0519,0.002 -0.0769,0.004 -0.0653,0.002 -0.12878,0.006 -0.19356,0.0115 l -0.0423,0.004 c -0.0769,0.006 -0.15184,0.0135 -0.22892,0.0215 -1.06756,0.11706 -2.10744,0.47871 -3.00815,1.0459 -0.26699,0.16761 -0.52282,0.36053 -0.78193,0.59019 l -0.0327,0.0285 c -0.0212,0.0192 -0.0423,0.0373 -0.0634,0.0569 -0.0288,0.0252 -0.0519,0.0494 -0.0769,0.0732 l -0.0673,0.063 c -0.0231,0.0223 -0.0461,0.044 -0.0692,0.0671 l -0.0577,0.063 c -0.0231,0.0252 -0.0423,0.0461 -0.0634,0.0671 -0.69829,0.74989 -1.17229,1.60632 -1.42334,2.56383 -0.11917,0.43317 -0.19029,0.87473 -0.21355,1.31513 v 2e-5 l -0.0192,0.20078 c -0.0192,0.50718 0.0192,1.04517 0.0788,1.59834 l 0.32388,2.07739 c 0.2072,1.81202 -0.39635,2.79515 -0.97739,3.57556 -0.42229,0.56592 -1.0295,1.04321 -1.75587,1.37898 -0.05,0.0229 -0.10188,0.0459 -0.15378,0.068 l -0.0923,0.0371 c -0.0826,0.0331 -0.1653,0.064 -0.24642,0.0928 l -0.10764,0.0363 c -0.075,0.0229 -0.148,0.0442 -0.22181,0.0644 -0.0423,0.0115 -0.0865,0.0235 -0.13263,0.034 l -0.1307,0.0308 c -0.0769,0.0154 -0.14993,0.03 -0.2249,0.0419 -0.0384,0.008 -0.0769,0.0115 -0.11532,0.0173 -0.0769,0.0115 -0.15762,0.0204 -0.23739,0.0275 l -0.0769,0.006 c -0.0769,0.006 -0.14993,0.008 -0.22412,0.008 l -0.0596,10e-4 c -0.0923,-10e-4 -0.18068,-0.006 -0.26506,-0.0115 l -0.0673,-0.006 c -0.0884,-0.01 -0.17491,-0.0192 -0.25795,-0.0338 l -0.0596,-0.01 c -0.0865,-0.0154 -0.16722,-0.0348 -0.24776,-0.0577 l -1.30359,-0.35039 c -0.5309,-0.14954 -1.07698,-0.22679 -1.62556,-0.23131 v 0 c -1.66015,-0.008 -3.25418,0.64853 -4.39574,1.80018 -0.2568,0.25961 -0.4986,0.57443 -0.78327,1.01979 -0.63123,0.98575 -1.01104,2.12654 -1.09946,3.29926 v 0.0354 c 0,0 -0.0192,0.35942 -0.0192,0.4091 0,0.0381 0,0.18587 0,0.22266 0,0.049 0,0.0967 0,0.1457 l 0.0192,0.30166 c 0.0788,1.17076 0.44805,2.31082 1.06851,3.30016 0.28141,0.44859 0.51975,0.76557 0.77424,1.02681 1.13041,1.16187 2.71829,1.83284 4.35634,1.8402 0.57433,5e-4 1.12176,-0.0719 1.64977,-0.2159 l 1.29514,-0.33664 c 0.098,-0.0256 0.17683,-0.0429 0.25929,-0.0575 l 0.0577,-0.0115 c 0.0884,-0.0134 0.17299,-0.0236 0.25853,-0.0315 l 0.0711,-0.006 c 0.0865,-0.006 0.173,-0.01 0.25969,-0.01 l 0.0673,0.001 c 0.073,10e-4 0.14416,0.006 0.21643,0.0115 l 0.0807,0.006 c 0.0807,0.008 0.16146,0.0192 0.24258,0.0304 0.0269,0.004 0.0557,0.008 0.0865,0.0135 l 0.0269,0.006 c 0.075,0.0135 0.14993,0.0273 0.22393,0.0438 0.0442,0.01 0.0865,0.0208 0.12879,0.0313 0.0461,0.0115 0.0923,0.0235 0.13839,0.0367 0.0711,0.0206 0.14224,0.0415 0.2124,0.0642 0.0384,0.0135 0.0788,0.0263 0.11725,0.04 0.0653,0.0227 0.12878,0.0469 0.19221,0.0725 0.0461,0.0192 0.0961,0.0384 0.14608,0.0605 0.0481,0.02 0.0961,0.0427 0.14609,0.0654 0.72676,0.34371 1.33089,0.82711 1.74799,1.39818 0.57432,0.78489 1.16883,1.77344 0.94683,3.57466 l -0.34541,2.08733 c -0.075,0.55388 -0.10764,1.0916 -0.0903,1.59416 l 0.0192,0.20021 v 0 c 0.0192,0.44196 0.0865,0.88346 0.20107,1.31496 0.24315,0.96176 0.70927,1.82311 1.38606,2.56215 l 0.0231,0.0252 c 0.0192,0.0192 0.0327,0.0363 0.05,0.054 l 0.0653,0.0711 c 0.0212,0.0225 0.0461,0.0473 0.073,0.0719 l 0.0577,0.0561 c 0.025,0.0252 0.05,0.0498 0.075,0.074 l 0.098,0.0871 c 0.25161,0.22718 0.51321,0.42785 0.77674,0.59721 0.89744,0.57595 1.93348,0.9476 2.99642,1.07355 l 0.0192,0.002 c 0.0711,0.008 0.14224,0.0154 0.21432,0.0208 l 0.30793,0.0198 c 0.0557,0.002 0.10571,0.004 0.15761,0.006 0.0442,10e-4 0.0827,10e-4 0.12302,10e-4 0.0365,1.7e-4 0.073,2.7e-4 0.10956,-2.5e-4 0.0538,-5e-4 0.10572,-0.004 0.15762,-0.004 l 0.31023,-0.0173 c 0.0711,-0.006 0.14032,-0.0115 0.2099,-0.0194 l 0.0231,-0.002 c 1.0641,-0.11648 2.10417,-0.47804 3.00661,-1.04657 0.26526,-0.16703 0.5284,-0.3653 0.78212,-0.58952 l 0.098,-0.0875 c 0.025,-0.0223 0.048,-0.0461 0.073,-0.0692 l 0.073,-0.0698 c 0.0212,-0.021 0.0442,-0.0413 0.0654,-0.0636 l 0.13647,-0.14647 c 0.68332,-0.73225 1.15655,-1.59005 1.40816,-2.54689 0.11917,-0.43246 0.19029,-0.87336 0.21374,-1.31513 v 0 l 0.0192,-0.20011 c 0.0192,-0.50375 -0.0192,-1.04174 -0.0788,-1.5997 l -0.32388,-2.07737 c -0.20721,-1.81202 0.39615,-2.79519 0.97683,-3.57422 0.82595,-1.10948 2.34386,-1.85023 3.77739,-1.84377 0.3235,10e-4 0.632,0.0423 0.91571,0.12186 l 1.28822,0.34827 c 0.53704,0.15089 1.08985,0.22822 1.64573,0.23074 1.6392,0.008 3.23381,-0.6493 4.37421,-1.80095 0.32696,-0.32876 0.59106,-0.71771 0.78462,-1.01981 0.63796,-0.99867 1.01873,-2.15305 1.101,-3.33941 0,0 0,-0.11917 0.0192,-0.17972 v -0.0707 c 0,-0.0484 0,-0.0974 0,-0.14627 2e-4,-0.0394 0,-0.0748 0,-0.11225 2e-4,-0.0354 0,-0.0723 0,-0.10956 0,-0.0517 0,-0.10072 0,-0.14916 v -0.0763 c 2e-4,-0.06 -0.0192,-0.18991 -0.0192,-0.18991 -0.0711,-1.17823 -0.4419,-2.33667 -1.07101,-3.33968 -0.1903,-0.30383 -0.45132,-0.69514 -0.77482,-1.0268 -1.12983,-1.16186 -2.71848,-1.83217 -4.35768,-1.83953 -0.55588,-0.004 -1.11004,0.0692 -1.64631,0.21524 l -1.29476,0.33664 c -0.28236,0.0763 -0.59125,0.11514 -0.91474,0.1136 -1.43296,-0.008 -2.94472,-0.76082 -3.76144,-1.877 -0.57356,-0.78489 -1.16808,-1.77345 -0.94607,-3.57605 l 0.34464,-2.08731 c 0.075,-0.54911 0.10764,-1.08685 0.0903,-1.5928 l -0.0192,-0.20088 z"
         style="fill:none;stroke:#6ccef5;stroke-width:0.7055555;stroke-linecap:round;stroke-linejoin:round;stroke-miterlimit:10;stroke-dasharray:none;stroke-opacity:1"
         id="path216-1-57-1-7-7-7"
         inkscape:connector-curvature="0" />
      <path
         d="m -619.06464,540.40319 c -0.0192,-0.44196 -0.0865,-0.88278 -0.20125,-1.31496 -0.24296,-0.96043 -0.70927,-1.82176 -1.38586,-2.56148 l -0.13839,-0.15108 c -0.0192,-0.0173 -0.0385,-0.039 -0.0615,-0.0602 l -0.0654,-0.0636 c -0.0269,-0.0259 -0.0519,-0.0519 -0.0788,-0.0773 -0.0231,-0.0212 -0.0442,-0.0396 -0.0654,-0.0582 l -0.0327,-0.0286 c -0.25334,-0.22853 -0.51456,-0.42987 -0.77751,-0.59787 -0.89533,-0.57527 -1.93213,-0.94623 -2.99642,-1.0729 -0.0788,-0.01 -0.15377,-0.0173 -0.23085,-0.0235 l -0.0404,-0.004 c -0.0654,-0.006 -0.12879,-0.01 -0.19279,-0.0135 -0.0269,-10e-4 -0.05,-0.004 -0.075,-0.004 -0.0538,-0.002 -0.10571,-0.004 -0.15761,-0.006 -0.0404,-10e-4 -0.0711,-0.004 -0.11918,-0.002 -0.0346,10e-4 -0.0769,-2.7e-4 -0.11532,5.2e-4 -0.0557,-2.7e-4 -0.10572,0.002 -0.1557,0.004 -0.0288,-1.4e-4 -0.0538,0.002 -0.0769,0.004 -0.0673,0.004 -0.12879,0.006 -0.19337,0.0115 l -0.0423,0.004 c -0.0769,0.006 -0.15377,0.0135 -0.22912,0.0213 -1.06736,0.11706 -2.10743,0.47869 -3.00795,1.04588 -0.26718,0.16761 -0.52282,0.36055 -0.78212,0.59088 l -0.0327,0.0279 c -0.0211,0.0192 -0.0423,0.0373 -0.0634,0.0569 -0.0269,0.0252 -0.0519,0.0494 -0.0769,0.0732 l -0.0654,0.063 c -0.0231,0.0223 -0.0461,0.044 -0.0692,0.0671 l -0.0577,0.063 c -0.0231,0.025 -0.0423,0.0461 -0.0634,0.0671 -0.69829,0.74988 -1.17229,1.60633 -1.42313,2.56384 -0.11917,0.43316 -0.19029,0.87473 -0.21374,1.31513 v 0 l -0.0192,0.20081 c -0.0192,0.50715 0.0192,1.04516 0.0788,1.59901 l 0.32389,2.07669 c 0.2072,1.81202 -0.39616,2.79518 -0.97741,3.57557 -0.4223,0.56593 -1.02931,1.04322 -1.75588,1.37902 -0.05,0.0236 -0.10187,0.0459 -0.15377,0.068 l -0.0923,0.0371 c -0.0827,0.0331 -0.1653,0.064 -0.24642,0.0928 l -0.10956,0.0363 c -0.075,0.0235 -0.14801,0.0442 -0.22182,0.0644 -0.0423,0.0115 -0.0865,0.0235 -0.13262,0.034 l -0.13071,0.0308 c -0.0769,0.0154 -0.14993,0.03 -0.22489,0.0419 -0.0384,0.008 -0.0769,0.0115 -0.11533,0.0173 -0.0769,0.0115 -0.15761,0.0204 -0.23738,0.0275 l -0.0769,0.006 c -0.0769,0.006 -0.14992,0.008 -0.22414,0.008 l -0.0577,10e-4 c -0.0942,-10e-4 -0.18068,-0.006 -0.26583,-0.0115 l -0.0673,-0.006 c -0.0884,-0.01 -0.17491,-0.0192 -0.25814,-0.0338 l -0.0596,-0.01 c -0.0846,-0.0154 -0.16722,-0.0348 -0.24776,-0.0577 l -1.30377,-0.35038 c -0.53072,-0.14955 -1.0768,-0.22687 -1.62519,-0.23139 v 0 c -1.66034,-0.008 -3.25435,0.64853 -4.39516,1.80018 -0.25738,0.2596 -0.49935,0.57443 -0.78404,1.01979 -0.63123,0.98644 -1.01103,2.12654 -1.09947,3.29926 v 0.0354 c 0,0 -0.0192,0.35942 -0.0192,0.4098 0,0.0375 0,0.1851 0,0.22193 0,0.049 0,0.0975 0,0.1457 l 0.0192,0.30235 c 0.0788,1.17007 0.44807,2.31011 1.06852,3.29945 0.28121,0.44859 0.51975,0.76559 0.77482,1.02683 1.12983,1.16185 2.71771,1.83281 4.35556,1.84022 0.57434,4.9e-4 1.12178,-0.0719 1.64978,-0.21525 l 1.29534,-0.33731 c 0.0961,-0.0248 0.17684,-0.0429 0.25909,-0.0575 l 0.0577,-0.0115 c 0.0884,-0.0135 0.173,-0.0236 0.25834,-0.0309 l 0.0711,-0.006 c 0.0865,-0.006 0.17299,-0.01 0.2597,-0.008 l 0.0653,10e-4 c 0.073,0.002 0.14416,0.006 0.21643,0.01 l 0.0807,0.006 c 0.0807,0.008 0.16146,0.0173 0.24258,0.0296 0.0269,0.004 0.0557,0.01 0.0865,0.0134 l 0.025,0.006 c 0.075,0.0135 0.14993,0.0273 0.22393,0.0438 0.0442,0.01 0.0865,0.0209 0.12878,0.0313 0.0461,0.0115 0.0923,0.0242 0.1384,0.0367 0.0711,0.0208 0.14224,0.0415 0.2122,0.0642 0.0385,0.0134 0.0788,0.0263 0.11725,0.04 0.0634,0.0227 0.12686,0.0469 0.1903,0.0723 0.0461,0.0192 0.0961,0.0386 0.14608,0.0606 0.0481,0.02 0.0961,0.0427 0.14608,0.0653 0.72676,0.34437 1.33106,0.82708 1.74819,1.39815 0.57412,0.7849 1.16864,1.77346 0.94665,3.57468 l -0.34543,2.088 c -0.0769,0.55319 -0.10764,1.09093 -0.0903,1.59347 l 0.0192,0.20021 v 0 c 0.0192,0.44196 0.0865,0.88345 0.20125,1.31497 0.24296,0.96176 0.70927,1.82311 1.38586,2.56216 l 0.0231,0.0252 c 0.0192,0.0192 0.0327,0.0369 0.05,0.054 l 0.0654,0.0711 c 0.0211,0.0225 0.0461,0.0473 0.073,0.0719 l 0.0577,0.0561 c 0.025,0.0252 0.05,0.05 0.075,0.0738 l 0.098,0.0869 c 0.2518,0.22718 0.51321,0.42787 0.77675,0.59721 0.89743,0.57597 1.93346,0.9476 2.9964,1.07359 l 0.0192,0.002 c 0.0711,0.008 0.14223,0.0154 0.21451,0.0208 l 0.30792,0.0198 c 0.0557,0.002 0.10572,0.006 0.15762,0.006 0.0442,10e-4 0.0827,10e-4 0.12302,10e-4 0.0365,1.5e-4 0.073,2.5e-4 0.10956,-2.7e-4 0.0557,-5e-4 0.10572,-0.002 0.15761,-0.004 l 0.31004,-0.0173 c 0.0711,-0.006 0.14032,-0.0115 0.2099,-0.0194 l 0.0231,-0.002 c 1.06486,-0.11648 2.10397,-0.47804 3.00661,-1.04657 0.26506,-0.16703 0.5282,-0.3653 0.78212,-0.58952 l 0.098,-0.0874 c 0.025,-0.0223 0.0481,-0.0461 0.073,-0.0692 l 0.073,-0.0698 c 0.0211,-0.0209 0.0442,-0.0413 0.0653,-0.0636 l 0.13647,-0.14646 c 0.68332,-0.73224 1.15732,-1.58936 1.40816,-2.54688 0.11917,-0.43248 0.19029,-0.87336 0.21374,-1.31514 v 0 -0.20018 c 0.0192,-0.50373 -0.0192,-1.04174 -0.0788,-1.59968 l -0.32389,-2.07737 c -0.20643,-1.81202 0.39616,-2.7945 0.97741,-3.5742 0.82518,-1.10949 2.34328,-1.85025 3.77662,-1.84379 0.32369,10e-4 0.63219,0.0423 0.9159,0.12186 l 1.28822,0.34828 c 0.53685,0.15088 1.08985,0.22888 1.64573,0.2314 1.6392,0.008 3.23381,-0.64999 4.37402,-1.80164 0.32715,-0.32874 0.59125,-0.71769 0.78481,-1.01979 0.63796,-0.99799 1.01874,-2.15306 1.10101,-3.33874 0,0 0,-0.11974 0.0192,-0.18029 v -0.0702 c 0,-0.049 0,-0.098 0,-0.14704 0,-0.0394 0,-0.0748 0,-0.11168 1.9e-4,-0.0361 0,-0.0729 0,-0.11033 0,-0.0517 0,-0.10072 0,-0.14916 v -0.0755 c 1.9e-4,-0.0606 -0.0192,-0.18991 -0.0192,-0.18991 -0.0711,-1.17886 -0.4419,-2.33732 -1.07102,-3.34033 -0.19029,-0.30383 -0.45151,-0.69514 -0.77482,-1.02681 -1.12983,-1.16185 -2.71848,-1.83216 -4.35787,-1.83952 -0.55588,-0.004 -1.11003,0.0692 -1.64631,0.21522 l -1.29456,0.33645 c -0.28256,0.0763 -0.59125,0.11514 -0.91494,0.1136 -1.43276,-0.008 -2.94472,-0.76082 -3.76067,-1.87701 -0.57414,-0.78488 -1.16808,-1.77344 -0.94665,-3.57604 l 0.34464,-2.08731 c 0.075,-0.54912 0.10764,-1.08685 0.0903,-1.5928 l -0.0192,-0.20088 z"
         style="fill:none;stroke:#6ccef5;stroke-width:0.7055555;stroke-linecap:round;stroke-linejoin:round;stroke-miterlimit:10;stroke-dasharray:none;stroke-opacity:1"
         id="path220-7-1-6-6-0-2"
         inkscape:connector-curvature="0" />
      <path
         d="m -636.85884,507.02924 c -0.0192,-0.44198 -0.0865,-0.88278 -0.20106,-1.31497 -0.24315,-0.96042 -0.70946,-1.82175 -1.38605,-2.56149 l -0.1384,-0.15108 c -0.0192,-0.0173 -0.0384,-0.039 -0.0615,-0.0602 l -0.0654,-0.0636 c -0.0269,-0.026 -0.0538,-0.0519 -0.0788,-0.0773 -0.0231,-0.0212 -0.0423,-0.0396 -0.0653,-0.0582 l -0.0327,-0.0294 c -0.25314,-0.22787 -0.51455,-0.42921 -0.7775,-0.59719 -0.89514,-0.57528 -1.93137,-0.94623 -2.99642,-1.0729 -0.0788,-0.01 -0.15377,-0.0173 -0.23143,-0.0235 l -0.0404,-0.004 c -0.0654,-0.006 -0.12879,-0.01 -0.19279,-0.0135 -0.0269,-0.001 -0.0519,-0.004 -0.075,-0.004 -0.0557,-0.002 -0.10572,-0.004 -0.15761,-0.006 -0.0404,-0.001 -0.0711,-0.004 -0.11918,-0.002 -0.0346,10e-4 -0.0769,-3.3e-4 -0.1134,4.6e-4 -0.0557,-2.3e-4 -0.10572,0.002 -0.15762,0.004 -0.0288,-1.1e-4 -0.0538,0.002 -0.0769,0.004 -0.0654,0.004 -0.12879,0.006 -0.19337,0.0115 l -0.0423,0.004 c -0.0769,0.006 -0.15185,0.0135 -0.22912,0.0215 -1.06736,0.11706 -2.10743,0.47869 -3.00795,1.04588 -0.26718,0.16761 -0.52282,0.36055 -0.78212,0.59019 l -0.0327,0.0285 c -0.0211,0.0192 -0.0423,0.0373 -0.0634,0.0569 -0.0288,0.025 -0.0519,0.0494 -0.0769,0.0732 l -0.0654,0.063 c -0.0231,0.0223 -0.0461,0.044 -0.0692,0.0679 l -0.0577,0.0623 c -0.0231,0.025 -0.0423,0.0461 -0.0634,0.0671 -0.69831,0.74991 -1.17231,1.60634 -1.42315,2.56385 -0.11917,0.43315 -0.19029,0.87473 -0.21374,1.31515 v 0 l -0.0192,0.2008 c -0.0192,0.50714 0.0192,1.04515 0.0788,1.59901 l 0.32388,2.0767 c 0.20722,1.812 -0.39616,2.79517 -0.97741,3.57554 -0.4223,0.56594 -1.02929,1.04322 -1.75586,1.37902 -0.05,0.0229 -0.10187,0.0459 -0.15377,0.068 l -0.0923,0.0371 c -0.0826,0.0331 -0.1653,0.0638 -0.24642,0.0928 l -0.10764,0.0363 c -0.075,0.0235 -0.148,0.0442 -0.22183,0.0644 -0.0442,0.0115 -0.0865,0.0235 -0.13263,0.034 l -0.13071,0.0308 c -0.0769,0.0154 -0.14992,0.03 -0.22487,0.0419 -0.0384,0.008 -0.0769,0.0115 -0.11533,0.0173 -0.0769,0.0115 -0.15761,0.0204 -0.23721,0.0275 l -0.0769,0.006 c -0.0769,0.006 -0.14993,0.008 -0.22432,0.008 l -0.0577,5e-4 c -0.0942,-4e-4 -0.18068,-0.006 -0.26564,-0.0115 l -0.0673,-0.006 c -0.0884,-0.008 -0.17492,-0.0192 -0.25815,-0.0338 l -0.0596,-0.01 c -0.0846,-0.0154 -0.16723,-0.0348 -0.24777,-0.0569 l -1.30378,-0.35106 c -0.5309,-0.14935 -1.07698,-0.2268 -1.62537,-0.23131 v 0 c -1.66034,-0.008 -3.25418,0.64853 -4.39593,1.80016 -0.2566,0.2596 -0.4986,0.57445 -0.78327,1.01981 -0.63123,0.98644 -1.01124,2.12652 -1.09946,3.29923 v 0.0356 c 0,0 -0.0192,0.35941 -0.0192,0.40913 0,0.0381 0,0.18587 0,0.22262 0,0.049 0,0.0967 0,0.1457 l 0.0192,0.30237 c 0.0788,1.17009 0.44824,2.31011 1.06871,3.29945 0.2814,0.44863 0.51974,0.76559 0.77404,1.02683 1.1306,1.16183 2.71848,1.83281 4.35634,1.8402 0.57433,5.1e-4 1.12176,-0.0719 1.64977,-0.21521 l 1.29533,-0.33735 c 0.098,-0.0246 0.17684,-0.0429 0.2593,-0.0575 l 0.0577,-0.0115 c 0.0884,-0.0134 0.17299,-0.0236 0.25834,-0.0315 l 0.0711,-0.006 c 0.0865,-0.006 0.173,-0.01 0.25949,-0.01 l 0.0654,10e-4 c 0.073,0.001 0.14416,0.006 0.21662,0.0115 l 0.0807,0.006 c 0.0807,0.008 0.16146,0.0192 0.24258,0.0304 0.0269,0.004 0.0557,0.008 0.0865,0.0135 l 0.025,0.006 c 0.075,0.0135 0.14993,0.0273 0.22393,0.0438 0.0442,0.01 0.0865,0.0208 0.12878,0.0313 0.0461,0.0115 0.0923,0.0235 0.1384,0.0367 0.0711,0.0206 0.14223,0.0415 0.2122,0.0642 0.0384,0.0135 0.0788,0.0263 0.11725,0.04 0.0634,0.0227 0.12686,0.0469 0.19029,0.0725 0.0461,0.0192 0.098,0.0384 0.14608,0.0607 0.0481,0.02 0.0961,0.0427 0.14609,0.0654 0.72676,0.3437 1.3311,0.82709 1.74818,1.39816 0.57436,0.78491 1.16868,1.77346 0.94666,3.57468 l -0.3452,2.088 c -0.0769,0.55319 -0.10764,1.09093 -0.0903,1.59347 l 0.0192,0.20023 v 0 c 0.0192,0.44194 0.0865,0.88344 0.20125,1.31496 0.24315,0.96176 0.70927,1.82311 1.38586,2.56215 l 0.0231,0.0252 c 0.0192,0.0192 0.0327,0.0363 0.0519,0.054 l 0.0654,0.0711 c 0.0211,0.0225 0.0461,0.0473 0.073,0.0719 l 0.0577,0.0561 c 0.025,0.0252 0.05,0.0498 0.075,0.074 l 0.0961,0.0869 c 0.2518,0.22718 0.51321,0.42785 0.77674,0.59719 0.89764,0.57597 1.93348,0.94762 2.99642,1.07359 l 0.0192,0.002 c 0.0711,0.008 0.14224,0.0154 0.21449,0.0208 l 0.30795,0.0198 c 0.0557,0.002 0.10572,0.004 0.15762,0.006 0.0442,10e-4 0.0826,10e-4 0.12301,10e-4 0.0365,1.7e-4 0.073,2.7e-4 0.10957,-2.5e-4 0.0538,-5e-4 0.10571,-0.004 0.15761,-0.004 l 0.31004,-0.0173 c 0.0711,-0.006 0.14032,-0.0115 0.2099,-0.0194 l 0.0231,-0.002 c 1.06487,-0.11629 2.10398,-0.47802 3.0066,-1.04657 0.26508,-0.16703 0.52822,-0.36528 0.78211,-0.5895 l 0.098,-0.0875 c 0.025,-0.0223 0.0481,-0.0461 0.073,-0.0692 l 0.073,-0.0698 c 0.0211,-0.021 0.0442,-0.0413 0.0653,-0.0636 l 0.13647,-0.14647 c 0.68334,-0.73226 1.15657,-1.59005 1.40818,-2.54689 0.11917,-0.43248 0.19029,-0.87336 0.21374,-1.31513 v 0 -0.20017 c 0.0192,-0.50373 -0.0192,-1.04174 -0.0788,-1.59968 l -0.32388,-2.07739 c -0.20644,-1.81202 0.39616,-2.79518 0.97741,-3.5742 0.82537,-1.10948 2.34328,-1.85023 3.77681,-1.84377 0.3235,0.001 0.632,0.0423 0.91571,0.12186 l 1.28822,0.34827 c 0.53685,0.15089 1.08985,0.22822 1.64573,0.23072 1.6392,0.008 3.23381,-0.64928 4.374,-1.80095 0.32717,-0.32872 0.59127,-0.71767 0.78481,-1.01979 0.63798,-0.998 1.01874,-2.15305 1.10102,-3.33874 0,0 0,-0.11975 0.0192,-0.18029 v -0.0707 c 2e-4,-0.0483 0,-0.0974 0,-0.14647 0,-0.0394 0,-0.075 0,-0.11225 2e-4,-0.0354 0,-0.0723 0,-0.10956 0,-0.0517 0,-0.10072 0,-0.14916 v -0.0755 c 2e-4,-0.0606 -0.0192,-0.1901 -0.0192,-0.1901 -0.0711,-1.17889 -0.44192,-2.33734 -1.07082,-3.34035 -0.19029,-0.30383 -0.45151,-0.69514 -0.77501,-1.02681 -1.12983,-1.16183 -2.71848,-1.83214 -4.35768,-1.83952 -0.55588,-0.004 -1.11023,0.0692 -1.64633,0.21524 l -1.29473,0.33664 c -0.28237,0.0763 -0.59106,0.11514 -0.91475,0.1136 -1.43296,-0.008 -2.94472,-0.76082 -3.76067,-1.87701 -0.57433,-0.78488 -1.1681,-1.77344 -0.94684,-3.57602 l 0.34481,-2.08733 c 0.0769,-0.54912 0.10764,-1.08683 0.0903,-1.5928 l -0.0192,-0.20088 z"
         style="fill:none;stroke:#6ccef5;stroke-width:0.7055555;stroke-linecap:round;stroke-linejoin:round;stroke-miterlimit:10;stroke-dasharray:none;stroke-opacity:1"
         id="path224-4-8-5-3-8-1"
         inkscape:connector-curvature="0" />
      <path
         d="m -568.45548,552.85821 c -0.0192,-0.44196 -0.0865,-0.88278 -0.20125,-1.31496 -0.24296,-0.96041 -0.70927,-1.82176 -1.38586,-2.56148 l -0.1384,-0.15108 c -0.0192,-0.0173 -0.0384,-0.039 -0.0615,-0.0602 l -0.0654,-0.0636 c -0.0269,-0.0259 -0.0538,-0.0521 -0.0788,-0.0773 -0.0231,-0.0212 -0.0423,-0.0396 -0.0653,-0.0582 l -0.0327,-0.0286 c -0.25314,-0.22855 -0.51436,-0.42991 -0.77731,-0.5979 -0.89552,-0.57526 -1.93213,-0.94622 -2.99642,-1.07288 -0.0788,-0.01 -0.15377,-0.0173 -0.23162,-0.0235 l -0.0404,-0.004 c -0.0654,-0.008 -0.12879,-0.01 -0.1926,-0.0135 -0.0269,-10e-4 -0.0519,-0.004 -0.075,-0.004 -0.0557,-0.002 -0.10571,-0.006 -0.15761,-0.006 -0.0404,-10e-4 -0.0711,-0.006 -0.11917,-0.002 -0.0346,10e-4 -0.0769,-2.5e-4 -0.11341,10e-4 -0.0557,-2.3e-4 -0.10572,0.002 -0.15762,0.004 -0.0288,-1.2e-4 -0.0538,0.002 -0.0769,0.004 -0.0654,0.002 -0.12878,0.006 -0.19356,0.0115 l -0.0423,0.004 c -0.0769,0.006 -0.15185,0.0134 -0.22892,0.0215 -1.06756,0.11705 -2.10746,0.47867 -3.00815,1.04587 -0.26699,0.16761 -0.52284,0.36054 -0.78195,0.59088 l -0.0327,0.0277 c -0.0212,0.0192 -0.0423,0.0373 -0.0634,0.0569 -0.0269,0.0252 -0.0519,0.0494 -0.075,0.0732 l -0.0673,0.0631 c -0.0231,0.0223 -0.0461,0.044 -0.0692,0.0671 l -0.0577,0.0631 c -0.0231,0.025 -0.0423,0.0461 -0.0634,0.0671 -0.69832,0.74988 -1.17232,1.60631 -1.42335,2.56385 -0.11917,0.43315 -0.19029,0.87472 -0.21374,1.31512 v 0 l -0.0192,0.20081 c -0.0192,0.50716 0.0192,1.04514 0.0788,1.59901 l 0.32388,2.07671 c 0.2072,1.81201 -0.39616,2.79516 -0.97741,3.57555 -0.4223,0.56593 -1.02931,1.0432 -1.75588,1.379 -0.05,0.0229 -0.10187,0.0457 -0.15377,0.068 l -0.0923,0.0371 c -0.0826,0.0331 -0.1653,0.064 -0.24642,0.0928 l -0.10956,0.0363 c -0.073,0.0234 -0.148,0.0442 -0.22105,0.0644 -0.0423,0.0115 -0.0865,0.0234 -0.13262,0.034 l -0.13071,0.0308 c -0.0769,0.0154 -0.14993,0.03 -0.22508,0.0419 -0.0384,0.008 -0.0769,0.0115 -0.11533,0.0173 -0.0769,0.0115 -0.15761,0.0204 -0.23719,0.0275 l -0.0769,0.006 c -0.0769,0.006 -0.14992,0.008 -0.22412,0.008 l -0.0577,10e-4 c -0.0923,-10e-4 -0.18068,-0.006 -0.26507,-0.0115 l -0.0673,-0.006 c -0.0884,-0.01 -0.17492,-0.0192 -0.25795,-0.0338 l -0.0577,-0.01 c -0.0846,-0.0154 -0.16722,-0.0348 -0.24776,-0.0577 l -1.30379,-0.35038 c -0.5307,-0.14935 -1.07697,-0.22682 -1.62536,-0.23129 v 0 c -1.66034,-0.008 -3.25418,0.64849 -4.39574,1.80014 -0.2568,0.2596 -0.4986,0.57445 -0.78327,1.01981 -0.63142,0.98644 -1.01124,2.12654 -1.09966,3.29993 v 0.0346 c 0,0 -0.0192,0.35943 -0.0192,0.4098 0,0.0375 0,0.18511 0,0.22195 0,0.049 0,0.0967 0,0.1457 l 0.0192,0.30235 c 0.0788,1.17007 0.44806,2.31011 1.06852,3.29947 0.2814,0.44859 0.51975,0.76557 0.77405,1.02681 1.13041,1.16187 2.71848,1.83282 4.35633,1.8402 0.57434,5e-4 1.12176,-0.0719 1.64978,-0.21592 l 1.29533,-0.33662 c 0.098,-0.0248 0.17683,-0.0429 0.25929,-0.0575 l 0.0577,-0.01 c 0.0884,-0.0135 0.17299,-0.0236 0.25833,-0.0315 l 0.0711,-0.006 c 0.0865,-0.006 0.17299,-0.01 0.25968,-0.008 l 0.0673,0.001 c 0.073,0.002 0.14416,0.006 0.21662,0.01 l 0.0807,0.006 c 0.0807,0.008 0.16146,0.0192 0.24238,0.0304 0.0269,0.004 0.0557,0.01 0.0865,0.0135 l 0.0269,0.006 c 0.075,0.0135 0.148,0.0273 0.22393,0.0438 0.0442,0.01 0.0865,0.021 0.12878,0.0313 0.0461,0.0115 0.0923,0.0236 0.1384,0.0367 0.0711,0.0208 0.14223,0.0415 0.2122,0.0642 0.0384,0.0135 0.0788,0.0263 0.11725,0.04 0.0653,0.0227 0.12878,0.0469 0.19221,0.0723 0.0461,0.0192 0.0961,0.0386 0.14609,0.0605 0.048,0.02 0.0961,0.0427 0.14608,0.0654 0.72676,0.34367 1.33089,0.82709 1.74819,1.39816 0.57414,0.78489 1.16866,1.77342 0.94665,3.57466 l -0.34541,2.088 c -0.075,0.55317 -0.10764,1.09093 -0.0903,1.59345 v 0.20023 0 c 0.0192,0.44196 0.0865,0.88344 0.20125,1.31496 0.24296,0.96178 0.70927,1.82311 1.38605,2.56217 l 0.0231,0.0252 c 0.0192,0.0192 0.0327,0.0361 0.05,0.054 l 0.0654,0.0711 c 0.0211,0.0225 0.0461,0.0473 0.073,0.0719 l 0.0577,0.0561 c 0.025,0.0252 0.05,0.0498 0.075,0.0738 l 0.0961,0.0869 c 0.2518,0.22716 0.51321,0.42783 0.77674,0.59719 0.89745,0.57595 1.93348,0.94761 2.99661,1.07357 l 0.0192,0.002 c 0.0711,0.008 0.14223,0.0154 0.21451,0.0208 l 0.30792,0.0198 c 0.0557,0.002 0.10572,0.006 0.15762,0.006 0.0442,10e-4 0.0827,10e-4 0.12302,10e-4 0.0365,1.6e-4 0.073,2.5e-4 0.10956,-2.5e-4 0.0557,-5e-4 0.10571,-0.002 0.15761,-0.004 l 0.31004,-0.0173 c 0.0711,-0.006 0.14032,-0.0115 0.2099,-0.0194 l 0.0231,-0.002 c 1.06409,-0.11648 2.10416,-0.47803 3.00661,-1.04658 0.26506,-0.16703 0.52839,-0.36528 0.78212,-0.58948 l 0.098,-0.0873 c 0.025,-0.0223 0.0481,-0.0461 0.073,-0.0692 l 0.073,-0.0698 c 0.0211,-0.0209 0.0442,-0.0413 0.0653,-0.0636 l 0.13647,-0.14647 c 0.68313,-0.73224 1.15655,-1.58936 1.40816,-2.54685 0.11917,-0.4325 0.19029,-0.87338 0.21355,-1.31517 v 0 -0.20015 c 0.0192,-0.50375 -0.0192,-1.04174 -0.0788,-1.59968 l -0.32388,-2.07739 c -0.2072,-1.812 0.39616,-2.79448 0.97741,-3.57416 0.82517,-1.1095 2.34309,-1.85027 3.77681,-1.84381 0.3235,10e-4 0.632,0.0423 0.91571,0.12186 l 1.28822,0.34825 c 0.53685,0.15089 1.08985,0.22822 1.64573,0.23072 1.6392,0.008 3.23381,-0.64928 4.37402,-1.80093 0.32715,-0.32875 0.59125,-0.71769 0.78481,-1.01979 0.63796,-0.998 1.01874,-2.15307 1.101,-3.33876 0,0 0,-0.11975 0.0192,-0.1803 v -0.0709 c 2e-4,-0.0483 0,-0.0975 0,-0.14628 2e-4,-0.0394 0,-0.0748 0,-0.11167 2e-4,-0.0361 0,-0.0729 0,-0.11033 2e-4,-0.0517 0,-0.10072 0,-0.14916 v -0.0763 c 3.9e-4,-0.06 0,-0.18933 0,-0.18933 -0.0711,-1.17889 -0.4419,-2.33732 -1.07101,-3.34033 -0.19029,-0.30386 -0.45132,-0.69515 -0.77482,-1.02681 -1.12983,-1.16186 -2.71848,-1.83216 -4.35768,-1.83953 -0.55588,-0.004 -1.11003,0.0692 -1.64631,0.21523 l -1.29475,0.33666 c -0.28237,0.0763 -0.59125,0.11513 -0.91475,0.1136 -1.43276,-0.008 -2.94472,-0.76082 -3.76066,-1.87701 -0.57434,-0.78489 -1.16886,-1.77344 -0.94666,-3.57604 l 0.34464,-2.08731 c 0.075,-0.54912 0.10764,-1.08686 0.0903,-1.5928 l -0.0192,-0.20089 z"
         style="fill:none;stroke:#6ccef5;stroke-width:0.7055555;stroke-linecap:round;stroke-linejoin:round;stroke-miterlimit:10;stroke-dasharray:none;stroke-opacity:1"
         id="path228-1-4-7-0-1-4"
         inkscape:connector-curvature="0" />
      <path
         d="m -587.38087,520.5502 c -0.0192,-0.44196 -0.0865,-0.88345 -0.20124,-1.31495 -0.24296,-0.96042 -0.70927,-1.82175 -1.38587,-2.56148 l -0.13839,-0.15109 c -0.0192,-0.0173 -0.0384,-0.039 -0.0615,-0.0602 l -0.0654,-0.0636 c -0.0269,-0.026 -0.0519,-0.0519 -0.0788,-0.0773 -0.0231,-0.0211 -0.0423,-0.0396 -0.0653,-0.0582 l -0.0327,-0.0294 c -0.25314,-0.22787 -0.51455,-0.42921 -0.7775,-0.59721 -0.89534,-0.57526 -1.93214,-0.94623 -2.99643,-1.07288 -0.0788,-0.01 -0.15377,-0.0173 -0.23161,-0.0235 l -0.0404,-0.004 c -0.0654,-0.006 -0.12878,-0.01 -0.19279,-0.0135 -0.0269,-0.002 -0.05,-0.004 -0.075,-0.004 -0.0557,-0.002 -0.10572,-0.004 -0.15762,-0.006 -0.0404,-10e-4 -0.0711,-0.004 -0.11917,-0.002 -0.0346,10e-4 -0.0769,-3.3e-4 -0.11533,4.6e-4 -0.0557,-2.3e-4 -0.10572,0.002 -0.15761,0.004 -0.0288,-1.1e-4 -0.0538,5e-4 -0.0769,0.004 -0.0673,0.004 -0.12878,0.006 -0.19356,0.0115 l -0.0423,0.004 c -0.0769,0.006 -0.15185,0.0135 -0.22912,0.0215 -1.06736,0.11706 -2.10743,0.47869 -3.00795,1.04588 -0.26716,0.16761 -0.52282,0.36053 -0.78193,0.59019 l -0.0327,0.0285 c -0.0212,0.0192 -0.0423,0.0373 -0.0634,0.0569 -0.0269,0.0252 -0.0519,0.0494 -0.0769,0.0732 l -0.0653,0.063 c -0.0231,0.0223 -0.0461,0.044 -0.0692,0.0671 l -0.0577,0.063 c -0.0231,0.025 -0.0442,0.0461 -0.0634,0.0671 -0.69851,0.74989 -1.17251,1.60632 -1.42335,2.56383 -0.11917,0.43317 -0.19029,0.87473 -0.21374,1.31513 v 2e-5 l -0.0192,0.20078 c -0.0192,0.50716 0.0192,1.04515 0.0788,1.59834 l 0.32388,2.07741 c 0.2072,1.812 -0.39596,2.79516 -0.97741,3.57552 -0.4223,0.56594 -1.02931,1.04323 -1.75588,1.37902 -0.05,0.0229 -0.10187,0.0457 -0.15377,0.0681 l -0.0923,0.0371 c -0.0827,0.0329 -0.1653,0.0638 -0.24642,0.0928 l -0.10956,0.0363 c -0.073,0.0229 -0.148,0.0442 -0.22105,0.0644 -0.0442,0.0115 -0.0865,0.0235 -0.13262,0.034 l -0.13071,0.0307 c -0.0769,0.0154 -0.14993,0.03 -0.22508,0.0419 -0.0384,0.008 -0.0769,0.0115 -0.11533,0.0173 -0.0769,0.0115 -0.15761,0.0204 -0.23738,0.0275 l -0.0769,0.006 c -0.0769,0.006 -0.14993,0.008 -0.22412,0.008 l -0.0596,0.001 c -0.0923,-0.001 -0.17876,-0.006 -0.26487,-0.0115 l -0.0673,-0.006 c -0.0884,-0.008 -0.17492,-0.0192 -0.25795,-0.0338 l -0.0596,-0.01 c -0.0846,-0.0154 -0.16723,-0.0348 -0.24776,-0.0577 l -1.3036,-0.35037 c -0.53089,-0.14935 -1.07697,-0.22681 -1.62555,-0.23133 v 0 c -1.66015,-0.008 -3.25399,0.64853 -4.39497,1.80016 -0.25738,0.25963 -0.49937,0.57445 -0.78404,1.01983 -0.63123,0.98642 -1.01105,2.12652 -1.09947,3.29924 v 0.0354 c 0,0 -0.0192,0.35942 -0.0192,0.4091 0,0.0381 0,0.18587 0,0.22266 0,0.049 0,0.0967 0,0.1457 l 0.0192,0.30235 c 0.0788,1.17005 0.44805,2.31011 1.06852,3.29945 0.2814,0.44859 0.51975,0.76559 0.77405,1.02681 1.1306,1.16188 2.71848,1.83284 4.35633,1.8402 0.57434,5.2e-4 1.12176,-0.0719 1.64977,-0.2159 l 1.29533,-0.33664 c 0.098,-0.0256 0.17684,-0.0429 0.2593,-0.0575 l 0.0577,-0.0115 c 0.0884,-0.0135 0.173,-0.0237 0.25834,-0.0315 l 0.0711,-0.006 c 0.0865,-0.006 0.17299,-0.01 0.25968,-0.01 l 0.0654,10e-4 c 0.073,10e-4 0.14416,0.006 0.21644,0.0115 l 0.0807,0.006 c 0.0807,0.008 0.16146,0.0192 0.24257,0.0304 0.0269,0.004 0.0557,0.008 0.0865,0.0135 l 0.0269,0.006 c 0.075,0.0135 0.14992,0.0273 0.22392,0.0438 0.0442,0.01 0.0865,0.0208 0.12879,0.0313 0.0461,0.0115 0.0923,0.0235 0.13839,0.0367 0.0711,0.0208 0.14224,0.0415 0.21221,0.0642 0.0384,0.0135 0.0788,0.0263 0.11725,0.04 0.0653,0.0227 0.12878,0.0469 0.19221,0.0725 0.0461,0.0192 0.0961,0.0384 0.14608,0.0605 0.0481,0.02 0.0961,0.0427 0.14609,0.0654 0.72676,0.3437 1.33089,0.82709 1.74818,1.39816 0.57414,0.78489 1.16866,1.77346 0.94666,3.57468 l -0.34541,2.08798 c -0.075,0.55321 -0.10764,1.09095 -0.0903,1.59347 l 0.0192,0.20023 v 0 c 0.0192,0.44196 0.0865,0.88348 0.20125,1.31496 0.24295,0.96178 0.70925,1.82311 1.38586,2.56217 l 0.0231,0.0252 c 0.0192,0.0192 0.0327,0.0363 0.05,0.054 l 0.0653,0.0711 c 0.0212,0.0225 0.0461,0.0473 0.073,0.0719 l 0.0577,0.0561 c 0.025,0.0252 0.05,0.05 0.075,0.0738 l 0.098,0.0869 c 0.2518,0.22718 0.51321,0.42785 0.77674,0.59719 0.89744,0.57597 1.93348,0.94759 2.99642,1.07357 l 0.0192,0.002 c 0.0711,0.008 0.14224,0.0154 0.21451,0.0208 l 0.30774,0.0198 c 0.0557,0.002 0.10571,0.006 0.15761,0.006 0.0442,10e-4 0.0826,10e-4 0.12302,10e-4 0.0365,1.8e-4 0.073,2.5e-4 0.10956,-2.5e-4 0.0538,-5e-4 0.10572,-0.002 0.15762,-0.004 l 0.31004,-0.0173 c 0.0711,-0.006 0.14031,-0.0115 0.20989,-0.0194 l 0.0231,-0.002 c 1.06467,-0.11649 2.10397,-0.47804 3.00661,-1.04659 0.26506,-0.16703 0.5282,-0.36528 0.78193,-0.5895 l 0.098,-0.0875 c 0.025,-0.0223 0.048,-0.0461 0.073,-0.069 l 0.073,-0.07 c 0.0211,-0.0209 0.0442,-0.0413 0.0653,-0.0636 l 0.13647,-0.14647 c 0.68332,-0.73226 1.15655,-1.59005 1.40816,-2.54689 0.11917,-0.43248 0.19029,-0.87334 0.21374,-1.31513 v 0 -0.20017 c 0.0192,-0.50374 -0.0192,-1.04174 -0.0788,-1.59968 l -0.32388,-2.07747 c -0.20702,-1.81202 0.39634,-2.79517 0.9774,-3.5742 0.82537,-1.10949 2.34328,-1.85025 3.77681,-1.84379 0.3235,10e-4 0.632,0.0423 0.9159,0.12186 l 1.28803,0.3483 c 0.53704,0.15088 1.08985,0.22819 1.64573,0.23069 1.6394,0.008 3.234,-0.6493 4.37422,-1.80095 0.32715,-0.32874 0.59105,-0.71769 0.78461,-1.01977 0.63815,-0.99869 1.01874,-2.15306 1.10101,-3.33876 0,0 0,-0.11974 0.0192,-0.18048 v -0.0709 c 0,-0.0483 0,-0.0974 0,-0.14628 1.9e-4,-0.0394 0,-0.075 0,-0.11225 1.9e-4,-0.0354 0,-0.0723 0,-0.10956 0,-0.0517 0,-0.10072 0,-0.14916 v -0.0763 c 1.9e-4,-0.06 -0.0192,-0.18991 -0.0192,-0.18991 -0.0711,-1.17819 -0.4419,-2.33664 -1.07102,-3.33965 -0.19029,-0.30386 -0.45132,-0.69515 -0.77481,-1.02683 -1.12984,-1.16186 -2.71849,-1.83215 -4.35769,-1.83951 -0.55588,-0.004 -1.11003,0.0692 -1.64631,0.21522 l -1.29475,0.33667 c -0.28236,0.0763 -0.59125,0.11513 -0.91475,0.1136 -1.43276,-0.008 -2.94472,-0.76084 -3.76066,-1.87703 -0.57434,-0.78487 -1.16886,-1.77342 -0.94666,-3.57603 l 0.34464,-2.08732 c 0.0769,-0.5491 0.10764,-1.08684 0.0903,-1.59278 l -0.0192,-0.20089 z"
         style="fill:none;stroke:#6ccef5;stroke-width:0.7055555;stroke-linecap:round;stroke-linejoin:round;stroke-miterlimit:10;stroke-dasharray:none;stroke-opacity:1"
         id="path232-4-3-5-4-3-0"
         inkscape:connector-curvature="0" />
      <path
         d="m -632.45751,591.36175 c -0.0192,-0.44198 -0.0865,-0.88278 -0.20127,-1.31495 -0.24295,-0.96044 -0.70927,-1.82177 -1.38586,-2.5615 l -0.13839,-0.15108 c -0.0192,-0.0173 -0.0385,-0.039 -0.0615,-0.0602 l -0.0653,-0.0636 c -0.0269,-0.0259 -0.0538,-0.0521 -0.0788,-0.0773 -0.0231,-0.0211 -0.0423,-0.0404 -0.0654,-0.0582 l -0.0327,-0.0294 c -0.25315,-0.22787 -0.51437,-0.42921 -0.77751,-0.59723 -0.89514,-0.57524 -1.93213,-0.94621 -2.99623,-1.07286 -0.0788,-0.01 -0.15569,-0.0173 -0.23161,-0.0234 l -0.0404,-0.004 c -0.0653,-0.008 -0.12878,-0.01 -0.1926,-0.0135 -0.0269,-10e-4 -0.0519,-0.004 -0.075,-0.004 -0.0538,-0.002 -0.10572,-0.006 -0.15762,-0.006 -0.0404,-0.002 -0.0711,-0.006 -0.11917,-0.002 -0.0346,10e-4 -0.0769,-2.5e-4 -0.11341,10e-4 -0.0557,-2.5e-4 -0.10571,0.002 -0.15761,0.004 -0.0288,-1.1e-4 -0.0538,0.002 -0.0769,0.004 -0.0653,0.002 -0.12878,0.006 -0.19356,0.0115 l -0.0423,0.004 c -0.0769,0.006 -0.15185,0.0135 -0.22893,0.0215 -1.06756,0.11706 -2.10743,0.47867 -3.00815,1.04586 -0.26698,0.16761 -0.52282,0.36057 -0.78192,0.59023 l -0.0327,0.0285 c -0.0211,0.0192 -0.0423,0.0373 -0.0634,0.0569 -0.0288,0.0252 -0.0519,0.0494 -0.0769,0.0732 l -0.0673,0.063 c -0.0231,0.0223 -0.0461,0.044 -0.0692,0.0671 l -0.0577,0.063 c -0.0231,0.025 -0.0423,0.0461 -0.0634,0.0671 -0.69832,0.74989 -1.1723,1.6063 -1.42335,2.56383 -0.11917,0.43317 -0.19029,0.87473 -0.21353,1.31513 v 2e-5 l -0.0192,0.20078 c -0.0192,0.50716 0.0192,1.04517 0.0788,1.59834 l 0.32388,2.07739 c 0.20721,1.812 -0.39615,2.79517 -0.97741,3.57554 -0.42229,0.56594 -1.0295,1.0432 -1.75587,1.379 -0.05,0.0229 -0.10188,0.0459 -0.15377,0.068 l -0.0923,0.0371 c -0.0826,0.0331 -0.1653,0.064 -0.24641,0.0928 l -0.10764,0.0363 c -0.075,0.0229 -0.14801,0.0442 -0.22182,0.0644 -0.0423,0.0115 -0.0865,0.0235 -0.13263,0.034 l -0.1307,0.0308 c -0.0769,0.0154 -0.14993,0.03 -0.22491,0.0419 -0.0384,0.008 -0.0769,0.0115 -0.11533,0.0173 -0.0769,0.0115 -0.15762,0.0204 -0.23737,0.0275 l -0.0769,0.006 c -0.0769,0.006 -0.14993,0.008 -0.22414,0.008 l -0.0596,0.001 c -0.0923,-0.001 -0.18068,-0.006 -0.26506,-0.0115 l -0.0673,-0.006 c -0.0884,-0.01 -0.17491,-0.0192 -0.25795,-0.0338 l -0.0596,-0.01 c -0.0865,-0.0154 -0.16723,-0.0348 -0.24777,-0.0577 l -1.30359,-0.35037 c -0.5309,-0.14954 -1.07698,-0.22681 -1.62555,-0.23131 v -2e-5 c -1.66016,-0.008 -3.25419,0.64853 -4.39574,1.80018 -0.25661,0.2596 -0.49861,0.57443 -0.78328,1.01979 -0.63123,0.98577 -1.01104,2.12654 -1.09946,3.29926 v 0.0354 c 0,0 -0.0192,0.35943 -0.0192,0.40911 0,0.0381 0,0.18587 0,0.22266 0,0.049 0,0.0967 0,0.1457 l 0.0192,0.30164 c 0.0788,1.17076 0.44805,2.31082 1.06832,3.30016 0.28141,0.44859 0.51994,0.76557 0.77424,1.02681 1.13041,1.16187 2.71848,1.83284 4.35634,1.84022 0.57433,5.2e-4 1.12176,-0.0719 1.64977,-0.21592 l 1.29533,-0.33664 c 0.098,-0.0256 0.17684,-0.0429 0.2591,-0.0575 l 0.0577,-0.0115 c 0.0884,-0.0135 0.17299,-0.0236 0.25833,-0.0315 l 0.0711,-0.006 c 0.0865,-0.006 0.173,-0.01 0.2597,-0.01 l 0.0673,10e-4 c 0.073,10e-4 0.14416,0.006 0.21662,0.0115 l 0.0807,0.006 c 0.0807,0.008 0.16146,0.0192 0.24258,0.0304 0.0269,0.004 0.0557,0.008 0.0865,0.0135 l 0.0269,0.006 c 0.075,0.0135 0.14993,0.0273 0.22393,0.0438 0.0442,0.01 0.0865,0.0208 0.12879,0.0313 0.0461,0.0115 0.0923,0.0234 0.13839,0.0367 0.0711,0.0208 0.14224,0.0415 0.2124,0.0642 0.0384,0.0135 0.0788,0.0263 0.11725,0.04 0.0653,0.0227 0.12878,0.0469 0.19221,0.0725 0.0461,0.0192 0.0961,0.0384 0.14608,0.0607 0.0481,0.02 0.0961,0.0427 0.14609,0.0653 0.72695,0.34372 1.33108,0.82711 1.74818,1.39818 0.57434,0.78489 1.16885,1.77344 0.94666,3.57468 l -0.34522,2.08731 c -0.075,0.55388 -0.10764,1.0916 -0.0903,1.59416 l 0.0192,0.20021 v 0 c 0.0192,0.44196 0.0865,0.88346 0.20125,1.31496 0.24296,0.96178 0.70927,1.82313 1.38586,2.56215 l 0.0231,0.0252 c 0.0192,0.0192 0.0327,0.0363 0.05,0.054 l 0.0653,0.0711 c 0.0212,0.0225 0.0461,0.0473 0.073,0.0719 l 0.0577,0.0561 c 0.025,0.0252 0.05,0.0498 0.075,0.074 l 0.098,0.0871 c 0.2518,0.22718 0.51321,0.42785 0.77674,0.59721 0.89745,0.57595 1.93348,0.9476 2.99642,1.07356 l 0.0192,0.002 c 0.0711,0.008 0.14224,0.0154 0.21451,0.0208 l 0.30793,0.0198 c 0.0557,0.002 0.10572,0.004 0.15762,0.006 0.0442,10e-4 0.0827,10e-4 0.12301,10e-4 0.0365,1.7e-4 0.073,2.7e-4 0.10956,-2.5e-4 0.0557,-5e-4 0.10572,-0.004 0.15762,-0.004 l 0.31004,-0.0173 c 0.0711,-0.006 0.14032,-0.0115 0.2099,-0.0194 l 0.0231,-0.002 c 1.0641,-0.11648 2.10398,-0.47803 3.00661,-1.04657 0.26507,-0.16703 0.52821,-0.3653 0.78212,-0.58952 l 0.098,-0.0874 c 0.025,-0.0223 0.0481,-0.0461 0.073,-0.0692 l 0.073,-0.0698 c 0.0212,-0.021 0.0442,-0.0413 0.0654,-0.0636 l 0.13647,-0.14646 c 0.68332,-0.73226 1.15674,-1.59005 1.40835,-2.5469 0.11917,-0.43248 0.19029,-0.87336 0.21374,-1.31512 v 0 l 0.0192,-0.20012 c 0.0192,-0.50375 -0.0192,-1.04174 -0.0788,-1.5997 l -0.32388,-2.07739 c -0.20721,-1.812 0.39615,-2.79517 0.97663,-3.5742 0.82595,-1.10949 2.34386,-1.85023 3.77739,-1.84377 0.32369,10e-4 0.63219,0.0423 0.9159,0.12186 l 1.28822,0.34824 c 0.53685,0.15089 1.08985,0.22823 1.64574,0.23075 1.6392,0.008 3.2338,-0.64932 4.37402,-1.80093 0.32714,-0.32878 0.59125,-0.71771 0.7848,-1.01983 0.63796,-0.99865 1.01855,-2.15302 1.10101,-3.33941 0,0 0,-0.11917 0.0192,-0.17972 l 1.9e-4,-0.0707 c 3.8e-4,-0.0484 0,-0.0974 0,-0.14628 1.9e-4,-0.0394 3.8e-4,-0.0748 0,-0.11225 1.9e-4,-0.0354 0,-0.0723 0,-0.10956 3.8e-4,-0.0517 0,-0.10072 0,-0.14916 v -0.0763 c 3.8e-4,-0.06 -0.0192,-0.18991 -0.0192,-0.18991 -0.0711,-1.17819 -0.44192,-2.33661 -1.07102,-3.33964 -0.19029,-0.30385 -0.45132,-0.69514 -0.77481,-1.02682 -1.12984,-1.16184 -2.71848,-1.83215 -4.35768,-1.83951 -0.55608,-0.004 -1.11023,0.0692 -1.64632,0.2152 l -1.29475,0.33669 c -0.28255,0.0763 -0.59125,0.11513 -0.91494,0.1136 -1.43276,-0.008 -2.94452,-0.76085 -3.76124,-1.87703 -0.57357,-0.78487 -1.16808,-1.77342 -0.94608,-3.57601 l 0.34464,-2.08732 c 0.075,-0.54914 0.10764,-1.08688 0.0903,-1.59282 l -0.0192,-0.20089 z"
         style="fill:none;stroke:#6ccef5;stroke-width:0.7055555;stroke-linecap:round;stroke-linejoin:round;stroke-miterlimit:10;stroke-dasharray:none;stroke-opacity:1"
         id="path216-1-5-83-8-1-5-7"
         inkscape:connector-curvature="0" />
      <path
         d="m -651.49324,558.38826 c -0.0192,-0.44198 -0.0865,-0.88278 -0.20106,-1.31497 -0.24296,-0.96042 -0.70927,-1.82175 -1.38586,-2.56148 l -0.13839,-0.15108 c -0.0192,-0.0173 -0.0384,-0.039 -0.0615,-0.0602 l -0.0654,-0.0636 c -0.0269,-0.0259 -0.0519,-0.0521 -0.0788,-0.0773 -0.0231,-0.0211 -0.0423,-0.0396 -0.0654,-0.0582 l -0.0327,-0.0286 c -0.25334,-0.22854 -0.51456,-0.42989 -0.77751,-0.59788 -0.89533,-0.57526 -1.93213,-0.94623 -2.99642,-1.07288 -0.0788,-0.01 -0.15377,-0.0173 -0.23162,-0.0234 l -0.0404,-0.004 c -0.0654,-0.008 -0.12879,-0.01 -0.1926,-0.0135 -0.0269,-10e-4 -0.05,-0.004 -0.075,-0.004 -0.0557,-0.002 -0.10572,-0.006 -0.15762,-0.006 -0.0404,-10e-4 -0.0711,-0.006 -0.11917,-0.002 -0.0346,0.001 -0.0769,-2.4e-4 -0.11533,0.001 -0.0538,-2.5e-4 -0.10572,0.002 -0.15762,0.004 -0.0288,-1.4e-4 -0.0519,0.002 -0.0769,0.004 -0.0653,0.002 -0.12879,0.006 -0.19356,0.0115 l -0.0423,0.004 c -0.0769,0.006 -0.15185,0.0135 -0.22893,0.0215 -1.06755,0.11706 -2.10762,0.47871 -3.00814,1.04589 -0.26699,0.16761 -0.52282,0.36054 -0.78193,0.59087 l -0.0327,0.0277 c -0.0211,0.0192 -0.0423,0.0373 -0.0634,0.0569 -0.0269,0.0252 -0.0519,0.0494 -0.075,0.0732 l -0.0673,0.063 c -0.0231,0.0223 -0.0461,0.044 -0.0692,0.0671 l -0.0577,0.063 c -0.0231,0.0252 -0.0423,0.0461 -0.0634,0.0671 -0.6985,0.74989 -1.17229,1.60631 -1.42334,2.56383 -0.11917,0.43317 -0.19029,0.87473 -0.21372,1.31514 v 0 l -0.0192,0.20081 c -0.0192,0.50716 0,1.04514 0.0788,1.59901 l 0.32388,2.0767 c 0.20721,1.812 -0.39615,2.79517 -0.9774,3.57554 -0.4223,0.56594 -1.02931,1.04322 -1.75588,1.37902 -0.05,0.0229 -0.10187,0.0459 -0.15377,0.068 l -0.0923,0.0371 c -0.0827,0.0331 -0.16531,0.064 -0.24661,0.0928 l -0.10956,0.0361 c -0.073,0.0235 -0.14801,0.0442 -0.22124,0.0644 -0.0423,0.0115 -0.0865,0.0234 -0.13263,0.034 l -0.13071,0.0308 c -0.0769,0.0154 -0.14992,0.03 -0.22508,0.0419 -0.0384,0.008 -0.0769,0.0115 -0.11533,0.0173 -0.0769,0.0115 -0.15761,0.0204 -0.2374,0.0275 l -0.0769,0.006 c -0.0769,0.006 -0.14992,0.008 -0.2241,0.008 l -0.0596,10e-4 c -0.0923,-10e-4 -0.18069,-0.006 -0.26487,-0.0115 l -0.0673,-0.006 c -0.0884,-0.01 -0.17491,-0.0192 -0.25795,-0.0338 l -0.0596,-0.01 c -0.0846,-0.0154 -0.16722,-0.0348 -0.24757,-0.0577 l -1.30379,-0.35038 c -0.5307,-0.14955 -1.07697,-0.2268 -1.62536,-0.23131 v 0 c -1.66034,-0.008 -3.25418,0.64851 -4.39593,1.80016 -0.2566,0.2596 -0.49841,0.57445 -0.78327,1.01981 -0.63123,0.98644 -1.01105,2.12654 -1.09946,3.29993 v 0.0346 c 0,0 -0.0192,0.35944 -0.0192,0.4098 0,0.0375 0,0.1853 0,0.22197 0,0.049 0,0.0967 0,0.1457 l 0.0192,0.30233 c 0.0788,1.17009 0.44805,2.31013 1.06851,3.29945 0.2814,0.44861 0.51975,0.76559 0.77405,1.02683 1.1306,1.16185 2.71848,1.83284 4.35633,1.8402 0.57434,5.2e-4 1.12177,-0.0719 1.64978,-0.21592 l 1.29533,-0.33662 c 0.098,-0.0248 0.17683,-0.0429 0.25929,-0.0575 l 0.0577,-0.0115 c 0.0884,-0.0135 0.17299,-0.0236 0.25833,-0.0315 l 0.0711,-0.006 c 0.0865,-0.006 0.17299,-0.01 0.25968,-0.008 l 0.0673,0.001 c 0.073,0.002 0.14416,0.006 0.21662,0.01 l 0.0807,0.006 c 0.0807,0.008 0.16146,0.0192 0.24238,0.0304 0.0269,0.004 0.0557,0.01 0.0865,0.0135 l 0.0269,0.006 c 0.075,0.0135 0.14993,0.0273 0.22393,0.0438 0.0442,0.01 0.0865,0.0209 0.12878,0.0313 0.0461,0.0115 0.0923,0.0236 0.1384,0.0367 0.0711,0.0208 0.14224,0.0415 0.2122,0.0642 0.0384,0.0135 0.0788,0.0263 0.11725,0.04 0.0653,0.0227 0.12879,0.0469 0.19222,0.0723 0.0461,0.0192 0.0961,0.0386 0.14608,0.0605 0.048,0.02 0.0961,0.0427 0.14608,0.0654 0.72676,0.3437 1.33089,0.8271 1.74819,1.39817 0.57414,0.78488 1.16866,1.77344 0.94665,3.57466 l -0.34541,2.088 c -0.075,0.55321 -0.10764,1.09095 -0.0903,1.59347 l 0.0192,0.20023 v 0 c 0.0192,0.44196 0.0865,0.88345 0.20106,1.31494 0.24296,0.96178 0.70927,1.82313 1.38605,2.56219 l 0.0231,0.0252 c 0.0192,0.0192 0.0327,0.0361 0.05,0.054 l 0.0654,0.0711 c 0.0211,0.0225 0.0461,0.0473 0.073,0.0719 l 0.0577,0.0561 c 0.025,0.0252 0.05,0.0498 0.075,0.0738 l 0.0961,0.0869 c 0.2518,0.22718 0.51341,0.42783 0.77674,0.59721 0.89745,0.57593 1.93348,0.9476 2.99661,1.07358 l 0.0192,0.002 c 0.0711,0.008 0.14223,0.0154 0.2147,0.0208 l 0.30773,0.0198 c 0.0557,0.002 0.10572,0.006 0.15762,0.006 0.0442,10e-4 0.0826,10e-4 0.12302,10e-4 0.0365,1.5e-4 0.073,2.3e-4 0.10956,-2.7e-4 0.0557,-5e-4 0.10571,-0.002 0.15761,-0.004 l 0.31004,-0.0173 c 0.0711,-0.006 0.14032,-0.0115 0.21009,-0.0194 l 0.0231,-0.002 c 1.0641,-0.11629 2.10417,-0.47801 3.00661,-1.04656 0.26525,-0.16704 0.5284,-0.36529 0.78212,-0.58951 l 0.098,-0.0873 c 0.025,-0.0223 0.048,-0.0461 0.073,-0.0692 l 0.073,-0.0698 c 0.0211,-0.0209 0.0442,-0.0413 0.0653,-0.0636 l 0.13647,-0.14647 c 0.68332,-0.73226 1.15656,-1.58938 1.40816,-2.54687 0.11918,-0.4325 0.1903,-0.87337 0.21375,-1.31513 v 0 -0.20019 c 0.0192,-0.50372 -0.0192,-1.04172 -0.0788,-1.59968 l -0.32388,-2.07753 c -0.20721,-1.812 0.39615,-2.7945 0.9774,-3.57418 0.82537,-1.10949 2.34309,-1.85025 3.77682,-1.84381 0.32349,10e-4 0.632,0.0423 0.9157,0.12186 l 1.28822,0.34826 c 0.53685,0.15089 1.08985,0.22821 1.64574,0.23071 1.6392,0.008 3.2338,-0.64928 4.37402,-1.80093 0.32714,-0.32874 0.59125,-0.71769 0.78481,-1.01979 0.63795,-0.99797 1.01873,-2.15303 1.101,-3.33872 0,0 0,-0.11975 0.0192,-0.18029 l 3.8e-4,-0.0709 c 2e-4,-0.0482 0,-0.0974 0,-0.14627 2e-4,-0.0394 2e-4,-0.0748 0,-0.11168 2e-4,-0.0361 2e-4,-0.0729 0,-0.11033 2e-4,-0.0517 0,-0.10072 0,-0.14916 l 2e-4,-0.0761 c 1.9e-4,-0.06 0,-0.18933 0,-0.18933 -0.0711,-1.17888 -0.4419,-2.33732 -1.07102,-3.34035 -0.19029,-0.30383 -0.45132,-0.69514 -0.77481,-1.02679 -1.12984,-1.16187 -2.71849,-1.83216 -4.35769,-1.83954 -0.55607,-0.004 -1.11022,0.0692 -1.64631,0.21524 l -1.29475,0.33664 c -0.28236,0.0763 -0.59125,0.11514 -0.91475,0.1136 -1.43295,-0.008 -2.94472,-0.76082 -3.76066,-1.877 -0.57434,-0.78489 -1.16886,-1.77345 -0.94685,-3.57603 l 0.34464,-2.08733 c 0.075,-0.54911 0.10764,-1.08685 0.0903,-1.5928 l -0.0192,-0.20088 z"
         style="fill:none;stroke:#6ccef5;stroke-width:0.7055555;stroke-linecap:round;stroke-linejoin:round;stroke-miterlimit:10;stroke-dasharray:none;stroke-opacity:1"
         id="path228-1-9-0-2-4-8-7"
         inkscape:connector-curvature="0" />
    </g>
  </g>
</svg>
