<?xml version="1.0" encoding="UTF-8" standalone="no"?>
<!-- Created with Inkscape (http://www.inkscape.org/) -->

<svg
   xmlns:dc="http://purl.org/dc/elements/1.1/"
   xmlns:cc="http://creativecommons.org/ns#"
   xmlns:rdf="http://www.w3.org/1999/02/22-rdf-syntax-ns#"
   xmlns:svg="http://www.w3.org/2000/svg"
   xmlns="http://www.w3.org/2000/svg"
   xmlns:sodipodi="http://sodipodi.sourceforge.net/DTD/sodipodi-0.dtd"
   xmlns:inkscape="http://www.inkscape.org/namespaces/inkscape"
   width="133.61482mm"
   height="203.2mm"
   viewBox="0 0 133.61482 203.2"
   version="1.1"
   id="svg5388"
   inkscape:version="0.92.1 r15371"
   sodipodi:docname="login_mobile.svg">
  <defs
     id="defs5382">
    <clipPath
       clipPathUnits="userSpaceOnUse"
       id="clipPath5328">
      <rect
         inkscape:export-ydpi="90"
         inkscape:export-xdpi="90"
         ry="0.00019974291"
         rx="7.1851573e-006"
         y="1003.3115"
         x="402.23813"
         height="133.61458"
         width="203.2"
         id="rect5330"
         style="opacity:1;vector-effect:none;fill:none;fill-opacity:1;stroke:none;stroke-width:0.49999997;stroke-linecap:butt;stroke-linejoin:miter;stroke-miterlimit:4;stroke-dasharray:0.49999997, 1.00000003;stroke-dashoffset:0;stroke-opacity:1"
         inkscape:export-filename="F:\SESI\Layout\rst\Novas telas\tlogin02.png"
         transform="rotate(90)" />
    </clipPath>
    <clipPath
       clipPathUnits="userSpaceOnUse"
       id="clipPath5336">
      <rect
         inkscape:export-ydpi="90"
         inkscape:export-xdpi="90"
         ry="0.00019974291"
         rx="7.1851573e-006"
         y="1003.3115"
         x="402.23813"
         height="133.61458"
         width="203.2"
         id="rect5338"
         style="opacity:1;vector-effect:none;fill:none;fill-opacity:1;stroke:none;stroke-width:0.49999997;stroke-linecap:butt;stroke-linejoin:miter;stroke-miterlimit:4;stroke-dasharray:0.49999997, 1.00000003;stroke-dashoffset:0;stroke-opacity:1"
         inkscape:export-filename="F:\SESI\Layout\rst\Novas telas\tlogin02.png"
         transform="rotate(90)" />
    </clipPath>
    <clipPath
       clipPathUnits="userSpaceOnUse"
       id="clipPath5340">
      <rect
         inkscape:export-ydpi="90"
         inkscape:export-xdpi="90"
         ry="0.00019974291"
         rx="7.1851573e-006"
         y="1003.3115"
         x="402.23813"
         height="133.61458"
         width="203.2"
         id="rect5342"
         style="opacity:1;vector-effect:none;fill:none;fill-opacity:1;stroke:none;stroke-width:0.49999997;stroke-linecap:butt;stroke-linejoin:miter;stroke-miterlimit:4;stroke-dasharray:0.49999997, 1.00000003;stroke-dashoffset:0;stroke-opacity:1"
         inkscape:export-filename="F:\SESI\Layout\rst\Novas telas\tlogin02.png"
         transform="rotate(90)" />
    </clipPath>
  </defs>
  <sodipodi:namedview
     id="base"
     pagecolor="#ffffff"
     bordercolor="#666666"
     borderopacity="1.0"
     inkscape:pageopacity="0.0"
     inkscape:pageshadow="2"
     inkscape:zoom="0.35"
     inkscape:cx="1645.3576"
     inkscape:cy="1004"
     inkscape:document-units="mm"
     inkscape:current-layer="layer1"
     showgrid="false"
     fit-margin-top="0"
     fit-margin-left="0"
     fit-margin-right="0"
     fit-margin-bottom="0"
     inkscape:window-width="1920"
     inkscape:window-height="1018"
     inkscape:window-x="-8"
     inkscape:window-y="-8"
     inkscape:window-maximized="1" />
  <metadata
     id="metadata5385">
    <rdf:RDF>
      <cc:Work
         rdf:about="">
        <dc:format>image/svg+xml</dc:format>
        <dc:type
           rdf:resource="http://purl.org/dc/dcmitype/StillImage" />
        <dc:title></dc:title>
      </cc:Work>
    </rdf:RDF>
  </metadata>
  <g
     inkscape:label="Layer 1"
     inkscape:groupmode="layer"
     id="layer1"
     transform="translate(512.81932,-211.27501)">
    <rect
       inkscape:export-ydpi="90"
       inkscape:export-xdpi="90"
       ry="0.00019974291"
       rx="7.1851573e-006"
       y="379.2045"
       x="211.27501"
       height="133.61458"
       width="203.2"
       id="rect7689-6-8-7-1-7-9"
       style="opacity:1;vector-effect:none;fill:#8d216c;fill-opacity:1;stroke:none;stroke-width:0.5;stroke-linecap:butt;stroke-linejoin:miter;stroke-miterlimit:4;stroke-dasharray:0.49999998, 1.00000004;stroke-dashoffset:0;stroke-opacity:1"
       inkscape:export-filename="F:\SESI\Layout\rst\Novas telas\tlogin02.png"
       transform="rotate(90)" />
    <g
       id="g206-5-6-6-2"
       transform="matrix(0.35584183,0,0,-0.35583389,-497.21026,253.49057)"
       style="fill:#6ccef5;fill-opacity:1;stroke-width:0.9914003">
      <path
         d="M 0,0 C 0.031,-0.649 0.134,-1.296 0.304,-1.93 0.667,-3.339 1.357,-4.601 2.355,-5.683 L 2.558,-5.904 C 2.584,-5.93 2.616,-5.961 2.649,-5.992 L 2.745,-6.085 C 2.784,-6.123 2.822,-6.161 2.862,-6.198 2.895,-6.229 2.926,-6.256 2.958,-6.283 L 3.005,-6.326 C 3.378,-6.659 3.763,-6.953 4.15,-7.198 5.468,-8.037 6.992,-8.575 8.555,-8.754 8.67,-8.767 8.782,-8.778 8.895,-8.787 l 0.059,-0.004 c 0.096,-0.009 0.19,-0.014 0.283,-0.018 0.039,-0.002 0.075,-0.005 0.111,-0.005 0.08,-0.003 0.155,-0.006 0.23,-0.006 0.06,-0.002 0.105,-0.006 0.174,-0.002 0.052,0.002 0.112,0 0.168,0.002 0.08,0 0.155,0.003 0.23,0.006 0.041,0 0.077,0.003 0.113,0.005 0.097,0.004 0.19,0.009 0.284,0.018 l 0.062,0.004 c 0.112,0.009 0.224,0.02 0.336,0.033 1.566,0.179 3.09,0.717 4.408,1.556 0.391,0.248 0.765,0.533 1.144,0.872 l 0.048,0.042 c 0.031,0.028 0.063,0.055 0.093,0.084 0.041,0.037 0.077,0.073 0.112,0.108 l 0.097,0.093 c 0.035,0.033 0.069,0.065 0.102,0.099 l 0.085,0.093 c 0.035,0.037 0.063,0.068 0.092,0.099 1.02,1.106 1.71,2.367 2.072,3.775 0.172,0.637 0.274,1.286 0.305,1.933 L 19.502,0 19.51,0.295 C 19.535,1.04 19.493,1.83 19.384,2.643 l -0.489,3.048 c -0.316,2.66 0.563,4.108 1.411,5.258 0.616,0.834 1.504,1.539 2.568,2.037 0.073,0.034 0.149,0.068 0.224,0.101 l 0.135,0.055 c 0.121,0.049 0.241,0.095 0.361,0.138 l 0.159,0.054 c 0.109,0.034 0.217,0.066 0.325,0.096 0.064,0.018 0.128,0.035 0.195,0.051 l 0.191,0.046 c 0.113,0.024 0.221,0.045 0.33,0.063 0.056,0.01 0.113,0.017 0.169,0.025 0.113,0.017 0.231,0.031 0.348,0.042 l 0.114,0.008 c 0.112,0.008 0.22,0.011 0.329,0.013 l 0.085,0.002 c 0.138,-10e-4 0.265,-0.006 0.39,-0.015 l 0.099,-0.007 c 0.131,-0.012 0.256,-0.027 0.379,-0.048 l 0.086,-0.015 c 0.125,-0.023 0.246,-0.05 0.364,-0.083 l 1.916,-0.506 c 0.78,-0.216 1.582,-0.326 2.387,-0.329 h 10e-4 c 2.437,0 4.772,0.974 6.44,2.673 0.375,0.383 0.728,0.847 1.143,1.503 0.92,1.453 1.47,3.13 1.592,4.853 l 10e-4,0.052 c 0,0 0.019,0.528 0.02,0.601 0.001,0.056 0.001,0.273 0,0.327 -10e-4,0.072 -0.003,0.142 -0.006,0.214 l -0.016,0.443 c -0.124,1.719 -0.673,3.391 -1.59,4.84 -0.416,0.657 -0.768,1.121 -1.143,1.503 -1.667,1.699 -4.002,2.674 -6.406,2.674 -0.843,-0.003 -1.646,-0.113 -2.42,-0.328 l -1.899,-0.503 c -0.143,-0.037 -0.26,-0.064 -0.38,-0.086 l -0.085,-0.016 c -0.129,-0.021 -0.254,-0.036 -0.379,-0.048 l -0.104,-0.008 c -0.126,-0.009 -0.253,-0.015 -0.381,-0.015 l -0.097,0.002 c -0.107,0.002 -0.212,0.007 -0.318,0.014 l -0.118,0.007 c -0.119,0.011 -0.238,0.026 -0.356,0.043 -0.039,0.005 -0.083,0.012 -0.126,0.018 l -0.039,0.007 c -0.11,0.019 -0.219,0.039 -0.329,0.063 -0.064,0.014 -0.127,0.03 -0.189,0.045 -0.069,0.017 -0.137,0.034 -0.203,0.053 -0.105,0.03 -0.209,0.06 -0.312,0.093 -0.058,0.019 -0.115,0.038 -0.172,0.058 -0.094,0.033 -0.187,0.068 -0.28,0.105 -0.069,0.027 -0.142,0.056 -0.214,0.088 -0.071,0.029 -0.142,0.062 -0.214,0.095 -1.069,0.5 -1.959,1.206 -2.575,2.042 -0.848,1.149 -1.727,2.597 -1.413,5.244 l 0.493,3.069 c 0.108,0.813 0.15,1.603 0.124,2.341 l -0.011,0.294 h 0.004 c -0.031,0.649 -0.133,1.297 -0.304,1.93 -0.363,1.411 -1.053,2.673 -2.051,3.754 l -0.034,0.037 c -0.024,0.027 -0.049,0.053 -0.074,0.079 l -0.095,0.104 c -0.031,0.033 -0.069,0.069 -0.108,0.105 l -0.085,0.082 c -0.037,0.037 -0.073,0.073 -0.111,0.108 l -0.143,0.127 c -0.371,0.332 -0.756,0.625 -1.144,0.872 -1.321,0.84 -2.844,1.379 -4.405,1.557 l -0.026,0.003 c -0.105,0.011 -0.209,0.022 -0.315,0.029 l -0.452,0.027 c -0.082,0.003 -0.156,0.006 -0.231,0.007 -0.064,0.001 -0.12,0.001 -0.18,0.001 -0.055,0 -0.108,0 -0.162,-0.001 -0.08,-10e-4 -0.155,-0.004 -0.23,-0.006 L 8.898,53.825 C 8.794,53.817 8.692,53.807 8.59,53.795 L 8.556,53.792 C 6.994,53.614 5.471,53.076 4.15,52.235 3.762,51.988 3.377,51.695 3.006,51.364 L 2.862,51.235 C 2.826,51.202 2.791,51.167 2.756,51.133 L 2.65,51.03 C 2.618,50.999 2.585,50.969 2.554,50.936 L 2.355,50.72 C 1.357,49.64 0.667,48.377 0.305,46.97 0.133,46.334 0.031,45.686 0,45.037 h 0.001 l -0.007,-0.294 c -0.026,-0.74 0.016,-1.53 0.125,-2.349 l 0.489,-3.049 c 0.316,-2.66 -0.563,-4.108 -1.411,-5.256 -1.204,-1.635 -3.427,-2.733 -5.531,-2.733 -0.475,0 -0.928,0.058 -1.345,0.173 l -1.893,0.503 c -0.789,0.218 -1.601,0.328 -2.417,0.328 -2.406,0 -4.742,-0.975 -6.408,-2.674 -0.478,-0.485 -0.863,-1.058 -1.145,-1.503 -0.93,-1.47 -1.481,-3.169 -1.594,-4.911 0,0 -0.004,-0.176 -0.01,-0.265 l -0.004,-0.104 c -0.003,-0.071 -0.005,-0.143 -0.006,-0.215 -0.001,-0.058 -0.001,-0.11 -0.001,-0.165 0,-0.052 0,-0.106 0.001,-0.16 10e-4,-0.077 0.003,-0.149 0.006,-0.22 l 0.004,-0.111 c 0.006,-0.089 0.01,-0.28 0.01,-0.28 0.112,-1.73 0.664,-3.429 1.594,-4.898 0.282,-0.445 0.667,-1.018 1.144,-1.503 1.666,-1.699 4.002,-2.673 6.408,-2.673 0.816,0 1.629,0.109 2.415,0.327 l 1.898,0.503 c 0.414,0.114 0.867,0.173 1.342,0.173 2.103,0 4.327,-1.098 5.532,-2.732 C 0.045,9.8 0.924,8.352 0.61,5.703 L 0.118,2.635 C 0.01,1.828 -0.032,1.038 -0.006,0.295 L 0.004,0 Z"
         style="fill:#6ccef5;fill-opacity:1;fill-rule:nonzero;stroke:none;stroke-width:0.9914003"
         id="path208-9-3-9-8"
         inkscape:connector-curvature="0" />
    </g>
    <path
       inkscape:connector-curvature="0"
       id="path212-7-4-3-6"
       style="fill:none;stroke:#6ccef5;stroke-width:0.7055555;stroke-linecap:round;stroke-linejoin:round;stroke-miterlimit:10;stroke-dasharray:none;stroke-opacity:1"
       d="m -1147.1904,437.50363 c 0.011,0.23094 0.048,0.46116 0.1082,0.68676 0.1291,0.50137 0.3747,0.95043 0.7298,1.33545 l 0.072,0.0786 c 0.01,0.009 0.021,0.0203 0.032,0.0313 l 0.034,0.0331 c 0.014,0.0135 0.028,0.027 0.041,0.0402 0.012,0.0111 0.023,0.0206 0.034,0.0303 l 0.017,0.0149 c 0.1327,0.11886 0.2697,0.22347 0.4074,0.31065 0.469,0.29855 1.0113,0.48998 1.5675,0.55368 0.041,0.005 0.081,0.009 0.121,0.0117 l 0.021,0.002 c 0.034,0.003 0.068,0.005 0.1006,0.006 0.014,5.1e-4 0.027,0.002 0.039,0.002 0.029,0.001 0.055,0.002 0.082,0.002 0.022,5.1e-4 0.037,0.002 0.062,5.1e-4 0.018,-5.1e-4 0.04,0 0.06,-5.1e-4 0.029,0 0.055,-10e-4 0.082,-0.002 0.015,0 0.028,-10e-4 0.04,-0.002 0.034,-0.002 0.068,-0.003 0.101,-0.006 l 0.022,-0.002 c 0.04,-0.003 0.08,-0.007 0.1196,-0.0117 0.5573,-0.0637 1.0996,-0.25513 1.5686,-0.55368 0.1391,-0.0882 0.2722,-0.18966 0.407,-0.31065 l 0.017,-0.0146 c 0.011,-0.01 0.023,-0.0196 0.033,-0.0299 0.015,-0.0132 0.027,-0.026 0.04,-0.0385 l 0.035,-0.0331 c 0.012,-0.0117 0.024,-0.0231 0.036,-0.0352 l 0.03,-0.0331 c 0.012,-0.0132 0.023,-0.0242 0.033,-0.0352 0.363,-0.39356 0.6085,-0.84226 0.7373,-1.34327 0.061,-0.22667 0.098,-0.45761 0.1085,-0.68783 h -4e-4 l 0.01,-0.10497 c 0.01,-0.26509 -0.01,-0.54621 -0.045,-0.8355 l -0.174,-1.08457 c -0.1124,-0.94652 0.2004,-1.46178 0.5021,-1.87098 0.2193,-0.29677 0.5352,-0.54763 0.9138,-0.72483 0.026,-0.0124 0.053,-0.0242 0.08,-0.036 l 0.048,-0.0195 c 0.043,-0.0175 0.086,-0.0338 0.1285,-0.0491 l 0.057,-0.0192 c 0.039,-0.0121 0.077,-0.0235 0.1157,-0.0342 0.023,-0.006 0.045,-0.0124 0.069,-0.0181 l 0.068,-0.0164 c 0.04,-0.009 0.079,-0.016 0.1174,-0.0224 0.02,-0.004 0.04,-0.006 0.06,-0.009 0.04,-0.006 0.082,-0.011 0.1238,-0.015 l 0.04,-0.003 c 0.04,-0.003 0.078,-0.004 0.1171,-0.005 l 0.03,-5.1e-4 c 0.049,4.1e-4 0.094,0.002 0.1388,0.005 l 0.035,0.003 c 0.046,0.004 0.091,0.01 0.1348,0.0171 l 0.031,0.005 c 0.045,0.008 0.088,0.0178 0.1295,0.0295 l 0.6818,0.18005 c 0.2776,0.0769 0.5629,0.116 0.8494,0.11707 h 4e-4 c 0.8672,0 1.6981,-0.34658 2.2913,-0.95115 0.1338,-0.13628 0.2594,-0.30139 0.4071,-0.53481 0.3273,-0.51703 0.523,-1.11377 0.5664,-1.72687 l 4e-4,-0.0185 c 0,0 0.01,-0.18789 0.01,-0.21386 3e-4,-0.0199 3e-4,-0.0971 0,-0.11636 -4e-4,-0.0256 0,-0.0505 0,-0.0761 l -0.01,-0.15799 c -0.044,-0.61132 -0.2395,-1.20628 -0.5658,-1.72188 -0.148,-0.23378 -0.2733,-0.39889 -0.4067,-0.53482 -0.5932,-0.60456 -1.4241,-0.9515 -2.2796,-0.9515 -0.2999,0.001 -0.5857,0.0402 -0.8611,0.11672 l -0.6757,0.17898 c -0.051,0.0135 -0.093,0.0228 -0.1353,0.0306 l -0.03,0.006 c -0.046,0.007 -0.09,0.0128 -0.1349,0.0171 l -0.037,0.003 c -0.045,0.003 -0.09,0.005 -0.1355,0.005 l -0.035,-5.1e-4 c -0.038,-5.1e-4 -0.076,-0.003 -0.1132,-0.005 l -0.042,-0.003 c -0.043,-0.004 -0.085,-0.009 -0.1267,-0.0153 -0.014,-0.002 -0.03,-0.004 -0.045,-0.006 l -0.013,-0.003 c -0.039,-0.007 -0.078,-0.0139 -0.1171,-0.0224 -0.023,-0.005 -0.045,-0.0106 -0.067,-0.016 -0.024,-0.006 -0.048,-0.0121 -0.072,-0.0188 -0.037,-0.0106 -0.074,-0.0213 -0.111,-0.0331 -0.02,-0.007 -0.041,-0.0135 -0.061,-0.0206 -0.034,-0.0117 -0.067,-0.0242 -0.1001,-0.0374 -0.024,-0.01 -0.051,-0.0199 -0.076,-0.0313 -0.025,-0.0103 -0.051,-0.0221 -0.076,-0.0338 -0.3804,-0.17792 -0.6971,-0.42914 -0.9164,-0.72662 -0.3017,-0.40885 -0.6145,-0.9241 -0.5028,-1.86599 l 0.1755,-1.09205 c 0.038,-0.28929 0.053,-0.57041 0.044,-0.83301 l -0.01,-0.10461 v 0 c -0.011,-0.23094 -0.047,-0.46152 -0.1081,-0.68676 -0.1292,-0.50209 -0.3747,-0.95115 -0.7299,-1.3358 l -0.012,-0.0132 c -0.01,-0.01 -0.017,-0.0188 -0.027,-0.0281 l -0.034,-0.037 c -0.011,-0.0117 -0.024,-0.0246 -0.038,-0.0374 l -0.03,-0.0292 c -0.013,-0.0132 -0.026,-0.026 -0.039,-0.0385 l -0.051,-0.0452 c -0.132,-0.11813 -0.269,-0.22239 -0.4071,-0.31028 -0.4701,-0.2989 -1.012,-0.4907 -1.5675,-0.55404 l -0.01,-10e-4 c -0.037,-0.004 -0.074,-0.008 -0.1121,-0.0103 l -0.1608,-0.01 c -0.029,-10e-4 -0.055,-0.002 -0.082,-0.003 -0.023,-4.1e-4 -0.043,-4.1e-4 -0.064,-4.1e-4 -0.019,0 -0.038,0 -0.058,4.1e-4 -0.029,4.1e-4 -0.055,0.002 -0.082,0.002 l -0.1618,0.01 c -0.037,0.003 -0.073,0.007 -0.1096,0.0106 l -0.012,10e-4 c -0.5559,0.0633 -1.0978,0.25478 -1.5678,0.55403 -0.1381,0.0879 -0.2751,0.19215 -0.4071,0.30994 l -0.051,0.0459 c -0.013,0.0117 -0.025,0.0242 -0.038,0.0363 l -0.038,0.0367 c -0.011,0.011 -0.023,0.0217 -0.034,0.0334 l -0.071,0.0769 c -0.3552,0.3843 -0.6004,0.83372 -0.7295,1.33438 -0.061,0.22631 -0.098,0.45689 -0.1085,0.68783 h 4e-4 v 0.10461 c -0.01,0.26332 0.01,0.54443 0.044,0.83585 l 0.174,1.08494 c 0.1121,0.94652 -0.2004,1.46141 -0.5018,1.87026 -0.4288,0.58179 -1.2198,0.9725 -1.9685,0.9725 -0.169,0 -0.3302,-0.0206 -0.4786,-0.0616 l -0.6736,-0.17898 c -0.2808,-0.0776 -0.5697,-0.11672 -0.8601,-0.11672 -0.8561,0 -1.6874,0.34694 -2.2802,0.9515 -0.1701,0.17258 -0.3071,0.37648 -0.4075,0.53482 -0.3309,0.52308 -0.527,1.12764 -0.5672,1.7475 0,0 0,0.0626 -0.01,0.0943 v 0.037 c 0,0.0252 0,0.0509 0,0.0765 -4e-4,0.0206 -4e-4,0.0391 -4e-4,0.0587 0,0.0185 0,0.0377 4e-4,0.0573 4e-4,0.027 0,0.0527 0,0.0779 v 0.0395 c 0,0.0317 0.01,0.0993 0.01,0.0993 0.04,0.61594 0.2363,1.22051 0.5672,1.74323 0.1004,0.15834 0.2374,0.36224 0.4071,0.53482 0.5928,0.60456 1.4241,0.95114 2.2803,0.95114 0.2903,0 0.5796,-0.0388 0.8593,-0.11636 l 0.6754,-0.17898 c 0.1473,-0.0405 0.3085,-0.0616 0.4775,-0.0616 0.7484,0 1.5398,0.3907 1.9689,0.97214 0.3014,0.40885 0.6139,0.92409 0.5025,1.8667 l -0.1751,1.0917 c -0.038,0.28715 -0.053,0.56827 -0.044,0.83266 l 0.01,0.10496 z"
       clip-path="url(#clipPath5340)"
       transform="translate(624.10678,-190.96321)" />
    <path
       inkscape:connector-curvature="0"
       id="path216-5-2-2-2"
       style="fill:none;stroke:#6ccef5;stroke-width:0.7055555;stroke-linecap:round;stroke-linejoin:round;stroke-miterlimit:10;stroke-dasharray:none;stroke-opacity:1"
       d="m -1137.8186,454.90395 c 0.011,0.23093 0.048,0.46116 0.1082,0.68676 0.1291,0.50136 0.3747,0.95043 0.7298,1.33544 l 0.072,0.0786 c 0.01,0.009 0.02,0.0203 0.032,0.0313 l 0.034,0.0331 c 0.014,0.0135 0.028,0.027 0.041,0.0402 0.012,0.011 0.023,0.021 0.034,0.0303 l 0.017,0.0153 c 0.1327,0.1185 0.2697,0.22311 0.4074,0.31029 0.469,0.29854 1.0113,0.48998 1.5675,0.55368 0.041,0.005 0.081,0.009 0.121,0.0117 l 0.021,0.002 c 0.034,0.003 0.068,0.005 0.1007,0.006 0.014,5.1e-4 0.027,0.002 0.039,0.002 0.029,0.001 0.055,0.002 0.082,0.002 0.021,5.1e-4 0.037,0.002 0.062,5.1e-4 0.018,-5.1e-4 0.04,0 0.06,-5.1e-4 0.029,0 0.055,-10e-4 0.082,-0.002 0.015,0 0.028,-10e-4 0.04,-0.002 0.034,-0.002 0.068,-0.003 0.101,-0.006 l 0.022,-0.002 c 0.04,-0.003 0.08,-0.007 0.1196,-0.0117 0.5573,-0.0637 1.0996,-0.25514 1.5686,-0.55368 0.1391,-0.0883 0.2722,-0.18966 0.407,-0.31029 l 0.017,-0.0149 c 0.011,-0.01 0.023,-0.0196 0.033,-0.0299 0.015,-0.0132 0.027,-0.026 0.04,-0.0385 l 0.035,-0.0331 c 0.012,-0.0117 0.024,-0.0231 0.036,-0.0352 l 0.03,-0.0331 c 0.012,-0.0132 0.023,-0.0242 0.033,-0.0352 0.363,-0.39355 0.6085,-0.84226 0.7373,-1.34327 0.061,-0.22667 0.097,-0.4576 0.1085,-0.68783 h -4e-4 l 0.01,-0.10497 c 0.01,-0.26509 -0.01,-0.54621 -0.045,-0.83514 l -0.174,-1.08494 c -0.1124,-0.94652 0.2004,-1.46176 0.5021,-1.87097 0.2192,-0.29677 0.5352,-0.54763 0.9138,-0.72483 0.026,-0.0121 0.053,-0.0242 0.08,-0.036 l 0.048,-0.0196 c 0.043,-0.0175 0.086,-0.0338 0.1285,-0.0491 l 0.057,-0.0192 c 0.039,-0.0121 0.077,-0.0235 0.1156,-0.0341 0.023,-0.006 0.046,-0.0124 0.069,-0.0181 l 0.068,-0.0164 c 0.04,-0.009 0.079,-0.016 0.1174,-0.0224 0.02,-0.004 0.04,-0.006 0.06,-0.009 0.04,-0.006 0.082,-0.011 0.1239,-0.0149 l 0.04,-0.003 c 0.04,-0.003 0.078,-0.004 0.117,-0.005 l 0.031,-5.1e-4 c 0.049,4e-4 0.094,0.002 0.1384,0.005 l 0.035,0.003 c 0.047,0.004 0.091,0.01 0.1349,0.0171 l 0.031,0.005 c 0.045,0.008 0.087,0.0178 0.1295,0.0295 l 0.6817,0.18006 c 0.2776,0.0769 0.563,0.116 0.8494,0.11706 h 5e-4 c 0.8671,0 1.698,-0.34658 2.2916,-0.95114 0.1334,-0.13628 0.259,-0.30139 0.4067,-0.53482 0.3274,-0.51667 0.5231,-1.11376 0.5665,-1.72686 l 4e-4,-0.0185 c 0,0 0.01,-0.18788 0.01,-0.21386 3e-4,-0.0199 3e-4,-0.0971 0,-0.11636 -5e-4,-0.0256 0,-0.0505 0,-0.0761 l -0.01,-0.15764 c -0.044,-0.61167 -0.2394,-1.20663 -0.5657,-1.72223 -0.1481,-0.23379 -0.2733,-0.39889 -0.4068,-0.53482 -0.5932,-0.60457 -1.4241,-0.9515 -2.2795,-0.9515 -0.3,10e-4 -0.5857,0.0402 -0.8611,0.11671 l -0.6758,0.17899 c -0.051,0.0135 -0.092,0.0228 -0.1352,0.0306 l -0.03,0.006 c -0.046,0.007 -0.09,0.0128 -0.1348,0.0171 l -0.037,0.003 c -0.045,0.003 -0.09,0.005 -0.1356,0.005 l -0.035,-5.2e-4 c -0.038,-5.1e-4 -0.075,-0.003 -0.1131,-0.005 l -0.042,-0.003 c -0.042,-0.004 -0.085,-0.009 -0.1267,-0.0153 -0.014,-0.002 -0.03,-0.004 -0.045,-0.006 l -0.014,-0.003 c -0.039,-0.007 -0.078,-0.0139 -0.117,-0.0224 -0.023,-0.005 -0.045,-0.0107 -0.067,-0.016 -0.025,-0.006 -0.049,-0.0121 -0.072,-0.0188 -0.037,-0.0106 -0.074,-0.0213 -0.1111,-0.0331 -0.02,-0.007 -0.041,-0.0135 -0.061,-0.0206 -0.034,-0.0117 -0.067,-0.0242 -0.1,-0.0374 -0.025,-0.01 -0.051,-0.0199 -0.076,-0.0313 -0.025,-0.0104 -0.051,-0.0221 -0.076,-0.0338 -0.3804,-0.17792 -0.6971,-0.42913 -0.9163,-0.72661 -0.3018,-0.40886 -0.6146,-0.9241 -0.5028,-1.866 l 0.1754,-1.09169 c 0.038,-0.28965 0.053,-0.57076 0.044,-0.83337 l -0.01,-0.10461 v 0 c -0.011,-0.23094 -0.047,-0.46152 -0.1082,-0.68676 -0.1292,-0.50208 -0.3747,-0.95114 -0.7298,-1.3358 l -0.012,-0.0132 c -0.01,-0.01 -0.017,-0.0188 -0.027,-0.0281 l -0.034,-0.037 c -0.011,-0.0117 -0.024,-0.0246 -0.038,-0.0374 l -0.03,-0.0292 c -0.013,-0.0132 -0.026,-0.026 -0.039,-0.0385 l -0.051,-0.0452 c -0.132,-0.11813 -0.269,-0.22239 -0.407,-0.31028 -0.4701,-0.2989 -1.0121,-0.4907 -1.5676,-0.55404 l -0.01,-10e-4 c -0.037,-0.004 -0.074,-0.008 -0.1121,-0.0103 l -0.1608,-0.01 c -0.029,-10e-4 -0.055,-0.002 -0.082,-0.003 -0.023,-4.1e-4 -0.043,-4.1e-4 -0.064,-4.1e-4 -0.02,0 -0.038,0 -0.058,4.1e-4 -0.029,4.1e-4 -0.055,0.002 -0.082,0.002 l -0.1619,0.01 c -0.037,0.003 -0.073,0.007 -0.1096,0.0107 l -0.012,0.001 c -0.5555,0.0633 -1.0978,0.25477 -1.5678,0.55403 -0.1381,0.0879 -0.2751,0.19215 -0.4071,0.30993 l -0.051,0.0459 c -0.013,0.0117 -0.025,0.0242 -0.038,0.0363 l -0.038,0.0367 c -0.011,0.011 -0.023,0.0217 -0.034,0.0334 l -0.071,0.0769 c -0.3551,0.3843 -0.6003,0.83371 -0.7295,1.33437 -0.061,0.22631 -0.098,0.45689 -0.1085,0.68782 v 0 l -0.01,0.10462 c -0.01,0.26332 0.01,0.54443 0.044,0.83586 l 0.174,1.08493 c 0.1124,0.94652 -0.2004,1.46177 -0.5018,1.87026 -0.4287,0.5818 -1.2198,0.9725 -1.9685,0.9725 -0.169,0 -0.3302,-0.0206 -0.4786,-0.0616 l -0.6736,-0.17899 c -0.2808,-0.0776 -0.5697,-0.11671 -0.8601,-0.11671 -0.8561,0 -1.6874,0.34694 -2.2802,0.9515 -0.1701,0.17258 -0.3071,0.37647 -0.4075,0.53482 -0.3309,0.52343 -0.527,1.12763 -0.5672,1.74786 0,0 0,0.0623 -0.01,0.0939 v 0.037 c 0,0.0253 0,0.0509 0,0.0765 0,0.0206 0,0.0391 0,0.0587 0,0.0185 0,0.0377 0,0.0573 0,0.027 0,0.0527 0,0.0779 v 0.0398 c 0,0.0313 0.01,0.0993 0.01,0.0993 0.04,0.61559 0.2363,1.22015 0.5672,1.74287 0.1004,0.15835 0.2374,0.36224 0.4071,0.53482 0.5929,0.60456 1.4241,0.95115 2.2803,0.95115 0.2903,0 0.5796,-0.0388 0.8593,-0.11636 l 0.6754,-0.17898 c 0.1474,-0.0406 0.3085,-0.0616 0.4775,-0.0616 0.7484,0 1.5398,0.3907 1.9689,0.97213 0.3014,0.40886 0.6142,0.92411 0.5025,1.86671 l -0.1751,1.0917 c -0.038,0.28716 -0.053,0.56826 -0.044,0.83265 l 0.01,0.10497 z"
       clip-path="url(#clipPath5336)"
       transform="translate(624.10678,-190.96321)" />
    <path
       inkscape:connector-curvature="0"
       id="path220-6-8-8-9"
       style="fill:none;stroke:#6ccef5;stroke-width:0.7055555;stroke-linecap:round;stroke-linejoin:round;stroke-miterlimit:10;stroke-dasharray:none;stroke-opacity:1"
       d="m -503.75126,280.78136 c 0.011,0.23094 0.047,0.46116 0.1081,0.68676 0.1292,0.50138 0.3747,0.95043 0.7299,1.33545 l 0.072,0.0786 c 0.01,0.009 0.02,0.0203 0.032,0.0313 l 0.034,0.0331 c 0.014,0.0135 0.028,0.027 0.041,0.0402 0.012,0.011 0.023,0.0206 0.034,0.0303 l 0.017,0.0149 c 0.1328,0.11885 0.2698,0.22347 0.4075,0.31064 0.4689,0.29855 1.0113,0.48999 1.5674,0.55368 0.041,0.005 0.081,0.009 0.1207,0.0117 l 0.022,0.002 c 0.034,0.003 0.068,0.005 0.1006,0.006 0.014,5.3e-4 0.027,0.002 0.039,0.002 0.029,0.001 0.055,0.002 0.082,0.002 0.021,5.3e-4 0.037,0.002 0.062,5.3e-4 0.018,-5.3e-4 0.04,0 0.06,-5.3e-4 0.029,0 0.055,-10e-4 0.082,-0.002 0.015,0 0.028,-10e-4 0.04,-0.002 0.035,-0.002 0.068,-0.003 0.101,-0.006 l 0.022,-0.002 c 0.04,-0.003 0.08,-0.007 0.1196,-0.0117 0.5573,-0.0637 1.0996,-0.25513 1.5686,-0.55368 0.1391,-0.0882 0.2722,-0.18965 0.407,-0.31064 l 0.017,-0.0146 c 0.011,-0.01 0.023,-0.0196 0.033,-0.0299 0.014,-0.0132 0.027,-0.026 0.04,-0.0385 l 0.034,-0.0331 c 0.012,-0.0117 0.024,-0.0231 0.036,-0.0352 l 0.03,-0.0331 c 0.012,-0.0132 0.023,-0.0242 0.033,-0.0352 0.363,-0.39355 0.6085,-0.84226 0.7373,-1.34327 0.061,-0.22667 0.098,-0.45761 0.1085,-0.68783 h -4e-4 l 0.01,-0.10497 c 0.01,-0.2651 -0.01,-0.5462 -0.045,-0.8355 l -0.174,-1.08458 c -0.1124,-0.94652 0.2004,-1.46177 0.5021,-1.87098 0.2192,-0.29676 0.5352,-0.54762 0.9138,-0.72483 0.026,-0.0124 0.053,-0.0242 0.08,-0.0359 l 0.048,-0.0196 c 0.043,-0.0175 0.086,-0.0338 0.1285,-0.0491 l 0.057,-0.0192 c 0.039,-0.0124 0.077,-0.0235 0.1156,-0.0341 0.023,-0.006 0.046,-0.0125 0.069,-0.0181 l 0.068,-0.0164 c 0.04,-0.009 0.079,-0.016 0.1174,-0.0224 0.02,-0.004 0.04,-0.006 0.06,-0.009 0.04,-0.006 0.082,-0.011 0.1239,-0.0149 l 0.04,-0.003 c 0.04,-0.003 0.078,-0.004 0.117,-0.005 l 0.03,-5.2e-4 c 0.049,5.2e-4 0.094,0.002 0.1388,0.005 l 0.035,0.003 c 0.046,0.004 0.091,0.01 0.1348,0.0171 l 0.031,0.005 c 0.044,0.008 0.088,0.0178 0.1295,0.0295 l 0.6818,0.18004 c 0.2775,0.0769 0.5629,0.11602 0.8494,0.11709 h 4e-4 c 0.86719,0 1.6981,-0.3466 2.2913,-0.95116 0.13379,-0.13627 0.2594,-0.30138 0.407,-0.53482 0.3274,-0.51702 0.5231,-1.11375 0.5665,-1.72685 l 3.9e-4,-0.0185 c 0,0 0.01,-0.18788 0.01,-0.21422 2.9e-4,-0.0196 2.9e-4,-0.0968 0,-0.11601 -3.9e-4,-0.0256 0,-0.0509 0,-0.0761 l -0.01,-0.15798 c -0.044,-0.61133 -0.2395,-1.20628 -0.5658,-1.72189 -0.148,-0.23378 -0.2733,-0.39889 -0.4071,-0.53481 -0.5928,-0.60457 -1.4237,-0.95151 -2.2792,-0.95151 -0.2999,10e-4 -0.5857,0.0402 -0.8611,0.11636 l -0.6757,0.17934 c -0.051,0.0132 -0.093,0.0228 -0.1353,0.0306 l -0.03,0.006 c -0.046,0.007 -0.09,0.0128 -0.1349,0.0167 l -0.037,0.003 c -0.045,0.003 -0.09,0.005 -0.1356,0.005 l -0.034,-5.2e-4 c -0.038,-5.3e-4 -0.075,-0.003 -0.1132,-0.005 l -0.042,-0.003 c -0.043,-0.004 -0.085,-0.009 -0.1267,-0.0149 -0.014,-0.002 -0.03,-0.004 -0.045,-0.006 l -0.013,-0.003 c -0.039,-0.007 -0.078,-0.0139 -0.1171,-0.0224 -0.023,-0.005 -0.045,-0.0107 -0.067,-0.016 -0.024,-0.006 -0.048,-0.0124 -0.072,-0.0188 -0.037,-0.0107 -0.074,-0.0213 -0.111,-0.0331 -0.02,-0.007 -0.041,-0.0135 -0.061,-0.0206 -0.033,-0.0117 -0.067,-0.0242 -0.1,-0.0374 -0.024,-0.01 -0.051,-0.0199 -0.076,-0.0313 -0.025,-0.0103 -0.051,-0.0221 -0.076,-0.0338 -0.3804,-0.17828 -0.6971,-0.42914 -0.9164,-0.72662 -0.3017,-0.40885 -0.6145,-0.92409 -0.5028,-1.86599 l 0.1755,-1.09205 c 0.038,-0.2893 0.053,-0.57041 0.044,-0.83301 l -0.01,-0.10462 v 0 c -0.011,-0.23093 -0.047,-0.46152 -0.1081,-0.68676 -0.1292,-0.50208 -0.3747,-0.95114 -0.7299,-1.3358 l -0.012,-0.0132 c -0.01,-0.01 -0.017,-0.0192 -0.026,-0.0281 l -0.034,-0.037 c -0.011,-0.0117 -0.024,-0.0246 -0.038,-0.0374 l -0.03,-0.0292 c -0.013,-0.0132 -0.026,-0.026 -0.039,-0.0385 l -0.051,-0.0452 c -0.132,-0.11814 -0.269,-0.22239 -0.4071,-0.31029 -0.47,-0.29889 -1.012,-0.49069 -1.5675,-0.55403 l -0.01,-10e-4 c -0.037,-0.004 -0.074,-0.008 -0.1121,-0.0103 l -0.1608,-0.01 c -0.029,-10e-4 -0.055,-0.002 -0.082,-0.003 -0.023,-5.3e-4 -0.043,-5.3e-4 -0.064,-5.3e-4 -0.02,0 -0.038,0 -0.058,5.3e-4 -0.029,5.3e-4 -0.055,0.002 -0.082,0.002 l -0.1619,0.01 c -0.037,0.003 -0.073,0.007 -0.1096,0.0107 l -0.012,10e-4 c -0.5558,0.0633 -1.0978,0.25478 -1.5678,0.55404 -0.1381,0.0879 -0.2751,0.19214 -0.4071,0.30992 l -0.051,0.0459 c -0.013,0.0117 -0.025,0.0242 -0.038,0.0363 l -0.038,0.0367 c -0.011,0.011 -0.023,0.0217 -0.034,0.0334 l -0.071,0.0769 c -0.3552,0.38429 -0.6007,0.83336 -0.7295,1.33437 -0.061,0.22631 -0.098,0.45689 -0.1085,0.68782 h 4e-4 v 0.10462 c -0.01,0.26332 0.01,0.54443 0.045,0.83586 l 0.174,1.08494 c 0.1121,0.94652 -0.2004,1.46141 -0.5021,1.87026 -0.4284,0.58179 -1.2195,0.97249 -1.9682,0.97249 -0.169,0 -0.3302,-0.0206 -0.4786,-0.0616 l -0.6736,-0.17895 c -0.2808,-0.0776 -0.5697,-0.11706 -0.86,-0.11706 -0.8562,0 -1.6875,0.34729 -2.2803,0.95185 -0.1701,0.17258 -0.3071,0.37647 -0.4075,0.53482 -0.3309,0.52308 -0.527,1.12764 -0.5672,1.7475 0,0 0,0.0626 -0.01,0.0943 v 0.0367 c 0,0.0256 0,0.0512 0,0.0769 -3.9e-4,0.0206 -3.9e-4,0.0392 -3.9e-4,0.0584 0,0.0188 0,0.0381 3.9e-4,0.0576 4e-4,0.027 0,0.0527 0,0.0779 v 0.0395 c 0,0.0316 0.01,0.0993 0.01,0.0993 0.04,0.61595 0.2363,1.22052 0.5672,1.74323 0.1004,0.15835 0.2374,0.36224 0.4071,0.53482 0.5929,0.60457 1.4241,0.95114 2.2803,0.95114 0.2903,0 0.5796,-0.0388 0.8593,-0.11635 l 0.6754,-0.17899 c 0.1474,-0.0405 0.3085,-0.0616 0.4775,-0.0616 0.7484,0 1.5398,0.39071 1.9686,0.97214 0.3017,0.40885 0.6142,0.92411 0.5028,1.86671 l -0.1751,1.0917 c -0.038,0.28715 -0.053,0.56826 -0.044,0.83265 l 0.01,0.10497 z" />
    <path
       inkscape:connector-curvature="0"
       id="path224-9-0-0-7"
       style="fill:none;stroke:#6ccef5;stroke-width:0.7055555;stroke-linecap:round;stroke-linejoin:round;stroke-miterlimit:10;stroke-dasharray:none;stroke-opacity:1"
       d="m -494.37956,298.18168 c 0.011,0.23092 0.048,0.46115 0.1082,0.68675 0.1291,0.50138 0.3747,0.95043 0.7298,1.33545 l 0.072,0.0786 c 0.01,0.009 0.021,0.0203 0.032,0.0313 l 0.034,0.0331 c 0.014,0.0135 0.028,0.027 0.041,0.0402 0.012,0.011 0.023,0.0206 0.034,0.0303 l 0.017,0.0153 c 0.1327,0.1185 0.2697,0.22311 0.4074,0.31029 0.469,0.29855 1.011,0.48999 1.5675,0.55368 0.041,0.005 0.081,0.009 0.121,0.0117 l 0.021,0.002 c 0.034,0.003 0.068,0.005 0.1007,0.006 0.014,5.3e-4 0.027,0.002 0.039,0.002 0.029,10e-4 0.055,0.002 0.082,0.002 0.021,5.3e-4 0.037,0.002 0.062,5.3e-4 0.018,-5.3e-4 0.04,0 0.06,-5.3e-4 0.029,0 0.055,-0.001 0.082,-0.002 0.015,0 0.028,-0.001 0.04,-0.002 0.034,-0.002 0.068,-0.003 0.101,-0.006 l 0.022,-0.002 c 0.04,-0.003 0.08,-0.007 0.1196,-0.0117 0.5573,-0.0637 1.0996,-0.25513 1.5686,-0.55368 0.1391,-0.0882 0.2722,-0.18966 0.407,-0.31029 l 0.017,-0.0149 c 0.011,-0.01 0.022,-0.0196 0.033,-0.0299 0.015,-0.0132 0.027,-0.026 0.04,-0.0385 l 0.034,-0.0331 c 0.012,-0.0117 0.024,-0.0231 0.036,-0.0356 l 0.03,-0.0327 c 0.012,-0.0132 0.023,-0.0242 0.033,-0.0352 0.3629,-0.39355 0.6085,-0.84226 0.7374,-1.34327 0.061,-0.22666 0.097,-0.4576 0.1085,-0.68783 h -4e-4 l 0.01,-0.10497 c 0.01,-0.26509 -0.01,-0.5462 -0.045,-0.8355 l -0.174,-1.08458 c -0.1125,-0.94652 0.2003,-1.46176 0.5021,-1.87097 0.2192,-0.29677 0.5351,-0.54763 0.9138,-0.72483 0.026,-0.0121 0.053,-0.0242 0.08,-0.0359 l 0.048,-0.0196 c 0.043,-0.0175 0.086,-0.0338 0.1286,-0.0491 l 0.056,-0.0192 c 0.039,-0.0124 0.077,-0.0235 0.1157,-0.0342 0.023,-0.006 0.045,-0.0124 0.069,-0.0181 l 0.068,-0.0164 c 0.04,-0.009 0.079,-0.016 0.1174,-0.0224 0.02,-0.004 0.04,-0.006 0.06,-0.009 0.04,-0.006 0.082,-0.011 0.1238,-0.0149 l 0.04,-0.003 c 0.04,-0.003 0.078,-0.004 0.1171,-0.005 l 0.03,-5.3e-4 c 0.049,0 0.094,0.002 0.1388,0.005 l 0.035,0.003 c 0.046,0.004 0.091,0.01 0.1349,0.0171 l 0.031,0.005 c 0.044,0.008 0.087,0.0178 0.1296,0.0292 l 0.6817,0.18041 c 0.2776,0.0769 0.563,0.116 0.8494,0.11706 h 5.3e-4 c 0.8671,0 1.698,-0.34658 2.2916,-0.95114 0.1334,-0.13628 0.259,-0.30139 0.4067,-0.53482 0.3274,-0.51702 0.5231,-1.11376 0.5665,-1.72686 l 5.3e-4,-0.0185 c 0,0 0.01,-0.18789 0.01,-0.21386 5.3e-4,-0.0199 5.3e-4,-0.0971 0,-0.11636 -5.3e-4,-0.0256 0,-0.0505 0,-0.0761 l -0.01,-0.158 c -0.044,-0.61132 -0.2395,-1.20627 -0.5658,-1.72187 -0.148,-0.23379 -0.2733,-0.3989 -0.4067,-0.53482 -0.5932,-0.60457 -1.4241,-0.9515 -2.2795,-0.9515 -0.3,10e-4 -0.5857,0.0402 -0.8612,0.11635 l -0.6757,0.17934 c -0.051,0.0132 -0.092,0.0228 -0.1352,0.0306 l -0.03,0.006 c -0.046,0.007 -0.09,0.0128 -0.1348,0.0171 l -0.037,0.003 c -0.045,0.003 -0.09,0.005 -0.1355,0.005 l -0.034,-5.3e-4 c -0.038,-5.3e-4 -0.075,-0.003 -0.1131,-0.005 l -0.042,-0.003 c -0.042,-0.004 -0.085,-0.009 -0.1267,-0.0153 -0.014,-0.002 -0.03,-0.004 -0.045,-0.006 l -0.013,-0.003 c -0.039,-0.007 -0.078,-0.0139 -0.117,-0.0224 -0.023,-0.005 -0.045,-0.0106 -0.067,-0.016 -0.025,-0.006 -0.049,-0.0121 -0.072,-0.0188 -0.037,-0.0106 -0.074,-0.0214 -0.1111,-0.0331 -0.02,-0.007 -0.041,-0.0135 -0.061,-0.0206 -0.033,-0.0117 -0.067,-0.0242 -0.1,-0.0374 -0.025,-0.01 -0.051,-0.0199 -0.076,-0.0313 -0.025,-0.0103 -0.051,-0.0221 -0.076,-0.0338 -0.3804,-0.17792 -0.6971,-0.42914 -0.9163,-0.72661 -0.3018,-0.40886 -0.6146,-0.9241 -0.5028,-1.866 l 0.1754,-1.09205 c 0.038,-0.2893 0.053,-0.5704 0.044,-0.83301 l -0.01,-0.10461 v 0 c -0.011,-0.23094 -0.047,-0.46152 -0.1082,-0.68676 -0.1291,-0.50208 -0.3748,-0.95114 -0.7299,-1.3358 l -0.012,-0.0132 c -0.01,-0.01 -0.017,-0.0188 -0.027,-0.0281 l -0.034,-0.037 c -0.011,-0.0117 -0.025,-0.0245 -0.038,-0.0374 l -0.03,-0.0292 c -0.013,-0.0132 -0.026,-0.026 -0.039,-0.0384 l -0.051,-0.0452 c -0.132,-0.11814 -0.2691,-0.2224 -0.4071,-0.31029 -0.4701,-0.2989 -1.012,-0.49069 -1.5675,-0.55404 l -0.01,-0.001 c -0.037,-0.004 -0.074,-0.008 -0.1121,-0.0103 l -0.1608,-0.01 c -0.029,-10e-4 -0.056,-0.002 -0.082,-0.003 -0.023,-5.3e-4 -0.043,-5.3e-4 -0.064,-5.3e-4 -0.019,0 -0.038,0 -0.058,5.3e-4 -0.029,5.3e-4 -0.055,0.002 -0.082,0.002 l -0.1619,0.01 c -0.037,0.003 -0.073,0.006 -0.10949,0.0106 l -0.012,10e-4 c -0.5559,0.0633 -1.0978,0.25478 -1.5678,0.55403 -0.1381,0.0879 -0.2751,0.19215 -0.4071,0.30994 l -0.051,0.0459 c -0.013,0.0117 -0.025,0.0242 -0.038,0.0363 l -0.038,0.0367 c -0.011,0.011 -0.023,0.0217 -0.034,0.0334 l -0.071,0.0769 c -0.3552,0.3843 -0.6004,0.83372 -0.7295,1.33438 -0.061,0.22631 -0.098,0.45689 -0.1086,0.68782 h 5e-4 v 0.10462 c -0.01,0.26332 0.01,0.54443 0.044,0.83586 l 0.1741,1.08493 c 0.1121,0.94652 -0.2004,1.46177 -0.5021,1.87026 -0.4285,0.58179 -1.2195,0.9725 -1.9682,0.9725 -0.169,0 -0.3302,-0.0206 -0.4786,-0.0616 l -0.6736,-0.17899 c -0.2808,-0.0776 -0.5697,-0.11671 -0.8601,-0.11671 -0.8561,0 -1.6874,0.34694 -2.2802,0.9515 -0.1701,0.17258 -0.3071,0.37647 -0.4075,0.53482 -0.3309,0.52307 -0.527,1.12763 -0.5672,1.7475 0,0 0,0.0626 -0.01,0.0943 v 0.037 c 0,0.0253 0,0.0509 0,0.0765 -4e-4,0.0206 -4e-4,0.0391 -4e-4,0.0587 0,0.0185 0,0.0377 4e-4,0.0573 4e-4,0.027 0,0.0527 0,0.0779 v 0.0395 c 0,0.0317 0.01,0.0993 0.01,0.0993 0.04,0.61595 0.2363,1.22051 0.5672,1.74323 0.1004,0.15835 0.2374,0.36224 0.4071,0.53482 0.5928,0.60456 1.4241,0.95114 2.2803,0.95114 0.2903,0 0.5796,-0.0388 0.8593,-0.11635 l 0.6754,-0.17899 c 0.1473,-0.0405 0.3085,-0.0616 0.4775,-0.0616 0.7484,0 1.5398,0.39071 1.9686,0.97214 0.3017,0.40885 0.6142,0.9241 0.5028,1.8667 l -0.1751,1.0917 c -0.038,0.28716 -0.053,0.56827 -0.044,0.83265 l 0.01,0.10498 z" />
    <path
       inkscape:connector-curvature="0"
       id="path232-2-2-8-9"
       style="fill:none;stroke:#6ccef5;stroke-width:0.7055555;stroke-linecap:round;stroke-linejoin:round;stroke-miterlimit:10;stroke-dasharray:none;stroke-opacity:1"
       d="m -1144.3596,482.1947 c 0.011,0.23093 0.048,0.46151 0.1082,0.68676 0.1291,0.50137 0.3747,0.95043 0.7298,1.33544 l 0.072,0.0786 c 0.01,0.009 0.021,0.0203 0.032,0.0313 l 0.034,0.0331 c 0.014,0.0135 0.028,0.027 0.041,0.0402 0.012,0.011 0.022,0.0206 0.034,0.0303 l 0.017,0.0153 c 0.1327,0.11849 0.2697,0.22311 0.4074,0.31029 0.469,0.29854 1.0113,0.48999 1.5675,0.55368 0.041,0.005 0.081,0.009 0.121,0.0117 l 0.021,0.002 c 0.034,0.003 0.068,0.005 0.1007,0.006 0.014,0.001 0.027,0.002 0.039,0.002 0.029,0.001 0.055,0.002 0.082,0.002 0.021,5.1e-4 0.037,0.002 0.062,5.1e-4 0.018,-5.1e-4 0.04,0 0.06,-5.1e-4 0.029,0 0.055,-10e-4 0.082,-0.002 0.015,0 0.028,-5.1e-4 0.04,-0.002 0.035,-0.002 0.068,-0.003 0.101,-0.006 l 0.022,-0.002 c 0.04,-0.003 0.08,-0.007 0.1196,-0.0117 0.5573,-0.0637 1.0996,-0.25514 1.5686,-0.55368 0.1391,-0.0883 0.2722,-0.18966 0.407,-0.31029 l 0.017,-0.0149 c 0.011,-0.01 0.023,-0.0196 0.033,-0.0299 0.014,-0.0132 0.027,-0.026 0.04,-0.0385 l 0.034,-0.0331 c 0.012,-0.0117 0.024,-0.0231 0.036,-0.0352 l 0.03,-0.0331 c 0.012,-0.0132 0.022,-0.0242 0.033,-0.0352 0.3629,-0.39355 0.6085,-0.84226 0.7373,-1.34327 0.061,-0.22667 0.098,-0.4576 0.1085,-0.68783 h -4e-4 l 0.01,-0.10497 c 0.01,-0.26509 -0.01,-0.54621 -0.045,-0.83514 l -0.174,-1.08494 c -0.1124,-0.94652 0.2004,-1.46176 0.5021,-1.87097 0.2192,-0.29677 0.5352,-0.54763 0.9138,-0.72484 0.026,-0.0121 0.053,-0.0242 0.08,-0.0359 l 0.048,-0.0196 c 0.043,-0.0174 0.086,-0.0338 0.1285,-0.0491 l 0.057,-0.0192 c 0.038,-0.0121 0.077,-0.0235 0.1153,-0.0341 0.023,-0.006 0.046,-0.0124 0.069,-0.0181 l 0.068,-0.0164 c 0.04,-0.009 0.079,-0.016 0.1174,-0.0224 0.02,-0.004 0.04,-0.006 0.06,-0.009 0.04,-0.006 0.082,-0.011 0.1239,-0.0149 l 0.04,-0.003 c 0.04,-0.003 0.078,-0.004 0.117,-0.005 l 0.031,-5.1e-4 c 0.049,4e-4 0.094,0.002 0.1384,0.005 l 0.035,0.003 c 0.047,0.004 0.091,0.01 0.1349,0.0171 l 0.031,0.005 c 0.044,0.008 0.088,0.0178 0.1296,0.0295 l 0.6817,0.18006 c 0.2776,0.0769 0.563,0.116 0.8494,0.11707 h 4e-4 c 0.8672,0 1.6981,-0.34659 2.2913,-0.95115 0.1338,-0.13629 0.2594,-0.30139 0.4071,-0.53481 0.3274,-0.51703 0.5231,-1.11376 0.5665,-1.72687 l 4e-4,-0.0185 c 0,0 0.01,-0.18788 0.01,-0.21386 3e-4,-0.0199 3e-4,-0.0971 0,-0.11636 -4e-4,-0.0256 0,-0.0505 0,-0.0761 l -0.01,-0.15799 c -0.044,-0.61133 -0.2395,-1.20628 -0.5658,-1.72189 -0.148,-0.23378 -0.2732,-0.39888 -0.4067,-0.53481 -0.5932,-0.60457 -1.4241,-0.9515 -2.2795,-0.9515 -0.3,10e-4 -0.5857,0.0402 -0.8612,0.11671 l -0.6757,0.17899 c -0.051,0.0135 -0.092,0.0228 -0.1352,0.0306 l -0.03,0.006 c -0.046,0.007 -0.09,0.0128 -0.1348,0.0171 l -0.037,0.003 c -0.045,0.003 -0.09,0.005 -0.1355,0.005 l -0.034,-5.2e-4 c -0.038,-5.1e-4 -0.076,-0.003 -0.1131,-0.005 l -0.042,-0.003 c -0.042,-0.004 -0.085,-0.009 -0.1267,-0.0153 -0.014,-0.002 -0.03,-0.004 -0.045,-0.006 l -0.014,-0.003 c -0.039,-0.007 -0.078,-0.0139 -0.117,-0.0224 -0.023,-0.005 -0.045,-0.0107 -0.067,-0.016 -0.025,-0.006 -0.049,-0.0121 -0.072,-0.0188 -0.037,-0.0107 -0.075,-0.0214 -0.1111,-0.0331 -0.02,-0.007 -0.041,-0.0135 -0.061,-0.0206 -0.034,-0.0117 -0.067,-0.0242 -0.1,-0.0374 -0.025,-0.01 -0.051,-0.0199 -0.076,-0.0313 -0.025,-0.0103 -0.051,-0.0221 -0.076,-0.0338 -0.3804,-0.17791 -0.6971,-0.42913 -0.9163,-0.72661 -0.3018,-0.40886 -0.6146,-0.9241 -0.5028,-1.86599 l 0.1754,-1.09206 c 0.038,-0.28929 0.053,-0.5704 0.044,-0.833 l -0.01,-0.10462 v 0 c -0.011,-0.23094 -0.048,-0.46151 -0.1082,-0.68676 -0.1292,-0.50208 -0.3747,-0.95114 -0.7299,-1.3358 l -0.012,-0.0132 c -0.01,-0.01 -0.017,-0.0188 -0.027,-0.0281 l -0.034,-0.037 c -0.011,-0.0117 -0.024,-0.0246 -0.038,-0.0374 l -0.03,-0.0292 c -0.013,-0.0132 -0.026,-0.026 -0.039,-0.0385 l -0.051,-0.0452 c -0.132,-0.11814 -0.269,-0.2224 -0.407,-0.31029 -0.4701,-0.2989 -1.0121,-0.49069 -1.5676,-0.55403 l -0.01,-10e-4 c -0.037,-0.004 -0.074,-0.008 -0.1121,-0.0103 l -0.1608,-0.01 c -0.029,-10e-4 -0.055,-0.002 -0.082,-0.003 -0.023,-4.1e-4 -0.043,-4.1e-4 -0.064,-4.1e-4 -0.019,0 -0.038,0 -0.058,4.1e-4 -0.029,4.1e-4 -0.055,0.002 -0.082,0.002 l -0.1619,0.01 c -0.037,0.003 -0.073,0.007 -0.1096,0.0107 l -0.012,0.001 c -0.5558,0.0633 -1.0978,0.25478 -1.5678,0.55404 -0.1381,0.0879 -0.2751,0.19215 -0.4071,0.30993 l -0.051,0.0459 c -0.013,0.0117 -0.025,0.0242 -0.038,0.0363 l -0.038,0.0367 c -0.011,0.011 -0.023,0.0217 -0.034,0.0334 l -0.071,0.0769 c -0.3551,0.38429 -0.6003,0.83371 -0.7295,1.33437 -0.061,0.22631 -0.097,0.45689 -0.1085,0.68783 h 4e-4 v 0.10461 c -0.01,0.26332 0.01,0.54443 0.044,0.83585 l 0.174,1.08494 c 0.1124,0.94652 -0.2004,1.46177 -0.5021,1.87026 -0.4284,0.58179 -1.2195,0.9725 -1.9682,0.9725 -0.169,0 -0.3302,-0.0206 -0.4786,-0.0616 l -0.6736,-0.17898 c -0.2808,-0.0776 -0.5697,-0.11672 -0.86,-0.11672 -0.8562,0 -1.6875,0.34694 -2.2803,0.9515 -0.1701,0.17258 -0.3071,0.37648 -0.4074,0.53482 -0.3309,0.52343 -0.527,1.12764 -0.5672,1.7475 0,0 0,0.0626 -0.01,0.0943 v 0.037 c 0,0.0253 0,0.0509 0,0.0765 0,0.0206 0,0.0391 0,0.0587 0,0.0185 0,0.0377 0,0.0573 0,0.027 0,0.0527 0,0.0779 v 0.0398 c 0,0.0313 0.01,0.0993 0.01,0.0993 0.04,0.61559 0.2363,1.22015 0.5672,1.74287 0.1003,0.15835 0.2373,0.36224 0.4071,0.53482 0.5928,0.60457 1.424,0.95114 2.2802,0.95114 0.2904,0 0.5796,-0.0388 0.8593,-0.11635 l 0.6755,-0.17899 c 0.1473,-0.0405 0.3085,-0.0616 0.4775,-0.0616 0.7483,0 1.5397,0.39071 1.9685,0.97214 0.3017,0.40885 0.6145,0.9241 0.5028,1.8667 l -0.1751,1.09171 c -0.038,0.28715 -0.053,0.56826 -0.044,0.83264 l 0.01,0.10498 z"
       clip-path="url(#clipPath5328)"
       transform="translate(624.10678,-190.96321)" />
    <path
       inkscape:connector-curvature="0"
       id="path212-0-20-3-8-7"
       style="fill:none;stroke:#6ccef5;stroke-width:0.7055555;stroke-linecap:round;stroke-linejoin:round;stroke-miterlimit:10;stroke-dasharray:none;stroke-opacity:1"
       d="m -396.58396,342.17096 c -0.01,-0.22993 -0.045,-0.45927 -0.1046,-0.68411 -0.1265,-0.49967 -0.369,-0.94777 -0.7211,-1.33263 l -0.072,-0.0786 c -0.01,-0.009 -0.02,-0.0203 -0.032,-0.0313 l -0.034,-0.0331 c -0.014,-0.0135 -0.028,-0.027 -0.041,-0.0402 -0.012,-0.0111 -0.022,-0.0207 -0.034,-0.0303 l -0.017,-0.0149 c -0.1318,-0.11891 -0.2678,-0.22366 -0.4045,-0.31107 -0.4659,-0.29927 -1.0052,-0.49227 -1.5589,-0.55816 -0.041,-0.005 -0.081,-0.009 -0.1205,-0.0122 l -0.021,-0.002 c -0.034,-0.003 -0.067,-0.005 -0.1002,-0.007 -0.014,-5.3e-4 -0.027,-0.002 -0.039,-0.002 -0.029,-10e-4 -0.055,-0.003 -0.082,-0.003 -0.021,-5.3e-4 -0.037,-0.002 -0.062,-5.3e-4 -0.018,5.3e-4 -0.04,-1.4e-4 -0.06,2.6e-4 -0.028,-1.3e-4 -0.055,5.3e-4 -0.082,0.002 -0.015,-7e-5 -0.027,10e-4 -0.04,0.002 -0.034,0.002 -0.067,0.003 -0.1006,0.006 l -0.022,0.002 c -0.04,0.003 -0.079,0.007 -0.1191,0.0112 -0.5554,0.0609 -1.0964,0.24904 -1.5649,0.54412 -0.139,0.0872 -0.2721,0.18758 -0.4069,0.30741 l -0.017,0.0145 c -0.011,0.01 -0.022,0.0194 -0.033,0.0296 -0.015,0.013 -0.027,0.0257 -0.04,0.0381 l -0.035,0.0328 c -0.012,0.0116 -0.024,0.0229 -0.036,0.0349 l -0.03,0.0328 c -0.012,0.0131 -0.022,0.024 -0.033,0.0349 -0.3633,0.39013 -0.6099,0.8357 -0.7405,1.33384 -0.062,0.22537 -0.099,0.45509 -0.1112,0.68421 v 0 l -0.01,0.10447 c -0.01,0.26385 0.01,0.54375 0.041,0.83189 l 0.1685,1.08041 c 0.1078,0.94271 -0.2061,1.45421 -0.5085,1.8602 -0.2197,0.29443 -0.5355,0.54273 -0.9135,0.71743 -0.026,0.0123 -0.053,0.0239 -0.08,0.0354 l -0.048,0.0193 c -0.043,0.0172 -0.086,0.0332 -0.12821,0.0483 l -0.057,0.0189 c -0.039,0.0119 -0.077,0.023 -0.1153,0.0335 -0.022,0.006 -0.045,0.0122 -0.069,0.0177 l -0.068,0.016 c -0.04,0.008 -0.078,0.0156 -0.11711,0.0218 -0.02,0.004 -0.04,0.006 -0.06,0.009 -0.04,0.006 -0.082,0.0106 -0.1234,0.0143 l -0.04,0.003 c -0.04,0.003 -0.078,0.004 -0.11661,0.004 l -0.03,5.3e-4 c -0.049,-5.3e-4 -0.094,-0.003 -0.1383,-0.006 l -0.035,-0.003 c -0.046,-0.004 -0.091,-0.01 -0.13421,-0.0176 l -0.031,-0.005 c -0.045,-0.008 -0.087,-0.0181 -0.1289,-0.03 l -0.6782,-0.18228 c -0.2762,-0.0777 -0.5603,-0.11799 -0.8457,-0.12034 v 0 c -0.8637,-0.004 -1.69301,0.33739 -2.2865,0.93654 -0.134,0.13506 -0.25981,0.29886 -0.408,0.53056 -0.3283,0.5132 -0.52591,1.10633 -0.5719,1.71645 v 0.0184 c 0,0 -0.01,0.187 -0.01,0.21285 0,0.0198 0,0.0967 0,0.11582 0,0.0255 0,0.0503 0,0.0758 l 0.01,0.1573 c 0.041,0.60872 0.2332,1.20184 0.5559,1.71655 0.1464,0.23339 0.2704,0.3983 0.4028,0.53421 0.5881,0.60446 1.4142,0.95354 2.2664,0.95736 0.29879,2.7e-4 0.58359,-0.0374 0.8583,-0.11232 l 0.67379,-0.17513 c 0.051,-0.0132 0.092,-0.0223 0.1349,-0.0299 l 0.03,-0.006 c 0.046,-0.007 0.09,-0.0123 0.1345,-0.0164 l 0.037,-0.003 c 0.045,-0.003 0.09,-0.005 0.1351,-0.005 l 0.035,5.3e-4 c 0.038,5.3e-4 0.075,0.003 0.1126,0.006 l 0.042,0.003 c 0.042,0.004 0.084,0.01 0.1261,0.0158 0.014,0.002 0.03,0.004 0.045,0.007 l 0.013,0.003 c 0.039,0.007 0.078,0.0142 0.1165,0.0228 0.023,0.005 0.045,0.0108 0.067,0.0163 0.024,0.006 0.048,0.0122 0.072,0.0191 0.037,0.0108 0.074,0.0216 0.1105,0.0334 0.02,0.007 0.041,0.0136 0.061,0.0208 0.034,0.0118 0.067,0.0244 0.1,0.0377 0.024,0.01 0.05,0.02 0.076,0.0316 0.025,0.0104 0.05,0.0222 0.076,0.034 0.3781,0.17881 0.6924,0.4303 0.9094,0.7274 0.2988,0.40834 0.6081,0.92264 0.4925,1.85974 l -0.1796,1.08628 c -0.04,0.2878 -0.056,0.56757 -0.047,0.82902 l 0.01,0.10416 v 0 c 0.01,0.22993 0.045,0.45962 0.1047,0.68411 0.1264,0.50037 0.369,0.94848 0.721,1.33298 l 0.012,0.0131 c 0.01,0.01 0.017,0.0189 0.026,0.0281 l 0.034,0.037 c 0.011,0.0117 0.024,0.0246 0.038,0.0374 l 0.03,0.0292 c 0.013,0.0131 0.026,0.0259 0.039,0.0384 l 0.051,0.0452 c 0.131,0.11819 0.267,0.22258 0.4041,0.31069 0.4669,0.29964 1.0059,0.49299 1.5589,0.55853 l 0.01,10e-4 c 0.037,0.004 0.074,0.008 0.1116,0.0108 l 0.1602,0.0103 c 0.029,0.001 0.055,0.002 0.082,0.003 0.023,5.3e-4 0.043,5.3e-4 0.064,5.3e-4 0.019,8e-5 0.038,1.3e-4 0.058,-10e-5 0.028,-2.6e-4 0.055,-0.001 0.082,-0.002 l 0.1613,-0.009 c 0.037,-0.003 0.073,-0.006 0.1092,-0.0101 l 0.012,-0.001 c 0.554,-0.0606 1.0947,-0.2487 1.5642,-0.54448 0.1379,-0.0869 0.2748,-0.19004 0.4069,-0.3067 l 0.051,-0.0455 c 0.013,-0.0116 0.025,-0.024 0.038,-0.036 l 0.038,-0.0363 c 0.011,-0.0109 0.023,-0.0215 0.034,-0.0331 l 0.071,-0.0762 c 0.3555,-0.38096 0.6018,-0.82723 0.7327,-1.32502 0.062,-0.22501 0.099,-0.45438 0.1111,-0.68421 v 0 -0.10414 c 0.01,-0.26207 -0.01,-0.54197 -0.041,-0.83224 l -0.1685,-1.08069 c -0.1075,-0.9427 0.2061,-1.45384 0.5081,-1.85948 0.4297,-0.57721 1.2194,-0.96259 1.9652,-0.95924 0.1684,10e-4 0.3288,0.022 0.4765,0.0634 l 0.6702,0.18118 c 0.2793,0.0785 0.567,0.11874 0.8562,0.12004 0.8528,0.004 1.6824,-0.3378 2.2756,-0.93695 0.1702,-0.17103 0.3076,-0.37338 0.4082,-0.53056 0.332,-0.5192 0.53,-1.12013 0.5729,-1.73698 0,0 0,-0.0623 0.01,-0.0938 v -0.0369 c 1e-4,-0.0251 0,-0.0507 0,-0.0762 0,-0.0205 0,-0.0389 0,-0.0584 1e-4,-0.0184 0,-0.0376 -9e-5,-0.057 0,-0.0269 0,-0.0524 0,-0.0776 v -0.0393 c 0,-0.0315 -0.01,-0.0988 -0.01,-0.0988 -0.037,-0.61331 -0.2299,-1.216 -0.5572,-1.73781 -0.099,-0.15808 -0.23481,-0.36166 -0.4031,-0.53421 -0.5879,-0.60446 -1.41431,-0.95318 -2.26721,-0.95702 -0.28919,-0.002 -0.57749,0.036 -0.85649,0.11198 l -0.6735,0.17514 c -0.147,0.0397 -0.30761,0.0599 -0.47601,0.0591 -0.7454,-0.004 -1.53199,-0.39582 -1.9568,-0.97652 -0.2984,-0.40834 -0.60739,-0.92264 -0.49219,-1.86045 l 0.1793,-1.08593 c 0.039,-0.28567 0.056,-0.56544 0.047,-0.82866 l -0.01,-0.10451 z" />
    <path
       inkscape:connector-curvature="0"
       id="path216-1-57-1-7-7"
       style="fill:none;stroke:#6ccef5;stroke-width:0.7055555;stroke-linecap:round;stroke-linejoin:round;stroke-miterlimit:10;stroke-dasharray:none;stroke-opacity:1"
       d="m -405.84146,324.80802 c -0.01,-0.22994 -0.045,-0.45927 -0.1046,-0.68411 -0.1265,-0.49967 -0.369,-0.94778 -0.7211,-1.33263 l -0.072,-0.0786 c -0.01,-0.009 -0.02,-0.0203 -0.032,-0.0313 l -0.034,-0.0331 c -0.014,-0.0135 -0.027,-0.0271 -0.041,-0.0402 -0.012,-0.011 -0.022,-0.021 -0.034,-0.0303 l -0.017,-0.0153 c -0.1318,-0.11854 -0.2677,-0.22329 -0.4045,-0.3107 -0.4658,-0.29927 -1.0052,-0.49227 -1.5589,-0.55816 -0.041,-0.005 -0.081,-0.009 -0.1205,-0.0122 l -0.021,-0.002 c -0.034,-0.004 -0.067,-0.005 -0.1002,-0.007 -0.014,-5.3e-4 -0.026,-0.002 -0.039,-0.002 -0.029,-10e-4 -0.055,-0.003 -0.082,-0.003 -0.021,-10e-4 -0.037,-0.003 -0.062,-10e-4 -0.018,5.3e-4 -0.04,-1.3e-4 -0.06,5.3e-4 -0.029,-1.3e-4 -0.055,0.001 -0.082,0.002 -0.015,-7e-5 -0.027,10e-4 -0.04,0.002 -0.034,10e-4 -0.067,0.003 -0.1007,0.006 l -0.022,0.002 c -0.04,0.003 -0.079,0.007 -0.1191,0.0112 -0.5554,0.0609 -1.0964,0.24905 -1.565,0.54413 -0.1389,0.0872 -0.272,0.18757 -0.4068,0.30705 l -0.017,0.0148 c -0.011,0.01 -0.022,0.0194 -0.033,0.0296 -0.015,0.0131 -0.027,0.0257 -0.04,0.0381 l -0.035,0.0328 c -0.012,0.0116 -0.024,0.0229 -0.036,0.0349 l -0.03,0.0328 c -0.012,0.0131 -0.022,0.024 -0.033,0.0349 -0.36329,0.39013 -0.60989,0.83569 -0.7405,1.33384 -0.062,0.22536 -0.099,0.45508 -0.1111,0.6842 v 1e-5 l -0.01,0.10446 c -0.01,0.26386 0.01,0.54375 0.041,0.83154 l 0.1685,1.08077 c 0.1078,0.94271 -0.2062,1.4542 -0.5085,1.8602 -0.2197,0.29442 -0.5356,0.54273 -0.9135,0.71743 -0.026,0.0119 -0.053,0.0239 -0.08,0.0354 l -0.048,0.0193 c -0.043,0.0172 -0.086,0.0333 -0.1282,0.0483 l -0.056,0.0189 c -0.039,0.0119 -0.077,0.023 -0.1154,0.0335 -0.022,0.006 -0.045,0.0122 -0.069,0.0177 l -0.068,0.016 c -0.04,0.008 -0.078,0.0156 -0.117,0.0218 -0.02,0.004 -0.04,0.006 -0.06,0.009 -0.04,0.006 -0.082,0.0106 -0.1235,0.0143 l -0.04,0.003 c -0.04,0.003 -0.078,0.004 -0.1166,0.004 l -0.031,5.3e-4 c -0.048,-5.3e-4 -0.094,-0.003 -0.13789,-0.006 l -0.035,-0.003 c -0.046,-0.005 -0.091,-0.01 -0.1342,-0.0176 l -0.031,-0.005 c -0.045,-0.008 -0.087,-0.0181 -0.12891,-0.03 l -0.67819,-0.18229 c -0.27621,-0.0778 -0.5603,-0.118 -0.84571,-0.12034 v 0 c -0.8637,-0.004 -1.693,0.33739 -2.28689,0.93655 -0.1336,0.13506 -0.2594,0.29885 -0.40751,0.53055 -0.32839,0.51284 -0.52599,1.10634 -0.572,1.71645 v 0.0184 c 0,0 -0.01,0.18698 -0.01,0.21283 0,0.0198 0,0.0967 0,0.11584 0,0.0255 0,0.0503 0,0.0758 l 0.01,0.15693 c 0.041,0.6091 0.23311,1.20222 0.5559,1.71692 0.14641,0.23339 0.27041,0.3983 0.40281,0.5342 0.5881,0.60447 1.41419,0.95354 2.2664,0.95737 0.2988,2.7e-4 0.5836,-0.0374 0.8583,-0.11232 l 0.6738,-0.17513 c 0.051,-0.0133 0.092,-0.0223 0.1349,-0.0299 l 0.03,-0.006 c 0.046,-0.007 0.09,-0.0123 0.13449,-0.0164 l 0.037,-0.003 c 0.045,-0.003 0.09,-0.005 0.1351,-0.005 l 0.035,5.3e-4 c 0.038,5.3e-4 0.075,0.003 0.1126,0.006 l 0.042,0.003 c 0.042,0.004 0.084,0.01 0.1262,0.0158 0.014,0.002 0.029,0.004 0.045,0.007 l 0.014,0.003 c 0.039,0.007 0.078,0.0142 0.1165,0.0228 0.023,0.005 0.045,0.0108 0.067,0.0163 0.024,0.006 0.048,0.0122 0.072,0.0191 0.037,0.0107 0.074,0.0216 0.1105,0.0334 0.02,0.007 0.041,0.0137 0.061,0.0208 0.034,0.0118 0.067,0.0244 0.1,0.0377 0.024,0.01 0.05,0.02 0.076,0.0315 0.025,0.0104 0.05,0.0222 0.076,0.034 0.3781,0.17882 0.6924,0.43031 0.9094,0.72741 0.2988,0.40834 0.6081,0.92264 0.4926,1.85973 l -0.1797,1.08594 c -0.039,0.28816 -0.056,0.56791 -0.047,0.82937 l 0.01,0.10416 v 0 c 0.01,0.22993 0.045,0.45962 0.1046,0.68411 0.1265,0.50036 0.369,0.94848 0.7211,1.33297 l 0.012,0.0131 c 0.01,0.01 0.017,0.0189 0.026,0.0281 l 0.034,0.037 c 0.011,0.0117 0.024,0.0246 0.038,0.0374 l 0.03,0.0292 c 0.013,0.0131 0.026,0.0259 0.039,0.0385 l 0.051,0.0453 c 0.1309,0.11819 0.267,0.22259 0.4041,0.3107 0.4669,0.29964 1.0059,0.49299 1.5589,0.55852 l 0.01,10e-4 c 0.037,0.004 0.074,0.008 0.1115,0.0108 l 0.1602,0.0103 c 0.029,10e-4 0.055,0.002 0.082,0.003 0.023,5.3e-4 0.043,5.3e-4 0.064,5.3e-4 0.019,9e-5 0.038,1.4e-4 0.057,-1.3e-4 0.028,-2.6e-4 0.055,-0.002 0.082,-0.002 l 0.1614,-0.009 c 0.037,-0.003 0.073,-0.006 0.1092,-0.0101 l 0.012,-10e-4 c 0.5536,-0.0606 1.0947,-0.2487 1.5642,-0.54448 0.138,-0.0869 0.2749,-0.19005 0.4069,-0.3067 l 0.051,-0.0455 c 0.013,-0.0116 0.025,-0.024 0.038,-0.036 l 0.038,-0.0363 c 0.011,-0.0109 0.023,-0.0215 0.034,-0.0331 l 0.071,-0.0762 c 0.3555,-0.38096 0.6017,-0.82723 0.7326,-1.32503 0.062,-0.22498 0.099,-0.45437 0.1112,-0.6842 v 0 l 0.01,-0.10411 c 0.01,-0.26208 -0.01,-0.54197 -0.041,-0.83225 l -0.1685,-1.08076 c -0.1078,-0.94271 0.2061,-1.45421 0.5082,-1.8595 0.4297,-0.57721 1.2194,-0.96259 1.9652,-0.95923 0.1683,5.3e-4 0.3288,0.022 0.4764,0.0634 l 0.6702,0.18119 c 0.2794,0.0785 0.567,0.11873 0.8562,0.12004 0.8528,0.004 1.6824,-0.3378 2.2757,-0.93695 0.1701,-0.17104 0.3075,-0.37339 0.4082,-0.53056 0.3319,-0.51956 0.53,-1.12013 0.5728,-1.73734 0,0 0,-0.062 0.01,-0.0935 v -0.0368 c 0,-0.0252 0,-0.0507 0,-0.0761 1e-4,-0.0205 0,-0.0389 0,-0.0584 1e-4,-0.0184 0,-0.0376 0,-0.057 0,-0.0269 0,-0.0524 0,-0.0776 v -0.0397 c 1e-4,-0.0312 -0.01,-0.0988 -0.01,-0.0988 -0.037,-0.61298 -0.2299,-1.21566 -0.5572,-1.73748 -0.099,-0.15807 -0.2348,-0.36165 -0.4031,-0.5342 -0.5878,-0.60446 -1.4143,-0.95319 -2.2671,-0.95702 -0.2892,-0.002 -0.5775,0.036 -0.8565,0.11198 l -0.6736,0.17514 c -0.1469,0.0397 -0.3076,0.0599 -0.4759,0.0591 -0.7455,-0.004 -1.532,-0.39582 -1.9569,-0.97652 -0.2984,-0.40834 -0.6077,-0.92264 -0.4922,-1.86045 l 0.1793,-1.08593 c 0.039,-0.28568 0.056,-0.56543 0.047,-0.82866 l -0.01,-0.10451 z" />
    <path
       inkscape:connector-curvature="0"
       id="path220-7-1-6-6-0"
       style="fill:none;stroke:#6ccef5;stroke-width:0.7055555;stroke-linecap:round;stroke-linejoin:round;stroke-miterlimit:10;stroke-dasharray:none;stroke-opacity:1"
       d="m -415.68746,307.99962 c -0.01,-0.22993 -0.045,-0.45926 -0.1047,-0.6841 -0.1264,-0.49968 -0.369,-0.94778 -0.721,-1.33263 l -0.072,-0.0786 c -0.01,-0.009 -0.02,-0.0203 -0.032,-0.0313 l -0.034,-0.0331 c -0.014,-0.0135 -0.027,-0.027 -0.041,-0.0402 -0.012,-0.011 -0.023,-0.0206 -0.034,-0.0303 l -0.017,-0.0149 c -0.1318,-0.11889 -0.2677,-0.22364 -0.4045,-0.31104 -0.4658,-0.29929 -1.0052,-0.49228 -1.5589,-0.55817 -0.041,-0.005 -0.08,-0.009 -0.1201,-0.0122 l -0.021,-0.002 c -0.034,-0.003 -0.067,-0.005 -0.1003,-0.007 -0.014,-5.3e-4 -0.026,-0.002 -0.039,-0.002 -0.028,-10e-4 -0.055,-0.002 -0.082,-0.003 -0.021,-5.3e-4 -0.037,-0.002 -0.062,-0.001 -0.018,5.2e-4 -0.04,-1.4e-4 -0.06,2.6e-4 -0.029,-1.4e-4 -0.055,10e-4 -0.081,0.002 -0.015,-6e-5 -0.028,10e-4 -0.04,0.002 -0.035,0.002 -0.067,0.003 -0.1006,0.006 l -0.022,0.002 c -0.04,0.003 -0.08,0.007 -0.1192,0.0111 -0.5553,0.0609 -1.0964,0.24904 -1.5649,0.54412 -0.139,0.0872 -0.272,0.18758 -0.4069,0.30741 l -0.017,0.0145 c -0.011,0.01 -0.022,0.0194 -0.033,0.0296 -0.014,0.0131 -0.027,0.0257 -0.04,0.0381 l -0.034,0.0328 c -0.012,0.0116 -0.024,0.0229 -0.036,0.0349 l -0.03,0.0328 c -0.012,0.013 -0.022,0.024 -0.033,0.0349 -0.3633,0.39013 -0.6099,0.8357 -0.7404,1.33385 -0.062,0.22535 -0.099,0.45508 -0.1112,0.6842 v 0 l -0.01,0.10447 c -0.01,0.26385 0.01,0.54375 0.041,0.83189 l 0.1685,1.08041 c 0.1078,0.94271 -0.2061,1.4542 -0.5085,1.8602 -0.2197,0.29443 -0.5355,0.54274 -0.9135,0.71744 -0.026,0.0123 -0.053,0.0239 -0.08,0.0354 l -0.048,0.0193 c -0.043,0.0172 -0.086,0.0333 -0.1282,0.0483 l -0.057,0.0189 c -0.039,0.0122 -0.077,0.023 -0.1154,0.0335 -0.022,0.006 -0.045,0.0122 -0.069,0.0177 l -0.068,0.016 c -0.04,0.008 -0.078,0.0156 -0.117,0.0218 -0.02,0.004 -0.04,0.006 -0.06,0.009 -0.04,0.006 -0.082,0.0106 -0.1235,0.0143 l -0.04,0.003 c -0.04,0.003 -0.078,0.004 -0.1166,0.004 l -0.03,5.3e-4 c -0.049,-5.3e-4 -0.094,-0.003 -0.1383,-0.006 l -0.035,-0.003 c -0.046,-0.005 -0.091,-0.01 -0.1343,-0.0176 l -0.031,-0.005 c -0.044,-0.008 -0.087,-0.0181 -0.1289,-0.03 l -0.6783,-0.18229 c -0.2761,-0.0778 -0.5602,-0.11803 -0.8455,-0.12038 v 0 c -0.8638,-0.004 -1.6931,0.3374 -2.2866,0.93655 -0.1339,0.13506 -0.2598,0.29885 -0.4079,0.53055 -0.3284,0.5132 -0.526,1.10634 -0.572,1.71645 v 0.0184 c 0,0 -0.01,0.18699 -0.01,0.2132 0,0.0195 0,0.0963 0,0.11547 0,0.0255 0,0.0507 0,0.0758 l 0.01,0.1573 c 0.041,0.60873 0.2331,1.20184 0.5559,1.71655 0.1463,0.23338 0.2704,0.3983 0.4031,0.53421 0.5878,0.60446 1.4139,0.95353 2.266,0.95737 0.2988,2.6e-4 0.5836,-0.0374 0.8583,-0.11197 l 0.6739,-0.1755 c 0.05,-0.0129 0.092,-0.0223 0.1348,-0.0299 l 0.03,-0.006 c 0.046,-0.007 0.09,-0.0123 0.1344,-0.0161 l 0.037,-0.003 c 0.045,-0.003 0.09,-0.005 0.1351,-0.004 l 0.034,5.2e-4 c 0.038,10e-4 0.075,0.003 0.1126,0.005 l 0.042,0.003 c 0.042,0.004 0.084,0.009 0.1262,0.0154 0.014,0.002 0.029,0.005 0.045,0.007 l 0.013,0.003 c 0.039,0.007 0.078,0.0142 0.1165,0.0228 0.023,0.005 0.045,0.0109 0.067,0.0163 0.024,0.006 0.048,0.0126 0.072,0.0191 0.037,0.0108 0.074,0.0216 0.1104,0.0334 0.02,0.007 0.041,0.0137 0.061,0.0208 0.033,0.0118 0.066,0.0244 0.099,0.0376 0.024,0.01 0.05,0.0201 0.076,0.0315 0.025,0.0104 0.05,0.0222 0.076,0.034 0.3781,0.17916 0.6925,0.43029 0.9095,0.72739 0.2987,0.40835 0.608,0.92265 0.4925,1.85974 l -0.1797,1.08629 c -0.04,0.2878 -0.056,0.56756 -0.047,0.82901 l 0.01,0.10416 v 0 c 0.01,0.22993 0.045,0.45962 0.1047,0.68412 0.1264,0.50036 0.369,0.94848 0.721,1.33297 l 0.012,0.0131 c 0.01,0.01 0.017,0.0192 0.026,0.0281 l 0.034,0.037 c 0.011,0.0117 0.024,0.0246 0.038,0.0374 l 0.03,0.0292 c 0.013,0.0131 0.026,0.026 0.039,0.0384 l 0.051,0.0452 c 0.131,0.11819 0.267,0.22259 0.4041,0.3107 0.4669,0.29963 1.0059,0.49299 1.5589,0.55853 l 0.01,10e-4 c 0.037,0.004 0.074,0.008 0.1116,0.0108 l 0.1602,0.0103 c 0.029,0.001 0.055,0.003 0.082,0.003 0.023,5.3e-4 0.043,5.3e-4 0.064,5.3e-4 0.019,8e-5 0.038,1.3e-4 0.057,-1.4e-4 0.029,-2.6e-4 0.055,-0.001 0.082,-0.002 l 0.1613,-0.009 c 0.037,-0.003 0.073,-0.006 0.10919,-0.0101 l 0.012,-0.001 c 0.55401,-0.0606 1.09461,-0.24869 1.56421,-0.54447 0.1379,-0.0869 0.2748,-0.19005 0.4069,-0.3067 l 0.051,-0.0455 c 0.013,-0.0116 0.025,-0.024 0.038,-0.036 l 0.038,-0.0363 c 0.011,-0.0109 0.023,-0.0215 0.034,-0.0331 l 0.071,-0.0762 c 0.35549,-0.38095 0.6021,-0.82686 0.73259,-1.32502 0.062,-0.225 0.099,-0.45437 0.11121,-0.68421 v 0 -0.10414 c 0.01,-0.26207 -0.01,-0.54197 -0.041,-0.83224 l -0.1685,-1.08076 c -0.10741,-0.94271 0.2061,-1.45385 0.5085,-1.85949 0.4293,-0.57721 1.2191,-0.9626 1.9648,-0.95924 0.16839,5.3e-4 0.3289,0.022 0.4765,0.0634 l 0.6702,0.18119 c 0.2793,0.0785 0.567,0.11908 0.8562,0.12039 0.8528,0.004 1.6824,-0.33815 2.2756,-0.93731 0.1702,-0.17103 0.3076,-0.37338 0.4083,-0.53055 0.3319,-0.5192 0.53,-1.12014 0.5728,-1.73699 0,0 0,-0.0623 0.01,-0.0938 v -0.0365 c 0,-0.0255 0,-0.051 0,-0.0765 0,-0.0205 0,-0.0389 0,-0.0581 1e-4,-0.0188 0,-0.0379 0,-0.0574 0,-0.0269 0,-0.0524 0,-0.0776 v -0.0393 c 1e-4,-0.0315 -0.01,-0.0988 -0.01,-0.0988 -0.037,-0.61331 -0.2299,-1.21601 -0.5572,-1.73783 -0.099,-0.15807 -0.2349,-0.36165 -0.4031,-0.53419 -0.5878,-0.60447 -1.4143,-0.95319 -2.2672,-0.95703 -0.2892,-0.002 -0.5775,0.036 -0.8565,0.11198 l -0.6735,0.17514 c -0.147,0.0397 -0.3076,0.0599 -0.476,0.0591 -0.7454,-0.004 -1.532,-0.39581 -1.9565,-0.97651 -0.2987,-0.40835 -0.6077,-0.92264 -0.49251,-1.86045 l 0.1793,-1.08593 c 0.039,-0.28568 0.056,-0.56544 0.047,-0.82866 l -0.01,-0.10451 z" />
    <path
       inkscape:connector-curvature="0"
       id="path224-4-8-5-3-8"
       style="fill:none;stroke:#6ccef5;stroke-width:0.7055555;stroke-linecap:round;stroke-linejoin:round;stroke-miterlimit:10;stroke-dasharray:none;stroke-opacity:1"
       d="m -424.94496,290.6367 c -0.01,-0.22994 -0.045,-0.45927 -0.1046,-0.68412 -0.1265,-0.49966 -0.3691,-0.94777 -0.7211,-1.33262 l -0.072,-0.0786 c -0.01,-0.009 -0.02,-0.0203 -0.032,-0.0313 l -0.034,-0.0331 c -0.014,-0.0135 -0.028,-0.027 -0.041,-0.0402 -0.012,-0.011 -0.022,-0.0206 -0.034,-0.0303 l -0.017,-0.0153 c -0.1317,-0.11854 -0.2677,-0.2233 -0.4045,-0.31069 -0.4657,-0.29928 -1.0048,-0.49227 -1.5589,-0.55818 -0.041,-0.005 -0.08,-0.009 -0.1204,-0.0122 l -0.021,-0.002 c -0.034,-0.003 -0.067,-0.005 -0.1003,-0.007 -0.014,-5.2e-4 -0.027,-0.002 -0.039,-0.002 -0.029,-0.001 -0.055,-0.002 -0.082,-0.003 -0.021,-5.2e-4 -0.037,-0.002 -0.062,-10e-4 -0.018,5.3e-4 -0.04,-1.6e-4 -0.059,2.5e-4 -0.029,-1.2e-4 -0.055,10e-4 -0.082,0.002 -0.015,-7e-5 -0.028,10e-4 -0.04,0.002 -0.034,0.002 -0.067,0.003 -0.1006,0.006 l -0.022,0.002 c -0.04,0.003 -0.079,0.007 -0.1192,0.0112 -0.5553,0.0609 -1.0964,0.24904 -1.5649,0.54412 -0.139,0.0872 -0.272,0.18758 -0.4069,0.30705 l -0.017,0.0148 c -0.011,0.01 -0.022,0.0194 -0.033,0.0296 -0.015,0.013 -0.027,0.0257 -0.04,0.0381 l -0.034,0.0328 c -0.012,0.0116 -0.024,0.0229 -0.036,0.0353 l -0.03,0.0324 c -0.012,0.013 -0.022,0.024 -0.033,0.0349 -0.3633,0.39014 -0.6099,0.83569 -0.7404,1.33385 -0.062,0.22535 -0.099,0.45508 -0.1112,0.68421 v 0 l -0.01,0.10446 c -0.01,0.26384 0.01,0.54374 0.041,0.8319 l 0.1685,1.0804 c 0.1078,0.94271 -0.2061,1.45421 -0.5085,1.86019 -0.2197,0.29444 -0.5355,0.54274 -0.9135,0.71745 -0.026,0.0119 -0.053,0.0239 -0.08,0.0354 l -0.048,0.0193 c -0.043,0.0172 -0.086,0.0332 -0.1282,0.0483 l -0.056,0.0189 c -0.039,0.0122 -0.077,0.023 -0.1154,0.0335 -0.023,0.006 -0.045,0.0122 -0.069,0.0177 l -0.068,0.016 c -0.04,0.008 -0.078,0.0156 -0.117,0.0218 -0.02,0.004 -0.04,0.006 -0.06,0.009 -0.04,0.006 -0.082,0.0106 -0.1234,0.0143 l -0.04,0.003 c -0.04,0.003 -0.078,0.004 -0.1167,0.004 l -0.03,2.6e-4 c -0.049,-2.1e-4 -0.094,-0.003 -0.1382,-0.006 l -0.035,-0.003 c -0.046,-0.004 -0.091,-0.01 -0.1343,-0.0176 l -0.031,-0.005 c -0.044,-0.008 -0.087,-0.0181 -0.1289,-0.0296 l -0.6783,-0.18264 c -0.2762,-0.0777 -0.5603,-0.11799 -0.8456,-0.12034 v 0 c -0.8638,-0.004 -1.693,0.3374 -2.287,0.93654 -0.1335,0.13506 -0.2594,0.29886 -0.4075,0.53056 -0.3284,0.5132 -0.5261,1.10633 -0.572,1.71644 v 0.0185 c 0,0 -0.01,0.18698 -0.01,0.21284 0,0.0198 0,0.0967 0,0.11583 0,0.0255 0,0.0503 0,0.0758 l 0.01,0.1573 c 0.041,0.60874 0.2332,1.20185 0.556,1.71656 0.1464,0.23339 0.2704,0.3983 0.4027,0.53421 0.5882,0.60445 1.4143,0.95353 2.2664,0.95737 0.2988,2.7e-4 0.5836,-0.0374 0.8583,-0.11197 l 0.6739,-0.1755 c 0.051,-0.0128 0.092,-0.0223 0.1349,-0.0299 l 0.03,-0.006 c 0.046,-0.007 0.09,-0.0123 0.1344,-0.0164 l 0.037,-0.003 c 0.045,-0.003 0.09,-0.005 0.135,-0.005 l 0.034,5.3e-4 c 0.038,5.3e-4 0.075,0.003 0.1127,0.006 l 0.042,0.003 c 0.042,0.004 0.084,0.01 0.1262,0.0158 0.014,0.002 0.029,0.004 0.045,0.007 l 0.013,0.003 c 0.039,0.007 0.078,0.0142 0.1165,0.0228 0.023,0.005 0.045,0.0108 0.067,0.0163 0.024,0.006 0.048,0.0122 0.072,0.0191 0.037,0.0107 0.074,0.0216 0.1104,0.0334 0.02,0.007 0.041,0.0137 0.061,0.0208 0.033,0.0118 0.066,0.0244 0.099,0.0377 0.024,0.01 0.051,0.02 0.076,0.0316 0.025,0.0104 0.05,0.0222 0.076,0.034 0.3781,0.17881 0.6925,0.4303 0.9095,0.7274 0.2988,0.40835 0.608,0.92264 0.4925,1.85974 l -0.1796,1.08629 c -0.04,0.2878 -0.056,0.56756 -0.047,0.82901 l 0.01,0.10416 v 0 c 0.01,0.22993 0.045,0.45962 0.1047,0.68411 0.1265,0.50037 0.369,0.94849 0.721,1.33298 l 0.012,0.0131 c 0.01,0.01 0.017,0.0189 0.027,0.0281 l 0.034,0.037 c 0.011,0.0117 0.024,0.0246 0.038,0.0374 l 0.03,0.0292 c 0.013,0.0131 0.026,0.0259 0.039,0.0385 l 0.05,0.0452 c 0.131,0.11819 0.267,0.22259 0.4041,0.31069 0.467,0.29965 1.0059,0.493 1.5589,0.55854 l 0.01,0.001 c 0.037,0.004 0.074,0.008 0.1116,0.0108 l 0.1602,0.0103 c 0.029,0.001 0.055,0.002 0.082,0.003 0.023,5.3e-4 0.043,5.3e-4 0.064,5.3e-4 0.019,9e-5 0.038,1.4e-4 0.057,-1.3e-4 0.028,-2.6e-4 0.055,-0.002 0.082,-0.002 l 0.1613,-0.009 c 0.037,-0.003 0.073,-0.006 0.1092,-0.0101 l 0.012,-10e-4 c 0.554,-0.0605 1.0946,-0.24869 1.5642,-0.54448 0.1379,-0.0869 0.2748,-0.19004 0.4069,-0.30669 l 0.051,-0.0455 c 0.013,-0.0116 0.025,-0.024 0.038,-0.036 l 0.038,-0.0363 c 0.011,-0.0109 0.023,-0.0215 0.034,-0.0331 l 0.071,-0.0762 c 0.3555,-0.38096 0.6017,-0.82723 0.7326,-1.32503 0.062,-0.225 0.099,-0.45437 0.1112,-0.6842 v 0 -0.10414 c 0.01,-0.26207 -0.01,-0.54197 -0.041,-0.83224 l -0.1685,-1.08077 c -0.1074,-0.94271 0.2061,-1.4542 0.5085,-1.85949 0.4294,-0.57721 1.2191,-0.96259 1.9649,-0.95923 0.1683,5.3e-4 0.3288,0.022 0.4764,0.0634 l 0.6702,0.18119 c 0.2793,0.0785 0.567,0.11873 0.8562,0.12003 0.8528,0.004 1.6824,-0.33779 2.2756,-0.93695 0.1702,-0.17102 0.3076,-0.37337 0.4083,-0.53055 0.3319,-0.51921 0.53,-1.12013 0.5728,-1.73699 0,0 0,-0.0623 0.01,-0.0938 v -0.0368 c 10e-5,-0.0251 0,-0.0507 0,-0.0762 0,-0.0205 0,-0.039 0,-0.0584 10e-5,-0.0184 0,-0.0376 0,-0.057 0,-0.0269 0,-0.0524 0,-0.0776 v -0.0393 c 10e-5,-0.0315 -0.01,-0.0989 -0.01,-0.0989 -0.037,-0.61332 -0.2299,-1.216 -0.5571,-1.73783 -0.099,-0.15807 -0.2349,-0.36164 -0.4032,-0.5342 -0.5878,-0.60445 -1.4143,-0.95318 -2.2671,-0.95701 -0.2892,-0.002 -0.5776,0.036 -0.8565,0.11198 l -0.6736,0.17513 c -0.1469,0.0397 -0.3075,0.0599 -0.4759,0.0591 -0.7455,-0.004 -1.532,-0.39582 -1.9565,-0.97652 -0.2988,-0.40833 -0.6077,-0.92263 -0.4926,-1.86043 l 0.1794,-1.08594 c 0.04,-0.28569 0.056,-0.56543 0.047,-0.82867 l -0.01,-0.10451 z" />
    <path
       inkscape:connector-curvature="0"
       id="path228-1-4-7-0-1"
       style="fill:none;stroke:#6ccef5;stroke-width:0.7055555;stroke-linecap:round;stroke-linejoin:round;stroke-miterlimit:10;stroke-dasharray:none;stroke-opacity:1"
       d="m -389.35786,314.47939 c -0.01,-0.22993 -0.045,-0.45927 -0.1047,-0.68411 -0.1264,-0.49966 -0.369,-0.94778 -0.721,-1.33262 l -0.072,-0.0786 c -0.01,-0.009 -0.02,-0.0203 -0.032,-0.0313 l -0.034,-0.0331 c -0.014,-0.0135 -0.028,-0.0271 -0.041,-0.0402 -0.012,-0.011 -0.022,-0.0206 -0.034,-0.0303 l -0.017,-0.0149 c -0.1317,-0.1189 -0.2676,-0.22366 -0.4044,-0.31106 -0.4659,-0.29928 -1.0052,-0.49227 -1.5589,-0.55817 -0.041,-0.005 -0.08,-0.009 -0.1205,-0.0122 l -0.021,-0.002 c -0.034,-0.004 -0.067,-0.005 -0.1002,-0.007 -0.014,-5.3e-4 -0.027,-0.002 -0.039,-0.002 -0.029,-0.001 -0.055,-0.003 -0.082,-0.003 -0.021,-5.2e-4 -0.037,-0.003 -0.062,-10e-4 -0.018,5.3e-4 -0.04,-1.4e-4 -0.059,5.3e-4 -0.029,-1.3e-4 -0.055,10e-4 -0.082,0.002 -0.015,-6e-5 -0.028,0.001 -0.04,0.002 -0.034,0.001 -0.067,0.003 -0.1007,0.006 l -0.022,0.002 c -0.04,0.003 -0.079,0.007 -0.1191,0.0112 -0.5554,0.0609 -1.09641,0.24903 -1.565,0.54412 -0.1389,0.0872 -0.27201,0.18757 -0.40681,0.30741 l -0.017,0.0144 c -0.011,0.01 -0.022,0.0194 -0.033,0.0296 -0.014,0.0131 -0.027,0.0257 -0.039,0.0381 l -0.035,0.0328 c -0.012,0.0116 -0.024,0.0229 -0.036,0.0349 l -0.03,0.0328 c -0.012,0.013 -0.022,0.024 -0.033,0.0349 -0.3633,0.39013 -0.6099,0.83568 -0.7405,1.33384 -0.062,0.22536 -0.099,0.45509 -0.1112,0.68421 v 0 l -0.01,0.10446 c -0.01,0.26386 0.01,0.54374 0.041,0.83189 l 0.1685,1.08043 c 0.1078,0.9427 -0.2061,1.45418 -0.5085,1.86019 -0.2197,0.29443 -0.5355,0.54272 -0.9135,0.71743 -0.026,0.0119 -0.053,0.0238 -0.08,0.0354 l -0.048,0.0193 c -0.043,0.0172 -0.086,0.0333 -0.1282,0.0483 l -0.057,0.0189 c -0.038,0.0122 -0.077,0.023 -0.115,0.0335 -0.022,0.006 -0.045,0.0122 -0.069,0.0177 l -0.068,0.016 c -0.04,0.008 -0.078,0.0156 -0.1171,0.0218 -0.02,0.004 -0.04,0.006 -0.06,0.009 -0.04,0.006 -0.082,0.0106 -0.1234,0.0143 l -0.04,0.003 c -0.04,0.003 -0.078,0.004 -0.1166,0.004 l -0.03,5.3e-4 c -0.048,-5.3e-4 -0.094,-0.003 -0.1379,-0.006 l -0.035,-0.003 c -0.046,-0.005 -0.091,-0.01 -0.1342,-0.0176 l -0.03,-0.005 c -0.044,-0.008 -0.087,-0.0181 -0.1289,-0.03 l -0.6783,-0.18229 c -0.2761,-0.0777 -0.5603,-0.118 -0.8456,-0.12033 v 0 c -0.8638,-0.004 -1.693,0.33738 -2.2869,0.93653 -0.1336,0.13506 -0.2594,0.29886 -0.4075,0.53056 -0.3285,0.5132 -0.5261,1.10634 -0.5721,1.7168 v 0.018 c 0,0 -0.01,0.18699 -0.01,0.21321 0,0.0195 0,0.0963 0,0.11547 0,0.0255 0,0.0503 0,0.0758 l 0.01,0.15729 c 0.041,0.60874 0.2331,1.20184 0.5559,1.71656 0.1464,0.23339 0.2704,0.39829 0.4027,0.5342 0.5881,0.60448 1.4143,0.95354 2.2664,0.95737 0.2988,2.7e-4 0.5836,-0.0374 0.8583,-0.11232 l 0.6739,-0.17513 c 0.051,-0.0129 0.092,-0.0223 0.1349,-0.0299 l 0.03,-0.005 c 0.046,-0.007 0.09,-0.0123 0.1344,-0.0164 l 0.037,-0.003 c 0.045,-0.003 0.09,-0.005 0.1351,-0.004 l 0.035,5.3e-4 c 0.038,10e-4 0.075,0.003 0.1127,0.005 l 0.042,0.003 c 0.042,0.004 0.084,0.01 0.1261,0.0158 0.014,0.002 0.029,0.005 0.045,0.007 l 0.014,0.003 c 0.039,0.007 0.077,0.0142 0.1165,0.0228 0.023,0.005 0.045,0.0109 0.067,0.0163 0.024,0.006 0.048,0.0123 0.072,0.0191 0.037,0.0108 0.074,0.0216 0.1104,0.0334 0.02,0.007 0.041,0.0137 0.061,0.0208 0.034,0.0118 0.067,0.0244 0.1,0.0376 0.024,0.01 0.05,0.0201 0.076,0.0315 0.025,0.0104 0.05,0.0222 0.076,0.034 0.3781,0.1788 0.6924,0.4303 0.9095,0.7274 0.2987,0.40834 0.608,0.92264 0.4925,1.85974 l -0.1797,1.08629 c -0.039,0.28779 -0.056,0.56756 -0.047,0.829 v 0.10417 0 c 0.01,0.22993 0.045,0.45961 0.1047,0.68411 0.1264,0.50037 0.369,0.94848 0.7211,1.33298 l 0.012,0.0131 c 0.01,0.01 0.017,0.0188 0.026,0.0281 l 0.034,0.037 c 0.011,0.0117 0.024,0.0246 0.038,0.0374 l 0.03,0.0292 c 0.013,0.0131 0.026,0.0259 0.039,0.0384 l 0.05,0.0452 c 0.131,0.11818 0.267,0.22258 0.4041,0.31069 0.4669,0.29964 1.0059,0.493 1.559,0.55853 l 0.01,0.001 c 0.037,0.004 0.074,0.008 0.1116,0.0108 l 0.1602,0.0103 c 0.029,0.001 0.055,0.003 0.082,0.003 0.023,5.3e-4 0.043,5.3e-4 0.064,5.3e-4 0.019,8e-5 0.038,1.3e-4 0.057,-1.3e-4 0.029,-2.6e-4 0.055,-10e-4 0.082,-0.002 l 0.1613,-0.009 c 0.037,-0.003 0.073,-0.006 0.1092,-0.0101 l 0.012,-10e-4 c 0.5536,-0.0606 1.0947,-0.2487 1.5642,-0.54449 0.1379,-0.0869 0.2749,-0.19004 0.4069,-0.30668 l 0.051,-0.0454 c 0.013,-0.0116 0.025,-0.024 0.038,-0.036 l 0.038,-0.0363 c 0.011,-0.0109 0.023,-0.0215 0.034,-0.0331 l 0.071,-0.0762 c 0.3554,-0.38095 0.6017,-0.82687 0.7326,-1.32501 0.062,-0.22501 0.099,-0.45438 0.1111,-0.68422 v 0 -0.10413 c 0.01,-0.26208 -0.01,-0.54197 -0.041,-0.83224 l -0.1685,-1.08077 c -0.1078,-0.9427 0.2061,-1.45385 0.5085,-1.85948 0.4293,-0.57722 1.219,-0.96261 1.9649,-0.95925 0.1683,5.3e-4 0.3288,0.022 0.4764,0.0634 l 0.6702,0.18118 c 0.2793,0.0785 0.567,0.11873 0.8562,0.12003 0.8528,0.004 1.6824,-0.33779 2.2756,-0.93694 0.1702,-0.17103 0.3076,-0.37338 0.4083,-0.53055 0.3319,-0.51921 0.53,-1.12014 0.5728,-1.737 0,0 0,-0.0623 0.01,-0.0938 v -0.0369 c 10e-5,-0.0251 0,-0.0507 0,-0.0761 10e-5,-0.0205 0,-0.0389 0,-0.0581 10e-5,-0.0188 0,-0.0379 0,-0.0574 10e-5,-0.0269 0,-0.0524 0,-0.0776 v -0.0397 c 2e-4,-0.0312 0,-0.0985 0,-0.0985 -0.037,-0.61332 -0.2299,-1.216 -0.5572,-1.73782 -0.099,-0.15808 -0.2348,-0.36165 -0.4031,-0.5342 -0.5878,-0.60446 -1.4143,-0.95319 -2.2671,-0.95702 -0.2892,-0.002 -0.5775,0.036 -0.8565,0.11197 l -0.6736,0.17515 c -0.1469,0.0397 -0.3076,0.0599 -0.4759,0.0591 -0.7454,-0.004 -1.532,-0.39582 -1.9565,-0.97652 -0.2988,-0.40834 -0.6081,-0.92264 -0.4925,-1.86045 l 0.1793,-1.08593 c 0.039,-0.28568 0.056,-0.56544 0.047,-0.82866 l -0.01,-0.10451 z" />
    <path
       inkscape:connector-curvature="0"
       id="path232-4-3-5-4-3"
       style="fill:none;stroke:#6ccef5;stroke-width:0.7055555;stroke-linecap:round;stroke-linejoin:round;stroke-miterlimit:10;stroke-dasharray:none;stroke-opacity:1"
       d="m -399.20386,297.67104 c -0.01,-0.22994 -0.045,-0.45963 -0.1047,-0.68411 -0.1264,-0.49966 -0.369,-0.94778 -0.721,-1.33263 l -0.072,-0.0786 c -0.01,-0.009 -0.02,-0.0203 -0.032,-0.0313 l -0.034,-0.0331 c -0.014,-0.0135 -0.027,-0.027 -0.041,-0.0402 -0.012,-0.011 -0.022,-0.0206 -0.034,-0.0303 l -0.017,-0.0153 c -0.1317,-0.11855 -0.2677,-0.2233 -0.4045,-0.3107 -0.4658,-0.29928 -1.0052,-0.49228 -1.5589,-0.55817 -0.041,-0.005 -0.08,-0.009 -0.1205,-0.0122 l -0.021,-0.002 c -0.034,-0.003 -0.067,-0.005 -0.1003,-0.007 -0.014,-0.001 -0.026,-0.002 -0.039,-0.002 -0.029,-0.001 -0.055,-0.002 -0.082,-0.003 -0.021,-5.3e-4 -0.037,-0.002 -0.062,-0.001 -0.018,5.3e-4 -0.04,-1.7e-4 -0.06,2.4e-4 -0.029,-1.1e-4 -0.055,10e-4 -0.082,0.002 -0.015,-6e-5 -0.028,2.7e-4 -0.04,0.002 -0.035,0.002 -0.067,0.003 -0.1007,0.006 l -0.022,0.002 c -0.04,0.003 -0.079,0.007 -0.1192,0.0112 -0.5553,0.0609 -1.0964,0.24904 -1.5649,0.54412 -0.13899,0.0872 -0.272,0.18757 -0.4068,0.30705 l -0.017,0.0148 c -0.011,0.01 -0.022,0.0194 -0.033,0.0296 -0.014,0.0131 -0.027,0.0257 -0.04,0.0381 l -0.034,0.0328 c -0.012,0.0116 -0.024,0.0229 -0.036,0.0349 l -0.03,0.0328 c -0.012,0.013 -0.023,0.024 -0.033,0.0349 -0.3634,0.39013 -0.61,0.83569 -0.7405,1.33384 -0.062,0.22536 -0.099,0.45508 -0.1112,0.6842 v 1e-5 l -0.01,0.10446 c -0.01,0.26385 0.01,0.54374 0.041,0.83154 l 0.1685,1.08078 c 0.1078,0.9427 -0.206,1.45419 -0.5085,1.86018 -0.2197,0.29443 -0.5355,0.54274 -0.9135,0.71744 -0.026,0.0119 -0.053,0.0238 -0.08,0.0354 l -0.048,0.0193 c -0.043,0.0171 -0.086,0.0332 -0.1282,0.0483 l -0.057,0.0189 c -0.038,0.0119 -0.077,0.023 -0.115,0.0335 -0.023,0.006 -0.045,0.0122 -0.069,0.0177 l -0.068,0.016 c -0.04,0.008 -0.078,0.0156 -0.1171,0.0218 -0.02,0.004 -0.04,0.006 -0.06,0.009 -0.04,0.006 -0.082,0.0106 -0.1235,0.0143 l -0.04,0.003 c -0.04,0.003 -0.078,0.004 -0.1166,0.004 l -0.031,5.3e-4 c -0.048,-5.3e-4 -0.093,-0.003 -0.1378,-0.006 l -0.035,-0.003 c -0.046,-0.004 -0.091,-0.01 -0.1342,-0.0176 l -0.031,-0.005 c -0.044,-0.008 -0.087,-0.0181 -0.1289,-0.03 l -0.6782,-0.18228 c -0.2762,-0.0777 -0.5603,-0.118 -0.8457,-0.12035 v 0 c -0.8637,-0.004 -1.6929,0.3374 -2.2865,0.93654 -0.1339,0.13507 -0.2598,0.29886 -0.4079,0.53057 -0.32841,0.51319 -0.526,1.10633 -0.572,1.71644 v 0.0184 c 0,0 -0.01,0.18699 -0.01,0.21284 0,0.0198 0,0.0967 0,0.11584 0,0.0255 0,0.0503 0,0.0758 l 0.01,0.1573 c 0.041,0.60872 0.2331,1.20184 0.5559,1.71655 0.14639,0.23338 0.2704,0.3983 0.4027,0.5342 0.5882,0.60447 1.4143,0.95354 2.2664,0.95737 0.2988,2.6e-4 0.5836,-0.0374 0.8583,-0.11232 l 0.6739,-0.17514 c 0.051,-0.0133 0.092,-0.0223 0.1349,-0.0299 l 0.03,-0.006 c 0.046,-0.007 0.09,-0.0123 0.1344,-0.0164 l 0.037,-0.003 c 0.045,-0.003 0.09,-0.005 0.1351,-0.005 l 0.034,5.3e-4 c 0.038,5.3e-4 0.075,0.003 0.1126,0.006 l 0.042,0.003 c 0.042,0.004 0.084,0.01 0.1262,0.0158 0.014,0.002 0.029,0.004 0.045,0.007 l 0.014,0.003 c 0.039,0.007 0.078,0.0142 0.1165,0.0228 0.023,0.005 0.045,0.0108 0.067,0.0163 0.024,0.006 0.048,0.0122 0.072,0.0191 0.037,0.0108 0.074,0.0216 0.1104,0.0334 0.02,0.007 0.041,0.0137 0.061,0.0208 0.034,0.0118 0.067,0.0244 0.1,0.0377 0.024,0.01 0.05,0.02 0.076,0.0315 0.025,0.0104 0.05,0.0222 0.076,0.034 0.3781,0.17881 0.6924,0.4303 0.9095,0.7274 0.2987,0.40834 0.608,0.92265 0.4925,1.85974 l -0.1797,1.08628 c -0.039,0.28781 -0.056,0.56757 -0.047,0.82901 l 0.01,0.10417 v 0 c 0.01,0.22993 0.045,0.45963 0.1047,0.68411 0.1264,0.50037 0.36899,0.94848 0.721,1.33298 l 0.012,0.0131 c 0.01,0.01 0.017,0.0189 0.026,0.0281 l 0.034,0.037 c 0.011,0.0117 0.024,0.0246 0.038,0.0374 l 0.03,0.0292 c 0.013,0.0131 0.026,0.026 0.039,0.0384 l 0.051,0.0452 c 0.131,0.11819 0.267,0.22259 0.4041,0.31069 0.4669,0.29965 1.0059,0.49299 1.5589,0.55853 l 0.01,0.001 c 0.037,0.004 0.074,0.008 0.1116,0.0108 l 0.1601,0.0103 c 0.029,10e-4 0.055,0.003 0.082,0.003 0.023,5.3e-4 0.043,5.3e-4 0.064,5.3e-4 0.019,9e-5 0.038,1.2e-4 0.057,-1.3e-4 0.028,-2.7e-4 0.055,-0.001 0.082,-0.002 l 0.1613,-0.009 c 0.037,-0.003 0.073,-0.006 0.1092,-0.0101 l 0.012,-0.001 c 0.5539,-0.0606 1.0946,-0.2487 1.5642,-0.54449 0.1379,-0.0869 0.2748,-0.19004 0.4068,-0.30669 l 0.051,-0.0455 c 0.013,-0.0116 0.025,-0.024 0.038,-0.0359 l 0.038,-0.0364 c 0.011,-0.0109 0.023,-0.0215 0.034,-0.0331 l 0.071,-0.0762 c 0.3555,-0.38096 0.6017,-0.82723 0.7326,-1.32503 0.062,-0.225 0.099,-0.45436 0.1112,-0.6842 v 0 -0.10414 c 0.01,-0.26207 -0.01,-0.54197 -0.041,-0.83224 l -0.1685,-1.08081 c -0.1077,-0.94271 0.2062,-1.4542 0.5085,-1.8595 0.4294,-0.57722 1.2191,-0.96259 1.9649,-0.95923 0.1683,5.2e-4 0.3288,0.022 0.4765,0.0634 l 0.6701,0.18118 c 0.2794,0.0785 0.567,0.11874 0.8562,0.12004 0.8529,0.004 1.6825,-0.3378 2.2757,-0.93696 0.1702,-0.17102 0.3075,-0.37338 0.4082,-0.53055 0.332,-0.51956 0.53,-1.12014 0.5728,-1.73699 0,0 0,-0.0623 0.01,-0.0939 v -0.0369 c 0,-0.0251 0,-0.0507 0,-0.0761 1e-4,-0.0205 0,-0.039 0,-0.0584 1e-4,-0.0184 0,-0.0376 0,-0.057 0,-0.0269 0,-0.0524 0,-0.0776 v -0.0397 c 1e-4,-0.0312 -0.01,-0.0988 -0.01,-0.0988 -0.037,-0.61296 -0.2299,-1.21564 -0.5572,-1.73746 -0.099,-0.15808 -0.2348,-0.36166 -0.4031,-0.53421 -0.5878,-0.60447 -1.4143,-0.95318 -2.2671,-0.95701 -0.2892,-0.002 -0.5775,0.036 -0.8565,0.11196 l -0.6736,0.17516 c -0.1469,0.0397 -0.3076,0.0599 -0.4759,0.0591 -0.7454,-0.004 -1.532,-0.39583 -1.9565,-0.97653 -0.2988,-0.40834 -0.6081,-0.92264 -0.4925,-1.86045 l 0.1793,-1.08594 c 0.04,-0.28567 0.056,-0.56543 0.047,-0.82864 l -0.01,-0.10451 z" />
    <path
       inkscape:connector-curvature="0"
       id="path216-1-5-83-8-1-5"
       style="fill:none;stroke:#6ccef5;stroke-width:0.7055555;stroke-linecap:round;stroke-linejoin:round;stroke-miterlimit:10;stroke-dasharray:none;stroke-opacity:1"
       d="m -422.65516,334.511 c -0.01,-0.22994 -0.045,-0.45927 -0.1047,-0.68411 -0.1264,-0.49967 -0.369,-0.94778 -0.721,-1.33263 l -0.072,-0.0786 c -0.01,-0.009 -0.02,-0.0203 -0.032,-0.0313 l -0.034,-0.0331 c -0.014,-0.0135 -0.028,-0.0271 -0.041,-0.0402 -0.012,-0.011 -0.022,-0.021 -0.034,-0.0303 l -0.017,-0.0153 c -0.1317,-0.11855 -0.2676,-0.2233 -0.4045,-0.31071 -0.4657,-0.29927 -1.0052,-0.49227 -1.5588,-0.55816 -0.041,-0.005 -0.081,-0.009 -0.1205,-0.0122 l -0.021,-0.002 c -0.034,-0.004 -0.067,-0.005 -0.1002,-0.007 -0.014,-5.3e-4 -0.027,-0.002 -0.039,-0.002 -0.028,-10e-4 -0.055,-0.003 -0.082,-0.003 -0.021,-10e-4 -0.037,-0.003 -0.062,-10e-4 -0.018,5.3e-4 -0.04,-1.3e-4 -0.059,5.3e-4 -0.029,-1.3e-4 -0.055,0.001 -0.082,0.002 -0.015,-6e-5 -0.028,0.001 -0.04,0.002 -0.034,10e-4 -0.067,0.003 -0.1007,0.006 l -0.022,0.002 c -0.04,0.003 -0.079,0.007 -0.1191,0.0112 -0.5554,0.0609 -1.0964,0.24904 -1.565,0.54412 -0.1389,0.0872 -0.272,0.18758 -0.4068,0.30706 l -0.017,0.0148 c -0.011,0.01 -0.022,0.0194 -0.033,0.0296 -0.015,0.0131 -0.027,0.0257 -0.04,0.0381 l -0.035,0.0328 c -0.012,0.0116 -0.024,0.0229 -0.036,0.0349 l -0.03,0.0328 c -0.012,0.013 -0.022,0.024 -0.033,0.0349 -0.3633,0.39013 -0.6099,0.83568 -0.7405,1.33384 -0.062,0.22536 -0.099,0.45508 -0.1111,0.6842 v 1e-5 l -0.01,0.10446 c -0.01,0.26385 0.01,0.54375 0.041,0.83154 l 0.1685,1.08077 c 0.1078,0.9427 -0.2061,1.4542 -0.5085,1.86019 -0.2197,0.29443 -0.5356,0.54273 -0.9135,0.71743 -0.026,0.0119 -0.053,0.0239 -0.08,0.0354 l -0.048,0.0193 c -0.043,0.0172 -0.086,0.0333 -0.1282,0.0483 l -0.056,0.0189 c -0.039,0.0119 -0.077,0.023 -0.1154,0.0335 -0.022,0.006 -0.045,0.0122 -0.069,0.0177 l -0.068,0.016 c -0.04,0.008 -0.078,0.0156 -0.117,0.0218 -0.02,0.004 -0.04,0.006 -0.06,0.009 -0.04,0.006 -0.082,0.0106 -0.1235,0.0143 l -0.04,0.003 c -0.04,0.003 -0.078,0.004 -0.1166,0.004 l -0.031,5.3e-4 c -0.048,-5.3e-4 -0.094,-0.003 -0.1379,-0.006 l -0.035,-0.003 c -0.046,-0.005 -0.091,-0.01 -0.1342,-0.0176 l -0.031,-0.005 c -0.045,-0.008 -0.087,-0.0181 -0.1289,-0.03 l -0.67821,-0.18228 c -0.27619,-0.0778 -0.5603,-0.118 -0.84569,-0.12034 v -1e-5 c -0.8637,-0.004 -1.693,0.3374 -2.28691,0.93655 -0.13349,0.13506 -0.25939,0.29885 -0.40749,0.53055 -0.3284,0.51285 -0.526,1.10634 -0.572,1.71645 v 0.0184 c 0,0 -0.01,0.18699 -0.01,0.21284 0,0.0198 0,0.0967 0,0.11584 0,0.0255 0,0.0503 0,0.0758 l 0.01,0.15693 c 0.041,0.60909 0.2331,1.20221 0.5558,1.71692 0.1464,0.23338 0.2705,0.39829 0.40279,0.5342 0.5881,0.60447 1.41431,0.95354 2.2664,0.95738 0.29881,2.6e-4 0.58361,-0.0374 0.8583,-0.11233 l 0.67391,-0.17514 c 0.051,-0.0133 0.092,-0.0223 0.1348,-0.0299 l 0.03,-0.006 c 0.046,-0.007 0.09,-0.0123 0.1344,-0.0164 l 0.037,-0.003 c 0.045,-0.003 0.09,-0.005 0.1351,-0.005 l 0.035,5.3e-4 c 0.038,5.3e-4 0.075,0.003 0.1127,0.006 l 0.042,0.003 c 0.042,0.004 0.084,0.01 0.1262,0.0158 0.014,0.002 0.029,0.004 0.045,0.007 l 0.014,0.003 c 0.039,0.007 0.078,0.0142 0.1165,0.0228 0.023,0.005 0.045,0.0108 0.067,0.0163 0.024,0.006 0.048,0.0122 0.072,0.0191 0.037,0.0108 0.074,0.0216 0.1105,0.0334 0.02,0.007 0.041,0.0137 0.061,0.0208 0.034,0.0118 0.067,0.0244 0.1,0.0377 0.024,0.01 0.05,0.02 0.076,0.0316 0.025,0.0104 0.05,0.0222 0.076,0.034 0.3782,0.17882 0.6925,0.43031 0.9095,0.72741 0.2988,0.40834 0.6081,0.92264 0.4925,1.85974 l -0.1796,1.08593 c -0.039,0.28816 -0.056,0.56791 -0.047,0.82937 l 0.01,0.10416 v 0 c 0.01,0.22993 0.045,0.45962 0.1047,0.68411 0.1264,0.50037 0.369,0.94849 0.721,1.33297 l 0.012,0.0131 c 0.01,0.01 0.017,0.0189 0.026,0.0281 l 0.034,0.037 c 0.011,0.0117 0.024,0.0246 0.038,0.0374 l 0.03,0.0292 c 0.013,0.0131 0.026,0.0259 0.039,0.0385 l 0.051,0.0453 c 0.131,0.11819 0.267,0.22259 0.4041,0.3107 0.4669,0.29964 1.0059,0.49299 1.5589,0.55852 l 0.01,0.001 c 0.037,0.004 0.074,0.008 0.1116,0.0108 l 0.1602,0.0103 c 0.029,10e-4 0.055,0.002 0.082,0.003 0.023,5.3e-4 0.043,5.3e-4 0.064,5.3e-4 0.019,9e-5 0.038,1.4e-4 0.057,-1.3e-4 0.029,-2.6e-4 0.055,-0.002 0.082,-0.002 l 0.1613,-0.009 c 0.037,-0.003 0.073,-0.006 0.1092,-0.0101 l 0.012,-0.001 c 0.5536,-0.0606 1.0946,-0.2487 1.5642,-0.54449 0.1379,-0.0869 0.2748,-0.19004 0.4069,-0.30669 l 0.051,-0.0455 c 0.013,-0.0116 0.025,-0.024 0.038,-0.036 l 0.038,-0.0363 c 0.011,-0.0109 0.023,-0.0215 0.034,-0.0331 l 0.071,-0.0762 c 0.3555,-0.38097 0.6018,-0.82723 0.7327,-1.32503 0.062,-0.225 0.099,-0.45437 0.1112,-0.6842 v 0 l 0.01,-0.10412 c 0.01,-0.26207 -0.01,-0.54197 -0.041,-0.83225 l -0.1685,-1.08076 c -0.1078,-0.94271 0.2061,-1.4542 0.5081,-1.85948 0.4297,-0.57723 1.2194,-0.9626 1.9652,-0.95925 0.1684,5.3e-4 0.3289,0.022 0.4765,0.0634 l 0.6702,0.18118 c 0.2793,0.0785 0.567,0.11874 0.8562,0.12004 0.8528,0.004 1.6824,-0.3378 2.2756,-0.93694 0.1702,-0.17104 0.3076,-0.37338 0.4083,-0.53055 0.3319,-0.51956 0.5299,-1.12013 0.5728,-1.73735 0,0 0,-0.062 0.01,-0.0935 l 1e-4,-0.0368 c 2e-4,-0.0252 0,-0.0507 0,-0.0761 10e-5,-0.0205 2e-4,-0.0389 0,-0.0584 10e-5,-0.0184 0,-0.0376 0,-0.057 2e-4,-0.0269 0,-0.0524 0,-0.0776 v -0.0397 c 2e-4,-0.0312 -0.01,-0.0988 -0.01,-0.0988 -0.037,-0.61297 -0.2299,-1.21565 -0.5572,-1.73747 -0.099,-0.15808 -0.2348,-0.36165 -0.4031,-0.53421 -0.5878,-0.60446 -1.4143,-0.95318 -2.2671,-0.95702 -0.2893,-0.002 -0.5776,0.036 -0.8565,0.11197 l -0.6736,0.17515 c -0.147,0.0397 -0.3076,0.0599 -0.476,0.0591 -0.7454,-0.004 -1.5319,-0.39582 -1.9568,-0.97652 -0.2984,-0.40833 -0.6077,-0.92264 -0.4922,-1.86044 l 0.1793,-1.08594 c 0.039,-0.28568 0.056,-0.56544 0.047,-0.82866 l -0.01,-0.10451 z" />
    <path
       inkscape:connector-curvature="0"
       id="path228-1-9-0-2-4-8"
       style="fill:none;stroke:#6ccef5;stroke-width:0.7055555;stroke-linecap:round;stroke-linejoin:round;stroke-miterlimit:10;stroke-dasharray:none;stroke-opacity:1"
       d="m -432.55856,317.35642 c -0.01,-0.22994 -0.045,-0.45927 -0.1046,-0.68412 -0.1264,-0.49966 -0.369,-0.94777 -0.721,-1.33262 l -0.072,-0.0786 c -0.01,-0.009 -0.02,-0.0203 -0.032,-0.0313 l -0.034,-0.0331 c -0.014,-0.0135 -0.027,-0.0271 -0.041,-0.0402 -0.012,-0.011 -0.022,-0.0206 -0.034,-0.0303 l -0.017,-0.0149 c -0.1318,-0.1189 -0.2677,-0.22365 -0.4045,-0.31105 -0.4658,-0.29928 -1.0052,-0.49228 -1.5589,-0.55817 -0.041,-0.005 -0.08,-0.009 -0.1205,-0.0122 l -0.021,-0.002 c -0.034,-0.004 -0.067,-0.005 -0.1002,-0.007 -0.014,-5.3e-4 -0.026,-0.002 -0.039,-0.002 -0.029,-0.001 -0.055,-0.003 -0.082,-0.003 -0.021,-5.3e-4 -0.037,-0.003 -0.062,-0.001 -0.018,5.3e-4 -0.04,-1.3e-4 -0.06,5.3e-4 -0.028,-1.3e-4 -0.055,10e-4 -0.082,0.002 -0.015,-7e-5 -0.027,10e-4 -0.04,0.002 -0.034,0.001 -0.067,0.003 -0.1007,0.006 l -0.022,0.002 c -0.04,0.003 -0.079,0.007 -0.1191,0.0112 -0.5554,0.0609 -1.0965,0.24905 -1.565,0.54413 -0.1389,0.0872 -0.272,0.18757 -0.4068,0.3074 l -0.017,0.0144 c -0.011,0.01 -0.022,0.0194 -0.033,0.0296 -0.014,0.0131 -0.027,0.0257 -0.039,0.0381 l -0.035,0.0328 c -0.012,0.0116 -0.024,0.0229 -0.036,0.0349 l -0.03,0.0328 c -0.012,0.0131 -0.022,0.024 -0.033,0.0349 -0.3634,0.39013 -0.6099,0.83569 -0.7405,1.33384 -0.062,0.22536 -0.099,0.45508 -0.1112,0.68421 v 0 l -0.01,0.10447 c -0.01,0.26385 0,0.54374 0.041,0.83189 l 0.1685,1.08041 c 0.1078,0.9427 -0.2061,1.4542 -0.5085,1.86019 -0.2197,0.29443 -0.5355,0.54274 -0.9135,0.71744 -0.026,0.0119 -0.053,0.0239 -0.08,0.0354 l -0.048,0.0193 c -0.043,0.0172 -0.086,0.0333 -0.1283,0.0483 l -0.057,0.0188 c -0.038,0.0122 -0.077,0.023 -0.1151,0.0335 -0.022,0.006 -0.045,0.0122 -0.069,0.0177 l -0.068,0.016 c -0.04,0.008 -0.078,0.0156 -0.1171,0.0218 -0.02,0.004 -0.04,0.006 -0.06,0.009 -0.04,0.006 -0.082,0.0106 -0.1235,0.0143 l -0.04,0.003 c -0.04,0.003 -0.078,0.004 -0.1166,0.004 l -0.031,5.3e-4 c -0.048,-5.3e-4 -0.094,-0.003 -0.1378,-0.006 l -0.035,-0.003 c -0.046,-0.005 -0.091,-0.01 -0.1342,-0.0176 l -0.031,-0.005 c -0.044,-0.008 -0.087,-0.0181 -0.1288,-0.03 l -0.6783,-0.18229 c -0.2761,-0.0778 -0.5603,-0.11799 -0.8456,-0.12034 v 0 c -0.8638,-0.004 -1.693,0.33739 -2.287,0.93654 -0.1335,0.13506 -0.2593,0.29886 -0.4075,0.53056 -0.32839,0.5132 -0.526,1.10634 -0.572,1.7168 v 0.018 c 0,0 -0.01,0.187 -0.01,0.2132 0,0.0195 0,0.0964 0,0.11548 0,0.0255 0,0.0503 0,0.0758 l 0.01,0.15729 c 0.041,0.60874 0.2331,1.20185 0.5559,1.71656 0.1464,0.23339 0.27041,0.3983 0.4027,0.53421 0.58821,0.60446 1.4143,0.95354 2.2664,0.95737 0.2988,2.6e-4 0.5836,-0.0374 0.8583,-0.11233 l 0.6739,-0.17513 c 0.051,-0.0129 0.092,-0.0223 0.1349,-0.0299 l 0.03,-0.006 c 0.046,-0.007 0.09,-0.0123 0.1344,-0.0164 l 0.037,-0.003 c 0.045,-0.003 0.09,-0.005 0.1351,-0.004 l 0.035,5.3e-4 c 0.038,0.001 0.075,0.003 0.1127,0.005 l 0.042,0.003 c 0.042,0.004 0.084,0.01 0.1261,0.0158 0.014,0.002 0.029,0.005 0.045,0.007 l 0.014,0.003 c 0.039,0.007 0.078,0.0142 0.1165,0.0228 0.023,0.005 0.045,0.0109 0.067,0.0163 0.024,0.006 0.048,0.0123 0.072,0.0191 0.037,0.0108 0.074,0.0216 0.1104,0.0334 0.02,0.007 0.041,0.0137 0.061,0.0208 0.034,0.0118 0.067,0.0244 0.1,0.0376 0.024,0.01 0.05,0.0201 0.076,0.0315 0.025,0.0104 0.05,0.0222 0.076,0.034 0.3781,0.17881 0.6924,0.4303 0.9095,0.7274 0.2987,0.40834 0.608,0.92264 0.4925,1.85973 l -0.1797,1.08629 c -0.039,0.28781 -0.056,0.56757 -0.047,0.82901 l 0.01,0.10417 v 0 c 0.01,0.22993 0.045,0.45962 0.10461,0.6841 0.12639,0.50037 0.369,0.94849 0.7211,1.33299 l 0.012,0.0131 c 0.01,0.01 0.017,0.0188 0.026,0.0281 l 0.034,0.037 c 0.011,0.0117 0.024,0.0246 0.038,0.0374 l 0.03,0.0292 c 0.013,0.0131 0.026,0.0259 0.039,0.0384 l 0.05,0.0452 c 0.131,0.11819 0.26709,0.22258 0.4041,0.3107 0.4669,0.29963 1.00589,0.49299 1.55899,0.55853 l 0.01,0.001 c 0.037,0.004 0.074,0.008 0.1117,0.0108 l 0.1601,0.0103 c 0.029,10e-4 0.055,0.003 0.082,0.003 0.023,5.3e-4 0.043,5.3e-4 0.064,5.3e-4 0.019,8e-5 0.038,1.2e-4 0.057,-1.4e-4 0.029,-2.7e-4 0.055,-10e-4 0.082,-0.002 l 0.1613,-0.009 c 0.037,-0.003 0.073,-0.006 0.1093,-0.0101 l 0.012,-10e-4 c 0.5536,-0.0605 1.0947,-0.24869 1.5642,-0.54448 0.138,-0.0869 0.2749,-0.19004 0.4069,-0.30669 l 0.051,-0.0454 c 0.013,-0.0116 0.025,-0.024 0.038,-0.036 l 0.038,-0.0363 c 0.011,-0.0109 0.023,-0.0215 0.034,-0.0331 l 0.071,-0.0762 c 0.3555,-0.38096 0.6017,-0.82688 0.7326,-1.32502 0.062,-0.22501 0.099,-0.45437 0.1112,-0.6842 v 0 -0.10415 c 0.01,-0.26206 -0.01,-0.54196 -0.041,-0.83224 l -0.1685,-1.08084 c -0.1078,-0.9427 0.2061,-1.45385 0.5085,-1.85948 0.4294,-0.57722 1.219,-0.9626 1.9649,-0.95925 0.1683,5.3e-4 0.3288,0.022 0.4764,0.0634 l 0.6702,0.18118 c 0.2793,0.0785 0.567,0.11873 0.8562,0.12003 0.8528,0.004 1.6824,-0.33779 2.2756,-0.93694 0.1702,-0.17103 0.3076,-0.37338 0.4083,-0.53055 0.3319,-0.51921 0.53,-1.12013 0.5728,-1.73699 0,0 0,-0.0623 0.01,-0.0938 l 2e-4,-0.0369 c 10e-5,-0.0251 0,-0.0507 0,-0.0761 10e-5,-0.0205 10e-5,-0.0389 0,-0.0581 10e-5,-0.0188 10e-5,-0.0379 0,-0.0574 10e-5,-0.0269 0,-0.0524 0,-0.0776 l 10e-5,-0.0396 c 1e-4,-0.0312 0,-0.0985 0,-0.0985 -0.037,-0.61332 -0.2299,-1.216 -0.5572,-1.73783 -0.099,-0.15807 -0.2348,-0.36165 -0.4031,-0.53419 -0.5878,-0.60447 -1.4143,-0.95319 -2.2671,-0.95703 -0.2893,-0.002 -0.5776,0.036 -0.8565,0.11198 l -0.6736,0.17514 c -0.1469,0.0397 -0.3076,0.0599 -0.4759,0.0591 -0.7455,-0.004 -1.532,-0.39582 -1.9565,-0.97652 -0.2988,-0.40834 -0.6081,-0.92264 -0.4926,-1.86044 l 0.1793,-1.08594 c 0.039,-0.28568 0.056,-0.56544 0.047,-0.82866 l -0.01,-0.10451 z" />
  </g>
</svg>
