<?xml version="1.0" encoding="UTF-8" standalone="no"?>
<!-- Created with Inkscape (http://www.inkscape.org/) -->

<svg
   xmlns:dc="http://purl.org/dc/elements/1.1/"
   xmlns:cc="http://creativecommons.org/ns#"
   xmlns:rdf="http://www.w3.org/1999/02/22-rdf-syntax-ns#"
   xmlns:svg="http://www.w3.org/2000/svg"
   xmlns="http://www.w3.org/2000/svg"
   xmlns:sodipodi="http://sodipodi.sourceforge.net/DTD/sodipodi-0.dtd"
   xmlns:inkscape="http://www.inkscape.org/namespaces/inkscape"
   width="291.25589mm"
   height="26.458334mm"
   viewBox="0 0 291.25589 26.458334"
   version="1.1"
   id="svg7906"
   inkscape:version="0.92.1 r15371"
   sodipodi:docname="mediorisco.svg">
  <defs
     id="defs7900" />
  <sodipodi:namedview
     id="base"
     pagecolor="#ffffff"
     bordercolor="#666666"
     borderopacity="1.0"
     inkscape:pageopacity="0.0"
     inkscape:pageshadow="2"
     inkscape:zoom="0.98994949"
     inkscape:cx="500.21411"
     inkscape:cy="39.450309"
     inkscape:document-units="mm"
     inkscape:current-layer="layer1"
     showgrid="false"
     fit-margin-top="0"
     fit-margin-left="0"
     fit-margin-right="0"
     fit-margin-bottom="0"
     inkscape:window-width="1920"
     inkscape:window-height="1018"
     inkscape:window-x="-8"
     inkscape:window-y="-8"
     inkscape:window-maximized="1" />
  <metadata
     id="metadata7903">
    <rdf:RDF>
      <cc:Work
         rdf:about="">
        <dc:format>image/svg+xml</dc:format>
        <dc:type
           rdf:resource="http://purl.org/dc/dcmitype/StillImage" />
        <dc:title></dc:title>
      </cc:Work>
    </rdf:RDF>
  </metadata>
  <g
     inkscape:label="Layer 1"
     inkscape:groupmode="layer"
     id="layer1"
     transform="translate(-7.8303859,-466.71131)">
    <g
       id="g10693"
       transform="translate(-512.51395,510.57421)"
       inkscape:export-filename="F:\SESI\Layout\RST\Novas telas\questionario_resultado2.png"
       inkscape:export-xdpi="90"
       inkscape:export-ydpi="90">
      <rect
         ry="3.0240023"
         rx="3.0240026"
         y="-41.217072"
         x="520.74121"
         height="21.166666"
         width="72.443954"
         id="rect10226-3-9"
         style="opacity:1;vector-effect:none;fill:#e6e6e6;fill-opacity:1;stroke:#cccccc;stroke-width:0.79374999;stroke-linecap:round;stroke-linejoin:round;stroke-miterlimit:4;stroke-dasharray:none;stroke-dashoffset:0;stroke-opacity:1" />
      <path
         sodipodi:nodetypes="cccssssc"
         inkscape:connector-curvature="0"
         id="rect10226-3-9-0"
         d="m 808.17931,-41.217075 h -69.65169 l 0.0258,21.166665 h 69.62593 c 1.67529,0 3.024,-1.348705 3.024,-3.024002 v -15.118661 c 0,-1.675297 -1.34871,-3.024002 -3.024,-3.024002 z"
         style="opacity:1;vector-effect:none;fill:#e6e6e6;fill-opacity:1;stroke:#cccccc;stroke-width:0.79374999;stroke-linecap:round;stroke-linejoin:round;stroke-miterlimit:4;stroke-dasharray:none;stroke-dashoffset:0;stroke-opacity:1" />
      <rect
         ry="0"
         rx="0"
         y="-41.217072"
         x="666.08667"
         height="21.166666"
         width="72.443954"
         id="rect10226-3-9-2-5"
         style="opacity:1;vector-effect:none;fill:#e6e6e6;fill-opacity:1;stroke:#cccccc;stroke-width:0.79374999;stroke-linecap:round;stroke-linejoin:round;stroke-miterlimit:4;stroke-dasharray:none;stroke-dashoffset:0;stroke-opacity:1" />
      <rect
         transform="scale(-1,1)"
         ry="3.0240021"
         rx="3.0240023"
         y="-43.862904"
         x="-674.9278"
         height="26.458334"
         width="90.583748"
         id="rect10226-3-9-2"
         style="opacity:1;vector-effect:none;fill:#ffc910;fill-opacity:1;stroke:none;stroke-width:0.79374999;stroke-linecap:round;stroke-linejoin:round;stroke-miterlimit:4;stroke-dasharray:none;stroke-dashoffset:0;stroke-opacity:1" />
      <g
         aria-label="Médio risco"
         style="font-style:normal;font-variant:normal;font-weight:normal;font-stretch:normal;font-size:8.46666622px;line-height:1.25;font-family:Roboto;-inkscape-font-specification:Roboto;letter-spacing:0px;word-spacing:0px;fill:#ffffff;fill-opacity:1;stroke:none;stroke-width:0.26458332"
         id="text6679-3-6">
        <path
           d="m 612.0592,-29.54362 q -0.0847,-0.2032 -0.2286,-0.516466 -0.13546,-0.313267 -0.29633,-0.677334 -0.16087,-0.364066 -0.34713,-0.745066 -0.1778,-0.389467 -0.33867,-0.728134 -0.16087,-0.347133 -0.3048,-0.618066 -0.13547,-0.270933 -0.22013,-0.414867 -0.0931,0.999067 -0.1524,2.167467 -0.0593,1.159933 -0.1016,2.345266 h -0.80434 q 0.0339,-0.762 0.0762,-1.532466 0.0423,-0.778934 0.0931,-1.524 0.0593,-0.753534 0.11853,-1.464733 0.0677,-0.7112 0.14393,-1.3462 h 0.71967 q 0.2286,0.372533 0.49107,0.880533 0.26246,0.508 0.52493,1.0668 0.26247,0.550333 0.508,1.109133 0.24553,0.550333 0.44873,1.007533 0.2032,-0.4572 0.44874,-1.007533 0.24553,-0.5588 0.508,-1.109133 0.26246,-0.5588 0.52493,-1.0668 0.26247,-0.508 0.49107,-0.880533 h 0.71966 q 0.28787,2.836333 0.4318,5.867399 h -0.80433 q -0.0423,-1.185333 -0.1016,-2.345266 -0.0593,-1.1684 -0.1524,-2.167467 -0.0847,0.143934 -0.2286,0.414867 -0.13547,0.270933 -0.29633,0.618066 -0.16087,0.338667 -0.34714,0.728134 -0.1778,0.381 -0.33866,0.745066 -0.16087,0.364067 -0.3048,0.677334 -0.13547,0.313266 -0.22014,0.516466 z"
           style="font-style:normal;font-variant:normal;font-weight:normal;font-stretch:normal;font-size:8.46666622px;font-family:Ubuntu;-inkscape-font-specification:Ubuntu;fill:#ffffff;stroke-width:0.26458332"
           id="path8519"
           inkscape:connector-curvature="0" />
        <path
           d="m 616.505,-30.923686 q 0,-0.5842 0.16933,-1.016 0.16933,-0.440267 0.44873,-0.728133 0.2794,-0.287867 0.64347,-0.4318 0.36407,-0.143934 0.74507,-0.143934 0.889,0 1.36313,0.5588 0.47413,0.550333 0.47413,1.684867 0,0.0508 0,0.135466 0,0.0762 -0.008,0.143934 h -3.01414 q 0.0508,0.6858 0.39794,1.0414 0.34713,0.3556 1.08373,0.3556 0.41487,0 0.69427,-0.06773 0.28786,-0.0762 0.4318,-0.143933 l 0.11006,0.6604 q -0.14393,0.0762 -0.508,0.160867 -0.3556,0.08467 -0.8128,0.08467 -0.57573,0 -0.99906,-0.169333 -0.41487,-0.1778 -0.6858,-0.4826 -0.27094,-0.3048 -0.4064,-0.719667 -0.127,-0.423333 -0.127,-0.922866 z m 3.0226,-0.4318 q 0.008,-0.5334 -0.27094,-0.872067 -0.27093,-0.347133 -0.75353,-0.347133 -0.27093,0 -0.4826,0.110066 -0.2032,0.1016 -0.34713,0.270934 -0.14394,0.169333 -0.2286,0.389466 -0.0762,0.220134 -0.1016,0.448734 z m -0.008,-3.445933 -1.1938,1.159933 -0.39793,-0.3556 1.08373,-1.303867 z"
           style="font-style:normal;font-variant:normal;font-weight:normal;font-stretch:normal;font-size:8.46666622px;font-family:Ubuntu;-inkscape-font-specification:Ubuntu;fill:#ffffff;stroke-width:0.26458332"
           id="path8521"
           inkscape:connector-curvature="0" />
        <path
           d="m 624.32476,-32.202153 q -0.14394,-0.118533 -0.41487,-0.2286 -0.27093,-0.110067 -0.59267,-0.110067 -0.33866,0 -0.5842,0.127 -0.23706,0.118534 -0.38946,0.338667 -0.1524,0.211667 -0.22014,0.508 -0.0677,0.296333 -0.0677,0.635 0,0.770467 0.381,1.1938 0.381,0.414867 1.016,0.414867 0.32173,0 0.5334,-0.0254 0.22013,-0.03387 0.33867,-0.06773 z m 0,-2.963333 0.7874,-0.135467 v 6.443133 q -0.27094,0.0762 -0.69427,0.1524 -0.42333,0.0762 -0.97367,0.0762 -0.508,0 -0.9144,-0.160866 -0.4064,-0.160867 -0.69426,-0.4572 -0.28787,-0.296334 -0.44874,-0.719667 -0.1524,-0.4318 -0.1524,-0.9652 0,-0.508 0.127,-0.931333 0.13547,-0.423334 0.38947,-0.728133 0.254,-0.3048 0.61807,-0.474134 0.37253,-0.169333 0.84666,-0.169333 0.381,0 0.66887,0.1016 0.29633,0.1016 0.44027,0.194733 z"
           style="font-style:normal;font-variant:normal;font-weight:normal;font-stretch:normal;font-size:8.46666622px;font-family:Ubuntu;-inkscape-font-specification:Ubuntu;fill:#ffffff;stroke-width:0.26458332"
           id="path8523"
           inkscape:connector-curvature="0" />
        <path
           d="m 627.26137,-28.73082 h -0.7874 v -4.402666 h 0.7874 z m -0.39794,-5.198533 q -0.21166,0 -0.36406,-0.135466 -0.14394,-0.143934 -0.14394,-0.381 0,-0.237067 0.14394,-0.372534 0.1524,-0.143933 0.36406,-0.143933 0.21167,0 0.3556,0.143933 0.1524,0.135467 0.1524,0.372534 0,0.237066 -0.1524,0.381 -0.14393,0.135466 -0.3556,0.135466 z"
           style="font-style:normal;font-variant:normal;font-weight:normal;font-stretch:normal;font-size:8.46666622px;font-family:Ubuntu;-inkscape-font-specification:Ubuntu;fill:#ffffff;stroke-width:0.26458332"
           id="path8525"
           inkscape:connector-curvature="0" />
        <path
           d="m 632.50991,-30.932153 q 0,0.524933 -0.1524,0.948267 -0.1524,0.423333 -0.4318,0.728133 -0.27094,0.3048 -0.65194,0.474133 -0.381,0.160867 -0.82973,0.160867 -0.44873,0 -0.82973,-0.160867 -0.381,-0.169333 -0.6604,-0.474133 -0.27094,-0.3048 -0.42334,-0.728133 -0.1524,-0.423334 -0.1524,-0.948267 0,-0.516467 0.1524,-0.9398 0.1524,-0.4318 0.42334,-0.7366 0.2794,-0.3048 0.6604,-0.465666 0.381,-0.169334 0.82973,-0.169334 0.44873,0 0.82973,0.169334 0.381,0.160866 0.65194,0.465666 0.2794,0.3048 0.4318,0.7366 0.1524,0.423333 0.1524,0.9398 z m -0.82127,0 q 0,-0.745067 -0.33867,-1.176867 -0.3302,-0.440266 -0.90593,-0.440266 -0.57573,0 -0.9144,0.440266 -0.3302,0.4318 -0.3302,1.176867 0,0.745067 0.3302,1.185333 0.33867,0.4318 0.9144,0.4318 0.57573,0 0.90593,-0.4318 0.33867,-0.440266 0.33867,-1.185333 z"
           style="font-style:normal;font-variant:normal;font-weight:normal;font-stretch:normal;font-size:8.46666622px;font-family:Ubuntu;-inkscape-font-specification:Ubuntu;fill:#ffffff;stroke-width:0.26458332"
           id="path8527"
           inkscape:connector-curvature="0" />
        <path
           d="m 637.19462,-33.226619 q 0.1016,0 0.2286,0.01693 0.13547,0.0085 0.26247,0.03387 0.127,0.01693 0.2286,0.04233 0.11006,0.01693 0.16086,0.03387 l -0.13546,0.685799 q -0.0931,-0.03387 -0.31327,-0.0762 -0.21167,-0.0508 -0.55033,-0.0508 -0.22014,0 -0.44027,0.0508 -0.21167,0.04233 -0.2794,0.05927 v 3.699933 h -0.7874 v -4.216399 q 0.2794,-0.1016 0.69427,-0.186267 0.41486,-0.09313 0.93133,-0.09313 z"
           style="font-style:normal;font-variant:normal;font-weight:normal;font-stretch:normal;font-size:8.46666622px;font-family:Ubuntu;-inkscape-font-specification:Ubuntu;fill:#ffffff;stroke-width:0.26458332"
           id="path8529"
           inkscape:connector-curvature="0" />
        <path
           d="m 639.63064,-28.73082 h -0.7874 v -4.402666 h 0.7874 z m -0.39794,-5.198533 q -0.21166,0 -0.36406,-0.135466 -0.14394,-0.143934 -0.14394,-0.381 0,-0.237067 0.14394,-0.372534 0.1524,-0.143933 0.36406,-0.143933 0.21167,0 0.3556,0.143933 0.1524,0.135467 0.1524,0.372534 0,0.237066 -0.1524,0.381 -0.14393,0.135466 -0.3556,0.135466 z"
           style="font-style:normal;font-variant:normal;font-weight:normal;font-stretch:normal;font-size:8.46666622px;font-family:Ubuntu;-inkscape-font-specification:Ubuntu;fill:#ffffff;stroke-width:0.26458332"
           id="path8531"
           inkscape:connector-curvature="0" />
        <path
           d="m 642.01744,-29.298086 q 0.4826,0 0.7112,-0.127 0.23707,-0.127 0.23707,-0.4064 0,-0.287867 -0.2286,-0.4572 -0.2286,-0.169334 -0.75353,-0.381 -0.254,-0.1016 -0.49107,-0.2032 -0.2286,-0.110067 -0.39793,-0.254 -0.16934,-0.143934 -0.27094,-0.347134 -0.1016,-0.2032 -0.1016,-0.499533 0,-0.5842 0.4318,-0.922866 0.4318,-0.347134 1.17687,-0.347134 0.18627,0 0.37253,0.0254 0.18627,0.01693 0.34714,0.0508 0.16086,0.0254 0.2794,0.05927 0.127,0.03387 0.19473,0.05927 l -0.14393,0.677333 q -0.127,-0.06773 -0.39794,-0.135467 -0.27093,-0.0762 -0.65193,-0.0762 -0.3302,0 -0.57573,0.135467 -0.24554,0.127 -0.24554,0.4064 0,0.143933 0.0508,0.254 0.0593,0.110066 0.16934,0.2032 0.11853,0.08467 0.28786,0.160866 0.16934,0.0762 0.4064,0.160867 0.31327,0.118533 0.5588,0.237067 0.24554,0.110066 0.41487,0.262466 0.1778,0.1524 0.27093,0.372534 0.0931,0.211666 0.0931,0.524933 0,0.6096 -0.4572,0.922867 -0.44874,0.313266 -1.28694,0.313266 -0.5842,0 -0.9144,-0.1016 -0.3302,-0.09313 -0.44873,-0.143933 l 0.14393,-0.677333 q 0.13547,0.0508 0.4318,0.1524 0.29634,0.1016 0.7874,0.1016 z"
           style="font-style:normal;font-variant:normal;font-weight:normal;font-stretch:normal;font-size:8.46666622px;font-family:Ubuntu;-inkscape-font-specification:Ubuntu;fill:#ffffff;stroke-width:0.26458332"
           id="path8533"
           inkscape:connector-curvature="0" />
        <path
           d="m 646.67676,-28.62922 q -0.5334,0 -0.9398,-0.169333 -0.39794,-0.169333 -0.67734,-0.474133 -0.27093,-0.3048 -0.4064,-0.719667 -0.13546,-0.423333 -0.13546,-0.931333 0,-0.508 0.14393,-0.931334 0.1524,-0.423333 0.42333,-0.728133 0.27094,-0.313266 0.6604,-0.4826 0.39794,-0.1778 0.88054,-0.1778 0.29633,0 0.59266,0.0508 0.29634,0.0508 0.56727,0.160867 l -0.1778,0.668866 q -0.1778,-0.08467 -0.41487,-0.135466 -0.2286,-0.0508 -0.49106,-0.0508 -0.6604,0 -1.016,0.414866 -0.34714,0.414867 -0.34714,1.210734 0,0.3556 0.0762,0.651933 0.0847,0.296333 0.254,0.508 0.1778,0.211667 0.44874,0.3302 0.27093,0.110067 0.6604,0.110067 0.31326,0 0.56726,-0.05927 0.254,-0.05927 0.39794,-0.127 l 0.11006,0.6604 q -0.0677,0.04233 -0.19473,0.08467 -0.127,0.03387 -0.28787,0.05927 -0.16086,0.03387 -0.34713,0.0508 -0.1778,0.0254 -0.34713,0.0254 z"
           style="font-style:normal;font-variant:normal;font-weight:normal;font-stretch:normal;font-size:8.46666622px;font-family:Ubuntu;-inkscape-font-specification:Ubuntu;fill:#ffffff;stroke-width:0.26458332"
           id="path8535"
           inkscape:connector-curvature="0" />
        <path
           d="m 652.46941,-30.932153 q 0,0.524933 -0.1524,0.948267 -0.1524,0.423333 -0.4318,0.728133 -0.27093,0.3048 -0.65193,0.474133 -0.381,0.160867 -0.82974,0.160867 -0.44873,0 -0.82973,-0.160867 -0.381,-0.169333 -0.6604,-0.474133 -0.27093,-0.3048 -0.42333,-0.728133 -0.1524,-0.423334 -0.1524,-0.948267 0,-0.516467 0.1524,-0.9398 0.1524,-0.4318 0.42333,-0.7366 0.2794,-0.3048 0.6604,-0.465666 0.381,-0.169334 0.82973,-0.169334 0.44874,0 0.82974,0.169334 0.381,0.160866 0.65193,0.465666 0.2794,0.3048 0.4318,0.7366 0.1524,0.423333 0.1524,0.9398 z m -0.82127,0 q 0,-0.745067 -0.33866,-1.176867 -0.3302,-0.440266 -0.90594,-0.440266 -0.57573,0 -0.9144,0.440266 -0.3302,0.4318 -0.3302,1.176867 0,0.745067 0.3302,1.185333 0.33867,0.4318 0.9144,0.4318 0.57574,0 0.90594,-0.4318 0.33866,-0.440266 0.33866,-1.185333 z"
           style="font-style:normal;font-variant:normal;font-weight:normal;font-stretch:normal;font-size:8.46666622px;font-family:Ubuntu;-inkscape-font-specification:Ubuntu;fill:#ffffff;stroke-width:0.26458332"
           id="path8537"
           inkscape:connector-curvature="0" />
      </g>
      <g
         aria-label="Baixo risco"
         style="font-style:normal;font-variant:normal;font-weight:normal;font-stretch:normal;font-size:6.70277786px;line-height:1.25;font-family:Roboto;-inkscape-font-specification:Roboto;letter-spacing:0px;word-spacing:0px;fill:#b3b3b3;fill-opacity:1;stroke:none;stroke-width:0.26458332"
         id="text6679-3-6-4">
        <path
           d="m 539.58748,-27.763011 q -0.15558,0 -0.34079,-0.0074 -0.1778,-0.0074 -0.363,-0.02222 -0.1778,-0.01482 -0.3556,-0.03704 -0.1778,-0.02223 -0.32597,-0.05927 v -4.9784 q 0.14817,-0.03704 0.32597,-0.05927 0.1778,-0.02222 0.3556,-0.03704 0.1852,-0.01482 0.363,-0.02222 0.1778,-0.0074 0.33338,-0.0074 0.4445,0 0.82973,0.06667 0.39264,0.06668 0.67416,0.229658 0.28893,0.155575 0.45191,0.414867 0.16298,0.259292 0.16298,0.637117 0,0.422275 -0.20002,0.696383 -0.20003,0.2667 -0.5334,0.40005 0.45191,0.13335 0.71861,0.422275 0.2667,0.288925 0.2667,0.814917 0,0.770466 -0.57045,1.163108 -0.56303,0.385233 -1.79281,0.385233 z m -0.67416,-2.437341 v 1.807633 q 0.0815,0.0074 0.19262,0.01482 0.0963,0.0074 0.22225,0.01482 0.13335,0 0.30374,0 0.31856,0 0.60007,-0.03704 0.28893,-0.04445 0.50377,-0.148167 0.21484,-0.103717 0.34078,-0.288925 0.13335,-0.185208 0.13335,-0.466725 0,-0.251883 -0.0963,-0.422275 -0.0963,-0.1778 -0.28151,-0.281517 -0.1778,-0.103716 -0.42969,-0.148166 -0.25188,-0.04445 -0.56303,-0.04445 z m 0,-0.57785 h 0.75565 q 0.2667,0 0.50377,-0.03704 0.23706,-0.03704 0.40745,-0.13335 0.1778,-0.09631 0.27411,-0.251883 0.10372,-0.155575 0.10372,-0.392642 0,-0.22225 -0.10372,-0.370417 -0.10371,-0.155575 -0.28892,-0.244475 -0.1778,-0.09631 -0.42228,-0.140758 -0.24447,-0.04445 -0.51858,-0.04445 -0.27411,0 -0.42968,0.0074 -0.15558,0.0074 -0.28152,0.02222 z"
           style="font-style:normal;font-variant:normal;font-weight:normal;font-stretch:normal;font-size:7.4083333px;font-family:Ubuntu;-inkscape-font-specification:Ubuntu;fill:#b3b3b3;stroke-width:0.26458332"
           id="path8540"
           inkscape:connector-curvature="0" />
        <path
           d="m 544.22197,-28.303819 q 0.24447,0 0.42968,-0.0074 0.19262,-0.01482 0.31856,-0.04445 v -1.148292 q -0.0741,-0.03704 -0.24447,-0.05927 -0.16299,-0.02963 -0.40005,-0.02963 -0.15558,0 -0.33338,0.02222 -0.17039,0.02223 -0.31856,0.09631 -0.14076,0.06668 -0.23706,0.192617 -0.0963,0.118533 -0.0963,0.318558 0,0.370417 0.23706,0.518584 0.23707,0.140758 0.64453,0.140758 z m -0.0593,-3.452283 q 0.41487,0 0.69639,0.111125 0.28892,0.103716 0.45931,0.303741 0.1778,0.192617 0.25189,0.466725 0.0741,0.2667 0.0741,0.592667 v 2.407708 q -0.0889,0.01482 -0.25188,0.04445 -0.15558,0.02222 -0.3556,0.04445 -0.20003,0.02223 -0.4371,0.03704 -0.22965,0.02223 -0.45931,0.02223 -0.32597,0 -0.60008,-0.06668 -0.27411,-0.06668 -0.47413,-0.207433 -0.20003,-0.148167 -0.31115,-0.385234 -0.11113,-0.237066 -0.11113,-0.570441 0,-0.318559 0.12595,-0.548217 0.13335,-0.229658 0.3556,-0.370417 0.22225,-0.140758 0.51858,-0.207433 0.29633,-0.06668 0.6223,-0.06668 0.10372,0 0.21484,0.01482 0.11113,0.0074 0.20743,0.02963 0.10372,0.01482 0.1778,0.02963 0.0741,0.01482 0.10372,0.02223 v -0.192616 q 0,-0.170392 -0.037,-0.333375 -0.037,-0.170392 -0.13335,-0.296334 -0.0963,-0.13335 -0.2667,-0.207433 -0.16298,-0.08149 -0.42968,-0.08149 -0.34079,0 -0.60008,0.05186 -0.25188,0.04445 -0.37782,0.09631 l -0.0815,-0.570442 q 0.13335,-0.05927 0.4445,-0.111125 0.31115,-0.05927 0.67416,-0.05927 z"
           style="font-style:normal;font-variant:normal;font-weight:normal;font-stretch:normal;font-size:7.4083333px;font-family:Ubuntu;-inkscape-font-specification:Ubuntu;fill:#b3b3b3;stroke-width:0.26458332"
           id="path8542"
           inkscape:connector-curvature="0" />
        <path
           d="m 547.47041,-27.807461 h -0.68898 v -3.852333 h 0.68898 z m -0.34819,-4.548716 q -0.18521,0 -0.31856,-0.118534 -0.12594,-0.125941 -0.12594,-0.333375 0,-0.207433 0.12594,-0.325966 0.13335,-0.125942 0.31856,-0.125942 0.1852,0 0.31115,0.125942 0.13335,0.118533 0.13335,0.325966 0,0.207434 -0.13335,0.333375 -0.12595,0.118534 -0.31115,0.118534 z"
           style="font-style:normal;font-variant:normal;font-weight:normal;font-stretch:normal;font-size:7.4083333px;font-family:Ubuntu;-inkscape-font-specification:Ubuntu;fill:#b3b3b3;stroke-width:0.26458332"
           id="path8544"
           inkscape:connector-curvature="0" />
        <path
           d="m 550.96645,-27.807461 q -0.0815,-0.162983 -0.20003,-0.363008 -0.11853,-0.200025 -0.25929,-0.407458 -0.14076,-0.214842 -0.28893,-0.422275 -0.14816,-0.207434 -0.28892,-0.392642 -0.14076,0.185208 -0.28893,0.40005 -0.14816,0.207433 -0.28892,0.422275 -0.13335,0.207433 -0.25188,0.407458 -0.11854,0.200025 -0.20003,0.3556 h -0.7112 q 0.25929,-0.503766 0.61489,-1.02235 0.36301,-0.525991 0.71861,-1.000125 l -1.27423,-1.829858 h 0.77787 l 0.91864,1.348317 0.92604,-1.348317 h 0.73342 l -1.2446,1.785408 q 0.3556,0.481542 0.72602,1.02235 0.37782,0.5334 0.63712,1.044575 z"
           style="font-style:normal;font-variant:normal;font-weight:normal;font-stretch:normal;font-size:7.4083333px;font-family:Ubuntu;-inkscape-font-specification:Ubuntu;fill:#b3b3b3;stroke-width:0.26458332"
           id="path8546"
           inkscape:connector-curvature="0" />
        <path
           d="m 555.6947,-29.733627 q 0,0.459316 -0.13335,0.829733 -0.13335,0.370417 -0.37783,0.637117 -0.23706,0.2667 -0.57044,0.414866 -0.33337,0.140759 -0.72601,0.140759 -0.39265,0 -0.72602,-0.140759 -0.33338,-0.148166 -0.57785,-0.414866 -0.23707,-0.2667 -0.37042,-0.637117 -0.13335,-0.370417 -0.13335,-0.829733 0,-0.451909 0.13335,-0.822325 0.13335,-0.377825 0.37042,-0.644525 0.24447,-0.2667 0.57785,-0.407459 0.33337,-0.148166 0.72602,-0.148166 0.39264,0 0.72601,0.148166 0.33338,0.140759 0.57044,0.407459 0.24448,0.2667 0.37783,0.644525 0.13335,0.370416 0.13335,0.822325 z m -0.71861,0 q 0,-0.651934 -0.29633,-1.029759 -0.28893,-0.385233 -0.79269,-0.385233 -0.50377,0 -0.8001,0.385233 -0.28893,0.377825 -0.28893,1.029759 0,0.651933 0.28893,1.037166 0.29633,0.377825 0.8001,0.377825 0.50376,0 0.79269,-0.377825 0.29633,-0.385233 0.29633,-1.037166 z"
           style="font-style:normal;font-variant:normal;font-weight:normal;font-stretch:normal;font-size:7.4083333px;font-family:Ubuntu;-inkscape-font-specification:Ubuntu;fill:#b3b3b3;stroke-width:0.26458332"
           id="path8548"
           inkscape:connector-curvature="0" />
        <path
           d="m 559.79382,-31.741286 q 0.0889,0 0.20003,0.01482 0.11853,0.0074 0.22966,0.02963 0.11112,0.01482 0.20002,0.03704 0.0963,0.01482 0.14076,0.02963 l -0.11853,0.600075 q -0.0815,-0.02963 -0.27411,-0.06668 -0.18521,-0.04445 -0.48154,-0.04445 -0.19262,0 -0.38524,0.04445 -0.18521,0.03704 -0.24447,0.05186 v 3.237441 h -0.68898 v -3.68935 q 0.24448,-0.0889 0.60749,-0.162983 0.363,-0.08149 0.81491,-0.08149 z"
           style="font-style:normal;font-variant:normal;font-weight:normal;font-stretch:normal;font-size:7.4083333px;font-family:Ubuntu;-inkscape-font-specification:Ubuntu;fill:#b3b3b3;stroke-width:0.26458332"
           id="path8550"
           inkscape:connector-curvature="0" />
        <path
           d="m 561.92534,-27.807461 h -0.68898 v -3.852333 h 0.68898 z m -0.34819,-4.548716 q -0.18521,0 -0.31856,-0.118534 -0.12594,-0.125941 -0.12594,-0.333375 0,-0.207433 0.12594,-0.325966 0.13335,-0.125942 0.31856,-0.125942 0.18521,0 0.31115,0.125942 0.13335,0.118533 0.13335,0.325966 0,0.207434 -0.13335,0.333375 -0.12594,0.118534 -0.31115,0.118534 z"
           style="font-style:normal;font-variant:normal;font-weight:normal;font-stretch:normal;font-size:7.4083333px;font-family:Ubuntu;-inkscape-font-specification:Ubuntu;fill:#b3b3b3;stroke-width:0.26458332"
           id="path8552"
           inkscape:connector-curvature="0" />
        <path
           d="m 564.01379,-28.303819 q 0.42228,0 0.6223,-0.111125 0.20744,-0.111125 0.20744,-0.3556 0,-0.251883 -0.20003,-0.40005 -0.20002,-0.148167 -0.65934,-0.333375 -0.22225,-0.0889 -0.42968,-0.1778 -0.20003,-0.09631 -0.34819,-0.22225 -0.14817,-0.125942 -0.23707,-0.303742 -0.0889,-0.1778 -0.0889,-0.437091 0,-0.511175 0.37782,-0.807509 0.37783,-0.303741 1.02976,-0.303741 0.16299,0 0.32597,0.02222 0.16298,0.01482 0.30374,0.04445 0.14076,0.02222 0.24448,0.05186 0.11112,0.02963 0.17039,0.05186 l -0.12594,0.592667 q -0.11113,-0.05927 -0.3482,-0.118533 -0.23706,-0.06668 -0.57044,-0.06668 -0.28892,0 -0.50376,0.118533 -0.21485,0.111125 -0.21485,0.3556 0,0.125942 0.0444,0.22225 0.0519,0.09631 0.14817,0.1778 0.10372,0.07408 0.25188,0.140758 0.14817,0.06668 0.3556,0.140759 0.27411,0.103716 0.48895,0.207433 0.21485,0.09631 0.36301,0.229658 0.15558,0.13335 0.23707,0.325967 0.0815,0.185208 0.0815,0.459317 0,0.5334 -0.40005,0.807508 -0.39264,0.274108 -1.12607,0.274108 -0.51117,0 -0.8001,-0.0889 -0.28892,-0.08149 -0.39264,-0.125941 l 0.12594,-0.592667 q 0.11854,0.04445 0.37783,0.13335 0.25929,0.0889 0.68897,0.0889 z"
           style="font-style:normal;font-variant:normal;font-weight:normal;font-stretch:normal;font-size:7.4083333px;font-family:Ubuntu;-inkscape-font-specification:Ubuntu;fill:#b3b3b3;stroke-width:0.26458332"
           id="path8554"
           inkscape:connector-curvature="0" />
        <path
           d="m 568.09069,-27.718561 q -0.46672,0 -0.82232,-0.148166 -0.34819,-0.148167 -0.59267,-0.414867 -0.23707,-0.2667 -0.3556,-0.629708 -0.11853,-0.370417 -0.11853,-0.814917 0,-0.4445 0.12594,-0.814917 0.13335,-0.370416 0.37042,-0.637116 0.23706,-0.274109 0.57785,-0.422275 0.34819,-0.155575 0.77046,-0.155575 0.25929,0 0.51859,0.04445 0.25929,0.04445 0.49635,0.140758 l -0.15557,0.585258 q -0.15558,-0.07408 -0.36301,-0.118533 -0.20002,-0.04445 -0.42968,-0.04445 -0.57785,0 -0.889,0.363008 -0.30374,0.363009 -0.30374,1.059392 0,0.31115 0.0667,0.570442 0.0741,0.259291 0.22225,0.4445 0.15558,0.185208 0.39264,0.288925 0.23707,0.09631 0.57785,0.09631 0.27411,0 0.49636,-0.05186 0.22225,-0.05186 0.34819,-0.111125 l 0.0963,0.57785 q -0.0593,0.03704 -0.17039,0.07408 -0.11113,0.02963 -0.25188,0.05186 -0.14076,0.02963 -0.30375,0.04445 -0.15557,0.02222 -0.30374,0.02222 z"
           style="font-style:normal;font-variant:normal;font-weight:normal;font-stretch:normal;font-size:7.4083333px;font-family:Ubuntu;-inkscape-font-specification:Ubuntu;fill:#b3b3b3;stroke-width:0.26458332"
           id="path8556"
           inkscape:connector-curvature="0" />
        <path
           d="m 573.15927,-29.733627 q 0,0.459316 -0.13335,0.829733 -0.13335,0.370417 -0.37783,0.637117 -0.23707,0.2667 -0.57044,0.414866 -0.33338,0.140759 -0.72602,0.140759 -0.39264,0 -0.72601,-0.140759 -0.33338,-0.148166 -0.57785,-0.414866 -0.23707,-0.2667 -0.37042,-0.637117 -0.13335,-0.370417 -0.13335,-0.829733 0,-0.451909 0.13335,-0.822325 0.13335,-0.377825 0.37042,-0.644525 0.24447,-0.2667 0.57785,-0.407459 0.33337,-0.148166 0.72601,-0.148166 0.39264,0 0.72602,0.148166 0.33337,0.140759 0.57044,0.407459 0.24448,0.2667 0.37783,0.644525 0.13335,0.370416 0.13335,0.822325 z m -0.71861,0 q 0,-0.651934 -0.29634,-1.029759 -0.28892,-0.385233 -0.79269,-0.385233 -0.50376,0 -0.8001,0.385233 -0.28892,0.377825 -0.28892,1.029759 0,0.651933 0.28892,1.037166 0.29634,0.377825 0.8001,0.377825 0.50377,0 0.79269,-0.377825 0.29634,-0.385233 0.29634,-1.037166 z"
           style="font-style:normal;font-variant:normal;font-weight:normal;font-stretch:normal;font-size:7.4083333px;font-family:Ubuntu;-inkscape-font-specification:Ubuntu;fill:#b3b3b3;stroke-width:0.26458332"
           id="path8558"
           inkscape:connector-curvature="0" />
      </g>
      <g
         aria-label="Médio alto"
         style="font-style:normal;font-variant:normal;font-weight:normal;font-stretch:normal;font-size:6.70277786px;line-height:1.25;font-family:Roboto;-inkscape-font-specification:Roboto;letter-spacing:0px;word-spacing:0px;fill:#b3b3b3;fill-opacity:1;stroke:none;stroke-width:0.26458332"
         id="text6679-3-6-4-3">
        <path
           d="m 687.16102,-28.518661 q -0.0741,-0.1778 -0.20003,-0.451908 -0.11853,-0.274108 -0.25929,-0.592667 -0.14076,-0.318558 -0.30374,-0.651933 -0.15558,-0.340783 -0.29633,-0.637117 -0.14076,-0.303741 -0.2667,-0.540808 -0.11854,-0.237067 -0.19262,-0.363008 -0.0815,0.874183 -0.13335,1.896533 -0.0519,1.014942 -0.0889,2.052108 h -0.70379 q 0.0296,-0.66675 0.0667,-1.340908 0.037,-0.681567 0.0815,-1.3335 0.0519,-0.659342 0.10372,-1.281642 0.0593,-0.6223 0.12594,-1.177925 h 0.62971 q 0.20003,0.325967 0.42968,0.770467 0.22966,0.4445 0.45932,0.93345 0.22966,0.481542 0.4445,0.970492 0.21484,0.481541 0.39264,0.881591 0.1778,-0.40005 0.39264,-0.881591 0.21485,-0.48895 0.4445,-0.970492 0.22966,-0.48895 0.45932,-0.93345 0.22966,-0.4445 0.42968,-0.770467 h 0.62971 q 0.25189,2.481792 0.37783,5.133975 h -0.70379 q -0.0371,-1.037166 -0.0889,-2.052108 -0.0519,-1.02235 -0.13335,-1.896533 -0.0741,0.125941 -0.20003,0.363008 -0.11853,0.237067 -0.25929,0.540808 -0.14076,0.296334 -0.30374,0.637117 -0.15558,0.333375 -0.29634,0.651933 -0.14075,0.318559 -0.2667,0.592667 -0.11853,0.274108 -0.19261,0.451908 z"
           style="font-style:normal;font-variant:normal;font-weight:normal;font-stretch:normal;font-size:7.4083333px;font-family:Ubuntu;-inkscape-font-specification:Ubuntu;fill:#b3b3b3;stroke-width:0.26458332"
           id="path8500"
           inkscape:connector-curvature="0" />
        <path
           d="m 691.05109,-29.726219 q 0,-0.511175 0.14816,-0.889 0.14817,-0.385233 0.39265,-0.637117 0.24447,-0.251883 0.56303,-0.377825 0.31856,-0.125941 0.65193,-0.125941 0.77788,0 1.19274,0.48895 0.41487,0.481541 0.41487,1.474258 0,0.04445 0,0.118533 0,0.06668 -0.007,0.125942 h -2.63736 q 0.0445,0.600075 0.34819,0.911225 0.30374,0.31115 0.94826,0.31115 0.36301,0 0.60749,-0.05927 0.25188,-0.06668 0.37782,-0.125941 l 0.0963,0.57785 q -0.12594,0.06668 -0.4445,0.140758 -0.31115,0.07408 -0.7112,0.07408 -0.50377,0 -0.87418,-0.148166 -0.36301,-0.155575 -0.60008,-0.422275 -0.23706,-0.2667 -0.3556,-0.629709 -0.11112,-0.370416 -0.11112,-0.807508 z m 2.64477,-0.377825 q 0.007,-0.466725 -0.23706,-0.763058 -0.23707,-0.303742 -0.65935,-0.303742 -0.23706,0 -0.42227,0.09631 -0.1778,0.0889 -0.30374,0.237067 -0.12594,0.148167 -0.20003,0.340783 -0.0667,0.192617 -0.0889,0.392642 z m -0.007,-3.015192 -1.04457,1.014942 -0.34819,-0.31115 0.94826,-1.140883 z"
           style="font-style:normal;font-variant:normal;font-weight:normal;font-stretch:normal;font-size:7.4083333px;font-family:Ubuntu;-inkscape-font-specification:Ubuntu;fill:#b3b3b3;stroke-width:0.26458332"
           id="path8502"
           inkscape:connector-curvature="0" />
        <path
           d="m 697.89338,-30.844877 q -0.12594,-0.103717 -0.36301,-0.200025 -0.23707,-0.09631 -0.51858,-0.09631 -0.29634,0 -0.51118,0.111125 -0.20743,0.103717 -0.34078,0.296334 -0.13335,0.185208 -0.19262,0.4445 -0.0593,0.259291 -0.0593,0.555625 0,0.674158 0.33338,1.044575 0.33337,0.363008 0.889,0.363008 0.28152,0 0.46672,-0.02222 0.19262,-0.02963 0.29634,-0.05927 z m 0,-2.592917 0.68897,-0.118533 v 5.637741 q -0.23706,0.06668 -0.60748,0.13335 -0.37042,0.06668 -0.85196,0.06668 -0.4445,0 -0.8001,-0.140758 -0.3556,-0.140758 -0.60748,-0.40005 -0.25189,-0.259292 -0.39264,-0.629708 -0.13335,-0.377825 -0.13335,-0.84455 0,-0.4445 0.11112,-0.814917 0.11853,-0.370417 0.34078,-0.637117 0.22225,-0.2667 0.54081,-0.414866 0.32597,-0.148167 0.74084,-0.148167 0.33337,0 0.58525,0.0889 0.2593,0.0889 0.38524,0.170392 z"
           style="font-style:normal;font-variant:normal;font-weight:normal;font-stretch:normal;font-size:7.4083333px;font-family:Ubuntu;-inkscape-font-specification:Ubuntu;fill:#b3b3b3;stroke-width:0.26458332"
           id="path8504"
           inkscape:connector-curvature="0" />
        <path
           d="m 700.46291,-27.807461 h -0.68897 v -3.852333 h 0.68897 z m -0.34819,-4.548716 q -0.18521,0 -0.31856,-0.118534 -0.12594,-0.125941 -0.12594,-0.333375 0,-0.207433 0.12594,-0.325966 0.13335,-0.125942 0.31856,-0.125942 0.18521,0 0.31115,0.125942 0.13335,0.118533 0.13335,0.325966 0,0.207434 -0.13335,0.333375 -0.12594,0.118534 -0.31115,0.118534 z"
           style="font-style:normal;font-variant:normal;font-weight:normal;font-stretch:normal;font-size:7.4083333px;font-family:Ubuntu;-inkscape-font-specification:Ubuntu;fill:#b3b3b3;stroke-width:0.26458332"
           id="path8506"
           inkscape:connector-curvature="0" />
        <path
           d="m 705.05538,-29.733627 q 0,0.459316 -0.13335,0.829733 -0.13335,0.370417 -0.37782,0.637117 -0.23707,0.2667 -0.57044,0.414866 -0.33338,0.140759 -0.72602,0.140759 -0.39264,0 -0.72602,-0.140759 -0.33337,-0.148166 -0.57785,-0.414866 -0.23706,-0.2667 -0.37041,-0.637117 -0.13335,-0.370417 -0.13335,-0.829733 0,-0.451909 0.13335,-0.822325 0.13335,-0.377825 0.37041,-0.644525 0.24448,-0.2667 0.57785,-0.407459 0.33338,-0.148166 0.72602,-0.148166 0.39264,0 0.72602,0.148166 0.33337,0.140759 0.57044,0.407459 0.24447,0.2667 0.37782,0.644525 0.13335,0.370416 0.13335,0.822325 z m -0.7186,0 q 0,-0.651934 -0.29634,-1.029759 -0.28892,-0.385233 -0.79269,-0.385233 -0.50377,0 -0.8001,0.385233 -0.28892,0.377825 -0.28892,1.029759 0,0.651933 0.28892,1.037166 0.29633,0.377825 0.8001,0.377825 0.50377,0 0.79269,-0.377825 0.29634,-0.385233 0.29634,-1.037166 z"
           style="font-style:normal;font-variant:normal;font-weight:normal;font-stretch:normal;font-size:7.4083333px;font-family:Ubuntu;-inkscape-font-specification:Ubuntu;fill:#b3b3b3;stroke-width:0.26458332"
           id="path8508"
           inkscape:connector-curvature="0" />
        <path
           d="m 709.03597,-28.303819 q 0.24448,0 0.42969,-0.0074 0.19261,-0.01482 0.31856,-0.04445 v -1.148292 q -0.0741,-0.03704 -0.24448,-0.05927 -0.16298,-0.02963 -0.40005,-0.02963 -0.15557,0 -0.33337,0.02222 -0.1704,0.02223 -0.31856,0.09631 -0.14076,0.06668 -0.23707,0.192617 -0.0963,0.118533 -0.0963,0.318558 0,0.370417 0.23707,0.518584 0.23707,0.140758 0.64452,0.140758 z m -0.0593,-3.452283 q 0.41486,0 0.69638,0.111125 0.28893,0.103716 0.45932,0.303741 0.1778,0.192617 0.25188,0.466725 0.0741,0.2667 0.0741,0.592667 v 2.407708 q -0.0889,0.01482 -0.25188,0.04445 -0.15557,0.02222 -0.3556,0.04445 -0.20002,0.02223 -0.43709,0.03704 -0.22966,0.02223 -0.45932,0.02223 -0.32596,0 -0.60007,-0.06668 -0.27411,-0.06668 -0.47414,-0.207433 -0.20002,-0.148167 -0.31115,-0.385234 -0.11112,-0.237066 -0.11112,-0.570441 0,-0.318559 0.12594,-0.548217 0.13335,-0.229658 0.3556,-0.370417 0.22225,-0.140758 0.51858,-0.207433 0.29634,-0.06668 0.6223,-0.06668 0.10372,0 0.21485,0.01482 0.11112,0.0074 0.20743,0.02963 0.10372,0.01482 0.1778,0.02963 0.0741,0.01482 0.10372,0.02223 v -0.192616 q 0,-0.170392 -0.0371,-0.333375 -0.037,-0.170392 -0.13335,-0.296334 -0.0963,-0.13335 -0.2667,-0.207433 -0.16298,-0.08149 -0.42968,-0.08149 -0.34078,0 -0.60007,0.05186 -0.25189,0.04445 -0.37783,0.09631 l -0.0815,-0.570442 q 0.13335,-0.05927 0.4445,-0.111125 0.31115,-0.05927 0.67416,-0.05927 z"
           style="font-style:normal;font-variant:normal;font-weight:normal;font-stretch:normal;font-size:7.4083333px;font-family:Ubuntu;-inkscape-font-specification:Ubuntu;fill:#b3b3b3;stroke-width:0.26458332"
           id="path8510"
           inkscape:connector-curvature="0" />
        <path
           d="m 712.75114,-27.733377 q -0.63712,-0.01482 -0.90382,-0.274109 -0.2667,-0.259291 -0.2667,-0.807508 v -4.6228 l 0.68898,-0.118533 v 4.630208 q 0,0.170392 0.0296,0.281517 0.0296,0.111125 0.0963,0.1778 0.0667,0.06668 0.1778,0.103716 0.11112,0.02963 0.27411,0.05186 z"
           style="font-style:normal;font-variant:normal;font-weight:normal;font-stretch:normal;font-size:7.4083333px;font-family:Ubuntu;-inkscape-font-specification:Ubuntu;fill:#b3b3b3;stroke-width:0.26458332"
           id="path8512"
           inkscape:connector-curvature="0" />
        <path
           d="m 714.26568,-31.659794 h 1.45944 v 0.57785 h -1.45944 v 1.778 q 0,0.288925 0.0444,0.481542 0.0445,0.185208 0.13335,0.296333 0.0889,0.103717 0.22225,0.148167 0.13335,0.04445 0.31115,0.04445 0.31115,0 0.49636,-0.06668 0.19261,-0.07408 0.2667,-0.103717 l 0.13335,0.570442 q -0.10372,0.05186 -0.36301,0.125941 -0.25929,0.08149 -0.59267,0.08149 -0.39264,0 -0.65193,-0.09631 -0.25189,-0.103717 -0.40746,-0.303742 -0.15558,-0.200025 -0.22225,-0.48895 -0.0593,-0.296333 -0.0593,-0.681567 v -3.437466 l 0.68898,-0.118534 z"
           style="font-style:normal;font-variant:normal;font-weight:normal;font-stretch:normal;font-size:7.4083333px;font-family:Ubuntu;-inkscape-font-specification:Ubuntu;fill:#b3b3b3;stroke-width:0.26458332"
           id="path8514"
           inkscape:connector-curvature="0" />
        <path
           d="m 719.90099,-29.733627 q 0,0.459316 -0.13335,0.829733 -0.13335,0.370417 -0.37783,0.637117 -0.23706,0.2667 -0.57044,0.414866 -0.33337,0.140759 -0.72601,0.140759 -0.39265,0 -0.72602,-0.140759 -0.33338,-0.148166 -0.57785,-0.414866 -0.23707,-0.2667 -0.37042,-0.637117 -0.13335,-0.370417 -0.13335,-0.829733 0,-0.451909 0.13335,-0.822325 0.13335,-0.377825 0.37042,-0.644525 0.24447,-0.2667 0.57785,-0.407459 0.33337,-0.148166 0.72602,-0.148166 0.39264,0 0.72601,0.148166 0.33338,0.140759 0.57044,0.407459 0.24448,0.2667 0.37783,0.644525 0.13335,0.370416 0.13335,0.822325 z m -0.71861,0 q 0,-0.651934 -0.29633,-1.029759 -0.28893,-0.385233 -0.79269,-0.385233 -0.50377,0 -0.8001,0.385233 -0.28893,0.377825 -0.28893,1.029759 0,0.651933 0.28893,1.037166 0.29633,0.377825 0.8001,0.377825 0.50376,0 0.79269,-0.377825 0.29633,-0.385233 0.29633,-1.037166 z"
           style="font-style:normal;font-variant:normal;font-weight:normal;font-stretch:normal;font-size:7.4083333px;font-family:Ubuntu;-inkscape-font-specification:Ubuntu;fill:#b3b3b3;stroke-width:0.26458332"
           id="path8516"
           inkscape:connector-curvature="0" />
      </g>
      <g
         aria-label="Alto risco"
         style="font-style:normal;font-variant:normal;font-weight:normal;font-stretch:normal;font-size:6.70277786px;line-height:1.25;font-family:Roboto;-inkscape-font-specification:Roboto;letter-spacing:0px;word-spacing:0px;fill:#b3b3b3;fill-opacity:1;stroke:none;stroke-width:0.26458332"
         id="text6679-3-6-4-3-8">
        <path
           d="m 763.38492,-27.807461 q -0.12594,-0.333375 -0.23706,-0.651933 -0.11113,-0.325967 -0.22966,-0.659342 h -2.32622 l -0.46672,1.311275 h -0.74824 q 0.29633,-0.814916 0.55562,-1.503891 0.25929,-0.696384 0.50377,-1.318684 0.25188,-0.6223 0.49636,-1.185333 0.24447,-0.570442 0.51117,-1.126067 h 0.65934 q 0.2667,0.555625 0.51118,1.126067 0.24447,0.563033 0.48895,1.185333 0.25188,0.6223 0.51117,1.318684 0.25929,0.688975 0.55563,1.503891 z m -0.67415,-1.903941 q -0.23707,-0.644525 -0.47414,-1.2446 -0.22966,-0.607484 -0.48154,-1.163109 -0.25929,0.555625 -0.49636,1.163109 -0.22966,0.600075 -0.45931,1.2446 z"
           style="font-style:normal;font-variant:normal;font-weight:normal;font-stretch:normal;font-size:7.4083333px;font-family:Ubuntu;-inkscape-font-specification:Ubuntu;fill:#b3b3b3;stroke-width:0.26458332"
           id="path8481"
           inkscape:connector-curvature="0" />
        <path
           d="m 765.97124,-27.733377 q -0.63711,-0.01482 -0.90381,-0.274109 -0.2667,-0.259291 -0.2667,-0.807508 v -4.6228 l 0.68897,-0.118533 v 4.630208 q 0,0.170392 0.0296,0.281517 0.0296,0.111125 0.0963,0.1778 0.0667,0.06668 0.1778,0.103716 0.11113,0.02963 0.27411,0.05186 z"
           style="font-style:normal;font-variant:normal;font-weight:normal;font-stretch:normal;font-size:7.4083333px;font-family:Ubuntu;-inkscape-font-specification:Ubuntu;fill:#b3b3b3;stroke-width:0.26458332"
           id="path8483"
           inkscape:connector-curvature="0" />
        <path
           d="m 767.48578,-31.659794 h 1.45945 v 0.57785 h -1.45945 v 1.778 q 0,0.288925 0.0444,0.481542 0.0444,0.185208 0.13335,0.296333 0.0889,0.103717 0.22225,0.148167 0.13335,0.04445 0.31115,0.04445 0.31115,0 0.49636,-0.06668 0.19262,-0.07408 0.2667,-0.103717 l 0.13335,0.570442 q -0.10371,0.05186 -0.36301,0.125941 -0.25929,0.08149 -0.59266,0.08149 -0.39264,0 -0.65194,-0.09631 -0.25188,-0.103717 -0.40745,-0.303742 -0.15558,-0.200025 -0.22225,-0.48895 -0.0593,-0.296333 -0.0593,-0.681567 v -3.437466 l 0.68897,-0.118534 z"
           style="font-style:normal;font-variant:normal;font-weight:normal;font-stretch:normal;font-size:7.4083333px;font-family:Ubuntu;-inkscape-font-specification:Ubuntu;fill:#b3b3b3;stroke-width:0.26458332"
           id="path8485"
           inkscape:connector-curvature="0" />
        <path
           d="m 773.12109,-29.733627 q 0,0.459316 -0.13335,0.829733 -0.13335,0.370417 -0.37782,0.637117 -0.23707,0.2667 -0.57044,0.414866 -0.33338,0.140759 -0.72602,0.140759 -0.39264,0 -0.72602,-0.140759 -0.33337,-0.148166 -0.57785,-0.414866 -0.23706,-0.2667 -0.37041,-0.637117 -0.13335,-0.370417 -0.13335,-0.829733 0,-0.451909 0.13335,-0.822325 0.13335,-0.377825 0.37041,-0.644525 0.24448,-0.2667 0.57785,-0.407459 0.33338,-0.148166 0.72602,-0.148166 0.39264,0 0.72602,0.148166 0.33337,0.140759 0.57044,0.407459 0.24447,0.2667 0.37782,0.644525 0.13335,0.370416 0.13335,0.822325 z m -0.7186,0 q 0,-0.651934 -0.29634,-1.029759 -0.28892,-0.385233 -0.79269,-0.385233 -0.50377,0 -0.8001,0.385233 -0.28892,0.377825 -0.28892,1.029759 0,0.651933 0.28892,1.037166 0.29633,0.377825 0.8001,0.377825 0.50377,0 0.79269,-0.377825 0.29634,-0.385233 0.29634,-1.037166 z"
           style="font-style:normal;font-variant:normal;font-weight:normal;font-stretch:normal;font-size:7.4083333px;font-family:Ubuntu;-inkscape-font-specification:Ubuntu;fill:#b3b3b3;stroke-width:0.26458332"
           id="path8487"
           inkscape:connector-curvature="0" />
        <path
           d="m 777.22022,-31.741286 q 0.0889,0 0.20002,0.01482 0.11854,0.0074 0.22966,0.02963 0.11113,0.01482 0.20003,0.03704 0.0963,0.01482 0.14075,0.02963 l -0.11853,0.600075 q -0.0815,-0.02963 -0.27411,-0.06668 -0.18521,-0.04445 -0.48154,-0.04445 -0.19262,0 -0.38523,0.04445 -0.18521,0.03704 -0.24448,0.05186 v 3.237441 h -0.68897 v -3.68935 q 0.24447,-0.0889 0.60748,-0.162983 0.36301,-0.08149 0.81492,-0.08149 z"
           style="font-style:normal;font-variant:normal;font-weight:normal;font-stretch:normal;font-size:7.4083333px;font-family:Ubuntu;-inkscape-font-specification:Ubuntu;fill:#b3b3b3;stroke-width:0.26458332"
           id="path8489"
           inkscape:connector-curvature="0" />
        <path
           d="m 779.35173,-27.807461 h -0.68897 v -3.852333 h 0.68897 z m -0.34819,-4.548716 q -0.18521,0 -0.31856,-0.118534 -0.12594,-0.125941 -0.12594,-0.333375 0,-0.207433 0.12594,-0.325966 0.13335,-0.125942 0.31856,-0.125942 0.18521,0 0.31115,0.125942 0.13335,0.118533 0.13335,0.325966 0,0.207434 -0.13335,0.333375 -0.12594,0.118534 -0.31115,0.118534 z"
           style="font-style:normal;font-variant:normal;font-weight:normal;font-stretch:normal;font-size:7.4083333px;font-family:Ubuntu;-inkscape-font-specification:Ubuntu;fill:#b3b3b3;stroke-width:0.26458332"
           id="path8491"
           inkscape:connector-curvature="0" />
        <path
           d="m 781.44019,-28.303819 q 0.42227,0 0.6223,-0.111125 0.20743,-0.111125 0.20743,-0.3556 0,-0.251883 -0.20002,-0.40005 -0.20003,-0.148167 -0.65934,-0.333375 -0.22225,-0.0889 -0.42969,-0.1778 -0.20002,-0.09631 -0.34819,-0.22225 -0.14817,-0.125942 -0.23707,-0.303742 -0.0889,-0.1778 -0.0889,-0.437091 0,-0.511175 0.37783,-0.807509 0.37782,-0.303741 1.02976,-0.303741 0.16298,0 0.32596,0.02222 0.16299,0.01482 0.30375,0.04445 0.14075,0.02222 0.24447,0.05186 0.11113,0.02963 0.17039,0.05186 l -0.12594,0.592667 q -0.11112,-0.05927 -0.34819,-0.118533 -0.23707,-0.06668 -0.57044,-0.06668 -0.28893,0 -0.50377,0.118533 -0.21484,0.111125 -0.21484,0.3556 0,0.125942 0.0444,0.22225 0.0519,0.09631 0.14817,0.1778 0.10371,0.07408 0.25188,0.140758 0.14817,0.06668 0.3556,0.140759 0.27411,0.103716 0.48895,0.207433 0.21484,0.09631 0.36301,0.229658 0.15557,0.13335 0.23706,0.325967 0.0815,0.185208 0.0815,0.459317 0,0.5334 -0.40005,0.807508 -0.39265,0.274108 -1.12607,0.274108 -0.51118,0 -0.8001,-0.0889 -0.28893,-0.08149 -0.39264,-0.125941 l 0.12594,-0.592667 q 0.11853,0.04445 0.37782,0.13335 0.2593,0.0889 0.68898,0.0889 z"
           style="font-style:normal;font-variant:normal;font-weight:normal;font-stretch:normal;font-size:7.4083333px;font-family:Ubuntu;-inkscape-font-specification:Ubuntu;fill:#b3b3b3;stroke-width:0.26458332"
           id="path8493"
           inkscape:connector-curvature="0" />
        <path
           d="m 785.51709,-27.718561 q -0.46673,0 -0.82233,-0.148166 -0.34819,-0.148167 -0.59266,-0.414867 -0.23707,-0.2667 -0.3556,-0.629708 -0.11854,-0.370417 -0.11854,-0.814917 0,-0.4445 0.12594,-0.814917 0.13335,-0.370416 0.37042,-0.637116 0.23707,-0.274109 0.57785,-0.422275 0.34819,-0.155575 0.77047,-0.155575 0.25929,0 0.51858,0.04445 0.25929,0.04445 0.49636,0.140758 l -0.15558,0.585258 q -0.15557,-0.07408 -0.363,-0.118533 -0.20003,-0.04445 -0.42969,-0.04445 -0.57785,0 -0.889,0.363008 -0.30374,0.363009 -0.30374,1.059392 0,0.31115 0.0667,0.570442 0.0741,0.259291 0.22225,0.4445 0.15557,0.185208 0.39264,0.288925 0.23706,0.09631 0.57785,0.09631 0.27411,0 0.49636,-0.05186 0.22225,-0.05186 0.34819,-0.111125 l 0.0963,0.57785 q -0.0593,0.03704 -0.1704,0.07408 -0.11112,0.02963 -0.25188,0.05186 -0.14076,0.02963 -0.30374,0.04445 -0.15558,0.02222 -0.30374,0.02222 z"
           style="font-style:normal;font-variant:normal;font-weight:normal;font-stretch:normal;font-size:7.4083333px;font-family:Ubuntu;-inkscape-font-specification:Ubuntu;fill:#b3b3b3;stroke-width:0.26458332"
           id="path8495"
           inkscape:connector-curvature="0" />
        <path
           d="m 790.58566,-29.733627 q 0,0.459316 -0.13335,0.829733 -0.13335,0.370417 -0.37782,0.637117 -0.23707,0.2667 -0.57045,0.414866 -0.33337,0.140759 -0.72601,0.140759 -0.39264,0 -0.72602,-0.140759 -0.33337,-0.148166 -0.57785,-0.414866 -0.23707,-0.2667 -0.37042,-0.637117 -0.13335,-0.370417 -0.13335,-0.829733 0,-0.451909 0.13335,-0.822325 0.13335,-0.377825 0.37042,-0.644525 0.24448,-0.2667 0.57785,-0.407459 0.33338,-0.148166 0.72602,-0.148166 0.39264,0 0.72601,0.148166 0.33338,0.140759 0.57045,0.407459 0.24447,0.2667 0.37782,0.644525 0.13335,0.370416 0.13335,0.822325 z m -0.71861,0 q 0,-0.651934 -0.29633,-1.029759 -0.28893,-0.385233 -0.79269,-0.385233 -0.50377,0 -0.8001,0.385233 -0.28893,0.377825 -0.28893,1.029759 0,0.651933 0.28893,1.037166 0.29633,0.377825 0.8001,0.377825 0.50376,0 0.79269,-0.377825 0.29633,-0.385233 0.29633,-1.037166 z"
           style="font-style:normal;font-variant:normal;font-weight:normal;font-stretch:normal;font-size:7.4083333px;font-family:Ubuntu;-inkscape-font-specification:Ubuntu;fill:#b3b3b3;stroke-width:0.26458332"
           id="path8497"
           inkscape:connector-curvature="0" />
      </g>
    </g>
  </g>
</svg>
