<?xml version="1.0" encoding="UTF-8" standalone="no"?>
<!-- Created with Inkscape (http://www.inkscape.org/) -->

<svg
   xmlns:dc="http://purl.org/dc/elements/1.1/"
   xmlns:cc="http://creativecommons.org/ns#"
   xmlns:rdf="http://www.w3.org/1999/02/22-rdf-syntax-ns#"
   xmlns:svg="http://www.w3.org/2000/svg"
   xmlns="http://www.w3.org/2000/svg"
   xmlns:sodipodi="http://sodipodi.sourceforge.net/DTD/sodipodi-0.dtd"
   xmlns:inkscape="http://www.inkscape.org/namespaces/inkscape"
   width="180mm"
   height="180mm"
   viewBox="0 0 180 180"
   version="1.1"
   id="svg6739"
   inkscape:version="0.92.1 r15371"
   sodipodi:docname="regional.svg">
  <defs
     id="defs6733" />
  <sodipodi:namedview
     id="base"
     pagecolor="#ffffff"
     bordercolor="#666666"
     borderopacity="1.0"
     inkscape:pageopacity="0.0"
     inkscape:pageshadow="2"
     inkscape:zoom="0.35"
     inkscape:cx="-79.527545"
     inkscape:cy="691.90109"
     inkscape:document-units="mm"
     inkscape:current-layer="layer1"
     showgrid="false"
     fit-margin-top="0"
     fit-margin-left="0"
     fit-margin-right="0"
     fit-margin-bottom="0"
     inkscape:window-width="1920"
     inkscape:window-height="1018"
     inkscape:window-x="-8"
     inkscape:window-y="-8"
     inkscape:window-maximized="1" />
  <metadata
     id="metadata6736">
    <rdf:RDF>
      <cc:Work
         rdf:about="">
        <dc:format>image/svg+xml</dc:format>
        <dc:type
           rdf:resource="http://purl.org/dc/dcmitype/StillImage" />
        <dc:title></dc:title>
      </cc:Work>
    </rdf:RDF>
  </metadata>
  <g
     inkscape:label="Layer 1"
     inkscape:groupmode="layer"
     id="layer1"
     transform="translate(133.17262,105.12498)">
    <rect
       ry="0.00019974295"
       rx="7.1851555e-006"
       y="-105.12498"
       x="-133.17262"
       height="180"
       width="180"
       id="rect8473-2-2-5-4-1-5"
       style="opacity:1;vector-effect:none;fill:none;fill-opacity:1;stroke:none;stroke-width:5.1899991;stroke-linecap:butt;stroke-linejoin:miter;stroke-miterlimit:4;stroke-dasharray:none;stroke-dashoffset:0;stroke-opacity:1" />
    <g
       id="g4542">
      <g
         transform="matrix(0.26458333,0,0,0.26458333,-106.81285,-78.657049)"
         id="g5667"
         style="fill:none;fill-opacity:1;stroke:#6ccef5;stroke-width:19.61574745;stroke-linecap:round;stroke-linejoin:round;stroke-miterlimit:4;stroke-dasharray:none;stroke-opacity:1">
        <path
           inkscape:connector-curvature="0"
           id="path5665"
           d="m 180.25586,-8.2089844 c -1.58036,-0.2013651 -3.2314,-0.1505915 -4.91016,0.2363282 -4.91732,1.1333419 -8.42208,4.2288077 -11.13867,8.24023432 -7.21982,1.35998898 -12.67586,3.78295878 -16.28515,4.84960938 -4.45661,1.3170549 -5.25915,1.8208977 -10.10157,-1.1816406 A 9.8088545,9.8088545 0 0 0 123.1875,9.6933594 c -2.8269,10.3767766 1.90539,18.2938486 4.2832,22.3808596 -0.76662,0.304061 -1.09211,0.539752 -2.41406,0.865234 a 9.8088545,9.8088545 0 0 0 -4.30859,2.318359 c -5.26115,4.856346 -9.64728,5.633687 -13.1875,4.882813 -3.54023,-0.750874 -7.04428,-3.291854 -9.513675,-8.976563 a 9.8088545,9.8088545 0 0 0 -9.830078,-5.865234 c -5.263676,0.448913 -14.77147,-0.07606 -23.357422,2.164063 -2.146488,0.560029 -4.374115,1.283745 -6.785156,2.972656 -2.411041,1.688911 -5.141271,5.030545 -5.710938,9.056641 -0.287575,2.032427 -0.07789,3.907486 0.400391,5.603515 -1.963606,2.031655 -3.51577,4.580339 -4.101563,7.097656 -1.715453,7.371786 1.030254,11.898843 2.667969,15.927735 1.637716,4.028892 3.016761,7.608856 3.263672,9.558594 0.246911,1.949737 0.607101,1.376723 -0.804688,2.613281 a 9.8088545,9.8088545 0 0 0 -3.089843,5.152343 c -1.788166,7.673175 -2.970802,14.797868 -4.326172,17.390628 -0.677685,1.29637 -0.807735,1.24332 -1.029297,1.33594 -0.221562,0.0926 -1.409106,0.49786 -4.75,-0.32422 a 9.8088545,9.8088545 0 0 0 -1.378906,-0.23633 c -7.712909,-0.76206 -14.510548,2.34864 -20.017578,6.48437 -5.507031,4.13573 -10.0712517,9.54596 -13.6953129,15.50196 -3.6240611,5.95599 -6.3072143,12.44571 -7.4003906,19.16796 -0.9511583,5.84895 -0.5666635,12.22674 2.48632812,17.95899 2.17608938,12.2118 10.47171038,20.9936 19.53515638,24.85937 4.605364,1.9643 9.372723,2.97139 14.046875,3.00782 0.006,0.0235 0.0018,0.0488 0.0078,0.0723 1.146973,4.46665 3.960591,8.62452 7.564454,11.16602 7.207724,5.08299 15.150866,4.59449 22.453124,3.33398 11.493981,-1.98407 22.804544,-6.92336 31.066407,-11.58789 0.05033,1.28059 0.08611,1.15525 0.05469,2.80469 -0.08877,4.66001 -0.387359,10.51006 2.261719,16.89844 2.649074,6.38837 9.903744,12.26722 18.537104,13.33789 l -1.79492,-0.39453 c 12.58844,4.04692 23.21359,11.05447 35.81836,17.92187 -1.04733,7.71942 -0.18424,15.41392 3.8418,22.1582 3.81238,6.38637 10.663,10.69481 18.8457,12.30665 0.23429,1.23355 0.5441,2.40037 0.91016,3.47265 1.44134,4.22201 3.38761,7.2769 4.66015,9.64844 1.27255,2.37153 1.83056,3.90199 1.9336,4.87305 0.10304,0.97105 0.16698,1.78611 -1.33789,4.28906 a 9.8088545,9.8088545 0 0 0 -0.59375,1.1543 c -3.68615,8.50468 -7.0945,19.81962 -5.64453,31.32226 0.72498,5.75132 3.04737,12.13741 8.56836,16.49024 4.34082,3.42236 9.98342,4.82455 16.02539,4.66406 0.30952,1.17927 0.51615,3.5029 0.80859,6.69336 0.30669,3.3459 0.39793,8.35933 5.09961,13.0664 1.42378,1.42541 3.11627,2.34963 4.90234,3.05469 0.45051,7.89394 3.64562,14.65954 4.74024,19.58008 0.82204,3.69523 0.62385,5.87906 0.41601,6.39062 -0.20784,0.51157 -0.21986,1.31845 -4.82031,2.69336 a 9.8088545,9.8088545 0 0 0 -1.33203,0.50586 c -10.52876,4.90426 -20.40323,12.6545 -26.01758,23.15235 -2.80717,5.24892 -4.49139,11.51112 -3.43164,18.04492 1.05975,6.5338 4.99393,12.71896 10.84375,17.35351 a 9.8088545,9.8088545 0 0 0 6.44922,2.11329 c -0.82829,0.0302 1.64885,0.58694 5.00195,3.43945 3.3531,2.85251 7.28488,7.03529 11.73633,10.78515 4.45145,3.74987 10.21674,8.62086 18.99219,6.76172 4.38772,-0.92956 8.13589,-3.92712 10.54883,-7.3125 2.04505,-2.86923 3.44185,-6.2303 4.67578,-10.06445 3.13134,-4.43563 5.6145,-5.13989 11.08594,-7.67773 5.48352,-2.54345 13.39993,-7.69823 18.29492,-17.72657 10.14931,-10.89782 11.04358,-24.65854 12.72461,-33.72461 0.88064,-4.7495 1.97737,-8.24985 3.21289,-10.12695 1.23551,-1.87709 2.18208,-2.89003 6.35351,-3.75195 a 9.8088545,9.8088545 0 0 0 2.90039,-1.09961 c 17.87869,-10.27196 34.08794,-14.83063 53.56641,-14.8086 a 9.8088545,9.8088545 0 0 0 5.77539,-1.87304 c 17.58886,-12.77704 38.88836,-29.97941 44.55273,-55.30469 8.35135,-9.70236 11.16305,-21.43676 12.69532,-32 1.39782,-9.63637 2.11822,-18.60716 3.95898,-25.95117 10.06997,-5.16613 16.13007,-13.44069 21.05078,-19.79297 5.67602,-7.32733 9.56478,-12.01278 16.70313,-13.88477 a 9.8088545,9.8088545 0 0 0 3.51172,-1.73047 c 21.87492,-16.91958 27.5222,-47.03101 13.13867,-70.88476 a 9.8088545,9.8088545 0 0 0 -7.77539,-4.72266 c -4.58117,-0.29196 -7.87812,-2.02256 -11.71094,-5.35547 -3.83282,-3.3329 -7.73675,-8.29414 -12.06836,-13.61132 -4.33161,-5.31718 -9.10352,-11.07806 -15.87695,-15.4043 -6.15007,-3.92809 -14.31081,-6.00803 -23.06446,-4.89453 -4.82014,-0.86069 -10.9588,-4.08887 -18.93359,-6.70508 -4.06791,-1.33452 -9.01961,-2.12615 -14.20508,-1.73828 -0.81268,-3.36706 -2.03492,-6.57397 -3.98242,-9.201173 -5.27711,-7.118893 -13.04016,-11.401417 -21.33594,-13.947266 -5.50466,-1.689298 -11.32917,-2.502493 -17.15625,-2.455078 -0.69532,-5.078992 -4.69124,-8.534715 -7.66797,-9.988281 -3.08101,-1.504494 -6.20034,-2.230209 -10.23828,-2.904297 -1.00652,-0.314374 -2.02524,-0.696977 -2.99218,-0.845703 0.5898,-0.815705 1.2513,-1.537989 1.78125,-2.425781 2.37855,-3.98469 4.20547,-10.396344 1.36914,-16.273438 -1.64645,-3.411564 -4.22262,-5.730973 -7.23047,-7.5 -0.25767,-9.032895 -2.97009,-16.869018 -10.07032,-22.113281 -4.47972,-3.308753 -12.68833,-3.901544 -17.80859,-0.335938 -4.56452,3.178608 -7.01692,7.703401 -8.87695,13.240235 -1.75745,2.422994 -2.49207,2.633638 -4.27344,2.720703 -2.00258,0.09788 -5.92226,-0.864654 -10.73633,-2.455078 -4.81407,-1.590424 -10.47893,-3.77026 -17.44726,-3.789063 -5.73037,-0.01546 -12.27052,2.468374 -17.43555,7.228516 -7.51312,1.153133 -16.88,1.168253 -21.5332,-0.564453 -2.5962,-0.96674 -3.24861,-1.762407 -3.60547,-2.613282 -0.35072,-0.836225 -0.80425,-3.147149 1.16797,-8.332031 2.52631,-4.460648 3.24991,-9.293155 2.86914,-13.646484 -0.43491,-4.9722536 -2.03077,-9.5575784 -5.17969,-13.5410158 -2.36169,-2.987578 -6.4718,-5.8744202 -11.21289,-6.4785156 z M 175.9707,17.253906 a 9.8088545,9.8088545 0 0 0 -0.39258,0.845703 c -3.2465,8.336805 -3.94885,16.381333 -1.05664,23.277344 2.89222,6.896011 8.94923,11.210361 14.85157,13.408203 11.80466,4.395684 24.76725,3.102396 34.93945,1.019532 a 9.8088545,9.8088545 0 0 0 5.83398,-3.666016 c 2.26513,-2.97424 2.69688,-2.789381 4.98633,-2.783203 2.28945,0.0062 6.41169,1.166179 11.34766,2.796875 4.93597,1.630696 10.72973,3.769669 17.8457,3.421875 7.11597,-0.347795 15.1492,-4.558341 20.16797,-12.039063 a 9.8088545,9.8088545 0 0 0 0.0566,-0.0957 c 0.17893,1.34834 0.29808,2.783481 0.14063,4.351563 a 9.8088545,9.8088545 0 0 0 6.84375,10.34375 c -2.29888,2.47593 -6.38047,6.143823 -10.69922,9.179687 a 9.8088545,9.8088545 0 0 0 -1.91016,1.763672 c -2.519,3.037555 -4.31127,5.347665 -5.71484,7.550781 -0.70179,1.101559 -1.32478,2.149593 -1.90039,3.65625 -0.57561,1.506657 -1.57427,3.751891 -0.32422,7.623047 1.25005,3.871157 5.91649,6.720155 8.38867,7.117188 2.47218,0.397032 3.75644,0.04611 4.88867,-0.197266 2.26447,-0.486755 3.84608,-1.140484 5.64649,-1.84375 2.9044,-1.134503 5.9705,-2.293436 8.85351,-3.251953 -1.7571,1.827736 -3.96705,4.290219 -4.36914,8.927734 -0.41506,4.787071 2.90663,9.757011 5.98242,11.880861 a 9.8088545,9.8088545 0 0 0 13.75196,-2.65821 c 1.65601,-2.50233 4.94402,-4.52556 9.95703,-5.44336 5.013,-0.91779 11.32454,-0.47183 16.69336,1.17578 5.36881,1.64761 9.60347,4.54511 11.33203,6.87696 1.72855,2.33184 2.2215,3.29129 0.3789,7.17187 a 9.8088545,9.8088545 0 0 0 14.6875,12.09571 c 5.13815,-3.7961 7.18259,-3.20203 12.76368,-1.3711 5.58108,1.83093 13.00467,6.28313 23.03711,7.66016 a 9.8088545,9.8088545 0 0 0 3.29882,-0.10742 c 5.20253,-1.06443 7.83109,-0.22428 11.21875,1.93945 3.38767,2.16373 7.13914,6.24427 11.22657,11.26172 4.08743,5.01744 8.4969,10.88681 14.40625,16.02539 4.63312,4.02882 10.51263,7.51929 17.42187,9.16406 6.87537,14.6147 3.37717,30.17646 -9.24414,40.60156 -12.01489,4.06033 -19.22385,12.95048 -24.68164,19.9961 -5.84301,7.5429 -10.04493,12.96526 -17.0957,15.5 a 9.8088545,9.8088545 0 0 0 -5.94532,6.00586 c -4.07578,11.71144 -4.42397,23.44588 -5.87304,33.43554 -1.44907,9.98967 -3.65538,17.61969 -9.16211,23.22657 a 9.8088545,9.8088545 0 0 0 -2.67774,5.26757 c -2.77044,16.69884 -18.6876,31.66273 -35.27734,43.99415 -20.95777,0.54595 -40.03028,6.12196 -58.9375,16.82226 -7.30439,2.01605 -13.29132,6.28609 -16.76172,11.55859 -3.79396,5.76409 -5.0943,11.82984 -6.11523,17.33594 -2.04188,11.0122 -3.08437,19.60256 -8.41602,24.71094 A 9.8088545,9.8088545 0 0 0 258.13477,436 c -2.94034,6.84971 -4.52277,7.07336 -9.3418,9.30859 -4.81903,2.23524 -13.48418,5.8372 -19.75195,15.3711 a 9.8088545,9.8088545 0 0 0 -1.22852,2.67578 c -0.54122,1.87989 -1.07633,3.2496 -1.54492,4.28515 -0.57718,-0.33182 -0.95719,-0.4647 -1.88477,-1.24609 -3.11209,-2.6216 -7.09773,-6.83833 -11.66601,-10.72461 -3.60517,-3.06694 -7.82439,-6.42888 -13.54883,-7.60156 -1.2624,-1.36819 -1.93406,-2.53136 -2.0918,-3.50391 -0.21829,-1.34586 0.0384,-3.16768 1.36719,-5.65234 2.65764,-4.96931 9.84252,-11.28912 17,-14.62305 l -1.33203,0.50782 c 8.12414,-2.42802 14.68659,-7.48354 17.37695,-14.10547 2.69036,-6.62194 1.7133,-12.84258 0.5586,-18.03321 -2.30942,-10.38125 -4.52145,-18.58792 -3.71876,-20.55273 a 9.8088545,9.8088545 0 0 0 -10.6914,-13.375 c -0.18195,-2.45298 -0.25438,-5.96114 -1.56641,-10.25977 -1.41804,-4.64596 -5.31476,-10.33806 -11.3457,-13.01367 a 9.8088545,9.8088545 0 0 0 -5.56836,-0.71289 c -4.41677,0.72565 -5.41761,-0.0747 -5.68945,-0.28906 -0.27185,-0.21433 -0.92749,-0.98055 -1.25,-3.53906 -0.64503,-5.11704 1.5747,-15.05814 4.17968,-21.06836 L 195.80273,311 c 3.25094,-5.40706 4.57809,-11.33197 4.03321,-16.4668 -0.54488,-5.13482 -2.54368,-9.07654 -4.1543,-12.07812 -1.61062,-3.00158 -2.87425,-5.22124 -3.38281,-6.71094 -0.50857,-1.4897 -0.59235,-1.97644 -0.13672,-3.48437 a 9.8088545,9.8088545 0 0 0 -10.2793,-12.60547 c -7.8556,0.71544 -9.63437,-1.01718 -11.06054,-3.40625 -1.42617,-2.38907 -2.12518,-7.78581 -0.15821,-14.53125 a 9.8088545,9.8088545 0 0 0 -5.04297,-11.52344 c -13.87127,-6.91117 -26.86772,-16.72189 -45.29687,-22.64648 a 9.8088545,9.8088545 0 0 0 -1.79492,-0.39649 c -3.42088,-0.42424 -2.35151,-0.22595 -2.83203,-1.38477 -0.48053,-1.15881 -0.85128,-4.72068 -0.76954,-9.01171 0.0817,-4.29103 0.94472,-8.97532 -1.41406,-15.22461 -1.17939,-3.12465 -4.04784,-6.90808 -8.04492,-8.63282 -3.99708,-1.72473 -7.977993,-1.51547 -11.695312,-0.71093 a 9.8088545,9.8088545 0 0 0 -3.416016,1.46093 c -4.981197,3.36597 -19.722922,10.50014 -29.498047,12.1875 -4.730462,0.81657 -7.585713,-0.0217 -7.681641,-0.0137 -0.007,-0.0311 0.009,0.008 -0.002,-0.0352 -0.145071,-0.56495 -0.32956,-2.32968 0.285157,-5.36719 A 9.8088545,9.8088545 0 0 0 39.083984,169.89844 c -1.477718,0.82099 -6.991676,1.46551 -11.265625,-0.35742 -4.273948,-1.82294 -7.364213,-4.57922 -8.128906,-11.10938 a 9.8088545,9.8088545 0 0 0 -1.769531,-4.57226 c -0.371267,-0.5182 -1.024915,-2.45324 -0.457031,-5.94532 0.567883,-3.49208 2.300053,-8.01893 4.794921,-12.11914 2.494869,-4.10021 5.751626,-7.78539 8.71875,-10.01367 2.934833,-2.20403 5.226794,-2.72618 6.257813,-2.64063 5.533768,1.16818 10.899432,1.12463 15.673828,-0.87109 5.157337,-2.15579 8.760686,-6.35344 10.847656,-10.3457 3.772526,-7.21665 4.521822,-14.280345 5.666016,-20.050783 3.873204,-5.150601 5.268021,-11.624893 4.630859,-16.65625 -0.77375,-6.109927 -3.07644,-10.855443 -4.550781,-14.482422 -0.326518,-0.803257 -0.36526,-1.186801 -0.552734,-1.839844 a 9.8088545,9.8088545 0 0 0 7.611328,-13.15039 c 2.282214,-0.155187 4.422594,-0.361295 7.039062,-0.509766 4.840362,7.179383 11.77955,12.37536 19.890621,14.095703 9.46577,2.00767 19.64971,-1.040373 28.18555,-7.884766 6.08839,-1.636816 11.02169,-3.72678 14.40234,-8.886718 3.74247,-5.712171 2.14435,-12.497025 0.60157,-16.097656 -0.26667,-0.622369 -0.37302,-0.812906 -0.6211,-1.373047 2.68398,-0.162753 5.24226,-0.516018 7.42188,-1.160157 6.8588,-2.02697 11.57934,-4.397809 17.6875,-4.917968 a 9.8088545,9.8088545 0 0 0 4.80273,-1.75586 z"
           style="color:#000000;font-style:normal;font-variant:normal;font-weight:normal;font-stretch:normal;font-size:medium;line-height:normal;font-family:sans-serif;font-variant-ligatures:normal;font-variant-position:normal;font-variant-caps:normal;font-variant-numeric:normal;font-variant-alternates:normal;font-feature-settings:normal;text-indent:0;text-align:start;text-decoration:none;text-decoration-line:none;text-decoration-style:solid;text-decoration-color:#000000;letter-spacing:normal;word-spacing:normal;text-transform:none;writing-mode:lr-tb;direction:ltr;text-orientation:mixed;dominant-baseline:auto;baseline-shift:baseline;text-anchor:start;white-space:normal;shape-padding:0;clip-rule:nonzero;display:inline;overflow:visible;visibility:visible;opacity:1;isolation:auto;mix-blend-mode:normal;color-interpolation:sRGB;color-interpolation-filters:linearRGB;solid-color:#000000;solid-opacity:1;vector-effect:none;fill:#6ccef5;fill-opacity:1;fill-rule:nonzero;stroke:none;stroke-width:19.61574745;stroke-linecap:round;stroke-linejoin:round;stroke-miterlimit:4;stroke-dasharray:none;stroke-dashoffset:0;stroke-opacity:1;color-rendering:auto;image-rendering:auto;shape-rendering:auto;text-rendering:auto;enable-background:accumulate" />
      </g>
      <path
         inkscape:connector-curvature="0"
         id="path5736"
         d="m -5.2447222,10.870571 c -1.0737,-0.8859986 -0.9795,-2.4999966 -1.7798,-3.5742976 -0.1969,-1.318302 0.967,-1.529702 1.6546,-2.064502 0.3068,-0.8415 3.0457,-2.5224 0.6278,-3.3261 -1.0954,-0.9265 -2.5335,-0.9461 -3.7513,-1.2405 -0.2555,-1.6086 -1.1401,-2.6662 -2.8136998,-2.8421 -1.7051,-0.5568 -2.4041,-3.1267 -4.4803,-2.3264 -1.3537,0.2916 -1.3307,-0.9719 -1.1899,-1.8156 -1.6528,-1.372 -3.5483,0.2245 -5.1756,0.7738 -1.0103,0.254 -2.9453,1.4879 -3.3414,0.8334 0.5672,-1.1942 1.5298,-2.9389 0.2057,-4.0109 -0.4464,-1.5538004 0.9128,-2.8758004 1.116,-4.3271004 -0.3846,-0.8544 0.1351,-1.7168 -0.4368,-2.8316 0.4973,-0.7586 1.6512,-0.7131 0.6695,-1.6638 1.9141,-0.5092 -2.2863,-1.5248 -0.1974,-2.5175 0.9111,-1.0571 2.0376,-2.565 3.7116,-2.0452 0.1879,1.5415 1.669,2.9387 3.2406,1.8675 1.4216,-0.1282 3.4799,-0.4237 3.874,-2.299 -0.2749,-1.1415 0.053,-2.7063 1.525,-1.845 1.3717,0.4596 2.6973998,1.8654 4.0986998,0.5019 0.925,0.042 2.1061,0.053 2.3424,-0.7824 1.1916,-0.6166 3.2685,-0.9677 2.9857,1.0572 0.5984,0.5078 -0.1828,1.8508 1.1968,1.3535 0.97350001,-0.3904 0.89830001,-1.2778 2.01340001,-1.1137 1.05829999,-1.1913 2.76619999,-1.9564 3.82759999,-0.2653 0.6231,0.2554 1.4716,1.0958 1.6679,0.7635 0.8731,1.1952 1.1521,2.9476 1.6233,4.3826 0.4226,1.3441 -0.1577,3.1378 -1.7358,2.7992 -0.1699,1.022 0.3631,3.2405 1.8794,3.269 1.21,-0.2218 -0.8578,1.6367 -1.1874,2.202 -0.7996,0.7047004 -2.5025,3.2266004 -3.3858,2.1338004 0.4345,-1.6788 -1.2964,-0.819 -1.0652,0.3346 -0.2318,0.8047 -1.84259999,1.1709 -1.059,2.3362 -0.018,1.1492 -1.01019999,-0.5482 -0.2343,0.6831 -0.41729999,0.2624 -0.27129999,1.5141 0.087,0.2985 -0.019,0.9228 -1.14349999,2.5543 -0.93619999,3.8976 -0.4015,1.5374 0.3716,3.2796 -0.7342,4.6499 -0.85020001,1.681 -1.54410001,3.4449 -1.69590001,5.293502 -0.6204,0.8831996 -1.7082,1.6136986 -2.5203,2.0575976 -0.2565,-0.142599 -0.432,-0.388299 -0.627,-0.5974 z M 0.79067781,-3.7587286 c -0.2713,-0.3114 0.1343,0.4056 0,0 z m 0.25529999,-2.0746 c 0.1716,-0.1762 -0.37469999,0.2294 0,0 z m 1.337,-3.0031 c 0.5152,-1.139 -0.4766,0.6151 0,0 z m -0.9081,2.832 c -0.57269999,-1.3691 0.9758,0.1601 0,0 z m 0.9834,-1.4798 c 1.0259,-1.5783 0.7382,0.2457 0,0 z"
         style="fill:#6ccef5;fill-opacity:1;stroke-width:1" />
    </g>
  </g>
</svg>
