<?xml version="1.0" encoding="UTF-8" standalone="no"?>
<!-- Created with Inkscape (http://www.inkscape.org/) -->

<svg
   xmlns:dc="http://purl.org/dc/elements/1.1/"
   xmlns:cc="http://creativecommons.org/ns#"
   xmlns:rdf="http://www.w3.org/1999/02/22-rdf-syntax-ns#"
   xmlns:svg="http://www.w3.org/2000/svg"
   xmlns="http://www.w3.org/2000/svg"
   xmlns:sodipodi="http://sodipodi.sourceforge.net/DTD/sodipodi-0.dtd"
   xmlns:inkscape="http://www.inkscape.org/namespaces/inkscape"
   width="9.0396862mm"
   height="7.8568945mm"
   viewBox="0 0 9.0396862 7.8568945"
   version="1.1"
   id="svg6873"
   inkscape:version="0.92.1 r15371"
   sodipodi:docname="upload.svg">
  <defs
     id="defs6867" />
  <sodipodi:namedview
     id="base"
     pagecolor="#ffffff"
     bordercolor="#666666"
     borderopacity="1.0"
     inkscape:pageopacity="0.0"
     inkscape:pageshadow="2"
     inkscape:zoom="3.959798"
     inkscape:cx="-17.358917"
     inkscape:cy="-16.283304"
     inkscape:document-units="mm"
     inkscape:current-layer="layer1"
     showgrid="false"
     fit-margin-top="0"
     fit-margin-left="0"
     fit-margin-right="0"
     fit-margin-bottom="0"
     inkscape:window-width="1920"
     inkscape:window-height="1018"
     inkscape:window-x="-8"
     inkscape:window-y="-8"
     inkscape:window-maximized="1" />
  <metadata
     id="metadata6870">
    <rdf:RDF>
      <cc:Work
         rdf:about="">
        <dc:format>image/svg+xml</dc:format>
        <dc:type
           rdf:resource="http://purl.org/dc/dcmitype/StillImage" />
        <dc:title></dc:title>
      </cc:Work>
    </rdf:RDF>
  </metadata>
  <g
     inkscape:label="Layer 1"
     inkscape:groupmode="layer"
     id="layer1"
     transform="translate(84.892983,-143.7552)">
    <g
       id="g5773-6-2"
       transform="matrix(0.61640887,0,0,0.61640887,-370.55484,79.548008)"
       style="fill:#c6d02f;fill-opacity:1;stroke-width:1.62229991">
      <g
         style="fill:#c6d02f;fill-opacity:1;stroke-width:14.23355579"
         transform="matrix(0.03015645,0,0,0.03015645,463.42918,103.60844)"
         id="g5748-2-4">
        <g
           style="fill:#c6d02f;fill-opacity:1;stroke-width:14.23355579"
           id="g5689-8-1-8">
          <g
             style="fill:#c6d02f;fill-opacity:1;stroke-width:14.23355579"
             id="g5687-6-5-2">
            <path
               style="fill:#6ccff5;fill-opacity:1;stroke-width:14.23355579"
               inkscape:connector-curvature="0"
               d="M 395.5,135.8 C 390.3,104.9 375,76.7 351.6,55.3 c -26,-23.8 -59.8,-36.9 -95,-36.9 -27.2,0 -53.7,7.8 -76.4,22.5 -18.9,12.2 -34.6,28.7 -45.7,48.1 -4.8,-0.9 -9.8,-1.4 -14.8,-1.4 -42.5,0 -77.1,34.6 -77.1,77.1 0,5.5 0.6,10.8 1.6,16 -27.5,20 -44.2,52.2 -44.2,86.5 0,27.7 10.3,54.6 29.1,75.9 19.3,21.8 44.8,34.7 72,36.2 0.3,0 0.5,0 0.8,0 h 86 c 7.5,0 13.5,-6 13.5,-13.5 0,-7.5 -6,-13.5 -13.5,-13.5 H 102.3 C 61.4,349.8 27,310.9 27,267.1 c 0,-28.3 15.2,-54.7 39.7,-69 5.7,-3.3 8.1,-10.2 5.9,-16.4 -2,-5.4 -3,-11.1 -3,-17.2 0,-27.6 22.5,-50.1 50.1,-50.1 5.9,0 11.7,1 17.1,3 6.6,2.4 13.9,-0.6 16.9,-6.9 18.7,-39.7 59.1,-65.3 103,-65.3 59,0 107.7,44.2 113.3,102.8 0.6,6.1 5.2,11 11.2,12 44.5,7.6 78.1,48.7 78.1,95.6 0,49.7 -39.1,92.9 -87.3,96.6 h -73.7 c -7.5,0 -13.5,6 -13.5,13.5 0,7.5 6,13.5 13.5,13.5 h 74.2 c 0.3,0 0.6,0 1,0 30.5,-2.2 59,-16.2 80.2,-39.6 21.1,-23.2 32.6,-53 32.6,-84 -0.1,-56.1 -38.4,-106 -90.8,-119.8 z"
               id="path5683-5-0" />
            <path
               sodipodi:nodetypes="sssscsssccccccs"
               style="fill:#6ccff5;fill-opacity:1;stroke-width:14.23355579"
               inkscape:connector-curvature="0"
               d="m 324.2,280 c 5.3,-5.3 5.3,-13.8 0,-19.1 l -71.5,-71.5 c -2.5,-2.5 -6,-4 -9.5,-4 -3.5,0 -7,1.4 -9.5,4 l -71.5,71.5 c -5.3,5.3 -5.3,13.8 0,19.1 2.6,2.6 6.1,4 9.5,4 3.4,0 6.9,-1.3 9.5,-4 l 48.5,-48.5 v 163.57594 h 27 V 231.5 l 48.5,48.5 c 5.2,5.3 13.7,5.3 19,0 z"
               id="path5685-6-6" />
          </g>
        </g>
        <g
           style="fill:#c6d02f;fill-opacity:1;stroke-width:14.23355579"
           id="g5691-6-5-5" />
        <g
           style="fill:#c6d02f;fill-opacity:1;stroke-width:14.23355579"
           id="g5693-3-1-1" />
        <g
           style="fill:#c6d02f;fill-opacity:1;stroke-width:14.23355579"
           id="g5695-2-1-4" />
        <g
           style="fill:#c6d02f;fill-opacity:1;stroke-width:14.23355579"
           id="g5697-3-6-0" />
        <g
           style="fill:#c6d02f;fill-opacity:1;stroke-width:14.23355579"
           id="g5699-5-0" />
        <g
           style="fill:#c6d02f;fill-opacity:1;stroke-width:14.23355579"
           id="g5701-6-9" />
        <g
           style="fill:#c6d02f;fill-opacity:1;stroke-width:14.23355579"
           id="g5703-1-3" />
        <g
           style="fill:#c6d02f;fill-opacity:1;stroke-width:14.23355579"
           id="g5705-6-8" />
        <g
           style="fill:#c6d02f;fill-opacity:1;stroke-width:14.23355579"
           id="g5707-2-3" />
        <g
           style="fill:#c6d02f;fill-opacity:1;stroke-width:14.23355579"
           id="g5709-1-0" />
        <g
           style="fill:#c6d02f;fill-opacity:1;stroke-width:14.23355579"
           id="g5711-7-6" />
        <g
           style="fill:#c6d02f;fill-opacity:1;stroke-width:14.23355579"
           id="g5713-6-4" />
        <g
           style="fill:#c6d02f;fill-opacity:1;stroke-width:14.23355579"
           id="g5715-6-5" />
        <g
           style="fill:#c6d02f;fill-opacity:1;stroke-width:14.23355579"
           id="g5717-7-0" />
        <g
           style="fill:#c6d02f;fill-opacity:1;stroke-width:14.23355579"
           id="g5719-9-0" />
      </g>
      <rect
         ry="0"
         rx="0"
         y="116.04156"
         x="470.35611"
         height="0.86800003"
         width="0.86800003"
         id="rect5750-9-0"
         style="opacity:1;vector-effect:none;fill:#6ccff5;fill-opacity:1;stroke:none;stroke-width:0.42923349;stroke-linecap:round;stroke-linejoin:round;stroke-miterlimit:4;stroke-dasharray:none;stroke-dashoffset:0;stroke-opacity:1" />
    </g>
  </g>
</svg>
