<?xml version="1.0" encoding="UTF-8" standalone="no"?>
<!-- Created with Inkscape (http://www.inkscape.org/) -->

<svg
   xmlns:dc="http://purl.org/dc/elements/1.1/"
   xmlns:cc="http://creativecommons.org/ns#"
   xmlns:rdf="http://www.w3.org/1999/02/22-rdf-syntax-ns#"
   xmlns:svg="http://www.w3.org/2000/svg"
   xmlns="http://www.w3.org/2000/svg"
   xmlns:sodipodi="http://sodipodi.sourceforge.net/DTD/sodipodi-0.dtd"
   xmlns:inkscape="http://www.inkscape.org/namespaces/inkscape"
   width="35.718662mm"
   height="35.718838mm"
   viewBox="0 0 35.718662 35.718838"
   version="1.1"
   id="svg6672"
   inkscape:version="0.92.1 r15371"
   sodipodi:docname="user_photo.svg">
  <defs
     id="defs6666" />
  <sodipodi:namedview
     id="base"
     pagecolor="#ffffff"
     bordercolor="#666666"
     borderopacity="1.0"
     inkscape:pageopacity="0.0"
     inkscape:pageshadow="2"
     inkscape:zoom="2.8"
     inkscape:cx="73.662928"
     inkscape:cy="124.71332"
     inkscape:document-units="mm"
     inkscape:current-layer="layer1"
     showgrid="false"
     fit-margin-top="0"
     fit-margin-left="0"
     fit-margin-right="0"
     fit-margin-bottom="0"
     inkscape:window-width="1920"
     inkscape:window-height="1018"
     inkscape:window-x="-8"
     inkscape:window-y="-8"
     inkscape:window-maximized="1" />
  <metadata
     id="metadata6669">
    <rdf:RDF>
      <cc:Work
         rdf:about="">
        <dc:format>image/svg+xml</dc:format>
        <dc:type
           rdf:resource="http://purl.org/dc/dcmitype/StillImage" />
        <dc:title></dc:title>
      </cc:Work>
    </rdf:RDF>
  </metadata>
  <g
     inkscape:label="Layer 1"
     inkscape:groupmode="layer"
     id="layer1"
     transform="translate(356.17228,7.724747)">
    <ellipse
       style="opacity:1;vector-effect:none;fill:#f2f2f2;fill-opacity:1;stroke:#e6e6e6;stroke-width:0.52900004;stroke-linecap:round;stroke-linejoin:round;stroke-miterlimit:4;stroke-dasharray:none;stroke-dashoffset:0;stroke-opacity:1"
       id="path7194-5"
       cx="-338.31296"
       cy="10.134713"
       rx="17.589006"
       ry="17.594833" />
    <path
       id="path5812-1-3"
       d="m -355.90774,10.1405 c 0,-9.70518865 7.89282,-17.6006199 17.59479,-17.6006199 9.70198,0 17.59479,7.89543125 17.59479,17.6006199 0,5.2298 -2.29423,9.931581 -5.92635,13.157672 -0.20286,-0.140116 -0.40708,-0.265734 -0.61615,-0.370649 l -5.84216,-2.921702 c -0.5244,-0.262285 -0.85007,-0.789613 -0.85007,-1.37561 v -2.040982 c 0.13524,-0.167033 0.27807,-0.356153 0.42573,-0.56391 0.75622,-1.068461 1.36273,-2.25702 1.80501,-3.535999 0.87422,-0.415513 1.43863,-1.286571 1.43863,-2.270135 V 7.7723532 c 0,-0.5984202 -0.21941,-1.1788958 -0.61202,-1.6351315 v -3.221258 c 0.0359,-0.3582246 0.16284,-2.37988085 -1.29925,-4.047452 -1.27166,-1.4522252 -3.32991,-2.1873091 -6.11816,-2.1873091 -2.78826,0 -4.8465,0.7350839 -6.11816,2.186618 -1.46209,1.66757317 -1.33514,3.6892284 -1.29925,4.047452 v 3.2212579 c -0.39191,0.4562368 -0.61202,1.0367124 -0.61202,1.6351326 v 2.4468319 c 0,0.759932 0.34086,1.468789 0.92458,1.947112 0.5589,2.19007 1.70912,3.847979 2.13415,4.409818 v 1.997497 c 0,0.56322 -0.30705,1.080886 -0.80178,1.351453 l -5.45576,2.976921 c -0.17388,0.09456 -0.34638,0.204994 -0.51886,0.328544 -3.58728,-3.22471 -5.84769,-7.897502 -5.84769,-13.08934 z"
       inkscape:connector-curvature="0"
       style="fill:#f2f2f2;fill-opacity:1;stroke:#e6e6e6;stroke-width:0.52916664;stroke-miterlimit:4;stroke-dasharray:none;stroke-opacity:1"
       sodipodi:nodetypes="ssscccscccsscccscccssccscccs" />
  </g>
</svg>
