<?xml version="1.0" encoding="UTF-8" standalone="no"?>
<!-- Created with Inkscape (http://www.inkscape.org/) -->

<svg
   xmlns:dc="http://purl.org/dc/elements/1.1/"
   xmlns:cc="http://creativecommons.org/ns#"
   xmlns:rdf="http://www.w3.org/1999/02/22-rdf-syntax-ns#"
   xmlns:svg="http://www.w3.org/2000/svg"
   xmlns="http://www.w3.org/2000/svg"
   xmlns:sodipodi="http://sodipodi.sourceforge.net/DTD/sodipodi-0.dtd"
   xmlns:inkscape="http://www.inkscape.org/namespaces/inkscape"
   width="27.51659mm"
   height="21.16666mm"
   viewBox="0 0 27.51659 21.16666"
   version="1.1"
   id="svg7873"
   inkscape:version="0.92.1 r15371"
   sodipodi:docname="acerto.svg">
  <defs
     id="defs7867" />
  <sodipodi:namedview
     id="base"
     pagecolor="#ffffff"
     bordercolor="#666666"
     borderopacity="1.0"
     inkscape:pageopacity="0.0"
     inkscape:pageshadow="2"
     inkscape:zoom="1.979899"
     inkscape:cx="-69.88381"
     inkscape:cy="82.638991"
     inkscape:document-units="mm"
     inkscape:current-layer="layer1"
     showgrid="false"
     fit-margin-top="0"
     fit-margin-left="0"
     fit-margin-right="0"
     fit-margin-bottom="0"
     inkscape:window-width="1920"
     inkscape:window-height="1018"
     inkscape:window-x="-8"
     inkscape:window-y="-8"
     inkscape:window-maximized="1" />
  <metadata
     id="metadata7870">
    <rdf:RDF>
      <cc:Work
         rdf:about="">
        <dc:format>image/svg+xml</dc:format>
        <dc:type
           rdf:resource="http://purl.org/dc/dcmitype/StillImage" />
        <dc:title></dc:title>
      </cc:Work>
    </rdf:RDF>
  </metadata>
  <g
     inkscape:label="Layer 1"
     inkscape:groupmode="layer"
     id="layer1"
     transform="translate(-185.8532,-122.17702)">
    <path
       id="path11392-7"
       d="m 186.17079,133.81845 c -0.21159,-0.2116 -0.31759,-0.52916 -0.31759,-0.7408 0,-0.21159 0.1056,-0.52919 0.31759,-0.74083 l 1.48168,-1.48167 c 0.42332,-0.42332 1.05831,-0.42332 1.48163,0 l 0.106,0.106 5.82081,6.24412 c 0.2116,0.2116 0.52916,0.2116 0.74084,0 l 14.18161,-14.71076 h 0.1056 v 0 c 0.42336,-0.42332 1.05835,-0.42332 1.48167,0 l 1.48167,1.48167 c 0.42332,0.42332 0.42332,1.05831 0,1.48167 v 0 l -16.93327,17.56824 c -0.2116,0.2116 -0.42332,0.31759 -0.7408,0.31759 -0.3176,0 -0.5292,-0.10599 -0.74084,-0.31759 l -8.25496,-8.88996 z"
       inkscape:connector-curvature="0"
       style="fill:#88aa00;fill-opacity:1;stroke-width:0.26458332" />
  </g>
</svg>
