<?xml version="1.0" encoding="UTF-8" standalone="no"?>
<!-- Created with Inkscape (http://www.inkscape.org/) -->

<svg
   xmlns:dc="http://purl.org/dc/elements/1.1/"
   xmlns:cc="http://creativecommons.org/ns#"
   xmlns:rdf="http://www.w3.org/1999/02/22-rdf-syntax-ns#"
   xmlns:svg="http://www.w3.org/2000/svg"
   xmlns="http://www.w3.org/2000/svg"
   xmlns:sodipodi="http://sodipodi.sourceforge.net/DTD/sodipodi-0.dtd"
   xmlns:inkscape="http://www.inkscape.org/namespaces/inkscape"
   width="21.16667mm"
   height="21.16667mm"
   viewBox="0 0 21.16667 21.16667"
   version="1.1"
   id="svg8594"
   inkscape:version="0.92.1 r15371"
   sodipodi:docname="check_vermelho.svg">
  <defs
     id="defs8588" />
  <sodipodi:namedview
     id="base"
     pagecolor="#ffffff"
     bordercolor="#666666"
     borderopacity="1.0"
     inkscape:pageopacity="0.0"
     inkscape:pageshadow="2"
     inkscape:zoom="0.35"
     inkscape:cx="-1786.6704"
     inkscape:cy="-108.09907"
     inkscape:document-units="mm"
     inkscape:current-layer="layer1"
     showgrid="false"
     fit-margin-top="0"
     fit-margin-left="0"
     fit-margin-right="0"
     fit-margin-bottom="0"
     inkscape:window-width="1920"
     inkscape:window-height="1018"
     inkscape:window-x="-8"
     inkscape:window-y="-8"
     inkscape:window-maximized="1" />
  <metadata
     id="metadata8591">
    <rdf:RDF>
      <cc:Work
         rdf:about="">
        <dc:format>image/svg+xml</dc:format>
        <dc:type
           rdf:resource="http://purl.org/dc/dcmitype/StillImage" />
        <dc:title></dc:title>
      </cc:Work>
    </rdf:RDF>
  </metadata>
  <g
     inkscape:label="Layer 1"
     inkscape:groupmode="layer"
     id="layer1"
     transform="translate(-395.23808,-99.06545)">
    <path
       id="path15962-6-1-0-2"
       d="m 405.82141,99.06545 c -5.86898,0 -10.58333,4.7144 -10.58333,10.58333 0,5.86894 4.71435,10.58334 10.58333,10.58334 5.86899,0 10.58334,-4.7144 10.58334,-10.58334 0,-5.86893 -4.71435,-10.58333 -10.58334,-10.58333 z m 6.1095,7.264 v 0 l -7.697,7.9856 c -0.0952,0.0963 -0.19314,0.1442 -0.33681,0.1442 -0.14288,0 -0.2884,-0.0481 -0.33655,-0.1442 l -3.75259,-4.0409 -0.0952,-0.0963 c -0.0953,-0.0963 -0.14287,-0.2405 -0.14287,-0.33673 0,-0.0963 0.0476,-0.24051 0.14287,-0.33676 l 0.67363,-0.67347 c 0.19315,-0.19235 0.48101,-0.19235 0.67363,0 l 0.0476,0.0482 2.64583,2.83827 c 0.0953,0.0963 0.24077,0.0963 0.33681,0 l 6.44631,-6.68677 h 0.0476 c 0.19314,-0.19235 0.48101,-0.19235 0.67336,0 l 0.67337,0.6735 c 0.19314,0.1442 0.19314,0.43294 0,0.62537 z"
       inkscape:connector-curvature="0"
       style="fill:#c83737;fill-opacity:1;stroke-width:0.26458329"
       inkscape:export-filename="F:\SESI\Layout\RST\Novas telas\questionario_resultado.png"
       inkscape:export-xdpi="90"
       inkscape:export-ydpi="90" />
  </g>
</svg>
