<?xml version="1.0" encoding="UTF-8" standalone="no"?>
<!-- Created with Inkscape (http://www.inkscape.org/) -->

<svg
   xmlns:dc="http://purl.org/dc/elements/1.1/"
   xmlns:cc="http://creativecommons.org/ns#"
   xmlns:rdf="http://www.w3.org/1999/02/22-rdf-syntax-ns#"
   xmlns:svg="http://www.w3.org/2000/svg"
   xmlns="http://www.w3.org/2000/svg"
   xmlns:sodipodi="http://sodipodi.sourceforge.net/DTD/sodipodi-0.dtd"
   xmlns:inkscape="http://www.inkscape.org/namespaces/inkscape"
   width="21.16667mm"
   height="21.16667mm"
   viewBox="0 0 21.16667 21.16667"
   version="1.1"
   id="svg8594"
   inkscape:version="0.92.1 r15371"
   sodipodi:docname="check_laranja.svg">
  <defs
     id="defs8588" />
  <sodipodi:namedview
     id="base"
     pagecolor="#ffffff"
     bordercolor="#666666"
     borderopacity="1.0"
     inkscape:pageopacity="0.0"
     inkscape:pageshadow="2"
     inkscape:zoom="0.35"
     inkscape:cx="-594.88188"
     inkscape:cy="543.68949"
     inkscape:document-units="mm"
     inkscape:current-layer="layer1"
     showgrid="false"
     fit-margin-top="0"
     fit-margin-left="0"
     fit-margin-right="0"
     fit-margin-bottom="0"
     inkscape:window-width="1920"
     inkscape:window-height="1018"
     inkscape:window-x="-8"
     inkscape:window-y="-8"
     inkscape:window-maximized="1" />
  <metadata
     id="metadata8591">
    <rdf:RDF>
      <cc:Work
         rdf:about="">
        <dc:format>image/svg+xml</dc:format>
        <dc:type
           rdf:resource="http://purl.org/dc/dcmitype/StillImage" />
        <dc:title></dc:title>
      </cc:Work>
    </rdf:RDF>
  </metadata>
  <g
     inkscape:label="Layer 1"
     inkscape:groupmode="layer"
     id="layer1"
     transform="translate(-79.910711,-271.51784)">
    <path
       id="path15962-7"
       d="m 90.494044,271.51784 c -5.868988,0 -10.583333,4.7144 -10.583333,10.58334 0,5.86897 4.714345,10.58333 10.583333,10.58333 5.868988,0 10.583336,-4.71436 10.583336,-10.58333 0,-5.86894 -4.714348,-10.58334 -10.583336,-10.58334 z m 6.109493,7.26404 v 0 l -7.696993,7.9856 c -0.09525,0.0963 -0.193145,0.1442 -0.336815,0.1442 -0.142874,0 -0.288396,-0.0481 -0.336549,-0.1442 l -3.752585,-4.0409 -0.09525,-0.0963 c -0.09525,-0.0963 -0.142875,-0.24051 -0.142875,-0.33676 0,-0.0963 0.04763,-0.24051 0.142875,-0.33673 l 0.673629,-0.67348 c 0.193145,-0.19235 0.481012,-0.19235 0.673629,0 l 0.04763,0.0481 2.645836,2.83824 c 0.09525,0.0963 0.24077,0.0963 0.336812,0 l 6.44631,-6.68673 h 0.04763 c 0.193145,-0.19236 0.481012,-0.19236 0.673364,0 l 0.673364,0.67346 c 0.193147,0.1442 0.193147,0.43296 -3e-6,0.6254 z"
       inkscape:connector-curvature="0"
       style="fill:#ff7f2a;fill-opacity:1;stroke-width:0.26458329"
       inkscape:export-filename="F:\SESI\Layout\RST\Novas telas\questionario_resultado.png"
       inkscape:export-xdpi="90"
       inkscape:export-ydpi="90" />
  </g>
</svg>
