<?xml version="1.0" encoding="UTF-8" standalone="no"?>
<!-- Created with Inkscape (http://www.inkscape.org/) -->

<svg
   xmlns:dc="http://purl.org/dc/elements/1.1/"
   xmlns:cc="http://creativecommons.org/ns#"
   xmlns:rdf="http://www.w3.org/1999/02/22-rdf-syntax-ns#"
   xmlns:svg="http://www.w3.org/2000/svg"
   xmlns="http://www.w3.org/2000/svg"
   xmlns:sodipodi="http://sodipodi.sourceforge.net/DTD/sodipodi-0.dtd"
   xmlns:inkscape="http://www.inkscape.org/namespaces/inkscape"
   width="12.972308mm"
   height="13mm"
   viewBox="0 0 12.972308 13"
   version="1.1"
   id="svg6672"
   inkscape:version="0.92.1 r15371"
   sodipodi:docname="edit_icon.svg">
  <defs
     id="defs6666" />
  <sodipodi:namedview
     id="base"
     pagecolor="#ffffff"
     bordercolor="#666666"
     borderopacity="1.0"
     inkscape:pageopacity="0.0"
     inkscape:pageshadow="2"
     inkscape:zoom="5.6"
     inkscape:cx="19.935046"
     inkscape:cy="17.053398"
     inkscape:document-units="mm"
     inkscape:current-layer="layer1"
     showgrid="false"
     fit-margin-top="0"
     fit-margin-left="0"
     fit-margin-right="0"
     fit-margin-bottom="0"
     inkscape:window-width="1920"
     inkscape:window-height="1018"
     inkscape:window-x="-8"
     inkscape:window-y="-8"
     inkscape:window-maximized="1" />
  <metadata
     id="metadata6669">
    <rdf:RDF>
      <cc:Work
         rdf:about="">
        <dc:format>image/svg+xml</dc:format>
        <dc:type
           rdf:resource="http://purl.org/dc/dcmitype/StillImage" />
        <dc:title></dc:title>
      </cc:Work>
    </rdf:RDF>
  </metadata>
  <g
     inkscape:label="Layer 1"
     inkscape:groupmode="layer"
     id="layer1"
     transform="translate(-22.539195,-154.28273)">
    <g
       transform="matrix(0.11212789,0,0,0.11213066,-73.874912,-79.140746)"
       id="g6069-1-6"
       style="fill:#6c0f55;fill-opacity:1;stroke:#000000;stroke-width:1.17981374;stroke-miterlimit:4;stroke-dasharray:none;stroke-opacity:1">
      <g
         transform="matrix(1.0914881,0,0,1.0914961,859.97617,2080.4084)"
         id="g14243-5-8-2"
         style="fill:#6c0f55;fill-opacity:1;stroke:#000000;stroke-width:1.08091831;stroke-miterlimit:4;stroke-dasharray:none;stroke-opacity:1">
        <g
           id="g14241-0-6-1"
           style="fill:#6c0f55;fill-opacity:1;stroke:#000000;stroke-width:1.08091831;stroke-miterlimit:4;stroke-dasharray:none;stroke-opacity:1">
          <path
             sodipodi:nodetypes="ccccccccccscccccccccccccccccccccccsccsccccsccccc"
             inkscape:connector-curvature="0"
             id="path14239-9-1-0"
             transform="matrix(0.24240606,0,0,0.24240429,-415.56536,-1440.7611)"
             d="m 2031.5234,5950.3308 c -9.8648,0 -19.6798,3.7379 -27.25,10.8633 l -0.023,0.023 -0.2617,0.25 -55.4981,55.9121 c -73.7187,73.8516 -147.9404,147.2703 -221.6406,221.2656 l -0.2226,0.2246 -0.209,0.2383 c -5.4431,6.2205 -10.3301,15.2431 -10.3301,26.2949 l -0.4141,80.3848 v 0.068 c 0,9.7945 3.5714,20.0202 11.3242,27.7734 7.3463,7.3459 17.2438,11.3179 27.3536,11.3184 h 0.07 l 79.9765,-0.42 c 10.0954,0 19.9956,-3.9602 27.3477,-11.3125 l 275.8965,-275.9003 0.5039,-0.5118 c 14.8669,-14.8667 14.779,-38.9486 0.8418,-54.1992 l -0.3594,-0.4277 -8.7598,-8.8516 -13.7226,14.0215 7.9785,8.0605 0.019,0.023 0.1856,0.1992 c 7.221,7.6851 7.3045,19.9455 -0.055,27.3047 l -0.021,0.019 -0.5234,0.5313 -275.8555,275.8594 c -3.5011,3.5012 -8.6684,5.5665 -13.4766,5.5664 h -0.025 l -80.0039,0.4218 h -0.017 c -4.8191,-2e-4 -9.9772,-2.0691 -13.4825,-5.5742 -3.7782,-3.778 -5.58,-8.8393 -5.58,-13.9043 v -0.018 l 0.414,-80.4062 v -0.025 c 0,-5.186 2.2997,-9.6874 5.3731,-13.2441 73.5307,-73.8221 147.6417,-147.1338 221.3164,-220.9414 l 0.01,-0.012 55.3223,-55.7324 c 3.886,-3.656 8.9051,-5.5273 13.7988,-5.5273 h 0.014 c 2.8549,-0.01 4.5033,-0.017 0.6875,0.01 9.692,0.8124 14.3067,7.0489 20.7461,13.5547 l 13.7422,-14 c -10.7918,-11.7354 -18.4943,-19.2301 -35.1908,-19.1799 z"
             style="color:#000000;font-style:normal;font-variant:normal;font-weight:normal;font-stretch:normal;font-size:medium;line-height:normal;font-family:sans-serif;font-variant-ligatures:normal;font-variant-position:normal;font-variant-caps:normal;font-variant-numeric:normal;font-variant-alternates:normal;font-feature-settings:normal;text-indent:0;text-align:start;text-decoration:none;text-decoration-line:none;text-decoration-style:solid;text-decoration-color:#000000;letter-spacing:normal;word-spacing:normal;text-transform:none;writing-mode:lr-tb;direction:ltr;text-orientation:mixed;dominant-baseline:auto;baseline-shift:baseline;text-anchor:start;white-space:normal;shape-padding:0;clip-rule:nonzero;display:inline;overflow:visible;visibility:visible;opacity:1;isolation:auto;mix-blend-mode:normal;color-interpolation:sRGB;color-interpolation-filters:linearRGB;solid-color:#000000;solid-opacity:1;vector-effect:none;fill:#6c0f55;fill-opacity:1;fill-rule:nonzero;stroke:#6c0f55;stroke-width:3.56731105;stroke-linecap:butt;stroke-linejoin:miter;stroke-miterlimit:4;stroke-dasharray:none;stroke-dashoffset:0;stroke-opacity:1;color-rendering:auto;image-rendering:auto;shape-rendering:auto;text-rendering:auto;enable-background:accumulate" />
        </g>
      </g>
      <path
         style="color:#000000;font-style:normal;font-variant:normal;font-weight:normal;font-stretch:normal;font-size:medium;line-height:normal;font-family:sans-serif;font-variant-ligatures:normal;font-variant-position:normal;font-variant-caps:normal;font-variant-numeric:normal;font-variant-alternates:normal;font-feature-settings:normal;text-indent:0;text-align:start;text-decoration:none;text-decoration-line:none;text-decoration-style:solid;text-decoration-color:#000000;letter-spacing:normal;word-spacing:normal;text-transform:none;writing-mode:lr-tb;direction:ltr;text-orientation:mixed;dominant-baseline:auto;baseline-shift:baseline;text-anchor:start;white-space:normal;shape-padding:0;clip-rule:nonzero;display:inline;overflow:visible;visibility:visible;opacity:1;isolation:auto;mix-blend-mode:normal;color-interpolation:sRGB;color-interpolation-filters:linearRGB;solid-color:#000000;solid-opacity:1;vector-effect:none;fill:#6c0f55;fill-opacity:1;fill-rule:nonzero;stroke:#6c0f55;stroke-width:0.94385099;stroke-linecap:butt;stroke-linejoin:miter;stroke-miterlimit:4;stroke-dasharray:none;stroke-dashoffset:0;stroke-opacity:1;color-rendering:auto;image-rendering:auto;shape-rendering:auto;text-rendering:auto;enable-background:accumulate"
         d="m 959.8419,2092.1965 -5.02743,5.1223 4.95668,4.8777 5.0514,-5.1617 z"
         id="rect14257-1-2-2"
         inkscape:connector-curvature="0"
         sodipodi:nodetypes="ccccc" />
    </g>
  </g>
</svg>
