<?xml version="1.0" encoding="UTF-8" standalone="no"?>
<!-- Created with Inkscape (http://www.inkscape.org/) -->

<svg
   xmlns:dc="http://purl.org/dc/elements/1.1/"
   xmlns:cc="http://creativecommons.org/ns#"
   xmlns:rdf="http://www.w3.org/1999/02/22-rdf-syntax-ns#"
   xmlns:svg="http://www.w3.org/2000/svg"
   xmlns="http://www.w3.org/2000/svg"
   xmlns:sodipodi="http://sodipodi.sourceforge.net/DTD/sodipodi-0.dtd"
   xmlns:inkscape="http://www.inkscape.org/namespaces/inkscape"
   width="7.1152205mm"
   height="7.4083338mm"
   viewBox="0 0 7.1152206 7.4083338"
   version="1.1"
   id="svg5766"
   inkscape:version="0.92.1 r15371"
   sodipodi:docname="mini_notificacao.svg">
  <defs
     id="defs5760" />
  <sodipodi:namedview
     id="base"
     pagecolor="#ffffff"
     bordercolor="#666666"
     borderopacity="1.0"
     inkscape:pageopacity="0.0"
     inkscape:pageshadow="2"
     inkscape:zoom="0.35"
     inkscape:cx="13.446076"
     inkscape:cy="13.999987"
     inkscape:document-units="mm"
     inkscape:current-layer="layer1"
     showgrid="false"
     fit-margin-top="0"
     fit-margin-left="0"
     fit-margin-right="0"
     fit-margin-bottom="0"
     inkscape:window-width="1920"
     inkscape:window-height="1018"
     inkscape:window-x="-8"
     inkscape:window-y="-8"
     inkscape:window-maximized="1" />
  <metadata
     id="metadata5763">
    <rdf:RDF>
      <cc:Work
         rdf:about="">
        <dc:format>image/svg+xml</dc:format>
        <dc:type
           rdf:resource="http://purl.org/dc/dcmitype/StillImage" />
        <dc:title></dc:title>
      </cc:Work>
    </rdf:RDF>
  </metadata>
  <g
     inkscape:label="Layer 1"
     inkscape:groupmode="layer"
     id="layer1"
     transform="translate(632.50999,-461.11726)">
    <g
       id="g6698-8-8"
       transform="matrix(0.06284907,0,0,0.06284907,-732.36665,331.99866)"
       style="fill:#6ccef5;fill-opacity:1;stroke:#ffffff;stroke-width:35.00449753;stroke-miterlimit:4;stroke-dasharray:none;stroke-opacity:1">
      <g
         inkscape:export-ydpi="300"
         inkscape:export-xdpi="300"
         inkscape:export-filename="F:\FeedS\icon\notif.png"
         style="fill:#6ccef5;fill-opacity:1;stroke:#ffffff;stroke-width:116.19005585;stroke-miterlimit:4;stroke-dasharray:none;stroke-opacity:1"
         transform="matrix(0.30336278,0,0,0.29919027,1567.7784,2046.2413)"
         id="g15397-20-4-4-2">
        <g
           style="fill:#6ccef5;fill-opacity:1;stroke:#ffffff;stroke-width:116.19005585;stroke-miterlimit:4;stroke-dasharray:none;stroke-opacity:1"
           id="g15395-7-7-2-9">
          <path
             style="color:#000000;font-style:normal;font-variant:normal;font-weight:normal;font-stretch:normal;font-size:medium;line-height:normal;font-family:sans-serif;font-variant-ligatures:normal;font-variant-position:normal;font-variant-caps:normal;font-variant-numeric:normal;font-variant-alternates:normal;font-feature-settings:normal;text-indent:0;text-align:start;text-decoration:none;text-decoration-line:none;text-decoration-style:solid;text-decoration-color:#000000;letter-spacing:normal;word-spacing:normal;text-transform:none;writing-mode:lr-tb;direction:ltr;text-orientation:mixed;dominant-baseline:auto;baseline-shift:baseline;text-anchor:start;white-space:normal;shape-padding:0;clip-rule:nonzero;display:inline;overflow:visible;visibility:visible;opacity:1;isolation:auto;mix-blend-mode:normal;color-interpolation:sRGB;color-interpolation-filters:linearRGB;solid-color:#000000;solid-opacity:1;vector-effect:none;fill:#6ccef5;fill-opacity:1;fill-rule:nonzero;stroke:none;stroke-width:116.19006348;stroke-linecap:butt;stroke-linejoin:miter;stroke-miterlimit:4;stroke-dasharray:none;stroke-dashoffset:0;stroke-opacity:1;color-rendering:auto;image-rendering:auto;shape-rendering:auto;text-rendering:auto;enable-background:accumulate"
             d="m 255.79357,27.347575 c -5.73721,0.06633 -10.32847,0.598958 -14.59521,2.266099 -4.65258,1.817832 -7.71598,4.894067 -9.31449,6.7914 -5.08265,6.03282 -6.94821,13.547779 -7.90568,23.37951 l -0.36457,3.746381 -3.69476,0.91714 c -46.30053,11.487022 -78.1535,50.430945 -82.12187,102.062535 -2.82294,36.74194 -8.26946,67.90153 -17.24572,91.70967 -8.98429,23.82946 -21.027628,39.92181 -37.452122,49.40158 -3.75198,2.16502 -6.829861,5.41892 -8.89376,9.66035 -2.063811,4.24134 -3.273421,9.36984 -4.141054,15.96457 v 0 c -0.595342,4.52989 -0.967147,11.20103 -0.323662,17.88011 0.244731,2.53963 0.770386,4.67202 1.223042,6.2249 l 2.808991,9.64302 H 196.47934 l 0.74099,4.47347 c 4.68302,28.23635 29.25409,49.85931 58.77934,49.85931 29.52463,0 54.09439,-21.62473 58.77933,-49.86107 l 0.73934,-4.47003 h 122.69974 l 2.81405,-9.64302 v 0 c 0.45091,-1.54731 0.97796,-3.68395 1.22313,-6.23179 0.64244,-6.68245 0.26767,-13.35314 -0.32881,-17.8818 v 0 c -0.89109,-6.74586 -2.50914,-12.1424 -4.79178,-16.48969 v 0 l -0.27935,-0.53024 -0.10902,-0.16581 -0.32026,-0.58207 -0.36963,-0.37478 c -2.11056,-3.42024 -4.58403,-5.97808 -7.15963,-7.46508 l -0.082,-0.0469 c -16.16965,-9.35932 -28.07256,-24.85767 -37.03644,-48.03715 v 0 c -3.2695,-8.45491 -6.0866,-17.90488 -8.48149,-28.2657 l -26.91293,2.08472 c 2.80629,12.89718 6.25179,24.88597 10.51033,35.89828 10.15273,26.25483 25.29776,47.24319 46.73425,60.34359 0.2934,0.65493 1.31357,3.31509 1.82275,7.16963 0.0593,0.45269 0.068,2.24859 0.12088,3.40945 H 292.89796 l -4.46132,26.88747 c -2.57324,15.51294 -15.81171,27.4454 -32.44395,27.4454 -16.63443,0 -29.87376,-11.9314 -32.4457,-27.44195 l -4.46131,-26.88915 H 96.408084 c 0.05233,-1.15954 0.06018,-2.955 0.119225,-3.40609 v 0 c 0.542925,-4.12435 1.603219,-6.20518 2.171873,-7.20244 0.06367,-0.1116 0.119661,-0.19977 0.17548,-0.29192 21.592878,-13.40823 36.608648,-34.94152 46.637178,-61.54053 10.41186,-27.6159 15.96487,-60.97703 18.89805,-99.15388 3.24377,-42.20418 25.95564,-69.163289 61.90353,-78.081948 l 22.0273,-5.464902 2.20432,-22.628182 v 0 c 0.31677,-3.248945 1.16871,-6.567947 1.54173,-7.328051 0.98063,-1.694469 5.79161,-2.217693 7.76596,-0.238819 0.54103,0.555425 1.22252,1.455698 1.42233,5.950224 l 1.04591,23.585028 22.77353,6.064302 c 33.19864,8.841103 54.3092,32.196468 60.96149,67.314508 l 0.72224,3.81368 h 26.99291 l -0.93863,-5.50116 C 365.0908,110.72065 335.38746,76.093776 291.93552,64.522123 l -3.81739,-1.017334 -0.17382,-3.89831 v 0 c -0.41411,-9.310859 -3.26636,-17.283371 -8.48315,-22.956269 -4.67909,-5.087646 -12.7879,-9.095966 -23.28793,-9.273452 l 0.79725,0.08313 -0.5315,-0.101963 h -0.44123 -0.1788 z M 413.68661,323.68152 c -0.15307,0.21684 -0.19868,0.48002 -0.32532,0.74099 l -0.0768,-0.2867 c 0.15001,-0.27052 0.23705,-0.25496 0.40198,-0.45429 z"
             id="path15389-14-8-0-1"
             inkscape:connector-curvature="0"
             sodipodi:nodetypes="cccccccscccccccccsccccccccccccccccccccccccccscccccccccccccccccccccccccccccccccccccc" />
        </g>
      </g>
      <path
         style="color:#000000;font-style:normal;font-variant:normal;font-weight:normal;font-stretch:normal;font-size:medium;line-height:normal;font-family:sans-serif;font-variant-ligatures:normal;font-variant-position:normal;font-variant-caps:normal;font-variant-numeric:normal;font-variant-alternates:normal;font-feature-settings:normal;text-indent:0;text-align:start;text-decoration:none;text-decoration-line:none;text-decoration-style:solid;text-decoration-color:#000000;letter-spacing:normal;word-spacing:normal;text-transform:none;writing-mode:lr-tb;direction:ltr;text-orientation:mixed;dominant-baseline:auto;baseline-shift:baseline;text-anchor:start;white-space:normal;shape-padding:0;clip-rule:nonzero;display:inline;overflow:visible;visibility:visible;opacity:1;isolation:auto;mix-blend-mode:normal;color-interpolation:sRGB;color-interpolation-filters:linearRGB;solid-color:#000000;solid-opacity:1;vector-effect:none;fill:#6ccef5;fill-opacity:1;fill-rule:nonzero;stroke:none;stroke-width:35.00449753;stroke-linecap:butt;stroke-linejoin:miter;stroke-miterlimit:4;stroke-dasharray:none;stroke-dashoffset:0;stroke-opacity:1;color-rendering:auto;image-rendering:auto;shape-rendering:auto;text-rendering:auto;enable-background:accumulate"
         d="m 1674.041,2100.2754 v 1.4062 0.6622 7.2441 h 9.3047 v -9.3125 z"
         id="rect15593-4-6-0-2-2"
         inkscape:connector-curvature="0"
         sodipodi:nodetypes="ccccccc" />
    </g>
  </g>
</svg>
