<?xml version="1.0" encoding="UTF-8" standalone="no"?>
<!-- Created with Inkscape (http://www.inkscape.org/) -->

<svg
   xmlns:dc="http://purl.org/dc/elements/1.1/"
   xmlns:cc="http://creativecommons.org/ns#"
   xmlns:rdf="http://www.w3.org/1999/02/22-rdf-syntax-ns#"
   xmlns:svg="http://www.w3.org/2000/svg"
   xmlns="http://www.w3.org/2000/svg"
   xmlns:sodipodi="http://sodipodi.sourceforge.net/DTD/sodipodi-0.dtd"
   xmlns:inkscape="http://www.inkscape.org/namespaces/inkscape"
   width="18.825455mm"
   height="21.166668mm"
   viewBox="0 0 18.825455 21.166668"
   version="1.1"
   id="svg5912"
   inkscape:version="0.92.1 r15371"
   sodipodi:docname="trash.svg">
  <defs
     id="defs5906" />
  <sodipodi:namedview
     id="base"
     pagecolor="#ffffff"
     bordercolor="#666666"
     borderopacity="1.0"
     inkscape:pageopacity="0.0"
     inkscape:pageshadow="2"
     inkscape:zoom="0.35"
     inkscape:cx="-850.20609"
     inkscape:cy="767.90683"
     inkscape:document-units="mm"
     inkscape:current-layer="layer1"
     showgrid="false"
     fit-margin-top="0"
     fit-margin-left="0"
     fit-margin-right="0"
     fit-margin-bottom="0"
     inkscape:window-width="1920"
     inkscape:window-height="1018"
     inkscape:window-x="-8"
     inkscape:window-y="-8"
     inkscape:window-maximized="1" />
  <metadata
     id="metadata5909">
    <rdf:RDF>
      <cc:Work
         rdf:about="">
        <dc:format>image/svg+xml</dc:format>
        <dc:type
           rdf:resource="http://purl.org/dc/dcmitype/StillImage" />
        <dc:title></dc:title>
      </cc:Work>
    </rdf:RDF>
  </metadata>
  <g
     inkscape:label="Layer 1"
     inkscape:groupmode="layer"
     id="layer1"
     transform="translate(-661.51285,-342.1813)">
    <g
       id="g7698-5-8"
       transform="matrix(0.043517,0,0,0.043517,660.34224,342.1813)"
       style="fill:#fe6440;fill-opacity:1;stroke-width:6.08000422"
       inkscape:export-filename="F:\SESI\Layout\RST\Novas telas\cargo.png"
       inkscape:export-xdpi="90"
       inkscape:export-ydpi="90">
      <g
         id="g7638-89-5"
         style="fill:#fe6440;fill-opacity:1;stroke-width:6.08000422">
        <g
           id="g7636-0-4"
           style="fill:#fe6440;fill-opacity:1;stroke-width:6.08000422">
          <path
             id="path7628-4-3"
             d="M 446,70 H 344.8 V 53.5 C 344.8,24 320.8,0 291.3,0 H 195.1 C 165.6,0 141.6,24 141.6,53.5 V 70 H 40.4 c -7.5,0 -13.5,6 -13.5,13.5 0,7.5 6,13.5 13.5,13.5 h 24.4 v 317.2 c 0,39.8 32.4,72.2 72.2,72.2 h 212.4 c 39.8,0 72.2,-32.4 72.2,-72.2 V 97 H 446 c 7.5,0 13.5,-6 13.5,-13.5 C 459.5,76 453.5,70 446,70 Z M 168.6,53.5 C 168.6,38.9 180.5,27 195.1,27 h 96.2 c 14.6,0 26.5,11.9 26.5,26.5 V 70 H 168.6 Z m 226,360.7 c 0,24.9 -20.3,45.2 -45.2,45.2 H 137 c -24.9,0 -45.2,-20.3 -45.2,-45.2 V 97 h 302.9 v 317.2 z"
             inkscape:connector-curvature="0"
             style="fill:#fe6440;fill-opacity:1;stroke-width:6.08000422" />
          <path
             id="path7630-8-6"
             d="m 243.2,411 c 7.5,0 13.5,-6 13.5,-13.5 V 158.9 c 0,-7.5 -6,-13.5 -13.5,-13.5 -7.5,0 -13.5,6 -13.5,13.5 v 238.5 c 0,7.5 6,13.6 13.5,13.6 z"
             inkscape:connector-curvature="0"
             style="fill:#fe6440;fill-opacity:1;stroke-width:6.08000422" />
          <path
             id="path7632-9-4"
             d="m 155.1,396.1 c 7.5,0 13.5,-6 13.5,-13.5 V 173.7 c 0,-7.5 -6,-13.5 -13.5,-13.5 -7.5,0 -13.5,6 -13.5,13.5 v 208.9 c 0,7.5 6.1,13.5 13.5,13.5 z"
             inkscape:connector-curvature="0"
             style="fill:#fe6440;fill-opacity:1;stroke-width:6.08000422" />
          <path
             id="path7634-3-5"
             d="m 331.3,396.1 c 7.5,0 13.5,-6 13.5,-13.5 V 173.7 c 0,-7.5 -6,-13.5 -13.5,-13.5 -7.5,0 -13.5,6 -13.5,13.5 v 208.9 c 0,7.5 6,13.5 13.5,13.5 z"
             inkscape:connector-curvature="0"
             style="fill:#fe6440;fill-opacity:1;stroke-width:6.08000422" />
        </g>
      </g>
      <g
         id="g7640-8-8"
         style="fill:#fe6440;fill-opacity:1;stroke-width:6.08000422" />
      <g
         id="g7642-5-5"
         style="fill:#fe6440;fill-opacity:1;stroke-width:6.08000422" />
      <g
         id="g7644-78-7"
         style="fill:#fe6440;fill-opacity:1;stroke-width:6.08000422" />
      <g
         id="g7646-4-9"
         style="fill:#fe6440;fill-opacity:1;stroke-width:6.08000422" />
      <g
         id="g7648-6-8-9"
         style="fill:#fe6440;fill-opacity:1;stroke-width:6.08000422" />
      <g
         id="g7650-1-0"
         style="fill:#fe6440;fill-opacity:1;stroke-width:6.08000422" />
      <g
         id="g7652-5-5"
         style="fill:#fe6440;fill-opacity:1;stroke-width:6.08000422" />
      <g
         id="g7654-3-3"
         style="fill:#fe6440;fill-opacity:1;stroke-width:6.08000422" />
      <g
         id="g7656-3-4"
         style="fill:#fe6440;fill-opacity:1;stroke-width:6.08000422" />
      <g
         id="g7658-71-0"
         style="fill:#fe6440;fill-opacity:1;stroke-width:6.08000422" />
      <g
         id="g7660-0-0"
         style="fill:#fe6440;fill-opacity:1;stroke-width:6.08000422" />
      <g
         id="g7662-4-3-9"
         style="fill:#fe6440;fill-opacity:1;stroke-width:6.08000422" />
      <g
         id="g7664-8-8"
         style="fill:#fe6440;fill-opacity:1;stroke-width:6.08000422" />
      <g
         id="g7666-8-6-4"
         style="fill:#fe6440;fill-opacity:1;stroke-width:6.08000422" />
      <g
         id="g7668-8-4"
         style="fill:#fe6440;fill-opacity:1;stroke-width:6.08000422" />
    </g>
  </g>
</svg>
