<?xml version="1.0" encoding="UTF-8" standalone="no"?>
<!-- Created with Inkscape (http://www.inkscape.org/) -->

<svg
   xmlns:dc="http://purl.org/dc/elements/1.1/"
   xmlns:cc="http://creativecommons.org/ns#"
   xmlns:rdf="http://www.w3.org/1999/02/22-rdf-syntax-ns#"
   xmlns:svg="http://www.w3.org/2000/svg"
   xmlns="http://www.w3.org/2000/svg"
   xmlns:sodipodi="http://sodipodi.sourceforge.net/DTD/sodipodi-0.dtd"
   xmlns:inkscape="http://www.inkscape.org/namespaces/inkscape"
   width="12.080396mm"
   height="14mm"
   viewBox="0 0 12.080396 14"
   version="1.1"
   id="svg16384"
   inkscape:version="0.92.1 r15371"
   sodipodi:docname="laboratorio_clean.svg">
  <defs
     id="defs16378" />
  <sodipodi:namedview
     id="base"
     pagecolor="#ffffff"
     bordercolor="#666666"
     borderopacity="1.0"
     inkscape:pageopacity="0.0"
     inkscape:pageshadow="2"
     inkscape:zoom="0.35"
     inkscape:cx="-51.966956"
     inkscape:cy="-116.85041"
     inkscape:document-units="mm"
     inkscape:current-layer="layer1"
     showgrid="false"
     fit-margin-top="0"
     fit-margin-left="0"
     fit-margin-right="0"
     fit-margin-bottom="0"
     inkscape:window-width="1920"
     inkscape:window-height="1018"
     inkscape:window-x="-8"
     inkscape:window-y="-8"
     inkscape:window-maximized="1" />
  <metadata
     id="metadata16381">
    <rdf:RDF>
      <cc:Work
         rdf:about="">
        <dc:format>image/svg+xml</dc:format>
        <dc:type
           rdf:resource="http://purl.org/dc/dcmitype/StillImage" />
        <dc:title></dc:title>
      </cc:Work>
    </rdf:RDF>
  </metadata>
  <g
     inkscape:label="Layer 1"
     inkscape:groupmode="layer"
     id="layer1"
     transform="translate(73.184933,-103.91666)">
    <g
       id="g9111-8-7"
       transform="matrix(0.96206149,0,0,0.96206149,-318.60452,-67.616165)"
       style="fill:#782121;stroke-width:1.03943479"
       inkscape:export-filename="F:\SESI\Layout\Ãcones\triagem.png"
       inkscape:export-xdpi="120"
       inkscape:export-ydpi="120">
      <g
         transform="matrix(0.03770549,0,0,0.03770549,255.09761,175.92068)"
         id="g5854-7-4"
         style="fill:#782121;stroke-width:7.29382038">
        <g
           id="g5852-5-7"
           style="fill:#782121;stroke-width:7.29382038">
          <path
             sodipodi:nodetypes="ssccssscccsscccccsssccc"
             inkscape:connector-curvature="0"
             id="path5850-40-6"
             transform="matrix(5.3586628,0,0,5.3586628,-6727.1201,1100.5251)"
             d="m 1294.1504,-193.61133 c -2.9647,0 -5.377,2.4138 -5.377,5.37891 0,2.46834 1.6725,4.55061 3.9434,5.17969 v 18.18945 32.84375 c 0,5.75125 4.6784,10.42969 10.4297,10.42969 5.7512,0 10.4297,-4.67844 10.4297,-10.42969 v -32.84375 -18.1875 c 2.2709,-0.62926 3.9433,-2.7133 3.9433,-5.18164 -5e-4,-2.96492 -2.4122,-5.37891 -5.3769,-5.37891 z m 2.373,10.75586 h 13.2461 v 16.08789 1.90332 1.90332 30.94141 c 0,3.65203 -2.9708,6.62305 -6.623,6.62305 -3.6522,0 -6.6231,-2.97083 -6.6231,-6.62305 v -30.94141 -3.80664 z"
             style="fill:#782121;stroke-width:1.3611269" />
        </g>
      </g>
      <g
         transform="matrix(0.03770549,0,0,0.03770549,255.09761,175.92068)"
         id="g5860-41-6"
         style="fill:#782121;stroke-width:7.29382038">
        <g
           id="g5858-2-7"
           style="fill:#782121;stroke-width:7.29382038">
          <path
             sodipodi:nodetypes="sssccssscccsccccccc"
             id="path5856-27-5"
             d="M 125.232,63.032 H 28.815 C 12.926,63.032 0,75.959 0,91.847 c 0,13.228 8.963,24.396 21.133,27.766 v 97.464 175.999 c 0,30.819 25.073,55.892 55.892,55.892 30.818,0 55.891,-25.073 55.891,-55.892 V 217.077 119.613 c 12.17,-3.372 21.133,-14.539 21.133,-27.766 C 154.047,75.959 141.12,63.032 125.232,63.032 Z m -12.715,143.846 h -10e-4 -70.985 v -86.217 h 70.985 v 86.217 z"
             inkscape:connector-curvature="0"
             style="fill:#782121;stroke-width:7.29382038" />
        </g>
      </g>
    </g>
  </g>
</svg>
