<?xml version="1.0" encoding="UTF-8" standalone="no"?>
<!-- Created with Inkscape (http://www.inkscape.org/) -->

<svg
   xmlns:dc="http://purl.org/dc/elements/1.1/"
   xmlns:cc="http://creativecommons.org/ns#"
   xmlns:rdf="http://www.w3.org/1999/02/22-rdf-syntax-ns#"
   xmlns:svg="http://www.w3.org/2000/svg"
   xmlns="http://www.w3.org/2000/svg"
   xmlns:sodipodi="http://sodipodi.sourceforge.net/DTD/sodipodi-0.dtd"
   xmlns:inkscape="http://www.inkscape.org/namespaces/inkscape"
   width="38.041199mm"
   height="51.22998mm"
   viewBox="0 0 38.0412 51.22998"
   version="1.1"
   id="svg9884"
   inkscape:version="0.92.1 r15371"
   sodipodi:docname="medicamento_b.svg">
  <defs
     id="defs9878">
    <clipPath
       clipPathUnits="userSpaceOnUse"
       id="clipPath10997">
      <path
         style="opacity:1;vector-effect:none;fill:none;fill-opacity:1;stroke:none;stroke-width:0.19999997;stroke-linecap:butt;stroke-linejoin:miter;stroke-miterlimit:4;stroke-dasharray:none;stroke-dashoffset:0;stroke-opacity:1"
         d="m 1971.9774,-1066.8473 h 61.3952 c 4.5617,0 8.2342,3.6724 8.2342,8.2342 v 71.8068 c 0,4.56174 -3.6725,8.23415 -8.2342,8.23415 h -61.3952 c -4.5617,0 -8.2341,-3.67241 -8.2341,-8.23415 v -71.8068 c 0,-4.5618 3.6724,-8.2342 8.2341,-8.2342 z"
         id="path10999"
         inkscape:connector-curvature="0" />
    </clipPath>
  </defs>
  <sodipodi:namedview
     id="base"
     pagecolor="#ffffff"
     bordercolor="#666666"
     borderopacity="1.0"
     inkscape:pageopacity="0.0"
     inkscape:pageshadow="2"
     inkscape:zoom="0.35"
     inkscape:cx="71.888791"
     inkscape:cy="96.81243"
     inkscape:document-units="mm"
     inkscape:current-layer="layer1"
     showgrid="false"
     fit-margin-top="0"
     fit-margin-left="0"
     fit-margin-right="0"
     fit-margin-bottom="0"
     inkscape:window-width="1920"
     inkscape:window-height="1018"
     inkscape:window-x="-8"
     inkscape:window-y="-8"
     inkscape:window-maximized="1" />
  <metadata
     id="metadata9881">
    <rdf:RDF>
      <cc:Work
         rdf:about="">
        <dc:format>image/svg+xml</dc:format>
        <dc:type
           rdf:resource="http://purl.org/dc/dcmitype/StillImage" />
        <dc:title></dc:title>
      </cc:Work>
    </rdf:RDF>
  </metadata>
  <g
     inkscape:label="Layer 1"
     inkscape:groupmode="layer"
     id="layer1"
     transform="translate(105.9551,-123.2183)">
    <path
       sodipodi:nodetypes="ccccscscccsccscsccccs"
       inkscape:connector-curvature="0"
       id="path5949-8-0-9-6-2-9-6-9-4-0-4-1"
       d="m 1986.2715,-1048.3247 c -4.1321,0 -8.0462,1.6237 -10.9679,4.5458 l -10.1312,10.1159 -10.0583,10.0874 c -2.9217,2.922 -4.5454,6.8357 -4.5454,10.9674 0,4.1321 1.6237,8.0458 4.5454,10.9677 2.9217,2.92177 6.8357,4.54578 10.9678,4.54578 4.1321,0 8.0461,-1.62401 10.9677,-4.54578 l 10.0874,-10.1017 10.1012,-10.1016 c 2.9216,-2.9219 4.5463,-6.836 4.5463,-10.9677 0,-4.1318 -1.6247,-8.0455 -4.5463,-10.9674 -2.9218,-2.9221 -6.8355,-4.5458 -10.9667,-4.5458 z m 0,2.3524 c 3.5142,0 6.8074,1.3668 9.2937,3.8528 2.485,2.486 3.8656,5.7931 3.8656,9.308 0,3.5149 -1.3806,6.8219 -3.8656,9.3079 l -9.5972,9.6111 -18.6019,-18.6304 9.5963,-9.5966 c 2.486,-2.4856 5.7927,-3.8528 9.3091,-3.8528 z"
       style="color:#000000;font-style:normal;font-variant:normal;font-weight:normal;font-stretch:normal;font-size:medium;line-height:normal;font-family:sans-serif;font-variant-ligatures:normal;font-variant-position:normal;font-variant-caps:normal;font-variant-numeric:normal;font-variant-alternates:normal;font-feature-settings:normal;text-indent:0;text-align:start;text-decoration:none;text-decoration-line:none;text-decoration-style:solid;text-decoration-color:#000000;letter-spacing:normal;word-spacing:normal;text-transform:none;writing-mode:lr-tb;direction:ltr;text-orientation:mixed;dominant-baseline:auto;baseline-shift:baseline;text-anchor:start;white-space:normal;shape-padding:0;clip-rule:nonzero;display:inline;overflow:visible;visibility:visible;opacity:0.1;isolation:auto;mix-blend-mode:normal;color-interpolation:sRGB;color-interpolation-filters:linearRGB;solid-color:#000000;solid-opacity:1;vector-effect:none;fill:#d66994;fill-opacity:1;fill-rule:nonzero;stroke:none;stroke-width:0.185;stroke-linecap:butt;stroke-linejoin:miter;stroke-miterlimit:4;stroke-dasharray:none;stroke-dashoffset:0;stroke-opacity:1;color-rendering:auto;image-rendering:auto;shape-rendering:auto;text-rendering:auto;enable-background:accumulate"
       inkscape:export-filename="F:\SESI\Layout\Ãcones\icon_medicamentos_bg.png"
       inkscape:export-xdpi="300"
       inkscape:export-ydpi="300"
       clip-path="url(#clipPath10997)"
       transform="translate(-2069.6984,1171.543)" />
  </g>
</svg>
