<?xml version="1.0" encoding="UTF-8" standalone="no"?>
<!-- Created with Inkscape (http://www.inkscape.org/) -->

<svg
   xmlns:dc="http://purl.org/dc/elements/1.1/"
   xmlns:cc="http://creativecommons.org/ns#"
   xmlns:rdf="http://www.w3.org/1999/02/22-rdf-syntax-ns#"
   xmlns:svg="http://www.w3.org/2000/svg"
   xmlns="http://www.w3.org/2000/svg"
   xmlns:sodipodi="http://sodipodi.sourceforge.net/DTD/sodipodi-0.dtd"
   xmlns:inkscape="http://www.inkscape.org/namespaces/inkscape"
   width="29.458334mm"
   height="29.458334mm"
   viewBox="0 0 29.458334 29.458334"
   version="1.1"
   id="svg12935"
   inkscape:version="0.92.1 r15371"
   sodipodi:docname="pressao.svg">
  <defs
     id="defs12929" />
  <sodipodi:namedview
     id="base"
     pagecolor="#ffffff"
     bordercolor="#666666"
     borderopacity="1.0"
     inkscape:pageopacity="0.0"
     inkscape:pageshadow="2"
     inkscape:zoom="0.35"
     inkscape:cx="-441.92345"
     inkscape:cy="466.64778"
     inkscape:document-units="mm"
     inkscape:current-layer="layer1"
     showgrid="false"
     fit-margin-top="0"
     fit-margin-left="0"
     fit-margin-right="0"
     fit-margin-bottom="0"
     inkscape:window-width="1920"
     inkscape:window-height="1018"
     inkscape:window-x="-8"
     inkscape:window-y="-8"
     inkscape:window-maximized="1" />
  <metadata
     id="metadata12932">
    <rdf:RDF>
      <cc:Work
         rdf:about="">
        <dc:format>image/svg+xml</dc:format>
        <dc:type
           rdf:resource="http://purl.org/dc/dcmitype/StillImage" />
        <dc:title></dc:title>
      </cc:Work>
    </rdf:RDF>
  </metadata>
  <g
     inkscape:label="Layer 1"
     inkscape:groupmode="layer"
     id="layer1"
     transform="translate(-29.991055,-242.84221)">
    <circle
       style="opacity:1;vector-effect:none;fill:#ffffff;fill-opacity:1;stroke:#dbdbe3;stroke-width:3;stroke-linecap:butt;stroke-linejoin:miter;stroke-miterlimit:4;stroke-dasharray:none;stroke-dashoffset:0;stroke-opacity:1"
       id="path11586-7-8-2-4-4"
       cx="44.720222"
       cy="257.57138"
       r="13.229167"
       inkscape:export-xdpi="90"
       inkscape:export-ydpi="90"
       inkscape:export-filename="F:\SESI\Layout\Telas\tela_atentimento_resumo.png" />
    <g
       id="g9965-7-2"
       transform="matrix(0.2,0,0,0.2,-54.685684,513.5532)"
       style="fill:#d66994;fill-opacity:1;stroke-width:1.32291675"
       inkscape:export-xdpi="120"
       inkscape:export-ydpi="120">
      <g
         id="g9963-6-9"
         transform="matrix(0.43007418,0,0,0.43007418,343.91774,-1341.6571)"
         style="fill:#d66994;fill-opacity:1;stroke-width:3.07601953">
        <path
           d="m 315.45148,62.193397 c -13.77186,0 -26.71858,5.363003 -36.45501,15.101246 -14.87575,14.873088 -18.74044,36.648577 -11.60065,55.112587 h 46.96747 l 14.48335,-30.77626 c 0.66786,-1.41919 2.01766,-2.302671 3.69509,-2.225004 1.5687,0.07377 2.93683,1.085574 3.46879,2.559164 l 21.55441,59.68991 17.72937,-49.96158 c 0.52809,-1.49296 1.91037,-2.51241 3.49266,-2.58035 1.62113,-0.0466 3.04612,0.83112 3.7004,2.27362 l 8.67463,19.07833 h 54.18085 c 1.81415,-5.31032 2.76159,-10.94036 2.76159,-16.71628 0,-13.771853 -5.36302,-26.717705 -15.10126,-36.454137 -9.73643,-9.738243 -22.68408,-15.101246 -36.45412,-15.101246 -13.77186,0 -26.71858,5.363003 -36.45501,15.101246 l -4.09289,4.092904 -4.09378,-4.092904 C 342.16913,67.5564 329.22152,62.193397 315.45148,62.193397 Z m 126.5976,75.849263 h -52.56845 c -1.52211,0 -3.72374,-0.70073 -4.35278,-2.08887 l -5.72916,-12.60218 -18.14132,51.12486 c -0.54749,1.54542 -2.00682,2.58003 -3.64735,2.58392 h -0.008 c -1.63666,0 -3.09652,-1.02506 -3.65178,-2.56269 l -22.06094,-61.08837 -11.54584,24.53434 c -0.64068,1.36098 -1.19243,2.04116 -2.69706,2.04116 h -46.58115 c 2.15597,3.64795 4.79947,7.08575 7.93119,10.21719 l 73.16284,73.16196 c 1.06091,1.06091 2.44967,1.59204 3.84007,1.59204 1.3904,0 2.77908,-0.53032 3.8436,-1.58941 l 73.16019,-73.16283 c 3.646,-3.64532 6.67845,-7.74081 9.04591,-12.16112 z"
           id="path9961-34-7"
           inkscape:connector-curvature="0"
           sodipodi:nodetypes="sccccccccccccscscccscsccccscccscccsccc"
           style="fill:#d66994;fill-opacity:1;stroke-width:3.07601953" />
      </g>
    </g>
  </g>
</svg>
