<?xml version="1.0" encoding="UTF-8" standalone="no"?>
<!-- Created with Inkscape (http://www.inkscape.org/) -->

<svg
   xmlns:dc="http://purl.org/dc/elements/1.1/"
   xmlns:cc="http://creativecommons.org/ns#"
   xmlns:rdf="http://www.w3.org/1999/02/22-rdf-syntax-ns#"
   xmlns:svg="http://www.w3.org/2000/svg"
   xmlns="http://www.w3.org/2000/svg"
   xmlns:sodipodi="http://sodipodi.sourceforge.net/DTD/sodipodi-0.dtd"
   xmlns:inkscape="http://www.inkscape.org/namespaces/inkscape"
   width="41.14661mm"
   height="57.630135mm"
   viewBox="0 0 41.146609 57.630134"
   version="1.1"
   id="svg13860"
   inkscape:version="0.92.1 r15371"
   sodipodi:docname="pressao_bg.svg">
  <defs
     id="defs13854">
    <clipPath
       clipPathUnits="userSpaceOnUse"
       id="clipPath13714">
      <rect
         style="opacity:1;vector-effect:none;fill:none;fill-opacity:1;stroke:none;stroke-width:0.19999997;stroke-linecap:butt;stroke-linejoin:miter;stroke-miterlimit:4;stroke-dasharray:none;stroke-dashoffset:0;stroke-opacity:1"
         id="rect13716"
         width="43.150707"
         height="48.9207"
         x="-140.00766"
         y="72.091484"
         rx="8.2341423"
         ry="8.2341423"
         inkscape:export-filename="F:\SESI\Layout\Telas\tela_atendimento_tipodeatendimento.png"
         inkscape:export-xdpi="90"
         inkscape:export-ydpi="90" />
    </clipPath>
    <clipPath
       clipPathUnits="userSpaceOnUse"
       id="clipPath13772">
      <path
         style="opacity:1;vector-effect:none;fill:none;fill-opacity:1;stroke:none;stroke-width:0.19999997;stroke-linecap:butt;stroke-linejoin:miter;stroke-miterlimit:4;stroke-dasharray:none;stroke-dashoffset:0;stroke-opacity:1"
         d="m 260.05428,173.33904 h 17.01768 c 1.26442,0 2.28235,1.01792 2.28235,2.28235 v 19.90362 c 0,1.26442 -1.01793,2.28235 -2.28235,2.28235 h -17.01768 c -1.26443,0 -2.28235,-1.01793 -2.28235,-2.28235 v -19.90362 c 0,-1.26443 1.01792,-2.28235 2.28235,-2.28235 z"
         id="path13774"
         inkscape:connector-curvature="0" />
    </clipPath>
    <clipPath
       clipPathUnits="userSpaceOnUse"
       id="clipPath13811">
      <path
         style="opacity:1;vector-effect:none;fill:none;fill-opacity:1;stroke:none;stroke-width:0.19999997;stroke-linecap:butt;stroke-linejoin:miter;stroke-miterlimit:4;stroke-dasharray:none;stroke-dashoffset:0;stroke-opacity:1"
         d="m 10.75861,69.884496 h 14.374257 c 1.068018,0 1.927847,0.859804 1.927847,1.927822 v 16.811914 c 0,1.068011 -0.859829,1.927822 -1.927847,1.927822 H 10.75861 c -1.0680116,0 -1.9278223,-0.859811 -1.9278223,-1.927822 V 71.812318 c 0,-1.068018 0.8598107,-1.927822 1.9278223,-1.927822 z"
         id="path13813"
         inkscape:connector-curvature="0" />
    </clipPath>
    <clipPath
       clipPathUnits="userSpaceOnUse"
       id="clipPath13214">
      <rect
         style="opacity:1;vector-effect:none;fill:none;fill-opacity:1;stroke:none;stroke-width:0.19999997;stroke-linecap:butt;stroke-linejoin:miter;stroke-miterlimit:4;stroke-dasharray:none;stroke-dashoffset:0;stroke-opacity:1"
         id="rect13216"
         width="77.863464"
         height="88.275154"
         x="1239.4489"
         y="-1238.9476"
         rx="8.2341423"
         ry="8.2341423"
         inkscape:export-filename="F:\SESI\Layout\Telas\tela_atendimento_tipodeatendimento.png"
         inkscape:export-xdpi="90"
         inkscape:export-ydpi="90" />
    </clipPath>
    <clipPath
       clipPathUnits="userSpaceOnUse"
       id="clipPath13317">
      <rect
         style="opacity:1;vector-effect:none;fill:none;fill-opacity:1;stroke:none;stroke-width:0.19999997;stroke-linecap:butt;stroke-linejoin:miter;stroke-miterlimit:4;stroke-dasharray:none;stroke-dashoffset:0;stroke-opacity:1"
         id="rect13319"
         width="66.760376"
         height="75.687386"
         x="407.67596"
         y="-40.52887"
         rx="8.2341423"
         ry="8.2341423"
         inkscape:export-filename="F:\SESI\Layout\Telas\tela_atendimento_tipodeatendimento.png"
         inkscape:export-xdpi="90"
         inkscape:export-ydpi="90" />
    </clipPath>
    <clipPath
       clipPathUnits="userSpaceOnUse"
       id="clipPath13380">
      <rect
         style="opacity:1;vector-effect:none;fill:none;fill-opacity:1;stroke:none;stroke-width:0.19999997;stroke-linecap:butt;stroke-linejoin:miter;stroke-miterlimit:4;stroke-dasharray:none;stroke-dashoffset:0;stroke-opacity:1"
         id="rect13382"
         width="94.576263"
         height="107.22274"
         x="486.65747"
         y="-1333.5208"
         rx="8.2341423"
         ry="8.2341423"
         inkscape:export-filename="F:\SESI\Layout\Telas\tela_atendimento_tipodeatendimento.png"
         inkscape:export-xdpi="90"
         inkscape:export-ydpi="90" />
    </clipPath>
  </defs>
  <sodipodi:namedview
     id="base"
     pagecolor="#ffffff"
     bordercolor="#666666"
     borderopacity="1.0"
     inkscape:pageopacity="0.0"
     inkscape:pageshadow="2"
     inkscape:zoom="0.35"
     inkscape:cx="-590.53845"
     inkscape:cy="573.14622"
     inkscape:document-units="mm"
     inkscape:current-layer="layer1"
     showgrid="false"
     fit-margin-top="0"
     fit-margin-left="0"
     fit-margin-right="0"
     fit-margin-bottom="0"
     inkscape:window-width="1920"
     inkscape:window-height="1018"
     inkscape:window-x="-8"
     inkscape:window-y="-8"
     inkscape:window-maximized="1" />
  <metadata
     id="metadata13857">
    <rdf:RDF>
      <cc:Work
         rdf:about="">
        <dc:format>image/svg+xml</dc:format>
        <dc:type
           rdf:resource="http://purl.org/dc/dcmitype/StillImage" />
        <dc:title></dc:title>
      </cc:Work>
    </rdf:RDF>
  </metadata>
  <g
     inkscape:label="Layer 1"
     inkscape:groupmode="layer"
     id="layer1"
     transform="translate(-69.312106,-242.84814)">
    <g
       id="g9965-7-2-8"
       transform="matrix(0.82328761,0,0,0.82328761,-331.34696,1325.3967)"
       style="fill:#d66994;fill-opacity:1;stroke-width:0.32137415;opacity:0.1"
       inkscape:export-xdpi="120"
       inkscape:export-ydpi="120"
       clip-path="url(#clipPath13380)">
      <g
         id="g9963-6-9-0"
         transform="matrix(0.43007418,0,0,0.43007418,343.91774,-1341.6571)"
         style="fill:#d66994;fill-opacity:1;stroke-width:0.7472527">
        <path
           d="m 315.45148,62.193397 c -13.77186,0 -26.71858,5.363003 -36.45501,15.101246 -14.87575,14.873088 -18.74044,36.648577 -11.60065,55.112587 h 46.96747 l 14.48335,-30.77626 c 0.66786,-1.41919 2.01766,-2.302671 3.69509,-2.225004 1.5687,0.07377 2.93683,1.085574 3.46879,2.559164 l 21.55441,59.68991 17.72937,-49.96158 c 0.52809,-1.49296 1.91037,-2.51241 3.49266,-2.58035 1.62113,-0.0466 3.04612,0.83112 3.7004,2.27362 l 8.67463,19.07833 h 54.18085 c 1.81415,-5.31032 2.76159,-10.94036 2.76159,-16.71628 0,-13.771853 -5.36302,-26.717705 -15.10126,-36.454137 -9.73643,-9.738243 -22.68408,-15.101246 -36.45412,-15.101246 -13.77186,0 -26.71858,5.363003 -36.45501,15.101246 l -4.09289,4.092904 -4.09378,-4.092904 C 342.16913,67.5564 329.22152,62.193397 315.45148,62.193397 Z m 126.5976,75.849263 h -52.56845 c -1.52211,0 -3.72374,-0.70073 -4.35278,-2.08887 l -5.72916,-12.60218 -18.14132,51.12486 c -0.54749,1.54542 -2.00682,2.58003 -3.64735,2.58392 h -0.008 c -1.63666,0 -3.09652,-1.02506 -3.65178,-2.56269 l -22.06094,-61.08837 -11.54584,24.53434 c -0.64068,1.36098 -1.19243,2.04116 -2.69706,2.04116 h -46.58115 c 2.15597,3.64795 4.79947,7.08575 7.93119,10.21719 l 73.16284,73.16196 c 1.06091,1.06091 2.44967,1.59204 3.84007,1.59204 1.3904,0 2.77908,-0.53032 3.8436,-1.58941 l 73.16019,-73.16283 c 3.646,-3.64532 6.67845,-7.74081 9.04591,-12.16112 z"
           id="path9961-34-7-1"
           inkscape:connector-curvature="0"
           sodipodi:nodetypes="sccccccccccccscscccscsccccscccscccsccc"
           style="fill:#d66994;fill-opacity:1;stroke-width:0.7472527" />
      </g>
    </g>
  </g>
</svg>
