<?xml version="1.0" encoding="UTF-8" standalone="no"?>
<!-- Created with Inkscape (http://www.inkscape.org/) -->

<svg
   xmlns:dc="http://purl.org/dc/elements/1.1/"
   xmlns:cc="http://creativecommons.org/ns#"
   xmlns:rdf="http://www.w3.org/1999/02/22-rdf-syntax-ns#"
   xmlns:svg="http://www.w3.org/2000/svg"
   xmlns="http://www.w3.org/2000/svg"
   xmlns:sodipodi="http://sodipodi.sourceforge.net/DTD/sodipodi-0.dtd"
   xmlns:inkscape="http://www.inkscape.org/namespaces/inkscape"
   width="15.751299mm"
   height="10.060689mm"
   viewBox="0 0 15.751299 10.060689"
   version="1.1"
   id="svg12935"
   inkscape:version="0.92.1 r15371"
   sodipodi:docname="saudeocupacional_clean.svg">
  <defs
     id="defs12929" />
  <sodipodi:namedview
     id="base"
     pagecolor="#ffffff"
     bordercolor="#666666"
     borderopacity="1.0"
     inkscape:pageopacity="0.0"
     inkscape:pageshadow="2"
     inkscape:zoom="1.979899"
     inkscape:cx="60.641153"
     inkscape:cy="29.425608"
     inkscape:document-units="mm"
     inkscape:current-layer="layer1"
     showgrid="false"
     fit-margin-top="0"
     fit-margin-left="0"
     fit-margin-right="0"
     fit-margin-bottom="0"
     inkscape:window-width="1920"
     inkscape:window-height="1018"
     inkscape:window-x="-8"
     inkscape:window-y="-8"
     inkscape:window-maximized="1" />
  <metadata
     id="metadata12932">
    <rdf:RDF>
      <cc:Work
         rdf:about="">
        <dc:format>image/svg+xml</dc:format>
        <dc:type
           rdf:resource="http://purl.org/dc/dcmitype/StillImage" />
        <dc:title></dc:title>
      </cc:Work>
    </rdf:RDF>
  </metadata>
  <g
     inkscape:label="Layer 1"
     inkscape:groupmode="layer"
     id="layer1"
     transform="translate(7.0959293,-138.94099)">
    <path
       style="opacity:1;fill:#ee7627;fill-opacity:1;stroke:none;stroke-width:0.26499999;stroke-linecap:butt;stroke-linejoin:miter;stroke-miterlimit:4;stroke-dasharray:none;stroke-opacity:1"
       d="m 0.82466966,138.94128 v 0 0 c -0.6751,0.014 -1.3745,0.083 -1.6567,0.1985 l 0.2251,7.4404 -0.58419996,-6.9584 c -0.5397,0.1123 -1.3184,0.6653 -1.3239,0.6709 l 0.5239,2.7965 -0.868,-1.8902 c -1.6596,0.6854 -3.159299,3.556 -3.186899,6.0121 -0.043,0 -0.079,-2e-4 -0.1229,0 -0.5136,0 -0.9269,0.3992 -0.927,0.8952 0,0.4961 0.4134,0.8954 0.927,0.8954 h 13.897099 c 0.5136,0 0.9272,-0.3993 0.9272,-0.8954 0,-0.496 -0.4137,-0.9017 -0.9272,-0.8952 -0.011,1e-4 -0.022,0 -0.033,0 -0.028,-2.4562 -1.5269,-5.327 -3.1866,-6.0124 l -0.8683,1.8902 0.5242,-2.7965 c -0.01,-0.01 -0.7678,-0.5587 -1.3076,-0.6709 l -0.6009,6.9583 0.2252,-7.4403 c -0.2821,-0.1157 -0.9494,-0.1852 -1.62340004,-0.1984 v 0 c -0.01,0 -0.011,0 -0.017,0 -0.01,-2e-4 -0.011,0 -0.017,0 z m -5.58299896,8.4386 c 4.13069896,0.4407 7.051999,0.429 11.076199,0 -2.4592,0.7231 -9.0777,0.6935 -11.076199,0 z"
       id="path12543-2"
       inkscape:connector-curvature="0" />
  </g>
</svg>
