<?xml version="1.0" encoding="UTF-8" standalone="no"?>
<!-- Created with Inkscape (http://www.inkscape.org/) -->

<svg
   xmlns:dc="http://purl.org/dc/elements/1.1/"
   xmlns:cc="http://creativecommons.org/ns#"
   xmlns:rdf="http://www.w3.org/1999/02/22-rdf-syntax-ns#"
   xmlns:svg="http://www.w3.org/2000/svg"
   xmlns="http://www.w3.org/2000/svg"
   xmlns:sodipodi="http://sodipodi.sourceforge.net/DTD/sodipodi-0.dtd"
   xmlns:inkscape="http://www.inkscape.org/namespaces/inkscape"
   width="29.458334mm"
   height="29.458334mm"
   viewBox="0 0 29.458334 29.458334"
   version="1.1"
   id="svg11856"
   inkscape:version="0.92.3 (2405546, 2018-03-11)"
   sodipodi:docname="vacina_full.svg">
  <defs
     id="defs11850" />
  <sodipodi:namedview
     id="base"
     pagecolor="#ffffff"
     bordercolor="#666666"
     borderopacity="1.0"
     inkscape:pageopacity="0.0"
     inkscape:pageshadow="2"
     inkscape:zoom="2.8"
     inkscape:cx="22.409992"
     inkscape:cy="78.838597"
     inkscape:document-units="mm"
     inkscape:current-layer="layer1"
     showgrid="false"
     fit-margin-top="0"
     fit-margin-left="0"
     fit-margin-right="0"
     fit-margin-bottom="0"
     inkscape:window-width="1366"
     inkscape:window-height="705"
     inkscape:window-x="-8"
     inkscape:window-y="-8"
     inkscape:window-maximized="1" />
  <metadata
     id="metadata11853">
    <rdf:RDF>
      <cc:Work
         rdf:about="">
        <dc:format>image/svg+xml</dc:format>
        <dc:type
           rdf:resource="http://purl.org/dc/dcmitype/StillImage" />
        <dc:title></dc:title>
      </cc:Work>
    </rdf:RDF>
  </metadata>
  <g
     inkscape:label="Layer 1"
     inkscape:groupmode="layer"
     id="layer1"
     transform="translate(-37.821435,-202.50596)">
    <path
       style="color:#000000;font-style:normal;font-variant:normal;font-weight:normal;font-stretch:normal;font-size:medium;line-height:normal;font-family:sans-serif;font-variant-ligatures:normal;font-variant-position:normal;font-variant-caps:normal;font-variant-numeric:normal;font-variant-alternates:normal;font-feature-settings:normal;text-indent:0;text-align:start;text-decoration:none;text-decoration-line:none;text-decoration-style:solid;text-decoration-color:#000000;letter-spacing:normal;word-spacing:normal;text-transform:none;writing-mode:lr-tb;direction:ltr;text-orientation:mixed;dominant-baseline:auto;baseline-shift:baseline;text-anchor:start;white-space:normal;shape-padding:0;clip-rule:nonzero;display:inline;overflow:visible;visibility:visible;opacity:1;isolation:auto;mix-blend-mode:normal;color-interpolation:sRGB;color-interpolation-filters:linearRGB;solid-color:#000000;solid-opacity:1;vector-effect:none;fill:#ff802a;fill-opacity:1;fill-rule:nonzero;stroke:none;stroke-width:3;stroke-linecap:butt;stroke-linejoin:miter;stroke-miterlimit:4;stroke-dasharray:none;stroke-dashoffset:0;stroke-opacity:1;color-rendering:auto;image-rendering:auto;shape-rendering:auto;text-rendering:auto;enable-background:accumulate"
       d="m 52.550781,202.50586 c -8.116927,0 -14.728515,6.61159 -14.728515,14.72852 0,8.11692 6.611588,14.73046 14.728515,14.73046 8.116928,0 14.728516,-6.61354 14.728516,-14.73046 0,-8.11693 -6.611588,-14.72852 -14.728516,-14.72852 z"
       id="path11586-7-8-2-1-6-2-7-4-7"
       inkscape:connector-curvature="0"
       sodipodi:nodetypes="sssss" />
    <g
       id="g22052"
       transform="matrix(0.22620023,0,0,0.22620023,45.939985,210.62456)"
       style="opacity:1;fill:#ffffff;fill-opacity:1">
      <g
         id="g21993"
         style="fill:#ffffff;fill-opacity:1">
        <path
           id="path21985"
           d="m 58.157,56.743 -5.614,-5.614 c 0.304,-0.304 0.38,-0.769 0.188,-1.154 l -2.539,-5.078 c 1.457,-1.935 1.325,-4.694 -0.436,-6.455 l -4.699,-4.699 v 0 L 20.016,8.702 22.137,6.581 c 0.391,-0.391 0.391,-1.023 0,-1.414 -0.391,-0.391 -1.023,-0.391 -1.414,0 L 18.602,7.288 15.773,10.117 9.485,3.828 11.606,1.707 c 0.391,-0.391 0.391,-1.023 0,-1.414 -0.391,-0.391 -1.023,-0.391 -1.414,0 l -9.899,9.899 c -0.391,0.391 -0.391,1.023 0,1.414 0.195,0.196 0.451,0.293 0.707,0.293 0.256,0 0.512,-0.098 0.707,-0.293 l 2.121,-2.121 6.288,6.288 -2.829,2.829 -2.121,2.121 c -0.391,0.391 -0.391,1.023 0,1.414 0.195,0.195 0.451,0.293 0.707,0.293 0.256,0 0.512,-0.098 0.707,-0.293 l 2.121,-2.121 29.74,29.739 c 0.963,0.963 2.229,1.445 3.495,1.445 1.047,0 2.084,-0.349 2.96,-1.009 l 5.078,2.539 c 0.142,0.071 0.295,0.105 0.447,0.105 0.26,0 0.516,-0.101 0.708,-0.293 l 5.614,5.614 c 0.195,0.195 0.451,0.293 0.707,0.293 0.256,0 0.512,-0.098 0.707,-0.293 0.39,-0.39 0.39,-1.023 0,-1.413 z M 24.328,32.814 27.157,29.986 c 0.391,-0.39 0.391,-1.023 0,-1.414 -0.391,-0.391 -1.023,-0.391 -1.414,0 L 22.914,31.4 21.5,29.985 24.328,27.156 c 0.391,-0.391 0.391,-1.024 0,-1.414 -0.391,-0.391 -1.023,-0.391 -1.414,0 l -2.828,2.829 -1.808,-1.808 1.414,-1.414 v 0 l 5.657,-5.657 v 0 L 26.763,18.278 41.935,33.45 H 24.964 Z m -4.636,-10.293 -6.748,-6.748 2.829,-2.829 6.748,6.748 z m -1.09,-12.405 6.748,6.748 -1.414,1.414 -6.748,-6.748 z M 5.253,8.082 8.082,5.253 14.359,11.53 11.53,14.359 Z m 6.277,9.105 6.748,6.748 -1.414,1.414 -6.748,-6.748 z M 39.855,48.341 26.964,35.45 h 16.971 l 4.406,4.406 c 1.147,1.147 1.147,3.014 0,4.161 l -0.04,0.04 H 48.3 L 44.057,48.3 c -0.001,0.001 -0.001,0.002 -0.001,0.002 l -0.039,0.039 c -1.148,1.147 -3.014,1.147 -4.162,0 z m 6.597,0.392 2.281,-2.281 1.886,3.772 -0.395,0.395 z"
           inkscape:connector-curvature="0"
           style="fill:#ffffff;fill-opacity:1" />
        <circle
           id="circle21987"
           r="1"
           cy="39.450001"
           cx="36.450001"
           style="fill:#ffffff;fill-opacity:1" />
        <circle
           id="circle21989"
           r="1"
           cy="45.450001"
           cx="41.450001"
           style="fill:#ffffff;fill-opacity:1" />
        <circle
           id="circle21991"
           r="1"
           cy="40.450001"
           cx="43.450001"
           style="fill:#ffffff;fill-opacity:1" />
      </g>
      <g
         id="g21995"
         style="fill:#ffffff;fill-opacity:1" />
      <g
         id="g21997"
         style="fill:#ffffff;fill-opacity:1" />
      <g
         id="g21999"
         style="fill:#ffffff;fill-opacity:1" />
      <g
         id="g22001"
         style="fill:#ffffff;fill-opacity:1" />
      <g
         id="g22003"
         style="fill:#ffffff;fill-opacity:1" />
      <g
         id="g22005"
         style="fill:#ffffff;fill-opacity:1" />
      <g
         id="g22007"
         style="fill:#ffffff;fill-opacity:1" />
      <g
         id="g22009"
         style="fill:#ffffff;fill-opacity:1" />
      <g
         id="g22011"
         style="fill:#ffffff;fill-opacity:1" />
      <g
         id="g22013"
         style="fill:#ffffff;fill-opacity:1" />
      <g
         id="g22015"
         style="fill:#ffffff;fill-opacity:1" />
      <g
         id="g22017"
         style="fill:#ffffff;fill-opacity:1" />
      <g
         id="g22019"
         style="fill:#ffffff;fill-opacity:1" />
      <g
         id="g22021"
         style="fill:#ffffff;fill-opacity:1" />
      <g
         id="g22023"
         style="fill:#ffffff;fill-opacity:1" />
    </g>
  </g>
</svg>
