<?xml version="1.0" encoding="UTF-8" standalone="no"?>
<!-- Created with Inkscape (http://www.inkscape.org/) -->

<svg
   xmlns:dc="http://purl.org/dc/elements/1.1/"
   xmlns:cc="http://creativecommons.org/ns#"
   xmlns:rdf="http://www.w3.org/1999/02/22-rdf-syntax-ns#"
   xmlns:svg="http://www.w3.org/2000/svg"
   xmlns="http://www.w3.org/2000/svg"
   xmlns:sodipodi="http://sodipodi.sourceforge.net/DTD/sodipodi-0.dtd"
   xmlns:inkscape="http://www.inkscape.org/namespaces/inkscape"
   width="29.458334mm"
   height="29.458334mm"
   viewBox="0 0 29.458334 29.458334"
   version="1.1"
   id="svg11856"
   inkscape:version="0.92.1 r15371"
   sodipodi:docname="evolucao_full.svg">
  <defs
     id="defs11850" />
  <sodipodi:namedview
     id="base"
     pagecolor="#ffffff"
     bordercolor="#666666"
     borderopacity="1.0"
     inkscape:pageopacity="0.0"
     inkscape:pageshadow="2"
     inkscape:zoom="0.35"
     inkscape:cx="-51.608574"
     inkscape:cy="971.24857"
     inkscape:document-units="mm"
     inkscape:current-layer="layer1"
     showgrid="false"
     fit-margin-top="0"
     fit-margin-left="0"
     fit-margin-right="0"
     fit-margin-bottom="0"
     inkscape:window-width="1920"
     inkscape:window-height="1018"
     inkscape:window-x="-8"
     inkscape:window-y="-8"
     inkscape:window-maximized="1" />
  <metadata
     id="metadata11853">
    <rdf:RDF>
      <cc:Work
         rdf:about="">
        <dc:format>image/svg+xml</dc:format>
        <dc:type
           rdf:resource="http://purl.org/dc/dcmitype/StillImage" />
        <dc:title></dc:title>
      </cc:Work>
    </rdf:RDF>
  </metadata>
  <g
     inkscape:label="Layer 1"
     inkscape:groupmode="layer"
     id="layer1"
     transform="translate(73.279754,-376.35119)">
    <circle
       style="opacity:1;vector-effect:none;fill:#ee7627;fill-opacity:1;stroke:#ee7627;stroke-width:3;stroke-linecap:butt;stroke-linejoin:miter;stroke-miterlimit:4;stroke-dasharray:none;stroke-dashoffset:0;stroke-opacity:1"
       id="path11586-7-8-2-4-5-5"
       cx="-58.550587"
       cy="391.08035"
       r="13.229167"
       inkscape:export-xdpi="90"
       inkscape:export-ydpi="90"
       inkscape:export-filename="F:\SESI\Layout\Telas\tela_atentimento_resumo.png" />
    <path
       style="color:#000000;font-style:normal;font-variant:normal;font-weight:normal;font-stretch:normal;font-size:medium;line-height:normal;font-family:sans-serif;font-variant-ligatures:normal;font-variant-position:normal;font-variant-caps:normal;font-variant-numeric:normal;font-variant-alternates:normal;font-feature-settings:normal;text-indent:0;text-align:start;text-decoration:none;text-decoration-line:none;text-decoration-style:solid;text-decoration-color:#000000;letter-spacing:normal;word-spacing:normal;text-transform:none;writing-mode:lr-tb;direction:ltr;text-orientation:mixed;dominant-baseline:auto;baseline-shift:baseline;text-anchor:start;white-space:normal;shape-padding:0;clip-rule:nonzero;display:inline;overflow:visible;visibility:visible;opacity:1;isolation:auto;mix-blend-mode:normal;color-interpolation:sRGB;color-interpolation-filters:linearRGB;solid-color:#000000;solid-opacity:1;vector-effect:none;fill:#ffffff;fill-opacity:1;fill-rule:nonzero;stroke:none;stroke-width:0.5;stroke-linecap:butt;stroke-linejoin:miter;stroke-miterlimit:4;stroke-dasharray:none;stroke-dashoffset:0;stroke-opacity:1;color-rendering:auto;image-rendering:auto;shape-rendering:auto;text-rendering:auto;enable-background:accumulate"
       d="m -65.55064,384.35252 v 0.2277 13.2279 h 0.6412 13.358801 v -0.8684 H -64.68194 v -3.3512 l 2.5498,-1.8662 c 0.024,0 0.046,0.01 0.07,0.01 0.2004,0 0.3782,-0.076 0.5345,-0.1795 l 2.8453,1.6001 c 0,0.016 -0.01,0.031 -0.01,0.047 0,0.5396 0.4429,0.9826 0.9826,0.9826 0.5397,0 0.983,-0.4428 0.983,-0.9826 0,-0.2108 -0.083,-0.3957 -0.1972,-0.5563 l 2.0603,-3.9334 c 0.068,0.01 0.1339,0.026 0.2041,0.026 0.84,0 1.5272,-0.6871 1.5272,-1.527 0,-0.84 -0.687099,-1.5276 -1.5272,-1.5276 -0.8402,0 -1.5276,0.6875 -1.5276,1.5276 0,0.4516 0.2244,0.8336 0.5382,1.1136 l -2.0413,3.8966 c -0.01,-2e-4 -0.013,0 -0.02,0 -0.2005,0 -0.378,0.075 -0.5341,0.1791 l -2.8457,-1.6007 c 0,-0.015 0.01,-0.031 0.01,-0.047 0,-0.5396 -0.443,-0.982 -0.9826,-0.982 -0.5397,0 -0.9827,0.4424 -0.9827,0.982 0,0.1866 0.066,0.3522 0.1579,0.5016 l -1.7946,1.3185 v -8.2132 z"
       id="path12553-5"
       inkscape:connector-curvature="0"
       sodipodi:nodetypes="cccccccccsccsssccssssccsccssscccc" />
  </g>
</svg>
