<?xml version="1.0" encoding="UTF-8" standalone="no"?>
<!-- Created with Inkscape (http://www.inkscape.org/) -->

<svg
   xmlns:dc="http://purl.org/dc/elements/1.1/"
   xmlns:cc="http://creativecommons.org/ns#"
   xmlns:rdf="http://www.w3.org/1999/02/22-rdf-syntax-ns#"
   xmlns:svg="http://www.w3.org/2000/svg"
   xmlns="http://www.w3.org/2000/svg"
   xmlns:sodipodi="http://sodipodi.sourceforge.net/DTD/sodipodi-0.dtd"
   xmlns:inkscape="http://www.inkscape.org/namespaces/inkscape"
   width="47.645847mm"
   height="52.7164mm"
   viewBox="0 0 47.645847 52.7164"
   version="1.1"
   id="svg13860"
   inkscape:version="0.92.1 r15371"
   sodipodi:docname="trabalho_bg.svg">
  <defs
     id="defs13854">
    <clipPath
       clipPathUnits="userSpaceOnUse"
       id="clipPath13714">
      <rect
         style="opacity:1;vector-effect:none;fill:none;fill-opacity:1;stroke:none;stroke-width:0.19999997;stroke-linecap:butt;stroke-linejoin:miter;stroke-miterlimit:4;stroke-dasharray:none;stroke-dashoffset:0;stroke-opacity:1"
         id="rect13716"
         width="43.150707"
         height="48.9207"
         x="-140.00766"
         y="72.091484"
         rx="8.2341423"
         ry="8.2341423"
         inkscape:export-filename="F:\SESI\Layout\Telas\tela_atendimento_tipodeatendimento.png"
         inkscape:export-xdpi="90"
         inkscape:export-ydpi="90" />
    </clipPath>
    <clipPath
       clipPathUnits="userSpaceOnUse"
       id="clipPath13772">
      <path
         style="opacity:1;vector-effect:none;fill:none;fill-opacity:1;stroke:none;stroke-width:0.19999997;stroke-linecap:butt;stroke-linejoin:miter;stroke-miterlimit:4;stroke-dasharray:none;stroke-dashoffset:0;stroke-opacity:1"
         d="m 260.05428,173.33904 h 17.01768 c 1.26442,0 2.28235,1.01792 2.28235,2.28235 v 19.90362 c 0,1.26442 -1.01793,2.28235 -2.28235,2.28235 h -17.01768 c -1.26443,0 -2.28235,-1.01793 -2.28235,-2.28235 v -19.90362 c 0,-1.26443 1.01792,-2.28235 2.28235,-2.28235 z"
         id="path13774"
         inkscape:connector-curvature="0" />
    </clipPath>
    <clipPath
       clipPathUnits="userSpaceOnUse"
       id="clipPath13811">
      <path
         style="opacity:1;vector-effect:none;fill:none;fill-opacity:1;stroke:none;stroke-width:0.19999997;stroke-linecap:butt;stroke-linejoin:miter;stroke-miterlimit:4;stroke-dasharray:none;stroke-dashoffset:0;stroke-opacity:1"
         d="m 10.75861,69.884496 h 14.374257 c 1.068018,0 1.927847,0.859804 1.927847,1.927822 v 16.811914 c 0,1.068011 -0.859829,1.927822 -1.927847,1.927822 H 10.75861 c -1.0680116,0 -1.9278223,-0.859811 -1.9278223,-1.927822 V 71.812318 c 0,-1.068018 0.8598107,-1.927822 1.9278223,-1.927822 z"
         id="path13813"
         inkscape:connector-curvature="0" />
    </clipPath>
    <clipPath
       clipPathUnits="userSpaceOnUse"
       id="clipPath13214">
      <rect
         style="opacity:1;vector-effect:none;fill:none;fill-opacity:1;stroke:none;stroke-width:0.19999997;stroke-linecap:butt;stroke-linejoin:miter;stroke-miterlimit:4;stroke-dasharray:none;stroke-dashoffset:0;stroke-opacity:1"
         id="rect13216"
         width="77.863464"
         height="88.275154"
         x="1239.4489"
         y="-1238.9476"
         rx="8.2341423"
         ry="8.2341423"
         inkscape:export-filename="F:\SESI\Layout\Telas\tela_atendimento_tipodeatendimento.png"
         inkscape:export-xdpi="90"
         inkscape:export-ydpi="90" />
    </clipPath>
  </defs>
  <sodipodi:namedview
     id="base"
     pagecolor="#ffffff"
     bordercolor="#666666"
     borderopacity="1.0"
     inkscape:pageopacity="0.0"
     inkscape:pageshadow="2"
     inkscape:zoom="0.35"
     inkscape:cx="-282.907"
     inkscape:cy="324.61818"
     inkscape:document-units="mm"
     inkscape:current-layer="layer1"
     showgrid="false"
     fit-margin-top="0"
     fit-margin-left="0"
     fit-margin-right="0"
     fit-margin-bottom="0"
     inkscape:window-width="1920"
     inkscape:window-height="1018"
     inkscape:window-x="-8"
     inkscape:window-y="-8"
     inkscape:window-maximized="1" />
  <metadata
     id="metadata13857">
    <rdf:RDF>
      <cc:Work
         rdf:about="">
        <dc:format>image/svg+xml</dc:format>
        <dc:type
           rdf:resource="http://purl.org/dc/dcmitype/StillImage" />
        <dc:title></dc:title>
      </cc:Work>
    </rdf:RDF>
  </metadata>
  <g
     inkscape:label="Layer 1"
     inkscape:groupmode="layer"
     id="layer1"
     transform="translate(12.082047,-182.0055)">
    <path
       transform="translate(-1251.5309,1403.1738)"
       style="opacity:0.1;fill:#ee7627;fill-opacity:1;stroke:none;stroke-width:0.26500002;stroke-linecap:butt;stroke-linejoin:miter;stroke-miterlimit:4;stroke-dasharray:none;stroke-opacity:1"
       d="m 1246.0626,-1221.1673 v 0 0 c -3.5374,0.073 -6.7982,0.4349 -8.2769,1.0401 l 0.6409,33.4415 -2.9265,-30.9158 c -2.828,0.5884 -6.9083,3.4861 -6.9371,3.5154 l 2.7452,14.6533 -4.5483,-9.9044 c -8.6961,3.5914 -16.5543,18.6331 -16.699,31.5028 -0.2253,0 -0.4139,0 -0.644,0 -2.6912,0 -4.8568,2.0917 -4.8573,4.6907 0,2.5995 2.1661,4.6918 4.8573,4.6918 h 72.8193 c 2.6912,0 4.8585,-2.0923 4.8585,-4.6918 0,-2.599 -2.1678,-4.7248 -4.8585,-4.6907 -0.058,5e-4 -0.1153,0 -0.1729,0 -0.1467,-12.8703 -8.0008,-27.9129 -16.6974,-31.5044 l -4.5498,9.9045 2.7467,-14.6534 c -0.052,-0.052 -4.0232,-2.9275 -6.8517,-3.5154 l -3.2833,30.9153 0.7766,-33.4409 c -1.4782,-0.6063 -4.4366,-0.9705 -7.9683,-1.0396 v 0 h -0.089 c -0.052,0 -0.058,0 -0.089,0 z m -29.2543,44.2173 c 21.6445,2.3093 36.9517,2.248 58.0381,0 -12.8859,3.789 -47.5661,3.6339 -58.0381,0 z"
       id="path12543-2-6-7"
       inkscape:connector-curvature="0"
       sodipodi:nodetypes="ccccccccccccssscccccccccccccccc"
       clip-path="url(#clipPath13214)" />
  </g>
</svg>
