<?xml version="1.0" encoding="UTF-8" standalone="no"?>
<!-- Created with Inkscape (http://www.inkscape.org/) -->

<svg
   xmlns:dc="http://purl.org/dc/elements/1.1/"
   xmlns:cc="http://creativecommons.org/ns#"
   xmlns:rdf="http://www.w3.org/1999/02/22-rdf-syntax-ns#"
   xmlns:svg="http://www.w3.org/2000/svg"
   xmlns="http://www.w3.org/2000/svg"
   xmlns:sodipodi="http://sodipodi.sourceforge.net/DTD/sodipodi-0.dtd"
   xmlns:inkscape="http://www.inkscape.org/namespaces/inkscape"
   width="29.458334mm"
   height="29.458334mm"
   viewBox="0 0 29.458334 29.458334"
   version="1.1"
   id="svg12935"
   inkscape:version="0.92.1 r15371"
   sodipodi:docname="trabalho_full.svg">
  <defs
     id="defs12929" />
  <sodipodi:namedview
     id="base"
     pagecolor="#ffffff"
     bordercolor="#666666"
     borderopacity="1.0"
     inkscape:pageopacity="0.0"
     inkscape:pageshadow="2"
     inkscape:zoom="0.35"
     inkscape:cx="-234.46563"
     inkscape:cy="45.534274"
     inkscape:document-units="mm"
     inkscape:current-layer="layer1"
     showgrid="false"
     fit-margin-top="0"
     fit-margin-left="0"
     fit-margin-right="0"
     fit-margin-bottom="0"
     inkscape:window-width="1920"
     inkscape:window-height="1018"
     inkscape:window-x="-8"
     inkscape:window-y="-8"
     inkscape:window-maximized="1" />
  <metadata
     id="metadata12932">
    <rdf:RDF>
      <cc:Work
         rdf:about="">
        <dc:format>image/svg+xml</dc:format>
        <dc:type
           rdf:resource="http://purl.org/dc/dcmitype/StillImage" />
        <dc:title></dc:title>
      </cc:Work>
    </rdf:RDF>
  </metadata>
  <g
     inkscape:label="Layer 1"
     inkscape:groupmode="layer"
     id="layer1"
     transform="translate(24.898825,-131.42261)">
    <circle
       style="opacity:1;vector-effect:none;fill:#ee7627;fill-opacity:1;stroke:#ee7627;stroke-width:3;stroke-linecap:butt;stroke-linejoin:miter;stroke-miterlimit:4;stroke-dasharray:none;stroke-dashoffset:0;stroke-opacity:1"
       id="path11586-7-8-2-4-5"
       cx="-10.169658"
       cy="146.15178"
       r="13.229167"
       inkscape:export-xdpi="90"
       inkscape:export-ydpi="90"
       inkscape:export-filename="F:\SESI\Layout\Telas\tela_atentimento_resumo.png" />
    <path
       style="opacity:1;fill:#ffffff;fill-opacity:1;stroke:none;stroke-width:0.26499999;stroke-linecap:butt;stroke-linejoin:miter;stroke-miterlimit:4;stroke-dasharray:none;stroke-opacity:1"
       d="m -10.124734,140.09422 v 0 0 c -0.6751,0.014 -1.2974,0.083 -1.5796,0.1985 l 0.1223,6.3821 -0.5585,-5.9001 c -0.5397,0.1123 -1.3184,0.6653 -1.3239,0.6709 l 0.5239,2.7965 -0.868,-1.8902 c -1.6596,0.6854 -3.1593,3.556 -3.1869,6.0121 -0.043,0 -0.079,-2e-4 -0.1229,0 -0.5136,0 -0.9269,0.3992 -0.927,0.8952 0,0.4961 0.4134,0.8954 0.927,0.8954 h 13.8970998 c 0.5135999,0 0.9272001,-0.3993 0.9272001,-0.8954 0,-0.496 -0.4137002,-0.9017 -0.9272001,-0.8952 -0.010999,1e-4 -0.022,0 -0.033,0 -0.028,-2.4562 -1.5269,-5.327 -3.1866001,-6.0124 l -0.8683,1.8902 0.5242001,-2.7965 c -0.010001,-0.01 -0.7678002,-0.5587 -1.3076002,-0.6709 l -0.6266,5.9 0.1482,-6.382 c -0.2820998,-0.1157 -0.8467,-0.1852 -1.5206996,-0.1984 v 0 h -0.017 c -0.01,-2e-4 -0.011,0 -0.017,0 z m -5.583,8.4386 c 4.1307,0.4407 7.0519997,0.429 11.0761998,0 -2.4592,0.7231 -9.0776998,0.6935 -11.0761998,0 z"
       id="path12543-2-6"
       inkscape:connector-curvature="0"
       sodipodi:nodetypes="ccccccccccccssscccccccccccccccc" />
  </g>
</svg>
